<?xml version="1.0" encoding="UTF-8" standalone="no"?>
<svg
   xmlns:dc="http://purl.org/dc/elements/1.1/"
   xmlns:cc="http://creativecommons.org/ns#"
   xmlns:rdf="http://www.w3.org/1999/02/22-rdf-syntax-ns#"
   xmlns:svg="http://www.w3.org/2000/svg"
   xmlns="http://www.w3.org/2000/svg"
   xmlns:sodipodi="http://sodipodi.sourceforge.net/DTD/sodipodi-0.dtd"
   xmlns:inkscape="http://www.inkscape.org/namespaces/inkscape"
   width="50.513893mm"
   height="83.608337mm"
   viewBox="0 0 50.513893 83.608337"
   version="1.1"
   id="svg262"
   inkscape:version="1.0.1 (3bc2e813f5, 2020-09-07)"
   sodipodi:docname="ock.svg">
  <defs
     id="defs256" />
  <sodipodi:namedview
     id="base"
     pagecolor="#ffffff"
     bordercolor="#666666"
     borderopacity="1.0"
     inkscape:pageopacity="0.0"
     inkscape:pageshadow="2"
     inkscape:zoom="0.35"
     inkscape:cx="240.20126"
     inkscape:cy="213.53347"
     inkscape:document-units="mm"
     inkscape:current-layer="layer1"
     inkscape:document-rotation="0"
     showgrid="false"
     inkscape:window-width="1267"
     inkscape:window-height="728"
     inkscape:window-x="83"
     inkscape:window-y="0"
     inkscape:window-maximized="0" />
  <metadata
     id="metadata259">
    <rdf:RDF>
      <cc:Work
         rdf:about="">
        <dc:format>image/svg+xml</dc:format>
        <dc:type
           rdf:resource="http://purl.org/dc/dcmitype/StillImage" />
        <dc:title></dc:title>
      </cc:Work>
    </rdf:RDF>
  </metadata>
  <g
     inkscape:label="Layer 1"
     inkscape:groupmode="layer"
     id="layer1"
     transform="translate(-42.280083,-91.669269)">
    <g
       id="g367"
       transform="matrix(1.0102908,0,0,1.0102908,-0.43509519,-0.94334862)">
      <path
         style="clip-rule:nonzero;fill:#0a1923;fill-opacity:1;fill-rule:nonzero;stroke:none;stroke-width:0.352777"
         d="M 86.855484,99.03626 67.280451,91.669268 47.70404,99.03626 42.280082,142.62085 67.280451,157.23494 92.279442,142.62085 86.855484,99.03626"
         id="path47" />
      <path
         style="fill:#112335;fill-opacity:1;fill-rule:nonzero;stroke:none;stroke-width:0.352777"
         d="M 67.280451,91.669268 47.70404,99.03626 42.280082,142.62085 67.280451,157.23494"
         id="path51" />
      <path
         style="fill:#cfd1cf;fill-opacity:1;fill-rule:nonzero;stroke:none;stroke-width:0.352777"
         d="m 46.364587,140.60203 4.831402,-38.81521 16.084462,-6.05234 16.084462,6.05234 4.830021,38.81521 -20.914483,12.22595 z m 38.744922,-40.19049 -17.829058,-6.709666 -17.830436,6.709666 -5.12768,41.20059 22.958116,13.41933 22.956739,-13.41933 -5.127681,-41.20059"
         id="path53" />
      <path
         style="fill:#cfd1cf;fill-opacity:1;fill-rule:nonzero;stroke:none;stroke-width:0.352777"
         d="m 67.280451,121.58923 -2.623785,2.52732 2.623785,-19.31458 2.622406,19.31458 z m 3.402377,-19.99809 h -6.804754 l -4.390429,32.31362 -8.663726,1.36839 c -0.514009,0.0813 -0.869543,0.55673 -0.804775,1.07211 l 0.341754,2.6858 c 0.07304,0.56362 0.615983,0.9412 1.169954,0.81304 l 9.848839,-2.27789 c 0.901237,-0.20809 1.579232,-0.95223 1.703255,-1.86862 l 0.748275,-5.50664 3.44923,-3.3197 3.447851,3.3197 0.748276,5.50664 c 0.124023,0.91639 0.803394,1.66053 1.703255,1.86862 l 9.850215,2.27789 c 0.552596,0.12816 1.096918,-0.24942 1.168577,-0.81304 l 0.341755,-2.68717 c 0.06615,-0.51539 -0.289388,-0.98944 -0.802021,-1.06936 l -8.66648,-1.36977 -4.389051,-32.31362"
         id="path55" />
      <path
         style="fill:#cfd1cf;fill-opacity:1;fill-rule:nonzero;stroke:none;stroke-width:0.352777"
         d="m 74.789381,122.26861 h 2.793283 l 1.373901,10.94851 3.910875,0.61736 -3.66696,-29.22681 -4.022493,-1.50482 1.926498,15.36099 h -2.83187 l 0.516766,3.80477"
         id="path57" />
      <path
         style="fill:#cfd1cf;fill-opacity:1;fill-rule:nonzero;stroke:none;stroke-width:0.352777"
         d="m 56.978237,122.26861 h 2.793283 l 0.516765,-3.80477 h -2.833247 l 1.933388,-15.36237 -4.028006,1.5062 -3.668337,29.22681 3.91225,-0.61736 1.373904,-10.94851"
         id="path59" />
      <path
         style="fill:#cfd1cf;fill-opacity:1;fill-rule:nonzero;stroke:none;stroke-width:0.352777"
         d="m 71.464174,141.11052 c -0.858517,-0.59393 -2.411566,-0.99081 -4.183723,-0.99081 -1.773536,0 -3.325207,0.39688 -4.183724,0.99081 -0.365181,0.25356 -0.708312,0.6146 -0.708312,1.06798 0,0.47818 0,2.05741 0,2.53559 0,1.13688 2.189702,2.05741 4.892036,2.05741 2.700953,0 4.890658,-0.92053 4.890658,-2.05741 0,-0.47818 0,-2.05741 0,-2.53559 0,-0.45751 -0.341754,-0.81442 -0.706935,-1.06798"
         id="path61" />
      <path
         style="fill:#ffffff;fill-opacity:1;fill-rule:nonzero;stroke:none;stroke-width:0.352777"
         d="m 67.280451,95.73448 v -2.032606 l -17.830436,6.709666 -5.12768,41.20059 22.958116,13.41933 v -2.20348 l -20.915864,-12.22595 4.831402,-38.81521 16.084462,-6.05234"
         id="path63" />
      <path
         style="fill:#ffffff;fill-opacity:1;fill-rule:nonzero;stroke:none;stroke-width:0.352777"
         d="m 82.434736,137.37052 -0.0041,-0.001 -9.049583,-1.78039 -0.855761,-6.30728 -5.244813,-5.05051 v 2.64032 l 3.447851,3.32108 0.748276,5.50526 c 0.125399,0.91639 0.803394,1.66053 1.703255,1.86862 l 9.850215,2.27789 c 0.288012,0.0675 0.573265,-0.004 0.789617,-0.16674 l -1.384929,-2.30684"
         id="path65" />
      <path
         style="fill:#ffffff;fill-opacity:1;fill-rule:nonzero;stroke:none;stroke-width:0.352777"
         d="m 64.656666,124.11655 -2.621029,5.16489 5.244814,-5.05051 v -2.6417 l -2.623785,2.52732"
         id="path67" />
      <path
         style="fill:#ffffff;fill-opacity:1;fill-rule:nonzero;stroke:none;stroke-width:0.352777"
         d="m 68.980948,103.19656 -1.700497,1.60541 2.622406,19.31458 2.622407,5.16489 -3.544316,-26.08488 1.70188,-1.60542 h -6.804754 l -4.390429,32.31362 -8.663726,1.36839 c -0.512631,0.0827 -0.869543,0.55811 -0.804775,1.07211 l 0.343132,2.6858 c 0.03445,0.2701 0.177767,0.49609 0.377582,0.6463 l 1.384928,-2.30684 0.0027,-0.004 0.0014,0.003 9.049583,-1.78049 0.857141,-6.30729 3.542936,-26.08488 h 3.402375"
         id="path69" />
      <path
         style="fill:#ffffff;fill-opacity:1;fill-rule:nonzero;stroke:none;stroke-width:0.352777"
         d="m 74.272615,118.46384 0.257694,1.90307 h 4.729427 l -1.824522,-14.53279 -2.255848,-2.72438 1.925119,15.3541 h -2.83187"
         id="path71" />
      <path
         style="fill:#ffffff;fill-opacity:1;fill-rule:nonzero;stroke:none;stroke-width:0.352777"
         d="m 78.95519,133.21161 0.0013,0.005 3.910872,0.61736 -2.173163,-2.04363 -1.434539,-11.42394 -1.677075,1.90169 1.372529,10.94301"
         id="path73" />
      <path
         style="fill:#ffffff;fill-opacity:1;fill-rule:nonzero;stroke:none;stroke-width:0.352777"
         d="m 53.865249,131.79085 3.260438,-25.95673 2.262739,-2.73265 -4.028006,1.50758 -3.668337,29.22543 2.173166,-2.04363"
         id="path75" />
      <path
         style="fill:#ffffff;fill-opacity:1;fill-rule:nonzero;stroke:none;stroke-width:0.352777"
         d="m 57.455038,118.46384 -2.155251,1.90307 h 4.729427 l 0.259071,-1.90307 h -2.833247"
         id="path77" />
      <path
         style="fill:#ffffff;fill-opacity:1;fill-rule:nonzero;stroke:none;stroke-width:0.352777"
         d="m 67.280451,146.00531 c -2.678907,0 -4.124469,-0.91639 -4.124469,-1.29122 v -1.4304 c 0.868164,0.57326 2.390896,0.9536 4.124469,0.9536 1.73357,0 3.254924,-0.38034 4.124467,-0.9536 v 1.4304 c 0,0.37483 -1.445562,1.29122 -4.124467,1.29122 z m 4.183723,-4.89479 c -0.858517,-0.59393 -2.411566,-0.99081 -4.183723,-0.99081 -1.773536,0 -3.325207,0.39688 -4.183724,0.99081 -0.365181,0.25356 -0.708312,0.6146 -0.708312,1.06798 0,0.47818 0,2.05741 0,2.53559 0,1.13688 2.189702,2.05741 4.892036,2.05741 2.700953,0 4.890658,-0.92053 4.890658,-2.05741 0,-0.47818 0,-2.05741 0,-2.53559 0,-0.45751 -0.341754,-0.81442 -0.706935,-1.06798"
         id="path79" />
      <path
         style="clip-rule:nonzero;fill:#112335;fill-opacity:1;fill-rule:nonzero;stroke:none;stroke-width:0.352777"
         d="m 44.230006,171.97031 h 1.055577 l -0.531922,-1.9582 z m 1.690853,2.31786 -0.308681,-1.14102 h -1.700499 l -0.30868,1.14102 h -1.322917 l 1.881022,-6.09644 h 1.219564 l 1.863108,6.09644 h -1.322917"
         id="path81" />
      <path
         style="clip-rule:nonzero;fill:#112335;fill-opacity:1;fill-rule:nonzero;stroke:none;stroke-width:0.352777"
         d="m 48.909824,173.1127 h 2.086349 v 1.17547 h -3.340364 v -6.09644 h 1.254015 v 4.92097"
         id="path85" />
      <path
         style="clip-rule:nonzero;fill:#112335;fill-opacity:1;fill-rule:nonzero;stroke:none;stroke-width:0.352777"
         d="m 52.919914,173.1127 h 2.087728 v 1.17547 h -3.340364 v -6.09644 h 1.252636 v 4.92097"
         id="path89" />
      <path
         style="clip-rule:nonzero;fill:#112335;fill-opacity:1;fill-rule:nonzero;stroke:none;stroke-width:0.352777"
         d="m 58.08618,170.00385 c 0,-0.54157 -0.403766,-0.76481 -0.713824,-0.76481 -0.316949,0 -0.643544,0.18052 -0.643544,0.52365 0,0.36932 0.308681,0.54984 0.746897,0.71244 l 0.480935,0.19017 c 0.961871,0.36794 1.519976,0.93569 1.519976,1.8893 0,1.2361 -1.055577,1.87137 -2.060167,1.87137 -1.056955,0 -2.079459,-0.66972 -2.079459,-2.02709 v -0.11163 h 1.254014 v 0.10336 c 0,0.51538 0.34451,0.85025 0.825445,0.85025 0.436838,0 0.806152,-0.18879 0.806152,-0.62701 0,-0.44648 -0.428569,-0.64354 -0.771701,-0.78135 l -0.49885,-0.19706 c -1.107942,-0.43821 -1.477256,-0.97014 -1.477256,-1.79558 0,-1.04731 0.790993,-1.78594 1.897558,-1.78594 1.083138,0 1.941656,0.80753 1.941656,1.86311 v 0.19844 H 58.08618 v -0.11162"
         id="path93" />
      <path
         style="clip-rule:nonzero;fill:#112335;fill-opacity:1;fill-rule:nonzero;stroke:none;stroke-width:0.352777"
         d="m 62.461451,174.28817 h -1.219564 l -1.863108,-6.09644 h 1.313271 l 1.168576,4.12998 1.150662,-4.12998 h 1.331185 l -1.881022,6.09644"
         id="path97" />
      <path
         style="clip-rule:nonzero;fill:#112335;fill-opacity:1;fill-rule:nonzero;stroke:none;stroke-width:0.352777"
         d="m 65.998875,169.36857 v 1.20165 h 1.700499 v 1.18511 h -1.700499 v 1.35737 h 2.197971 v 1.17547 H 64.74486 v -6.09644 h 3.451986 v 1.17684 h -2.197971"
         id="path101" />
      <path
         style="clip-rule:nonzero;fill:#112335;fill-opacity:1;fill-rule:nonzero;stroke:none;stroke-width:0.352777"
         d="M 73.035138,174.28817 H 71.90239 l -1.907204,-3.59806 v 3.59806 H 68.74117 v -6.09644 h 1.185113 l 1.864487,3.43407 v -3.43407 h 1.244368 v 6.09644"
         id="path105" />
      <path
         style="clip-rule:nonzero;fill:#112335;fill-opacity:1;fill-rule:nonzero;stroke:none;stroke-width:0.352777"
         d="m 76.320381,170.00385 c 0,-0.54157 -0.403767,-0.76481 -0.712446,-0.76481 -0.318328,0 -0.644922,0.18052 -0.644922,0.52365 0,0.36932 0.310058,0.54984 0.748274,0.71244 l 0.480936,0.19017 c 0.960493,0.36794 1.519975,0.93569 1.519975,1.8893 0,1.2361 -1.056955,1.87137 -2.061543,1.87137 -1.056958,0 -2.078083,-0.66972 -2.078083,-2.02709 v -0.11163 h 1.254014 v 0.10336 c 0,0.51538 0.343133,0.85025 0.824069,0.85025 0.438216,0 0.807529,-0.18879 0.807529,-0.62701 0,-0.44648 -0.429948,-0.64354 -0.77308,-0.78135 l -0.49747,-0.19706 c -1.109321,-0.43821 -1.477259,-0.97014 -1.477259,-1.79558 0,-1.04731 0.789618,-1.78594 1.89756,-1.78594 1.08176,0 1.940277,0.80753 1.940277,1.86311 v 0.19844 h -1.227831 v -0.11162"
         id="path109" />
      <path
         style="clip-rule:nonzero;fill:#112335;fill-opacity:1;fill-rule:nonzero;stroke:none;stroke-width:0.352777"
         d="m 82.416823,168.19173 -1.759754,2.68717 1.923738,3.40927 h -1.434534 l -1.305004,-2.49012 -0.377585,0.55811 v 1.93201 h -1.254011 v -6.09644 h 1.254011 v 2.43774 l 1.493796,-2.43774 h 1.459343"
         id="path113" />
      <path
         style="clip-rule:nonzero;fill:#112335;fill-opacity:1;fill-rule:nonzero;stroke:none;stroke-width:0.352777"
         d="m 84.599636,171.97031 h 1.055576 l -0.531923,-1.9582 z m 1.690851,2.31786 -0.308678,-1.14102 h -1.700504 l -0.308679,1.14102 H 82.64971 l 1.881023,-6.09644 h 1.218184 l 1.864487,6.09644 h -1.322917"
         id="path117" />
      <path
         style="clip-rule:nonzero;fill:#112335;fill-opacity:1;fill-rule:nonzero;stroke:none;stroke-width:0.352777"
         d="m 92.279442,174.28817 h -1.13275 l -1.907204,-3.59806 v 3.59806 h -1.252635 v -6.09644 h 1.185111 l 1.863106,3.43407 v -3.43407 h 1.244372 v 6.09644"
         id="path121" />
      <path
         style="fill:#112335;fill-opacity:1;fill-rule:nonzero;stroke:none;stroke-width:0.352777"
         d="m 57.409563,160.83852 v 6.09781 h -1.254015 v -2.54248 h -1.649511 v 2.54248 h -1.254015 v -6.09781 h 1.254015 v 2.3716 h 1.649511 v -2.3716 h 1.254015"
         id="path125" />
      <path
         style="fill:#112335;fill-opacity:1;fill-rule:nonzero;stroke:none;stroke-width:0.352777"
         d="m 59.297475,162.82289 v 2.12907 c 0,0.49885 0.301791,0.93706 0.902615,0.93706 0.600825,0 0.901237,-0.43821 0.901237,-0.93706 v -2.12907 c 0,-0.4892 -0.30868,-0.93569 -0.901237,-0.93569 -0.592556,0 -0.902615,0.44649 -0.902615,0.93569 z m 3.057867,0 v 2.1208 c 0,1.14239 -0.80753,2.13045 -2.155252,2.13045 -1.357367,0 -2.155251,-0.98806 -2.155251,-2.13045 v -2.1208 c 0,-1.14239 0.806152,-2.1208 2.155251,-2.1208 1.347722,0 2.155252,0.97841 2.155252,2.1208"
         id="path127" />
      <path
         style="fill:#112335;fill-opacity:1;fill-rule:nonzero;stroke:none;stroke-width:0.352777"
         d="m 67.223951,164.95196 c 0,1.15066 -0.789616,2.12218 -2.120801,2.12218 -1.322917,0 -2.095996,-0.97152 -2.095996,-2.12218 v -2.12907 c 0,-1.14239 0.782726,-2.1208 2.095996,-2.1208 1.31327,0 2.095996,0.98667 2.095996,2.16352 v 0.0427 h -1.254015 v -0.051 c 0,-0.51539 -0.310058,-0.97014 -0.841981,-0.97014 -0.558106,0 -0.841981,0.44648 -0.841981,0.93569 v 2.12906 c 0,0.49886 0.265961,0.93707 0.841981,0.93707 0.558106,0 0.868164,-0.43821 0.868164,-0.93707 v -0.11988 h 1.252637 v 0.11989"
         id="path129" />
      <path
         style="fill:#112335;fill-opacity:1;fill-rule:nonzero;stroke:none;stroke-width:0.352777"
         d="m 72.102206,160.83852 -1.761133,2.68855 1.923741,3.40926 h -1.433158 l -1.30638,-2.49011 -0.377585,0.5581 v 1.93201 h -1.254014 v -6.09781 h 1.254014 v 2.43912 l 1.493796,-2.43912 h 1.460719"
         id="path131" />
      <path
         style="fill:#112335;fill-opacity:1;fill-rule:nonzero;stroke:none;stroke-width:0.352777"
         d="m 73.888144,162.01536 v 1.20302 h 1.700498 v 1.18512 h -1.700498 v 1.35599 h 2.19797 v 1.17684 H 72.63413 v -6.09781 h 3.451984 v 1.17684 h -2.19797"
         id="path133" />
      <path
         style="fill:#112335;fill-opacity:1;fill-rule:nonzero;stroke:none;stroke-width:0.352777"
         d="m 79.444394,163.92257 v 3.01376 H 78.19038 v -2.98896 l -1.907207,-3.10885 h 1.477259 l 1.03904,1.83003 1.022503,-1.83003 h 1.485527 l -1.863108,3.08405"
         id="path135" />
    </g>
  </g>
</svg>
