<?xml version="1.0" encoding="UTF-8" standalone="no"?>
<!-- Created with Inkscape (http://www.inkscape.org/) -->

<svg
   xmlns:dc="http://purl.org/dc/elements/1.1/"
   xmlns:cc="http://creativecommons.org/ns#"
   xmlns:rdf="http://www.w3.org/1999/02/22-rdf-syntax-ns#"
   xmlns:svg="http://www.w3.org/2000/svg"
   xmlns="http://www.w3.org/2000/svg"
   version="1.1"
   width="435.75824"
   height="332.72595"
   id="svg2"
   xml:space="preserve">
   <defs
     id="defs6"><clipPath
       id="clipPath22"><path
         d="M 0,0 612,0 612,792 0,792 0,0 z"
         id="path24" /></clipPath></defs><g
     transform="matrix(1.25,0,0,-1.25,-172.99466,709.42123)"
     id="g10"><g
       id="g12" /><g
       id="g14" /><g
       id="g16"><g
         id="g18"><g
           clip-path="url(#clipPath22)"
           id="g20"><path
             d="m 382.63924,497.43075 -3.96132,-47.29961 -23.73858,0 3.96131,47.29961 -29.76256,0 -9.20606,-109.90826 -18.19681,109.90826 -37.20245,0 -37.34582,-110.2767 9.23756,110.2767 -27.63882,0 -6.88302,-82.20184 -0.35541,0 -17.56311,82.20184 -34.1906,0 -10.59782,-126.48769 26.57559,0 7.30196,87.15714 0.35269,0 18.74065,-87.15714 60.35485,0 6.4459,24.0872 30.29553,0 2.58504,-24.0872 56.45734,0 4.52877,54.03004 23.73859,0 -4.52877,-54.03004 29.76256,0 10.59537,126.48769 -29.76256,0 m -117.49151,-79.36891 15.17166,56.34086 0.35269,0 6.09022,-56.34086 -21.61457,0 m 178.00574,-23.03158 8.5748,102.40049 -29.76283,0 -10.5951,-126.48769 72.81169,0 2.0203,24.0872 -43.04886,0 z"
             id="path10080"
             style="fill:#2c50a3;fill-opacity:1;fill-rule:nonzero;stroke:none" /><path
             d="m 349.16189,317.71369 c -62.4099,0 -116.85509,19.67627 -145.79823,48.873 l -63.80194,0 c 27.19056,-37.23449 95.59294,-64.43047 175.67728,-64.43047 70.91058,0 132.81684,21.28197 164.91275,51.85444 -30.78344,-22.12881 -78.02168,-36.29697 -130.98986,-36.29697 z"
             id="path10082"
             style="fill:#ee293d;fill-opacity:1;fill-rule:nonzero;stroke:none" /><path
             d="m 276.50931,551.17815 c 62.41533,0 116.86024,-19.67762 145.80366,-48.87273 l 63.80193,0 c -27.19598,37.23585 -95.59022,64.43156 -175.67483,64.43156 -70.9133,0 -132.81684,-21.2817 -164.91275,-51.8558 30.77828,22.13044 78.01897,36.29697 130.98199,36.29697 z"
             id="path10084"
             style="fill:#2c50a3;fill-opacity:1;fill-rule:nonzero;stroke:none" /></g></g></g></g></svg>