<?xml version="1.0" encoding="UTF-8" standalone="no"?>
<!-- Created with Inkscape (http://www.inkscape.org/) -->

<svg
   xmlns:dc="http://purl.org/dc/elements/1.1/"
   xmlns:cc="http://creativecommons.org/ns#"
   xmlns:rdf="http://www.w3.org/1999/02/22-rdf-syntax-ns#"
   xmlns:svg="http://www.w3.org/2000/svg"
   xmlns="http://www.w3.org/2000/svg"
   xmlns:inkscape="http://www.inkscape.org/namespaces/inkscape"
   version="1.1"
   width="515.85643631"
   height="193.852384038" viewBox="0 0 575.42499 216.2375"
   id="svg2"
   xml:space="preserve"><metadata
     id="metadata8"><rdf:RDF><cc:Work
         rdf:about=""><dc:format>image/svg+xml</dc:format><dc:type
           rdf:resource="http://purl.org/dc/dcmitype/StillImage" /></cc:Work></rdf:RDF></metadata><defs
     id="defs6"><clipPath
       id="clipPath18"><path
         d="m 0,0 4603,0 0,1729.93 -4603,0 L 0,0 z"
         inkscape:connector-curvature="0"
         id="path20" /></clipPath></defs><g
     transform="matrix(1.25,0,0,-1.25,0,216.2375)"
     id="g10"><g
       transform="scale(0.1,0.1)"
       id="g12"><g
         id="g14"><g
           clip-path="url(#clipPath18)"
           id="g16"><path
             d="m 3560.42,175.711 -450.11,0 171.44,735.367 363.89,643.142 236.06,0 -321.28,-1378.509"
             inkscape:connector-curvature="0"
             id="path22"
             style="fill:#171316;fill-opacity:1;fill-rule:nonzero;stroke:none" /><path
             d="m 2754.67,175.711 -236.07,0 321.27,1378.509 450.06,0 -171.4,-735.4 -363.86,-643.109"
             inkscape:connector-curvature="0"
             id="path24"
             style="fill:#171316;fill-opacity:1;fill-rule:nonzero;stroke:none" /><path
             d="m 1222.57,175.59 -1046.863,0 198.906,351.539 782.847,0 c 54.59,0 86.36,83.473 17.8,105.422 L 621.738,802.707 C 269.629,915.559 415.672,1554.35 915.895,1554.35 l 822.235,0 -188.86,-333.81 -660.829,0 c -63.761,0 -90.82,-82.63 -29.375,-100.72 L 1628.1,892.352 1222.57,175.59"
             inkscape:connector-curvature="0"
             id="path26"
             style="fill:#171316;fill-opacity:1;fill-rule:nonzero;stroke:none" /><path
             d="m 4228.85,175.711 -648.7,0 228.23,351.418 619.3,0 -198.83,-351.418"
             inkscape:connector-curvature="0"
             id="path28"
             style="fill:#171316;fill-opacity:1;fill-rule:nonzero;stroke:none" /><path
             d="m 2205.66,1049.02 117.29,505.2 -236.09,0 -363.88,-643.142 -171.41,-735.367 450.07,0 124.74,531.617 354.65,0 221.89,341.692 -497.26,0"
             inkscape:connector-curvature="0"
             id="path30"
             style="fill:#171316;fill-opacity:1;fill-rule:nonzero;stroke:none" /></g></g></g></g></svg>