<?xml version="1.0" encoding="UTF-8" standalone="no"?>
<!-- Created with Inkscape (http://www.inkscape.org/) -->

<svg
   xmlns:dc="http://purl.org/dc/elements/1.1/"
   xmlns:cc="http://creativecommons.org/ns#"
   xmlns:rdf="http://www.w3.org/1999/02/22-rdf-syntax-ns#"
   xmlns:svg="http://www.w3.org/2000/svg"
   xmlns="http://www.w3.org/2000/svg"
   version="1.1"
   width="628.92017"
   height="103.06788"
   id="svg4809">
  <defs
     id="defs4811" />
  <g
     transform="translate(-67.53993,-438.9711)"
     id="layer1">
    <g
       transform="matrix(3.4233388,0,0,-3.4233388,114.58726,509.128)"
       id="g798">
      <path
         d="m 0,0 0,-7.562 c 0,-0.241 -0.107,-0.429 -0.402,-0.429 l -1.261,0 0,-0.805 6.222,0 0,0.805 -1.528,0 c -0.698,0 -0.751,1.018 -0.751,3.781 L 2.28,7 c 0,0.24 0.107,0.429 0.401,0.429 l 1.208,0 0,0.804 -6.222,0 0,-0.804 1.582,0 C -0.053,7.429 0,6.41 0,3.648 l 0,-2.682 -8.822,0 0,6.034 c 0,0.24 0.107,0.429 0.401,0.429 l 1.207,0 0,0.804 -6.221,0 0,-0.804 1.582,0 c 0.697,0 0.751,-1.019 0.751,-3.781 l 0,-11.21 c 0,-0.241 -0.108,-0.429 -0.403,-0.429 l -1.26,0 0,-0.805 6.222,0 0,0.805 -1.529,0 c -0.697,0 -0.75,1.018 -0.75,3.781 l 0,4.21"
         id="path800"
         style="fill:#bfa403;fill-opacity:1;fill-rule:evenodd;stroke:none" />
    </g>
    <g
       transform="matrix(3.4233388,0,0,-3.4233388,114.58726,509.128)"
       id="g802">
      <path
         d="m 0,0 0.016,0 0,-7.562 c 0,-0.245 -0.115,-0.445 -0.418,-0.445 l -1.245,0 0,-0.773 6.19,0 0,0.773 -1.512,0 C 2.309,-7.998 2.266,-6.969 2.264,-4.21 l 0,11.21 c 0,0.244 0.114,0.444 0.417,0.445 l 1.191,0 0,0.772 -6.189,0 0,-0.772 1.566,0 C -0.029,7.436 0.014,6.406 0.016,3.648 l 0,-2.698 -8.854,0 0,6.05 c 0,0.244 0.114,0.444 0.417,0.445 l 1.191,0 0,0.772 -6.189,0 0,-0.772 1.566,0 c 0.721,-0.009 0.765,-1.039 0.767,-3.797 l 0,-11.21 c 0,-0.245 -0.115,-0.445 -0.419,-0.445 l -1.244,0 0,-0.773 6.19,0 0,0.773 -1.513,0 c -0.721,0.009 -0.764,1.038 -0.766,3.797 l 0,4.226 8.854,0 L 0.016,0 0,0 l 0,-0.016 -8.806,0 0,-4.194 c 0,-1.381 0.013,-2.326 0.113,-2.924 0.102,-0.599 0.283,-0.841 0.621,-0.841 l 1.545,0 0,-0.821 0,-0.016 -6.254,0 0,0.821 0,0.016 1.276,0 c 0.287,10e-4 0.385,0.176 0.387,0.413 l 0,11.21 c 0,1.381 -0.014,2.326 -0.114,2.923 -0.102,0.6 -0.283,0.841 -0.621,0.842 l -1.598,0 0,0.82 0,0.016 6.253,0 0,-0.82 0,-0.016 -1.223,0 C -8.707,7.411 -8.804,7.236 -8.806,7 l 0,-6.018 8.79,0 0,2.666 c 0,1.381 -0.013,2.326 -0.114,2.923 -0.102,0.6 -0.283,0.841 -0.621,0.842 l -1.598,0 0,0.82 0,0.016 6.254,0 0,-0.82 0,-0.016 -1.224,0 C 2.395,7.411 2.298,7.236 2.296,7 l 0,-11.21 c 0,-1.381 0.013,-2.326 0.113,-2.924 0.102,-0.599 0.284,-0.841 0.622,-0.841 l 1.544,0 0,-0.821 0,-0.016 -6.254,0 0,0.821 0,0.016 1.277,0 c 0.286,10e-4 0.384,0.176 0.386,0.413 L -0.016,0 0,0 0,-0.016 0,0 z"
         id="path804"
         style="fill:#bfa403;fill-opacity:1;fill-rule:nonzero;stroke:none" />
    </g>
    <g
       transform="matrix(3.4233388,0,0,-3.4233388,161.90876,482.22774)"
       id="g806">
      <path
         d="m 0,0 c 3.165,0 6.758,-2.574 6.758,-8.636 0,-4.879 -2.441,-7.642 -6.061,-7.642 -3.164,0 -6.758,2.575 -6.758,8.635 C -6.061,-2.762 -3.62,0 0,0 m 0.107,-17.163 c 5.337,0 8.931,4.21 8.931,9.279 0,5.229 -3.058,8.769 -8.448,8.769 -5.337,0 -8.93,-4.21 -8.93,-9.279 0,-5.229 3.057,-8.769 8.447,-8.769"
         id="path808"
         style="fill:#bfa403;fill-opacity:1;fill-rule:evenodd;stroke:none" />
    </g>
    <g
       transform="matrix(3.4233388,0,0,-3.4233388,161.90876,482.22774)"
       id="g810">
      <path
         d="m 0,0 0,0.016 c 1.587,0 3.281,-0.645 4.578,-2.05 1.297,-1.405 2.196,-3.568 2.196,-6.602 0,-2.442 -0.611,-4.356 -1.677,-5.661 -1.065,-1.304 -2.586,-1.997 -4.4,-1.997 -1.586,0 -3.28,0.646 -4.577,2.05 -1.297,1.405 -2.197,3.568 -2.197,6.601 0,2.443 0.611,4.358 1.677,5.662 1.065,1.304 2.586,1.997 4.4,1.997 L 0,0 0,-0.016 c -3.611,-0.001 -6.043,-2.751 -6.045,-7.627 0.001,-6.054 3.587,-8.618 6.742,-8.619 3.61,0.001 6.044,2.751 6.045,7.626 C 6.741,-2.581 3.156,-0.017 0,-0.016 L 0,0 z m 0.107,-17.163 0,0.016 c 5.328,0 8.914,4.201 8.915,9.263 -0.002,5.223 -3.05,8.751 -8.432,8.753 -5.328,-0.001 -8.914,-4.202 -8.914,-9.263 10e-4,-5.223 3.049,-8.752 8.431,-8.753 l 0,-0.016 0,-0.016 c -2.698,0 -4.815,0.886 -6.257,2.429 -1.441,1.542 -2.206,3.738 -2.206,6.356 0,2.538 0.899,4.862 2.468,6.551 1.568,1.689 3.805,2.744 6.478,2.744 2.699,0 4.815,-0.887 6.257,-2.429 1.441,-1.542 2.207,-3.739 2.207,-6.356 0,-2.538 -0.9,-4.862 -2.468,-6.551 -1.569,-1.69 -3.806,-2.744 -6.479,-2.744 l 0,0.016 z"
         id="path812"
         style="fill:#bfa403;fill-opacity:1;fill-rule:nonzero;stroke:none" />
    </g>
    <g
       transform="matrix(3.4233388,0,0,-3.4233388,217.40384,480.94364)"
       id="g814">
      <path
         d="m 0,0 -6.221,0 0,-0.804 1.582,0 c 0.697,0 0.751,-1.019 0.751,-3.781 l 0,-11.21 c 0,-0.241 -0.108,-0.429 -0.403,-0.429 l -1.26,0 0,-0.805 12.765,0 c 0.321,1.073 0.67,2.145 0.67,2.387 0,0.135 -0.107,0.295 -0.214,0.295 -0.188,0 -0.241,-0.16 -0.322,-0.295 -0.456,-0.75 -1.502,-1.421 -6.061,-1.421 l -1.797,0 c -0.804,0 -1.099,0 -1.099,3.325 l 0,11.505 c 0,0.24 0.108,0.429 0.403,0.429 l 1.206,0"
         id="path816"
         style="fill:#bfa403;fill-opacity:1;fill-rule:evenodd;stroke:none" />
    </g>
    <g
       transform="matrix(3.4233388,0,0,-3.4233388,217.40384,480.94364)"
       id="g818">
      <path
         d="m 0,0 0,-0.016 -6.205,0 0,-0.772 1.566,0 c 0.721,-0.009 0.764,-1.039 0.767,-3.797 l 0,-11.21 c -0.001,-0.245 -0.115,-0.445 -0.419,-0.445 l -1.244,0 0,-0.773 12.749,0 0,-0.016 -0.015,0.005 c 0.321,1.071 0.67,2.148 0.669,2.382 0,0.127 -0.107,0.279 -0.198,0.279 -0.175,10e-4 -0.226,-0.149 -0.309,-0.287 -0.461,-0.759 -1.515,-1.429 -6.074,-1.429 l -1.797,0 c -0.4,-0.002 -0.689,0.001 -0.866,0.425 -0.176,0.421 -0.249,1.253 -0.249,2.916 l 0,11.505 c 0,0.244 0.115,0.444 0.419,0.445 l 1.19,0 0,0.788 L 0,0 0,-0.016 0,0 l 0.016,0 0,-0.804 0,-0.016 -1.222,0 c -0.287,-0.002 -0.385,-0.177 -0.387,-0.413 l 0,-11.505 c 0.005,-3.33 0.287,-3.306 1.083,-3.309 l 1.797,0 c 4.558,0 5.597,0.671 6.047,1.414 0.079,0.13 0.136,0.302 0.336,0.302 0.123,-0.003 0.228,-0.169 0.23,-0.311 -0.001,-0.25 -0.349,-1.318 -0.67,-2.392 l -0.004,-0.011 -12.793,0 0,0.821 0,0.016 1.276,0 c 0.287,10e-4 0.384,0.176 0.387,0.413 l 0,11.21 c 0,1.381 -0.014,2.326 -0.114,2.923 -0.102,0.599 -0.284,0.841 -0.621,0.842 l -1.599,0 0,0.82 0,0.016 6.254,0 L 0.016,0 0,0 z"
         id="path820"
         style="fill:#bfa403;fill-opacity:1;fill-rule:nonzero;stroke:none" />
    </g>
    <g
       transform="matrix(3.4233388,0,0,-3.4233388,268.91447,513.90078)"
       id="g822">
      <path
         d="M 0,0 4.398,8.018 C 4.585,8.367 4.72,8.823 5.149,8.823 l 0.938,0 0,0.804 -4.88,0 0,-0.804 1.555,0 c 0.322,0 0.536,-0.027 0.536,-0.322 0,-0.51 -0.375,-1.287 -3.674,-7.482 -2.011,3.541 -4.317,7.455 -4.317,7.697 0,0.107 0.241,0.107 0.429,0.107 l 1.234,0 0,0.804 -6.034,0 0,-0.804 0.912,0 c 0.455,0 0.59,-0.027 0.884,-0.402 0.993,-1.261 1.905,-3.111 4.989,-8.501 l 0,-6.088 c 0,-0.241 -0.108,-0.429 -0.403,-0.429 l -1.261,0 0,-0.805 6.222,0 0,0.805 -1.528,0 C 0.054,-6.597 0,-5.578 0,-2.816"
         id="path824"
         style="fill:#bfa403;fill-opacity:1;fill-rule:evenodd;stroke:none" />
    </g>
    <g
       transform="matrix(3.4233388,0,0,-3.4233388,268.91447,513.90078)"
       id="g826">
      <path
         d="M 0,0 -0.014,0.008 4.384,8.026 C 4.57,8.371 4.705,8.837 5.149,8.839 l 0.922,0 0,0.772 -4.848,0 0,-0.772 1.539,0 c 0.319,0 0.552,-0.03 0.552,-0.338 C 3.313,7.981 2.937,7.207 -0.361,1.011 L -0.375,0.986 -0.39,1.011 c -2.012,3.544 -4.315,7.447 -4.319,7.705 0.012,0.134 0.258,0.119 0.445,0.123 l 1.218,0 0,0.772 -6.003,0 0,-0.772 0.897,0 c 0.454,0.002 0.603,-0.031 0.897,-0.408 0.994,-1.263 1.906,-3.113 4.99,-8.503 l 0.002,-0.004 0,-6.092 c -10e-4,-0.245 -0.116,-0.445 -0.419,-0.445 l -1.244,0 0,-0.773 6.189,0 0,0.773 -1.512,0 c -0.721,0.009 -0.765,1.038 -0.767,3.797 l 0,2.82 0.002,0.004 L 0,0 l 0.016,0 0,-2.816 c 0,-1.381 0.014,-2.326 0.114,-2.924 0.102,-0.599 0.283,-0.841 0.621,-0.841 l 1.544,0 0,-0.821 0,-0.016 -6.254,0 0,0.821 0,0.016 1.277,0 c 0.287,0.002 0.385,0.176 0.387,0.413 l 0,6.088 0.016,0 -0.014,-0.008 C -5.377,5.303 -6.29,7.153 -7.28,8.411 -7.575,8.784 -7.696,8.805 -8.152,8.807 l -0.912,0 -0.017,0 0,0.82 0,0.016 6.067,0 0,-0.82 0,-0.016 -1.25,0 c -0.094,0 -0.201,0 -0.283,-0.013 L -4.677,8.716 C -4.681,8.491 -2.372,4.564 -0.362,1.027 L -0.376,1.019 -0.39,1.026 C 2.909,7.22 3.284,8.001 3.282,8.501 3.281,8.783 3.086,8.804 2.762,8.807 l -1.571,0 0,0.82 0,0.016 4.912,0 0,-0.82 0,-0.016 -0.954,0 C 4.734,8.809 4.601,8.364 4.412,8.01 L 0.014,-0.008 0,0 0.016,0 0,0 z"
         id="path828"
         style="fill:#bfa403;fill-opacity:1;fill-rule:nonzero;stroke:none" />
    </g>
    <g
       transform="matrix(3.4233388,0,0,-3.4233388,394.60921,514.084)"
       id="g830">
      <path
         d="M 0,0 -5.337,0 -2.36,7.133 0,0 z m 0.376,-0.965 c 1.099,-3.245 1.85,-5.122 1.85,-5.311 0,-0.187 -0.188,-0.268 -0.376,-0.268 l -1.447,0 0,-0.804 6.006,0 0,0.804 -0.804,0 c -0.697,0 -1.019,0.376 -1.636,2.065 -1.314,3.567 -4.639,12.524 -4.639,13.677 0,0.51 0.483,0.483 0.483,0.832 0,0.187 -0.135,0.268 -0.269,0.268 -0.16,0 -0.911,-0.188 -1.582,-0.349 L -8.822,-6.114 c -0.162,-0.349 -0.564,-0.43 -0.966,-0.43 l -0.537,0 0,-0.804 5.417,0 0,0.804 -1.689,0 c -0.402,0 -0.67,0.135 -0.67,0.698 0,0.751 0.966,3.379 1.555,4.881"
         id="path832"
         style="fill:#bfa403;fill-opacity:1;fill-rule:evenodd;stroke:none" />
    </g>
    <g
       transform="matrix(3.4233388,0,0,-3.4233388,394.60921,514.084)"
       id="g834">
      <path
         d="m 0,0 0,-0.016 -5.361,0 3.003,7.195 2.38,-7.195 L 0,-0.016 0,0 -0.015,-0.005 -2.362,7.087 -5.313,0.016 0,0.016 0,0 -0.015,-0.005 0,0 z M 0.376,-0.965 0.391,-0.96 C 1.49,-4.207 2.24,-6.076 2.242,-6.276 2.241,-6.476 2.041,-6.559 1.85,-6.56 l -1.431,0 0,-0.772 5.974,0 0,0.772 -0.788,0 c -0.707,0 -1.036,0.388 -1.651,2.076 -1.315,3.569 -4.639,12.519 -4.64,13.682 0.004,0.523 0.491,0.502 0.483,0.832 -10e-4,0.178 -0.124,0.251 -0.253,0.252 -0.154,10e-4 -0.909,-0.188 -1.578,-0.349 L -2.038,9.949 -2.023,9.943 -8.808,-6.121 C -8.974,-6.479 -9.385,-6.56 -9.788,-6.56 l -0.521,0 0,-0.772 5.385,0 0,0.772 -1.673,0 c -0.203,0 -0.375,0.034 -0.497,0.142 -0.122,0.108 -0.189,0.288 -0.189,0.572 0.001,0.759 0.967,3.383 1.556,4.887 l 0.004,0.01 6.11,0 0.004,-0.011 -0.015,-0.005 0,-0.016 -6.088,0 0,0.016 0.015,-0.006 c -0.589,-1.501 -1.555,-4.132 -1.554,-4.875 0.003,-0.557 0.255,-0.678 0.654,-0.682 l 1.706,0 0,-0.82 0,-0.016 -5.45,0 0,0.82 0,0.016 0.553,0 c 0.401,0 0.795,0.082 0.951,0.42 l 6.787,16.071 0.008,0.002 c 0.672,0.16 1.42,0.349 1.586,0.349 0.14,0 0.285,-0.088 0.285,-0.284 C -0.18,9.661 -0.658,9.695 -0.654,9.198 -0.655,8.055 2.67,-0.908 3.985,-4.473 4.603,-6.164 4.918,-6.527 5.605,-6.528 l 0.804,0 0.016,0 0,-0.82 0,-0.016 -6.038,0 0,0.82 0,0.016 1.463,0 c 0.185,10e-4 0.36,0.079 0.36,0.252 0.002,0.178 -0.75,2.063 -1.849,5.306 l 0.015,0.005 0,-0.016 0,0.016 z"
         id="path836"
         style="fill:#bfa403;fill-opacity:1;fill-rule:nonzero;stroke:none" />
    </g>
    <g
       transform="matrix(3.4233388,0,0,-3.4233388,433.7356,480.94364)"
       id="g838">
      <path
         d="m 0,0 -3.888,0 0,-0.804 0.831,0 c 1.26,0 1.501,-0.912 1.501,-3.084 l 0,-11.799 c 0,-0.403 -0.294,-0.537 -0.616,-0.537 l -0.992,0 0,-0.805 4.907,0 0,0.805 -1.42,0 c -0.805,0 -0.859,1.582 -0.859,2.815 l 0,10.808 0.054,0 11.612,-13.998 0.321,-0.376 c 0.187,-0.215 0.295,-0.295 0.376,-0.295 0.187,0 0.214,0.188 0.214,0.43 l 0,15.499 c 0,0.403 0.294,0.537 0.617,0.537 l 0.992,0 0,0.804 -4.907,0 0,-0.804 1.421,0 c 0.804,0 0.858,-1.583 0.858,-2.816 l 0,-9.654 -0.054,0"
         id="path840"
         style="fill:#bfa403;fill-opacity:1;fill-rule:evenodd;stroke:none" />
    </g>
    <g
       transform="matrix(3.4233388,0,0,-3.4233388,433.7356,480.94364)"
       id="g842">
      <path
         d="m 0,0 0,-0.016 -3.872,0 0,-0.772 0.815,0 c 0.633,0.001 1.019,-0.232 1.238,-0.737 0.219,-0.504 0.279,-1.276 0.279,-2.363 l 0,-11.799 c 0,-0.413 -0.307,-0.553 -0.632,-0.553 l -0.976,0 0,-0.773 4.875,0 0,0.773 -1.404,0 c -0.83,0.009 -0.872,1.6 -0.876,2.831 l 0,10.824 0.071,0 0.008,0 11.616,-14.004 0.322,-0.375 c 0.185,-0.215 0.293,-0.292 0.363,-0.29 0.17,0 0.197,0.169 0.198,0.414 l 0,15.499 c 0,0.413 0.307,0.552 0.633,0.553 l 0.976,0 0,0.772 -4.875,0 0,-0.772 1.405,0 c 0.829,-0.01 0.871,-1.6 0.874,-2.832 l 0,-9.67 -0.07,0 -0.007,0 L -0.012,-0.01 0,0 0,-0.016 0,0 l 0.012,0.01 10.964,-13.268 0.03,0 0,9.638 c 0,0.616 -0.014,1.32 -0.127,1.867 -0.114,0.549 -0.326,0.934 -0.715,0.933 l -1.437,0 0,0.82 0,0.016 4.939,0 0,-0.82 0,-0.016 -1.008,0 c -0.319,-0.002 -0.6,-0.128 -0.601,-0.521 l 0,-15.499 c 0,-0.24 -0.027,-0.445 -0.23,-0.446 -0.092,0.001 -0.2,0.086 -0.388,0.301 l -0.322,0.375 -11.606,13.993 -0.031,0 0,-10.792 c -0.001,-0.616 0.013,-1.319 0.127,-1.867 0.115,-0.549 0.327,-0.933 0.716,-0.932 l 1.436,0 0,-0.821 0,-0.016 -4.939,0 0,0.821 0,0.016 1.008,0 c 0.319,0.002 0.599,0.129 0.6,0.521 l 0,11.799 c -0.002,2.175 -0.239,3.067 -1.485,3.068 l -0.831,0 -0.016,0 0,0.82 0,0.016 3.912,0 L 0.012,0.01 0,0 z"
         id="path844"
         style="fill:#bfa403;fill-opacity:1;fill-rule:nonzero;stroke:none" />
    </g>
    <g
       transform="matrix(3.4233388,0,0,-3.4233388,536.08588,516.28824)"
       id="g846">
      <path
         d="m 0,0 c 0,0.241 0.187,0.349 0.482,0.349 l 1.18,0 0,0.805 -6.569,0 0,-0.805 1.93,0 c 0.563,0 0.697,-0.724 0.697,-3.996 l 0,-1.823 c -1.019,-0.536 -2.253,-0.778 -3.486,-0.778 -4.559,0 -6.999,3.62 -6.999,7.911 0,7.241 5.712,8.207 7.831,8.207 2.708,0 4.236,-1.128 4.236,-1.797 0,-0.483 0.161,-0.483 0.322,-0.483 0.215,0 0.242,0.133 0.616,2.225 -1.394,0.725 -3.163,1.019 -4.826,1.019 -5.605,0 -10.62,-3.432 -10.62,-9.439 0,-5.068 3.111,-8.609 8.314,-8.609 1.985,0 5.067,0.591 6.784,1.395 0.268,0.134 0.43,0.269 0.43,0.429 C 0.322,-5.094 0,-5.176 0,-4.398"
         id="path848"
         style="fill:#bfa403;fill-opacity:1;fill-rule:evenodd;stroke:none" />
    </g>
    <g
       transform="matrix(3.4233388,0,0,-3.4233388,536.08588,516.28824)"
       id="g850">
      <path
         d="m 0,0 -0.016,0 c 0,0.252 0.2,0.365 0.498,0.365 l 1.164,0 0,0.772 -6.537,0 0,-0.772 1.914,0 c 0.587,-0.008 0.711,-0.743 0.713,-4.012 l 0,-1.833 -0.008,-0.005 c -1.022,-0.537 -2.259,-0.779 -3.494,-0.779 -2.284,-10e-4 -4.039,0.907 -5.221,2.352 -1.183,1.445 -1.794,3.427 -1.794,5.575 0,3.625 1.431,5.683 3.128,6.832 1.697,1.149 3.657,1.39 4.719,1.39 2.712,-0.002 4.247,-1.122 4.252,-1.812 0.006,-0.48 0.146,-0.462 0.306,-0.467 0.1,0.002 0.149,0.021 0.233,0.316 0.08,0.294 0.18,0.85 0.367,1.896 L 0.24,9.815 0.233,9.801 c -1.391,0.723 -3.158,1.017 -4.819,1.017 -5.599,-10e-4 -10.604,-3.427 -10.604,-9.423 10e-4,-5.062 3.103,-8.592 8.298,-8.593 1.982,0 5.064,0.591 6.777,1.394 0.268,0.132 0.422,0.266 0.421,0.414 0.006,0.277 -0.322,0.21 -0.322,0.992 L -0.016,0 0,0 l 0.016,0 0,-4.398 c 0,-0.773 0.315,-0.677 0.322,-0.992 -0.001,-0.173 -0.17,-0.309 -0.439,-0.443 -1.721,-0.806 -4.803,-1.397 -6.791,-1.397 -2.605,0 -4.688,0.887 -6.12,2.409 -1.431,1.522 -2.21,3.679 -2.21,6.216 0,3.008 1.256,5.373 3.214,6.985 1.958,1.611 4.616,2.47 7.422,2.47 1.664,0 3.436,-0.295 4.833,-1.021 L 0.258,9.824 0.256,9.812 C 0.069,8.766 -0.032,8.21 -0.112,7.914 -0.19,7.62 -0.262,7.572 -0.376,7.574 l -0.232,0.065 c -0.066,0.066 -0.105,0.191 -0.106,0.434 0.002,0.322 -0.375,0.771 -1.094,1.135 -0.718,0.364 -1.774,0.645 -3.126,0.645 -2.117,-10e-4 -7.815,-0.96 -7.815,-8.19 0.001,-4.285 2.434,-7.895 6.983,-7.895 1.231,0 2.463,0.241 3.479,0.776 l 0.007,-0.014 -0.016,0 0,1.823 c 0,1.636 -0.033,2.635 -0.137,3.223 -0.105,0.589 -0.272,0.756 -0.544,0.757 l -1.946,0 0,0.821 0,0.015 6.601,0 0,-0.82 0,-0.016 -1.196,0 C 0.189,0.331 0.017,0.23 0.016,0 L 0,0 z"
         id="path852"
         style="fill:#bfa403;fill-opacity:1;fill-rule:nonzero;stroke:none" />
    </g>
    <g
       transform="matrix(3.4233388,0,0,-3.4233388,555.92309,535.01525)"
       id="g854">
      <path
         d="m 0,0 c 0,-0.241 -0.108,-0.429 -0.403,-0.429 l -1.259,0 0,-0.805 12.764,0 c 0.322,1.073 0.671,2.145 0.671,2.388 0,0.134 -0.109,0.294 -0.215,0.294 -0.188,0 -0.242,-0.16 -0.322,-0.294 C 10.78,0.403 9.734,-0.268 5.176,-0.268 l -1.797,0 c -0.805,0 -1.099,0 -1.099,3.325 l 0,4.586 3.379,0 c 3.056,0 3.324,-0.026 3.324,-0.751 l 0,-0.938 0.725,0 0,4.532 -0.725,0 0,-1.046 C 8.983,8.635 8.153,8.528 5.39,8.528 l -3.11,0 0,5.819 c 0,0.269 0.133,0.482 0.536,0.482 l 2.628,0 c 4.237,0 4.692,-0.723 4.773,-1.045 0.054,-0.349 0.107,-0.482 0.322,-0.482 0.241,0.053 0.321,0.133 0.563,2.493 l -13.435,0 0,-0.804 1.582,0 C -0.053,14.991 0,13.972 0,11.21"
         id="path856"
         style="fill:#bfa403;fill-opacity:1;fill-rule:evenodd;stroke:none" />
    </g>
    <g
       transform="matrix(3.4233388,0,0,-3.4233388,555.92309,535.01525)"
       id="g858">
      <path
         d="m 0,0 0.016,0 c 0,-0.245 -0.115,-0.445 -0.419,-0.445 l -1.243,0 0,-0.773 12.748,0 0,-0.016 -0.016,0.005 c 0.323,1.071 0.671,2.148 0.67,2.383 0,0.126 -0.107,0.278 -0.198,0.278 C 11.382,1.433 11.332,1.283 11.25,1.145 10.788,0.386 9.734,-0.284 5.176,-0.284 l -1.797,0 C 2.979,-0.286 2.689,-0.283 2.513,0.141 2.337,0.562 2.264,1.394 2.264,3.057 l 0,4.602 3.395,0 C 7.187,7.659 8.018,7.653 8.47,7.555 8.924,7.46 9.002,7.255 8.999,6.892 l 0,-0.923 0.693,0 0,4.501 -0.693,0 0,-1.03 C 8.994,8.614 8.149,8.512 5.39,8.512 l -3.126,0 0,5.835 c 0,0.274 0.143,0.498 0.552,0.498 l 2.628,0 c 4.236,0 4.702,-0.721 4.789,-1.057 0.056,-0.352 0.102,-0.47 0.306,-0.47 l 0,-0.016 -0.004,0.015 c 0.118,0.028 0.187,0.05 0.27,0.37 0.08,0.32 0.16,0.93 0.281,2.11 l 0.016,-0.002 0,-0.016 -13.419,0 0,-0.772 1.566,0 C -0.029,14.998 0.014,13.968 0.016,11.21 L 0.016,0 0,0 l -0.016,0 0,11.21 c 0,1.381 -0.013,2.326 -0.114,2.923 -0.101,0.6 -0.283,0.841 -0.621,0.842 l -1.598,0 0,0.82 0,0.016 13.469,0 -0.002,-0.018 c -0.121,-1.18 -0.201,-1.79 -0.282,-2.113 -0.078,-0.323 -0.17,-0.369 -0.294,-0.394 l -0.002,0 -10e-4,0 c -0.226,-10e-4 -0.286,0.149 -0.338,0.496 -0.075,0.306 -0.52,1.031 -4.757,1.031 l -2.628,0 C 2.42,14.811 2.298,14.61 2.296,14.347 l 0,-5.803 3.094,0 c 1.381,0 2.279,0.027 2.829,0.154 0.55,0.128 0.747,0.346 0.748,0.742 l 0,1.046 0,0.016 0.741,0 0.016,0 0,-4.564 -0.741,0 -0.016,0 0,0.954 C 8.964,7.253 8.908,7.424 8.464,7.524 8.018,7.62 7.187,7.627 5.659,7.627 l -3.363,0 0,-4.57 c 0.005,-3.33 0.286,-3.306 1.083,-3.309 l 1.797,0 c 4.558,0 5.596,0.671 6.047,1.414 0.078,0.13 0.134,0.302 0.335,0.302 0.122,-0.003 0.229,-0.169 0.23,-0.31 0,-0.25 -0.348,-1.319 -0.671,-2.393 l -0.003,-0.011 -12.792,0 0,0.821 0,0.016 1.275,0 c 0.287,0.001 0.385,0.176 0.387,0.413 L 0,0 z"
         id="path860"
         style="fill:#bfa403;fill-opacity:1;fill-rule:nonzero;stroke:none" />
    </g>
    <g
       transform="matrix(3.4233388,0,0,-3.4233388,625.01909,480.94364)"
       id="g862">
      <path
         d="m 0,0 -6.221,0 0,-0.804 1.582,0 c 0.696,0 0.751,-1.019 0.751,-3.781 l 0,-11.21 c 0,-0.241 -0.108,-0.429 -0.403,-0.429 l -1.26,0 0,-0.805 12.765,0 c 0.322,1.073 0.67,2.145 0.67,2.387 0,0.135 -0.107,0.295 -0.214,0.295 -0.188,0 -0.241,-0.16 -0.322,-0.295 -0.456,-0.75 -1.503,-1.421 -6.061,-1.421 l -1.797,0 c -0.804,0 -1.099,0 -1.099,3.325 l 0,11.505 c 0,0.24 0.107,0.429 0.402,0.429 l 1.207,0"
         id="path864"
         style="fill:#bfa403;fill-opacity:1;fill-rule:evenodd;stroke:none" />
    </g>
    <g
       transform="matrix(3.4233388,0,0,-3.4233388,625.01909,480.94364)"
       id="g866">
      <path
         d="m 0,0 0,-0.016 -6.205,0 0,-0.772 1.566,0 c 0.72,-0.009 0.764,-1.039 0.767,-3.797 l 0,-11.21 c -0.001,-0.245 -0.116,-0.445 -0.419,-0.445 l -1.244,0 0,-0.773 12.749,0 0,-0.016 -0.016,0.005 c 0.322,1.071 0.67,2.148 0.67,2.382 -0.001,0.127 -0.107,0.279 -0.198,0.279 -0.176,10e-4 -0.226,-0.149 -0.308,-0.287 -0.462,-0.759 -1.516,-1.429 -6.075,-1.429 l -1.797,0 c -0.4,-0.002 -0.689,0.001 -0.866,0.425 -0.176,0.421 -0.248,1.253 -0.249,2.916 l 0,11.505 c 10e-4,0.244 0.115,0.444 0.418,0.445 l 1.191,0 0,0.788 L 0,0 0,-0.016 0,0 l 0.016,0 0,-0.804 0,-0.016 -1.223,0 c -0.286,-0.002 -0.384,-0.177 -0.386,-0.413 l 0,-11.505 c 0.006,-3.33 0.287,-3.306 1.083,-3.309 l 1.797,0 c 4.558,0 5.597,0.671 6.048,1.414 0.078,0.13 0.135,0.302 0.335,0.302 0.122,-0.003 0.228,-0.169 0.23,-0.311 -0.001,-0.25 -0.349,-1.318 -0.671,-2.392 l -0.004,-0.011 -12.792,0 0,0.821 0,0.016 1.276,0 c 0.286,10e-4 0.385,0.176 0.387,0.413 l 0,11.21 c 0,1.381 -0.014,2.326 -0.114,2.923 -0.102,0.599 -0.284,0.841 -0.621,0.842 l -1.598,0 0,0.82 0,0.016 6.253,0 L 0.016,0 0,0 z"
         id="path868"
         style="fill:#bfa403;fill-opacity:1;fill-rule:nonzero;stroke:none" />
    </g>
    <g
       transform="matrix(3.4233388,0,0,-3.4233388,677.87095,482.5016)"
       id="g870">
      <path
         d="M 0,0 C 0.858,0 3.031,-0.295 3.218,-1.449 3.244,-1.636 3.272,-1.85 3.54,-1.85 c 0.215,0 0.295,0.16 0.295,0.348 0,0.643 -0.054,1.314 -0.08,1.957 -0.859,0.403 -1.905,0.51 -3.031,0.51 -2.87,0 -6.087,-1.689 -6.087,-4.908 0,-3.271 3.272,-4.317 4.479,-4.746 2.654,-0.966 4.21,-1.878 4.21,-3.941 0,-2.415 -2.2,-3.488 -4.345,-3.488 -1.314,0 -3.808,0.563 -4.183,2.066 -0.054,0.241 -0.135,0.509 -0.403,0.509 -0.214,0 -0.321,-0.135 -0.321,-0.322 0,-0.241 0.107,-0.804 0.401,-2.467 1.234,-0.483 2.87,-0.751 4.185,-0.751 4.424,0 6.462,2.924 6.462,5.257 0,2.869 -1.636,3.968 -5.068,5.229 -1.689,0.643 -3.701,1.34 -3.701,3.513 C -3.647,-1.1 -1.797,0 0,0"
         id="path872"
         style="fill:#bfa403;fill-opacity:1;fill-rule:evenodd;stroke:none" />
    </g>
    <g
       transform="matrix(3.4233388,0,0,-3.4233388,677.87095,482.5016)"
       id="g874">
      <path
         d="m 0,0 0,0.016 c 0.86,-0.002 3.038,-0.29 3.234,-1.462 0.028,-0.191 0.051,-0.388 0.306,-0.388 0.205,0.001 0.278,0.147 0.279,0.332 0,0.642 -0.054,1.313 -0.08,1.956 L 3.755,0.455 3.748,0.441 C 2.893,0.842 1.85,0.949 0.724,0.949 c -1.431,0 -2.951,-0.422 -4.111,-1.244 -1.16,-0.823 -1.96,-2.044 -1.961,-3.648 0,-3.258 3.261,-4.302 4.469,-4.731 2.654,-0.965 4.221,-1.882 4.221,-3.956 -10e-4,-2.427 -2.212,-3.5 -4.361,-3.504 -1.317,0.002 -3.816,0.56 -4.198,2.078 -0.055,0.242 -0.134,0.498 -0.388,0.497 -0.207,-0.001 -0.304,-0.125 -0.305,-0.306 -10e-4,-0.237 0.106,-0.802 0.401,-2.464 l -0.016,-0.003 0.006,0.015 c 1.232,-0.482 2.866,-0.75 4.179,-0.75 4.416,0 6.446,2.917 6.446,5.241 -10e-4,2.86 -1.625,3.952 -5.058,5.214 -1.687,0.642 -3.71,1.342 -3.711,3.528 10e-4,1.995 1.861,3.097 3.663,3.1 L 0,0 0,-0.016 c -1.791,-0.001 -3.627,-1.096 -3.631,-3.068 -0.001,-2.16 1.999,-2.855 3.69,-3.498 3.432,-1.259 5.08,-2.367 5.079,-5.244 0,-1.171 -0.511,-2.49 -1.577,-3.515 -1.066,-1.026 -2.686,-1.758 -4.901,-1.758 -1.317,0 -2.954,0.268 -4.191,0.752 l -0.008,0.003 -0.001,0.009 c -0.295,1.664 -0.402,2.225 -0.402,2.47 0,0.193 0.115,0.338 0.337,0.338 0.283,-0.001 0.365,-0.282 0.419,-0.522 0.367,-1.486 2.856,-2.054 4.167,-2.053 2.141,0.001 4.324,1.069 4.329,3.472 0,2.052 -1.545,2.959 -4.199,3.926 -1.206,0.428 -4.49,1.477 -4.491,4.761 0.001,3.231 3.23,4.919 6.104,4.924 1.127,0 2.175,-0.107 3.038,-0.511 L 3.77,0.465 3.771,0.456 c 0.026,-0.643 0.08,-1.314 0.08,-1.958 0,-0.191 -0.086,-0.364 -0.311,-0.364 C 3.259,-1.867 3.227,-1.636 3.202,-1.451 3.024,-0.317 0.856,-0.014 0,-0.016 L 0,0 z"
         id="path876"
         style="fill:#bfa403;fill-opacity:1;fill-rule:nonzero;stroke:none" />
    </g>
    <g
       transform="matrix(3.4233388,0,0,-3.4233388,327.20644,483.71141)"
       id="g878">
      <path
         d="m 0,0 -0.071,-0.012 -1.439,-4.522 -4.858,0 0,-0.034 c 0,0 3.239,-2.408 3.961,-2.9 -0.375,-0.647 -1.584,-4.626 -1.584,-4.626 l 0.077,-0.03 c 0,0 2.631,1.924 3.877,2.868 0.732,-0.669 3.876,-2.868 3.876,-2.868 l 0.034,0.035 c 0,0 -1.404,4.226 -1.524,4.621 0.647,0.481 3.928,2.9 3.928,2.9 l 0,0.034 c 0,0 -4.086,0.045 -4.875,0 C 1.186,-3.68 0,0 0,0"
         id="path880"
         style="fill:#1a5dad;fill-opacity:1;fill-rule:evenodd;stroke:none" />
    </g>
    <g
       transform="matrix(3.4233388,0,0,-3.4233388,327.20644,483.71141)"
       id="g882">
      <path
         d="m 0,0 0.003,-0.016 -0.062,-0.01 -1.44,-4.524 -4.853,0 0,-0.018 -0.016,0 0.009,0.013 c 0.002,-0.001 0.81,-0.602 1.71,-1.265 0.9,-0.664 1.891,-1.389 2.251,-1.635 l 0.012,-0.009 -0.007,-0.012 c -0.186,-0.32 -0.582,-1.478 -0.931,-2.553 -0.349,-1.075 -0.651,-2.068 -0.652,-2.07 l -0.015,0.005 0.006,0.015 0.077,-0.03 -0.006,-0.015 -0.01,0.013 c 0.002,0.001 0.658,0.481 1.472,1.08 0.813,0.599 1.782,1.316 2.405,1.787 l 0.011,0.008 0.01,-0.009 c 0.364,-0.332 1.334,-1.05 2.211,-1.683 0.877,-0.633 1.662,-1.181 1.663,-1.183 l -0.009,-0.013 -0.011,0.011 0.034,0.035 0.011,-0.011 -0.015,-0.005 c 0,0 -1.405,4.225 -1.524,4.621 l -0.003,0.011 0.009,0.007 c 0.647,0.481 3.927,2.9 3.927,2.9 l 0.01,-0.013 -0.016,0 0,0.034 0.016,0 0,-0.016 c -0.004,0 -1.816,0.02 -3.261,0.02 -0.722,0 -1.351,-0.005 -1.614,-0.02 L 1.389,-4.551 1.386,-4.538 c -0.215,0.852 -1.4,4.528 -1.401,4.533 L 0,0 0.003,-0.016 0,0 0.015,0.005 c 0,0 1.187,-3.68 1.402,-4.535 L 1.402,-4.534 1.401,-4.518 c 0.264,0.015 0.893,0.02 1.615,0.02 1.445,0 3.261,-0.02 3.261,-0.02 l 0.016,0 0,-0.05 0,-0.008 -0.007,-0.005 c 0,0 -0.205,-0.151 -0.522,-0.385 C 4.811,-5.669 2.844,-7.12 2.359,-7.481 l -0.01,0.013 0.016,0.004 c 0.119,-0.394 1.522,-4.615 1.523,-4.62 l 0.004,-0.01 -0.042,-0.041 -0.009,-0.01 -0.011,0.008 c -10e-4,0 -3.143,2.199 -3.878,2.869 l 0.011,0.012 0.01,-0.013 c -1.247,-0.944 -3.878,-2.868 -3.878,-2.868 l -0.007,-0.005 -0.085,0.033 -0.014,0.005 0.005,0.014 c 0,10e-4 1.208,3.978 1.585,4.63 l 0.014,-0.008 -0.009,-0.014 c -0.723,0.494 -3.962,2.901 -3.962,2.902 l -0.006,0.004 0,0.042 0,0.016 4.862,0 1.438,4.52 0.081,0.014 L 0.011,0.018 0.015,0.005 0,0 z"
         id="path884"
         style="fill:#1a5dad;fill-opacity:1;fill-rule:nonzero;stroke:none" />
    </g>
    <g
       transform="matrix(3.4233388,0,0,-3.4233388,157.05379,453.03111)"
       id="g886">
      <path
         d="M 0,0 -1.535,0 -0.719,1.943 0,0 z m 0.165,-0.427 c 0.204,-0.574 0.573,-1.594 0.573,-1.662 0,-0.097 -0.116,-0.097 -0.174,-0.097 l -0.399,0 0,-0.369 2.837,0 0,0.369 -0.282,0 c -0.281,0 -0.33,0.165 -0.621,0.923 -0.574,1.515 -1.652,4.274 -1.652,4.518 0,0.184 0.224,0.165 0.224,0.33 L 0.535,3.75 c -0.127,0 -0.72,-0.127 -1.011,-0.185 -0.116,-0.204 -2.176,-5.052 -2.351,-5.596 -0.039,-0.136 -0.078,-0.155 -0.311,-0.155 l -0.262,0 0,-0.369 1.963,0 0,0.369 -0.535,0 c -0.136,0 -0.253,0 -0.253,0.165 0,0.32 0.496,1.496 0.525,1.594"
         id="path888"
         style="fill:#bfa403;fill-opacity:1;fill-rule:evenodd;stroke:none" />
    </g>
    <g
       transform="matrix(3.4233388,0,0,-3.4233388,157.05379,453.03111)"
       id="g890">
      <path
         d="m 0,0 0,-0.016 -1.559,0 0.841,2.002 L 0.023,-0.016 0,-0.016 0,0 -0.015,-0.006 -0.72,1.899 -1.511,0.016 0,0.016 0,0 -0.015,-0.006 0,0 z M 0.165,-0.427 0.18,-0.422 C 0.385,-0.998 0.753,-2.01 0.754,-2.089 0.751,-2.202 0.619,-2.202 0.564,-2.202 l -0.383,0 0,-0.337 2.805,0 0,0.337 -0.266,0 C 2.426,-2.201 2.373,-2.023 2.084,-1.269 1.51,0.249 0.433,3 0.431,3.255 0.438,3.456 0.663,3.439 0.654,3.585 l 0.017,0 -0.013,-0.01 -0.136,0.165 0.013,0.01 0,-0.016 c -0.122,0 -0.717,-0.127 -1.007,-0.185 l -0.004,0.016 0.014,-0.008 c -0.115,-0.2 -2.176,-5.052 -2.349,-5.593 -0.038,-0.14 -0.096,-0.169 -0.327,-0.166 l -0.246,0 0,-0.337 1.931,0 0,0.337 -0.519,0 c -0.133,0 -0.268,0.003 -0.269,0.181 10e-4,0.329 0.497,1.502 0.526,1.598 l 0.003,0.012 1.888,0 0.004,-0.011 -0.015,-0.005 0,-0.017 -1.865,0 0,0.017 0.016,-0.005 c -0.031,-0.099 -0.526,-1.277 -0.525,-1.589 0.002,-0.152 0.097,-0.146 0.237,-0.149 l 0.535,0 0.016,0 0,-0.385 0,-0.016 -1.995,0 0,0.385 0,0.016 0.278,0 c 0.236,0.004 0.255,0.013 0.296,0.144 0.176,0.547 2.234,5.391 2.352,5.599 l 0.004,0.006 0.007,0.002 c 0.292,0.058 0.882,0.185 1.014,0.185 l 0.007,0 0.141,-0.171 0.004,-0.004 0,-0.006 C 0.678,3.401 0.456,3.422 0.463,3.255 0.462,3.022 1.541,0.255 2.114,-1.258 2.407,-2.019 2.452,-2.171 2.72,-2.17 l 0.282,0 0.016,0 0,-0.385 0,-0.016 -2.869,0 0,0.385 0,0.016 0.415,0 0.158,0.081 c 0.002,0.057 -0.368,1.085 -0.572,1.656 l 0.015,0.006 0,-0.017 0,0.017 z"
         id="path892"
         style="fill:#bfa403;fill-opacity:1;fill-rule:nonzero;stroke:none" />
    </g>
    <g
       transform="matrix(3.4233388,0,0,-3.4233388,217.54899,441.25828)"
       id="g894">
      <path
         d="m 0,0 c -0.563,0.223 -1.165,0.36 -1.768,0.36 -1.593,0 -3.915,-0.982 -3.915,-3.566 0,-1.487 0.855,-2.972 3.322,-2.972 0.778,0 1.72,0.154 2.419,0.495 0.039,0.465 0.098,0.845 0.098,0.98 0,0.098 -0.049,0.165 -0.156,0.165 -0.135,0 -0.156,-0.086 -0.175,-0.194 -0.146,-0.641 -1.194,-1.02 -1.749,-1.02 -1.525,0 -2.127,1.555 -2.127,2.857 0,1.807 1.224,2.827 2.225,2.827 0.437,0 0.932,-0.155 1.263,-0.447 0.097,-0.078 0.116,-0.136 0.135,-0.263 0.02,-0.107 0.04,-0.194 0.176,-0.194 0.184,0 0.165,0.194 0.184,0.321"
         id="path896"
         style="fill:#bfa403;fill-opacity:1;fill-rule:evenodd;stroke:none" />
    </g>
    <g
       transform="matrix(3.4233388,0,0,-3.4233388,217.54899,441.25828)"
       id="g898">
      <path
         d="m 0,0 -0.006,-0.015 c -0.561,0.223 -1.162,0.359 -1.762,0.359 -1.588,-10e-4 -3.895,-0.978 -3.899,-3.55 0.002,-1.481 0.846,-2.955 3.306,-2.956 0.776,0 1.716,0.154 2.412,0.493 l 0.007,-0.014 -0.016,10e-4 c 0.039,0.466 0.098,0.847 0.097,0.979 -0.001,0.093 -0.04,0.148 -0.139,0.149 -0.125,-10e-4 -0.137,-0.071 -0.159,-0.181 -0.153,-0.656 -1.205,-1.031 -1.765,-1.033 -1.538,10e-4 -2.141,1.568 -2.143,2.873 0,1.814 1.23,2.843 2.241,2.843 0.441,0 0.939,-0.156 1.273,-0.451 0.1,-0.079 0.123,-0.145 0.141,-0.273 0.023,-0.108 0.034,-0.178 0.16,-0.18 0.166,-0.002 0.149,0.173 0.168,0.308 L -0.016,0.002 0,0 -0.006,-0.015 0,0 0.016,-0.002 -0.052,-0.653 c -0.018,-0.12 0.002,-0.332 -0.2,-0.335 -0.146,-0.001 -0.174,0.102 -0.191,0.207 -0.02,0.128 -0.036,0.177 -0.13,0.253 -0.327,0.289 -0.82,0.444 -1.253,0.444 -0.99,-0.003 -2.207,-1.012 -2.209,-2.811 0,-1.299 0.6,-2.838 2.111,-2.841 0.549,-0.001 1.594,0.381 1.734,1.007 0.016,0.106 0.044,0.209 0.19,0.207 0.115,0 0.171,-0.078 0.172,-0.181 C 0.171,-4.841 0.113,-5.219 0.074,-5.684 L 0.073,-5.693 0.065,-5.697 c -0.703,-0.343 -1.646,-0.497 -2.426,-0.497 -1.236,0 -2.072,0.372 -2.598,0.933 -0.526,0.561 -0.74,1.308 -0.74,2.055 0,2.595 2.333,3.578 3.931,3.582 0.605,0 1.209,-0.137 1.774,-0.361 L 0.017,0.01 0.016,-0.002 0,0 z"
         id="path900"
         style="fill:#bfa403;fill-opacity:1;fill-rule:nonzero;stroke:none" />
    </g>
    <g
       transform="matrix(3.4233388,0,0,-3.4233388,259.24834,453.03111)"
       id="g902">
      <path
         d="M 0,0 -1.535,0 -0.719,1.943 0,0 z m 0.165,-0.427 c 0.204,-0.574 0.573,-1.594 0.573,-1.662 0,-0.097 -0.116,-0.097 -0.175,-0.097 l -0.398,0 0,-0.369 2.838,0 0,0.369 -0.283,0 c -0.281,0 -0.33,0.165 -0.621,0.923 -0.574,1.515 -1.652,4.274 -1.652,4.518 0,0.184 0.223,0.165 0.223,0.33 L 0.534,3.75 c -0.126,0 -0.719,-0.127 -1.01,-0.185 -0.116,-0.204 -2.176,-5.052 -2.351,-5.596 -0.039,-0.136 -0.078,-0.155 -0.311,-0.155 l -0.262,0 0,-0.369 1.962,0 0,0.369 -0.534,0 c -0.136,0 -0.253,0 -0.253,0.165 0,0.32 0.496,1.496 0.525,1.594"
         id="path904"
         style="fill:#bfa403;fill-opacity:1;fill-rule:evenodd;stroke:none" />
    </g>
    <g
       transform="matrix(3.4233388,0,0,-3.4233388,259.24834,453.03111)"
       id="g906">
      <path
         d="m 0,0 0,-0.016 -1.559,0 0.841,2.002 L 0.023,-0.016 0,-0.016 0,0 -0.015,-0.006 -0.72,1.899 -1.511,0.016 0,0.016 0,0 -0.015,-0.006 0,0 z M 0.165,-0.427 0.18,-0.422 C 0.384,-0.998 0.752,-2.01 0.754,-2.089 0.751,-2.202 0.619,-2.202 0.563,-2.202 l -0.382,0 0,-0.337 2.806,0 0,0.337 -0.267,0 C 2.426,-2.201 2.373,-2.023 2.084,-1.269 1.51,0.249 0.433,3 0.431,3.255 0.438,3.456 0.663,3.439 0.654,3.585 l 0.016,0 -0.012,-0.01 -0.136,0.165 0.012,0.01 0,-0.016 c -0.121,0 -0.716,-0.127 -1.007,-0.185 l -0.003,0.016 0.014,-0.008 c -0.115,-0.2 -2.177,-5.052 -2.35,-5.593 -0.037,-0.14 -0.096,-0.169 -0.326,-0.166 l -0.246,0 0,-0.337 1.93,0 0,0.337 -0.518,0 c -0.133,0 -0.268,0.003 -0.269,0.181 10e-4,0.329 0.497,1.502 0.526,1.598 l 0.003,0.012 1.889,0 0.003,-0.011 -0.015,-0.005 0,-0.017 -1.865,0 0,0.017 0.016,-0.005 c -0.031,-0.099 -0.526,-1.277 -0.525,-1.589 0.002,-0.152 0.097,-0.146 0.237,-0.149 l 0.534,0 0.016,0 0,-0.385 0,-0.016 -1.994,0 0,0.385 0,0.016 0.278,0 c 0.235,0.004 0.255,0.013 0.296,0.144 0.176,0.547 2.234,5.391 2.352,5.599 l 0.004,0.006 0.007,0.002 c 0.292,0.058 0.882,0.185 1.013,0.185 l 0.008,0 0.141,-0.171 0.003,-0.004 0,-0.006 C 0.678,3.401 0.456,3.422 0.463,3.255 0.461,3.022 1.541,0.255 2.114,-1.258 2.407,-2.019 2.451,-2.171 2.72,-2.17 l 0.283,0 0.016,0 0,-0.385 0,-0.016 -2.87,0 0,0.385 0,0.016 0.414,0 0.159,0.081 c 0.002,0.057 -0.368,1.085 -0.572,1.656 l 0.015,0.006 0,-0.017 0,0.017 z"
         id="path908"
         style="fill:#bfa403;fill-opacity:1;fill-rule:nonzero;stroke:none" />
    </g>
    <g
       transform="matrix(3.4233388,0,0,-3.4233388,307.50472,442.55535)"
       id="g910">
      <path
         d="m 0,0 c 0,0.126 0.058,0.126 0.214,0.126 0.466,0 2.351,-0.388 2.351,-2.963 0,-1.303 -0.564,-2.351 -2.002,-2.351 l -0.31,0 C 0.058,-5.188 0,-5.004 0,-3.692 L 0,0 z m -2.079,-5.615 2.817,0 c 2.769,0 3.459,2.03 3.459,3.186 0,1.574 -1.078,2.982 -3.498,2.982 l -3.012,0 0,-0.369 0.448,0 c 0.145,0 0.301,0 0.301,-0.593 l 0,-4.74 c 0,-0.097 -0.068,-0.097 -0.515,-0.097"
         id="path912"
         style="fill:#bfa403;fill-opacity:1;fill-rule:evenodd;stroke:none" />
    </g>
    <g
       transform="matrix(3.4233388,0,0,-3.4233388,307.50472,442.55535)"
       id="g914">
      <path
         d="M 0,0 -0.016,0 0.042,0.125 0.214,0.142 C 0.685,0.139 2.578,-0.252 2.581,-2.837 2.581,-3.49 2.44,-4.082 2.116,-4.51 1.793,-4.94 1.286,-5.204 0.563,-5.204 l -0.31,0 c -0.105,-0.002 -0.179,0.058 -0.215,0.269 -0.04,0.213 -0.054,0.587 -0.054,1.243 L -0.016,0 0,0 l 0.016,0 0,-3.692 c 0,-0.655 0.015,-1.029 0.053,-1.237 0.041,-0.209 0.094,-0.241 0.184,-0.243 l 0.31,0 c 1.428,10e-4 1.984,1.036 1.986,2.335 C 2.548,-0.272 0.674,0.109 0.214,0.11 0.053,0.106 0.019,0.116 0.016,0 L 0,0 z m -2.079,-5.615 0,0.016 2.817,0 c 2.76,0 3.442,2.019 3.443,3.17 C 4.18,-0.863 3.112,0.536 0.699,0.537 l -2.996,0 0,-0.337 0.432,0 0.217,-0.08 c 0.061,-0.08 0.099,-0.231 0.1,-0.529 l 0,-4.74 -0.104,-0.101 c -0.075,-0.012 -0.203,-0.012 -0.427,-0.012 l 0,0.016 0.016,0 0,-0.369 -0.016,0 0,0.016 0,-0.016 -0.016,0 0,0.369 0,0.016 0.016,0 c 0.223,0 0.352,0 0.422,0.012 l 0.077,0.069 0,4.74 c -0.006,0.593 -0.144,0.573 -0.285,0.577 l -0.448,0 -0.016,0 0,0.385 0,0.016 3.028,0 c 1.213,0 2.092,-0.353 2.668,-0.905 C 3.942,-0.888 4.213,-1.639 4.213,-2.429 4.213,-3.01 4.04,-3.81 3.519,-4.466 2.997,-5.122 2.127,-5.632 0.738,-5.631 l -2.833,0 0,0.016 0.016,0 z"
         id="path916"
         style="fill:#bfa403;fill-opacity:1;fill-rule:nonzero;stroke:none" />
    </g>
    <g
       transform="matrix(3.4233388,0,0,-3.4233388,355.72795,460.1828)"
       id="g918">
      <path
         d="m 0,0 c 0,-0.097 -0.068,-0.097 -0.514,-0.097 l 0,-0.369 4.789,0 C 4.362,-0.185 4.547,0.437 4.547,0.554 4.547,0.641 4.498,0.7 4.401,0.7 4.294,0.7 4.265,0.651 4.226,0.563 3.935,0 2.73,-0.039 1.817,-0.039 c -0.195,0 -0.253,0.185 -0.253,1.496 l 0,1.214 0.845,0 c 0.816,0 0.816,-0.135 0.816,-0.427 l 0,-0.175 0.331,0 0,1.73 -0.331,0 0,-0.321 C 3.225,3.216 3.187,3.07 2.098,3.07 l -0.534,0 0,2.05 c 0,0.155 0.058,0.155 0.194,0.155 0.739,0 1.215,-0.009 1.72,-0.174 C 3.663,5.033 3.74,4.974 3.76,4.77 3.77,4.654 3.818,4.595 3.944,4.595 c 0.195,0 0.166,0.273 0.185,0.408 l 0.078,0.7 -4.956,0 0,-0.37 0.448,0 c 0.145,0 0.301,0 0.301,-0.592"
         id="path920"
         style="fill:#bfa403;fill-opacity:1;fill-rule:evenodd;stroke:none" />
    </g>
    <g
       transform="matrix(3.4233388,0,0,-3.4233388,355.72795,460.1828)"
       id="g922">
      <path
         d="m 0,0 0.016,0 -0.103,-0.1 c -0.076,-0.013 -0.204,-0.013 -0.427,-0.013 l 0,0.016 0.016,0 0,-0.353 4.773,0 0,-0.016 -0.016,0.005 c 0.088,0.279 0.272,0.905 0.272,1.015 l -0.13,0.13 C 4.3,0.682 4.282,0.645 4.241,0.557 3.937,-0.021 2.73,-0.053 1.817,-0.055 1.712,-0.056 1.638,0.003 1.602,0.215 1.562,0.427 1.548,0.801 1.548,1.457 l 0,1.214 0,0.016 0.861,0 C 2.818,2.687 3.024,2.654 3.133,2.58 3.242,2.504 3.242,2.388 3.242,2.244 l 0,-0.159 0.298,0 0,1.698 -0.299,0 10e-4,-0.305 C 3.243,3.348 3.23,3.233 3.077,3.161 2.926,3.09 2.643,3.054 2.098,3.054 l -0.534,0 -0.016,0 0,2.066 0.054,0.149 0.156,0.022 C 2.497,5.291 2.975,5.282 3.483,5.116 3.669,5.049 3.758,4.979 3.776,4.772 3.788,4.659 3.824,4.613 3.944,4.611 4.117,4.605 4.095,4.863 4.113,5.005 l 0.076,0.682 -4.921,0 0,-0.338 0.431,0 0.218,-0.08 C -0.022,5.189 0.016,5.038 0.016,4.741 L 0.016,0 0,0 l -0.016,0 0,4.741 C -0.022,5.333 -0.16,5.313 -0.301,5.317 l -0.448,0 -0.016,0 0,0.386 0,0.016 4.99,0 -0.08,-0.718 C 4.125,4.872 4.161,4.585 3.944,4.579 3.813,4.576 3.752,4.649 3.744,4.769 3.723,4.968 3.656,5.016 3.472,5.085 2.971,5.25 2.497,5.259 1.758,5.259 1.619,5.254 1.585,5.268 1.58,5.12 l 0,-2.034 0.518,0 C 3.19,3.091 3.207,3.225 3.209,3.478 l 0,0.321 0,0.016 0.347,0 0.016,0 0,-1.762 -0.347,0 -0.016,0 0,0.191 c -0.005,0.288 0.018,0.405 -0.8,0.411 l -0.829,0 0,-1.198 C 1.58,0.802 1.595,0.428 1.633,0.22 1.674,0.012 1.727,-0.021 1.817,-0.023 2.729,-0.024 3.932,0.021 4.212,0.57 4.249,0.657 4.288,0.717 4.401,0.716 4.505,0.715 4.562,0.647 4.563,0.554 4.562,0.43 4.378,-0.188 4.29,-0.471 l -0.004,-0.011 -4.816,0 0,0.385 0,0.016 0.016,0 c 0.223,0 0.352,0 0.422,0.012 L -0.016,0 0,0 z"
         id="path924"
         style="fill:#bfa403;fill-opacity:1;fill-rule:nonzero;stroke:none" />
    </g>
    <g
       transform="matrix(3.4233388,0,0,-3.4233388,408.76612,440.66091)"
       id="g926">
      <path
         d="m 0,0 -2.264,0 0,-0.369 c 0.524,0 0.855,-0.049 0.855,-0.904 l 0,-4.43 c 0,-0.096 -0.117,-0.096 -0.204,-0.096 l -0.35,0 0,-0.37 1.808,0 0,0.37 -0.477,0 c -0.223,0 -0.291,0.232 -0.291,0.63 l 0,3.633 0.019,0 2.022,-4.4 0.116,-0.116 c 0.097,0 0.127,0.126 0.165,0.204 l 2.011,4.526 0.029,0 0,-4.381 c 0,-0.096 -0.068,-0.096 -0.553,-0.096 l 0,-0.37 2.875,0 0,0.37 -0.525,0 c -0.233,0 -0.233,0.738 -0.233,0.932 l 0,4.314 c 0.02,0.184 0.048,0.184 0.185,0.184 l 0.34,0 0,0.369 -1.973,0 C 2.856,-1.476 2.546,-2.108 1.826,-3.808"
         id="path928"
         style="fill:#bfa403;fill-opacity:1;fill-rule:evenodd;stroke:none" />
    </g>
    <g
       transform="matrix(3.4233388,0,0,-3.4233388,408.76612,440.66091)"
       id="g930">
      <path
         d="m 0,0 0,-0.016 -2.248,0 0,-0.353 -0.016,0 0,0.016 c 0.263,-0.001 0.48,-0.012 0.634,-0.135 0.155,-0.124 0.237,-0.356 0.237,-0.785 l 0,-4.43 c -0.003,-0.116 -0.136,-0.112 -0.22,-0.112 l -0.334,0 0,-0.338 1.776,0 0,0.338 -0.461,0 c -0.24,0.002 -0.306,0.25 -0.307,0.646 l 0,3.649 0.035,0 0.011,0 2.024,-4.407 0.115,-0.114 -0.012,-0.011 0,0.016 0.15,0.195 2.016,4.535 0.039,0 0.016,0 0,-4.397 -0.109,-0.1 C 3.266,-5.815 3.128,-5.815 2.886,-5.815 l 0,0.016 0.016,0 0,-0.354 2.843,0 0,0.338 -0.509,0 C 4.973,-5.8 4.992,-5.062 4.987,-4.867 l 0,4.314 c 0.014,0.186 0.066,0.205 0.201,0.2 l 0.324,0 0,0.337 -1.957,0 0,0.016 0.014,-0.007 C 2.871,-1.483 2.561,-2.115 1.841,-3.815 L 1.827,-3.847 -0.014,-0.007 0,0 0,-0.016 0,0 0.014,0.007 1.841,-3.801 1.826,-3.808 1.812,-3.802 c 0.719,1.7 1.03,2.333 1.728,3.809 l 0.005,0.009 1.999,0 0,-0.385 0,-0.016 -0.356,0 C 5.05,-0.391 5.045,-0.372 5.019,-0.555 l 0,-4.312 c 0,-0.097 0,-0.33 0.029,-0.537 0.027,-0.209 0.091,-0.385 0.188,-0.379 l 0.525,0 0.016,0 0,-0.386 0,-0.016 -2.907,0 0,0.386 0,0.016 0.016,0 c 0.242,0 0.381,0 0.456,0.012 l 0.081,0.068 0,4.365 -0.003,0 -2.007,-4.517 C 1.375,-5.929 1.348,-6.065 1.234,-6.068 l -0.006,0 -0.121,0.121 -0.002,0.002 -2.019,4.393 -0.009,0 0,0.016 0.016,0 0,-3.633 c 0.001,-0.399 0.069,-0.614 0.275,-0.614 l 0.477,0 0.016,0 0,-0.386 0,-0.016 -1.84,0 0,0.386 0,0.016 0.366,0 c 0.09,0 0.188,0.003 0.188,0.08 l 0,4.43 c -0.004,0.85 -0.314,0.883 -0.839,0.888 l -0.016,0 0,0.385 0,0.016 2.29,0 L 0.014,0.007 0,0 z"
         id="path932"
         style="fill:#bfa403;fill-opacity:1;fill-rule:nonzero;stroke:none" />
    </g>
    <g
       transform="matrix(3.4233388,0,0,-3.4233388,477.87302,440.66091)"
       id="g934">
      <path
         d="m 0,0 -1.894,0 0,-0.369 0.476,0 c 0.154,0 0.233,0 0.233,-0.107 0,-0.214 -0.379,-0.855 -1.185,-2.458 -0.894,1.797 -1.244,2.4 -1.244,2.507 0,0.058 0.029,0.058 0.155,0.058 l 0.398,0 0,0.369 -2.923,0 0,-0.369 0.213,0 c 0.302,0 0.369,-0.019 0.836,-0.914 l 1.194,-2.302 0,-2.118 c 0,-0.096 -0.067,-0.096 -0.544,-0.096 l 0,-0.37 2.867,0 0,0.37 -0.525,0 c -0.234,0 -0.234,0.738 -0.234,0.932 l 0,1.399 1.604,2.963 c 0.068,0.117 0.087,0.136 0.301,0.136 l 0.272,0"
         id="path936"
         style="fill:#bfa403;fill-opacity:1;fill-rule:evenodd;stroke:none" />
    </g>
    <g
       transform="matrix(3.4233388,0,0,-3.4233388,477.87302,440.66091)"
       id="g938">
      <path
         d="m 0,0 0,-0.016 -1.878,0 0,-0.337 0.46,0 c 0.149,0 0.249,-0.001 0.249,-0.123 -0.002,-0.226 -0.381,-0.861 -1.187,-2.465 L -2.37,-2.97 -2.385,-2.941 c -0.894,1.8 -1.242,2.392 -1.245,2.514 l 0.041,0.066 0.13,0.008 0.382,0 0,0.337 -2.891,0 0,-0.337 0.197,0 c 0.307,0.001 0.388,-0.03 0.85,-0.922 l 1.196,-2.306 0,-2.122 -0.106,-0.1 C -3.91,-5.815 -4.046,-5.815 -4.285,-5.815 l 0,0.016 0.017,0 0,-0.354 2.834,0 0,0.338 -0.509,0 c -0.263,0.015 -0.244,0.753 -0.25,0.948 l 0,1.403 1.606,2.967 c 0.066,0.118 0.103,0.147 0.315,0.144 l 0.256,0 0,0.353 L 0,0 0,-0.016 0,0 l 0.016,0 0,-0.369 0,-0.016 -0.288,0 C -0.487,-0.388 -0.489,-0.398 -0.56,-0.513 l -1.601,-2.959 0,-1.395 c 0,-0.097 0,-0.33 0.029,-0.537 0.028,-0.209 0.092,-0.385 0.189,-0.379 l 0.525,0 0.016,0 0,-0.386 0,-0.016 -2.899,0 0,0.386 0,0.016 0.016,0 c 0.239,0 0.375,0 0.449,0.012 l 0.079,0.068 0,2.114 -1.192,2.299 c -0.471,0.896 -0.526,0.903 -0.822,0.905 l -0.213,0 -0.017,0 0,0.385 0,0.016 2.956,0 0,-0.385 0,-0.016 -0.414,0 c -0.132,-0.003 -0.139,0.002 -0.139,-0.042 -0.003,-0.093 0.348,-0.705 1.242,-2.5 l -0.014,-0.007 -0.015,0.007 c 0.807,1.601 1.186,2.249 1.184,2.451 0,0.092 -0.058,0.088 -0.217,0.091 l -0.476,0 -0.016,0 0,0.385 0,0.016 1.926,0 L 0.016,0 0,0 z"
         id="path940"
         style="fill:#bfa403;fill-opacity:1;fill-rule:nonzero;stroke:none" />
    </g>
    <g
       transform="matrix(3.4233388,0,0,-3.4233388,549.68061,448.84299)"
       id="g942">
      <path
         d="m 0,0 c 0,0.933 0.291,2.176 1.497,2.176 1.661,0 2.049,-2.341 2.049,-3.564 0,-0.934 -0.301,-2.177 -1.506,-2.177 C 0.379,-3.565 0,-1.223 0,0 m 1.652,-3.963 c 2.614,0 3.458,2.098 3.458,3.439 0,1.971 -1.379,3.099 -3.225,3.099 -2.614,0 -3.448,-2.099 -3.448,-3.44 0,-1.971 1.368,-3.098 3.215,-3.098"
         id="path944"
         style="fill:#bfa403;fill-opacity:1;fill-rule:evenodd;stroke:none" />
    </g>
    <g
       transform="matrix(3.4233388,0,0,-3.4233388,549.68061,448.84299)"
       id="g946">
      <path
         d="M 0,0 -0.016,0 C -0.015,0.934 0.276,2.191 1.497,2.192 3.177,2.188 3.561,-0.164 3.562,-1.388 3.56,-2.323 3.26,-3.579 2.04,-3.581 0.36,-3.576 -0.015,-1.224 -0.016,0 L 0,0 0.016,0 c 0,-0.61 0.095,-1.5 0.396,-2.235 0.302,-0.736 0.806,-1.314 1.628,-1.314 1.19,0.002 1.489,1.228 1.49,2.161 0,0.609 -0.097,1.499 -0.401,2.235 C 2.825,1.582 2.318,2.16 1.497,2.16 0.306,2.158 0.017,0.932 0.016,0 L 0,0 z m 1.652,-3.963 0,0.016 c 2.603,0 3.441,2.087 3.442,3.423 -0.001,1.963 -1.369,3.082 -3.209,3.083 -2.604,0 -3.431,-2.088 -3.432,-3.424 10e-4,-1.963 1.359,-3.08 3.199,-3.082 l 0,-0.016 0,-0.016 c -0.927,0 -1.735,0.283 -2.311,0.814 -0.577,0.532 -0.921,1.311 -0.921,2.3 0.001,0.674 0.21,1.537 0.748,2.233 0.538,0.696 1.406,1.224 2.717,1.223 0.926,0 1.737,-0.283 2.316,-0.814 C 4.78,1.245 5.126,0.465 5.126,-0.524 5.126,-1.198 4.914,-2.06 4.374,-2.756 3.833,-3.452 2.963,-3.979 1.652,-3.979 l 0,0.016 z"
         id="path948"
         style="fill:#bfa403;fill-opacity:1;fill-rule:nonzero;stroke:none" />
    </g>
    <g
       transform="matrix(3.4233388,0,0,-3.4233388,601.02662,460.1828)"
       id="g950">
      <path
         d="m 0,0 c 0,-0.097 -0.068,-0.097 -0.516,-0.097 l 0,-0.369 2.876,0 0,0.369 -0.485,0 c -0.243,0 -0.311,0.077 -0.311,2.196 l 0,0.572 0.845,0 c 0.817,0 0.817,-0.135 0.817,-0.427 l 0,-0.175 0.33,0 0,1.73 -0.33,0 0,-0.321 C 3.226,3.216 3.187,3.07 2.098,3.07 l -0.534,0 0,2.05 c 0,0.155 0.058,0.155 0.194,0.155 0.739,0 1.215,-0.009 1.72,-0.174 C 3.662,5.033 3.741,4.974 3.759,4.77 3.769,4.654 3.819,4.595 3.945,4.595 c 0.193,0 0.165,0.273 0.184,0.408 l 0.078,0.7 -4.955,0 0,-0.37 0.446,0 c 0.146,0 0.302,0 0.302,-0.592"
         id="path952"
         style="fill:#bfa403;fill-opacity:1;fill-rule:evenodd;stroke:none" />
    </g>
    <g
       transform="matrix(3.4233388,0,0,-3.4233388,601.02662,460.1828)"
       id="g954">
      <path
         d="m 0,0 0.016,0 -0.103,-0.1 c -0.076,-0.013 -0.205,-0.013 -0.429,-0.013 l 0,0.016 0.016,0 0,-0.353 2.844,0 0,0.337 -0.469,0 C 1.75,-0.116 1.656,-0.082 1.613,0.204 1.565,0.49 1.548,1.039 1.548,2.099 l 0,0.572 0,0.016 0.861,0 c 0.41,0 0.615,-0.033 0.724,-0.107 0.11,-0.076 0.109,-0.192 0.109,-0.336 l 0,-0.159 0.298,0 0,1.698 -0.298,0 0,-0.305 C 3.243,3.348 3.23,3.233 3.077,3.161 2.926,3.09 2.643,3.054 2.098,3.054 l -0.534,0 -0.016,0 0,2.066 0.054,0.149 0.156,0.022 C 2.497,5.291 2.975,5.282 3.483,5.116 3.669,5.049 3.758,4.979 3.775,4.772 3.787,4.659 3.824,4.613 3.945,4.611 4.116,4.605 4.095,4.863 4.113,5.005 l 0.076,0.682 -4.921,0 0,-0.338 0.43,0 0.219,-0.08 C -0.022,5.189 0.016,5.038 0.016,4.741 L 0.016,0 0,0 l -0.016,0 0,4.741 c -0.006,0.592 -0.143,0.572 -0.286,0.576 l -0.446,0 -0.016,0 0,0.386 0,0.016 4.989,0 -0.08,-0.718 C 4.125,4.872 4.16,4.585 3.945,4.579 3.813,4.576 3.751,4.649 3.743,4.769 3.723,4.967 3.656,5.016 3.472,5.085 2.971,5.25 2.497,5.259 1.758,5.259 1.619,5.254 1.585,5.268 1.58,5.12 l 0,-2.034 0.518,0 C 3.19,3.091 3.207,3.225 3.21,3.478 l 0,0.321 0,0.016 0.346,0 0.016,0 0,-1.762 -0.346,0 -0.016,0 0,0.191 C 3.205,2.532 3.228,2.649 2.409,2.655 l -0.829,0 0,-0.556 c 0,-1.059 0.017,-1.608 0.064,-1.89 0.051,-0.282 0.113,-0.286 0.231,-0.29 l 0.485,0 0.016,0 0,-0.385 0,-0.016 -2.908,0 0,0.385 0,0.016 0.016,0 c 0.224,0 0.353,0 0.423,0.012 L -0.016,0 0,0 z"
         id="path956"
         style="fill:#bfa403;fill-opacity:1;fill-rule:nonzero;stroke:none" />
    </g>
  </g>
</svg>
