<?xml version="1.0" encoding="UTF-8" standalone="no"?>
<!-- Created with Inkscape (http://www.inkscape.org/) -->
<svg xmlns:svg="http://www.w3.org/2000/svg" xmlns="http://www.w3.org/2000/svg" version="1.0" viewBox="0 0 500.63599 489.20743" width="320" height="313"
 id="svg3176">
  <defs id="defs3178">
    <clipPath id="clipPath647">
      <path d="M 0,841.98 L 595.2,841.98 L 595.2,0 L 0,0 L 0,841.98 z" id="path649"/>
    </clipPath>
    <clipPath id="clipPath641">
      <path d="M -0.138,841.945 L 595.138,841.945 L 595.138,0.055 L -0.138,0.055 L -0.138,841.945 z" id="path643"/>
    </clipPath>
    <clipPath id="clipPath635">
      <path d="M 304.179,826.945 L 356.695,826.945 L 356.695,775.046 L 304.179,775.046 L 304.179,826.945 z" id="path637"/>
    </clipPath>
  </defs>
  <g transform="translate(114.60371,-83.472756)" id="layer1">
    <path d="M 14.320279,284.29087 C 14.320279,284.29087 23.195489,273.72715 32.134018,266.69875 C 41.061994,259.68089 55.941953,246.33114 73.470757,244.20996 C 91.010114,242.07822 120.52731,240.66409 120.52731,240.66409 L 176.0264,251.22781 L 298.52751,201.29024 C 298.52751,201.29024 295.86811,225.12984 292.21672,229.38276 C 288.55477,233.63569 283.85861,246.64774 277.82221,250.00364 C 271.7858,253.35955 273.19992,267.40581 273.19992,267.40581 L 263.34327,285.00848 L 260.50447,286.7181 L 260.24064,299.05474 L 252.15691,311.04314 L 248.02007,314.97947 L 376.07215,268.96768 C 376.07215,268.96768 370.32068,294.80182 367.48188,296.92301 C 364.65363,299.05474 346.09062,326.79901 346.09062,326.79901 L 343.57896,338.49191 L 337.25762,356.09459 L 328.10803,368.00911 L 324.87876,370.82681 L 306.65345,407.09803 C 306.65345,407.09803 303.97294,422.33679 301.74623,426.39976 C 299.51951,430.45218 295.87867,438.36705 295.87867,438.36705 L 167.1934,485.46582 L 68.447452,488.55789 L 26.2348,463.00868 C 26.2348,463.00868 17.486227,454.64003 11.460371,456.8773 C 11.101564,457.06725 10.985479,457.14113 10.901054,457.62657 C 10.162332,462.2383 -1.6994229,499.97641 -3.4934606,503.0896 C -5.6357527,506.7832 -13.846113,515.78505 -13.846113,515.78505 L -34.92078,526.28545 L -39.173705,523.52052 L -59.604628,520.68172 L -72.236764,511.53213 L -78.600322,499.42765 L -80.415466,494.95311 C -43.722118,528.70212 -37.706815,496.71549 -19.418184,468.30637 L -17.645252,440.65709 L -21.581582,422.21016 L -30.741727,400.20681 L -33.327252,384.44039 C -33.327252,384.44039 -21.359966,354.1106 -28.694414,336.7612 C -34.11874,323.90744 -36.946987,319.97111 -42.79344,315.04279 C -45.948835,312.37284 -58.749822,297.87279 -58.749822,297.87279 C -58.749822,297.87279 -70.178898,295.50888 -75.075565,299.05474 C -79.972233,302.60061 -94.018493,308.9114 -94.018493,308.9114 C -94.018493,308.9114 -96.920613,296.21594 -83.518096,290.61221 C -70.105025,285.00848 -61.662495,284.29087 -61.662495,284.29087 L -58.011101,279.15148 L -27.301396,292.40625 L -55.351704,267.40581 L -65.524953,258.07681 L -82.093419,259.68089 L -99.991583,267.047 C -99.991583,267.047 -96.213551,254.78423 -91.243011,251.94542 C -86.283024,249.10662 -70.812087,245.62408 -70.812087,245.62408 L -65.208358,244.91702 L -60.881561,241.28673 L -59.952883,238.96503 C -59.952883,238.96503 -31.596534,252.50474 -24.9797,259.3854 C -17.740231,266.89926 -8.6434041,279.41531 -3.5462264,289.15588 C 1.4243134,298.67483 5.2656647,313.92415 5.2656647,313.92415 L 12.18854,308.20434 L 14.320279,284.29087" id="path651" style="fill:#ffffff;fill-opacity:1;fill-rule:nonzero;stroke:none"/>
    <path d="M 228.37008,322.34558 L 377.03249,268.27117 C 377.03249,268.27117 378.20389,301.00708 345.94287,326.63016 C 345.94287,326.63016 240.32682,366.26784 239.47201,365.55022 C 237.7624,364.1361 243.03898,348.50687 228.37008,322.34558 z" id="path653" style="fill:#004f9e;fill-opacity:1;fill-rule:nonzero;stroke:#222226;stroke-width:2.98654509;stroke-linecap:butt;stroke-linejoin:miter;stroke-miterlimit:3.86400008;stroke-dasharray:none;stroke-opacity:1"/>
    <path d="M 237.48802,366.35226 L 347.05095,326.1025 C 347.05095,326.1025 346.95598,353.23468 326.64114,369.38102 C 326.64114,369.38102 234.37483,405.10348 234.31151,404.40697 C 233.92105,399.64749 242.74349,364.23108 237.48802,366.35226 z" id="path655" style="fill:#ffffff;fill-opacity:1;fill-rule:nonzero;stroke:#222226;stroke-width:2.98654509;stroke-linecap:butt;stroke-linejoin:miter;stroke-miterlimit:3.86400008;stroke-dasharray:none;stroke-opacity:1"/>
    <path d="M 230.35408,406.38041 L 325.8391,370.1303 C 325.8391,370.1303 328.72011,388.84106 311.21241,405.06127 C 311.21241,405.06127 222.02763,440.2033 221.68993,440.26662 C 218.0702,440.96313 233.0979,405.25122 230.35408,406.38041 z" id="path657" style="fill:#004f9e;fill-opacity:1;fill-rule:nonzero;stroke:#222226;stroke-width:2.98654509;stroke-linecap:butt;stroke-linejoin:miter;stroke-miterlimit:3.86400008;stroke-dasharray:none;stroke-opacity:1"/>
    <path d="M 216.56109,302.4212 L 261.4648,286.01103 C 261.4648,286.01103 266.48811,298.06275 248.98041,314.28296 L 228.37008,322.34558 C 228.57059,322.61996 219.31547,301.28146 216.56109,302.4212 z" id="path659" style="fill:#ffffff;fill-opacity:1;fill-rule:nonzero;stroke:#222226;stroke-width:2.98654509;stroke-linecap:butt;stroke-linejoin:miter;stroke-miterlimit:3.86400008;stroke-dasharray:none;stroke-opacity:1"/>
    <path d="M 220.04364,440.73096 L 307.60323,406.40152 C 307.60323,406.40152 311.55011,422.34735 294.04242,438.56756 L 168.14318,484.76931 C 168.35425,485.04369 222.78746,439.60177 220.04364,440.73096 z" id="path661" style="fill:#ffffff;fill-opacity:1;fill-rule:nonzero;stroke:#222226;stroke-width:2.98654509;stroke-linecap:butt;stroke-linejoin:miter;stroke-miterlimit:3.86400008;stroke-dasharray:none;stroke-opacity:1"/>
    <path d="M 84.509366,239.27108 L 329.1739,148.19728 C 329.1739,148.19728 330.3453,180.93319 298.08428,206.55627 C 298.08428,206.55627 169.20905,254.0244 170.32769,254.03495 C 171.44632,254.0455 140.37781,240.31584 84.509366,239.27108 z" id="path663" style="fill:#004f9e;fill-opacity:1;fill-rule:nonzero;stroke:#222226;stroke-width:2.98654509;stroke-linecap:butt;stroke-linejoin:miter;stroke-miterlimit:3.86400008;stroke-dasharray:none;stroke-opacity:1"/>
    <path d="M 170.68649,253.47563 L 299.19236,206.02861 C 299.19236,206.02861 299.09738,233.16079 278.78254,249.30713 C 278.78254,249.30713 197.58651,279.86909 198.29357,279.87965 C 199.00063,279.8902 175.95252,251.35445 170.68649,253.47563 z" id="path665" style="fill:#ffffff;fill-opacity:1;fill-rule:nonzero;stroke:#222226;stroke-width:2.98654509;stroke-linecap:butt;stroke-linejoin:miter;stroke-miterlimit:3.86400008;stroke-dasharray:none;stroke-opacity:1"/>
    <path d="M 200.7208,278.69769 L 275.89098,250.79513 C 275.89098,250.79513 278.78254,269.50589 261.27485,285.7261 C 261.27485,285.7261 219.06219,301.81967 219.41045,301.87244 C 219.74815,301.91465 203.46462,277.55795 200.7208,278.69769 z" id="path667" style="fill:#004f9e;fill-opacity:1;fill-rule:nonzero;stroke:#222226;stroke-width:2.98654509;stroke-linecap:butt;stroke-linejoin:miter;stroke-miterlimit:3.86400008;stroke-dasharray:none;stroke-opacity:1"/>
    <path d="M 156.59802,250.99564 L 312.03556,191.64465 L 299.74113,206.26078 L 165.51544,258.77332 L 156.59802,250.99564" id="path669" style="fill:#222226;fill-opacity:1;fill-rule:nonzero;stroke:none"/>
    <path d="M 196.2357,274.71915 L 286.83461,240.31584 L 276.46085,252.23036 L 205.38529,278.43386 L 196.2357,274.71915" id="path671" style="fill:#222226;fill-opacity:1;fill-rule:nonzero;stroke:none"/>
    <path d="M 220.24415,296.13152 L 268.19772,277.80067 L 261.84472,287.00303 L 222.33367,301.73525 L 220.24415,296.13152" id="path673" style="fill:#222226;fill-opacity:1;fill-rule:nonzero;stroke:none"/>
    <path d="M 231.62046,316.00312 L 255.33342,306.66357 L 251.69257,314.57845 L 233.79441,321.57519 L 231.62046,316.00312" id="path675" style="fill:#222226;fill-opacity:1;fill-rule:nonzero;stroke:none"/>
    <path d="M 233.66777,356.85442 L 360.36905,310.9165 L 347.83189,325.32157 L 242.448,364.7904 L 233.66777,356.85442" id="path677" style="fill:#222226;fill-opacity:1;fill-rule:nonzero;stroke:none"/>
    <path d="M 230.03748,399.89022 L 334.66154,359.99926 L 324.28778,371.91378 L 239.19763,403.60493 L 230.03748,399.89022" id="path679" style="fill:#222226;fill-opacity:1;fill-rule:nonzero;stroke:none"/>
    <path d="M 214.79872,437.47003 L 318.34635,397.28359 L 311.21241,405.06127 L 216.88824,443.07376 L 214.79872,437.47003" id="path681" style="fill:#222226;fill-opacity:1;fill-rule:nonzero;stroke:none"/>
    <path d="M 180.40596,475.76746 L 300.47985,429.75567 L 296.82845,437.67054 L 168.43867,486.37339 L 180.40596,475.76746" id="path683" style="fill:#222226;fill-opacity:1;fill-rule:nonzero;stroke:none"/>
    <path d="M 33.706439,463.68409 C 33.706439,463.68409 76.6156,444.49844 48.565293,366.13065 C 48.565293,366.13065 74.082841,396.95644 73.038078,402.54961 C 73.038078,402.54961 84.287749,390.05467 73.597395,363.89338 C 73.597395,363.89338 98.597838,387.80685 100.814,444.91001 C 100.814,444.91001 128.77988,393.75883 103.35731,355.86242 C 103.35731,355.86242 131.04881,374.82645 139.38581,422.63228 C 139.38581,422.63228 150.96263,396.22827 137.60233,365.84571 C 137.60233,365.84571 158.15989,398.86656 160.12278,408.42773 C 160.12278,408.42773 161.94848,361.01236 145.73882,338.77685 C 145.73882,338.77685 184.0468,364.23108 189.65053,424.32079 C 189.65053,424.32079 202.09271,391.78539 190.041,355.3031 C 190.041,355.3031 221.70048,410.25342 225.79511,407.93173 C 225.79511,407.93173 207.9075,343.6313 209.97592,338.03813 C 209.97592,338.03813 231.59935,369.34936 232.80241,361.48726 C 232.80241,361.48726 239.31371,472.48543 134.38361,491.70273 C 61.419045,505.06304 35.975369,466.71284 35.975369,466.71284 L 33.706439,463.68409" id="path685" style="fill:#004f9e;fill-opacity:1;fill-rule:nonzero;stroke:none"/>
    <path d="M 15.681637,368.00911 C 13.433813,369.68706 2.4796297,377.9924 3.5032865,380.55682 C 4.1470294,382.18201 4.4003053,382.89962 2.2263538,383.11069 C 2.0997158,383.12124 1.7831209,382.24533 1.7620146,382.1609 C 0.86499575,379.44874 1.0232932,376.24058 2.5112892,373.76059 C 5.1495799,369.38102 10.974926,368.24128 15.681637,368.00911 z" id="path687" style="fill:#7b878a;fill-opacity:1;fill-rule:nonzero;stroke:#e5000b;stroke-width:0.29548857;stroke-linecap:butt;stroke-linejoin:miter;stroke-miterlimit:3.86400008;stroke-dasharray:none;stroke-opacity:1"/>
    <path d="M 16.641974,324.26625 C 17.940013,324.57229 25.221696,326.21859 25.77046,325.15272 C 28.978622,326.38744 36.207539,329.98607 27.891646,331.09415 C 24.609612,328.97296 20.66273,327.46386 16.736953,327.49552 C 12.779517,327.52718 14.816277,325.57484 16.641974,324.26625 z" id="path689" style="fill:#7b878a;fill-opacity:1;fill-rule:nonzero;stroke:#e5000b;stroke-width:0.29548857;stroke-linecap:butt;stroke-linejoin:miter;stroke-miterlimit:3.86400008;stroke-dasharray:none;stroke-opacity:1"/>
    <path d="M 23.13217,376.05062 C 22.509533,380.64125 22.583405,385.35851 23.216595,389.92803 C 24.440762,398.6766 22.636171,405.38841 22.024088,413.87316 C 21.359238,423.14939 37.822173,436.23531 45.209387,439.34849 L 48.143166,445.41656 C 34.392395,446.72515 23.068851,424.19415 18.36214,414.11588 C 21.158728,403.95318 20.715495,391.1733 16.937463,381.29554 L 23.13217,376.05062" id="path691" style="fill:#7b878a;fill-opacity:1;fill-rule:nonzero;stroke:none"/>
    <path d="M -5.4985615,334.12291 C -9.1710623,336.57124 -14.637601,316.21419 -15.745683,313.67088 C -27.438587,286.77086 -70.696003,266.49824 -68.81754,251.24892 C -68.142137,245.82459 -65.398315,239.98869 -60.364456,237.36095 C -25.285742,246.43667 2.3107791,280.40731 7.0385961,315.92925 L 5.0968141,315.20108 C -1.2984027,290.81272 -19.069929,262.77297 -40.682807,249.67649 C -46.170452,246.35225 -51.605331,244.91702 -57.282932,242.33149 C -58.190504,241.91992 -59.087523,241.13899 -59.921223,240.57967 C -65.134486,257.91852 -57.082422,263.26897 -43.025609,273.35779 C -12.020416,295.61441 -12.674712,327.33722 -5.4985615,334.12291" id="path693" style="fill:#7b878a;fill-opacity:1;fill-rule:nonzero;stroke:none"/>
    <path d="M -67.181799,248.12518 C -79.254618,246.41557 -96.129125,253.73946 -99.031245,266.35049 C -97.997035,263.5539 -87.253915,258.14013 -84.26737,257.33809 C -79.307384,256.00839 -74.083568,256.33554 -69.091922,255.23801 C -69.661793,251.42832 -64.965635,252.81078 -63.308788,254.1827 L -65.725463,260.43017 L -64.205807,262.28752 L -66.400865,259.58591 C -66.485291,260.65178 -69.967834,260.2191 -70.590471,260.198 C -74.99114,260.06081 -79.254618,260.48293 -83.475883,261.78097 C -90.293226,263.89161 -97.131676,267.84904 -103.22085,271.57431 L -101.83839,265.67509 C -98.387502,251.57606 -86.019195,244.95923 -72.658891,242.70085 C -70.664343,242.3526 -65.873207,241.68775 -63.868106,242.00435 L -67.181799,248.12518" id="path695" style="fill:#7b878a;fill-opacity:1;fill-rule:nonzero;stroke:none"/>
    <path d="M -59.404118,287.75231 C -72.996592,285.16678 -87.939871,292.058 -92.804879,305.31277 C -90.958076,300.33168 -67.593373,294.36914 -62.390663,294.93901 C -63.593724,290.50668 -59.298587,291.30872 -57.082422,293.14497 L -56.871359,300.77491 L -60.74437,297.82002 L -56.871359,300.77491 C -59.27748,300.63772 -61.588623,299.82513 -63.973638,299.59296 C -72.92272,298.71704 -87.781573,306.75855 -95.580361,311.08535 C -95.590914,308.97472 -95.749212,306.72689 -95.61202,304.63737 C -94.651683,290.34838 -70.411067,278.94042 -57.64174,280.96662 L -59.404118,287.75231" id="path697" style="fill:#7b878a;fill-opacity:1;fill-rule:nonzero;stroke:none"/>
    <path d="M -57.916122,283.20389 C -56.60753,307.15957 -43.553267,303.52929 -31.976448,321.61741 C -18.40508,342.80816 -27.470247,360.49526 -31.037216,382.26643 C -33.580528,397.79014 -22.098687,411.16099 -18.436739,425.36555 C -6.9865575,469.75216 -17.202019,470.54364 -40.545616,503.34287 C -43.912075,508.07069 -35.775586,518.31781 -32.662403,521.89533 C -23.924384,518.66607 -6.7966006,510.60345 -4.1794162,501.11616 L -3.0080151,502.05539 C -8.3057029,514.67697 -21.07503,524.6075 -34.298143,527.97396 C -46.624238,518.48666 -48.080574,510.21298 -43.574374,501.78101 C -43.1628,501.00007 -42.519057,501.9182 -41.073274,500.06084 C -30.319601,486.38394 -12.263139,465.80527 -23.407279,422.5373 C -25.950591,412.64899 -31.649299,404.39642 -34.561972,394.63474 C -40.345106,375.23803 -14.131049,359.99926 -37.052519,324.7728 C -48.481594,307.22289 -70.189451,305.44996 -61.873558,277.86399 C -51.594778,274.7086 -19.291546,294.84403 -19.122695,304.27856 C -26.594334,295.02344 -46.191558,282.68679 -57.916122,283.20389" id="path699" style="fill:#7b878a;fill-opacity:1;fill-rule:nonzero;stroke:none"/>
    <path d="M -41.463741,519.37313 C -53.810942,520.60785 -74.663992,511.62711 -77.639984,498.73114 C -76.542455,501.56994 -64.627934,507.9335 -61.504198,508.78831 C -56.554764,510.13911 -51.320395,509.79086 -46.328749,510.88839 C -44.186457,519.57364 -42.202462,513.31561 -40.545616,511.9437 L -42.656248,503.23734 L -43.183907,503.36398 L -44.766881,505.33742 C -44.840753,504.33487 -46.529259,505.87563 -47.109683,505.89674 C -51.826947,506.06559 -56.164297,505.74899 -60.71271,504.33487 C -67.909968,502.10815 -75.677095,497.14817 -81.977334,492.96911 L -80.014445,500.9262 C -76.173094,516.00667 -60.754923,522.46521 -46.803642,525.07184 C -44.714115,525.45175 -38.793791,526.42264 -36.714818,526.13771 L -41.463741,519.37313" id="path701" style="fill:#7b878a;fill-opacity:1;fill-rule:nonzero;stroke:none"/>
    <path d="M 77.301555,295.81492 C 77.301555,288.60711 88.234632,288.60711 88.234632,295.81492 C 88.234632,303.00163 77.301555,303.02273 77.301555,295.81492 z" id="path703" style="fill:#7b878a;fill-opacity:1;fill-rule:nonzero;stroke:#ffffff;stroke-width:0.29548857;stroke-linecap:butt;stroke-linejoin:miter;stroke-miterlimit:3.86400008;stroke-dasharray:none;stroke-opacity:1"/>
    <path d="M 41.05144,307.52893 C 41.737396,301.84078 48.406995,298.907 50.549287,293.47212 L 51.098052,295.92045 L 54.010725,293.83093 L 54.126809,295.65663 L 61.50347,289.09256 C 60.796408,290.10566 59.846624,291.38259 59.646114,292.63842 C 59.508923,293.50378 60.448154,293.09221 60.849174,292.87059 C 63.888485,291.20319 66.537329,288.45937 69.048982,286.13767 C 60.806962,302.15737 86.69387,272.68239 91.136752,272.16529 C 83.601794,279.45752 86.714977,280.02739 95.537421,275.61617 C 97.225927,277.08306 101.1517,276.376 102.9774,275.89055 C 101.08838,276.58706 97.616394,277.86399 96.318355,279.36254 C 94.756487,281.18824 100.40243,281.17769 100.76124,281.05105 C 107.06148,278.80322 113.39337,274.01209 120.40067,278.20169 C 108.61279,281.86364 130.09903,276.12272 136.0088,290.9077 C 120.56952,269.92801 104.75033,320.72039 81.037375,313.19598 C 76.678919,311.80297 70.399787,308.83753 69.14396,303.87754 C 78.409637,316.90014 105.04582,315.581 98.30235,288.37494 C 98.777242,295.42446 97.046523,280.24901 94.56653,280.25956 C 94.281595,280.27011 71.666166,301.4081 69.355024,301.32367 C 66.938349,303.42375 63.392487,302.92776 60.585345,302.23125 C 56.881185,301.31312 44.935004,302.46342 42.687181,305.88264 C 42.476117,306.20979 41.853481,307.70834 41.05144,307.52893 z" id="path705" style="fill:#7b878a;fill-opacity:1;fill-rule:nonzero;stroke:#ffffff;stroke-width:0.29548857;stroke-linecap:butt;stroke-linejoin:miter;stroke-miterlimit:3.86400008;stroke-dasharray:none;stroke-opacity:1"/>
    <path d="M 74.072287,304.23635 C 81.501714,309.49182 89.543224,308.00383 93.827809,299.67738 C 95.358017,296.70139 93.595639,289.58856 90.904582,287.62567 L 89.39548,286.58091 L 87.823059,285.5467 C 87.221529,285.17734 87.685868,285.63112 87.812506,285.69444 C 93.648405,288.65988 92.09709,283.92151 90.904582,283.05615 C 94.988657,284.82908 96.297249,292.87059 96.381674,296.57475 C 96.518865,302.43176 90.904582,309.87174 84.509366,308.62646 C 81.617799,308.06715 78.810658,308.56314 76.267345,306.5686 L 74.979859,305.49217 C 74.705477,305.2389 74.241138,304.81677 74.051181,304.4263 C 74.019522,304.37354 74.008968,304.23635 74.072287,304.23635 z" id="path707" style="fill:#7b878a;fill-opacity:1;fill-rule:evenodd;stroke:#ffffff;stroke-width:0.29548857;stroke-linecap:butt;stroke-linejoin:miter;stroke-miterlimit:3.86400008;stroke-dasharray:none;stroke-opacity:1"/>
    <path d="M 126.96474,295.77271 C 120.80169,298.89645 113.94214,304.20469 111.25108,310.67378 C 103.89553,328.33977 75.518071,328.31867 66.157415,310.11446 L 64.500569,306.82187 C 64.331718,306.45251 63.719635,304.81677 64.373931,305.35498 C 72.27825,311.89794 77.692022,323.30591 92.044324,317.91325 C 105.24633,312.95326 111.43048,302.07295 113.75218,301.20759 C 118.23727,299.54019 121.73037,295.0762 126.96474,295.77271 z" id="path709" style="fill:#7b878a;fill-opacity:1;fill-rule:nonzero;stroke:#ffffff;stroke-width:0.29548857;stroke-linecap:butt;stroke-linejoin:miter;stroke-miterlimit:3.86400008;stroke-dasharray:none;stroke-opacity:1"/>
    <path d="M 11.692541,383.9866 C 22.551746,369.14885 38.086002,344.34892 54.918297,337.64766 C 50.169373,341.06689 44.998323,344.68662 40.945909,348.90789 C 33.949162,356.17902 56.33242,344.32781 60.9336,341.95335 C 69.80881,337.37328 89.184417,330.271 98.777242,331.63236 C 100.93009,331.9384 103.66336,329.71168 104.8031,328.19203 C 103.52617,330.271 102.05928,332.14946 99.621495,332.7721 C 99.262688,332.86708 98.439541,332.28665 98.10184,332.18112 C 96.307802,331.59015 94.271041,331.89619 92.455897,332.23389 C 82.092691,334.19678 71.528975,339.32561 62.041682,343.71573 C 51.150817,348.74959 33.41095,359.28165 26.80467,369.972 C 27.311222,370.55242 29.253004,372.85301 27.786115,372.76859 L 11.692541,383.9866 z" id="path711" style="fill:#7b878a;fill-opacity:1;fill-rule:nonzero;stroke:#e5000b;stroke-width:0.29548857;stroke-linecap:butt;stroke-linejoin:miter;stroke-miterlimit:3.86400008;stroke-dasharray:none;stroke-opacity:1"/>
    <path d="M 225.19358,407.86841 C 225.98507,408.5227 225.9112,408.81819 225.9112,408.81819 C 226.10115,408.72321 226.12226,408.38551 226.03783,407.87896 L 236.03168,407.86841 C 208.26631,496.38834 94.587636,532.79675 24.609612,463.02979 C 24.609612,463.02979 20.493879,456.26521 11.449818,456.98283 L 16.452017,452.45552 C 27.627817,455.07271 28.018284,457.19389 31.5747,460.34929 C 52.797111,479.17613 80.435845,490.0881 109.05602,490.0881 C 161.71631,490.0881 204.99483,454.8722 221.15172,407.86841 L 225.19358,407.86841" id="path713" style="fill:#7b878a;fill-opacity:1;fill-rule:evenodd;stroke:none"/>
    <path d="M 20.514985,374.09829 C 11.882498,381.08448 5.6666849,389.19986 5.2023457,399.23592 C -2.4381443,390.70897 -7.4297904,382.43529 -9.7831457,374.09829 L -13.645603,374.09829 C -10.996759,387.80685 -3.9050339,400.48119 8.0622529,405.08237 C 8.0622529,393.58998 15.903253,382.94184 26.794117,374.09829 L 20.514985,374.09829 z M 242.07864,374.09829 C 241.42435,386.03391 239.33482,397.3258 236.03168,407.87896 L 226.03783,407.86841 C 225.68958,405.70501 223.4101,400.59728 223.64227,399.74247 C 225.87954,391.46879 227.28311,382.87852 227.76855,374.10884 L 242.07864,374.09829 z M 221.15172,407.86841 C 221.45776,406.97139 221.7638,406.06382 222.04874,405.14569 C 222.16482,404.81854 223.81112,406.93973 223.81112,406.93973 C 224.44431,407.29854 224.88754,407.61513 225.19358,407.86841 L 221.15172,407.86841" id="path715" style="fill:#7b878a;fill-opacity:1;fill-rule:evenodd;stroke:none"/>
    <path d="M 76.953301,340.32816 C 74.304457,341.2674 71.835017,342.4388 69.724384,344.05343 C 57.472162,353.39298 35.394945,362.06768 20.514985,374.10884 L 26.794117,374.09829 C 41.9168,361.82496 62.907041,353.04473 76.921641,350.34312 L 68.468558,347.63095 C 71.032977,344.34892 78.061383,342.29105 85.712426,340.32816 L 76.953301,340.32816 z M 240.50622,340.32816 C 241.67762,348.41189 242.28971,356.98106 242.28971,366.06733 C 242.28971,368.77949 242.21583,371.46 242.07864,374.09829 L 227.76855,374.09829 C 227.90574,371.78714 227.96906,369.46545 227.96906,367.12265 C 227.96906,357.7831 226.96651,348.83401 225.08805,340.32816 L 240.50622,340.32816 z M -13.645603,374.09829 C -15.977852,362.05713 -14.890877,349.21393 -10.669611,340.32816 L -5.530221,340.32816 C -11.429439,352.20047 -12.864669,363.20742 -9.7831457,374.09829 L -13.645603,374.09829" id="path717" style="fill:#7b878a;fill-opacity:1;fill-rule:evenodd;stroke:none"/>
    <path d="M -10.669611,340.32816 C -10.648505,340.26485 -10.616846,340.21208 -10.595739,340.15931 C -8.115746,335.00937 -7.6303005,328.96241 -4.6543085,324.0974 L -3.9683529,324.46676 L 10.151779,307.4234 C 1.9308652,276.04885 52.195581,236.42172 112.11644,233.31909 C 165.56821,230.54361 229.14046,261.68599 240.50622,340.33872 L 225.08805,340.32816 C 203.91841,244.18885 71.486763,204.10794 16.430911,286.67588 L 15.998231,299.71959 C 40.143868,309.94561 20.008433,311.9085 44.512878,307.71889 C 56.068591,315.52823 76.626153,329.51117 91.601091,326.55629 C 106.02727,323.70693 113.52001,323.94966 110.78674,324.81502 C 114.19541,333.74299 99.030518,336.89839 85.712426,340.32816 L 76.953301,340.32816 C 85.353619,337.39439 95.695718,336.91949 102.84021,333.01482 C 104.01161,332.37108 110.26964,329.12071 106.83986,326.86233 C 77.491512,331.91729 67.444901,326.52463 42.877138,310.9165 L 33.928055,317.55444 C 21.89745,303.95141 11.492031,305.49217 5.2023457,320.73094 C 15.618318,328.783 4.6008154,326.50352 -0.9184888,325.40599 L 0.59061351,330.00717 C -1.8155077,333.52137 -3.8522681,336.96171 -5.530221,340.32816 L -10.669611,340.32816" id="path719" style="fill:#7b878a;fill-opacity:1;fill-rule:evenodd;stroke:none"/>
    <path d="M 33.928055,317.55444 L 42.877138,310.9165 C 67.444901,326.52463 77.491512,331.91729 106.83986,326.86233 C 110.26964,329.12071 104.01161,332.37108 102.84021,333.01482 C 93.437342,338.15421 78.504616,337.35217 69.724384,344.05343 C 50.369883,358.82786 6.4687253,371.91378 5.2023457,399.23592 C -15.249684,376.40943 -16.727127,355.44029 0.59061351,330.00717 L -0.9184888,325.40599 C 4.6008154,326.50352 15.618318,328.783 5.2023457,320.73094 C 11.492031,305.49217 21.89745,303.95141 33.928055,317.55444 z M 16.452017,452.45552 C 27.627817,455.07271 28.018284,457.19389 31.5747,460.34929 C 52.797111,479.17613 80.435845,490.0881 109.05602,490.0881 C 162.72941,490.0881 206.65167,453.51084 222.04874,405.14569 C 222.16482,404.81854 223.81112,406.93973 223.81112,406.93973 C 226.05894,408.25888 225.9112,408.81819 225.9112,408.81819 C 226.88209,408.33275 223.35733,400.78724 223.64227,399.74247 C 226.45996,389.28429 227.96906,378.3301 227.96906,367.12265 C 227.96906,252.25147 76.351771,196.79459 16.430911,286.67588 L 15.998231,299.71959 C 40.143868,309.94561 20.008433,311.9085 44.512878,307.71889 C 56.068591,315.52823 76.626153,329.51117 91.601091,326.55629 C 106.02727,323.70693 113.52001,323.94966 110.78674,324.81502 C 116.14775,338.86128 75.486411,338.61855 68.468558,347.63095 L 76.921641,350.34312 C 52.807664,354.99706 8.0622529,377.62304 8.0622529,405.08237 C -14.479303,396.39712 -19.713672,359.1128 -10.595739,340.15931 C -8.115746,335.00937 -7.6303005,328.96241 -4.6543085,324.0974 L -3.9683529,324.46676 L 10.151779,307.4234 C 1.9308652,276.04885 52.195581,236.42172 112.11644,233.31909 C 171.05586,230.25867 242.28971,268.42947 242.28971,366.06733 C 242.28971,483.53459 104.77144,542.94889 24.609612,463.02979 C 24.609612,463.02979 20.493879,456.26521 11.449818,456.98283 L 16.452017,452.45552 z" id="path721" style="fill:none;stroke:#222226;stroke-width:0.29548857;stroke-linecap:butt;stroke-linejoin:miter;stroke-miterlimit:3.86400008;stroke-dasharray:none;stroke-opacity:1"/>
    <path d="M 16.452017,452.45552 C 27.627817,455.07271 28.018284,457.19389 31.5747,460.34929 C 52.797111,479.17613 80.435845,490.0881 109.05602,490.0881 C 162.72941,490.0881 206.65167,453.51084 222.04874,405.14569 C 222.16482,404.81854 223.81112,406.93973 223.81112,406.93973 C 226.05894,408.25888 225.9112,408.81819 225.9112,408.81819 C 226.88209,408.33275 223.35733,400.78724 223.64227,399.74247 C 226.45996,389.28429 227.96906,378.3301 227.96906,367.12265 C 227.96906,252.25147 76.351771,196.79459 16.430911,286.67588 L 15.998231,299.71959 C 40.143868,309.94561 20.008433,311.9085 44.512878,307.71889 C 56.068591,315.52823 76.626153,329.51117 91.601091,326.55629 C 106.02727,323.70693 113.52001,323.94966 110.78674,324.81502 C 116.14775,338.86128 75.486411,338.61855 68.468558,347.63095 L 76.921641,350.34312 C 52.807664,354.99706 8.0622529,377.62304 8.0622529,405.08237 C -14.479303,396.39712 -19.713672,359.1128 -10.595739,340.15931 C -8.115746,335.00937 -7.6303005,328.96241 -4.6543085,324.0974 L -3.9683529,324.46676 L 10.151779,307.4234 C 1.9308652,276.04885 52.195581,236.42172 112.11644,233.31909 C 171.05586,230.25867 242.28971,268.42947 242.28971,366.06733 C 242.28971,483.53459 104.77144,542.94889 24.609612,463.02979 C 24.609612,463.02979 20.493879,456.26521 11.449818,456.98283 L 16.452017,452.45552 z" id="path723" style="fill:#222226;fill-opacity:1;fill-rule:nonzero;stroke:#222226;stroke-width:0.29548857;stroke-linecap:butt;stroke-linejoin:miter;stroke-miterlimit:3.86400008;stroke-dasharray:none;stroke-opacity:1"/>
    <path d="M 33.928055,317.55444 L 42.877138,310.9165 C 67.444901,326.52463 77.491512,331.91729 106.83986,326.86233 C 110.26964,329.12071 104.01161,332.37108 102.84021,333.01482 C 93.437342,338.15421 78.504616,337.35217 69.724384,344.05343 C 50.369883,358.82786 6.4687253,371.91378 5.2023457,399.23592 C -15.249684,376.40943 -16.727127,355.44029 0.59061351,330.00717 L -0.9184888,325.40599 C 4.6008154,326.50352 15.618318,328.783 5.2023457,320.73094 C 11.492031,305.49217 21.89745,303.95141 33.928055,317.55444 z" id="path725" style="fill:#ffffff;fill-opacity:1;fill-rule:nonzero;stroke:none"/>
    <path d="M 33.928055,317.55444 L 42.877138,310.9165 C 67.444901,326.52463 77.491512,331.91729 106.83986,326.86233 C 110.26964,329.12071 104.01161,332.37108 102.84021,333.01482 C 93.437342,338.15421 78.504616,337.35217 69.724384,344.05343 C 54.612255,355.58804 42.402245,358.44795 25.939311,372.64195 C 23.986976,370.38357 12.241305,382.74133 10.996032,384.94694 C 8.779868,388.88327 7.0597024,394.53976 5.2023457,399.23592 C -15.249684,376.40943 -16.727127,355.44029 0.59061351,330.00717 L -0.9184888,325.40599 C 4.6008154,326.50352 15.618318,328.783 5.2023457,320.73094 C 11.544797,305.37609 21.960769,304.00418 33.928055,317.55444 z" id="path727" style="fill:#e5000b;fill-opacity:1;fill-rule:nonzero;stroke:#e5000b;stroke-width:0.29548857;stroke-linecap:butt;stroke-linejoin:miter;stroke-miterlimit:3.86400008;stroke-dasharray:none;stroke-opacity:1"/>
    <path d="M 15.681637,368.00911 C 13.433813,369.68706 2.4796297,377.9924 3.5032865,380.55682 C 4.1470294,382.18201 4.4003053,382.89962 2.2263538,383.11069 C 2.0997158,383.12124 1.7831209,382.24533 1.7620146,382.1609 C 0.86499575,379.44874 1.0232932,376.24058 2.5112892,373.76059 C 5.1495799,369.38102 10.974926,368.24128 15.681637,368.00911" id="path729" style="fill:#222226;fill-opacity:1;fill-rule:nonzero;stroke:none"/>
    <path d="M 16.641974,324.26625 C 17.940013,324.57229 25.221696,326.21859 25.77046,325.15272 C 28.978622,326.38744 36.207539,329.98607 27.891646,331.09415 C 24.609612,328.97296 20.66273,327.46386 16.736953,327.49552 C 12.779517,327.52718 14.816277,325.57484 16.641974,324.26625" id="path731" style="fill:#222226;fill-opacity:1;fill-rule:nonzero;stroke:none"/>
    <path d="M 23.13217,376.05062 C 22.509533,380.64125 22.583405,385.35851 23.216595,389.92803 C 24.440762,398.6766 22.636171,405.38841 22.024088,413.87316 C 21.359238,423.14939 37.822173,436.23531 45.209387,439.34849 L 48.143166,445.41656 C 34.392395,446.72515 23.068851,424.19415 18.36214,414.11588 C 21.158728,403.95318 20.715495,391.1733 16.937463,381.29554 L 23.13217,376.05062" id="path733" style="fill:#222226;fill-opacity:1;fill-rule:nonzero;stroke:none"/>
    <path d="M -5.4985615,334.12291 C -9.1710623,336.57124 -14.637601,316.21419 -15.745683,313.67088 C -27.438587,286.77086 -70.696003,266.49824 -68.81754,251.24892 C -68.142137,245.82459 -65.398315,239.98869 -60.364456,237.36095 C -25.285742,246.43667 2.3107791,280.40731 7.0385961,315.92925 L 5.0968141,315.20108 C -1.2984027,290.81272 -19.069929,262.77297 -40.682807,249.67649 C -46.170452,246.35225 -51.605331,244.91702 -57.282932,242.33149 C -58.190504,241.91992 -59.087523,241.13899 -59.921223,240.57967 C -65.134486,257.91852 -57.082422,263.26897 -43.025609,273.35779 C -12.020416,295.61441 -12.674712,327.33722 -5.4985615,334.12291" id="path735" style="fill:#222226;fill-opacity:1;fill-rule:nonzero;stroke:none"/>
    <path d="M -67.181799,248.12518 C -79.254618,246.41557 -96.129125,253.73946 -99.031245,266.35049 C -97.997035,263.5539 -87.253915,258.14013 -84.26737,257.33809 C -79.307384,256.00839 -74.083568,256.33554 -69.091922,255.23801 C -69.661793,251.42832 -64.965635,252.81078 -63.308788,254.1827 L -65.725463,260.43017 L -64.205807,262.28752 L -66.400865,259.58591 C -66.485291,260.65178 -69.967834,260.2191 -70.590471,260.198 C -74.99114,260.06081 -79.254618,260.48293 -83.475883,261.78097 C -90.293226,263.89161 -97.131676,267.84904 -103.22085,271.57431 L -101.83839,265.67509 C -98.387502,251.57606 -86.019195,244.95923 -72.658891,242.70085 C -70.664343,242.3526 -65.873207,241.68775 -63.868106,242.00435 L -67.181799,248.12518" id="path737" style="fill:#222226;fill-opacity:1;fill-rule:nonzero;stroke:none"/>
    <path d="M -59.404118,287.75231 C -72.996592,285.16678 -87.939871,292.058 -92.804879,305.31277 C -90.958076,300.33168 -67.593373,294.36914 -62.390663,294.93901 C -63.593724,290.50668 -59.298587,291.30872 -57.082422,293.14497 L -56.871359,300.77491 L -60.74437,297.82002 L -56.871359,300.77491 C -59.27748,300.63772 -61.588623,299.82513 -63.973638,299.59296 C -72.92272,298.71704 -87.781573,306.75855 -95.580361,311.08535 C -95.590914,308.97472 -95.749212,306.72689 -95.61202,304.63737 C -94.651683,290.34838 -70.411067,278.94042 -57.64174,280.96662 L -59.404118,287.75231" id="path739" style="fill:#222226;fill-opacity:1;fill-rule:nonzero;stroke:none"/>
    <path d="M -57.916122,283.20389 C -56.60753,307.15957 -43.553267,303.52929 -31.976448,321.61741 C -18.40508,342.80816 -27.470247,360.49526 -31.037216,382.26643 C -33.580528,397.79014 -22.098687,411.16099 -18.436739,425.36555 C -6.9865575,469.75216 -17.202019,470.54364 -40.545616,503.34287 C -43.912075,508.07069 -35.775586,518.31781 -32.662403,521.89533 C -23.924384,518.66607 -6.7966006,510.60345 -4.1794162,501.11616 L -3.0080151,502.05539 C -8.3057029,514.67697 -21.07503,524.6075 -34.298143,527.97396 C -46.624238,518.48666 -48.080574,510.21298 -43.574374,501.78101 C -43.1628,501.00007 -42.519057,501.9182 -41.073274,500.06084 C -30.319601,486.38394 -12.263139,465.80527 -23.407279,422.5373 C -25.950591,412.64899 -31.649299,404.39642 -34.561972,394.63474 C -40.345106,375.23803 -14.131049,359.99926 -37.052519,324.7728 C -48.481594,307.22289 -70.189451,305.44996 -61.873558,277.86399 C -51.594778,274.7086 -19.291546,294.84403 -19.122695,304.27856 C -26.594334,295.02344 -46.191558,282.68679 -57.916122,283.20389" id="path741" style="fill:#222226;fill-opacity:1;fill-rule:nonzero;stroke:none"/>
    <path d="M -41.463741,519.37313 C -53.810942,520.60785 -74.663992,511.62711 -77.639984,498.73114 C -76.542455,501.56994 -64.627934,507.9335 -61.504198,508.78831 C -56.554764,510.13911 -51.320395,509.79086 -46.328749,510.88839 C -44.186457,519.57364 -42.202462,513.31561 -40.545616,511.9437 L -42.656248,503.23734 L -43.183907,503.36398 L -44.766881,505.33742 C -44.840753,504.33487 -46.529259,505.87563 -47.109683,505.89674 C -51.826947,506.06559 -56.164297,505.74899 -60.71271,504.33487 C -67.909968,502.10815 -75.677095,497.14817 -81.977334,492.96911 L -80.014445,500.9262 C -76.173094,516.00667 -60.754923,522.46521 -46.803642,525.07184 C -44.714115,525.45175 -38.793791,526.42264 -36.714818,526.13771 L -41.463741,519.37313" id="path743" style="fill:#222226;fill-opacity:1;fill-rule:nonzero;stroke:none"/>
    <path d="M 77.301555,295.81492 C 77.301555,288.60711 88.234632,288.60711 88.234632,295.81492 C 88.234632,303.00163 77.301555,303.02273 77.301555,295.81492" id="path745" style="fill:#222226;fill-opacity:1;fill-rule:nonzero;stroke:none"/>
    <path d="M 41.05144,307.52893 C 41.737396,301.84078 48.406995,298.907 50.549287,293.47212 L 51.098052,295.92045 L 54.010725,293.83093 L 54.126809,295.65663 L 61.50347,289.09256 C 60.796408,290.10566 59.846624,291.38259 59.646114,292.63842 C 59.508923,293.50378 60.448154,293.09221 60.849174,292.87059 C 63.888485,291.20319 66.537329,288.45937 69.048982,286.13767 C 60.806962,302.15737 86.69387,272.68239 91.136752,272.16529 C 83.601794,279.45752 86.714977,280.02739 95.537421,275.61617 C 97.225927,277.08306 101.1517,276.376 102.9774,275.89055 C 101.08838,276.58706 97.616394,277.86399 96.318355,279.36254 C 94.756487,281.18824 100.40243,281.17769 100.76124,281.05105 C 107.06148,278.80322 113.39337,274.01209 120.40067,278.20169 C 108.61279,281.86364 130.09903,276.12272 136.0088,290.9077 C 120.56952,269.92801 104.75033,320.72039 81.037375,313.19598 C 76.678919,311.80297 70.399787,308.83753 69.14396,303.87754 C 78.409637,316.90014 105.04582,315.581 98.30235,288.37494 C 98.777242,295.42446 97.046523,280.24901 94.56653,280.25956 C 94.281595,280.27011 71.666166,301.4081 69.355024,301.32367 C 66.938349,303.42375 63.392487,302.92776 60.585345,302.23125 C 56.881185,301.31312 44.935004,302.46342 42.687181,305.88264 C 42.476117,306.20979 41.853481,307.70834 41.05144,307.52893" id="path747" style="fill:#222226;fill-opacity:1;fill-rule:nonzero;stroke:none"/>
    <path d="M 74.072287,304.23635 C 81.501714,309.49182 89.543224,308.00383 93.827809,299.67738 C 95.358017,296.70139 93.595639,289.58856 90.904582,287.62567 L 89.39548,286.58091 L 87.823059,285.5467 C 87.221529,285.17734 87.685868,285.63112 87.812506,285.69444 C 93.648405,288.65988 92.09709,283.92151 90.904582,283.05615 C 94.988657,284.82908 96.297249,292.87059 96.381674,296.57475 C 96.518865,302.43176 90.904582,309.87174 84.509366,308.62646 C 81.617799,308.06715 78.810658,308.56314 76.267345,306.5686 L 74.979859,305.49217 C 74.705477,305.2389 74.241138,304.81677 74.051181,304.4263 C 74.019522,304.37354 74.008968,304.23635 74.072287,304.23635" id="path749" style="fill:#222226;fill-opacity:1;fill-rule:evenodd;stroke:none"/>
    <path d="M 126.96474,295.77271 C 120.80169,298.89645 113.94214,304.20469 111.25108,310.67378 C 103.89553,328.33977 75.518071,328.31867 66.157415,310.11446 L 64.500569,306.82187 C 64.331718,306.45251 63.719635,304.81677 64.373931,305.35498 C 72.27825,311.89794 77.692022,323.30591 92.044324,317.91325 C 105.24633,312.95326 111.43048,302.07295 113.75218,301.20759 C 118.23727,299.54019 121.73037,295.0762 126.96474,295.77271" id="path751" style="fill:#222226;fill-opacity:1;fill-rule:nonzero;stroke:none"/>
    <path d="M 11.692541,383.9866 C 22.551746,369.14885 38.086002,344.34892 54.918297,337.64766 C 50.169373,341.06689 44.998323,344.68662 40.945909,348.90789 C 33.949162,356.17902 56.33242,344.32781 60.9336,341.95335 C 69.80881,337.37328 89.184417,330.271 98.777242,331.63236 C 100.93009,331.9384 103.66336,329.71168 104.8031,328.19203 C 103.52617,330.271 102.05928,332.14946 99.621495,332.7721 C 99.262688,332.86708 98.439541,332.28665 98.10184,332.18112 C 96.307802,331.59015 94.271041,331.89619 92.455897,332.23389 C 82.092691,334.19678 71.528975,339.32561 62.041682,343.71573 C 51.150817,348.74959 33.41095,359.28165 26.80467,369.972 C 27.311222,370.55242 29.253004,372.85301 27.786115,372.76859 L 11.692541,383.9866" id="path753" style="fill:#222226;fill-opacity:1;fill-rule:nonzero;stroke:none"/>
    <path d="M 104.4865,545.27059 L 104.53927,555.90818 L 116.16885,557.83941 L 115.90503,513.98046 L 72.964205,506.83597 L 72.995865,550.66326 L 84.85762,552.6367 L 84.815407,541.99911 L 104.4865,545.27059 z M 104.31765,534.74909 L 84.498813,531.49871 L 84.498813,517.54743 L 104.35987,520.80836 L 104.31765,534.74909" id="path755" style="fill:#e5000b;fill-opacity:1;fill-rule:evenodd;stroke:none"/>
    <path d="M 104.4865,545.27059 L 104.53927,555.90818 L 116.16885,557.83941 L 115.90503,513.98046 L 72.964205,506.83597 L 72.995865,550.66326 L 84.85762,552.6367 L 84.815407,541.99911 L 104.4865,545.27059 z M 104.31765,534.74909 L 84.498813,531.49871 L 84.498813,517.54743 L 104.35987,520.80836 L 104.31765,534.74909 z" id="path757" style="fill:none;stroke:#ffffff;stroke-width:4.32679701;stroke-linecap:butt;stroke-linejoin:miter;stroke-miterlimit:7;stroke-dasharray:none;stroke-opacity:1"/>
    <path d="M 244.25259,481.38174 L 232.36973,485.66633 L 232.36973,502.26645 L 216.85658,507.85963 L 216.85658,491.2595 L 204.97372,495.54409 L 204.97372,539.70907 L 216.85658,535.42449 L 216.85658,518.10675 L 232.36973,512.51357 L 232.36973,529.83131 L 244.25259,525.53618 L 244.25259,481.38174 z" id="path759" style="fill:#e5000b;fill-opacity:1;fill-rule:nonzero;stroke:#ffffff;stroke-width:4.22126532;stroke-linecap:butt;stroke-linejoin:miter;stroke-miterlimit:7;stroke-dasharray:none;stroke-opacity:1"/>
    <path d="M 256.36763,486.98547 L 276.6297,479.28166 L 276.6297,469.62552 L 244.48476,481.84608 L 244.48476,526.01107 L 277.05182,513.62165 L 277.05182,503.96551 L 256.36763,511.82762 L 256.36763,503.23734 L 275.38442,495.99787 L 275.38442,487.81917 L 256.36763,495.04809 L 256.36763,486.98547 z" id="path761" style="fill:#e5000b;fill-opacity:1;fill-rule:nonzero;stroke:#ffffff;stroke-width:4.22126532;stroke-linecap:butt;stroke-linejoin:miter;stroke-miterlimit:7;stroke-dasharray:none;stroke-opacity:1"/>
    <path d="M 288.87137,465.01379 L 276.98851,469.29837 L 276.98851,513.4528 L 288.87137,509.16822 L 288.87137,465.01379 z" id="path763" style="fill:#e5000b;fill-opacity:1;fill-rule:nonzero;stroke:#ffffff;stroke-width:4.22126532;stroke-linecap:butt;stroke-linejoin:miter;stroke-miterlimit:7;stroke-dasharray:none;stroke-opacity:1"/>
    <path d="M 299.57227,471.59896 L 299.93108,471.46177 L 311.33905,501.21113 L 321.62839,497.49642 L 332.90972,459.56835 L 333.33184,459.42061 L 332.13934,493.70784 L 344.03275,489.42325 L 344.03275,445.25826 L 324.70991,452.22335 L 316.62619,482.86974 L 316.21461,483.02803 L 307.71932,458.35474 L 288.88192,465.15098 L 288.88192,509.30541 L 300.76478,505.02083 L 299.57227,471.59896 z" id="path765" style="fill:#e5000b;fill-opacity:1;fill-rule:nonzero;stroke:#ffffff;stroke-width:4.22126532;stroke-linecap:butt;stroke-linejoin:miter;stroke-miterlimit:7;stroke-dasharray:none;stroke-opacity:1"/>
    <path d="M 171.74181,515.38403 L 172.2167,515.24684 L 184.93326,545.10174 L 205.19534,539.14976 L 205.04759,495.43855 L 193.15418,498.93165 L 193.98788,532.2902 L 193.51299,532.42739 L 180.61702,502.62526 L 160.53435,508.52448 L 160.6821,552.23568 L 172.56496,548.74258 L 171.74181,515.38403 z" id="path767" style="fill:#e5000b;fill-opacity:1;fill-rule:nonzero;stroke:#ffffff;stroke-width:4.22126532;stroke-linecap:butt;stroke-linejoin:miter;stroke-miterlimit:7;stroke-dasharray:none;stroke-opacity:1"/>
    <path d="M 127.34465,522.67627 L 127.81955,522.6235 L 140.42002,555.12724 L 160.6821,552.85831 L 160.6821,508.69333 L 148.79923,510.03358 L 149.51685,543.86702 L 149.04196,543.91979 L 136.26208,511.43715 L 116.16885,513.68497 L 116.16885,557.83941 L 128.06227,556.50971 L 127.34465,522.67627 z" id="path769" style="fill:#e5000b;fill-opacity:1;fill-rule:nonzero;stroke:#ffffff;stroke-width:4.22126532;stroke-linecap:butt;stroke-linejoin:miter;stroke-miterlimit:7;stroke-dasharray:none;stroke-opacity:1"/>
    <path d="M 27.912753,497.42255 L 28.27156,497.58085 L 40.365485,536.39538 L 50.644266,540.86992 L 61.260748,511.93315 L 61.672321,512.11255 L 61.165769,545.44999 L 73.048631,550.62104 L 72.162165,506.46661 L 52.849877,498.05574 L 45.325471,522.27525 L 44.913898,522.09584 L 35.848731,490.65797 L 17.011335,482.45816 L 17.908354,526.62315 L 29.791216,531.7942 L 27.912753,497.42255 z" id="path771" style="fill:#e5000b;fill-opacity:1;fill-rule:nonzero;stroke:#ffffff;stroke-width:4.22126532;stroke-linecap:butt;stroke-linejoin:miter;stroke-miterlimit:7;stroke-dasharray:none;stroke-opacity:1"/>
    <path d="M 244.25259,481.30787 L 232.36973,485.59245 L 232.36973,502.20313 L 216.85658,507.79631 L 216.85658,491.18563 L 204.97372,495.47021 L 204.97372,539.6352 L 216.85658,535.35062 L 216.85658,518.03288 L 232.36973,512.4397 L 232.36973,529.75744 L 244.25259,525.47286 L 244.25259,481.30787 z M 256.36763,486.9116 L 276.6297,479.20779 L 276.6297,469.55165 L 244.47421,481.78276 L 244.47421,525.9372 L 277.04127,513.54778 L 277.04127,503.89164 L 256.36763,511.7643 L 256.36763,503.16347 L 275.38442,495.93455 L 275.38442,487.7453 L 256.36763,494.98477 L 256.36763,486.9116 z M 288.87137,464.93991 L 276.98851,469.2245 L 276.98851,513.38948 L 288.87137,509.1049 L 288.87137,464.93991 z M 299.57227,471.52509 L 299.93108,471.39845 L 311.33905,501.13726 L 321.61783,497.4331 L 332.90972,459.50503 L 333.33184,459.35729 L 332.13934,493.63396 L 344.0222,489.34938 L 344.0222,445.19495 L 324.70991,452.16003 L 316.62619,482.80642 L 316.21461,482.95416 L 307.70876,458.28087 L 288.87137,465.0771 L 288.87137,509.24209 L 300.76478,504.95751 L 299.57227,471.52509 z M 171.74181,515.31016 L 172.2167,515.17297 L 184.92271,545.03842 L 205.19534,539.07588 L 205.03704,495.37524 L 193.15418,498.86833 L 193.98788,532.21633 L 193.51299,532.36407 L 180.61702,502.55139 L 160.53435,508.46116 L 160.6821,552.16181 L 172.56496,548.66871 L 171.74181,515.31016 z M 127.11248,522.54963 L 127.58738,522.49686 L 140.18785,555.00061 L 160.44993,552.73168 L 160.44993,508.56669 L 148.56707,509.89639 L 149.27413,543.74038 L 148.79923,543.79315 L 136.01935,511.31051 L 115.93669,513.55834 L 115.93669,557.71277 L 127.81955,556.38307 L 127.11248,522.54963 z M 27.627817,497.48587 L 27.976071,497.63361 L 40.069996,536.4587 L 50.35933,540.93324 L 60.965259,511.98591 L 61.376832,512.17587 L 60.870281,545.51331 L 72.763695,550.68436 L 71.866676,506.51938 L 52.554388,498.11906 L 45.029983,522.32801 L 44.61841,522.14861 L 35.553243,490.72129 L 16.715847,482.52148 L 17.612865,526.68647 L 29.495727,531.85752 L 27.627817,497.48587 z" id="path773" style="fill:none;stroke:#222226;stroke-width:1.05531633;stroke-linecap:butt;stroke-linejoin:miter;stroke-miterlimit:3.86400008;stroke-dasharray:none;stroke-opacity:1"/>
    <path d="M 104.28599,545.23893 L 104.32821,555.87652 L 115.96834,557.80775 L 115.70452,513.9488 L 72.753142,506.80431 L 72.784802,550.6316 L 84.65711,552.60504 L 84.614897,541.96745 L 104.28599,545.23893 z M 104.31765,534.74909 L 84.498813,531.49871 L 84.287749,517.50522 L 104.15936,520.7767 L 104.31765,534.74909 z" id="path775" style="fill:none;stroke:#222226;stroke-width:1.03420997;stroke-linecap:butt;stroke-linejoin:miter;stroke-miterlimit:3.86400008;stroke-dasharray:none;stroke-opacity:1"/>
    <path d="M 160.81929,190.26219 L 160.43937,201.79679 L 172.17449,197.51221 L 173.7047,150.01242 L 130.38397,165.81051 L 128.61103,213.40527 L 140.57832,209.03626 L 140.97934,197.50166 L 160.81929,190.26219 z M 161.08312,178.93864 L 141.09543,186.26254 L 141.6653,171.11875 L 161.70575,163.76319 L 161.08312,178.93864" id="path777" style="fill:#e5000b;fill-opacity:1;fill-rule:evenodd;stroke:none"/>
    <path d="M 160.81929,190.26219 L 160.43937,201.79679 L 172.17449,197.51221 L 173.7047,150.01242 L 130.38397,165.81051 L 128.61103,213.40527 L 140.57832,209.03626 L 140.97934,197.50166 L 160.81929,190.26219 z M 161.08312,178.93864 L 141.09543,186.26254 L 141.6653,171.11875 L 161.70575,163.76319 L 161.08312,178.93864 z" id="path779" style="fill:none;stroke:#ffffff;stroke-width:4.48509455;stroke-linecap:butt;stroke-linejoin:miter;stroke-miterlimit:7;stroke-dasharray:none;stroke-opacity:1"/>
    <path d="M 160.61878,190.33606 L 160.22831,201.87067 L 171.96343,197.58608 L 173.50419,150.0863 L 130.18346,165.88438 L 128.41052,213.47915 L 140.37781,209.11014 L 140.76828,197.57553 L 160.61878,190.33606 z M 161.08312,178.93864 L 141.09543,186.26254 L 141.45423,171.19262 L 161.49469,163.83707 L 161.08312,178.93864 z" id="path781" style="fill:none;stroke:#222226;stroke-width:1.06586945;stroke-linecap:butt;stroke-linejoin:miter;stroke-miterlimit:3.86400008;stroke-dasharray:none;stroke-opacity:1"/>
    <path d="M 18.847585,218.81905 L 28.87309,214.9988 C 32.883292,213.46859 34.645671,214.04902 34.561245,220.1804 L 34.698436,233.08692 C 34.635117,238.07857 33.769758,241.70886 30.065598,244.66374 L 18.889798,252.32534 L 18.847585,218.81905 z M 7.2813188,275.19404 C 13.877046,264.99969 26.625267,257.77077 35.342179,251.14338 C 47.636614,242.31039 46.064193,238.55346 46.233043,225.60473 L 46.370235,215.68476 C 46.549638,202.21892 41.28361,199.32735 29.30577,203.89687 L 7.5240416,212.19166 L 7.2813188,275.19404" id="path783" style="fill:#e5000b;fill-opacity:1;fill-rule:evenodd;stroke:none"/>
    <path d="M 18.847585,218.81905 L 28.87309,214.9988 C 32.883292,213.46859 34.645671,214.04902 34.561245,220.1804 L 34.698436,233.08692 C 34.635117,238.07857 33.769758,241.70886 30.065598,244.66374 L 18.889798,252.32534 L 18.847585,218.81905 z M 7.2813188,275.19404 C 13.877046,264.99969 26.625267,257.77077 35.342179,251.14338 C 47.636614,242.31039 46.064193,238.55346 46.233043,225.60473 L 46.370235,215.68476 C 46.549638,202.21892 41.28361,199.32735 29.30577,203.89687 L 7.5240416,212.19166 L 7.2813188,275.19404 z" id="path785" style="fill:none;stroke:#ffffff;stroke-width:3.5880754;stroke-linecap:butt;stroke-linejoin:miter;stroke-miterlimit:3.86400008;stroke-dasharray:none;stroke-opacity:1"/>
    <path d="M 64.352824,190.90593 L 52.902642,195.26439 L 52.132262,243.83004 L 63.751294,238.25797 L 64.352824,190.90593 z" id="path787" style="fill:#e5000b;fill-opacity:1;fill-rule:nonzero;stroke:#ffffff;stroke-width:3.82024479;stroke-linecap:butt;stroke-linejoin:miter;stroke-miterlimit:3.86400008;stroke-dasharray:none;stroke-opacity:1"/>
    <path d="M 82.968604,193.99801 L 102.49196,186.55803 L 102.61859,176.20537 L 71.64506,188.00381 L 71.04353,235.3453 L 102.41808,223.39912 L 102.54472,213.04647 L 82.62035,220.63419 L 82.746987,211.42128 L 101.06728,204.44564 L 101.17281,195.66541 L 82.852519,202.64105 L 82.968604,193.99801 z" id="path789" style="fill:#e5000b;fill-opacity:1;fill-rule:nonzero;stroke:#ffffff;stroke-width:3.82024479;stroke-linecap:butt;stroke-linejoin:miter;stroke-miterlimit:3.86400008;stroke-dasharray:none;stroke-opacity:1"/>
    <path d="M 177.64103,195.58098 L 201.0585,187.03292 C 213.07855,182.6428 217.0782,175.1184 217.51088,162.12745 L 217.83803,152.17582 C 218.27071,138.67833 213.0891,135.68123 201.0585,140.07134 L 179.19234,148.04954 L 177.64103,195.58098 z M 190.33648,154.87743 L 200.41475,151.20493 C 204.43551,149.73804 206.17678,150.35012 205.97627,156.50262 L 205.64912,166.4437 C 205.49083,171.45645 203.83398,175.12895 199.58106,176.68027 L 189.50278,180.35277 L 190.33648,154.87743" id="path791" style="fill:#e5000b;fill-opacity:1;fill-rule:evenodd;stroke:none"/>
    <path d="M 177.64103,195.58098 L 201.0585,187.03292 C 213.07855,182.6428 217.0782,175.1184 217.51088,162.12745 L 217.83803,152.17582 C 218.27071,138.67833 213.0891,135.68123 201.0585,140.07134 L 179.19234,148.04954 L 177.64103,195.58098 z M 190.33648,154.87743 L 200.41475,151.20493 C 204.43551,149.73804 206.17678,150.35012 205.97627,156.50262 L 205.64912,166.4437 C 205.49083,171.45645 203.83398,175.12895 199.58106,176.68027 L 189.50278,180.35277 L 190.33648,154.87743 z" id="path793" style="fill:none;stroke:#ffffff;stroke-width:4.48509455;stroke-linecap:butt;stroke-linejoin:miter;stroke-miterlimit:7;stroke-dasharray:none;stroke-opacity:1"/>
    <path d="M 235.31406,127.5764 L 223.80056,131.77656 L 222.24925,179.308 L 251.76645,168.53322 L 252.12525,157.50517 L 234.111,164.07979 L 235.31406,127.5764 z" id="path795" style="fill:#e5000b;fill-opacity:1;fill-rule:nonzero;stroke:#ffffff;stroke-width:4.48509455;stroke-linecap:butt;stroke-linejoin:miter;stroke-miterlimit:7;stroke-dasharray:none;stroke-opacity:1"/>
    <path d="M 268.73593,125.65572 L 288.35426,118.49013 L 288.70252,108.09526 L 257.57069,119.46102 L 256.00882,166.99246 L 287.54167,155.47896 L 287.87937,145.09465 L 267.86002,152.39744 L 268.16606,143.14231 L 286.58133,136.4305 L 286.86627,127.61861 L 268.451,134.33042 L 268.73593,125.65572 z" id="path797" style="fill:#e5000b;fill-opacity:1;fill-rule:nonzero;stroke:#ffffff;stroke-width:4.48509455;stroke-linecap:butt;stroke-linejoin:miter;stroke-miterlimit:7;stroke-dasharray:none;stroke-opacity:1"/>
    <path d="M 306.61123,125.17028 L 307.03336,112.30597 L 315.95078,109.0556 C 319.74992,107.67313 320.68915,108.51739 320.55196,112.75976 C 320.37256,118.15242 320.47809,120.11531 315.52866,121.9199 L 306.61123,125.17028 z M 294.32735,153.00952 L 305.84085,148.80936 L 306.25243,136.19833 L 315.16985,132.94796 C 318.62073,131.68158 319.91877,133.5917 319.69716,137.17978 L 319.47554,143.83882 L 330.97849,139.63866 L 331.29508,130.06695 C 331.47449,124.68483 328.5196,122.94356 323.80234,124.47377 L 323.82344,123.96722 C 332.06546,118.89115 332.21321,114.26886 332.47704,106.34343 C 332.85695,94.492233 328.04471,93.932915 318.09308,97.373246 L 295.88922,105.47808 L 294.32735,153.00952" id="path799" style="fill:#e5000b;fill-opacity:1;fill-rule:evenodd;stroke:none"/>
    <path d="M 306.61123,125.17028 L 307.03336,112.30597 L 315.95078,109.0556 C 319.74992,107.67313 320.68915,108.51739 320.55196,112.75976 C 320.37256,118.15242 320.47809,120.11531 315.52866,121.9199 L 306.61123,125.17028 z M 294.32735,153.00952 L 305.84085,148.80936 L 306.25243,136.19833 L 315.16985,132.94796 C 318.62073,131.68158 319.91877,133.5917 319.69716,137.17978 L 319.47554,143.83882 L 330.97849,139.63866 L 331.29508,130.06695 C 331.47449,124.68483 328.5196,122.94356 323.80234,124.47377 L 323.82344,123.96722 C 332.06546,118.89115 332.21321,114.26886 332.47704,106.34343 C 332.85695,94.492233 328.04471,93.932915 318.09308,97.373246 L 295.88922,105.47808 L 294.32735,153.00952 z" id="path801" style="fill:none;stroke:#ffffff;stroke-width:4.48509455;stroke-linecap:butt;stroke-linejoin:miter;stroke-miterlimit:7;stroke-dasharray:none;stroke-opacity:1"/>
    <path d="M 177.64103,195.58098 L 201.0585,187.03292 C 213.07855,182.6428 217.0782,175.1184 217.51088,162.12745 L 217.83803,152.17582 C 218.27071,138.67833 213.0891,135.68123 201.0585,140.07134 L 179.19234,148.04954 L 177.64103,195.58098 z M 190.33648,154.87743 L 200.41475,151.20493 C 204.43551,149.73804 206.17678,150.35012 205.97627,156.50262 L 205.64912,166.4437 C 205.49083,171.45645 203.83398,175.12895 199.58106,176.68027 L 189.50278,180.35277 L 190.33648,154.87743 z M 235.31406,127.5764 L 223.80056,131.77656 L 222.24925,179.308 L 251.76645,168.53322 L 252.12525,157.50517 L 234.111,164.07979 L 235.31406,127.5764 z M 268.73593,125.65572 L 288.35426,118.49013 L 288.70252,108.09526 L 257.57069,119.46102 L 256.00882,166.99246 L 287.54167,155.47896 L 287.87937,145.09465 L 267.86002,152.39744 L 268.16606,143.14231 L 286.58133,136.4305 L 286.86627,127.61861 L 268.451,134.33042 L 268.73593,125.65572 z M 306.61123,125.17028 L 307.03336,112.30597 L 315.95078,109.0556 C 319.74992,107.67313 320.68915,108.51739 320.55196,112.75976 C 320.37256,118.15242 320.47809,120.11531 315.52866,121.9199 L 306.61123,125.17028 z M 294.32735,153.00952 L 305.84085,148.80936 L 306.25243,136.19833 L 315.16985,132.94796 C 318.62073,131.68158 319.91877,133.5917 319.69716,137.17978 L 319.47554,143.83882 L 330.97849,139.63866 L 331.29508,130.06695 C 331.47449,124.68483 328.5196,122.94356 323.80234,124.47377 L 323.82344,123.96722 C 332.06546,118.89115 332.21321,114.26886 332.47704,106.34343 C 332.85695,94.492233 328.04471,93.932915 318.09308,97.373246 L 295.88922,105.47808 L 294.32735,153.00952 z M 64.395037,190.8004 L 52.934302,195.16941 L 52.142815,243.76672 L 63.761847,238.19465 L 64.395037,190.8004 z M 82.810306,194.09299 L 102.34421,186.64245 L 102.49196,176.27925 L 71.486763,188.09879 L 70.853573,235.49304 L 102.25979,223.5152 L 102.39698,213.152 L 82.451499,220.76083 L 82.578137,211.53736 L 100.90898,204.54062 L 101.03562,195.76038 L 82.694222,202.74658 L 82.810306,194.09299 z M 18.847585,218.81905 L 28.87309,214.9988 C 32.883292,213.46859 34.645671,214.04902 34.561245,220.1804 L 34.698436,233.08692 C 34.635117,238.07857 33.769758,241.70886 30.065598,244.66374 L 18.889798,252.32534 L 18.847585,218.81905 z M 7.2813188,275.19404 C 13.877046,264.99969 26.625267,257.77077 35.342179,251.14338 C 47.636614,242.31039 46.064193,238.55346 46.233043,225.60473 L 46.370235,215.68476 C 46.549638,202.21892 41.28361,199.32735 29.30577,203.89687 L 7.5240416,212.19166 L 7.2813188,275.19404 z" id="path803" style="fill:none;stroke:#222226;stroke-width:1.06586945;stroke-linecap:butt;stroke-linejoin:miter;stroke-miterlimit:3.86400008;stroke-dasharray:none;stroke-opacity:1"/>
  </g>
</svg>