<svg xmlns="http://www.w3.org/2000/svg" xmlns:xlink="http://www.w3.org/1999/xlink" version="1.1" id="Layer_1" x="0px" y="0px" viewBox="0.0 0.0 508.0 508.0" style="enable-background:new 0 0 508 508;" xml:space="preserve" width="316.22776601683796" height="316.22776601683796">
<style type="text/css">
	.st0{fill:#002E1B;}
	.st1{fill:#00512F;}
	.st2{fill:#FFFFFF;}
	.st3{fill:#939BA1;}
	.st4{fill:#000018;}
	.st5{fill:#008A5F;}
</style>
<g>
	<g>
		<path class="st0" d="M127.5,127.9c15.5,26.6-22.7,60-22.7,60l-4.3-0.9C137.2,152.2,129,131,127.5,127.9c-0.1-0.1-0.1-0.2-0.2-0.3    C127.4,127.7,127.4,127.8,127.5,127.9z M84.9,248.8c-2.2,2.1-2.8,4.7-2.8,4.7c2,2.2,6.2,3.5,6.2,3.5c-1.1-2.1-2-4.9-2-4.9    c2.8-1.7,10.3-4.2,10.3-4.2C88.9,246.8,84.9,248.8,84.9,248.8z M276.1,91.9c-5.5,2.1-10.6,3.2-10.6,3.2c0.5,5.1-5.4,9.4-5.4,9.4    C270.5,101.9,276.1,91.9,276.1,91.9z M48,227.9c8.3,5.5,4.1,16.5,4.1,16.5c7.4-11.5,1.9-18.2,1.9-18.2    C50.7,227.1,48,227.9,48,227.9z M369.5,345.4l8.5-2c-0.1-1.8-0.2-3.8-0.3-5.8c-1.1-19.2-4.7-47.7-15.5-72.9    c0,0,10.2,29.2,7.7,74.8C369.8,341.4,369.7,343.4,369.5,345.4z M228.4,305.4c-4,0.2-8.2,0.6-12.5,1.2c0,0,10.5-1,25.6,1.4    c1,0.2,2.1,0.4,3.2,0.6c5.4,1,11.3,2.5,17.5,4.6c3.5,1.2,7,2.6,10.6,4.2l9.4-2.3l1.5-0.3c-3.3-1.6-6.8-3-10.4-4.2    C260.7,306.4,246,304.4,228.4,305.4z M270.5,194.5c0,0-7.8,22.4-29.6,40.2c-11.7,4.7-24.1,7.4-41.1,10.2c0,0,23.1,1.5,43.2-4.6    C255,231.7,265.9,218,270.5,194.5z"/>
		<path class="st1" d="M249.6,129.3l5.3-2.8c-6.6-8.5-17-19-31.5-24.6C230.3,106.7,241.7,116.1,249.6,129.3z M251.3,132.2    c1.3,2.5,2.5,5.1,3.5,7.9c1.3-1,2.8-1.8,4.4-2.2c0.8-0.2,1.7-0.3,2.5-0.2c0.2,0,0.3,0,0.5,0c-1-1.9-2.8-5-5.4-8.5L251.3,132.2z     M141.9,237.5c2.1,3,3.9,5.7,5.4,8.1c1.2-0.9,2.5-1.5,3.9-1.8c0.8-0.2,1.7-0.3,2.5-0.2c0.6,0,1.2,0.1,1.8,0.2l0.3-0.2    c0,0-2.4-4.8-7.1-11.5L141.9,237.5z M146.8,229.3c-6-8.2-15-18.5-26.8-26.5c-11-7.5-19.4-10.1-25.2-10.8c-6.7-0.8-10,0.9-10,0.9    l-6.8,5.4c0.7-0.2,1.5-0.3,2.5-0.4c5.5-0.5,15.5,0.6,30.4,9.9c13.2,8.2,22.5,18.3,29,27L146.8,229.3z M146.8,229.3L146.8,229.3    c0,0.1,0.1,0.1,0.1,0.1C146.9,229.4,146.8,229.4,146.8,229.3z M280.8,143.6C280.8,143.6,280.8,143.6,280.8,143.6    C280.8,143.6,280.8,143.6,280.8,143.6L280.8,143.6z M280.8,143.6c0.2-0.7,0.4-1.5,0.7-2.3C281.3,142.1,281,142.9,280.8,143.6z     M272.3,143.6c2.2,2.7,3.9,6.2,4.8,10.2c0.5-1.1,2.1-4.9,3.7-10.2l-3.5-7.9C275.8,138.5,274.1,141.2,272.3,143.6z M284.4,119.5    c-0.9,2.7-2.7,7.4-5.2,12.4l3,6.7C283.6,132.9,284.7,126.2,284.4,119.5z M282.2,138.6L282.2,138.6    C282.2,138.6,282.2,138.7,282.2,138.6C282.2,138.7,282.2,138.6,282.2,138.6z M167.6,236.9l5.8,8.9c24.2-27.4,43.1-27.5,73.8-59.7    l-7.1-10.8C210,208.4,190.4,211.6,167.6,236.9z M249.6,183.7L249.6,183.7c-0.8,0.8-1.5,1.6-2.3,2.4    C248,185.3,248.8,184.5,249.6,183.7z M255.5,171.3c-2-2.2-3.7-5.1-4.8-8.3c-2.8,3.5-5.6,6.8-8.2,9.8l7.1,10.9    c2.8-3,5.7-6.3,8.7-9.9C257.2,173.1,256.3,172.3,255.5,171.3z M247.2,186.1C247.2,186.1,247.3,186.1,247.2,186.1    C247.3,186.1,247.2,186.1,247.2,186.1L247.2,186.1z M165.3,239.5c-1.7,1.9-3.4,4-5.1,6.2c1.1,0.8,2.2,1.7,3.2,2.7    c0.9,1,1.8,2.2,2.5,3.5c0.3,0.6,0.7,1.1,1,1.7c1.4-1.9,2.9-3.6,4.3-5.3l-0.4-0.6L165.3,239.5z M275.8,26.9    c-0.2-0.4-0.4-0.8-0.6-1.2c-0.1-0.2-0.2-0.4-0.3-0.6c0,0-0.3,1.1-1.1,2.9c-1.7,3.8-5.9,10.3-14.8,13.6c-13,4.8-25.4,0.8-36.1,15.6    c0,0,0,0,0,0c-2.6,4.6-3.7,8-3.7,8c-0.7-10.8,1.2-17.2,5-21.8c-8.3,3.8-18.5,11.1-24.8,24.9c-0.2,0.5-0.9,2.3-1.2,5.1    c-5.4-7.9-1.8-16.3,0-19.6c0,0,0,0,0-0.1c0,0-7.5,6.4-7.4,17.8c0.2,5.4,4.2,10.2,4.2,10.2c-10.1-8.9-19.7-6.5-27.6-17.8    c-3.9-5.5-3.7-10.8-3.4-13c-0.1,0.2-0.2,0.5-0.4,0.8c-0.1,0.3-0.2,0.6-0.4,1c0,0.1-0.1,0.2-0.1,0.3c-0.1,0.4-0.3,0.8-0.4,1.2    c0,0,0,0.1,0,0.1c-1.3,4.6-2.2,12.9,4.3,22.1c0.8,1.2,1.8,2.3,2.8,3.5c0,0,0,0-0.1,0c4.4,4.3,9,7.8,9,7.7    c-5.5-2.7-10.8-3.2-13.9-3.9c-9.2-2.2-13.4-4.2-15.9-7.2c-0.7-0.8-1.2-1.6-1.7-2.6c0.2,1.7,1,5.7,3.2,9.6c1.9,3.3,4.9,6.5,9.5,7.9    c11.7,3.6,19,4.5,25.1,11.7c0,0,0.2-8.1-3.3-13.7c0,0,9.1,4.3,12.6,11.4l6.7-2.9c-1.6-9.2,1.6-20,9.1-28.3c1.4-2.2,3-4.3,5.1-6.3    c0,0-4.3,8-2,19.6c0,0,3.1-7.6,11-14.1c7.9-6.4,25.7-11.1,33.2-17.2c0,0-8.7,9.7-18.8,16.8c-10.1,7.1-12.2,20-9.9,25.5    c0,0,4.1,0.5,7.7,1.1c0,0,4.5-10.7,11.9-17.5c0,0,1.5-0.1,4.9-0.4c8.3-7,13.1-12.1,16.1-21.2c-0.5,9.3-4,16-4,16    C280.6,53,278.1,35,275.8,26.9z M290.1,62.9c0-0.1,0-0.1,0.1-0.2c0,0-5.6,4.3-14.5,6.6c-1.7,2.9-3.5,5.2-5,6.9    c2.7-0.2,5-0.6,7-0.9C283.5,71.2,287.9,66,290.1,62.9z M459.4,172.3c0.1-0.1,0.3-0.1,0.4-0.2c-0.4,0-11.1,0.8-20.2-5.2    c-14-9.4-16.3-22.5-33.5-30.4c-16.2-7.4-32.1-5.8-32.1-5.8c5.9-3.3,10.7-7.9,12.6-9.7c0.5-0.5,0.8-0.9,0.8-0.9    c-1.7,0.6-3.5,1.1-5.2,1.5c-6.2,1.4-12.3,1.5-17.2,1.2c-0.8,0-1.5-0.1-2.2-0.2c-4.4-0.4-7.2-1.1-7.2-1.1c0,0,0.1,0,0.1-0.1    c-7.4-1.2-17-4.1-17.3-4.1c26.5-4.6,40.2-19.4,45.4-26.5c-1.6,0.9-11.2,6-25.7,5.4c-15.9-0.7-27.5-10.6-37.2-11.6    c-9.7-1-13.9,1.9-13.9,1.9s-2.1,5.4-4.2,8.8c15.1-8.3,36.4,11.6,56.1,8.4c-21.1,8.6-36.7-1.2-49.2,2.9c-2.1,0.7-4.2,1.6-6,2.6    c7.7-1,16.6,0.7,26.2,5.5c-11.7-2.5-28.7-2.4-35.1,9.4l-5.5-3.4c0,0,0,0,0,0c0.7,2.7,1.1,5.8,1.4,8.8c3.1,1.9,7.5,4.9,11,8.3    c0,0-3.5-0.7-8.2-0.8c4.3,1.9,11.1,5.6,16,11.3c0,0-7.3-3.5-18.8-3.8c0,0,0,0,0,0c16.8,4.7,29.9,15.4,29.9,15.4    c-8.5-15.1-20.5-32.5-20.5-32.5c1.2,0.6,2.3,1.2,3.5,1.9c5.4-2.7,8.6-4,19.3-3.5c0,0-4.8,1.2-8.7,4.5c11.3-2.2,24.4-0.8,33.9,1.5    c0,0,0,0-0.1,0c2.3,0.1,4.6,0.3,7.1,0.6c0,0-20.8,2.4-29.7,10c1.1,0.7,2.2,1.5,3.2,2.2c15.3-5.8,49.2-9.1,67.7,4.4    c10.6,4.2,17.3,10.3,20.5,14c0,0-20-13.7-48.5-4.5c0,0,15.9,0.4,27.3,8.7c0,0-20.5-4.8-31.7,5c11.9,10.6,22.1,21,30.5,30.3    c7.1-0.1,28.6,0.8,44.4,15.7c0,0-16.6-7.9-33.3-2.9c1.6,1.9,3,3.7,4.3,5.4c8.5-2.1,19.5-0.6,25.4,2.4c0,0-8.2-1.6-16.8,2.8    c17.2-1.7,34.3,5.6,40.9,12.5c-8-25.5-34.8-36.4-34.8-36.4c0.1,0,0.2,0,0.3,0c-0.1,0-0.1,0-0.2-0.1c-9.3-4.1-20.4-12-20.4-12    c26.3,9.1,38,8,43.1,5.6l0,0c0,0,0,0,0,0c-3-0.1-5.6-0.6-7.9-1.2c-1.2-0.3-2.4-0.8-3.4-1.2c-4.3-1.8-7.1-4.4-10.1-6.7    c-0.9-0.7-1.8-1.4-2.8-2c-0.1-0.1-0.2-0.2-0.4-0.2h0c-8.2-5.2-16.4-8.4-35.9-8.2c18.1-8,33.7,2.9,46.9,2.1    c-3.4-1.5-6.7-3.7-9.6-6.8C424.1,171.3,438.4,177.4,459.4,172.3z M140.7,256.2l-8.7-0.9c0,0,5.3,1.6,8.8,6.1    C140,259.2,140.7,256.2,140.7,256.2z M116.7,377.6l0-0.6l0-7.6l0-1.6l0-0.4l0-2.8l-1.6-3.3l-0.6,0.2l-0.9,0.2l-8.8,2.1l-0.1,0    l-2,0.5l-2.5,0.6l0.5,1.2l0.7,1.6l0.1,0.3l0.1,0.3l0,2.1l0,0.7l0,0l0,7.8l0,1.8l0,1.6l0,4.5l0,0.5l3.1-0.7l0,0l10.5-2.5l0.7-1.9    l0.7-1.9l0,0v0l0-2.3V377.6z M113.1,381.4l-2.7,0.6l-5.7,1.4l0,0l-0.2,0.1l0-2.9l0-0.7l0,0v-0.1l0-9.4l0-0.7l0-2l-0.3-0.8l0.6-0.1    l0,0l8.8-2.1l0.1,0.2l0.2,0.5l0,2.9l0,3.7l0,4.7l0,1.2l0,0.2l0,0.5l0,1.1L113.1,381.4z M223.3,351l0.1,9.6l0.2,27.9l0.3,0.6    l0.6,1.3l1.3,2.6l2.8,5.8l1.4-0.3l0.8-0.2l13.3-3.2l1.4-0.3l0.1,0l2.2-0.5l13.8-3.3v0l5.9-1.4l0.1,0l1.5-0.4l0.1,0l1.3-0.3    l0.4-0.1l1.8-0.4l3.7-0.9l7.9-1.9l0.8-0.2l0,0l7.6-1.8l1.8-0.4l0.4-0.1l6.6-1.6l6.4-1.5l2.3-0.6l0.5-0.1l1.1-0.3l-0.5-1.1l-1-2.1    h0v0l-0.3-0.6l-0.2-0.3l-0.8-1.6l0,0l-2.2-4.7l0-4.2l0-2.4l0-2.4l0-4.8l0.3-0.2l1.8-1.4l0.8-0.7l0,0l1.2-0.9l1-0.8l1.8-1.4    l4.8-3.8l-2.2-0.7l-6.7-2.1l-0.1,0l-0.3-0.1l-2.2-0.7l-0.4-0.1l0-0.3l0-2.1l0-3l0-1.3l0-3.9l0-1.1l0-0.6l0.2-0.6l1.5-3.8l0.4-0.9    l3.6-8.9l-7.7,1.8l-0.1,0l-1.5,0.4l-1.4,0.3l-9.1,2.2l-3.1,0.7l-0.8,0.2l0,0l-6.5,1.6l-1.2,0.3l-1.6,0.4l-0.1,0l-1.2,0.3l-0.3,0.1    l-5.5,1.3l-0.3,0.1l-1.7,0.4l-4.4,1l-4.1,1l0.5,0.9l1.7,3.5l0,0l2.9,6l0,3l0,3.9l0.1,22l0,2.6l0,0.7l0,7l-1.6,4.2l-0.4,0.9    l-0.3,0.8l-0.4,1.1l-0.1,0.2l-2,5l-1.9-4.1l-0.1-0.1l-2.1-4.6l0-3.8l0-7l1.8-5l0.1-0.3l0.3-0.8l2.9-7.9l-6,1.4l-2.1,0.5l-1.4,0.3    l-0.3,0.1l-0.3,0.1l-11,2.6l-0.4,0.1l-1,0.3l-0.7,0.2l0-7.9l0-0.8l0-3.6l0-0.5l0.2-0.5l0.1-0.3l2.8-0.7l0.6-0.2l4.5-1.1l5,1.8    l3,1.1l2.4,0.9l0-1.4l0-4l0-1.3l0-5.4l0-4.1l0-3.5v0l0-0.8l0-0.7l-0.3,0.1h0l-0.9,0.2l-9.1,2.2l-5,1.2l-3.8,0.9l-0.1,0l-0.3,0.1    l-11.7,2.8l-4.3,11.4L223.3,351z M288.8,376.2l-0.8,2l0,0l-1.2,3l-0.4-0.9l-0.7-1.6l0,0l-2.1-4.7l-0.1-8.9l0-4.8l2.9-0.7l1.4-0.3    l2.9-0.7l0,4.8l0,0.7l0.1,7l-1.7,4.4L288.8,376.2z M285.1,330.6l0.4-0.9l0.9-2.3l0.9-2.2l0.1-0.2l0.2,0.4l0.2,0.4l1.9,3.9l0.2,0.3    l0.2,0.4l0.8,1.6l0,1.7l0,4.7l0,0.5l0,4.3l0,0.5l-0.9,0.2l-1.7,0.4l-0.3,0.1l-1.4,0.3l-2.9,0.7l0-3.5l0-1.1l0-0.2v-0.1l0-3.9    l0-1.7l0.6-1.5l0.9-2.2L285.1,330.6z M266.4,386.6l0.1-0.1l0.8-1.9l0.6-1.5l2.2-5.8l0,0l0-8.2l0-0.7l0-0.9l-0.1-22.4l0-1.3l0-3.9    l0-2.9l-2.3-4.7l-0.8-1.5l-0.2-0.5l-0.5-1l6.3-1.5l1-0.2l0.8-0.2l2.4-0.6l5.8-1.4l0.4-0.1l1.4-0.3l-0.4,0.9l-0.5,1.3l-1.8,4.6    l-0.1,0.2l-0.9,2.4l0,2.2l0,0.7l0,1.2l0,2.7l0,1.3l0,3.4l0,2.5l0,0.1l0,0.5l5.7-1.4l1.4-0.3l0,0l3-0.7l2.8-0.7l0,0l0-5v-0.1l0-1.3    l0-1.3l0-5.5l0-1.4l-1.3-2.6l-1-2.1l-1.5-3.1l6.2-1.5l7.6-1.8l2.4-0.6l1.8-0.4l-0.9,2.3l-2.8,7l-0.1,0.3l0,2.2l0,4.6l0,0l0,1.3    l0,1.6l0,3.5l0,1.8l2.6,0.8l3.2,1l0.1,0l1.3,0.4l1.5,0.5l-0.5,0.4l-0.2,0.1l-1.8,1.5l-0.3,0.2l0,0l-4.5,3.6l-1.2,1l0,2.8l0,4    l0,0.4l0,0.4l0,0.5l0,7.7l2.2,4.7l0,0l1.4,3l0,0v0l-0.6,0.2l-6.8,1.6l-8.9,2.1l-1.6,0.4l1.5-3.7l0,0l2.2-5.8l0,0l-0.1-8.2l0-0.7    l0-5.1l0-2.6l0,0l-4.7,1.1l-1.1,0.3l-1.4,0.3l-5.8,1.4l0,3.4l0,4.3l0,1.6l0.1,7.3l2.2,4.7l0,0l1.4,3.1l-0.6,0.1l-8.3,2l-3.8,0.9    l-1,0.2l-2.6,0.6l-1.5,0.4L266.4,386.6L266.4,386.6L266.4,386.6z M241.2,366.9l1.5,3.1l0.8,1.7l0,3.7l0.1,4.1l0,0.7l-0.9,0.2    l-1.9,0.4l-0.4,0.1l0-4.8l0-9.1l0-1.9L241.2,366.9z M229.8,337.8l8.7-2.1l1.2-0.3l4.5-1.1l5.7-1.4l6.2-1.5l0,0l0,2.7l0,8.9l0,1.9    l0,0l-2.5-0.9l-0.6-0.2l-0.7-0.2l-3.6-1.3l-0.9,0.2l-3.3,0.8l-4.7,1.1l-1.3,0.3l-1,2.7v0.1l0,2.1l0,3.1l0.1,14.9l0,9.1l0,3.6l0,2    l0.7,1.5l0.2,0.5l0.6-0.2l3.5-0.8l3.8-0.9l0.3-0.1l0.3-0.1l-0.7-1.7l0-0.1l0-1.1l0-0.4l0-0.8l0-3.4l0-3.7l-2.2-4.8l-1.4-3.1    l9.3-2.2l1.6-0.4l0.3-0.1l5-1.2l0.2,0l-0.1,0.2l-1.3,3.5l-2.1,5.7l0,2.2l0,2.6l0,3.4l0,3.8l2.1,4.6l0.1,0.1l1.4,3.1l-0.6,0.1    l-11.5,2.8l-0.3,0.1l-3.8,0.9l-11.7,2.8l-1.1,0.3l-0.2-0.5l-1.3-2.7l-1-2l-1.2-2.5v0l0-8.1l0-0.1l-0.1-12.7l-0.1-16.5l0-0.7l0-2.2    L229.8,337.8z M161.9,397.9l0-3l-0.1-14.9l0-9.1l0-1.9l0-1.2l0-2l-1-2.4l-0.6,0.1l-2.2,0.5l-1.3,0.3l-4.7,1.1l-0.1,0.4l-0.6,1.6    l-0.3,0.7l0,2.2l0,0l0,3l0.1,14.9l0,8.3l0,0.7l0,1.9l0,1.2l0,0.5l0,2l0.7,1.5l0.2,0.5l3.1-0.8l1-0.2l4.1-1l0.7-0.2l0.2-0.5    l0.7-1.9l0,0v0l0-0.2L161.9,397.9z M158.9,400.5l-0.3,0.1l-2.3,0.5l-0.2,0l-0.7,0.2l-0.9,0.2l-0.4,0.1l0-1.1v-0.1l0-2.7l0-0.9    l0-9.1l-0.1-14.2l0-0.7l0-3.6l0-0.5l0.3-0.8l2.5-0.6l0.2-0.1l0.6-0.2l1.3-0.3l0,0.3l0,0.9l0,3.6l0,9.1l0.1,13.6l0,1.3l0,3.7l0,0.2    l0,0.5L158.9,400.5z M319.8,413.3l0-9.1l0-2.2l0-2.9l-1.2-2.4l-0.7,0.2l-3.3,0.8l-0.6,0.1l-5.5,1.3l-0.6,0.2l1.1,2l0,0.5l0,0.7    l0,1.3l0,1.1l0,2l0.1,14.9l0,7.8l0,1.2l0,1.5l0,1.5l0,2.8l0,0l-0.8,2.1l4.9-1.2l1-0.2l4.8-1.1l0.2-0.5l0.7-1.9l0,0l0-5.6    L319.8,413.3z M316.8,433.8l-0.3,0.1l-2.3,0.5l-0.1,0l-0.9,0.2l-1.4,0.3l0-1.1l0-0.4l0-2.7l0-0.6l0-9.1l0-5.9l0-9.1l0-2.8l0-2    l2.2-0.5l0.6-0.1l2.3-0.6l0,0.5l0,4.3l0,9.1l0.1,14l0,0.9l0,3.8l0,0.6L316.8,433.8z M214.5,400.8l2.2-5.6l1.7-4.2l0-0.6v0    l-0.2-32.9l0-7.1l2-5.1l0.3-0.8l3.2-8.1l-4.2,1l-2.2,0.5l-3,0.7l0,0l-2.6,0.6l-8.8,2.1l-2.1,0.5l-5.7,1.4l-1,0.2l-2,0.5l-7.5,1.8    l-0.4,0.1l-3.6,0.9l-4.7,1.1l2.7,5.6l2.3,4.7l0.2,40.4l5,10.3l1.4-0.3l5.8-1.4l20.4-4.9L214.5,400.8z M199.4,351.8l0.6-1.7    l0.8-2.1l2.3,4.8l0.1,30.8l0,1.9l0,2.6l0,0.7l0,0.5l-0.2,0.4l-0.3,0.1l-2.2,0.5l-0.2,0l-0.1,0l-2.2,0.5V391l0-1l0-0.2l0-2.7l0-0.8    l0-9.1l-0.1-14.9l0-7l0.9-2.4L199.4,351.8z M212.8,397.3l-1,2.6l-19.5,4.7l-3.2,0.8l-1.1,0.3l-0.2-0.5l-3.5-7.2l0-8.1l0-0.1    l-0.1-24l0-8.1l-2.3-4.7l-1.5-3.1l5.4-1.3l0.4-0.1l10.5-2.5l2.4-0.6l-1.2,3l-2.5,6.5l0,2.2l0,5.9l0.1,14.9l0,8.2l0,0.9l0,1.8    l0,1.2l0,0.1l0,2.5l0.8,1.5l0.2,0.5l4.2-1l4-1l0.9-0.2l0.7-1.9l0.2-0.5l0,0l0-0.8l0-2.4l0-0.1l-0.1-26.4l0-8.1l-2.3-4.7l-1.5-3.1    l8.2-2l7.7-1.9l0.4-0.1l0.4-0.1l-0.2,0.5l-3.5,8.9l0,2.2l0,6l0.2,32.2v0l0,0l-0.7,1.9l-1.4,3.6L212.8,397.3z M269.2,474.1l-1-1.9    l-1.8-3.6l-2.9-5.8l0-10.1l0-3.5l-0.3-0.6l-2.2-4.1l-0.5-1l-0.7-1.2l-3.3-1.2l2.9-2.5l1.2-1l2.9-7.6l0-0.7l0-14.6l0-3.6l-2.9-6    l0,0l-2.8-5.8l-1.2,0.3l-5.2,1.3l-8.5,2l-10.1,2.4l-3.1,0.7l-2.7,0.6l-0.4,0.1l-8,1.9l-8.1,2l2.8,5.8l3,6.1l0,2.9l0,8.7l0,1.4    l0,3.1l0,4l-0.2,0.1l0,0l-1.6,1.2l-2.4,1.9l0,0l-7.6,6l5.2,1.7l4,1.3l1,0.3l1.5,0.5l0,0l0.2,0.1l0,2.5l0,2.3l0,1.5l0,8l0,2.9    l-2.7,6.9l-3.5,9l9.4-2.2l13.4-3.2l2.5-0.6l0-3.6l0-2.1l0-8.8l0-10.8l0-0.1l0-3.5l0.2,0l0,0l0.2,0l8.7-2.1l0.1,0l0.2,0.4l0,0.7    l0,2.4l0,1.9l0,10.3l1.7,3.5l2.5,5l1.4,2.8l0.2,0.4l3.1-0.7l15.9-3.8L269.2,474.1L269.2,474.1z M264.5,472.6l-12.6,3l-0.2-0.5    l-2.9-5.9l-1.1-2.2l-0.2-0.5l0-9.5l0-2.6v-0.1l0-3.1l-0.7-1.4l-0.8-1.7l-0.6,0.2l-9.9,2.4l0,0l-2.3,0.6l-0.7,0.2l0,1l0,2.4v0    l0,2.9l0,0.2l0,8.9l0,6.2l0,7.2l0,0l-17.7,4.2l4.4-11.2l0,0l0-2.5l0-9v-0.2l0-0.4l0-7.7l0,0l0,0l-0.1,0L217,453l-1-0.3l0,0    l-0.4-0.1l-2.7-0.9l-2.5-0.8l3.6-2.8l2-1.6l0,0l3-2.4l0,0l0,0l0,0l0-6.1l0-1.5l0-4.9l0-3.2l0-2l0-4.5l-3-6.1l0-0.1l-1.5-3.1    l5.3-1.3l5.8-1.4l5.3-1.3l2.5-0.6l8.1-2l11-2.6l3-0.7l0.6-0.2l1.5,3.2v0l2.9,6l0,16.4l0,1.2l0,0l-2.4,6.4l0,0l-1.9,1.6l-3.6,3.1    l-1.7,1.4l2.3,0.9l3,1.1l1.6,0.6l1.9,3.4l1.1,1.9l0,3.6l0,3.3l0,6.6v0l3.1,6.4l1.3,2.7L264.5,472.6z M133,408.6l0-10.1l0-3.5    l-0.3-0.6l-2.2-4.1l-0.5-1l-0.7-1.2l-3.3-1.2l2.9-2.5l1.2-1l2.9-7.6l0-0.7l0-14.6l0-3.5l-3.6-7.3l-2.2-4.5l-1.2,0.3l-26.9,6.5    l-3.1,0.7l-16.1,3.9l5.8,11.8l0,3l0,8.6l0,1.5l0,3l0,4l-0.2,0.1l0,0l-1.6,1.2l-2.4,1.9l0,0l-7.6,6l5.2,1.7l4,1.3l1,0.3l1.5,0.5    l0,0l0.2,0.1l0,2.5l0,2.3l0,1.4l0,8l0,2.8l-2.7,6.9l-3.5,9l9.4-2.2l13.4-3.2l2.5-0.6l0-3.6l0-2.1l0-8.7l0-10.8v-0.1l0-3.5l0.2,0    l0,0l0.2,0l8.7-2.1l0.1,0l0.2,0.4l0,0.7l0,2.4l0,1.9l0,10.3l4.2,8.5l1.6,3.1l3.1-0.7l5.8-1.4l10.1-2.4l-2.9-5.9L133,408.6z     M134,418.5l-6.6,1.6l-6.1,1.5l-0.2-0.5l-2.9-5.9l-1.3-2.7l0-9.5l0-2.6v-0.1l0-3.1l-0.7-1.4l-0.8-1.7l-0.6,0.2l-9.9,2.4l0,0    l-2.3,0.6l-0.7,0.2l0,1l0,2.4v0l0,2.9v0.2l0,9l0,6.2l0,7.2l0,0l-17.7,4.2l4.4-11.2l0,0l0-2.5l0-9v-0.2l0-0.4l0-7.6l0,0l0,0l-0.1,0    l-1.8-0.6l-1-0.3l0,0l-0.4-0.1l-2.7-0.9l-2.5-0.8l3.5-2.8l2.1-1.6l0,0l3-2.4l0,0l0,0l0,0l0-6.1l0-1.4l0-5l0-3.1l0-2l0-4.6l-3-6.2    l-1.5-3.1l16.3-3.9l24.6-5.9l0.6-0.2l2.4,4.8l2.1,4.3l0,16.4l0,1.2l0,0l-2.4,6.4l-0.1,0l-4,3.4l-1.5,1.3l-1.7,1.4l2.3,0.9l0.9,0.3    l3.7,1.4l1.9,3.4l1.1,1.9l0,3.6l0,3.3l0,6.6v0l3.1,6.4l1.3,2.7L134,418.5z M400.8,376.3l-2.6,0.6l-0.2,0l-0.4,0.1l-0.2,0l-5.9,1.4    l-0.7,0.2l1,2v0l0,1.1l0,0.8l0,1l0,2.2l0,1.1l0,0.7l0,0.2l0,0.8l0,1.1l0,4.4l0,0.5l2.7-0.6l3.2-0.8l0,0l4.1-1l0.9-2.5l0,0l0-1.7    l0-3v-0.7l0-3.5l0-1.5l0-0.9v0l-1.1-2.4L400.8,376.3z M399.7,379.9l0,1.5l0,2.8l0,0.9v0.7l0,1.3l0,1.7l0,0.5l-0.2,0.5l0,0.1    l-1.9,0.5l0,0l-0.8,0.2l-2.2,0.5l0-1.2v-0.1l0-2.8v-0.1l0-0.7l0-0.7l0-3.2l0-1.6l3-0.7l0,0l0.7-0.2l0.4-0.1l1.1-0.3V379.9z     M458.3,387.9l0-0.3L458,387v0l-3.6-7.6l-0.7-1.4l-11.8-1.9l-0.3,0l-1.5-0.2l-1.2-0.2l-1.3-0.2l0-0.7l0-2.9l0.3-0.8l2.8-0.7    l2.8-0.7l3.1-0.7l1.6,0.6l2,0.8l4.2,1.6l2.4,0.9l0-1.5l0-4l0-2.5l0-3.7l0-8.8l0-0.7l-1.1,0.3l-14.2,3.4l-3.9,0.9l-5.8,1.4    l-4.7,1.1l-0.5,1.4l-3.1,8.1l-0.8,2l0.1,14.3l0,0.5l1.6,3.3l2.5,5l0.6,1.2l1.6,0.3l0.2,0l0,0l9.9,1.7l0.2,0l2.1,0.3l1.7,0.3    l0.3,0.1l0.1,0.1l0,0.9l0,0.5l0,0.1l0,3.3l0,0.6l-0.2,0.6l-0.1,0.3l-2.4,0.6l-3.2,0.8l-4.4,1.1l-2-0.7l-6-2.2l-0.1,0l-2.3-0.9    l0,1.5l0,1.3l0,2.5l0,0.2l0,6.5l0,8.6l0,0.7l1.2-0.3l12.2-2.9l2-0.5l3.9-0.9l11.8-2.8l4.5-11.5L458.3,387.9z M455.5,403.9    l-3.7,9.5l-9.7,2.3l-7.2,1.7l-9.2,2.2l0-0.5l0-8.3l0-3l0-1.1l0-0.6l5.5,2l0.9,0.3l0.8,0.3l4.4-1.1l4.7-1.1l1.1-0.3l2-0.5l1.1-2.7    l0,0l0-5.3l0-1.5l0,0l-1.1-1.9l-2.1-0.4l-0.7-0.1l-2.5-0.4l-0.8-0.1l-8.9-1.5l-0.9-0.2l-1.1-2.2l-2.7-5.4l-0.1-11.4l0-2.2l2.7-7    l0.9-2.5l8.3-2l16.3-3.9l0,0l0,9.2l0,4.3l0,0l-3.8-1.4l-3.4-1.3l-1,0.2l-1.9,0.5l-6.3,1.5l-0.3,0.1l-1.5,0.4l-1,2.7l0,2.2v2.5    l0.2,0.5l0.7,1.4l2,0.3l0.4,0.1l4,0.6l9.9,1.6l2.8,5.8l0.8,1.7h0v0L455.5,403.9L455.5,403.9z M247.3,431.7l0-0.6l0-7.6l0-1.6    l0-0.4l0-2.8l-1.6-3.3l-0.6,0.2l-0.9,0.2l-8.8,2.1l-0.1,0l-1.7,0.4l-2.8,0.7l0.6,1.3l0.6,1.5l0.1,0.3l0.1,0.3l0,2.1l0,0.7l0,0    l0,7.8l0,1.8l0,1.6l0,4.5l0,0.5l3.1-0.7l0,0l10.5-2.5l0.7-1.9l0.7-1.9l0,0l0-2.3V431.7z M243.7,435.5l-2.7,0.6l-5.7,1.4l0,0    l-0.2,0.1l0-2.9l0-0.7v-0.1l0-0.1l0-9.4l0-0.7l0-2l-0.3-0.8l0.6-0.1l0,0l8.8-2.1l0.1,0.2l0.2,0.5l0,2.9l0,3.7l0,4.7l0,1.2l0,0.2    l0,0.5l0,1.1L243.7,435.5z M420.8,419.4l-0.9-1.8l-2.3-4.6l0-4.2l0-3.5l0-3.5l-0.4-0.6l-0.9-1.5l-2.2-3.9l-1.2-0.4l2.1-1.7    l0.6-1.8l0.7-1.9l1-2.8l0-1.3l0-3.2l-0.1-7.9l0-2.1l-5-10.3l-1.4,0.3l-17,4.1l-1.6,0.4l-3,0.7l-2.5,0.6l-1.3,0.3l-5.6,1.3l-3,0.7    l-3.6,0.9v0l-0.8,0.2l-0.3,0.1l-2.6,0.6l-3.7,0.9l-0.9,0.2l-5.2,1.2l-1.7,0.4l-3.9,0.9l-0.8,0.2l-3,0.7l-8.3,2l-6.8,1.6l-1.1,0.3    l1.7,3.4l0.9,1.8l2.5,5.2l0,6.9l0,3.5l0,8.1l0,1.1l0.1,10.2l0,1.6l0,0.7l0,3.1l0,0.6l0,3.3l-2,5.2l-1.3,3.2l-2.2,5.7l9.4-2.2    l2.2-0.5l11.2-2.7l0.1,0l14.8-3.6l1.2-0.3l0,0l1.7-0.4l4.5-1.1l1-0.2l2.2-0.5l4.9-1.2l5-1.2l3.3-0.8l0-8.2l0-5.1l0-5.8l0-1.5    l0-1.4l0-1.2l2.3-0.5l0,0l0.6-0.1l0.2,0l1.8-0.4l0.3-0.1l0,4.1l0,1.1l0,0.6l0,6.1l0.9,1.8l4.2,8.4l1-0.2l2.3-0.5l0.4-0.1l13.4-3.2    l-0.5-1L420.8,419.4z M373,392.6l0.5,0.2l0-0.6l0-0.8l0-4v0l0-4.5l0-1.9l0-0.4l0-4.1l0-0.9l0-3.2l0-0.3l0.2,0.4l1,2.1l0.3,0.6    l0.4,0.7l1.9,4l0.6,1.2l0.5,1l0,5.9l0,1.3l0,1.8l0,0.4l0,0.7l0,4.2l-1.8,1.4l-0.5,0.4l-0.7,0.6l-1.1,0.9l-0.1,0.1l-4.5,3.6    l-0.3,0.3l-2,1.6l-0.8,0.6l0,0l0-0.9l0-2.1l0-0.8l0-2.3l0-1.7l0-0.6l0-0.3l0-3.8l0-2.7l3.2,1.2l0.6,0.2l0.7,0.3L373,392.6z     M370.8,432.8l-1.1,0.3l0,0l-1.2,0.3l-0.7,0.2l-9.6,2.3l-0.2,0l-11.2,2.7l-8.2,2l2.5-6.3l1.2-3.2l0,0l0-4.4l0-2.1l0-1.6l0-0.6    l0-0.2l0-8.8l0-1.4l0-4.3l0-8.8l0-1.3l0-6.8l-2.3-4.7l-1.1-2.3l-0.4-0.8l5.1-1.2l10.7-2.6l0.5-0.1l5.3-1.3l1.1-0.3l4.2-1l5.2-1.3    l0,0l0,0.1l0,0.8l0,4.5l0,4.5l0,3.6l0,0l-0.8-0.3l-2.2-0.8l-0.8-0.3l-0.7-0.3l-1.3-0.5l-1.2-0.4l-0.3-0.1l0,0l-1,0.2l-3.8,0.9    l-4.3,1l-1,0.2l-0.6,0.1l0.7,1.5l0,1.6l0,0.2l0,3l0,1.1l0,0.2l0,2l0,0.6l0,3.3l0,0.5l0.6-0.1l1.8-0.4l0.6-0.1l2.1-1.7l4.9-4.1    l0.2-0.1l0,0v0.2l0,4.4l0,2.1l0,1.1v0.5l0,6.2l0,1.3l0,2l0,0l-2.1-0.8l-1.4-0.5l-0.4-0.1l-1.2-0.4l-0.2-0.1l-1.9-0.7l-1,0.2    l-0.6,0.1l-0.4,0.1l-1.1,0.3l0,0.9l0,0.1l0,0.9l0,0l0,1.5l0,0.5l0,3.6l0,0.2l0,0.7l0,1.6l0,4.7l0,0.1l-0.3,0.7L353,428l1.6-0.4    l2.5-0.6l1.6-0.4l1.5-0.4l1.9-0.5l1.3-0.3l5.9-4.9l0.6-0.5l0.9-0.7l0,0l0,1.7L370.8,432.8L370.8,432.8z M366.2,390.1l-1.3,1.1    l-3.7,3.1l-0.7,0.6l-0.7,0.6l-0.5,0.4l-0.6,0.5l-2.3,1.9l0-1.8l0-0.6l0-0.5l0-1.3l0-3.5l2.3-0.5l4.6-1.1l1.2,0.4l0.5,0.2l0.1,0    L366.2,390.1z M376.5,426.3l-2.8,7.1l0-10.5l0-0.9l0-8.7l-3.8,3.1l-3.6,3l-0.2,0.1l-2.2,1.8l-1.2,1l-0.6,0.5l-0.7,0.2l-1.8,0.4    l-0.8,0.2l-2.2,0.5l-0.1,0l0-0.2l0-4.6l0-0.7v0l0-1.7l0-0.5l0-2.6l1,0.3l1.3,0.5l0.9,0.3l1.4,0.5l3.1,1.1l0.8,0.3l1.6,0.6l0-2.8    l0-3.2l0-4.3v-0.4l0-1.2v0l0,0l0.8,0.3l4.4,1.4l1.8,0.6l1.9,0.6l0.4,0.1l0.4,0.1l0.2,0.1l2.1,0.7l0,2.5l0,2.4l0,0.5l0,6.4    l-0.8,2.1L376.5,426.3L376.5,426.3z M417.9,421.5l-8.6,2.1l-0.4,0.1l-1.7,0.4l-0.2-0.5l-2.7-5.3l-0.9-1.8l0-4.3l0-3.3l0-0.2l0-0.5    v-0.1l0-2.3l0-1.5l0-0.4l-0.3-0.7l-0.3-0.5l-0.3-0.7l-0.6,0.2l-2.4,0.6l-1.1,0.3l-0.8,0.2l0,0l-3.1,0.8l-2,0.5l0,2.5l0,1l0,0.4    l0,1l0,2.2l0,9l0,7.2l0,0l-1.7,0.4l-3.7,0.9l-7.1,1.7l-0.1,0l-2.4,0.6l0.9-2.3l1.5-3.8l0.3-0.8l1-2.4l0,0l0-6.2v0l0-1.4l0-4l0-2.9    l0,0l-0.1,0.1l-0.2-0.1l-0.9-0.3l-0.8-0.3l-1.7-0.6l-1.4-0.5l-0.7-0.2l-0.3-0.1l-2.5-0.8l2.8-2.2l0.4-0.4l0.3-0.2l0.1,0l3.9-3.1    l1.1-0.9l0,0l0,0l0,0l0-1.1l0-6.2V390l0-0.5l0-0.2l0-2.3l0-1.9l0-4l-1-2l-0.1-0.2l-0.4-0.8l-0.8-1.6l-1.1-2.2l-0.4-0.9l2.7-0.6    l3.5-0.8l3.4-0.8l5.1-1.2l1.7-0.4l16.1-3.9l0.4-0.1l0.6-0.2l0.5,1l3.3,6.7l0.1,8.3v0l0,3.3l0,1.8l0,0.1l-0.6,1.6l-0.6,1.6l-0.7,2    l-1.2,1l-2.3,1.9l-1.8,1.5l1.9,0.7l0.5,0.2l2.5,0.9l2.5,4.5l0,1.5l0,1.2l0,0.3l0,8.1v0l2.6,5.2l1.2,2.4L417.9,421.5z M175.6,358.7    l-4.8-9.7l-2.2,0.5l-6.1,1.5l-16.3,3.9l-5.1,1.2l-4.3,11.4l0.1,9L137,392l0,3.1l0.1,14.1l5,10.3l10.1-2.4l19.5-4.7l0.6-1.5    l1.4-3.5l2.5-6.3l-0.3-41.7L175.6,358.7z M173.3,400.6l-2.3,5.8l-0.4,1l-1,2.6l-18.6,4.5l-7.2,1.7l-0.2-0.5l-3.5-7.2l0-8.1l0-0.1    l0-7.6l0-2.2l-0.1-11.1l-0.1-9l0-2.2l3.6-9.5l3-0.7l17.6-4.2l4.8-1.1l0.6-0.2l3.7,7.7l0,0l0.1,8.2l0,0.1L173.3,400.6L173.3,400.6z     M334,432.2l-0.2-27.1l-0.1-12.4l-0.3-0.6l-3.1-6.3l-1.7-3.4l-0.1,0l-2.1,0.5l-0.9,0.2l-4.8,1.1l-1.4,0.3l-8.6,2.1l-2,0.5    l-1.1,0.3l-1.9,0.5l-1,0.2l-13.1,3.2l0,0l-6,1.4l-2,0.5l-1.3,0.3l-0.9,0.2l-1.7,0.4l-3.5,0.8l-5.1,1.2l-2.1,0.5l-2.8,0.7l-1.6,0.4    l0.8,1.6l1.6,3.4l0.3,0.6l0,0l0,0l0.7,1.5l1.5,3.2l0.1,24l0,8.2l0,4.7l0,2.3l-0.1,0.2l-1.3,3.5l-0.5,1.3l-3.4,9l7.8-1.9l1.2-0.3    l0.3-0.1l0.1,0l3.4-0.8l7.3-1.8l2.6-0.6l4.2-1v0l7.5-1.8l5.9-1.4l7.6-1.8l5.8-1.4l10.9-2.6l0.6-0.1l1.8-4.6l1.2-3.1l1.4-3.7    L334,432.2z M286.5,453.1l-1,0.2l-8.5,2l-2.4,0.6l-3.7,0.9l-2,0.5l1-2.6l2.6-6.9l0,0l0-3.9l0-0.5l0-3.8l0-2.2l-0.1-22.3l0-7.7    l-1.2-2.6l-1-2.1l0,0l0,0v0l-1.4-3l3.7-0.9l5.1-1.2l3.5-0.8l4-1l2.1-0.5L286,398l-0.4,1l0,0l-2.3,5.8v0l0,2.2l0,5.9l0.1,24.9    l0,7.2l2.8,6l0.8,1.8L286.5,453.1z M290.3,452.9l-1.4-3l-1.2-2.7l-1.3-2.8l-0.2-32.2l0-6.4l0-0.6l0.2-0.5l1.2-3.2l0.6-1.4l0.6-1.6    l0.1-0.4l0,0l1.7-4.3l1.7,3.5l0,0l2.3,4.7l0,2.7l0,4.5l0.1,22.3l0,2.7l0,2.5l0,4.6l-2,5.1L290.3,452.9z M331.1,433.8l-2.4,6.2    l-1.3,3.2l-3.7,0.9l-0.4,0.1l-4,1l-5.8,1.4l-10.2,2.4l-9.3,2.2l3.7-9.4l0,0l0-5.1l0-3.2l0-1l-0.1-22.2l0-0.8l0-4.8l0-3.3l-2.3-4.7    l0,0l0,0l-1.5-3l12.3-2.9l0.4-0.1l3.7-0.9l0.9-0.2l9.7-2.3l1.4-0.3l4.4-1.1l0.3-0.1l0.3-0.1l0.4,0.8l1.1,2.3l2.3,4.6v0l0,2.6    l0,5.5l0,0.1l0.1,19.4L331.1,433.8L331.1,433.8z"/>
		<path class="st2" d="M131.5,277l-7,0.1c1.9-1.6,3.6-3.4,5-5.1l3,3.8C132.2,276.2,131.9,276.6,131.5,277z M121,283l4.6,0.4    c0.3-0.3,0.6-0.6,1-1l-3.2-4.3c-5.5,4.5-12.3,8-19.3,8.3c-4.1,0.2-6.3-1.2-7.4-2.7l0,0l3.2,6.1c0,0,6.2,5,18.1-0.1    c0.5-0.2,1.1-0.5,1.6-0.7c1.2-1,2.4-2,3.5-3L121,283z M132.9,267.4c-0.7,1.1-1.5,2.3-2.4,3.4l5.5-0.1L132.9,267.4z M124.5,257.2    l-1.1,7.3l-3.5-3.8l-1.6,7.4l-3.9-4.7c0,0,0,0,0,0.1c0,0,0,0,0,0l-1.3,5.8l-2.2-1.4c-1.8,2.5-3.6,5.5-5,8.3    c4.4-0.6,12.2-3.1,21.7-12.2c0,0-1.3-2.6-0.9-6.8C125.9,257.2,125.2,257.1,124.5,257.2z M251.3,132.2c-0.5-1-1.1-1.9-1.6-2.9    l-3,1.6c0,0,0,0,0,0c0.5,0.9,1,1.9,1.5,2.9c0,0,0,0,0,0L251.3,132.2z M256.9,129.1c-0.3-0.4-0.6-0.8-0.9-1.2    c0-0.1-0.1-0.1-0.1-0.2c-0.3-0.4-0.5-0.7-0.8-1.1c0,0-0.1-0.1-0.1-0.1l-5.3,2.8c0.6,0.9,1.1,1.9,1.6,2.9L256.9,129.1    C256.9,129.2,256.9,129.1,256.9,129.1z M279.2,131.9l-1.2-2.8c0,0,0,0,0,0.1c-0.6,1.2-1.3,2.4-2,3.5l1.3,3    C278,134.4,278.6,133.2,279.2,131.9z M280.8,143.6c0.5-1.6,1-3.3,1.4-5l-3-6.7c-0.6,1.3-1.3,2.5-1.9,3.8L280.8,143.6z     M240.1,175.3c0.8-0.8,1.5-1.7,2.3-2.6l-1.7-2.5c-0.2,0.2-0.4,0.4-0.6,0.6c-0.5,0.6-1,1.2-1.6,1.7c-0.1,0.1-0.1,0.1-0.2,0.2    L240.1,175.3z M249.6,183.7l-7.1-10.9c-0.8,0.9-1.5,1.7-2.3,2.6l7.1,10.8C248,185.3,248.8,184.5,249.6,183.7z M167.6,236.9    l-1.7-2.5c0,0,0,0,0,0c-0.7,0.8-1.5,1.6-2.2,2.5c0,0-0.1,0.1-0.1,0.1l1.7,2.5C166.1,238.6,166.8,237.8,167.6,236.9z M165.3,239.5    l5.5,8.3c0.9-0.7,1.8-1.4,2.6-2c0,0,0,0,0,0l-5.8-8.9C166.8,237.8,166.1,238.6,165.3,239.5z M170.8,247.9l0.4,0.6    c0.8-0.9,1.5-1.8,2.2-2.6C172.6,246.4,171.7,247.1,170.8,247.9z M141.9,237.5c-0.6-0.9-1.3-1.8-2-2.7l-2.6,2.1    c0,0,0.1,0.1,0.1,0.1c0.3,0.4,0.6,0.7,0.8,1.1c0.1,0.1,0.1,0.2,0.2,0.3c0.3,0.4,0.6,0.8,0.8,1.1c0,0,0,0,0,0L141.9,237.5z     M148.7,232c-0.2-0.2-0.3-0.5-0.5-0.7c-0.5-0.7-0.9-1.3-1.4-2l-6.9,5.5c0.7,0.9,1.3,1.8,2,2.7L148.7,232z M217.2,222.9    c1.6,0.7,4,1.4,7,1.6c10.6,0.8,18.6-4.2,23.2-8.3c3.8-4.6,8.2-10.7,12.1-18.1c0,0,0,0,0,0C253.7,204,240,215.2,217.2,222.9z     M252.4,83.9C252.4,83.9,252.4,83.9,252.4,83.9C252.4,83.9,252.4,83.9,252.4,83.9C252.4,83.9,252.4,83.9,252.4,83.9z M247.8,109.7    c1.8,1,4.2,2,6.8,2.3c0,0-1-11.2,6.3-19.9c0,0,24.7-4.5,39.7-15.6c0,0-7.6,1.9-18.5,3.8c-9.7,4.5-24.9,6.5-24.9,6.5    C251,93.6,248.4,105.9,247.8,109.7z M332.1,243.1c0,0,5.8,17.3,9.4,43.2c2.1-27.7,0.3-63.6-16.6-92.1c0,0,3.6,3.5,7.5,7.8    c0,0,0,0,0-0.1c0,0,43,38,65.2,108.4c-5.7-49.1-28.2-86-40-102.4c-17.7-18.7-40.4-37.8-65.5-47.1c0,0,18,13.4,27.5,26.1    c0,0-8.2-4.2-18.4-7.4c-11.9,29.3-31.7,47.4-38.3,52.8c4-1.4,23.3-8.9,40-25.2c3.6-5.2,5.8-8.5,5.8-8.5s-4.1,30.9-25,54.5    c7.3,3,15,8,22.7,16.1c0,0-3-1.1-8.6-2.3c-2.3-0.4-13.6-2-30.1,2.2c6.1,0.4,31.9,3,56.5,17.5C332.8,262.5,332.1,243.1,332.1,243.1    z M403.3,270.7c0,0-11.2-45.8-39-87c-8.8-9.4-19-18.7-30.8-27.5c0,0,40.8,48.5,62.6,101.1c2,3.4,3.9,6.9,5.8,10.5    C402.8,269.7,403.3,270.7,403.3,270.7z M72.3,233.8c-0.2,0.1-0.3,0.1-0.3,0.1L72.3,233.8z M100.2,214.9c-6.5,0-12.6,0.8-17.8,1.7    c-6.1,6.7-10.4,17.4-10.4,17.4C84.8,219.6,100.2,214.9,100.2,214.9z M72.6,280.7c3.1,0.5,5.9,0.6,8.4,0.6    c7.4-4.8,15.4-16.1,15.4-16.1l-8.5,4.3C81.8,276.7,72.6,280.7,72.6,280.7z M176.2,143.7c0,0,13.4-18,32.8-27.3c0,0-2,3.8-2.2,6    c0,0,10.7-2.4,16-8c0,0-1.8-1.5-5-3.2c-5.8-1-11.4-1.5-16.4,0c-2,1.1-13.3,7.6-28,29c-0.6,0.9-6.3,1.2-10.1,1.8    c0,0.1-0.1,0.1-0.1,0.2C163.2,142.1,166.5,144.1,176.2,143.7z M196.1,198.7c7.6-1.3,13-3.9,13-3.9c21.8-20.7,31.7-37.9,35.2-45    C212.5,158,197.1,196.2,196.1,198.7z M231.4,142.4c1.8-4.8,0.3-9.9,0.3-9.9c-8.5,11.4-23.1,18.3-23.1,18.3    C223.2,152.4,231.4,142.4,231.4,142.4z M212.5,162.3c-0.2,0.2-0.4,0.4-0.6,0.7c0.3-0.3,0.6-0.5,0.8-0.8    C212.7,162.3,212.6,162.3,212.5,162.3z M211.7,162.7c-27.8,12.3-50.8,31.4-60.5,47.3c0,0,12.3-5.7,23.6-8.2    c1.5-0.9,3.1-1.8,4.8-2.7C191.7,177.8,207.1,165.9,211.7,162.7z M152.2,228.9c1.2,1.7,2.2,3.3,3.1,4.7l15.7-15.8    c2.2-6.2,4.8-11.8,7.6-16.9c-1.2,0.2-2.5,0.4-3.7,0.7c-4.6,2.7-8.6,5.5-11.9,8.4c0.2-0.1,0.3-0.2,0.5-0.2    C163.3,209.9,155.5,218.8,152.2,228.9z M174.8,201.7c1.3-0.3,2.5-0.5,3.7-0.7c0.4-0.7,0.7-1.4,1.1-2    C177.9,199.9,176.3,200.8,174.8,201.7z M139.9,190.3c6.6-5.2,15.5-11.6,27-18.1c4.4-4.1,8.2-7.8,11.3-10.9l-0.6,0.5l4.8-10.1    c-7.1,4-16.8,5.3-16.8,5.3C157.1,170.5,147.5,182.1,139.9,190.3z M179.7,110.3c0,0-5.6,0.3-12.9,1.8c-9.5,6.4-22.1,18.2-27.8,34.1    c-0.1,0.5-0.2,1.1-0.3,1.6C138.7,147.8,157.1,124.2,179.7,110.3z M98.8,234.2c5.4,7.5,6.6,13.5,6.6,13.5c-1,5.3-4.1,10.2-4.1,10.2    c2.5-1.8,4.5-3.9,6.3-6.2c5.2-9.6,7.8-19.2,8.1-20.7C106.8,229.7,98.8,234.2,98.8,234.2z M129.7,300.1c0.3-0.2,0.7-0.3,1-0.5    c2.5-3.6,4.3-9.1,4.3-9.1c-9.1,10.3-21.5,9.3-21.5,9.3c3.5,1.2,6.6,1.6,9.2,1.7c4.3-0.5,7.3-1.6,7.3-1.6    C129.9,300,129.8,300.1,129.7,300.1z M130.7,299.6c-0.3,0.4-0.6,0.8-0.9,1.1c0,0-0.5,0.2-1.4,0.4c-5.8,4.1-12.2,5.7-12.2,5.7    c9.6,1.1,17.8-3.1,22-5.8c0.5-3.3,0.6-7.8,0.6-7.8C136.5,295.9,133.6,298,130.7,299.6z M130.7,299.6c-0.3,0.2-0.7,0.4-1,0.5    c-0.4,0.3-0.9,0.7-1.3,1c0.9-0.2,1.4-0.4,1.4-0.4C130.1,300.4,130.4,300,130.7,299.6z M78.2,235.7c-6.1,9.2-5.2,18.8-5.2,18.8    c5.9-10.9,10.9-14.9,12.6-16.1c-1.4-1-3.7-2.2-7.2-2.8C78.3,235.7,78.2,235.7,78.2,235.7z M184.7,141.7c3.6,1.3,8.5,0.3,8.5,0.3    c4.1-1.8,7-6.2,7-6.2c-3.9-1.5-7.9-1.1-7.9-1.1C188.4,137.5,184.6,141.6,184.7,141.7c3,2.5,8.4,2.2,9.1,2.2    C193.2,143.9,187.8,144.2,184.7,141.7z M193.2,134c-0.3,0.2-0.6,0.4-0.9,0.6C192.6,134.4,192.9,134.2,193.2,134z M269,159.5    c0-1.4-0.1-2.8-0.4-4.2c-0.6-2.7-1.8-5.3-3.4-7c-1.3-1.4-2.4-1.8-2.9-1.8c-0.1,0-0.2,0-0.3,0c-0.5,0.1-1,0.8-1.3,1.3    c-0.5,0.8-0.8,1.8-1,2.9c0,0,0,0,0,0c0.3-0.5,0.8-1.2,1.3-1.3c0.1,0,0.1,0,0.3,0c0.4,0,1.6,0.4,2.9,1.8c1.6,1.7,2.8,4.2,3.4,7    c0.3,1.4,0.4,2.8,0.4,4.2c0,0.8-0.1,1.7-0.3,2.4C268.5,163.5,269,161.6,269,159.5z M154.2,252.4c-0.1,0-0.2,0-0.2,0    c-0.5,0.1-1,0.8-1.3,1.3c-0.5,0.8-0.8,1.8-1,2.9c0,0,0,0,0,0c0.3-0.5,0.8-1.2,1.3-1.3c0.1,0,0.1,0,0.2,0c0.5,0,1.6,0.4,2.9,1.8    c1.6,1.7,2.8,4.2,3.4,7c0.3,1.4,0.5,2.8,0.4,4.2c0,0.8-0.1,1.7-0.3,2.4c0.8-1.3,1.2-3.2,1.3-5.3c0-1.4-0.1-2.8-0.4-4.2    c-0.6-2.7-1.8-5.3-3.4-7C155.8,252.8,154.7,252.4,154.2,252.4z M226.2,350.3l0.1,16.5l0.1,12.7l0,0.1l0,8.1v0l1.2,2.5l1,2l1.3,2.7    l0.2,0.5l1.1-0.3l11.7-2.8l3.8-0.9l0.3-0.1l11.5-2.8l0.6-0.1l-1.4-3.1l-0.1-0.1l-2.1-4.6l0-3.8l0-3.4l0-2.6l0-2.2l2.1-5.7l1.3-3.5    l0.1-0.2l-0.2,0l-5,1.2l-0.3,0.1l-1.6,0.4l-9.3,2.2l1.4,3.1l2.2,4.8l0,3.7l0,3.4l0,0.8l0,0.4l0,1.1l0,0.1l0.7,1.7l-0.3,0.1    l-0.3,0.1l-3.8,0.9l-3.5,0.8l-0.6,0.2l-0.2-0.5l-0.7-1.5l0-2l0-3.6l0-9.1l-0.1-14.9l0-3.1l0-2.1v-0.1l1-2.7l1.3-0.3l4.7-1.1    l3.3-0.8l0.9-0.2l3.6,1.3l0.7,0.2l0.6,0.2l2.5,0.9l0,0l0-1.9l0-8.9l0-2.7l0,0l-6.2,1.5l-5.7,1.4l-4.5,1.1l-1.2,0.3l-8.7,2.1    l-3.6,9.5l0,2.2L226.2,350.3z M247,365.6l-1,0.2l-0.6-1.3l8.3-2l0.3-0.1l1.3-0.3l0.8-0.2l-0.2,0.4l-1.9,5.2l-0.3,0.8l0,0l0,4.6    l0,1.3l0,3.1l0,3.7l0.3,0.8l1.8,3.9l0.1,0.1l0.6,1.3l-2.5,0.6l-0.4-0.9l-0.2-0.4l-0.1-0.1l-1.5-3.3l0-0.7l0-3.2l0-1.2v-0.1l0-2.3    l0-2.1l0-3.1l1.9-5.2l0.3-0.8l0.2-0.5l-0.2,0l-0.3,0.1L247,365.6z M237.6,386.6l2.5-0.6l3.3-0.8l3.9-0.9l-1.9,1.9l-1.4,0.3    l-3.4,0.8l-5,1.2l-0.6-1.3l-1.2-2.4l0-7l-0.1-24l0-4.6l0.2-0.7l0.6-1.7l1.9-1.9l-0.9,2.4l0,0.8l0,5.2l0.1,14.9l0,4l0,5l0,5.6    l1.6,3.4L237.6,386.6z M231.2,339.5l1.7-0.4l4.7-1.1l2.1-0.5l9.3-2.2l1.7-0.4l3.5-0.8l0,0.8l0,7.5l-0.6-0.2l-1.3-0.5l0-1l0-2.6    l0-2.1l-0.9,0.2l-11.6,2.8l-2.7,0.7l-1.7,0.4l-3.6,0.9l-1.1,0.3L231.2,339.5z M260.7,463.3L260.7,463.3l0-6.6l0-3.3l0-3.6    l-1.1-1.9l-1.9-3.4l-1.6-0.6l-3-1.1l-2.3-0.9l1.7-1.4l3.6-3.1l1.9-1.6l0,0l2.4-6.4l0,0l0-1.2l0-16.4l-2.9-6v0l-1.5-3.2l-0.6,0.2    l-3,0.7l-11,2.6l-8.1,2l-2.5,0.6l-5.3,1.3l-5.8,1.4l-5.3,1.3l1.5,3.1l0,0.1l3,6.1l0,4.5l0,2l0,3.2l0,4.9l0,1.5l0,6.1l0,0l0,0l0,0    l-3,2.4l0,0l-2,1.6l-3.6,2.8l2.5,0.8l2.7,0.9l0.4,0.1l0,0l1,0.3l1.8,0.6l0.1,0l0,0l0,0l0,7.7l0,0.4v0.2l0,9l0,2.5l0,0l-4.4,11.2    l17.7-4.2l0,0l0-7.2l0-6.2l0-8.9l0-0.2l0-2.9v0l0-2.4l0-1l0.7-0.2l2.3-0.6l0,0l9.9-2.4l0.6-0.2l0.8,1.7l0.7,1.4l0,3.1v0.1l0,2.6    l0,9.5l0.2,0.5l1.1,2.2l2.9,5.9l0.2,0.5l12.6-3l0.6-0.2l-1.3-2.7L260.7,463.3z M221.2,414.3l-2.4,0.6l-1,0.2l-0.6-1.3l3.4-0.8    l4.1-1l7-1.7l2.1-0.5l6.8-1.6l7.7-1.8l5-1.2l1.8-0.4l0.7,1.4v0l2.4,4.9l0.5,1.1l0,1.1l0,5.5l0,8.5l0,1.6l-1.7,4.5l-0.2,0.6    l-0.2,0.5l-0.4,0.3L256,435l-1.3,1.1l0.5-1.4l0.2-0.4l0.4-1.2l0.3-0.7l0.1-0.3l0.5-1.2l0-4.3l0-7.4l0-5.2l-0.7-1.4l-2.9-5.9l0,0    l0-0.1l-10.7,2.6l-2.5,0.6l-5.9,1.4l-1.8,0.4l-8.2,2L221.2,414.3z M247.3,434.1L247.3,434.1l-0.7,1.9l-0.7,1.9l-10.5,2.5l0,0    l-3.1,0.7l0-0.5l0-4.5l0-1.6l0-1.8l0-7.8l0,0l0-0.7l0-2.1l-0.1-0.3l-0.1-0.3l-0.6-1.5l-0.6-1.3l2.8-0.7l1.7-0.4l0.1,0l8.8-2.1    l0.9-0.2l0.6-0.2l1.6,3.3l0,2.8l0,0.4l0,1.6l0,7.6l0,0.6v0.1L247.3,434.1z M228.6,479.3l0-1l0-11.3l0-1.6l0-1.4l0-5.1l0-1.7l0-1.3    l0-2.6l1.9-1.9l0,0.3l0,6.7l0,7.7l0,12.6L228.6,479.3z M235.4,443.9L235.4,443.9l-6.9,1.7l0-6.1l0-3.9l0-9.6l0-1.4l-0.5-1.2    l-1.1-2.6l1.9-1.9l1.2,2.7l0.5,1.1l0,2.2l0,0.7l0,7.5l0,2.1l0,2.7l0,5.8l5-1.2l0,0l5.3-1.3l5.3-1.3l-1.9,1.9L235.4,443.9z     M259.9,471.8L259.9,471.8l-0.4-0.9l-2.4-4.8l-0.2-0.4l0-8.1l0-5.4l0-0.1l-0.1-0.2l-1.2-2.1l-0.8-1.4l-0.3-0.6l-6.7-2.5l-0.9-0.3    l-1.6-0.6l1.3-1.1l0.8-0.7l6,2.3l2.4,0.9l0.6,0.2l2.1,3.8l0.2,0.4l0,0.1l0,0.6l0,0.3l0,6l0,6.6l0.2,0.4l0.5,1.1l2.6,5.3l0.3,0.6    L259.9,471.8z M173.1,368.2l-0.1-8.2l0,0l-3.7-7.7l-0.6,0.2l-4.8,1.1l-17.6,4.2l-3,0.7l-3.6,9.5l0,2.2l0.1,9l0.1,11.1l0,2.2l0,7.6    l0,0.1l0,8.1l3.5,7.2l0.2,0.5l7.2-1.7l18.6-4.5l1-2.6l0.4-1l2.3-5.8l0,0l-0.2-32.2L173.1,368.2z M159.3,406.8l-1.7,0.4l-8.4,2    l-1.8-3.7l0-4.9l0-2.2l0-0.4l0-2.7l-0.1-21l0-2.3l0-2.3l0.2-0.6l0.6-1.8l1.9-1.9l-0.1,0.4l-0.7,2l0,0.5l0,2.9l0,2.7l0.1,14.9l0,4    l0,3.1l0,1.9l0,0.8l0,1.8l0,3l1.8,3.7l5.8-1.4l1.5-0.4l2.8-0.7L159.3,406.8z M161.9,400.6L161.9,400.6l-0.7,1.9l-0.2,0.5l-0.7,0.2    l-4.1,1l-1,0.2l-3.1,0.8l-0.2-0.5l-0.7-1.5l0-2l0-0.5l0-1.2l0-1.9l0-0.7l0-8.3l-0.1-14.9l0-3l0,0l0-2.2l0.3-0.7l0.6-1.6l0.1-0.4    l4.7-1.1l1.3-0.3l2.2-0.5l0.6-0.1l1,2.4l0,2l0,1.2l0,1.9l0,9.1l0.1,14.9l0,3l0,2.4L161.9,400.6L161.9,400.6z M169.5,405.1    l-0.3,0.7l-0.4,1l-0.6,1.6l-1.3,0.3l0.4-1.1l0.8-2.1l0.2-0.5l0.4-1.1l0.7-1.7l-0.2-32.9l0-6.8l-2.9-5.9l-1,0.2l-9.8,2.4l-6.7,1.6    l-2.6,0.6l-1,0.2l-1.1,0.3l0.6-1.6l1.5-0.4l0.2-0.1l14.9-3.6l3.3-0.8l3.5-0.8l2.9,5.9l0,1.5l0,6.8l0.2,31.4L169.5,405.1z     M455.4,388.2L455.4,388.2L455.4,388.2l-0.8-1.7l-2.8-5.8l-9.9-1.6l-4-0.6l-0.4-0.1l-2-0.3l-0.7-1.4l-0.2-0.5v-2.5l0-2.2l1-2.7    l1.5-0.4l0.3-0.1l6.3-1.5l1.9-0.5l1-0.2l3.4,1.3l3.8,1.4l0,0l0-4.3l0-9.2l0,0l-16.3,3.9l-8.3,2l-0.9,2.5l-2.7,7l0,2.2l0.1,11.4    l2.7,5.4l1.1,2.2l0.9,0.2l8.9,1.5l0.8,0.1l2.5,0.4l0.7,0.1l2.1,0.4l1.1,1.9l0,0l0,1.5l0,5.3l0,0l-1.1,2.7l-2,0.5l-1.1,0.3    l-4.7,1.1l-4.4,1.1l-0.8-0.3l-0.9-0.3l-5.5-2l0,0.6l0,1.1l0,3l0,8.3l0,0.5l9.2-2.2l7.2-1.7l9.7-2.3l3.7-9.5l0,0L455.4,388.2z     M443.4,409.8l-0.6,0.1l-0.2,0.1l-0.5,0.1l-1.2,0.3l-8.4,2l-1.5,0.4l-2.4-0.9l-1-0.3l0-2.6l3.8,1.4l1.5,0.5l4.5-1.1l3.2-0.8    l1.6-0.4l0.8-0.2l2.5-0.6L443.4,409.8z M429.9,364.4l0.6-1.6l1.7-0.4l5.2-1.2l14.4-3.5l0,6.4l0,1.9l-1.9-0.7l0-1l0-0.4l0-4.2    l-10.5,2.5l-1.4,0.3l-0.7,0.2l-2.8,0.7l-3.6,0.9L429.9,364.4z M451,410.1l-0.6,1.6l-1.3,0.3l0.4-1.1l1.1-2.7l1.1-2.9l-0.1-14.8    l-0.2-0.4l-0.8-1.7l-0.1-0.2l-1.9-4l-3.3-0.5l-1.4-0.2l-1.9-0.3l-2.9-0.5l-6.6-1.1l-0.3-0.6l-1-2.1l-0.2-0.5V373l0.2-0.5l0.5-1.4    l0.2-0.5l1.9-1.9l-0.9,2.4l0,5.2v0.3l0.1,0.3l0.1,0.3l1.3,2.7l0.3,0l3.9,0.6l3.5,0.6l6.8,1.1l1.7,0.3l0.8,1.6l0.7,1.5l1.3,2.7v0    l0.2,0.4l0,0.5l0,1l0.1,13.4L451,410.1z M414.8,413.7L414.8,413.7l0-8.1l0-0.3l0-1.2l0-1.5l-2.5-4.5l-2.5-0.9l-0.5-0.2l-1.9-0.7    l1.8-1.5l2.3-1.9l1.2-1l0.7-2l0.6-1.6l0.6-1.6l0-0.1l0-1.8l0-3.3v0l-0.1-8.3l-3.3-6.7l-0.5-1l-0.6,0.2l-0.4,0.1l-16.1,3.9    l-1.7,0.4l-5.1,1.2l-3.4,0.8l-3.5,0.8l-2.7,0.6l0.4,0.9l1.1,2.2l0.8,1.6l0.4,0.8l0.1,0.2l1,2l0,4l0,1.9l0,2.3l0,0.2l0,0.5v0.2    l0,6.2l0,1.1l0,0l0,0l0,0l-1.1,0.9l-3.9,3.1l-0.1,0l-0.3,0.2l-0.4,0.4l-2.8,2.2l2.5,0.8l0.3,0.1l0.7,0.2l1.4,0.5l1.7,0.6l0.8,0.3    l0.9,0.3l0.2,0.1l0.1-0.1l0,0l0,2.9l0,4l0,1.4v0l0,6.2l0,0l-1,2.4l-0.3,0.8l-1.5,3.8l-0.9,2.3l2.4-0.6l0.1,0l7.1-1.7l3.7-0.9    l1.7-0.4l0,0l0-7.2l0-9l0-2.2l0-1l0-0.4l0-1l0-2.5l2-0.5l3.1-0.8l0,0l0.8-0.2l1.1-0.3l2.4-0.6l0.6-0.2l0.3,0.7l0.3,0.5l0.3,0.7    l0,0.4l0,1.5l0,2.3v0.1l0,0.5l0,0.2l0,3.3l0,4.3l0.9,1.8l2.7,5.3l0.2,0.5l1.7-0.4l0.4-0.1l8.6-2.1l0.6-0.2l-1.2-2.4L414.8,413.7z     M381,376.1l-0.2,0.1l-0.6-1.3l1.9-0.5l4.8-1.2l3.7-0.9l3.9-0.9l2.9-0.7l0.1,0l5.5-1.3l6.1-1.5l0.7-0.2l2.9,5.9l0.1,8.3l0,0.1l0,2    l0,1.5l0,0.7l-1.3,3.7l-0.1,0.3l-0.2,0.6l-0.5,0.4l0,0l-1.2,1l0.5-1.3l0.2-0.5l0.1-0.3l0.1-0.2l0.3-0.8l0.4-1l0-1.1l0-3.7l0-0.2    l0-0.7l-0.1-6.8l-1.7-3.4l-1.2-2.5l-10.4,2.5l-0.4,0.1l-1.9,0.5l0,0l-5.6,1.3l-2.7,0.6l-5.2,1.2L381,376.1z M390.7,378.7l0.7-0.2    l5.9-1.4l0.2,0l0.4-0.1l0.2,0l2.6-0.6l0.6-0.2l1.1,2.4v0l0,0.9l0,1.5l0,3.5v0.7l0,3l0,1.7l0,0l-0.9,2.5l-4.1,1l0,0l-3.2,0.8    l-2.7,0.6l0-0.5l0-4.4l0-1.1l0-0.8l0-0.2l0-0.7l0-1.1l0-2.2l0-1l0-0.8l0-1.1v0L390.7,378.7z M390,426.2l-1.2,0.3l0-1l0-1.8l0-1.3    l0-3.8l0-3.3l0-2.8l0-0.3l0-1.4l0-2.3l0-1.7l0-0.3l0-0.5l1.9-1.9l0,3.1l0,0.3l0,1.7l0,0.7l0,0.9l0,0.8l0,5.7l0,2l0,1.2l0,5.3    L390,426.2z M397.6,396.7L397.6,396.7l-9.7,2.3l0-8l0-1.2l0-1.2l0-0.7l0-0.6l0-1.8l0-1.1l0-1.4l-0.2-0.3l0-0.1l-0.1-0.2l-0.6-1.3    l-0.3-0.6l1.9-1.9l1.2,2.5l0,0.5l0,2.9l0,0.6l0,1.4l0,0.8l0,0.6v0.1l0,1.3l0,0.4l0,7.3l7.8-1.9l0,0l2.4-0.6l1.7-0.4l-1.9,1.9    L397.6,396.7z M414.7,420.3l-1.4,0.3l-0.4-0.9l-1.6-3.3l-0.2-0.4l0-9.1l0-0.6l0-1.3l-0.1-0.2l-0.7-1.2l-0.5-1l-0.3-0.6l-0.3-0.5    l-1.8-0.7l-2.5-0.9l-2.4-0.9l-0.7-0.2l1.4-1.1l0.9-0.7l5.4,2l0.5,0.2l0.3,0.1l0.9,0.3l0.4,0.8l1.2,2.2l0,0l0.3,0.5l0,0.6l0,2.2    l0,0.6l0,7.7l0.2,0.4l0,0l0.5,1.1l2,4.2l0.1,0.2L414.7,420.3z M370.8,419.4L370.8,419.4l-0.9,0.7l-0.6,0.5l-5.9,4.9l-1.3,0.3    l-1.9,0.5l-1.5,0.4l-1.6,0.4l-2.5,0.6L353,428l0.3-0.9l0.3-0.7l0-0.1l0-4.7l0-1.6l0-0.7l0-0.2l0-3.6l0-0.5l0-1.5l0,0l0-0.9l0-0.1    l0-0.9l1.1-0.3l0.4-0.1l0.6-0.1l1-0.2l1.9,0.7l0.2,0.1l1.2,0.4l0.4,0.1l1.4,0.5l2.1,0.8l0,0l0-2l0-1.3l0-6.2v-0.5l0-1.1l0-2.1    l0-4.4v-0.2l0,0l-0.2,0.1l-4.9,4.1l-2.1,1.7l-0.6,0.1l-1.8,0.4l-0.6,0.1l0-0.5l0-3.3l0-0.6l0-2l0-0.2l0-1.1l0-3l0-0.2l0-1.6    l-0.7-1.5l0.6-0.1l1-0.2l4.3-1l3.8-0.9l1-0.2l0,0l0.3,0.1l1.2,0.4l1.3,0.5l0.7,0.3l0.8,0.3l2.2,0.8l0.8,0.3l0,0l0-3.6l0-4.5l0-4.5    l0-0.8l0-0.1l0,0l-5.2,1.3l-4.2,1l-1.1,0.3l-5.3,1.3l-0.5,0.1l-10.7,2.6l-5.1,1.2l0.4,0.8l1.1,2.3l2.3,4.7l0,6.8l0,1.3l0,8.8    l0,4.3l0,1.4l0,8.8l0,0.2l0,0.6l0,1.6l0,2.1l0,4.4l0,0l-1.2,3.2l-2.5,6.3l8.2-2l11.2-2.7l0.2,0l9.6-2.3l0.7-0.2l1.2-0.3l0,0    l1.1-0.3l0,0l0-11.7L370.8,419.4z M356.4,403.9l1-0.2l1.2-1l0,0l3.1-2.6l0,2.6l0,0.3v0.4l0,2.4l0,5.1l-1.9-0.7l0-1l0-1.8l0-2    l0-1.5l0-0.9v-0.2l0-0.7l-0.8,0.7l-0.4,0.4l-1.8,1.5l-0.6,0.5l-0.8,0.7l-5.1,1.2l-0.7,0.2l0-5.1l0-4.7l0-1.2l0-0.2l0-2.3l0-1.1    l-1-1.9l1.9-1.9l1,1.9l0,4l0,0.8l0,0.5l0,0.1l0,0.7l0,3.6l0,4.8l0.4-0.1L356.4,403.9z M345,384.8l-2.2,0.5l-1,0.2l-0.6-1.3    l3.2-0.8l9.9-2.4l1.3-0.3l1.1-0.3l5.3-1.3l3-0.7l3.7-0.9l0,0.9l0,4.8l0,0.6l0,2l-1.4-0.5l-0.5-0.2l0-1l0-2.7v0l0-2l-2.1,0.5    l-2,0.5l-6.4,1.5l-2,0.5l-0.1,0L345,384.8z M368.3,431.5l-1.3,0.3l0-1l0-1l0-3.5l0-0.9l-2.2,1.8l-1.6,1.3l-0.5,0.4l-0.3,0.3    l-1.7,0.4l-0.3,0.1l-1.6,0.4l-0.1,0l-10.6,2.5l1.7-4.6l0-1.5l0-0.7l0-0.8l0-4l0-0.7l0-3.5l0-2.5l0-0.3l0-0.5l0-1.5l1-0.2l1-0.2    l0,1.9l0,1.2l0,0.2l0,4.9l0,0.7l0,1.8l0,1.4l0,0.6l0,1.4l0,0.4l-0.1,0.4l0,0.1l-1.6,4.2l6.3-1.5l1.7-0.4l0.8-0.2l2.6-0.6l3-0.7    l0.3-0.3l4.2-3.5l0,7.8L368.3,431.5z M130.1,409.2L130.1,409.2l0-6.6l0-3.3l0-3.6l-1.1-1.9l-1.9-3.4l-3.7-1.4l-0.9-0.3l-2.3-0.9    l1.7-1.4l1.5-1.3l4-3.4l0.1,0l2.4-6.4l0,0l0-1.2l0-16.4l-2.1-4.3l-2.4-4.8l-0.6,0.2l-24.6,5.9l-16.3,3.9l1.5,3.1l3,6.2l0,4.6l0,2    l0,3.1l0,5l0,1.4l0,6.1l0,0l0,0l0,0l-3,2.4l0,0l-2.1,1.6l-3.5,2.8l2.5,0.8l2.7,0.9l0.4,0.1l0,0l1,0.3l1.8,0.6l0.1,0l0,0l0,0l0,7.6    l0,0.4v0.2l0,9l0,2.5l0,0l-4.4,11.2l17.7-4.2l0,0l0-7.2l0-6.2l0-9v-0.2l0-2.9v0l0-2.4l0-1l0.7-0.2l2.3-0.6l0,0l9.9-2.4l0.6-0.2    l0.8,1.7l0.7,1.4l0,3.1v0.1l0,2.6l0,9.5l1.3,2.7l2.9,5.9l0.2,0.5l6.1-1.5l6.6-1.6l0.6-0.2l-1.3-2.7L130.1,409.2z M88.2,360.8    l-1,0.2l-0.6-1.3l14.4-3.5l16.6-4l6.8-1.6l2.5,5.1l0.6,1.2l0.5,1.1l0,1.1l0,5.5l0,8.5l0,1.6l-1.7,4.5l-0.2,0.6l-0.2,0.5l-0.4,0.4    l-1.3,1.1l0.5-1.4l0.2-0.4l0.4-1.2l0.4-1l0.5-1.2l0-4.2l0-7.4l0-5.2l-0.4-0.9l-3.2-6.5l-10.7,2.6l-10.1,2.4L88.2,360.8z     M116.7,380L116.7,380L116.7,380l-0.7,1.9l-0.7,1.9l-10.5,2.5l0,0l-3.1,0.7l0-0.5l0-4.5l0-1.6l0-1.8l0-7.8l0,0l0-0.7l0-2.1    l-0.1-0.3l-0.1-0.3l-0.7-1.6l-0.5-1.2l2.5-0.6l2-0.5l0.1,0l8.8-2.1l0.9-0.2l0.6-0.2l1.6,3.3l0,2.8l0,0.4l0,1.6l0,7.6l0,0.6v0.1    L116.7,380z M98,425.2l0-1l0-11.2l0-1.6l0-1.5l0-5l0-1.6l0-1.3l0-2.6l1.9-1.9l0,0.3l0,6.7l0,7.7l0,12.6L98,425.2z M104.8,389.8    L104.8,389.8l-6.9,1.7l0-6.1l0-3.9l0-9.6l0-1.4l-0.6-1.3l-1.1-2.5l1.9-1.9l1.1,2.6l0.5,1.2l0,2.2l0,0.7l0,7.5l0,2.1l0,2.7l0,5.8    l5-1.2l0,0l5.3-1.3l5.3-1.3l-0.4,1.1l-0.1,0.2l-0.1,0.3L104.8,389.8z M129.3,417.7L129.3,417.7l-0.4-0.9l-2.4-4.8l-0.2-0.4l0-8.1    l0-5.4l0-0.1l-0.1-0.2l-1.2-2.1l-1.1-1.9l-0.4-0.1l-6.3-2.4l-0.9-0.3l-1.6-0.6l1.3-1.1l0.8-0.7l6,2.3l0.7,0.2l2.3,0.9l2.1,3.8    l0.2,0.4l0,0.1l0,0.6l0,0.3l0,6l0,6.6l0.2,0.4l0.5,1.1l2.6,5.3l0.3,0.6L129.3,417.7z M283.6,445.1l0-7.2l-0.1-24.9l0-5.9l0-2.2v0    l2.3-5.8l0,0l0.4-1l1.1-2.8l-2.1,0.5l-4,1l-3.5,0.8l-5.1,1.2l-3.7,0.9l1.4,3v0l0,0l0,0l1,2.1l1.2,2.6l0,7.7l0.1,22.3l0,2.2l0,3.8    l0,0.5l0,3.9l0,0l-2.6,6.9l-1,2.6l2-0.5l3.7-0.9l2.4-0.6l8.5-2l1-0.2l0.6-0.1l-0.8-1.8L283.6,445.1z M281.9,452.2l-0.4-0.9    l-1.8-3.9l0-4.4l0-5.1l-0.1-24l0-7.2l0-0.4l0.6-1.5l0.4-1l1.5-3.9l-3.1,0.7l-5.1,1.2L273,402l-1,0.2l0,0l0,0v0l-0.6-1.3l1.8-0.4    l5.1-1.2l3.4-0.8l2.2-0.5l-0.6,1.6l0,0l-1.9,4.9l0,0.4l0,1.9l0,6.7l0.1,24l0,8.1l2.8,6.1L281.9,452.2z M330.9,401.5l0-0.1l0-5.5    l0-2.6v0l-2.3-4.6l-1.1-2.3l-0.4-0.8l-0.3,0.1l-0.3,0.1l-4.4,1.1l-1.4,0.3l-9.7,2.3l-0.9,0.2l-3.7,0.9l-0.4,0.1l-12.3,2.9l1.5,3    l0,0l0,0l2.3,4.7l0,3.3l0,4.8l0,0.8l0.1,22.2l0,1l0,3.2l0,5.1l0,0l-3.7,9.4l9.3-2.2l10.2-2.4l5.8-1.4l4-1l0.4-0.1l3.7-0.9l1.3-3.2    l2.4-6.2l0,0l-0.1-12.9L330.9,401.5z M317.2,440.1l-3,0.7l-0.3,0.1l-10.6,2.5l1.9-5.2l0-1.6l0-1.4l0-1.4l0-2.1l0-0.9l0-2.7l0-2.3    l0-3.1l-0.1-14.9l0-1.5l0-2.5v-0.1l-1.3-2.5l1.9-1.9l1.3,2.5l0,1l0,3l0,1.5l0.1,14.9l0,6.6l0,2.5l0,0.3l0,2.3v0.1l0,2l0,0.4    l-0.1,0.3l-1.7,4.8l6.3-1.5l2.7-0.6l2.1-0.5l2.8-0.7L317.2,440.1z M319.9,433.8l-0.7,1.9l-0.2,0.5l-4.8,1.1l-1,0.2l-4.9,1.2    l0.8-2.1l0,0l0-2.8l0-1.5l0-1.5l0-1.2l0-7.8l-0.1-14.9l0-2l0-1.1l0-1.3l0-0.7l0-0.5l-1.1-2l0.6-0.2l5.5-1.3l0.6-0.1l3.3-0.8    l0.7-0.2l1.2,2.4l0,2.9l0,2.2l0,9.1l0.1,14.9L319.9,433.8L319.9,433.8z M326.9,439.3l-0.3,0.7l-0.6,1.6l-1.3,0.3l0.4-1.1l0.8-1.9    l0.3-0.7l1.1-2.8l-0.2-31.1l0-1.8l0-6.8l-2.9-5.9l-0.6,0.1l-1.6,0.4l-8.6,2.1l-1.8,0.4l-6.6,1.6l-6.8,1.6l-1,0.2l0,0l0,0l-0.6-1.3    l9-2.2l1.3-0.3l4.1-1l8.3-2l2.2-0.5l1.5-0.4l3.1-0.8l0.6,1.3l2.3,4.6l0,1.5l0,6.8l0.1,9.4l0.1,22L326.9,439.3z M212.8,397.3    l0.5-1.3l1.4-3.6l0.7-1.9l0,0v0l-0.2-32.2l0-6l0-2.2l3.5-8.9l0.2-0.5l-0.4,0.1l-0.4,0.1l-7.7,1.9l-8.2,2l1.5,3.1l2.3,4.7l0,8.1    l0.1,26.4l0,0.1l0,2.4l0,0.8l0,0l-0.2,0.5l-0.7,1.9l-0.9,0.2l-4,1l-4.2,1l-0.2-0.5l-0.8-1.5l0-2.5l0-0.1l0-1.2l0-1.8l0-0.9l0-8.2    l-0.1-14.9l0-5.9l0-2.2l2.5-6.5l1.2-3l-2.4,0.6l-10.5,2.5l-0.4,0.1l-5.4,1.3l1.5,3.1l2.3,4.7l0,8.1l0.1,24l0,0.1l0,8.1l3.5,7.2    l0.2,0.5l1.1-0.3l3.2-0.8l19.5-4.7L212.8,397.3z M203.6,396.2l-1.8,0.4l-8.3,2l-2-3.6l0-5l0-2.1l0-0.5l0-2.7l-0.1-20.8l0-7.5    l2.5-6.5l-6.3,1.5l-0.4,0.1l-2.6,0.6l-1,0.2l-0.6-1.3l3.5-0.9l0.4-0.1l8.9-2.1l-2.5,6.5l0,9l0.1,14.9l0,3.6l0,3.5l0,2l0,0.7l0,1.9    l0,3.1l2,3.6l5.7-1.4l4.4-1.1L203.6,396.2z M211.1,396.5l-0.7,1.7l-1.3,0.3l0.4-1.1l0.2-0.6l1.2-3.2l0.5-1.1l0.2-0.5l0-0.1l0-1.5    l0-1.5l-0.1-10l-0.1-19.8l0-7.6l2.5-6.4l-4.2,1l-3.1,0.8l-1,0.2l-0.6-1.3l4.7-1.1l6.1-1.5l-2.5,6.4l0,3.5l0,5.5l0.2,31l0,0.4    l-0.1,0.4l-1.8,4.5L211.1,396.5z M307.3,376.9l0.6-0.2v0l0,0l-1.4-3l0,0l-2.2-4.7l0-7.7l0-0.5l0-0.4l0-0.4l0-4l0-2.8l1.2-1    l4.5-3.6l0,0l0.3-0.2l1.8-1.5l0.2-0.1l0.5-0.4l-1.5-0.5l-1.3-0.4l-0.1,0l-3.2-1l-2.6-0.8l0-1.8l0-3.5l0-1.6l0-1.3l0,0l0-4.6l0-2.2    l0.1-0.3l2.8-7l0.9-2.3l-1.8,0.4l-2.4,0.6L296,322l-6.2,1.5l1.5,3.1l1,2.1l1.3,2.6l0,1.4l0,5.5l0,1.3l0,1.3v0.1l0,5l0,0l-2.8,0.7    l-3,0.7l0,0l-1.4,0.3l-5.7,1.4l0-0.5l0-0.1l0-2.5l0-3.4l0-1.3l0-2.7l0-1.2l0-0.7l0-2.2l0.9-2.4l0.1-0.2l1.8-4.6l0.5-1.3l0.4-0.9    l-1.4,0.3l-0.4,0.1l-5.8,1.4l-2.4,0.6l-0.8,0.2l-1,0.2l-6.3,1.5l0.5,1l0.2,0.5l0.8,1.5l2.3,4.7l0,2.9l0,3.9l0,1.3l0.1,22.4l0,0.9    l0,0.7l0,8.2l0,0l-2.2,5.8l-0.6,1.5l-0.8,1.9l-0.1,0.1l0,0.1l0.1,0l0.1,0l1.5-0.4l2.6-0.6l1-0.2l3.8-0.9l8.3-2l0.6-0.1l-1.4-3.1    l0,0l-2.2-4.7l-0.1-7.3l0-1.6l0-4.3l0-3.4l5.8-1.4l1.4-0.3l1.1-0.3l4.7-1.1l0,0l0,2.6l0,5.1l0,0.7l0.1,8.2l0,0l-2.2,5.8l0,0    l-1.5,3.7l1.6-0.4l8.9-2.1L307.3,376.9z M281,379.8L281,379.8l0.6,1.3l-2.5,0.6l-0.4-0.9l-0.2-0.4l0,0l-1.6-3.5l-0.1-7.3l0-2.3    l0-0.7l0-6.8l1.9-1.9l0.1,8.3l0,0.7l0.1,8.1L281,379.8z M291.7,349.7l-3.9,0.9l0,0l-1.4,0.3l-7.4,1.8l-2.2,0.5l-0.1-9.9l0-1.3    l0-3.9l0-2.3v0l0.4-1l0.1-0.2l0.7-1.9l1.1-2.7l0.2-0.6l-0.8,0.2l-3.4,0.8l-2.5,0.6l-2,0.5l-0.9,0.2l-0.1,0l0-0.1l-0.6-1.2l3.5-0.8    l1.9-0.4l2.3-0.6l4.5-1.1l-1.2,3.1l-0.7,1.8l-0.6,1.5l0,3.2l0,0.5l0,3l0,0.9l0,1.3l0,2.9l0,5.5l0.9-0.2l6.8-1.6l1.4-0.3l0,0    l1.2-0.3l3.5-0.8l1.1-0.3L291.7,349.7z M300.3,346.8l0-8.6l0-0.5l0-1.3l0-1l0-0.6l0-4.7l1.5-3.9l1-2.6l-0.6,0.2l-2.6,0.6l-5.4,1.3    l-1,0.2l-0.6-1.3l5.5-1.3l4.7-1.1l1.9-0.5l-2.1,5.2l-0.5,1.3l0,5.7l0,2l0,0.6l0,0.7l0,2.7l0,5l6.6,2.1l-2.3,1.8l-1.1-0.4l-4.9-1.6    l-0.2-0.1L300.3,346.8z M300.4,361.7l0-0.7l0-1.4l0-3.7l0-1.7l1-0.8l1-0.8l0,5.4l0,2.1l0,0.3l0,0.7l0,8.1l2.2,4.8l0,0l0.6,1.3    l-2.5,0.6l-0.4-0.9l-0.2-0.4l0,0l-1.6-3.4L300.4,361.7z"/>
		<path class="st3" d="M253.7,362.5l-8.3,2l0.6,1.3l1-0.2l6.7-1.6l0.3-0.1l0.2,0l-0.2,0.5l-0.3,0.8l-1.9,5.2l0,3.1l0,2.1l0,2.3v0.1    l0,1.2l0,3.2l0,0.7l1.5,3.3l0.1,0.1l0.2,0.4l0.4,0.9l2.5-0.6l-0.6-1.3l-0.1-0.1l-1.8-3.9l-0.3-0.8l0-3.7l0-3.1l0-1.3l0-4.6l0,0    l0.3-0.8l1.9-5.2l0.2-0.4l-0.8,0.2l-1.3,0.3L253.7,362.5z M234.5,346.7l-0.6,1.7l-0.2,0.7l0,4.6l0.1,24l0,7l1.2,2.4l0.6,1.3l5-1.2    l3.4-0.8l1.4-0.3l1.9-1.9l-3.9,0.9L240,386l-2.5,0.6l-0.2-0.3l-1.6-3.4l0-5.6l0-5l0-4l-0.1-14.9l0-5.2l0-0.8l0.9-2.4L234.5,346.7z     M235.3,339.9l1.7-0.4l2.7-0.7l11.6-2.8l0.9-0.2l0,2.1l0,2.6l0,1l1.3,0.5l0.6,0.2l0-7.5l0-0.8l-3.5,0.8l-1.7,0.4l-9.3,2.2    l-2.1,0.5L233,339l-1.7,0.4l-0.6,1.6l1.1-0.3L235.3,339.9z M240.6,441.2l-5.3,1.3l0,0l-5,1.2l0-5.8l0-2.7l0-2.1l0-7.5l0-0.7l0-2.2    l-0.5-1.1l-1.2-2.7l-1.9,1.9l1.1,2.6l0.5,1.2l0,1.4l0,9.6l0,3.9l0,6.1l6.9-1.7l0,0l8.7-2.1l1.9-1.9L240.6,441.2z M259.5,465.2    l-0.5-1.1l-0.2-0.4l0-6.6l0-6l0-0.3l0-0.6l0-0.1l-0.2-0.4l-2.1-3.8l-0.6-0.2l-2.4-0.9l-6-2.3l-0.8,0.7l-1.3,1.1l1.6,0.6l0.9,0.3    l6.7,2.5l0.3,0.6l0.8,1.4l1.2,2.1l0.1,0.2l0,0.1l0,5.4l0,8.1l0.2,0.4l2.4,4.8l0.4,0.8l0,0l2.6-0.6l-0.3-0.6L259.5,465.2z     M234,411.3l5.9-1.4l2.5-0.6l10.7-2.6l0,0.1l0,0l2.9,5.9l0.7,1.4l0,5.2l0,7.4l0,4.3l-0.5,1.2l-0.1,0.3l-0.3,0.7l-0.4,1.2l-0.2,0.4    l-0.5,1.4l1.3-1.1l0.1-0.1l0.4-0.3l0.2-0.5l0.2-0.6l1.7-4.5l0-1.6l0-8.5l0-5.5l0-1.1l-0.5-1.1l-2.4-4.9v0l-0.7-1.4l-1.8,0.4    l-5,1.2l-7.7,1.8l-6.8,1.6l-2.1,0.5l-7,1.7l-4.1,1l-3.4,0.8l0.6,1.3l1-0.2l2.4-0.6l2.8-0.7l8.2-2L234,411.3z M230.4,458.5l0-6.7    l0-0.3l-1.9,1.9l0,2.6l0,1.3l0,1.7l0,5.1l0,1.4l0,1.6l0,11.3l0,1l1.9-0.5l0-12.6L230.4,458.5z M156.9,405.9l-5.8,1.4l-1.8-3.7l0-3    l0-1.8l0-0.8l0-1.9l0-3.1l0-4l-0.1-14.9l0-2.7l0-2.9l0-0.5l0.7-2l0.1-0.4l-1.9,1.9l-0.6,1.8l-0.2,0.6l0,2.3l0,2.3l0.1,21l0,2.7    l0,0.4l0,2.2l0,4.9l1.8,3.7l8.4-2l1.7-0.4l1.9-1.9l-2.8,0.7L156.9,405.9z M171.2,361.9l0-1.5l-2.9-5.9l-3.5,0.8l-3.3,0.8    l-14.9,3.6l-0.2,0.1l-1.5,0.4l-0.6,1.6l1.1-0.3l1-0.2l2.6-0.6l6.7-1.6l9.8-2.4l1-0.2l2.9,5.9l0,6.8l0.2,32.9l-0.7,1.7l-0.4,1.1    l-0.2,0.5l-0.8,2.1l-0.4,1.1l1.3-0.3l0.6-1.6l0.4-1l0.3-0.7l1.9-4.9l-0.2-31.4L171.2,361.9z M434.6,363.3l2.8-0.7l0.7-0.2l1.4-0.3    l10.5-2.5l0,4.2l0,0.4l0,1l1.9,0.7l0-1.9l0-6.4l-14.4,3.5l-5.2,1.2l-1.7,0.4l-0.6,1.6l1.1-0.3L434.6,363.3z M442.1,408.6l-1.6,0.4    l-3.2,0.8l-4.5,1.1l-1.5-0.5l-3.8-1.4l0,2.6l1,0.3l2.4,0.9l1.5-0.4l8.4-2l1.2-0.3l0.5-0.1l0.2-0.1l0.6-0.1l1.9-1.9l-2.5,0.6    L442.1,408.6z M453.5,390.1l0-1l0-0.5l-0.2-0.4v0l-1.3-2.7l-0.7-1.5l-0.8-1.6l-1.7-0.3l-6.8-1.1l-3.5-0.6l-3.9-0.6l-0.3,0    l-1.3-2.7l-0.1-0.3l-0.1-0.3v-0.3l0-5.2l0.9-2.4l-1.9,1.9l-0.2,0.5l-0.5,1.4l-0.2,0.5v5.5l0.2,0.5l1,2.1l0.3,0.6l6.6,1.1l2.9,0.5    l1.9,0.3l1.4,0.2l3.3,0.5l1.9,4l0.1,0.2l0.8,1.7l0.2,0.4l0.1,14.8l-1.1,2.9l-1.1,2.7l-0.4,1.1l1.3-0.3l0.6-1.6l2.6-6.6    L453.5,390.1z M413.7,415.6l-0.5-1.1l0,0l-0.2-0.4l0-7.7l0-0.6l0-2.2l0-0.6l-0.3-0.5l0,0l-1.2-2.2l-0.4-0.8l-0.9-0.3l-0.3-0.1    l-0.5-0.2l-5.4-2l-0.9,0.7l-1.4,1.1l0.7,0.2l2.4,0.9l2.5,0.9l1.8,0.7l0.3,0.5l0.3,0.6l0.5,1l0.7,1.2l0.1,0.2l0,1.3l0,0.6l0,9.1    l0.2,0.4l1.6,3.3l0.4,0.9l1.4-0.3l1.2-0.3l-0.1-0.2L413.7,415.6z M400.1,394.7l-2.4,0.6l0,0l-7.8,1.9l0-7.3l0-0.4l0-1.3V388l0-0.6    l0-0.8l0-1.4l0-0.6l0-2.9l0-0.5l-1.2-2.5l-1.9,1.9l0.3,0.6l0.6,1.3l0.1,0.2l0,0.1l0.2,0.3l0,1.4l0,1.1l0,1.8l0,0.6l0,0.7l0,1.2    l0,1.2l0,8l9.7-2.3l0,0l2.2-0.5l1.9-1.9L400.1,394.7z M390.7,419.5l0-2l0-5.7l0-0.8l0-0.9l0-0.7l0-1.7l0-0.3l0-3.1l-1.9,1.9l0,0.5    l0,0.3l0,1.7l0,2.3l0,1.4l0,0.3l0,2.8l0,3.3l0,3.8l0,1.3l0,1.8l0,1l1.2-0.3l0.7-0.2l0-5.3L390.7,419.5z M389.6,374l5.6-1.3l0,0    l1.9-0.5l0.4-0.1l10.4-2.5l1.2,2.5l1.7,3.4l0.1,6.8l0,0.7l0,0.2l0,3.7l0,1.1l-0.4,1l-0.3,0.8l-0.1,0.2l-0.1,0.3l-0.2,0.5l-0.5,1.3    l1.2-1l0,0l0.5-0.4l0.2-0.6l0.1-0.3l1.3-3.7l0-0.7l0-1.5l0-2l0-0.1l-0.1-8.3l-2.9-5.9l-0.7,0.2l-6.1,1.5l-5.5,1.3l-0.1,0l-2.9,0.7    l-3.9,0.9l-3.7,0.9l-4.8,1.2l-1.9,0.5l0.6,1.3l0.2-0.1l0.7-0.2l5.2-1.2L389.6,374z M364.7,427l-0.3,0.3l-3,0.7l-2.6,0.6l-0.8,0.2    l-1.7,0.4l-6.3,1.5l1.6-4.2l0-0.1l0.1-0.4l0-0.4l0-1.4l0-0.6l0-1.4l0-1.8l0-0.7l0-4.9l0-0.2l0-1.2l0-1.9l-1,0.2l-1,0.2l0,1.5    l0,0.5l0,0.3l0,2.5l0,3.5l0,0.7l0,4l0,0.8l0,0.7l0,1.5l-1.7,4.6l10.6-2.5l0.1,0l1.6-0.4l0.3-0.1l1.7-0.4l0.3-0.3l0.5-0.4l1.6-1.3    l2.2-1.8l0,0.9l0,3.5l0,1l0,1l1.3-0.3l0.6-0.1l0-7.8L364.7,427z M354.2,382.5l2-0.5l6.4-1.5l2-0.5l2.1-0.5l0,2v0l0,2.7l0,1    l0.5,0.2l1.4,0.5l0-2l0-0.6l0-4.8l0-0.9l-3.7,0.9l-3,0.7l-5.3,1.3l-1.1,0.3l-1.3,0.3l-9.9,2.4l-3.2,0.8l0.6,1.3l1-0.2l2.2-0.5    L354.2,382.5L354.2,382.5z M359.9,403.7l0,1.5l0,2l0,1.8l0,1l1.9,0.7l0-5.1l0-2.4v-0.4l0-0.3l0-2.6l-3.1,2.6l0,0l-1.2,1l-1,0.2    l-4.4,1l-0.4,0.1l0-4.8l0-3.6l0-0.7l0-0.1l0-0.5l0-0.8l0-4l-1-1.9l-1.9,1.9l1,1.9l0,1.1l0,2.3l0,0.2l0,1.2l0,4.7l0,5.1l0.7-0.2    l5.1-1.2l0.8-0.7l0.6-0.5l1.8-1.5l0.4-0.4l0.8-0.7l0,0.7v0.2L359.9,403.7z M99.9,404.4l0-6.7l0-0.3l-1.9,1.9l0,2.6l0,1.3l0,1.6    l0,5l0,1.5l0,1.6l0,11.2l0,1l1.9-0.5l0-12.6L99.9,404.4z M111.8,355.2l10.7-2.6l3.2,6.5l0.4,0.9l0,5.2l0,7.4l0,4.2l-0.5,1.2    l-0.4,1l-0.4,1.2l-0.2,0.4l-0.5,1.4l1.3-1.1l0.4-0.4l0.2-0.5l0.2-0.6l1.7-4.5l0-1.6l0-8.5l0-5.5l0-1.1l-0.5-1.1l-0.6-1.2l-2.5-5.1    l-6.8,1.6l-16.6,4l-14.4,3.5l0.6,1.3l1-0.2l13.4-3.2L111.8,355.2z M114.9,387l0.1-0.2l0.4-1.1l-5.3,1.3l-5.3,1.3l0,0l-5,1.2l0-5.8    l0-2.7l0-2.1l0-7.5l0-0.7l0-2.2l-0.5-1.2l-1.1-2.6l-1.9,1.9l1.1,2.5l0.6,1.3l0,1.4l0,9.6l0,3.9l0,6.1l6.9-1.7l0,0l10-2.4    L114.9,387z M129,411.1l-0.5-1.1l-0.2-0.4l0-6.6l0-6l0-0.3l0-0.6l0-0.1l-0.2-0.4l-2.1-3.8l-2.3-0.9l-0.7-0.2l-6-2.3l-0.8,0.7    l-1.3,1.1l1.6,0.6l0.9,0.3l6.3,2.4l0.4,0.1l1.1,1.9l1.2,2.1l0.1,0.2l0,0.1l0,5.4l0,8.1l0.2,0.4l2.4,4.8l0.4,0.8l0,0l2.6-0.6    l-0.3-0.6L129,411.1z M281.6,437.4l-0.1-24l0-6.7l0-1.9l0-0.4l1.9-4.9l0,0l0.6-1.6l-2.2,0.5l-3.4,0.8l-5.1,1.2l-1.8,0.4l0.6,1.3v0    l0,0l0,0l1-0.2l0.9-0.2l5.1-1.2l3.1-0.7l-1.5,3.9l-0.4,1l-0.6,1.5l0,0.4l0,7.2l0.1,24l0,5.1l0,4.4l1.8,3.9l0.4,0.9l2.5-0.6    l-2.8-6.1L281.6,437.4z M314.2,439.3l-2.7,0.6l-6.3,1.5l1.7-4.8l0.1-0.3l0-0.4l0-2v-0.1l0-2.3l0-0.3l0-2.5l0-6.6l-0.1-14.9l0-1.5    l0-3l0-1l-1.3-2.5l-1.9,1.9l1.3,2.5v0.1l0,2.5l0,1.5l0.1,14.9l0,3.1l0,2.3l0,2.7l0,0.9l0,2.1l0,1.4l0,1.4l0,1.6l-1.9,5.2l10.6-2.5    l0.3-0.1l3-0.7l1.9-1.9l-2.8,0.7L314.2,439.3z M329,402l0-6.8l0-1.5l-2.3-4.6l-0.6-1.3l-3.1,0.8l-1.5,0.4l-2.2,0.5l-8.3,2l-4.1,1    l-1.3,0.3l-9,2.2l0.6,1.3l0,0l0,0l1-0.2l6.8-1.6l6.6-1.6l1.8-0.4l8.6-2.1l1.6-0.4l0.6-0.1l2.9,5.9l0,6.8l0,1.8l0.2,31.1l-1.1,2.8    l-0.3,0.7l-0.8,1.9l-0.4,1.1l1.3-0.3l0.6-1.6l0.3-0.7l2.3-5.9l-0.1-22L329,402z M209.8,344.6l-4.7,1.1l0.6,1.3l1-0.2l3.1-0.8    l4.2-1l-2.5,6.4l0,7.6l0.1,19.8l0.1,10l0,1.5l0,1.5l0,0.1l-0.2,0.5l-0.5,1.1l-1.2,3.2l-0.2,0.6l-0.4,1.1l1.3-0.3l0.7-1.7l0.6-1.5    l1.8-4.5l0.1-0.4l0-0.4l-0.2-31l0-5.5l0-3.5l2.5-6.4L209.8,344.6z M195.4,396.7l-2-3.6l0-3.1l0-1.9l0-0.7l0-2l0-3.5l0-3.6    l-0.1-14.9l0-9l2.5-6.5l-8.9,2.1l-0.4,0.1l-3.5,0.9l0.6,1.3l1-0.2l2.6-0.6l0.4-0.1l6.3-1.5l-2.5,6.5l0,7.5l0.1,20.8l0,2.7l0,0.5    l0,2.1l0,5l2,3.6l8.3-2l1.8-0.4l1.9-1.9l-4.4,1.1L195.4,396.7z M302.3,369.4l0-8.1l0-0.7l0-0.3l0-2.1l0-5.4l-1,0.8l-1,0.8l0,1.7    l0,3.7l0,1.4l0,0.7l0,9.6l1.6,3.4l0,0l0.2,0.4l0.4,0.9l2.5-0.6l-0.6-1.3l0,0L302.3,369.4z M276.9,369.7l0.1,7.3l1.6,3.5l0,0    l0.2,0.4l0.4,0.9l2.5-0.6l-0.6-1.3l0,0l-2.2-4.8l-0.1-8.1l0-0.7l-0.1-8.3l-1.9,1.9l0,6.8l0,0.7L276.9,369.7z M289,348.9l-1.2,0.3    l0,0l-1.4,0.3l-6.8,1.6l-0.9,0.2l0-5.5l0-2.9l0-1.3l0-0.9l0-3l0-0.5l0-3.2l0.6-1.5l0.7-1.8l1.2-3.1l-4.5,1.1l-2.3,0.6l-1.9,0.4    l-3.5,0.8l0.6,1.2l0,0.1l0.1,0l0.9-0.2l2-0.5l2.5-0.6l3.4-0.8l0.8-0.2L279,330l-1.1,2.7l-0.7,1.9l-0.1,0.2l-0.4,1v0l0,2.3l0,3.9    l0,1.3l0.1,9.9l2.2-0.5l7.4-1.8l1.4-0.3l0,0l3.9-0.9l1.9-1.9l-1.1,0.3L289,348.9z M302.1,323.9l0.6-0.2l-1,2.6l-1.5,3.9l0,4.7    l0,0.6l0,1l0,1.3l0,0.5l0,8.6l0,0.1l0.2,0.1l4.9,1.6l1.1,0.4l2.3-1.8l-6.6-2.1l0-5l0-2.7l0-0.7l0-0.6l0-2l0-5.7l0.5-1.3l2.1-5.2    l-1.9,0.5l-4.7,1.1l-5.5,1.3l0.6,1.3l1-0.2l5.4-1.3L302.1,323.9z M110.8,267.9l2.2,1.4l1.3-5.8c0,0,0,0,0,0c0,0,0,0,0-0.1l3.9,4.7    l1.6-7.4l3.5,3.8l1.1-7.3c0.6,0,1.4,0,2.1,0.1c0.1-0.6,0.1-1.3,0.3-2c0,0-0.8-0.3-2-0.6c-0.2,0-0.3-0.1-0.5-0.1l-1.1,2.7l-1.3,3.1    l-1.6-1.8l-0.3-0.4l-1-1.1l-0.5,1.1l-0.7,1.8l-1.2,3l-0.9-0.9l-0.9-0.9l-0.5-0.5l-0.1-0.1l-0.2-0.2c-0.2,0.2-0.4,0.4-0.5,0.5    c-1.5,1.6-3.2,3.5-5,5.7c-2.2,2.7-4.5,6-6.7,9.7c0,0,1.4,0.2,3.9-0.1C107.2,273.4,109,270.5,110.8,267.9z M123.3,278.1l3.2,4.3    c-0.3,0.3-0.6,0.6-1,1L121,283l2,2.9c-1.1,1-2.3,2-3.5,3c1.4-0.7,2.7-1.5,4-2.4c1.3-0.9,2.6-1.9,3.8-3c0,0,0.1,0,0.1-0.1    c0.5-0.5,1.1-0.9,1.6-1.4l-1-1l-1.9-2l3.6,0.2l2.1,0.1c0.7-0.7,1.4-1.5,2-2.2c0.1-0.1,0.2-0.2,0.2-0.3c0.3-0.4,0.7-0.8,1-1.2    l-1.3-1.4l-1.4-1.5l2.5,0.2l2.5,0.2c0.8-0.9,1.4-1.8,1.9-2.4c0.7-1,1.1-1.6,1.1-1.6s-0.4-0.1-1-0.3c-0.4-0.1-0.8-0.3-1.3-0.5    c-1.4-0.5-3.1-1.1-4.5-1.8c-0.2-0.1-0.5-0.2-0.7-0.3c0,0-0.1,0.2-0.4,0.5c-1.8,2.3-9.9,12.3-19,15.3c-10.3,3.3-13.2-0.9-13.2-0.9    l-3.4,2.6c1.1,1.5,3.2,2.9,7.4,2.7C111,286.2,117.9,282.6,123.3,278.1z M132.9,267.4l3.1,3.4l-5.5,0.1    C131.4,269.7,132.2,268.5,132.9,267.4z M129.6,272l3,3.8c-0.3,0.4-0.7,0.8-1,1.2l-7,0.1C126.5,275.4,128.1,273.7,129.6,272z     M166.8,112.1c-6.6,1.4-14.5,3.8-21,7.9c0,0-4.8,14.2-6.8,26.2C144.7,130.3,157.3,118.5,166.8,112.1z M124.1,236.9    c-7.5,10-17,15.8-17,15.8c0.2-0.3,0.3-0.6,0.5-0.9c-1.8,2.3-3.9,4.4-6.3,6.2c0,0,3-4.8,4.1-10.2c0,0-1.2-6-6.6-13.5    c0,0,8-4.5,17-3.1c0-0.1,0-0.2,0-0.2s-10.7-5.3-16.1-5.2c-12.5,0.2-25.4,7.1-27.3,8.2l-0.3,0.1c0,0,4.3-10.8,10.4-17.4    c-9.3,1.7-15.5,4-15.5,4c-0.5,19-13.5,34-13.5,34c4.2,10.3,10.1,17.1,10.1,17.1c11.7,2.4,24.4-2.4,24.4-2.4c0,0,0,0,0,0l8.5-4.3    c0,0-8,11.3-15.4,16.1c5.7-0.2,9.4-1.6,9.4-1.6c11.6-16.9,32.2-32.6,32.2-32.6c8.4-0.1,20.1,2.6,20.1,2.6    C135.7,242.3,124.1,236.9,124.1,236.9z M90.9,262.8c0,0-8.4-1.7-13.3-8.2c0,0,3.2-9,9.7-14.8c0,0-0.5-0.6-1.7-1.4    c-1.7,1.1-6.7,5.2-12.6,16.1c0,0-0.9-9.6,5.2-18.8c0,0,0.1,0,0.2,0c0,0,0,0-0.1,0c0,0,7-1.6,15.9,0.4c0,0,5.8,7.1,7.5,12.5    C101.8,248.6,94.9,259.3,90.9,262.8z M136,291.7c3.8-5.9,5.1-16.1,5.1-16.1c-18.2,27.2-38.2,21.6-38.2,21.6    c6.7,4.7,14.3,5,19.7,4.4c-2.6-0.1-5.7-0.5-9.2-1.7c0,0,12.3,1,21.5-9.3c0,0-1.7,5.5-4.3,9.1c3-1.6,5.8-3.7,8.2-6.4    c0,0-0.1,4.5-0.6,7.8c1.9-1.2,3-2.2,3-2.2c0.3-6.3,1.4-13.3,1.4-13.3C140.7,288.6,136,291.7,136,291.7z M126.6,201.7    c1.9-1.6,6.3-5.9,13.3-11.4c7.6-8.2,17.3-19.7,25.6-33.3c0,0,9.7-1.3,16.8-5.3v0c-9.7,2.2-19.3,0.1-19.3,0.1    c-14.9,18.9-30,32-30,32c6.7-13.7,11-31.3,11-31.3c-13.2,21.9-32.2,40.1-32.2,40.1c3.4,1.6,7.1,3.7,11.1,6.5    C124.2,199.9,125.4,200.8,126.6,201.7z M244.4,149.9c1.1-2.2,1.6-3.5,1.6-3.5c-2.7-12.1-13.2-25.3-13.2-25.3    c-7.6,3.7-23,5.1-23,5.1c6.6,2,18.3,2.3,18.3,2.3c-12.4,12.9-29.5,22.1-29.5,22.1c4.7,3.4,12.8,5.1,12.8,5.1    c-13,2.1-23.1-2.1-23.1-2.1l-10.1,7.7c-3,3-6.9,6.8-11.3,10.9c0.2-0.1,0.4-0.2,0.6-0.3c0,0-19,22.5-29.6,39.7    c3.1,3.2,5.9,6.4,8.4,9.4c2-1.6,8.5-6.6,16.6-10.8c3.4-2.9,7.3-5.7,11.9-8.4c-11.3,2.5-23.6,8.2-23.6,8.2    c9.7-15.9,32.7-35,60.5-47.3c0.9-0.6,1.3-0.9,1.3-0.9c-0.2,0.2-0.3,0.4-0.5,0.5c0.1,0,0.1-0.1,0.2-0.1c-0.3,0.2-0.5,0.5-0.8,0.8    c-14.7,16.2-15.8,35.7-15.8,35.7c0,0,0,0,0,0C197.1,196.2,212.5,158,244.4,149.9z M208.5,150.7c0,0,14.6-6.8,23.1-18.3    c0,0,1.6,5.2-0.3,9.9C231.4,142.4,223.2,152.4,208.5,150.7z M173.4,140.1c14.7-21.4,26-27.8,28-29c4.9-1.4,10.5-1,16.4,0    c-5.1-2.6-13.9-5.5-24.9-2.8c0,0-12.5,5.5-29.6,33.6C167.1,141.3,172.8,141,173.4,140.1z M269,109.2c0,0,10.9,0,19.9-3.6    c0.9-0.4,6.7-10.4,9.4-18.9c0,0-8,11.3-16.7,16.5c0,0,2.7-5.7,1.6-12.1C283.2,91.1,278.7,105.6,269,109.2z M247.8,109.7    c0.7-3.8,3.3-16.1,9.3-22.9c0,0,15.2-2,24.9-6.5c-8.5,1.5-19,3-29.5,3.5c0,0,0,0,0,0c0,0-7,10.1-9.5,22.1    C242.9,106,244.7,108,247.8,109.7z M324.8,194.3c16.9,28.5,18.7,64.4,16.6,92.1c-3.6-26-9.4-43.2-9.4-43.2s0.7,19.4-8,43.7    c-24.6-14.5-50.4-17.1-56.5-17.5c-0.1,0-0.2,0.1-0.4,0.1c0,0,25,8,51.7,30c0.1,0.1,0.1,0.1,0.2,0.2c3.5,2.9,7,6,10.5,9.4    c1.1,1.1,2.3,2.2,3.4,3.4c1.5,1.5,2.9,3,4.3,4.6c2.4,2.6,4.7,5.3,7,8.2c4.3,5.4,8.4,11.2,12.3,17.5c1,1.7,2,3.4,3,5.2l0.3-0.1    c0.1-0.8,0.4-2.9,0.8-6.1c2.2-20.6,5.9-86-28.2-139.6C328.4,197.7,324.8,194.3,324.8,194.3z M209.9,221.3c0,0-0.2,0.3-0.4,0.8    c-0.5,0.8-1.3,2.2-2.4,3.9c-1.8,2.7-4.4,5.9-7.4,8.5c0,0,24.7-3.5,38.5-8.6c0,0,4-3.4,9.2-9.6c-4.6,4.1-12.6,9.1-23.2,8.3    c-3-0.2-5.4-0.9-7-1.6c22.9-7.8,36.6-18.9,42.3-24.8l0,0c2.1-4,4-8.4,5.7-13.1C265.1,185.1,239,207.7,209.9,221.3z M301.1,179.6    c-5.3-1.7-11.1-3.2-16.6-3.7c0,0-4.1,28-22.5,56.7c0,0,0.3-0.1,0.8-0.3C269.4,227,289.2,209,301.1,179.6z M415.3,269.5    c0.1-0.6,0.2-0.8,0.2-0.8s-0.5-1.9-1.7-5.4c-4.5-12.8-18.3-46.5-49.4-79.5c27.7,41.1,39,87,39,87s-0.5-1-1.5-2.8    c-1.8-3.6-3.8-7.1-5.8-10.5c0.1,0.2,0.2,0.4,0.2,0.5c0,0-15-24.7-38.8-49.9c11.8,16.4,34.4,53.3,40,102.4c0,0.1,0.1,0.2,0.1,0.3    c4.6-7.9,8.1-15,10.7-21C412.9,279,414.8,271.8,415.3,269.5z M298.1,267.2c0,0-0.2,0-0.5-0.1c5.6,1.1,8.6,2.3,8.6,2.3    c-7.7-8.1-15.4-13.2-22.7-16.1c20.9-23.6,25-54.5,25-54.5s-2.2,3.3-5.8,8.5c0.1-0.1,0.2-0.2,0.3-0.3c0,0-10.9,23.4-31.4,43.1    c-2.8,2.7-5.8,5.3-8.9,7.8c0,0,6.5,0.3,14.5,1.9C284,261,292,263.3,298.1,267.2z M193.2,142c0,0-4.9,1-8.5-0.3    c3.1,2.5,8.4,2.2,9.1,2.2c0,0,0.1,0,0.1,0c7.3-3.4,11.3-9.8,11.3-9.8c-6.1-1.2-11.9,0-11.9,0c-0.3,0.2-0.6,0.4-0.9,0.6    c0,0,0,0,0,0c0,0,4.1-0.4,7.9,1.1C200.2,135.8,197.3,140.2,193.2,142z M161.5,256.1c-0.7-1.4-1.5-2.6-2.5-3.6    c-1.7-1.9-3.7-3-5.5-3c-0.4,0-0.8,0-1.1,0.1c-1.4,0.3-2.7,1.3-3.7,2.9c-1.1,1.8-1.8,4.4-1.8,7.1c0,1.7,0.1,3.4,0.5,5.1    c0.7,3.4,2.3,6.5,4.3,8.7c0.3,0.3,0.6,0.6,0.9,0.9c1.5,1.3,3.1,2.1,4.5,2.1h0c0.4,0,0.7,0,1.1-0.1c1.4-0.3,2.7-1.3,3.7-2.9    c1.1-1.8,1.8-4.4,1.8-7.1c0-1.7-0.1-3.4-0.5-5.1C162.9,259.3,162.3,257.6,161.5,256.1z M159.6,270.7c0.2-0.8,0.2-1.6,0.3-2.4    c0-1.4-0.1-2.8-0.4-4.2c-0.6-2.7-1.8-5.3-3.4-7c-1.3-1.4-2.4-1.8-2.9-1.8c-0.1,0-0.2,0-0.2,0c-0.5,0.1-1,0.8-1.3,1.3c0,0,0,0,0,0    c0.2-1.1,0.6-2.1,1-2.9c0.3-0.5,0.8-1.2,1.3-1.3c0.1,0,0.1,0,0.2,0c0.5,0,1.6,0.4,2.9,1.8c1.6,1.7,2.8,4.2,3.4,7    c0.3,1.4,0.5,2.8,0.4,4.2C160.9,267.5,160.4,269.4,159.6,270.7z M261.6,143.5c-0.4,0-0.7,0-1.1,0.1c-1.4,0.3-2.7,1.3-3.7,2.9    c-1.1,1.8-1.8,4.4-1.8,7.1c0,1.7,0.1,3.4,0.5,5.1c0.7,3.4,2.3,6.5,4.3,8.7c1.7,1.9,3.7,3,5.5,3l0,0c0.4,0,0.7,0,1.1-0.1    c1.4-0.3,2.7-1.3,3.7-2.9c1.1-1.8,1.8-4.3,1.8-7.1c0-1.7-0.1-3.4-0.5-5.1c-0.7-3.4-2.3-6.5-4.3-8.7    C265.4,144.7,263.4,143.6,261.6,143.5z M269,159.5c-0.1,2.1-0.5,4-1.3,5.3c0.2-0.8,0.2-1.6,0.3-2.4c0-1.4-0.1-2.8-0.4-4.2    c-0.6-2.7-1.8-5.3-3.4-7c-1.3-1.4-2.4-1.8-2.9-1.8c-0.1,0-0.2,0-0.3,0c-0.5,0.1-1,0.8-1.3,1.3c0,0,0,0,0,0c0.2-1.1,0.6-2.1,1-2.9    c0.3-0.5,0.8-1.2,1.3-1.3c0.1,0,0.1,0,0.3,0c0.4,0,1.6,0.4,2.9,1.8c1.6,1.7,2.8,4.2,3.4,7C268.9,156.8,269,158.2,269,159.5z     M471,407.8l-0.8-0.7l1.6-1.5l-0.1-21.2l-1.5-3.1l-0.2-46.8l-38.5,9.2v-4.2l9.8-17.2l-32.2,7.7c-0.8-3.3-1.7-6.7-2.5-9.8    c16.7-27.6,21.4-48.8,21.5-49.3l0.5-2.2l-1-2l0,0c0,0,0,0,0,0l0,0l0,0c-0.2-0.4-1.7-4-1.7-7.1c0-1.9,0.4-3.4,1.5-4.6    c1.1-1.3,3.2-2.8,8.2-3.8c2.7-0.5,5.4-0.7,8-0.7c6.2,0,12,1.2,16.2,2.4c2.1,0.6,3.8,1.2,4.9,1.6c0.6,0.2,1,0.4,1.3,0.5    c0.1,0.1,0.2,0.1,0.3,0.1c0,0,0,0,0,0l9.7,4.5l-0.8-10.6c-1.3-16.4-7.9-28.4-14.1-36.2c-1.6-2-3.2-3.7-4.6-5.1    c15.3-9.8,20.3-26.4,20.3-26.4l-4.7,0.9c2-2.9,3.5-5.8,4.6-8.4c3-7.1,3.2-12.5,3.2-13l0.7-17.8l-11.5,13.3    c-0.3,0.2-2.8,2.7-8.5,2.7c-1.9,0-4.1-0.3-6.8-1c-2.8-0.8-5.1-2.1-7.3-3.9c-3.3-2.7-6.4-6.7-10.2-11.2c-3.8-4.5-8.2-9.5-14.5-13.7    c-7.3-4.9-14.1-7.7-19.2-9.2c2.4-9.6-0.1-19.6-0.1-19.6l-8.2,5.3c-0.5,0.4-1.6,0.8-2.9,1.3c6.4-11.2,7.7-21,7.6-26.2    c-0.2-7.7-2.9-15-2.9-15s-3.3,3.9-8.1,7.8c-4.8,4-15.9,8.7-23.5,8.7c-6.2,0-13.2-1.9-21.7-5.8c-10.3-4.7-18-6.8-23.3-7.6    c0.2-1.6,0.3-2.7,0.3-2.8l0.7-9.1l-8.7,2.7c-3,0.9-5.7,1.7-8,2.3c0-0.2,0-0.4,0-0.6c0-9.5-3.2-16-3.4-16.5l-5.9-12.1l-1.9,4.3    c-1.3-8.2-4.2-14.7-7.1-19.5c-3.9-6.5-7.9-9.9-8.2-10.2l-8.6-7.3l-1.6,11.2c-0.6,4.5-2,8-3.9,10.5c-1.8,2.5-4,4.1-6.8,5.1    c-2.1,0.7-5.4,1-9.2,1c-1.5,0-3.1,0-4.8,0c-2.5,0-5.2,0.1-8,0.4c-4.9,0.6-9.3,1.7-13.1,3.1l2-4.2l-11.5,1.6    c-23.4,3.3-33.2,13.3-34,14.2l-0.5,0.5l-0.4,0.6c-0.2,0.4-0.5,0.8-0.7,1.3c-0.8-2.5-1-5.2-1-7c0-0.7,0-1.2,0-1.6    c0-0.2,0-0.3,0-0.4c0,0,0,0.4,0-0.1c0.4-5,0.3-3.6,2.1-11.8c0,0-5.4,1.1-12.1,6.1c-6.3,4.7-11.2,11.8-13.3,18.1    c0,0-5.4,2.6-10,9.3c-3.3,4.8-5.1,11.3-5.1,17.2c0,5.5,1.3,10.9,3.8,15.8c-18.9,13.6-27.3,27.4-27.6,27.8l-2,3.3l2.1,3.3l0,0l0,0    c0.3,0.4,3.3,5.9,3.2,10.4c0,0.3,0,0.6,0,0.8c-0.6,9.6-7.5,21.3-14.6,30.1c-3.5,4.4-7.1,8.2-9.7,10.8c-0.9,0.9-1.7,1.7-2.4,2.3    c-0.2,0-0.5,0-0.7,0c-3,0-5.3,0.3-5.5,0.3l-1.9,0.2L57.2,202l1.5,2.5c-18.4,10.7-26.1,20.1-26.5,20.6l-4.6,5.8l6.4,3.5    c0.2,0.1,1.3,0.9,2.2,2c1.1,1.3,1.9,3,1.9,5.5c0,0.2,0,0.4,0,0.6c-0.1,2.2-1.2,4-2.4,5.4c-0.6,0.7-1.2,1.2-1.6,1.6    c-0.2,0.2-0.4,0.3-0.5,0.3l0,0l-4.2,2.6l1.6,4.7c6.6,18.7,19,30.3,19.4,30.7l1,0.9l1.3,0.4c9.9,3.4,20.8,4.9,27.9,5.7    c-0.1,0.1-0.1,0.2-0.1,0.3c0,0,0,0.1,0,0.1l-2.1,3.9l3,3.2c4.6,5.1,9.9,7.7,14,9c1.2,0.4,2.3,0.7,3.2,0.9l1.9,4.7l3,0.8    c5.8,1.6,11.2,2.2,16,2.2c10.9,0,19.3-3.3,25-6.7c5.6-3.4,8.6-6.7,8.9-7.1l1.4-1.6l0.1-2.1c0.3-6.6,0.7-10.9,1.4-14.2    c0.2,0,0.4,0,0.6,0c0.2,0,0.3,0,0.4,0c1.2,0,2.4-0.1,3.5-0.4c5.2-1.2,9.1-4.6,11.5-8.5c2.3-3.9,3.4-8.4,3.6-13c0-0.3,0-0.6,0-0.8    c0-1.8-0.2-3.6-0.5-5.5c2-1.8,4-3.3,5.7-4.6c0.4-0.3,0.8-0.6,1.2-0.9c4.1,1.8,6.2,4,7.7,6.3c1.7,2.7,2.3,5.9,2.3,8.9    c0,2.2-0.3,4.2-0.6,5.6c-0.2,0.7-0.3,1.3-0.4,1.6c-0.1,0.2-0.1,0.3-0.1,0.4c0,0,0,0,0,0l-3.8,10.3l10.8-2c7.6-1.4,14.6-2,21.1-2    c6,0,11.5,0.5,16.5,1.4C169,289,147,327.2,147,327.2s27.3-9.5,49.8-10.4c-5.5,2.5-8.6,4.5-8.8,4.6l-22.6,14.9l-8.8,2.1l-0.2,0    l-15.8,3.8l-6.3-12.9l-74.2,17.8L72,371.5l0,10.5l-26.4,21l26.6,8.5l0,4.7l-14.6,37.5l54.9-13.2l0,0l22.3-5.4l0,0l44.2-10.6l0,0    l20.7-5l2.9,6l0,10.5l-26.4,21l26.6,8.5l0,4.7l-14.6,37.5l60.7-14.6v0l40.1-9.6l-6.3-12.8l42.8-10.3l25.4-6.1l0,0l47.6-11.4l0,0    l10.9-2.6l35-8.4l2.9-0.7l20.1-4.8l5-5.9l1.5-1.8l0.2-2.3l-2.1-6.4L471,407.8z M471.1,416.8c-1.5,3.4-7,3.8-10.2,4.6    c-0.6,0.1-1.1,0.3-1.7,0.4l-14.8,3.5l-5.1,1.2c0,0-23.4,5.6-23.4,5.6l-6.5,1.6l-0.4,0.1c0,0-7,1.7-7,1.7l-6.5,1.6l-8.3,2    c0,0-25.7,6.2-25.7,6.2l-7.7,1.9l-11.4,2.7l-7.7,1.9l-19.8,4.7l-7.4,1.8l-27.9,6.7c0,0-1.7,0.4-1.7,0.4l-4.8,1.1c0,0,2.9,6,2.9,6    l3.3,6.8l-30.6,7.4l-2.3,0.5l-3.3-6.8l-0.3-0.6l-0.6-1.3l0,9.7l-2.3,0.5l-41.3,9.9l10.5-27.1l0-3.8l0-6.9l-6.5-2.1l-12.9-4.1    L203,444l6.1-4.8l0-8.3l0-6.8l-2.9-6l-2.9-6l-6.5,1.6l-12.1,2.9l-2.1,0.5l-2.8-5.8l-2.8,7.2l-0.8,0.2l-20.7,5    c0,0-17.1,4.1-17.1,4.1l-6.5,1.6l-13.6,3.3L116,433l-4.3-8.6l0,9.7l-2.3,0.5l-41.3,9.9l10.5-27.1l0-3.8l0-6.9l-6.5-2.1l-12.9-4.1    l13.3-10.6l6.1-4.8l0-8.3l0-6.9l-8.9-18.2l61.2-14.7l3.4,6.9l2.9,6l6.5-1.6l15.8-3.8c0,0,6.5-1.6,6.5-1.6l1.1-0.3l14.2-3.4    l0.4-0.1l33.2-8c0,0,0.1,0,0.1,0l7.5-1.8c0,0,0.1,0,0.1,0l0.2,0l4-1c0,0,8.6-2.1,8.6-2.1l1.9-0.5c-4.1-1-8.3-1.7-12.3-2    c-1.9-0.2-3.9-0.3-5.7-0.3c-9.6-0.3-18,0.8-23,1.7c0,0,0,0-0.1,0c-0.5,0.1-0.9,0.2-1.4,0.2c-0.2,0-0.4,0.1-0.6,0.1    c0,0-0.1,0-0.1,0c-0.3,0.1-0.6,0.1-0.8,0.2c-0.1,0-0.1,0-0.2,0c-0.1,0-0.2,0-0.3,0.1c-0.1,0-0.3,0.1-0.4,0.1c-0.1,0-0.1,0-0.2,0    c-0.1,0-0.1,0-0.2,0c0,0-0.1,0-0.1,0c-0.1,0-0.2,0-0.2,0.1c0,0,0,0-0.1,0c0,0-0.1,0-0.1,0s0,0,0.1-0.1c0,0,0.1-0.1,0.2-0.1    c0,0,0,0,0,0c0.1,0,0.2-0.1,0.3-0.2c0,0,0.1,0,0.1-0.1c0.1-0.1,0.2-0.1,0.4-0.2c0.1,0,0.1-0.1,0.2-0.1c0.1-0.1,0.3-0.2,0.5-0.3    c0.1,0,0.1-0.1,0.2-0.1c0.2-0.1,0.4-0.2,0.6-0.3c0.1,0,0.2-0.1,0.2-0.1c0.2-0.1,0.5-0.2,0.7-0.4c0.1,0,0.2-0.1,0.3-0.1    c0.3-0.1,0.5-0.3,0.8-0.4c0.1-0.1,0.2-0.1,0.3-0.2c0.3-0.1,0.6-0.3,0.9-0.4c0.1-0.1,0.2-0.1,0.3-0.2c0.3-0.2,0.7-0.3,1-0.5    c0.1-0.1,0.2-0.1,0.4-0.2c0.4-0.2,0.7-0.3,1.1-0.5c0.1-0.1,0.3-0.1,0.4-0.2c0.4-0.2,0.8-0.3,1.2-0.5c0.1-0.1,0.3-0.1,0.4-0.2    c0.4-0.2,0.8-0.3,1.3-0.5c0.2-0.1,0.3-0.1,0.5-0.2c0.4-0.2,0.9-0.3,1.4-0.5c0.2-0.1,0.3-0.1,0.5-0.2c0.5-0.2,0.9-0.3,1.4-0.5    c0.2-0.1,0.3-0.1,0.5-0.2c0.5-0.2,1-0.3,1.5-0.5c0.2-0.1,0.4-0.1,0.5-0.2c0.5-0.2,1.1-0.3,1.6-0.5c0.2-0.1,0.4-0.1,0.6-0.2    c0.5-0.2,1.1-0.3,1.7-0.5c0.2-0.1,0.4-0.1,0.6-0.2c0.4-0.1,0.8-0.2,1.1-0.3c0.2-0.1,0.4-0.1,0.6-0.2c0.2-0.1,0.4-0.1,0.6-0.2    c0.6-0.1,1.2-0.3,1.8-0.4c0.2,0,0.4-0.1,0.7-0.1c0.6-0.1,1.3-0.3,1.9-0.4c0.2,0,0.5-0.1,0.7-0.1c0.7-0.1,1.3-0.2,2-0.3    c0.2,0,0.5-0.1,0.7-0.1c0.7-0.1,1.4-0.2,2.1-0.3c0.2,0,0.5-0.1,0.7-0.1c0.7-0.1,1.4-0.2,2.1-0.2c0.2,0,0.5,0,0.7-0.1    c0.7-0.1,1.5-0.1,2.2-0.2c0.2,0,0.5,0,0.7,0c0.8,0,1.5-0.1,2.3-0.1c0.2,0,0.5,0,0.7,0c0.8,0,1.6,0,2.4,0c0.2,0,0.5,0,0.7,0    c0.4,0,0.7,0,1.1,0c0,0,0,0,0,0c-8.2-1.9-16.1-2.9-23.5-3.3c-28.9-1.6-50.4,5.7-50.4,5.7s46.3-40.4,114.8-17.3    c0,0-29.6-29.2-83.5-19.1c0,0,8.9-24-15.4-32c0,0-6.6,4.3-12.9,10.3c0.2,0.6,0.3,1.2,0.5,1.9c0.5,2.2,0.7,4.4,0.6,6.5    c-0.1,3.7-1,7.2-2.7,10c-1.7,2.8-4.2,4.9-7.4,5.6c-0.8,0.2-1.7,0.3-2.5,0.2c-1.7-0.1-3.4-0.5-4.9-1.3c-2.1,5-3,10.7-3.5,21.4    c0,0-14.8,17.3-43.6,9.6l-2.1-5.2c0,0-9.6-0.2-17-8.4c0,0,2.3-4.4,2.8-8.9c0,0-18.8-0.8-34-6c0,0-11.8-11.2-17.8-28.2    c0,0,6.9-4.3,7.3-12.3C44.9,233.3,37,229,37,229s8.5-10.6,30.3-22.2l-2.1-3.6l18.9-16.7c0,0,4.2-0.5,7.7-0.1    c0,0,28.9-25.2,30.7-49.1c0.5-7.6-4.1-15-4.1-15s9.5-15.4,30.8-29.4c-7-8.7-8.4-21.8-2-31.3c0,0,1.6,10,11.5,11.3    c0,0-10.7-20.7,10.5-37.2c0,0-2,15.9,9.6,22.5c0,0,0.8-6,3.6-11c0,0,8.4-9.1,30.2-12.2c0,0-3.1,6.5-4.3,10.9    c0,0,9.4-9.3,26.8-11.4c7.9-1,16.6,0.6,23.2-1.6c8-2.7,13.4-10,14.9-20.6c0,0,18.4,15.6,12.8,44.8c0,0,6-3.2,8.7-9.3    c0,0,4.9,10.3,1.6,22.6c0,0,6.6-1.2,17.3-4.6c0,0-0.4,5.3-2.2,9c0,0,8.7-1.7,28.8,7.4c20.1,9.1,34.2,9,52.3-4.6    c0,0,3.1,17.8-15.1,38.1c0,0,14.1-0.8,20.2-4.7c0,0,1,7.2-4.9,13.3c0,0,11.8,1,25.6,10.2c14.6,9.7,18.7,25.4,33.7,29.6    c15,4.2,21.6-3.5,21.6-3.5s-0.7,19.1-19.7,29.7c0,0,5.7,0.9,11-0.2c0,0-6,11.3-19.8,16.5c0,0,21.4,13,23.8,43    c0,0-16.5-7.7-34.4-4.5c-22.8,4.2-12.4,24.5-12.4,24.5s-4.8,21.8-22.2,49.8c1.1,3.6,2.3,8,3.3,12.1c0.1,0.5,0.2,1,0.3,1.4    c0.3,1.6,0.6,3,0.8,4.2l4.7-1.1l20.9-5l-4,7v13.8l5.7-1.4l32-7.7l0.1,24.8l0.1,15.2l0.6,1.2l0.9,2l0,4.5c0,0,0.1,14.9,0.1,15    c0,0,1.3-0.4,1.4-0.4c0.5-0.1,0.9-0.1,1.3,0c0.9,0.3,1.6,0.9,2.1,1.7c1.1,1.5,1.8,3.4,1.9,5.3c0.1,1.8-0.2,3-0.8,4.6    C471.2,416.7,471.2,416.7,471.1,416.8z"/>
		<path class="st4" d="M415.7,346.2l0.6-0.9v-2.7l-0.6-0.5l-3.1,0.7l-0.6,0.9v2.7l0.6,0.5L415.7,346.2z M388,349.4l-0.6-0.5    l-3.1,0.7l-0.6,0.9v2.7l0,0l0.1,0.1l0.5,0.4l0.4-0.1l0.1,0l2.6-0.6l0.1,0l0.6-0.9V349.4z M397.8,347.1v2.7l0.6,0.5l3.2-0.8    l0.6-0.9V346l-0.6-0.5l-3.1,0.7L397.8,347.1z M78.3,235.7C78.4,235.7,78.4,235.7,78.3,235.7c3.5,0.6,5.9,1.8,7.3,2.8    c1.1,0.8,1.7,1.4,1.7,1.4c-6.5,5.9-9.7,14.8-9.7,14.8c5,6.5,13.3,8.2,13.3,8.2c4-3.5,10.9-14.2,10.9-14.2    c-1.7-5.5-7.5-12.5-7.5-12.5C85.3,234,78.3,235.7,78.3,235.7z M86.3,252.1c0,0,0.8,2.7,2,4.9c0,0-4.2-1.3-6.2-3.5    c0,0,0.7-2.7,2.8-4.7c0,0,4-2,11.8-0.9C96.7,247.9,89.1,250.4,86.3,252.1z M471.9,404l-1.1,0.3v0l-1,0.2l-4.4,1l-0.1-15l0-4.5    l-0.9-2l-0.6-1.2l-0.1-15.2l-0.1-24.8l-32,7.7l-5.7,1.4V338l4-7l-20.9,5l-4.7,1.1c-0.2-1.2-0.5-2.6-0.8-4.2    c-0.1-0.5-0.2-0.9-0.3-1.4c-0.9-4.1-2.2-8.5-3.3-12.1c17.4-28,22.2-49.8,22.2-49.8s-10.4-20.3,12.4-24.5    c17.8-3.2,34.4,4.5,34.4,4.5c-2.3-30-23.8-43-23.8-43l0,0l0,0c13.8-5.1,19.8-16.5,19.8-16.5c-5.3,1.1-11,0.2-11,0.2    c18.9-10.5,19.7-29.7,19.7-29.7s-6.7,7.7-21.6,3.5c-15-4.2-19.1-19.9-33.7-29.6c-13.8-9.2-25.6-10.2-25.6-10.2    c5.9-6.1,4.9-13.3,4.9-13.3c-6.1,3.9-20.2,4.7-20.2,4.7c18.2-20.4,15.1-38.1,15.1-38.1c-18.1,13.7-32.2,13.8-52.3,4.6    c-20.1-9.1-28.8-7.4-28.8-7.4c1.8-3.8,2.2-9,2.2-9c-10.6,3.3-17.3,4.6-17.3,4.6c3.3-12.3-1.6-22.6-1.6-22.6    c-2.7,6.2-8.7,9.3-8.7,9.3c5.5-29.3-12.8-44.8-12.8-44.8c-1.5,10.6-6.9,17.9-14.9,20.6c-6.7,2.2-15.3,0.6-23.2,1.6    c-17.3,2.1-26.8,11.4-26.8,11.4c1.2-4.4,4.3-10.9,4.3-10.9c-21.9,3.1-30.2,12.2-30.2,12.2c-2.8,5-3.6,11-3.6,11    c-11.6-6.6-9.6-22.5-9.6-22.5c-21.2,16.6-10.5,37.2-10.5,37.2c-9.9-1.4-11.5-11.3-11.5-11.3c-6.4,9.5-4.9,22.6,2,31.3    c-21.4,13.9-30.8,29.4-30.8,29.4s4.6,7.3,4.1,15c-1.7,23.9-30.7,49.1-30.7,49.1c-3.5-0.4-7.7,0.1-7.7,0.1l-18.9,16.7l2.1,3.6    C45.5,218.3,37,229,37,229s7.9,4.4,7.3,13.9c-0.5,8-7.3,12.3-7.3,12.3c5.9,17.1,17.8,28.2,17.8,28.2c15.2,5.2,34,6,34,6    c-0.4,4.5-2.8,8.9-2.8,8.9c7.4,8.2,17,8.4,17,8.4l2.1,5.2c28.8,7.8,43.6-9.6,43.6-9.6c0.5-10.7,1.4-16.4,3.5-21.4    c1.5,0.8,3.2,1.2,4.9,1.3c0.8,0,1.7-0.1,2.5-0.2c3.2-0.7,5.8-2.9,7.4-5.6c1.7-2.8,2.6-6.2,2.7-10c0.1-2.1-0.1-4.3-0.6-6.5    c-0.1-0.6-0.3-1.3-0.5-1.9c6.3-6,12.9-10.3,12.9-10.3c24.4,8,15.4,32,15.4,32c53.9-10.1,83.5,19.1,83.5,19.1    c-68.5-23.1-114.8,17.3-114.8,17.3s21.5-7.3,50.4-5.7c7.4,0.4,15.3,1.4,23.5,3.3c0,0,0,0,0,0c-0.4,0-0.7,0-1.1,0    c-0.2,0-0.5,0-0.7,0c-0.8,0-1.6,0-2.4,0c-0.2,0-0.5,0-0.7,0c-0.8,0-1.5,0.1-2.3,0.1c-0.2,0-0.5,0-0.7,0c-0.7,0.1-1.5,0.1-2.2,0.2    c-0.2,0-0.5,0-0.7,0.1c-0.7,0.1-1.4,0.2-2.1,0.2c-0.2,0-0.5,0.1-0.7,0.1c-0.7,0.1-1.4,0.2-2.1,0.3c-0.2,0-0.5,0.1-0.7,0.1    c-0.7,0.1-1.3,0.2-2,0.3c-0.2,0-0.5,0.1-0.7,0.1c-0.6,0.1-1.3,0.2-1.9,0.4c-0.2,0-0.4,0.1-0.7,0.1c-0.6,0.1-1.2,0.3-1.8,0.4    c-0.2,0.1-0.4,0.1-0.6,0.2c-0.2,0.1-0.4,0.1-0.6,0.2c-0.4,0.1-0.8,0.2-1.1,0.3c-0.2,0.1-0.4,0.1-0.6,0.2c-0.6,0.2-1.1,0.3-1.7,0.5    c-0.2,0.1-0.4,0.1-0.6,0.2c-0.5,0.2-1.1,0.3-1.6,0.5c-0.2,0.1-0.4,0.1-0.5,0.2c-0.5,0.2-1,0.3-1.5,0.5c-0.2,0.1-0.4,0.1-0.5,0.2    c-0.5,0.2-1,0.3-1.4,0.5c-0.2,0.1-0.3,0.1-0.5,0.2c-0.5,0.2-0.9,0.3-1.4,0.5c-0.2,0.1-0.3,0.1-0.5,0.2c-0.4,0.2-0.9,0.3-1.3,0.5    c-0.1,0.1-0.3,0.1-0.4,0.2c-0.4,0.2-0.8,0.3-1.2,0.5c-0.1,0.1-0.3,0.1-0.4,0.2c-0.4,0.2-0.7,0.3-1.1,0.5c-0.1,0.1-0.2,0.1-0.4,0.2    c-0.3,0.2-0.7,0.3-1,0.5c-0.1,0.1-0.2,0.1-0.3,0.2c-0.3,0.2-0.6,0.3-0.9,0.4c-0.1,0.1-0.2,0.1-0.3,0.2c-0.3,0.1-0.5,0.3-0.8,0.4    c-0.1,0-0.2,0.1-0.3,0.1c-0.2,0.1-0.5,0.3-0.7,0.4c-0.1,0-0.2,0.1-0.2,0.1c-0.2,0.1-0.4,0.2-0.6,0.3c-0.1,0-0.1,0.1-0.2,0.1    c-0.2,0.1-0.3,0.2-0.5,0.3c-0.1,0-0.1,0.1-0.2,0.1c-0.1,0.1-0.3,0.2-0.4,0.2c0,0-0.1,0-0.1,0.1c-0.1,0.1-0.2,0.1-0.3,0.2    c0,0,0,0,0,0c-0.1,0-0.1,0.1-0.2,0.1c-0.1,0-0.1,0.1-0.1,0.1s0,0,0.1,0c0,0,0,0,0.1,0c0.1,0,0.1,0,0.2-0.1c0,0,0.1,0,0.1,0    c0.1,0,0.1,0,0.2,0c0.1,0,0.1,0,0.2,0c0.1,0,0.3-0.1,0.4-0.1c0.1,0,0.2,0,0.3-0.1c0.1,0,0.1,0,0.2,0c0.3-0.1,0.5-0.1,0.8-0.2    c0,0,0.1,0,0.1,0c0.2,0,0.4-0.1,0.6-0.1c0,0,0,0,0,0c0.4-0.1,0.9-0.2,1.3-0.2c0,0,0,0,0.1,0c5-0.9,13.4-2,23-1.7h0    c1.9,0.1,3.8,0.2,5.7,0.3c4,0.4,8.2,1,12.3,2l-1.9,0.5l0,0l-8.6,2.1l-4,1l-0.2,0l0,0l-0.1,0l-7.5,1.8l0,0l-0.1,0l-33.2,8l-0.4,0.1    l-14.2,3.4L166,343v0l-6.5,1.6l-15.8,3.8l-6.5,1.6l-2.9-6l-3.4-6.9l-61.2,14.7l8.9,18.2l0,6.9l0,8.3l-6.1,4.8l-13.3,10.6l12.9,4.1    l6.5,2.1l0,6.9l0,3.8l-10.5,27.1l41.3-9.9l2.3-0.5l0-9.7l4.3,8.6l2.3-0.5l13.6-3.3l6.5-1.6l0,0l17.1-4.1l20.7-5l0.8-0.2l2.8-7.2    l2.8,5.8l2.1-0.5l12.1-2.9l6.5-1.6l2.9,6l2.9,6l0,6.8l0,8.3L203,444l-13.3,10.6l12.9,4.1l6.5,2.1l0,6.9l0,3.8l-10.5,27.1l41.3-9.9    l2.3-0.5l0-9.7l0.6,1.3l0.3,0.6l3.3,6.8l2.3-0.5l30.6-7.4l-3.3-6.8l0,0l-2.9-6l4.8-1.1l0,0l1.7-0.4l27.9-6.7l7.4-1.8l19.8-4.7    l7.7-1.9l11.4-2.7l7.7-1.9l0,0l25.7-6.2l8.3-2l6.5-1.6l0,0l7-1.7l0.4-0.1l6.5-1.6v0l23.4-5.6l5.1-1.2l6.4-1.5l8.4-2l7.6-1.8    l3.9-0.9l0,0l3.4-0.8L472,406L471.9,404z M409.2,343.4l1.3-1.9l0.5-0.7l6.2-1.5l0.5,0.5l1.3,1.3v10.3l-1.8,2.6v0l-0.9,0.2l-0.1,0    l-5.3,1.3l0,0l-0.6-0.6l-0.9-0.8l-0.2-0.2v-2.2l0.2-0.2l2.4-0.6l0.2,0.1v1l0.6,0.5l3.1-0.7l0.7-1v-3.4l-1,1.3l-4.4,1.1l-0.9-0.9    l-0.8-0.8V343.4z M403.1,342.6l0.5,0.5l1.3,1.3v10.3l-1.2,1.8l-0.6,0.9l-4.7,1.1l-1.7,0.4l-0.6-0.6l-1-1v-2.2l0.2-0.2l2.4-0.6    l0.2,0.1v1.1l0.6,0.5l1.5-0.4l1.5-0.4l0.7-1v-3.4l-1,1.3l-4.4,1.1l-0.9-0.9l-0.8-0.8v-4.7l1.3-1.9l0.5-0.8l2-0.5L403.1,342.6z     M306.9,86.5c0,0,4.3-2.9,13.9-1.9c9.7,1,21.3,11,37.2,11.6c14.5,0.6,24.2-4.5,25.7-5.4c0.1-0.1,0.2-0.1,0.2-0.1    s-7.2,19.6-28.2,30.7c0,0-0.1,0-0.1,0.1c0,0,2.8,0.7,7.2,1.1c0.7,0.1,1.4,0.1,2.2,0.2c4.8,0.3,11,0.2,17.2-1.2    c1.7-0.4,3.5-0.9,5.2-1.5c0,0-0.3,0.3-0.8,0.9c-1.9,1.9-6.7,6.4-12.6,9.7c0,0,16-1.6,32.1,5.8c17.2,7.9,19.4,21,33.5,30.4    c9.1,6.1,19.8,5.3,20.2,5.2c0,0,0,0,0,0s0,0-0.1,0.1c0,0,0,0,0,0c0,0-0.1,0.1-0.1,0.2c0,0,0,0,0,0c-0.9,1.1-4.3,4.9-11.7,7.9    c-5.7,2.3-13.9,4.2-25.1,4h0c0.1,0.1,0.2,0.2,0.4,0.2c1,0.6,1.9,1.3,2.8,2c2.9,2.3,5.8,4.9,10.1,6.7c1,0.5,2.2,0.9,3.4,1.2    c2.2,0.6,4.7,1,7.7,1.2c0.1,0,0.1,0,0.2,0c0,0,0,0,0,0h0c0,0,0.1,0,0.1,0c0,0,0,0,0,0c-0.2,0.2-7.3,8.1-22.7,6.4    c-0.1,0-0.2,0-0.3,0c0,0,26.7,10.9,34.8,36.4c0,0,0,0,0,0c0,0-25.1-8.6-38.1-2.5c0,0-2-3-5.9-8.2c-0.3-0.4-0.6-0.8-1-1.3    c-1.3-1.7-2.8-3.7-4.5-5.8c-1.3-1.7-2.8-3.5-4.3-5.4c16.7-5,33.3,2.9,33.3,2.9c-15.8-14.9-37.3-15.8-44.4-15.7    c-8.4-9.3-18.6-19.7-30.5-30.3c11.2-9.7,31.7-5,31.7-5c-11.4-8.2-27.3-8.7-27.3-8.7c28.5-9.2,48.5,4.5,48.5,4.5    c-3.2-3.7-9.9-9.8-20.5-14c-6.1-2.4-13.4-4.2-22.2-4.5c-19.8-0.7-34.4,3.2-38.9,4.7c-2.2-1.6-4.4-3.1-6.6-4.6    c-1.1-0.7-2.2-1.5-3.2-2.2c8.9-7.7,29.7-10,29.7-10c-2.5-0.3-4.8-0.5-7.1-0.6c-17.4-0.9-27.8,3-31.7,4.8c-1.7-1-3.4-2-5-3    c-1-0.6-1.9-1.1-2.9-1.7c-1.5-0.9-3.1-1.7-4.7-2.6c-1.2-0.6-2.3-1.2-3.5-1.9c0,0,12,17.4,20.5,32.5c0,0-13.1-10.8-29.9-15.4    c0,0,0,0,0,0c0-0.2,0.2-3.3,0.2-7.5c0-0.3,0-0.7,0-1c0-2-0.1-4.2-0.3-6.5c-0.2-3-0.6-6.1-1.4-8.8c0,0,0,0,0,0    c0.4-0.5,5.8-7,14.4-11.5c1.9-1,3.9-1.9,6-2.6c12.5-4.1,28.1,5.7,49.2-2.9c-19.7,3.2-41-16.7-56.1-8.4    C304.8,91.9,306.9,86.5,306.9,86.5z M211.7,162.7c-4.6,3.2-20,15.1-32.1,36.3c-0.4,0.7-0.8,1.3-1.1,2c-2.8,5.1-5.4,10.7-7.6,16.9    l-15.7,15.8c-0.9-1.4-1.9-3-3.1-4.7c3.4-10.1,11.2-19.1,11.2-19.1c-0.2,0.1-0.3,0.2-0.5,0.2c-8.1,4.2-14.6,9.2-16.6,10.8    c-2.4-3-5.2-6.2-8.4-9.4c10.6-17.2,29.6-39.7,29.6-39.7c-0.2,0.1-0.4,0.2-0.6,0.3c-11.5,6.4-20.4,12.8-27,18.1    c-7,5.6-11.3,9.8-13.3,11.4c-1.2-0.9-2.4-1.8-3.7-2.6c-4.1-2.8-7.8-4.9-11.1-6.5c0,0,19-18.2,32.2-40.1c0,0-4.4,17.6-11,31.3    c0,0,15.1-13.2,30-32c0,0,9.6,2.1,19.3-0.1v0l-4.8,10.1l0.6-0.5l10.1-7.7c0,0,10.1,4.2,23.1,2.1c0,0-8.1-1.7-12.8-5.1    c0,0,17.1-9.2,29.5-22.1c0,0-11.7-0.3-18.3-2.3c0,0,15.4-1.4,23-5.1c0,0,10.5,13.2,13.2,25.3c0,0-0.5,1.2-1.6,3.5    c-3.5,7.1-13.4,24.2-35.2,45c0,0-5.5,2.6-13,3.9c0,0,0,0,0,0c0,0,1.1-19.5,15.8-35.7c0.2-0.2,0.4-0.4,0.6-0.7    c0.2-0.2,0.3-0.4,0.5-0.5C213,161.8,212.5,162.1,211.7,162.7z M176.2,143.7c-9.7,0.4-13-1.6-13-1.6c0-0.1,0.1-0.1,0.1-0.2    c17.1-28,29.6-33.6,29.6-33.6c11-2.6,19.8,0.2,24.9,2.8c3.2,1.6,5,3.2,5,3.2c-5.2,5.6-16,8-16,8c0.2-2.2,2.2-6,2.2-6    C189.5,125.7,176.2,143.7,176.2,143.7z M205.2,134.1c0,0-4,6.4-11.3,9.8c0,0,0,0-0.1,0c-0.7,0-6.1,0.3-9.2-2.2    c0,0,3.7-4.1,7.6-6.9c0,0,0,0,0,0c0.3-0.2,0.6-0.4,0.9-0.6C193.2,134,199.1,132.8,205.2,134.1z M216.1,99.6c2.6,0.6,5,1.4,7.4,2.3    c14.5,5.6,24.9,16,31.5,24.6c0,0,0.1,0.1,0.1,0.1c0.3,0.4,0.6,0.7,0.8,1.1c0,0.1,0.1,0.1,0.1,0.2c0.3,0.4,0.6,0.8,0.9,1.2    c0,0,0,0,0.1,0.1c2.5,3.6,4.3,6.6,5.4,8.5c-0.2,0-0.3,0-0.5,0c-0.8,0-1.7,0.1-2.5,0.2c-1.7,0.4-3.2,1.1-4.4,2.2    c-1.1,0.9-2,1.9-2.7,3.1c-1-3.3-2.3-6.4-3.8-9.4c-0.5-1-1-1.9-1.5-2.9C235.4,111,216.1,99.6,216.1,99.6z M265.5,95.1    c0,0,5.1-1.1,10.6-3.2c0,0-5.7,10.1-16,12.7C260.2,104.5,266,100.2,265.5,95.1z M256.9,146.6c1-1.6,2.2-2.6,3.7-2.9    c0.4-0.1,0.7-0.1,1.1-0.1c1.8,0,3.8,1.2,5.5,3c2,2.2,3.5,5.3,4.3,8.7c0.4,1.7,0.5,3.4,0.5,5.1c-0.1,2.7-0.7,5.2-1.8,7.1    c-1,1.6-2.2,2.6-3.7,2.9c-0.4,0.1-0.7,0.1-1.1,0.1l0,0c-1.8,0-3.7-1.2-5.5-3c-2-2.2-3.5-5.3-4.3-8.7c-0.4-1.7-0.5-3.4-0.5-5.1    C255.1,150.9,255.8,148.4,256.9,146.6z M271.5,142.6c-0.4-0.5-0.9-0.9-1.4-1.3l0,0c2.1-2.5,4.1-5.5,5.9-8.5c0.7-1.2,1.4-2.4,2-3.5    c3.8-7.1,6.2-13.4,6.2-13.4c0.1,1.2,0.2,2.5,0.3,3.7c0.6,16-6.3,31.9-7.4,34.3c-0.9-4-2.6-7.5-4.8-10.2    C272,143.3,271.8,142.9,271.5,142.6z M269,109.2c9.7-3.6,14.2-18.1,14.2-18.1c1.1,6.4-1.6,12.1-1.6,12.1    c8.8-5.2,16.7-16.5,16.7-16.5c-2.8,8.5-8.5,18.5-9.4,18.9C279.9,109.2,269,109.2,269,109.2z M300.5,76.5    c-15,11.1-39.7,15.6-39.7,15.6c-7.3,8.7-6.3,19.9-6.3,19.9c-2.6-0.3-5-1.2-6.8-2.3c-3-1.7-4.8-3.8-4.8-3.8    c2.5-12,9.5-22.1,9.5-22.1c0,0,0,0,0,0h0c10.5-0.6,21-2.1,29.5-3.5C292.9,78.4,300.5,76.5,300.5,76.5z M147.6,73.8    c-0.1-0.5-0.1-0.8-0.1-0.8s3.4,4.5,11.3,5.1c4.8,0.3,8.4,1.1,10.2,1.5c0.6,0.1,1,0.2,1.1,0.3c0,0,0.1,0,0.1,0    c-1.1-1.2-2-2.4-2.8-3.5c-6.5-9.2-5.7-17.6-4.3-22.1c0,0,0-0.1,0-0.1c0.1-0.4,0.3-0.8,0.4-1.2c0-0.1,0.1-0.2,0.1-0.3    c0.1-0.4,0.3-0.7,0.4-1c0.1-0.2,0.2-0.4,0.3-0.6c0-0.1,0.1-0.1,0.1-0.2c0.1-0.2,0.2-0.4,0.2-0.4c1.3,5.4,5.8,12.7,13.4,15.5    c7.7,2.8,13.1,5.5,13.1,5.5c-0.1-11.4,7.4-17.8,7.4-17.8c0,0,0,0,0,0.1c-0.2,1.8-0.3,3.4-0.3,4.9c0,2.2,0.2,4,0.4,5.4    c0.4,2.8,1,4.3,1,4.3c0,0,0-0.1,0.1-0.1c6.3-13.7,16.5-21,24.8-24.9c0.1,0,0.2-0.1,0.3-0.2c7.5-3.4,13.5-4,13.5-4    c-0.9,0.4-1.7,0.9-2.4,1.3c-10.6,6.3-12.6,16.1-12.7,16.7c0,0,0,0,0,0c10.7-14.8,23.1-10.8,36.1-15.6c8.9-3.3,13.1-9.9,14.8-13.6    c0.8-1.7,1.1-2.9,1.1-2.9c0.1,0.2,0.2,0.4,0.3,0.6c0.2,0.4,0.4,0.8,0.6,1.2c3.2,6.5,4.6,12.8,4.8,18.5c0.3,6.5-0.8,12.1-2,16.3    c-1.4,4.8-3.1,7.7-3.1,7.7c0,0,0,0,0,0c8.9-2.3,14.5-6.6,14.5-6.6c0,0.1,0,0.1-0.1,0.2c-1,4-2.9,7.8-4.4,10.3c0,0-2.9,1.1-8.1,2    c-2,0.4-4.3,0.7-7,0.9c-1.3,0.1-2.7,0.2-4.2,0.3c-5.8,0.3-10,0.5-12.9,0.7c-3.5,0.2-4.9,0.4-4.9,0.4c-7.4,6.7-11.9,17.5-11.9,17.5    c-3.6-0.6-7.7-1.1-7.7-1.1c-2.3-5.4-0.3-18.4,9.9-25.5c10.1-7.1,18.8-16.8,18.8-16.8c-7.5,6.1-25.3,10.7-33.2,17.2    c-7.9,6.4-11,14.1-11,14.1c-2.2-11.6,2-19.6,2-19.6c-2.1,2-3.7,4.1-5.1,6.3c-8,12.7-4.6,26.4-4.6,26.4l-4.4,1.9l-6.7,2.9    c-3.5-7.1-12.6-11.4-12.6-11.4c3.5,5.6,3.3,13.7,3.3,13.7c-6.1-7.1-13.4-8.1-25.1-11.7c-4.6-1.4-7.6-4.6-9.5-7.9    C148.6,79.5,147.9,75.5,147.6,73.8z M139,146.2c2-12,6.8-26.2,6.8-26.2c6.5-4.1,14.5-6.5,21-7.9c7.3-1.5,12.9-1.8,12.9-1.8    c-22.6,13.9-41,37.5-41,37.5C138.8,147.3,138.9,146.8,139,146.2z M127.5,128c-0.1-0.2-0.1-0.3-0.2-0.3    C127.4,127.7,127.4,127.8,127.5,128c15.5,26.6-22.7,59.9-22.7,59.9l-4.3-0.9C137.2,152.2,129,131,127.5,128z M48,227.9    c0,0,2.8-0.9,6.1-1.7c0,0,5.5,6.7-1.9,18.2C52.1,244.4,56.3,233.5,48,227.9z M96.7,283.7L96.7,283.7l3.4-2.6c0,0,2.9,4.3,13.2,0.9    c9.1-2.9,17.2-12.9,19-15.3c0.2-0.3,0.4-0.5,0.4-0.5c0.2,0.1,0.5,0.2,0.7,0.3c1.4,0.6,3.1,1.3,4.5,1.8c0.5,0.2,1,0.3,1.3,0.5    c0.6,0.2,1,0.3,1,0.3s-0.4,0.6-1.1,1.6c-0.5,0.7-1.1,1.5-1.9,2.4l-2.5-0.2l-2.5-0.2l1.4,1.5l1.3,1.4c-0.3,0.4-0.7,0.8-1,1.2    c-0.1,0.1-0.2,0.2-0.2,0.3c-0.6,0.7-1.3,1.5-2,2.2l-2.1-0.1l-3.6-0.2l1.9,2l1,1c-0.5,0.5-1,0.9-1.6,1.4c0,0-0.1,0-0.1,0.1    c-1.2,1-2.5,2-3.8,3c-1.3,0.9-2.6,1.7-4,2.4c-0.5,0.3-1,0.5-1.6,0.7c-11.9,5.1-18.1,0.1-18.1,0.1L96.7,283.7z M127.6,264    c-9.5,9-17.3,11.5-21.7,12.2c-2.5,0.4-3.9,0.1-3.9,0.1c2.2-3.8,4.5-7,6.7-9.7c1.8-2.2,3.5-4.1,5-5.7c0.2-0.2,0.4-0.4,0.5-0.5    l0.2,0.2l0.1,0.1l0.5,0.5l0.9,0.9l0.9,0.9l1.2-3l0.7-1.8l0.5-1.1l1,1.1l0.3,0.4l1.6,1.8l1.3-3.1l1.1-2.7c0.2,0,0.4,0.1,0.5,0.1    c1.3,0.3,2,0.6,2,0.6c-0.1,0.7-0.2,1.3-0.3,2C126.3,261.5,127.6,264,127.6,264z M140.8,261.4c-3.5-4.5-8.8-6.1-8.8-6.1l8.7,0.9    C140.7,256.2,140,259.2,140.8,261.4z M141.2,298.8c0,0-1.1,0.9-3,2.2c-4.2,2.7-12.4,6.9-22,5.8c0,0,6.4-1.6,12.2-5.7    c0.4-0.3,0.9-0.6,1.3-1c0.1-0.1,0.2-0.1,0.3-0.2c0,0-3,1.1-7.3,1.6c-5.4,0.6-13,0.3-19.7-4.4c0,0,20,5.6,38.2-21.6    c0,0-1.3,10.2-5.1,16.1c0,0,4.7-3.1,6.7-6.2C142.7,285.5,141.6,292.6,141.2,298.8z M122.6,247.1c0,0-20.6,15.7-32.2,32.6    c0,0-3.7,1.4-9.4,1.6c-2.5,0.1-5.3,0-8.4-0.6c0,0,9.1-4,15.3-11.3c0,0,0,0,0,0c0,0-12.8,4.8-24.4,2.4c0,0-5.8-6.8-10.1-17.1    c0,0,13-15,13.5-34c0,0,6.2-2.3,15.5-4c5.1-0.9,11.2-1.7,17.8-1.7c0,0-15.5,4.7-28.2,19.1c0,0,0.1-0.1,0.3-0.1    c2-1.1,14.9-7.9,27.3-8.2c5.5-0.1,16.1,5.2,16.1,5.2s0,0.1,0,0.2c-0.4,1.4-2.9,11.1-8.1,20.7c-0.2,0.3-0.3,0.6-0.5,0.9    c0,0,9.5-5.8,17-15.8c0,0,11.6,5.4,18.6,12.8C142.7,249.7,131,247,122.6,247.1z M144.9,247.8c-1.1-1.9-3-4.8-5.6-8.3    c-0.3-0.4-0.6-0.7-0.8-1.1c-0.1-0.1-0.1-0.2-0.2-0.3c-0.3-0.4-0.6-0.7-0.8-1.1c-6.3-8.1-15.9-18.5-28.5-26.4    c-16.2-10.2-26.7-10.5-31.8-9.7c-2.5,0.4-3.7,1.1-3.7,1.1l4.6-3.7l6.8-5.4c0,0,3.3-1.7,10-0.9c5.8,0.7,14.2,3.4,25.2,10.8    c12.8,8.7,22.3,20,28.3,28.5c0.2,0.2,0.3,0.5,0.5,0.7c4.7,6.7,7.1,11.5,7.1,11.5l-0.3,0.2c-0.6-0.1-1.2-0.2-1.8-0.2    c-0.8,0-1.7,0.1-2.5,0.2c-1.5,0.3-2.8,1-3.9,1.8C146.4,246.2,145.6,247,144.9,247.8z M162,273.2c-1,1.6-2.2,2.6-3.7,2.9    c-0.4,0.1-0.7,0.1-1.1,0.1h0c-1.4,0-3-0.8-4.5-2.1c-0.3-0.3-0.6-0.6-0.9-0.9c-2-2.2-3.5-5.3-4.3-8.7c-0.4-1.7-0.5-3.4-0.5-5.1    c0.1-2.7,0.7-5.2,1.8-7.1c1-1.6,2.2-2.6,3.7-2.9c0.3-0.1,0.7-0.1,1.1-0.1c1.8,0,3.8,1.2,5.5,3c0.9,1,1.8,2.3,2.5,3.6    c0.8,1.5,1.4,3.2,1.8,5c0.4,1.7,0.5,3.4,0.5,5.1C163.7,268.9,163.1,271.4,162,273.2z M173.4,245.8    C173.4,245.8,173.4,245.8,173.4,245.8c-0.8,0.9-1.5,1.7-2.3,2.6c-1.4,1.7-2.8,3.4-4.3,5.3c-0.3-0.6-0.6-1.2-1-1.7    c-0.8-1.3-1.6-2.4-2.5-3.5c-1-1.1-2-2-3.2-2.7c-0.8-0.5-1.7-1-2.6-1.4c2-2.7,4-5.1,6-7.4l0.1-0.1c0.7-0.8,1.5-1.7,2.2-2.5    c0,0,0,0,0,0c22.9-25.2,42.5-28.5,72.7-61.8c0.5-0.6,1-1.1,1.6-1.7c3.1-3.4,6.2-7.2,9.5-11.3c0,0.1,0,0.3,0.1,0.4    c0.2,1,0.5,2,0.9,3c1.1,3.2,2.8,6.1,4.8,8.3c0.9,0.9,1.8,1.8,2.8,2.5C220.8,218.7,200.3,215.3,173.4,245.8z M207,226    c1.1-1.6,2-3,2.4-3.9c0.3-0.5,0.4-0.8,0.4-0.8c29.1-13.6,55.2-36.2,55.2-36.2c-1.6,4.7-3.6,9.1-5.7,13.1    c-3.9,7.4-8.3,13.5-12.1,18.1c-5.1,6.2-9.2,9.6-9.2,9.6c-13.9,5.1-38.5,8.6-38.5,8.6C202.7,231.9,205.2,228.6,207,226z     M242.9,240.2c-20,6.1-43.2,4.6-43.2,4.6c17-2.7,29.4-5.5,41.1-10.2c21.9-17.8,29.6-40.2,29.6-40.2    C265.9,218,255,231.7,242.9,240.2z M267.2,269.5c0.1,0,0.2-0.1,0.4-0.1c16.5-4.3,27.7-2.7,30.1-2.2c0.3,0.1,0.5,0.1,0.5,0.1    c-6.1-3.9-14.1-6.2-20.9-7.5c-8-1.6-14.5-1.9-14.5-1.9c3.1-2.5,6.1-5.1,8.9-7.8C292.2,230.4,303,207,303,207    c-0.1,0.1-0.2,0.2-0.3,0.3c-16.7,16.3-36,23.7-40,25.2c-0.5,0.2-0.8,0.3-0.8,0.3c18.4-28.7,22.5-56.7,22.5-56.7    c5.5,0.5,11.3,1.9,16.6,3.7c10.2,3.3,18.4,7.4,18.4,7.4c-9.5-12.8-27.5-26.1-27.5-26.1c25.1,9.3,47.7,28.3,65.5,47.1    c23.9,25.2,38.8,49.9,38.8,49.9c-0.1-0.2-0.2-0.4-0.2-0.5c-21.7-52.6-62.6-101.1-62.6-101.1c11.8,8.8,22,18.1,30.8,27.5    c31.1,33,44.9,66.7,49.4,79.5c1.2,3.5,1.7,5.4,1.7,5.4s-0.1,0.3-0.2,0.8c-0.5,2.3-2.4,9.5-7,20.1c-2.6,6-6.1,13.1-10.7,21    c0-0.1-0.1-0.2-0.1-0.3C375.3,240,332.3,202,332.3,202c0,0,0,0,0,0.1c34.1,53.6,30.4,119,28.2,139.6c-0.3,3.2-0.6,5.2-0.8,6.1    l-0.3,0.1c-1-1.8-2-3.5-3-5.2c-3.8-6.3-8-12.1-12.3-17.5c-2.3-2.9-4.6-5.6-7-8.2c-1.4-1.6-2.9-3.1-4.3-4.6    c-1.1-1.1-2.3-2.3-3.4-3.4c-3.5-3.4-7-6.5-10.5-9.4c-0.1-0.1-0.1-0.1-0.2-0.2C292.2,277.4,267.2,269.5,267.2,269.5z M383.9,359.1    l0.3,0.3l3.1-0.7l0.7-1v-3.4l-0.4,0.5l0,0l-0.5,0.7l-1.3,0.3l-3.1,0.7l-1.7-1.7v-4.7l1.3-1.9l0.5-0.8l6.2-1.5l0.5,0.5l0.7,0.7    l0.5,0.5v10.3l-1.2,1.7l-0.6,0.9l-6.3,1.5l-0.3-0.3l-0.3-0.3l-0.9-0.9l-0.1-0.1v-2.2l0.2-0.2l2.4-0.6l0.2,0.1v1L383.9,359.1z     M368.8,353.3l-0.7,0.2l-0.1-0.1v-2.1l0.1-0.2l0.9-0.2l4.4-1.1l0.1,0.1v12.1l2.4-0.6l0.1,0.1v2.2l-0.1,0.2l-7.9,1.9l-0.1-0.1v-2.2    l0.1-0.2l2.4-0.6v-9.8L368.8,353.3z M369.5,345.4c0.2-2,0.3-4,0.4-6c2.5-45.6-7.7-74.8-7.7-74.8c10.8,25.2,14.4,53.7,15.5,72.9    c0.1,2.1,0.2,4,0.3,5.8L369.5,345.4z M345.4,360.3l-0.2-0.1v-2.1l0.2-0.2l8.8-2.1l0.2,0.1v2.1l-0.2,0.2l-3.1,0.7v10.7l-0.1,0.1    l-0.1,0.1l-0.6,0.2l-0.3,0.1l-1.4,0.3l-0.1,0l-0.1-0.1v-10.7L345.4,360.3z M338.4,361.8l-2.8,0.7l-0.5,0.6v2.2l0.4,0.3l4.4-1.1    c0.2-0.1,0.7,0.3,1.3,0.9c0.1,0.1,0.3,0.3,0.4,0.4v4.4l-0.9,1.3l-0.7,1l0,0.1l-5.9,1.4l0,0l-0.7-0.6l-0.3-0.3l-0.6-0.5v-2l0.1-0.2    l2.4-0.6l0.2,0.1v1l0.5,0.5l2.9-0.7l0.5-0.7v-2.2l-0.4-0.3l-4.7,1.1l-1.1-1l-0.3-0.3v-4.3l1.7-2.3l5.9-1.4l1.6,1.4v2l-0.2,0.2    l-2.4,0.6l-0.2-0.1v-0.9L338.4,361.8z M319.3,370.9l-0.3-0.2l-1.4-1l0.4-0.5l1.3-1.6l0,0v-6l0.2-0.3l0.7-0.2l0.9-0.2l1.1-0.3    l5.1-1.2l0.7-0.2l0.2,0.2v2.4l-0.2,0.3l-4.3,1l-1.4,0.3v3.7l1.6-0.4l1.7-0.4l1.8-0.4l0.2,0.2v2.4l-0.2,0.3l-0.5,0.1l-1.6,0.4    l-2.6,0.6l-0.5,0.1v3.9l2.3-0.6l0,0l2.7-0.6l0.7-0.2l0.2,0.2v2.4l-0.1,0.2l0,0.1l-1.4,0.3l-4.2,1l-2.9,0.7l-0.2-0.2L319.3,370.9    L319.3,370.9z M215.9,306.6c4.3-0.6,8.5-1,12.5-1.2c17.5-1,32.3,1,44.8,5.2c3.7,1.2,7.2,2.6,10.4,4.2l-1.5,0.3l-9.4,2.3    c-3.6-1.6-7.1-3-10.6-4.2c-6.2-2.1-12.1-3.6-17.5-4.6c-1.1-0.2-2.1-0.4-3.2-0.6C226.5,305.6,215.9,306.6,215.9,306.6z     M227.6,335.4l11.7-2.8l0.3-0.1l0.1,0l3.8-0.9l5-1.2l9.1-2.2l0.9-0.2h0l0.3-0.1l0,0.7l0,0.8v0l0,3.5l0,4.1l0,5.4l0,1.3l0,4l0,1.4    l-2.4-0.9l-3-1.1l-5-1.8l-4.5,1.1l-0.6,0.2l-2.8,0.7l-0.1,0.3l-0.2,0.5l0,0.5l0,3.6l0,0.8l0,7.9l0.7-0.2l1-0.3l0.4-0.1l11-2.6    l0.3-0.1l0.3-0.1l1.4-0.3l2.1-0.5l6-1.4l-2.9,7.9l-0.3,0.8l-0.1,0.3l-1.8,5l0,7l0,3.8l2.1,4.6l0.1,0.1l1.9,4.1l2-5l0.1-0.2    l0.4-1.1l0.3-0.8l0.4-0.9l1.6-4.2l0-7l0-0.7l0-2.6l-0.1-22l0-3.9l0-3l-2.9-6l0,0l-1.7-3.5l-0.5-0.9l4.1-1l4.4-1l1.7-0.4l0.3-0.1    l5.5-1.3l0.3-0.1l1.2-0.3l0.1,0l1.6-0.4l1.2-0.3l6.5-1.6l0,0l0.8-0.2l3.1-0.7l9.1-2.2l1.4-0.3l1.5-0.4l0.1,0l7.7-1.8l-3.6,8.9    l-0.4,0.9l-1.5,3.8l-0.2,0.6l0,0.6l0,1.1l0,3.9l0,1.3l0,3l0,2.1l0,0.3l0.4,0.1l2.2,0.7l0.3,0.1l0.1,0l6.7,2.1l2.2,0.7l-4.8,3.8    l-1.8,1.4l-1,0.8l-1.2,0.9l0,0l-0.8,0.7l-1.8,1.4l-0.3,0.2l0,4.8l0,2.4l0,2.4l0,4.2l2.2,4.7l0,0l0.8,1.6l0.2,0.3l0.3,0.6v0h0    l1,2.1l0.5,1.1L311,379l-0.5,0.1l-2.3,0.6l-6.4,1.5l-6.6,1.6l-0.4,0.1l-1.8,0.4l-7.6,1.8l0,0l-0.8,0.2l-7.9,1.9l-3.7,0.9l-1.8,0.4    l-0.4,0.1l-1.3,0.3l-0.1,0l-1.5,0.4l-0.1,0l-5.9,1.4v0l-13.8,3.3l-2.2,0.5l-0.1,0l-1.4,0.3l-13.3,3.2l-0.8,0.2l-1.4,0.3l-2.8-5.8    l-1.3-2.6l-0.6-1.3l-0.3-0.6l-0.2-27.9l-0.1-9.6l0-4.1L227.6,335.4z M128.7,422.7l-5.8,1.4l-3.1,0.7l-1.6-3.1l-4.2-8.5l0-10.3    l0-1.9l0-2.4l0-0.7l-0.2-0.4l-0.1,0l-8.7,2.1l-0.2,0l0,0l-0.2,0l0,3.5v0.1l0,10.8l0,8.7l0,2.1l0,3.6l-2.5,0.6l-13.4,3.2l-9.4,2.2    l3.5-9l2.7-6.9l0-2.8l0-8l0-1.4l0-2.3l0-2.5l-0.2-0.1l0,0l-1.5-0.5l-1-0.3l-4-1.3l-5.2-1.7l7.6-6l0,0l2.4-1.9l1.6-1.2l0,0l0.2-0.1    l0-4l0-3l0-1.5l0-8.6l0-3l-5.8-11.8l16.1-3.9l3.1-0.7l26.9-6.5l1.2-0.3l2.2,4.5l3.6,7.3l0,3.5l0,14.6l0,0.7l-2.9,7.6l-1.2,1    l-2.9,2.5l3.3,1.2l0.7,1.2l0.5,1l2.2,4.1l0.3,0.6l0,3.5l0,10.1l2.9,5.8l2.9,5.9L128.7,422.7z M173.7,407.4l-1.4,3.5l-0.6,1.5    l-19.5,4.7l-10.1,2.4l-5-10.3l-0.1-14.1l0-3.1l-0.1-15.4l-0.1-9l4.3-11.4l5.1-1.2l16.3-3.9l6.1-1.5l2.2-0.5l4.8,9.7l0.3,0.6    l0.3,41.7L173.7,407.4z M193.6,407.2l-5.8,1.4l-1.4,0.3l-5-10.3l-0.2-40.4l-2.3-4.7l-2.7-5.6l4.7-1.1l3.6-0.9l0.4-0.1l7.5-1.8    l2-0.5l1-0.2l5.7-1.4l2.1-0.5l8.8-2.1l2.6-0.6l0,0l3-0.7l2.2-0.5l4.2-1l-3.2,8.1l-0.3,0.8l-2,5.1l0,7.1l0.2,32.9v0l0,0.6l-1.7,4.2    l-2.2,5.6l-0.6,1.5L193.6,407.2z M253.5,478.2l-3.1,0.7l-0.2-0.4l-1.4-2.8l-2.5-5l-1.7-3.5l0-10.3l0-1.9l0-2.4l0-0.7l-0.2-0.4    l-0.1,0l-8.7,2.1l-0.2,0l0,0l-0.2,0l0,3.5l0,0.1l0,10.8l0,8.8l0,2.1l0,3.6l-2.5,0.6l-13.4,3.2l-9.4,2.2l3.5-9l2.7-6.9l0-2.9l0-8    l0-1.5l0-2.3l0-2.5l-0.2-0.1l0,0l-1.5-0.5l-1-0.3l-4-1.3l-5.2-1.7l7.6-6l0,0l2.4-1.9l1.6-1.2l0,0l0.2-0.1l0-4l0-3.1l0-1.4l0-8.7    l0-2.9l-3-6.1l-2.8-5.8l8.1-2l8-1.9l0.4-0.1l2.7-0.6l3.1-0.7l10.1-2.4l8.5-2l5.2-1.3l1.2-0.3l2.8,5.8l0,0l2.9,6l0,3.6l0,14.6    l0,0.7l-2.9,7.6l-1.2,1l-2.9,2.5l3.3,1.2l0.7,1.2l0.5,1l2.2,4.1l0.3,0.6l0,3.5l0,10.1l2.9,5.8l1.8,3.6l1,1.9l0,0l0.2,0.4    L253.5,478.2z M331.4,441l-1.8,4.6l-0.6,0.1l-10.9,2.6l-5.8,1.4l-7.6,1.8l-5.9,1.4l-7.5,1.8v0l-4.2,1l-2.6,0.6l-7.3,1.8l-3.4,0.8    l-0.1,0l-0.3,0.1l-1.2,0.3l-7.8,1.9l3.4-9l0.5-1.3l1.3-3.5l0.1-0.2l0-2.3l0-4.7l0-8.2l-0.1-24l-1.5-3.2l-0.7-1.5l0,0l0,0l-0.3-0.6    l-1.6-3.4l-0.8-1.6l1.6-0.4l2.8-0.7l2.1-0.5l5.1-1.2l3.5-0.8l1.7-0.4l0.9-0.2l1.3-0.3l2-0.5l6-1.4l0,0l13.1-3.2l1-0.2l1.9-0.5    l1.1-0.3l2-0.5l8.6-2.1l1.4-0.3l4.8-1.1l0.9-0.2l2.1-0.5l0.1,0l1.7,3.4l3.1,6.3l0.3,0.6l0.1,12.4l0.2,27.1l0,2.1l-1.4,3.7    L331.4,441z M409.4,426.5l-0.4,0.1l-2.3,0.5l-1,0.2l-4.2-8.4l-0.9-1.8l0-6.1l0-0.6l0-1.1l0-4.1l-0.3,0.1l-1.8,0.4l-0.2,0l-0.6,0.1    l0,0l-2.3,0.5l0,1.2l0,1.4l0,1.5l0,5.8l0,5.1l0,8.2l-3.3,0.8l-5,1.2l-4.9,1.2l-2.2,0.5l-1,0.2l-4.5,1.1l-1.7,0.4l0,0l-1.2,0.3    l-14.8,3.6l-0.1,0l-11.2,2.7l-2.2,0.5l-9.4,2.2l2.2-5.7l1.3-3.2l2-5.2l0-3.3l0-0.6l0-3.1l0-0.7l0-1.6l-0.1-10.2l0-1.1l0-8.1l0-3.5    l0-6.9l-2.5-5.2l-0.9-1.8l-1.7-3.4l1.1-0.3l6.8-1.6l8.3-2l3-0.7l0.8-0.2l3.9-0.9l1.7-0.4l5.2-1.2l0.9-0.2l3.7-0.9l2.6-0.6l0.3-0.1    l0.8-0.2v0l3.6-0.9l3-0.7l5.6-1.3l1.3-0.3l2.5-0.6l3-0.7l1.6-0.4l17-4.1l1.4-0.3l5,10.3l0,2.1l0.1,7.9l0,3.2l0,1.3l-1,2.8    l-0.7,1.9l-0.6,1.8l-2.1,1.7l1.2,0.4l2.2,3.9l0.9,1.5l0.4,0.6l0,3.5l0,3.5l0,4.2l2.3,4.6l0.9,1.8l1.5,3l0.5,1L409.4,426.5z     M442.1,418.7l-3.9,0.9l-2,0.5L424,423l-1.2,0.3l0-0.7l0-8.6l0-6.5l0-0.2l0-2.5l0-1.3l0-1.5l2.3,0.9l0.1,0l6,2.2l2,0.7l4.4-1.1    l3.2-0.8l2.4-0.6l0.1-0.3l0.2-0.6l0-0.6l0-3.3l0-0.1l0-0.5l0-0.9l-0.1-0.1L443,397l-1.7-0.3l-2.1-0.3l-0.2,0l-9.9-1.7l0,0l-0.2,0    l-1.6-0.3l-0.6-1.2l-2.5-5l-1.6-3.3l0-0.5l-0.1-14.3l0.8-2l3.1-8.1l0.5-1.4l4.7-1.1l5.8-1.4l3.9-0.9l14.2-3.4l1.1-0.3l0,0.7l0,8.8    l0,3.7l0,2.5l0,4l0,1.5l-2.4-0.9l-4.2-1.6l-2-0.8l-1.6-0.6l-3.1,0.7l-2.8,0.7l-2.8,0.7l-0.3,0.8l0,2.9l0,0.7l1.3,0.2l1.2,0.2    l1.5,0.2l0.3,0l11.8,1.9l0.7,1.4l3.6,7.6v0l0.3,0.6l0,0.3l0.1,16.5l-4.5,11.5L442.1,418.7z M398.3,379.8l-0.7,0.2l0,0l-3,0.7    l0,1.6l0,3.2l0,0.7l0,0.7v0.1l0,2.8v0.1l0,1.2l2.2-0.5l0.8-0.2l0,0l1.9-0.5l0-0.1l0.2-0.5l0-0.5l0-1.7l0-1.3V385l0-0.9l0-2.8    l0-1.5v-0.4l-1.1,0.3L398.3,379.8z M378.5,414.3l0-2.4l0-2.5l-2.1-0.7l-0.2-0.1l-0.4-0.1l-0.4-0.1l-1.9-0.6l-1.8-0.6l-4.4-1.4    l-0.8-0.3l0,0v0l0,1.2v0.4l0,4.3l0,3.2l0,2.8L365,417l-0.8-0.3l-3.1-1.1l-1.4-0.5l-0.9-0.3l-1.3-0.5l-1-0.3l0,2.6l0,0.5l0,1.7v0    l0,0.7l0,4.6l0,0.2l0.1,0l2.2-0.5l0.8-0.2l1.8-0.4l0.7-0.2l0.6-0.5l1.2-1l2.2-1.8l0.2-0.1l3.6-3l3.8-3.1l0,8.7l0,0.9l0,10.5    l2.8-7.1l0,0l1.2-3l0.8-2.1l0-6.4L378.5,414.3z M159.1,399.3l0-3.7l0-1.3l-0.1-13.6l0-9.1l0-3.6l0-0.9l0-0.3l-1.3,0.3l-0.6,0.2    l-0.2,0.1l-2.5,0.6l-0.3,0.8l0,0.5l0,3.6l0,0.7l0.1,14.2l0,9.1l0,0.9l0,2.7v0.1l0,1.1l0.4-0.1l0.9-0.2l0.7-0.2l0.2,0l2.3-0.5    l0.3-0.1l0.1-0.4l0-0.5L159.1,399.3z M244.4,431.9l0-0.2l0-1.2l0-4.7l0-3.7l0-2.9l-0.2-0.5l-0.1-0.2l-8.8,2.1l0,0l-0.6,0.1    l0.3,0.8l0,2l0,0.7l0,9.4l0,0.1v0.1l0,0.7l0,2.9l0.2-0.1l0,0l5.7-1.4l2.7-0.6l0.7-1.9l0-1.1L244.4,431.9z M240.5,376.1l0,4.8    l0.4-0.1l1.9-0.4l0.9-0.2l0-0.7l-0.1-4.1l0-3.7l-0.8-1.7l-1.5-3.1l-0.8-1.7l0,1.9L240.5,376.1z M283.4,340.5L283.4,340.5l0,0.2    l0,1.1l0,3.5l2.9-0.7l1.4-0.3l0.3-0.1l1.7-0.4l0.9-0.2l0-0.5l0-4.3l0-0.5l0-4.7l0-1.7l-0.8-1.6l-0.2-0.4l-0.2-0.3l-1.9-3.9    l-0.2-0.4l-0.2-0.4l-0.1,0.2l-0.9,2.2l-0.9,2.3l-0.4,0.9l-0.2,0.5l-0.9,2.2l-0.6,1.5l0,1.7L283.4,340.5z M359.2,395.9l0.5-0.4    l0.7-0.6l0.7-0.6l3.7-3.1l1.3-1.1l-1.3-0.5l-0.1,0l-0.5-0.2l-1.2-0.4l-4.6,1.1l-2.3,0.5l0,3.5l0,1.3l0,0.5l0,0.6l0,1.8l2.3-1.9    L359.2,395.9z M113.8,377.8l0-0.2l0-1.2l0-4.7l0-3.7l0-2.9l-0.2-0.5l-0.1-0.2l-8.8,2.1l0,0l-0.6,0.1l0.3,0.8l0,2l0,0.7l0,9.4v0.1    l0,0l0,0.7l0,2.9l0.2-0.1l0,0l5.7-1.4l2.7-0.6l0.7-1.9l0-1.1L113.8,377.8z M203.4,388.2l0-2.6l0-1.9l-0.1-30.8l-2.3-4.8l-0.8,2.1    l-0.6,1.7l-0.4,1.2l-0.9,2.4l0,7l0.1,14.9l0,9.1l0,0.8l0,2.7l0,0.2l0,1v0.1l2.2-0.5l0.1,0l0.2,0l2.2-0.5l0.3-0.1l0.2-0.4l0-0.5    L203.4,388.2z M286.4,359.6l-2.9,0.7l0,4.8l0.1,8.9l2.1,4.7l0,0l0.7,1.6l0.4,0.9l1.2-3l0,0l0.8-2l0.3-0.8l1.7-4.4l-0.1-7l0-0.7    l0-4.8l-2.9,0.7L286.4,359.6z M366.6,396.8l0,0.3l0,0.6l0,1.7l0,2.3l0,0.8l0,2.1l0,0.9l0,0l0.8-0.6l2-1.6l0.3-0.3l4.5-3.6l0.1-0.1    l1.1-0.9l0.7-0.6l0.5-0.4l1.8-1.4l0-4.2l0-0.7l0-0.4l0-1.8l0-1.3l0-5.9l-0.5-1l-0.6-1.2l-1.9-4l-0.4-0.7l-0.3-0.6l-1-2.1l-0.2-0.4    l0,0.3l0,3.2l0,0.9l0,4.1l0,0.4l0,1.9l0,4.5v0l0,4l0,0.8l0,0.6l-0.5-0.2l-1.9-0.7l-0.7-0.3l-0.6-0.2l-3.2-1.2l0,2.7L366.6,396.8z     M294.9,434.2l0-2.7l-0.1-22.3l0-4.5l0-2.7l-2.3-4.7l0,0l-1.7-3.5l-1.7,4.3l0,0l-0.1,0.4l-0.6,1.6l-0.6,1.4l-1.2,3.2l-0.2,0.5    l0,0.6l0,6.4l0.2,32.2l1.3,2.8l1.2,2.7l1.4,3l2.6-6.6l2-5.1l0-4.6L294.9,434.2z M317,428.9l0-0.9l-0.1-14l0-9.1l0-4.3l0-0.5    l-2.3,0.6l-0.6,0.1l-2.2,0.5l0,2l0,2.8l0,9.1l0,5.9l0,9.1l0,0.6l0,2.7l0,0.4l0,1.1l1.4-0.3l0.9-0.2l0.1,0l2.3-0.5l0.3-0.1l0.2-0.5    l0-0.6L317,428.9z"/>
		<path class="st5" d="M139.3,239.5C139.3,239.5,139.3,239.5,139.3,239.5c2.6,3.5,4.5,6.4,5.6,8.3c0.7-0.8,1.5-1.6,2.3-2.2    c-1.5-2.4-3.2-5.1-5.4-8.1L139.3,239.5z M139.9,234.8c-6.5-8.7-15.9-18.7-29-27c-14.8-9.3-24.9-10.4-30.4-9.9    c-1,0.1-1.8,0.2-2.5,0.4l-4.6,3.7c0,0,1.2-0.7,3.7-1.1c5.1-0.8,15.6-0.4,31.8,9.7c12.6,7.9,22.2,18.2,28.5,26.4    c0,0-0.1-0.1-0.1-0.1L139.9,234.8z M278,129.2C278,129.2,278,129.2,278,129.2l1.3,2.7c2.4-5,4.2-9.8,5.2-12.4    c0-1.2-0.1-2.5-0.3-3.7C284.1,115.8,281.8,122.1,278,129.2z M270.1,141.2L270.1,141.2c0.5,0.5,1,0.9,1.4,1.4    c0.3,0.3,0.6,0.6,0.8,1c1.8-2.4,3.5-5.1,5-7.9l-1.3-3C274.2,135.7,272.2,138.7,270.1,141.2z M157.6,244.4c0.9,0.4,1.8,0.8,2.6,1.4    c1.7-2.2,3.4-4.3,5.1-6.2l-1.7-2.5C161.7,239.3,159.7,241.7,157.6,244.4z M238.6,172.6c-30.2,33.3-49.9,36.6-72.7,61.8l1.7,2.5    c22.8-25.3,42.5-28.6,72.5-61.6l-1.7-2.5C238.5,172.7,238.6,172.7,238.6,172.6z M249.7,159.6c-3.3,4.1-6.5,7.9-9.5,11.3    c0.2-0.2,0.4-0.4,0.6-0.6l1.7,2.5c2.7-3,5.4-6.3,8.2-9.8c-0.3-1-0.6-2-0.9-3C249.8,159.8,249.8,159.7,249.7,159.6z M246.7,130.9    C246.7,130.9,246.7,130.9,246.7,130.9l2.9-1.6c-7.9-13.2-19.3-22.6-26.2-27.4c-2.3-0.9-4.8-1.7-7.4-2.3    C216.1,99.6,235.4,111,246.7,130.9z M248.2,133.8C248.2,133.8,248.2,133.8,248.2,133.8c1.5,3,2.8,6.1,3.8,9.4    c0.8-1.2,1.7-2.2,2.7-3.1c-1-2.8-2.2-5.4-3.5-7.9L248.2,133.8z M223,57.3c0.1-0.5,2.2-10.4,12.7-16.7c0.8-0.5,1.6-0.9,2.4-1.3    c0,0-5.9,0.6-13.5,4c-0.1,0-0.2,0.1-0.3,0.2c-3.9,4.6-5.7,11-5,21.8C219.3,65.2,220.3,61.9,223,57.3z M205.8,95.8    c0,0-3.4-13.7,4.6-26.4c-7.5,8.3-10.7,19.1-9.1,28.3L205.8,95.8z M329.7,114.7c-9.5-4.8-18.5-6.5-26.2-5.5    c-8.6,4.5-14,11-14.4,11.5l5.5,3.4C301,112.3,318,112.2,329.7,114.7z M277.6,75.3c5.3-0.9,8.1-2,8.1-2c1.4-2.5,3.4-6.3,4.4-10.3    C287.9,66,283.5,71.2,277.6,75.3z M384,90.7c0,0-0.1,0-0.2,0.1c-5.2,7.1-18.9,21.9-45.4,26.5c0.4,0,9.9,2.9,17.3,4.1    C376.8,110.3,384,90.7,384,90.7z M373.9,144.5c8.8,0.3,16.1,2.1,22.2,4.5c-18.5-13.6-52.4-10.2-67.7-4.4c2.2,1.5,4.5,3.1,6.6,4.6    C339.5,147.8,354.1,143.8,373.9,144.5z M347.7,131.8c0.1,0,0.1,0,0.1,0c-9.5-2.3-22.5-3.6-33.9-1.5c3.9-3.3,8.7-4.5,8.7-4.5    c-10.7-0.5-14,0.8-19.3,3.5c1.6,0.8,3.1,1.7,4.7,2.6c1,0.6,2,1.1,2.9,1.7c1.7,1,3.4,2,5,3C319.9,134.8,330.3,130.9,347.7,131.8z     M293.3,137.1c4.7,0.1,8.2,0.8,8.2,0.8c-3.5-3.3-7.9-6.4-11-8.3c0.2,2.2,0.2,4.4,0.3,6.5c0,0.3,0,0.7,0,1c0,4.2-0.2,7.3-0.2,7.5    c11.5,0.3,18.8,3.8,18.8,3.8C304.3,142.6,297.5,139,293.3,137.1z M386.8,176.1c19.5-0.2,27.7,3,35.9,8.2c11.3,0.2,19.4-1.7,25.1-4    c7.4-3,10.9-6.8,11.7-7.9c0,0,0,0,0,0c0-0.1,0.1-0.1,0.1-0.2c0,0,0,0,0,0c0-0.1,0.1-0.1,0.1-0.1s0,0,0,0c-0.1,0.1-0.3,0.1-0.4,0.2    c-21,5.2-35.3-0.9-35.3-0.9c2.8,3.2,6.1,5.4,9.6,6.8C420.5,179,404.9,168,386.8,176.1z M404,189.9c0,0,11.1,7.8,20.4,12    c0.1,0,0.1,0,0.2,0.1c15.4,1.7,22.5-6.2,22.7-6.4c0,0,0,0,0,0c0,0-0.1,0-0.1,0l0,0C442,197.9,430.3,199,404,189.9z M459,238.3    c-6.6-6.8-23.7-14.2-40.9-12.5c8.6-4.4,16.8-2.8,16.8-2.8c-5.9-3-16.8-4.6-25.4-2.4c1.7,2.1,3.2,4.1,4.5,5.8    c0.3,0.4,0.7,0.9,1,1.3c3.9,5.1,5.9,8.2,5.9,8.2C434,229.7,459,238.3,459,238.3C459,238.3,459,238.3,459,238.3z M275.7,69.3    C275.7,69.3,275.6,69.3,275.7,69.3c0,0,1.6-2.9,3-7.7c1.2-4.2,2.3-9.8,2-16.3c-0.3-5.7-1.6-12-4.8-18.5c2.2,8,4.7,26.1-10.1,45.1    c0,0,3.5-6.7,4-16c-3,9-7.9,14.1-16.1,21.2c2.8-0.2,7-0.4,12.9-0.7c1.5-0.1,2.9-0.2,4.2-0.3C272.1,74.5,274,72.2,275.7,69.3z     M179.1,87.5c0.1,0-4.5-3.4-9-7.7c-0.1,0-0.5-0.1-1.1-0.3c-1.8-0.4-5.4-1.1-10.2-1.5c-7.9-0.6-11.3-5.1-11.3-5.1s0,0.3,0.1,0.8    c0.5,0.9,1,1.8,1.7,2.6c2.5,3,6.7,5.1,15.9,7.2C168.3,84.4,173.6,84.9,179.1,87.5z M199.6,68.3c0,0,0,0.1-0.1,0.1    c0,0-0.6-1.5-1-4.3c-0.2-1.5-0.4-3.3-0.4-5.4c0-1.5,0.1-3.1,0.3-4.9c-1.9,3.3-5.4,11.7,0,19.6C198.7,70.7,199.4,68.9,199.6,68.3z     M195.2,81.7c0,0-4-4.8-4.2-10.2c0,0-5.4-2.7-13.1-5.5c-7.6-2.8-12.1-10.1-13.4-15.5c0,0-0.1,0.1-0.2,0.4c-0.3,2.2-0.5,7.4,3.4,13    C175.5,75.2,185.1,72.9,195.2,81.7z M327.3,372.6l-2.7,0.6l0,0l-2.3,0.6v-3.9l0.5-0.1l2.6-0.6l1.6-0.4l0.5-0.1l0.2-0.3V366    l-0.2-0.2l-1.8,0.4l-1.7,0.4l-1.6,0.4v-3.7l1.4-0.3l4.3-1l0.2-0.3v-2.4l-0.2-0.2l-0.7,0.2l-5.1,1.2l-1.1,0.3l-0.9,0.2l-0.7,0.2    l-0.2,0.3v6l0,0L318,369l-0.4,0.5l1.4,1l0.3,0.2l0,0v6.4l0.2,0.2l2.9-0.7l4.2-1l1.4-0.3l0-0.1l0.1-0.2v-2.4l-0.2-0.2L327.3,372.6z     M334.1,360.6l-1.7,2.3v4.3l0.3,0.3l1.1,1l4.7-1.1l0.4,0.3v2.2l-0.5,0.7l-2.9,0.7l-0.5-0.5v-1l-0.2-0.1l-2.4,0.6l-0.1,0.2v2    l0.6,0.5l0.3,0.3l0.7,0.6l0,0l5.9-1.4l0-0.1l0.7-1l0.9-1.3v-4.4c-0.1-0.2-0.3-0.3-0.4-0.4c-0.6-0.6-1-0.9-1.3-0.9l-4.4,1.1    l-0.4-0.3v-2.2l0.5-0.6l2.8-0.7l0.5,0.5v0.9l0.2,0.1l2.4-0.6l0.2-0.2v-2l-1.6-1.4L334.1,360.6z M345.4,357.9l-0.2,0.2v2.1l0.2,0.1    l3.1-0.7v10.7l0.1,0.1l0.1,0l1.4-0.3l0.3-0.1l0.6-0.2l0.1-0.1l0.1-0.1V359l3.1-0.7l0.2-0.2v-2.1l-0.2-0.1L345.4,357.9z     M373.6,361.9v-12.1l-0.1-0.1l-4.4,1.1l-0.9,0.2l-0.1,0.2v2.1l0.1,0.1l0.7-0.2l1.7-0.4v9.8l-2.4,0.6l-0.1,0.2v2.2l0.1,0.1l7.9-1.9    l0.1-0.2v-2.2l-0.1-0.1L373.6,361.9z M389.5,346.5L389,346l-6.2,1.5l-0.5,0.8l-1.3,1.9v4.7l1.7,1.7l3.1-0.7l1.3-0.3l0.5-0.7l0,0    l0.4-0.5v3.4l-0.7,1l-3.1,0.7l-0.3-0.3l-0.3-0.2v-1l-0.2-0.1l-2.4,0.6l-0.2,0.2v2.2l0.1,0.1l0.9,0.9l0.3,0.3l0.3,0.3l6.3-1.5    l0.6-0.9l1.2-1.7v-10.3l-0.5-0.5L389.5,346.5z M388,352l-0.6,0.9l-0.1,0l-2.6,0.6l-0.1,0l-0.4,0.1l-0.5-0.4l-0.1-0.1l0,0v-2.7    l0.6-0.9l3.1-0.7l0.6,0.5V352z M403.1,342.6l-4.3,1l-2,0.5l-0.5,0.8l-1.3,1.9v4.7l0.8,0.8l0.9,0.9l4.4-1.1l1-1.3v3.4l-0.7,1    l-1.5,0.4l-1.5,0.4l-0.6-0.5v-1.1l-0.2-0.1l-2.4,0.6l-0.2,0.2v2.2l1,1l0.6,0.6l1.7-0.4l4.7-1.1l0.6-0.9l1.2-1.8v-10.3l-1.3-1.3    L403.1,342.6z M402.2,348.6l-0.6,0.9l-3.2,0.8l-0.6-0.5v-2.7l0.6-0.9l3.1-0.7l0.6,0.5V348.6z M417.3,339.2l-6.2,1.5l-0.5,0.7    l-1.3,1.9v4.7l0.8,0.8l0.9,0.9l4.4-1.1l1-1.3v3.4l-0.7,1l-3.1,0.7l-0.6-0.5v-1l-0.2-0.1l-2.4,0.6l-0.2,0.2v2.2l0.2,0.2l0.9,0.8    l0.6,0.6l0,0l5.3-1.3l0.1,0l0.9-0.2v0l1.8-2.6V341l-1.3-1.3L417.3,339.2z M416.3,345.3l-0.6,0.9l-3.2,0.8l-0.6-0.5v-2.7l0.6-0.9    l3.1-0.7l0.6,0.5V345.3z"/>
	</g>
	<g>
		<path class="st3" d="M473.4,403.9c-2.1-2.1-4.5-3.3-7.3-3.8c0,0.3,0,0.7,0,1c-0.1,0.8-0.1,1.5-0.2,2.3c0,0.2,0,0.4-0.1,0.6    c-0.1,0.2-0.2,0.3-0.2,0.5c0,0.1-0.1,0.2-0.1,0.2l0,1.7c0,0,0,0.6,0,0.8c0,0.3,0,0.6,0,0.9c0,0.1,0,0.2,0,0.3    c0,0.1,0.1,0.2,0.1,0.4c0,0.3-0.1,0.5-0.1,0.8c0,0.1-0.2,0.6-0.2,0.6c1.7,2.5,3.1,6.1,1.3,9.3c-2.1,3.8-6.6,4.6-10.6,4.6    c2.3,1.7,5,2.6,8.1,2.6c3.7,0,6.8-1.3,9.4-3.8c2.7-2.6,4-5.8,4-9.7C477.3,409.7,476,406.5,473.4,403.9z"/>
		<path class="st4" d="M468.9,418.5c-1.4,1.3-3,2-5,2c-2,0-3.7-0.7-5.1-2.1c-1.4-1.4-2.1-3.1-2.1-5.1c0-2.1,0.7-3.8,2.2-5.2    c1.4-1.3,3-1.9,4.9-1.9c2,0,3.6,0.7,5,2.1c1.4,1.4,2.1,3.1,2.1,5C471,415.4,470.3,417.1,468.9,418.5z"/>
		<g>
			<path class="st5" d="M466.5,416.1c-0.7,0.7-1.6,1.1-2.6,1.1c-1,0-1.9-0.4-2.7-1.1c-0.7-0.7-1.1-1.6-1.1-2.7c0-1.1,0.4-2,1.2-2.7     c0.7-0.7,1.6-1,2.6-1c1,0,1.9,0.4,2.6,1.1c0.7,0.7,1.1,1.6,1.1,2.6C467.6,414.5,467.3,415.4,466.5,416.1z M461.7,411.2     c-0.6,0.6-0.9,1.3-0.9,2.2c0,0.9,0.3,1.6,0.9,2.2c0.6,0.6,1.3,0.9,2.2,0.9c0.8,0,1.6-0.3,2.2-0.9c0.6-0.6,0.9-1.3,0.9-2.2     c0-0.8-0.3-1.5-0.9-2.2c-0.6-0.6-1.3-0.9-2.2-0.9C463,410.3,462.3,410.6,461.7,411.2z M462.3,415.5v-4.1c0.3,0,0.6,0,1.2,0     c0.5,0,0.8,0,0.9,0c0.3,0,0.6,0.1,0.8,0.2c0.4,0.2,0.6,0.5,0.6,1c0,0.3-0.1,0.6-0.3,0.8c-0.2,0.2-0.4,0.2-0.7,0.3     c0.3,0.1,0.5,0.1,0.6,0.2c0.2,0.2,0.4,0.5,0.4,0.9v0.4c0,0,0,0.1,0,0.1c0,0,0,0.1,0,0.1l0,0.1h-1c0-0.1-0.1-0.3-0.1-0.6     c0-0.3,0-0.4-0.1-0.5c-0.1-0.1-0.2-0.2-0.3-0.3c-0.1,0-0.2-0.1-0.4-0.1l-0.2,0h-0.2v1.5H462.3z M464.2,412.2     c-0.1-0.1-0.4-0.1-0.6-0.1h-0.3v1.2h0.4c0.3,0,0.4-0.1,0.6-0.2c0.1-0.1,0.2-0.3,0.2-0.5C464.6,412.4,464.5,412.3,464.2,412.2z"/>
		</g>
	</g>
	<rect x="406" y="319.6" class="st3" width="11.5" height="10.9"/>
	<g>
		<path d="M408.2,322.8v0.9h-1.7v4.4h-1v-4.4h-1.7v-0.9H408.2z M413.8,328.1l-0.2-3.1c0-0.4,0-0.9,0-1.5h-0.1    c-0.1,0.5-0.3,1.1-0.4,1.6l-0.9,2.9h-1.1l-0.9-3c-0.1-0.4-0.3-1-0.4-1.5h-0.1c0,0.5,0,1,0,1.5l-0.2,3.1h-1l0.4-5.3h1.6l0.9,2.6    c0.1,0.4,0.2,0.8,0.3,1.3h0c0.1-0.5,0.3-0.9,0.4-1.3l0.9-2.6h1.5l0.4,5.3H413.8z"/>
	</g>
</g>
</svg>