<?xml version="1.0" encoding="UTF-8" standalone="no"?>
<svg xmlns:rdf="http://www.w3.org/1999/02/22-rdf-syntax-ns#" xmlns="http://www.w3.org/2000/svg" height="214.11609" width="213.24361" version="1.1" xmlns:cc="http://creativecommons.org/ns#" xmlns:dc="http://purl.org/dc/elements/1.1/" viewBox="0 0 213.24361 214.11609"><path d="M106.09273,8.72473,89.45757,50.13812,44.787,53.279l34.25911,28.6171L68.22739,125.34531,106.03456,101.614l37.9235,23.73127L133.13939,82.01248,167.3985,53.279l-44.55429-3.02457Zm0,11.69114,12.73809,31.46722.98881,2.50107,2.73376.23265L156.289,56.88524,130.28931,78.69707,128.19537,80.442l.698,2.67559,8.20125,32.74686-28.73344-17.973-2.3266-1.45412-2.3266,1.45412-28.61711,17.973L83.2921,82.94311l.6398-2.61743L81.838,78.58074,55.95461,56.88524l33.79378-2.38475,2.73375-.17449,1.047-2.55927Z" fill="#fff"/><path d="M41.82055,110.4551H23.38228v40.59907h-4.944V110.4551H0v58.97916H30.4784v7.85228H48.45134V151.05417H41.82055Zm160.884,0H175.13444l-9.42271,58.97916h18.32193l1.047-6.45629h7.79408l1.047,6.45629h18.32191Zm-15.181,34.14276,1.45412-11.284,1.45412,11.284Zm-25.767,9.53905H141.04982l-8.02675,14.77387V154.13691H114.5848v58.97918h18.43827V196.59726l8.84105,16.51883h21.172l-16.69334-30.59473ZM106.09273,0c-4.246,10.586-14.65756,36.46937-18.90358,46.9972L36.46938,50.54529c8.7829,7.32877,30.18757,25.24353,38.9123,32.5723-2.79191,11.05132-9.53905,38.15616-12.331,49.32382l42.98384-26.93033c8.95739,5.5838,34.08463,21.28833,43.10017,26.93033-2.79192-11.1095-9.539-38.15614-12.331-49.20749,8.72473-7.32877,30.12942-25.3017,38.9123-32.68863-11.40031-.75617-39.20313-2.67559-50.54528-3.43174C120.86661,36.52753,110.39693,10.64418,106.09273,0ZM83.00128,154.13691h-7.9686c-17.50762,0-17.50762,13.0871-17.50762,20.06687V193.0492c0,7.038,0,20.06689,17.50762,20.06689h7.9686c15.58818,0,17.56578-10.70234,17.56578-20.06689v-6.80529H82.187V194.736H75.96333V172.517H82.187v8.14307h18.3801v-6.4563C100.56706,164.89741,98.58946,154.13691,83.00128,154.13691Z" fill="#18285f"/><path d="M17.33313,111.56024H1.047v56.7689H31.58352v7.91041H47.3462V152.1593H40.77357V111.56024H24.48741V152.1593H17.33313ZM186.36025,145.703h5.35117c-.46533-3.48987-.93065-7.03793-2.32661-18.26377h-.698Zm-2.15211,16.16984c-.23266,1.45412-.8143,5.06036-1.047,6.4563H167.04951l9.07372-56.7689h25.70889l9.13187,56.7689h-16.0535c-.23268-1.39594-.81431-5.00218-1.047-6.4563ZM161.233,212.06912c-4.1297-7.56143-14.94837-27.512-16.0535-29.54776l14.77388-27.27931H141.7478c-6.16548,11.34214-6.10732,11.22582-9.77172,17.97294V155.24205H115.68993v56.82707h16.28615V192.23489c4.30422,8.08492,6.22366,11.633,10.586,19.83423ZM135.58232,82.82678c6.16548-5.17667,24.66189-20.64852,37.4-31.35086-11.5748-.81431-38.97046-2.67557-48.56766-3.31541q-9.16095-22.68427-18.32193-45.25227Q97.019,25.50531,87.94528,48.10235c-.93063.05816-23.55677,1.6286-48.684,3.37357C52.17388,62.23643,70.84481,77.88279,76.60313,82.71046c-1.22145,4.88583-10.586,42.46034-11.80746,47.3462l41.23889-25.82519,41.4134,25.82519c-3.95521-15.70453-7.85226-31.46719-11.80748-47.22988Zm-76.95213,91.377c0-7.09612,0-18.96176,16.40249-18.96176h7.96859c14.54122,0,16.46065,9.59721,16.46065,18.96176V179.555H83.2921V171.47H74.85819v24.37107H83.2921v-8.49207H99.46192v5.70015c0,9.42271-1.91943,18.96178-16.46065,18.96178H75.03268c-16.40249,0-16.40249-11.86566-16.40249-18.96178Z" fill="#1f4285"/><path d="M45.1941,154.31142v19.71787H33.73562v-7.9104H3.25723V113.71232H15.181v40.5991H26.63951v-40.5991h11.9238v40.5991ZM106.09272,8.72473,89.45757,50.13815,44.787,53.27905l34.25911,28.6171L68.22739,125.34531,106.03456,101.614l37.9235,23.73127L133.13939,82.01248,167.3985,53.27905l-44.55429-3.02457Zm0,11.69114,13.72691,33.96829c4.76952.349,30.53656,2.09394,36.46939,2.50111C128.13721,80.50019,131.22,77.941,128.19537,80.442c.98881,3.78071,0-.05816,8.89923,35.42242-7.38694-4.59505-27.10483-16.926-31.06-19.42708L75.09084,115.86445c1.1633-4.76954,7.91043-31.64171,8.84106-35.53874C80.442,77.41746,60.317,60.54965,55.9546,56.88527c5.87466-.40717,31.93251-2.26843,36.52754-2.55927C94.16892,50.13815,103.82429,26.17419,106.09272,20.41587Zm36.52754,162.1055,14.89021,27.3375H143.78356l-11.45849-21.34652h-2.55924v21.34652H117.842V157.45233h11.9238v19.13623h2.85007l10.41152-19.13623H156.289ZM183.801,147.85513l3.54806-22.62615H190.49l3.66437,22.62615Zm16.228-34.14281H177.86816l-8.2594,52.40657h11.57481l1.047-6.4563h13.49426l.98881,6.4563h11.633ZM97.30983,189.50117v3.78071c0,11.10948-2.55926,16.577-14.36673,16.577H75.149c-11.80747,0-14.36672-5.46751-14.36672-16.577V173.97113c0-11.10947,2.55925-16.5188,14.36672-16.5188H82.9431c11.80747,0,14.36673,5.40933,14.36673,16.5188v3.43173H85.44419v-3.72254c0-2.85009.11633-4.42055-3.19906-4.42055h-6.34c-3.3154,0-3.19908,1.57046-3.19908,4.42055v19.95055c0,2.85007-.11632,4.42051,3.19908,4.42051h6.34c3.31539,0,3.19906-1.57044,3.19906-4.42051v-4.1297Z" fill="#fff"/><path d="M42.28586,171.12105v-13.9014h-6.6308V116.62056H29.60591v40.59909H12.21462V116.62056H6.16547v46.59006H36.702v7.91043Zm94.80873-55.25663c-30.59472-19.07807-27.62831-17.21679-31.06-19.42708-4.246,2.67559-26.69767,16.75151-30.94371,19.42708,1.396-5.58381,7.73593-31.06,8.84106-35.53874C80.442,77.41743,60.317,60.54962,55.9546,56.88524L92.48214,54.326c1.68678-4.18785,11.34215-28.15178,13.61058-33.9101,2.73375,6.74712,11.05133,27.22115,13.72691,33.96826,4.53687.349,30.30391,2.094,36.46939,2.50111C128.13721,80.50016,131.22,77.94092,128.19537,80.442,129.35867,84.92069,135.00067,107.48869,137.09459,115.86442Zm15.53,91.08618-13.31976-24.3711,12.09829-22.219h-6.63079l-10.41152,19.13623h-7.56144V160.36054h-6.04914V206.9506h6.04914V185.60409h7.32879l11.51663,21.34651Zm40.42457-84.62988,4.246,28.44262H180.66008l4.246-28.44262Zm11.80746,40.8899-7.32876-46.59006H180.42742l-7.32876,46.59006h5.58381l1.047-6.45629h18.49642l1.047,6.45629ZM94.34342,193.0492v-.63982H88.4106v1.22147c-.11634,6.51446-1.68678,7.32876-6.2818,7.32876H76.02147c-4.595,0-6.16546-.8143-6.22363-7.32876V173.68029c.05817-6.57262,1.62862-7.32876,6.22363-7.32876H82.1288c4.595,0,6.16546.75614,6.2818,7.32876v.75615h5.93282v-.23266c0-8.95738-.9888-13.84324-11.34215-13.84324H75.03268c-10.29518,0-11.34215,4.88586-11.34215,13.84324V193.0492c0,9.01556,1.047,13.9014,11.34215,13.9014h7.96859C93.35462,206.9506,94.34342,202.06476,94.34342,193.0492Z" fill="#ec1c24"/></svg>