<?xml version="1.0" encoding="UTF-8" standalone="no"?>
<svg xmlns:rdf="http://www.w3.org/1999/02/22-rdf-syntax-ns#" xmlns="http://www.w3.org/2000/svg" height="111.547" width="138.18912" version="1.1" xmlns:cc="http://creativecommons.org/ns#" xmlns:dc="http://purl.org/dc/elements/1.1/" viewBox="0 0 138.18912 111.547"><defs><clipPath id="clip-path" transform="translate(-0.00018)"><rect width="138.19" height="111.54602" fill="none"/></clipPath></defs><title>EC Red Bull Salzburg</title><g clip-path="url(#clip-path)"><path d="M19.94431,0V74.749c0,5.906.759,8.18,2.575,11.339l.102.178.113.16895a56.16421,56.16421,0,0,0,93.598.001l.114-.17.102-.178c1.815-3.157,2.574-5.43,2.574-11.339V0Z" transform="translate(-0.00018)" fill="#fff" fill-rule="evenodd"/><path d="M62.0325,30.1192l.013.02.015.018c.064.071.197.22.197,1.007,0,.082-.004.172-.008.264a19.09569,19.09569,0,0,1,3.563-.787,2.97815,2.97815,0,0,1,1.49.973l8.202,7.815,10.469-6.44305a25.95154,25.95154,0,0,0-25.465-4.433,6.1979,6.1979,0,0,1,1.524,1.566" transform="translate(-0.00018)" fill="#ffd300" fill-rule="evenodd"/><path d="M89.322,36.33783c-3.577,2.61-14.299,10.405-15.15,10.697a6.16737,6.16737,0,0,1-1.862.341l-15.353-6.384a4.37337,4.37337,0,0,1-1.427-1.333c-.384-.611.141-1.812.463-2.431a14.67868,14.67868,0,0,1-5.523-.849l-.025-.012c-.251-.126-.474-.252-.682-.377a25.91171,25.91171,0,1,0,39.559.348" transform="translate(-0.00018)" fill="#ffd300" fill-rule="evenodd"/><path d="M113.26781,23.75525c-.041.018-.077.037-.116.056v50.937c0,5.096-.592,6.296-1.781,8.364a50.19288,50.19288,0,0,1-83.675,0c-1.188-2.06805-1.78-3.268-1.78-8.364V5.97125h87.236v13.863c1.014-.438,1.929-.827,2.683-1.137V3.28827H23.2328v71.46c0,5.416.651,7.115,2.137,9.701l.046.08.051.076a52.87531,52.87531,0,0,0,88.133,0l.052-.075.045-.08c1.487-2.585,2.138-4.284,2.138-9.702v-52.178c-.815.384-1.733.81-2.567,1.185" transform="translate(-0.00018)" fill="#001041"/><path d="M116.4713,22.26874v52.48c0,5.572-.677,7.332-2.222,10.019l-.057.099-.063.094a53.51341,53.51341,0,0,1-89.192,0l-.063-.095-.056-.098c-1.546-2.689-2.223-4.449-2.223-10.019V2.65076h93.876v15.789a12.577,12.577,0,0,1,1.367-.489.59924.59924,0,0,1,.122-.015V1.16278H21.1073v73.586c0,5.903.775,7.898,2.42,10.76l.082.143.092.137a55.00162,55.00162,0,0,0,91.665,0l.091-.137.082-.142c1.646-2.861,2.421-4.856,2.421-10.761v-53.193c-.288.14-.827.399-1.489.713" transform="translate(-0.00018)" fill="#001041" fill-rule="evenodd"/><path d="M65.57249,62.74182a4.05962,4.05962,0,0,1-1.472-1.568c-.129-.222-.249-.448-.366-.669l-.136-.256a6.44955,6.44955,0,0,0-.534-.86c-.081-.101-.179-.209-.28-.315l-.295-.309a3.61084,3.61084,0,0,1-.251-.285.96439.96439,0,0,1-.147-.234,31.86029,31.86029,0,0,1-2.065-8.491c-.24-1.697-1.279-3.07-2.962-5.132-.211-.256-.444-.56-.694-.882-.172-.221-.35-.451-.532-.681a16.78465,16.78465,0,0,0-1.36-1.562c-.604-.509-1.137-.962-1.619-1.371-.686-.582-1.267-1.076-1.802-1.516-1.011-.831-1.789-1.417-2.685-2.022a7.02728,7.02728,0,0,0-3.977-1.272,5.45671,5.45671,0,0,0-2.814.697,16.60594,16.60594,0,0,1-3.105,1.736c-.734.304-1.495.554-2.46.869-.309.102-.64.21-.999.33a6.60858,6.60858,0,0,0-2.425,1.516c-.136.126-.26.249-.381.366-.136.132-.264.257-.387.367a1.86429,1.86429,0,0,1-.579.406,3.39643,3.39643,0,0,1-.822.128c-.2.014-.41.023-.613.032-.149.006-.296.013-.433.021a5.2355,5.2355,0,0,0-2.919,1.308c-.339.273-.653.561-.957.838l-.145.134a7.56347,7.56347,0,0,1-.916.749,5.465,5.465,0,0,1-2.664.752,13.46351,13.46351,0,0,0-1.495.205,8.05206,8.05206,0,0,0-1.815.606,15.01724,15.01724,0,0,0-2.182,1.301c-.364.253-.722.512-1.074.77-.314.229-.625.455-.933.671a6.954,6.954,0,0,1-3.878,1.623,2.1389,2.1389,0,0,1-2.309-1.904,3.35345,3.35345,0,0,1,1.468-2.904l.582-.467c.433-.347.839-.672,1.207-.988a8.93792,8.93792,0,0,0,1.352-1.373,3.77948,3.77948,0,0,0,.655-3.482,3.69652,3.69652,0,0,0-2.886-2.552,13.34792,13.34792,0,0,0-1.732-.373l-.192-.03c-.171-.027-.326-.053-.46-.077a2.00632,2.00632,0,0,1-.377-.096,31.80326,31.80326,0,0,1-3.198-1.943l-.157-.106-.108.156a4.71082,4.71082,0,0,0-.841,2.662,4.63583,4.63583,0,0,0,4.116,4.74.39027.39027,0,0,1,.181.693c-2.909,2.288-3.53,3.27-3.683,5.842a5.77182,5.77182,0,0,0,1.531,4.292,6.513,6.513,0,0,0,4.892,1.892,11.14049,11.14049,0,0,0,1.701-.138.32316.32316,0,0,1,.061-.005.39.39,0,0,1,.389.36,10.09188,10.09188,0,0,0,.865,3.893.38852.38852,0,0,1-.066.494,1.86768,1.86768,0,0,1-.572.326,7.42612,7.42612,0,0,1-2.502.392c-.586,0-1.022.402-1.372,1.266-.113.28-.207.58-.298.869l-.026.081c-.046.147-.09.284-.134.404a2.24093,2.24093,0,0,1-.128.298,2.44771,2.44771,0,0,1-.531.627.3929.3929,0,0,1-.258.098.355.355,0,0,1-.066-.006.38911.38911,0,0,1-.276-.195,1.94275,1.94275,0,0,0-1.344-.98l-.013-.001-.061-.001a3.63714,3.63714,0,0,0-3.007,2.173.39144.39144,0,0,1-.318.242l-.071.008a1.55993,1.55993,0,0,0-1.415,1.039,4.82339,4.82339,0,0,0-.22.833l-.037.194c-.04.218-.083.439-.139.655a2.17714,2.17714,0,0,1-.199.493c-.045.083-.091.159-.135.232-.033.054-.065.106-.094.157a1.368,1.368,0,0,0-.112,1.097.998.998,0,0,0,.545.597,3.612,3.612,0,0,0,.867.312,7.49631,7.49631,0,0,0,1.351.199.51151.51151,0,0,0,.254-.071,1.84112,1.84112,0,0,0,.181-.127.44037.44037,0,0,1,.258-.087.379.379,0,0,1,.06.004l.29.054c.238.045.535.105.829.165l.047.00995c.283.057.561.112.787.15405.122.02295.23.042.31.054a1.64116,1.64116,0,0,0,.205.019h.003a2.46034,2.46034,0,0,0,2.092-.995,4.88686,4.88686,0,0,0,.269-.408l.139-.237.104-.177a5.5829,5.5829,0,0,1,.311-.48.38806.38806,0,0,1,.316-.16.40137.40137,0,0,1,.101.013c.14.038.282.064.402.085.285.048.546.073.657.081.081.006.159.009.237.009a4.26232,4.26232,0,0,0,2.749-1.257l.236-.2c.11-.095.218-.189.326-.278a6.33246,6.33246,0,0,1,.529-.404,1.68479,1.68479,0,0,1,.931-.34l.071.00305c.279.017,1.331.093,3.114.376a1.61591,1.61591,0,0,0,.232.017,3.94074,3.94074,0,0,0,1.524-.41095,12.49754,12.49754,0,0,0,1.451-.786,3.428,3.428,0,0,1,.397-.203l.046-.021c.144-.065.301-.136.46-.217a3.16921,3.16921,0,0,0,1.067-.832,8.9135,8.9135,0,0,0,.744-1.334l.291-.594c.16-.33105.331-.679.503-1.027a.39324.39324,0,0,1,.352-.214h.007l.102.001a13.45672,13.45672,0,0,0,1.792-.16895c.253-.037.503-.076.74-.114.53-.082.988-.154,1.327-.169.084,0,.308.016.621.038l.707.047c.89.053,1.614.079,2.217.079.359,0,.676-.009.941-.028a6.06286,6.06286,0,0,0,1.261-.212,2.58186,2.58186,0,0,0,.315-.114.3914.3914,0,0,1,.428.079c.194.19.402.38.611.565a.38986.38986,0,0,1,.113.417.39406.39406,0,0,1-.34.266c-.079.005-.157.014-.23.023a1.45709,1.45709,0,0,0-.927.428.39144.39144,0,0,1-.467.119,1.05665,1.05665,0,0,0-.163-.058,1.31538,1.31538,0,0,0-.334-.041h-.05l-.133.001-.2.002h-.108a12.66134,12.66134,0,0,0-1.902.116,3.1847,3.1847,0,0,0-1.039.32.83961.83961,0,0,0-.486.771,8.38673,8.38673,0,0,0,1.783,3.43,1.92616,1.92616,0,0,0,1.114.282q.0825,0,.165-.006l.028-.001a.392.392,0,0,1,.347.214,3.91627,3.91627,0,0,0,3.109,2.375h.074a23.96119,23.96119,0,0,0,6.08-2.066.45106.45106,0,0,1,.081-.028,1.9825,1.9825,0,0,1,.223-.037c.122-.018.259-.033.406-.05l.206-.024a4.59644,4.59644,0,0,0,1.346-.313,4.1133,4.1133,0,0,0,1.284-1.65.387.387,0,0,1,.346-.211c.012,0,.025.001.037.002a.389.389,0,0,1,.338.276,2.47942,2.47942,0,0,0,.182.451,1.93056,1.93056,0,0,0,1.861.997c.048,0,.096-.001.145-.003a7.3173,7.3173,0,0,0,1.857-.417l.331-.11a10.50607,10.50607,0,0,1,1.406-.401,3.05853,3.05853,0,0,1,.54-.04205c.094,0,.193.00305.297.00806.184.009.371.024.559.039.126.00995.253.02.38.028.178.011.366.022.561.022a3.00144,3.00144,0,0,0,1.337-.259,6.078,6.078,0,0,0,1.255-.736l.104-.075a.379.379,0,0,1,.228-.074.39814.39814,0,0,1,.259.098,7.30708,7.30708,0,0,0,4.865,1.833c.082,0,.165-.001.249-.004a1.61485,1.61485,0,0,0,1.283-.542.86052.86052,0,0,0,.147-.747.39385.39385,0,0,1,.049-.31.384.384,0,0,1,.261-.174,1.93482,1.93482,0,0,0,.961-.425,1.03528,1.03528,0,0,0,.36-.71.53429.53429,0,0,0-.182-.414,5.2085,5.2085,0,0,0-1.193-.772m-17.329-3.025c-.267.328-.666.428-1.026,1.07-.732-.285-.86-1.247-.993-1.661.584-.108,1.96-.369,2.683-.478a3.37437,3.37437,0,0,0-.664,1.069m89.887,9.288a5.61442,5.61442,0,0,0-.192-.587l-.059-.159c-.049-.129-.096-.251-.143-.391a1.582,1.582,0,0,1-.05-.173.391.391,0,0,1-.007-.113,2.38917,2.38917,0,0,0-.408-1.617.98976.98976,0,0,0-.747-.553.37534.37534,0,0,1-.36.248.4645.4645,0,0,1-.065-.004.407.407,0,0,1-.329-.446,1.47726,1.47726,0,0,0,.015-.16,1.05954,1.05954,0,0,0-.133-.55505,6.01289,6.01289,0,0,0-2.705-1.929,2.072,2.072,0,0,0-1.54.807.39247.39247,0,0,1-.302.142c-.012,0-.025-.001-.036-.002a.3912.3912,0,0,1-.307-.203,2.84113,2.84113,0,0,1-.158-.353,6.87352,6.87352,0,0,1-.261-.966l-.054-.245a2.24808,2.24808,0,0,0-1.567-1.975,1.80332,1.80332,0,0,0-.346-.058c-.12-.012-.249-.017-.382-.021l-.1-.002a5.7869,5.7869,0,0,1-.678-.043c-.451-.066-.752-.213-.752-.72a.39463.39463,0,0,1,.021-.128l.121-.349a9.2887,9.2887,0,0,0,.32-1.111,5.38952,5.38952,0,0,0,.043-2.35706.39257.39257,0,0,1,.382-.478.28221.28221,0,0,1,.058.005,6.4181,6.4181,0,0,0,.921.074c2.349,0,6.077-1.533,6.077-5.649,0-2.365-1.916-4.613-3.522-6.084a.39095.39095,0,0,1,.165-.666,4.24433,4.24433,0,0,0,3.543-4.28v-.144a6.82657,6.82657,0,0,0-.064-1.133,4.16886,4.16886,0,0,0-.648-1.625.23723.23723,0,0,0-.219-.114.36276.36276,0,0,0-.095.012.95317.95317,0,0,0-.255.129,9.22492,9.22492,0,0,0-.766.614,3.10481,3.10481,0,0,1-1.085.573c-.286.096-.583.175-.899.258-.166.043-.336.08905-.512.138a8.54078,8.54078,0,0,0-3.601,1.911,3.37058,3.37058,0,0,0-1.066,2.259,3.4944,3.4944,0,0,0,.806,2.23,15.24112,15.24112,0,0,0,1.857,2.004l.247.236c.252.24.503.479.742.717a12.21722,12.21722,0,0,1,.857.929,2.88811,2.88811,0,0,1,.808,1.751,1.81534,1.81534,0,0,1-1.989,1.847,6.63656,6.63656,0,0,1-3.762-1.455c-.216-.143-.436-.292-.665-.446-.47-.317-.956-.645-1.497-.984a23.09352,23.09352,0,0,0-2.854-1.53,10.36618,10.36618,0,0,0-1.588-.56c-.412-.11-.801-.19-1.177-.269l-.184-.038a6.2791,6.2791,0,0,1-2.361-.869c-.22-.146-.447-.3-.68-.458-.402-.274-.819-.558-1.245-.824a8.80376,8.80376,0,0,0-2.077-1.013,4.06485,4.06485,0,0,0-.626-.134c-.107-.017-.214-.03-.319-.043l-.25-.034a2.75566,2.75566,0,0,1-1.065-.33105,7.31227,7.31227,0,0,1-.662-.438c-.165-.124-.325-.249-.487-.377l-.112-.087a10.44933,10.44933,0,0,0-1.573-1.048,12.27369,12.27369,0,0,0-3.037-1.08l-.177-.044c-.355-.085-.66-.158-.921-.244a2.15494,2.15494,0,0,1-.353-.142,1.00757,1.00757,0,0,1-.127-.079.391.391,0,0,1-.071-.06995,7.52826,7.52826,0,0,0-5.771-3.077,4.43647,4.43647,0,0,0-.504.028,6.78651,6.78651,0,0,0-2.939,1.67c-.342.281-.69.578-1.044.879-.715.611-1.454,1.243-2.182,1.75995-3.758,2.673-5.12,3.744-6.9,5.688-2.406,2.629-3.162,5.967-3.83,8.91095l-.048.21405a35.8443,35.8443,0,0,1-1.148,4.263,10.41888,10.41888,0,0,1-2.226,3.77295,14.54965,14.54965,0,0,1-1.171,1.117c-.222.184-.388.298-.532.398l-.097.068a.8967.8967,0,0,0-.438,1.013,1.75886,1.75886,0,0,0,1.768.974.38961.38961,0,0,1,.3.151.38242.38242,0,0,1,.073.329.52062.52062,0,0,0,.102.469,1.98927,1.98927,0,0,0,1.315.571l.162.001a6.16566,6.16566,0,0,0,4.595-1.96.38863.38863,0,0,1,.281-.12.39465.39465,0,0,1,.265.103,2.84171,2.84171,0,0,0,1.96.706l.087.001a10.53058,10.53058,0,0,0,1.113-.081c.177-.02.345-.038.506-.049.089-.006.175-.012.256-.012.059,0,.114.002.165.007a3.76131,3.76131,0,0,1,.86.211c.258.09.535.195.816.303l.252.097a6.48173,6.48173,0,0,0,2.008.526c.036,0,.071-.001.104-.003a2.3222,2.3222,0,0,0,2.136-1.761.387.387,0,0,1,.373-.277h.013a.38922.38922,0,0,1,.367.3c.035.149.074.295.116.436a3.24014,3.24014,0,0,0,.951,1.623,1.04889,1.04889,0,0,0,.551.228,6.41853,6.41853,0,0,0,.949.056.38293.38293,0,0,1,.234.08,2.18941,2.18941,0,0,1,.215.198c.091.091.185.187.275.265a1.133,1.133,0,0,0,.347.213,25.52891,25.52891,0,0,0,5.868,1.426h.047c1.77,0,2.37-1.695,2.547-2.426a.39212.39212,0,0,1,.304-.291c1.648-.324,2.551-2.802,2.547-3.227-.009-.797-.316-1.113-1.105-1.171l-2.873-.001a.70051.70051,0,0,0-.191.028.37082.37082,0,0,1-.108.015.38941.38941,0,0,1-.329-.18005.60444.60444,0,0,0-.41-.287.39069.39069,0,0,1-.16-.68c.058-.05.115-.099.169-.151a.39516.39516,0,0,1,.267-.105h.017c.39.018,1.153.047,1.877.047.321,0,.635-.007.904-.022.579-.031,1.062-.088,1.572-.147a22.8771,22.8771,0,0,1,2.866-.188l2.691.148a5.11947,5.11947,0,0,0,1.558-.223.39675.39675,0,0,1,.118-.018.38771.38771,0,0,1,.211.062.3831.3831,0,0,1,.177.279,7.43916,7.43916,0,0,0,1.292,3.471,2.7654,2.7654,0,0,0,.69.646c.153.105.315.201.477.298.095.057.189.114.283.174a5.05294,5.05294,0,0,0,2.693.994,3.67931,3.67931,0,0,0,.908-.117,3.93882,3.93882,0,0,1,1.008-.126,4.89575,4.89575,0,0,1,.506.028,8.42875,8.42875,0,0,1,1.141.225l.082.021a5.42478,5.42478,0,0,1,1.48.619,11.08086,11.08086,0,0,1,1.057.739l.087.066a3.67386,3.67386,0,0,0,2.244.994c.035,0,.074-.002.112-.003a.74605.74605,0,0,0,.165-.031c.051-.014.112-.033.179-.057.128-.046.279-.106.429-.166a2.87,2.87,0,0,1,.499-.16.48106.48106,0,0,1,.076-.007.39.39,0,0,1,.323.172c.048.071.096.15.148.233a5.03866,5.03866,0,0,0,.312.465,2.992,2.992,0,0,0,2.541,1.121c.139.004.273.005.401.005a9.23966,9.23966,0,0,0,1.506-.099.45053.45053,0,0,1,.064-.004.39676.39676,0,0,1,.223.069.89977.89977,0,0,0,.527.168,4.89815,4.89815,0,0,0,1.518-.307,2.92771,2.92771,0,0,0,.715-.366.90971.90971,0,0,0,.402-.571,1.458,1.458,0,0,0-.048-.566m-46.201-7.7c-.26-.5-1.165-1.60895-1.048-2.314.668.082,1.678.09,2.049.111-.116.212-.874,1.948-1.001,2.20294" transform="translate(-0.00018)" fill="#fff"/><path d="M136.4913,66.58643c.34.476.204,1.199.317,1.72.091.385.567.702.318,1.109l-1.449.475c-.248,0-.158-.317-.248-.475a15.922,15.922,0,0,0-.612-2.241c-.069-.475.407-.792.724-1.064.384-.09.656.25.95.476m-132.961.249v.227c-.317.769-.521,1.741-.792,2.624a7.6582,7.6582,0,0,1-1.584-.429c-.137-.136,0-.294.022-.43.566-.521.407-1.2.521-1.924a1.53661,1.53661,0,0,1,.837-.928c.452.09.724.52.996.86m129.612-3.237a8.89642,8.89642,0,0,1,1.653,1.404.915.915,0,0,1-.273.747,1.26114,1.26114,0,0,1-.791.339,1.0554,1.0554,0,0,1-.792-.475,5.9006,5.9006,0,0,1-.952-1.494c.227-.339.702-.905,1.155-.521m-126.715.476a4.571,4.571,0,0,1-1.517,1.833,1.18156,1.18156,0,0,1-.837-.046c-.136-.135-.407-.294-.407-.519.045-.25-.046-.58905.181-.748a12.12954,12.12954,0,0,0,1.56-1.10895c.16-.046.364-.136.498-.023a1.486,1.486,0,0,1,.522.612m94.962-.973a8.73,8.73,0,0,1-.52,1.855c-.205.407-.77.271-1.155.226-.408-.158-1.041-.203-1.11-.769a2.18469,2.18469,0,0,1,.453-1.449c.611-.091,1.313.046,1.924-.067a.31209.31209,0,0,1,.408.204m-61.941.701c.045.294.476.611.18.861a2.30364,2.30364,0,0,1-1.81.564c-.521-.384-.498-1.153-.952-1.652-.113-.384-.746-.384-.61-.814l.204-.136a14.03488,14.03488,0,0,0,2.173-.136c.724.023.52.883.815,1.313m59.451-26.369c.702.475,1.019,1.426,1.879,1.63a17.84493,17.84493,0,0,1,4.209,1.312,12.41708,12.41708,0,0,1,2.626,1.879,16.62057,16.62057,0,0,0,2.625.679,12.24574,12.24574,0,0,1,3.372,1.991c1.471,1.155,3.508.974,5.161,1.72,2.625.838,4.753,2.875,7.196,4.097a4.8092,4.8092,0,0,0,4.436.181,2.47623,2.47623,0,0,0,1.2-2.489c-.476-2.671-3.44-4.12-4.843-6.337a2.82491,2.82491,0,0,1-.318-1.88c.499-1.312,1.924-2.013,3.079-2.511.927-.453,2.105-.362,2.988-.883a6.1195,6.1195,0,0,0,.814-.68c.204,0,.204.205.249.34a3.9233,3.9233,0,0,1-1.403,4.142,5.34753,5.34753,0,0,1-1.788.68c-.521.225-1.561-.227-1.517.701a2.42794,2.42794,0,0,0,.884,1.041c1.832,1.539,3.529,3.485,3.756,5.861a4.69158,4.69158,0,0,1-2.784,4.211,6.1075,6.1075,0,0,1-3.916.316c-.338-.045-.882-.362-1.108.068-.09.498.249.905.271,1.403a6.50389,6.50389,0,0,1-.158,2.806c-.113.658-.814,1.449-.181,2.129.611.906,1.787.635,2.761.793.544.091.702.68005.86,1.086a15.00694,15.00694,0,0,0,.431,1.49506c-.024.973,1.086,1.357,1.652,2.01294.678.72406,1.244,1.97,2.399,1.902a8.18706,8.18706,0,0,1,.723,2.467l.022.103c-.929,0-2.33.281-3.031-.398-.792-.52-1.064-1.968-2.219-1.584a1.893,1.893,0,0,1-1.856.294c-.566-.203-.973-.746-1.493-1.04a7.17686,7.17686,0,0,0-5.726-1.291c-1.177.317-2.104-.498-3.055-1.063-1.222-.521-1.584-1.856-1.857-2.987l-.226-1.405a.34053.34053,0,0,1,.249-.294h.181c.889,2.067,1.77,3.361,3.87,4.052,1.743.702,3.241-.168,4.911.136a8.98548,8.98548,0,0,1,4.233,2.263c.113.023.203-.091.249-.181v-.113a7.06867,7.06867,0,0,0-6.042-3.008,4.89623,4.89623,0,0,1-5.207-1.968,6.95508,6.95508,0,0,1-1.312-2.88,20.53279,20.53279,0,0,0-.906-3.961c-.112-.09-.379-.215-.537-.125l-.275.216c.228,1.268.858,2.784.405,4.119a2.43685,2.43685,0,0,1-2.399,1.495c-.996.068-1.909-.049-2.927-.049-2.399-.091-4.312.623-6.779.374.203-.567.572-1.038.368-1.693-.091-.136-.394-.127-.529-.104-.453.294-.407.86-.68,1.245a3.99446,3.99446,0,0,1-2.489,1.835,14.25619,14.25619,0,0,0-1.946,1.946.8888.8888,0,0,0-.159.86c.498,1.177,1.833,1.336,2.92,1.63a1.25679,1.25679,0,0,0,1.267-.588c.453-.725.543-1.902,1.608-2.038h2.308a.6588.6588,0,0,1,.429.386l-.09.316c-.498.611-.724,1.426-1.403,1.879-.363.113-.861-.024-1.109.316a2.59107,2.59107,0,0,1-1.132,2.059c-.566.522-1.471.273-2.105.069-1.222-.475-2.534-.702-3.757-1.109-.542-.158-.746-.815-1.289-.95-.543-.136-1.133.293-1.562-.181a5.71866,5.71866,0,0,1-.544-1.631,4.80853,4.80853,0,0,1-.407-1.289,1.74586,1.74586,0,0,1,.136-1.019l1.697-3.08a1.37769,1.37769,0,0,1,.476-.475,5.17535,5.17535,0,0,1,1.222.498l-.069.204-1.742,2.695a3.13808,3.13808,0,0,0,.385,2.581c.091.044.136.18.226.135a5.78731,5.78731,0,0,1,0-1.652,4.41264,4.41264,0,0,1,.747-1.449l1.381-2.038a1.32186,1.32186,0,0,0-.113-1.2c-.612-.612-1.472-.77-1.969-1.562-1.155-1.516-.953-3.282-1.089-5.205a.66323.66323,0,0,0-.428-.423c-.136-.046-.43.128-.498.219a7.45647,7.45647,0,0,0,.18,3.87,14.15732,14.15732,0,0,0,.975,2.512.30988.30988,0,0,1-.204.362,15.77641,15.77641,0,0,1-2.738-.113c-1.199-.181-2.06-1.109-3.033-1.81-.114-.091-.227.045-.295.135.272,1.336,1.743,2.082,2.196,3.328.294.974,1.222,1.744,1.448,2.785a.53346.53346,0,0,1-.249.407c-.317.09-.656-.135-.95.046-.046.565.316,1.154.068,1.743-.317.497-.77,1.08606-1.381,1.108-1.199-.407-2.354-.905-3.553-1.267a11.75683,11.75683,0,0,0-2.535.159,5.17943,5.17943,0,0,1-1.902-1.291.48671.48671,0,0,0-.497.068c-1.335,1.336-2.761,2.761-4.753,2.671a.28733.28733,0,0,1-.227-.25l.022-.135a7.01876,7.01876,0,0,0,2.287-2.693c.271-.905,1.086-1.562,1.358-2.467.045-.158-.09-.226-.203-.249l-.227.113a21.09693,21.09693,0,0,0-2.399,3.191,3.00737,3.00737,0,0,1-2.875.906.31509.31509,0,0,1-.067-.408c4.097-2.512,4.572-6.995,5.703-11.069.792-2.693,1.358-5.477,3.486-7.673,3.168-3.462,7.129-5.545,10.591-8.578a3.06594,3.06594,0,0,1,1.721-.95,5.80814,5.80814,0,0,1,4.164,1.494m-91.454-.06805c1.561.385,3.281.431,4.481,1.675a2.90444,2.90444,0,0,1,.227,2.987c-.906,1.585-2.739,2.4-3.893,3.78a3.66561,3.66561,0,0,0-1.155,3.803,3.36585,3.36585,0,0,0,2.897,2.194c1.947.046,3.441-.928,5.003-1.833,1.56-1.109,3.01-2.557,4.843-3.01,1.154-.43,2.534-.203,3.666-.678,1.291-.25,2.24-1.313,3.237-2.219a5.66556,5.66556,0,0,1,3.892-1.38c1.313.203,2.06-.996,2.943-1.766,1.516-1.358,3.508-1.516,5.273-2.308a24.32712,24.32712,0,0,0,3.418-1.901,5.42667,5.42667,0,0,1,3.778-.136,10.88071,10.88071,0,0,1,2.151,1.15405l5.364,4.45795c.293.282.295.295.43.431a48.31923,48.31923,0,0,1,4.345,5.635,8.861,8.861,0,0,1,.77,2.219,30.99753,30.99753,0,0,0,2.059,8.328c.273.43.794.702,1.086,1.133.839,1.178,1.381,2.671,2.738,3.463l.817.408a.23872.23872,0,0,1,0,.272l-.137.113a3.875,3.875,0,0,1-3.734-1.947,4.87227,4.87227,0,0,0-2.422-2.60394c-.067-.024-.114.045-.158.09094.158.36206.521.657.679,1.019a10.03572,10.03572,0,0,1,1.087,2.286,4.21282,4.21282,0,0,0,1.923,1.947l1.063.543a.27544.27544,0,0,1,.069.408l-.158.09a5.82,5.82,0,0,1-4.594-1.833,1.62387,1.62387,0,0,0-1.11-.612,4.58532,4.58532,0,0,1-2.648,1.472,6.13044,6.13044,0,0,0-3.326.226,9.8359,9.8359,0,0,1-2.831.747,1.221,1.221,0,0,1-1.176-.678c0-.567-.43-1.246-.068-1.834l.679-.996a.269.269,0,0,0-.226-.272c-.294-.045-.725.43005-.838-.068.068-1.018,1.041-1.629,1.721-2.332a4.34638,4.34638,0,0,1,1.041-2.151.30014.30014,0,0,0-.181-.226,13.92735,13.92735,0,0,1-2.626.339,3.2832,3.2832,0,0,1-2.49.385c-.181-.113-.113-.317-.068-.476a5.88765,5.88765,0,0,0,.996-4.367c-.068-.068-.223-.265-.358-.219a.5516.5516,0,0,0-.363.264,8.74932,8.74932,0,0,1-1.135,3.803c-.588.61-1.516.564-2.285.815a.58728.58728,0,0,0-.385.474c-.023.498.339.883.544,1.313l1.742,3.148a8.18318,8.18318,0,0,1-.52,2.49c.09.158.226.09.339.022a4.57457,4.57457,0,0,0,1.244-2.015,1.87063,1.87063,0,0,0-.181-1.018l-1.788-3.532c.114-.227.408-.182.612-.272a3.36693,3.36693,0,0,1,1.153.316,10.6609,10.6609,0,0,0,1.608,3.103,2.26664,2.26664,0,0,1-.046,1.879,17.61576,17.61576,0,0,1-1.29,2.173c-.452.475-1.154.43-1.788.498h-.52a27.53454,27.53454,0,0,1-4.911,1.901,2.113,2.113,0,0,1-2.173-.407,6.18779,6.18779,0,0,1-1.222-1.743c-.452-.566-1.176-.068-1.698-.386-.452-.746-.905-1.47-1.313-2.217a.60454.60454,0,0,1,.182-.543,8.47487,8.47487,0,0,1,1.901-.294,1.90593,1.90593,0,0,1,1.629.497c.793.928,1.109,2.196,2.309,2.785a4.614,4.614,0,0,0,2.512-.612c.453-.272.996-.679.996-1.267a3.74733,3.74733,0,0,0-1.811-2.739,8.59,8.59,0,0,1-2.783-2.174,6.26854,6.26854,0,0,1-.657-1.676.525.525,0,0,0-.541-.082c-.385.34-.046.586,0,.993a1.28369,1.28369,0,0,1-.177.858c-.565.453-1.1.277-1.824.299a26.508,26.508,0,0,0-4.246-.076c-1.472.069-3.487.84-4.573-.588-.543-1.35895-.094-3.00995.155-4.413,0-.159-.27-.282-.405-.305-.113-.045-.452.056-.497.192-.362,1.358-.476,2.897-.77,4.323a5.72993,5.72993,0,0,1-2.715,2.946,9.66426,9.66426,0,0,1-3.803.905c-2.489.046-4.842.544-6.36,2.693a1.6613,1.6613,0,0,0-.271.926.3115.3115,0,0,0,.362.067,7.73637,7.73637,0,0,1,6.382-2.579c3.324,0,4.61-.211,6.247-2.444.385-.454.634-.951.973-1.428.272-.022.475.318.656.477.046.701-.544,1.176-.769,1.788a3.45551,3.45551,0,0,1-1.336,1.811,7.64171,7.64171,0,0,0-2.149,1.153,3.80749,3.80749,0,0,1-2.513.25,6.20982,6.20982,0,0,0-3.576.022c-.543.34-.973.928-1.493,1.268-.747.295-1.381.928-2.262.882-.589-.112-1.336-.52-1.834.02295-.634.611-.815,1.629-1.653,2.014-.973.544-2.015,0-3.01-.09a5.14342,5.14342,0,0,1,.905-2.625,1.73691,1.73691,0,0,0,1.042-.385,5.59041,5.59041,0,0,0,.95-1.223,6.34692,6.34692,0,0,0,2.377-1.855,8.90765,8.90765,0,0,1,1.085-2.421l.341-.16,1.764-.113a9.69116,9.69116,0,0,0,2.06-1.155,1.011,1.011,0,0,0,.204-.838,18.018,18.018,0,0,1-.814-2.354,23.88564,23.88564,0,0,1-.182-2.92c-.068-.089-.136-.249-.294-.249a9.6478,9.6478,0,0,1-3.622.385,5.2733,5.2733,0,0,1-4.254-3.146,5.01131,5.01131,0,0,1,.679-4.911,25.97033,25.97033,0,0,1,3.667-3.395.89457.89457,0,0,0,.27-.611.75418.75418,0,0,0-.475-.566,13.29371,13.29371,0,0,1-2.512-.272,4.10986,4.10986,0,0,1-2.625-3.21405,2.67713,2.67713,0,0,1,.407-1.719,13.37032,13.37032,0,0,0,2.648,1.516" transform="translate(-0.00018)" fill="#df003c"/><path d="M45.8744,44.34833l-.082-.113-.18-.26a.85514.85514,0,0,1-.09-.903l.021-.028a.65113.65113,0,0,1,.654-.105l.026.014a2.98672,2.98672,0,0,1,.816,1.028,4.89169,4.89169,0,0,1,.346,1.89,5.9632,5.9632,0,0,1-.206,1.566s.027.008.055.015c-.028-.007-.055-.015-.055-.015l-.007.023-.016.016a.2275.2275,0,0,1-.293.034l-.03-.021-.008-.037a14.45788,14.45788,0,0,0-.741-2.745l-.21-.359" transform="translate(-0.00018)" fill="#fff"/><path d="M54.72971,54.801a1.04691,1.04691,0,0,1-.075-.39,1.46674,1.46674,0,0,1,.132-.57l.184-.377.211-.446.028-.042a.95825.95825,0,0,0,.194-.352l.056-.15405.123-.316a.5914.5914,0,0,1,.876-.337,1.78526,1.78526,0,0,1,.66.679l.101.16705.129.212.267.341a3.59433,3.59433,0,0,1,1.084,2.39,2.87017,2.87017,0,0,1-.067.606l-.067.193c-.005.014-.061.196-.061.196a.44186.44186,0,0,1-.324.314.27026.27026,0,0,1-.246-.037.28254.28254,0,0,1-.111-.23c0-.004-.013-.203-.013-.203l-.07-.696a1.82675,1.82675,0,0,0-.301-.78406c-.005-.006-.305-.355-.305-.355-.011-.014-.346-.392-.346-.392a1.13231,1.13231,0,0,0-.754-.401,1.29547,1.29547,0,0,0-.558.395l-.241.295-.211.285c-.078.133-.251.058-.252.057l-.03-.016-.013-.032" transform="translate(-0.00018)" fill="#fff"/><path d="M54.2989,62.50714l-.1-.063a.22563.22563,0,0,1-.082-.255,2.21069,2.21069,0,0,1,1.514-1.416c.018-.002.063-.002.063-.002h.103l.165.024a.33587.33587,0,0,1,.25.28,3.50415,3.50415,0,0,1,.02.353,1.13517,1.13517,0,0,1-.371.951s-.01.006-.006.012c-.006-.005-.021.001-.021.001a4.0561,4.0561,0,0,1-1.411.162l-.029-.006-.095-.041" transform="translate(-0.00018)" fill="#fff"/><path d="M91.39241,46.44672a1.4382,1.4382,0,0,1-.072-.462,2.23717,2.23717,0,0,1,.04-.406l.142-.565.071-.254a7.8674,7.8674,0,0,1,2.661-3.304.9235.9235,0,0,1,.69-.103.45437.45437,0,0,1,.295.269.54052.54052,0,0,1,.082.279.55153.55153,0,0,1-.037.195l.054.02-.054-.02-.098.192-.106.169-.713.663-.765.714a8.42837,8.42837,0,0,0-1.265,1.482,6.62684,6.62684,0,0,0-.604,1.096.219.219,0,0,1-.265.091s-.022-.008-.043-.014l-.013-.04205" transform="translate(-0.00018)" fill="#fff"/><path d="M81.3999,57.74371a.29649.29649,0,0,1-.129-.236,3.36279,3.36279,0,0,1,1.05-2.805,6.96625,6.96625,0,0,0,.978-1.029l.296-.377.595-.735.067-.035a.79366.79366,0,0,1,.796.47,7.02728,7.02728,0,0,1,.96,1.72.45465.45465,0,0,1,.025.153.64256.64256,0,0,1-.008.096l-.06.217a.77422.77422,0,0,1-.205.211.27055.27055,0,0,1-.3.002.658.658,0,0,1-.294-.23l-.096-.147-.083-.144c-.102-.175-.198-.307-.434-.289a.77266.77266,0,0,0-.5.169l-.147.11-.083.063-.24.161c-.01.007-.323.276-.323.276l-.141.12-.456.421a1.90126,1.90126,0,0,0-.565.98395l-.062.239-.019.102-.028.143a.63273.63273,0,0,1-.248.436.4117.4117,0,0,1-.346-.066m.703-.854h0" transform="translate(-0.00018)" fill="#fff"/><path d="M83.9395,61.24731a1.63478,1.63478,0,0,1,1.335.53l.015.025.089.175.134.28.054-.02-.054.02a.81568.81568,0,0,1,.061.289.56664.56664,0,0,1-.061.255l-.016.029a.89872.89872,0,0,1-.585.135l-.432-.05-.144-.021-.032-.01a1.44207,1.44207,0,0,1-.588-1.231.46521.46521,0,0,1,.169-.387l.023-.019Z" transform="translate(-0.00018)" fill="#fff"/><path d="M76.2301,40.6701c.066-.187-.118-.383-.168-.559l.907.452c1.046.505,3.626-.86,3.435-1.43195.722-1.454,19.624-12.571,20.426-13.044a10.17558,10.17558,0,0,0-1.161.465c-2.438,1.291-4.897,2.549-7.32,3.874-1.391.76-2.791,1.581-4.155,2.402-1.439.867-2.892,1.769-4.304,2.692-1.434.937-2.841,1.943-4.26,2.908-.921.626-2.533,1.823-3.627,1.376-.699-.284-1.832-1.722-2.449-2.309l-5.736-5.473c-.197-.187-.487-.46-.763-.416,1.991,2.092,9.052,9.006,9.175,9.064" transform="translate(-0.00018)" fill="#001041" fill-rule="evenodd"/><path d="M103.76619,26.94135c-3.222,1.715-6.422,3.491-9.632,5.236-.229.125-1.535.906-1.711.77a5.00585,5.00585,0,0,1,1.411-1.132c1.169-.73,14.82-8.457,18.497-10.643-14.158,6.262-30.437,16.455-31.445,17.853l.287.234a18.03084,18.03084,0,0,1-3.544,2.189c-1.428.579-2.235-.937-3.146-1.863l-8.034-8.161c-.658-.668-2.492.005-4.341,1.132a26.94159,26.94159,0,0,1-.308,3.125,1.80459,1.80459,0,0,1-1.217.951,16.5676,16.5676,0,0,1-3.847.718,3.01922,3.01922,0,0,0-.661,1.649,1.38987,1.38987,0,0,0,.8,1.191c1.074.458,2.268.749,3.37,1.134a73.01821,73.01821,0,0,1,6.941,2.746l5.539,2.589a2.40594,2.40594,0,0,0,2.242.149c2.76-1.276,5.178-3.493,7.676-5.258a246.259,246.259,0,0,1,24.177-15.123c2.998-1.634,11.556-6.483,11.556-6.483-16.492,8.022-9.826,4.452-14.61,6.99695m-31.964,15.087c-.902-.599-1.774-1.254-2.698-1.811-.426-.259-.928-.435-1.335-.703a.21314.21314,0,0,1-.061-.252c.598-.55,3.833,2.375,4.301,2.766Zm-5.42-6.191c-.51-.397-1.088-.741-1.619-1.103-.435-.297.106-.734.408-.503.98.747,2.017,1.464,2.964,2.258.304.256,5.004,4.26,5.123,4.642-.186-.00995-6.288-4.837-6.876-5.294" transform="translate(-0.00018)" fill="#001041" fill-rule="evenodd"/><path d="M61.092,35.42566l.338-3.36694a9.89958,9.89958,0,0,0,.15-1.322,1.24588,1.24588,0,0,0-.55-.694c.378,1.087-.092,3.494-.229,4.738-.033-.923-.041-4.386-.211-5.029-.356-1.352-5.419-2.675-6.617-2.531a3.4188,3.4188,0,0,0-1.852,1.076c-.184.354-.513,2.776-.64,3.383l-1.35.157.399-.755c.432-.825.118-2.533.849-3.029a3.18528,3.18528,0,0,0,.844-.771c-.455.083-2.938.427-3.133,1.33a33.99742,33.99742,0,0,0-.78,5.058.84754.84754,0,0,0,.506.695c.11-.242.085-.657.285-.821.529-.435,2.405-.328,3.074-.283a7.63313,7.63313,0,0,0-2.591.622c-1.667,3.02,9.953,3.571,11.508,1.543" transform="translate(-0.00018)" fill="#001041" fill-rule="evenodd"/><path d="M46.4555,72.69781a2.92247,2.92247,0,0,1-.524,3.135l-1.916,1.544-1.118-1.447c.679-.628,1.471-1.163,2.195-1.767l-1.094-1.447-4.831,3.711c.575,1.045,1.843,1.899,1.355,3.243l-.098.45605-5.161,3.98a2.757,2.757,0,0,1-4-1.989,2.928,2.928,0,0,1,.998-2.712c.537-.426,1.097-.827,1.635-1.274a17.75779,17.75779,0,0,1,1.116,1.49194c-.701.583-1.446,1.119-2.171,1.7l1.071,1.469c1.61-1.184,3.221-2.481,4.856-3.734-.667-1.093-2.113-2.178-1.212-3.584l.4-.472,4.691-3.578a2.76839,2.76839,0,0,1,2.641.01,3.10727,3.10727,0,0,1,1.167,1.264m56.904,10.872a2.73283,2.73283,0,0,0,3.379-4.296l-5.591-4.39795-1.613,2.05,1.43,1.127.488-.62006,4.759,3.746-1.126,1.431-10.951-8.61694,1.128-1.431,2.166,1.706,1.126-1.433-1.565-1.234a2.73352,2.73352,0,1,0-3.38,4.297Zm-15.063-3.485,1.477-1.065,3.543,4.91-1.477,1.066Zm7.74,13.843,1.476-1.065-4.608-6.389,1.477-1.066,3.845,5.331a3.00834,3.00834,0,0,0,1.084.828l1.517-1.096a2.57187,2.57187,0,0,1-1.122-.798l-3.429-4.752c-.633-.878-1.148-.962-1.609-.842a1.39735,1.39735,0,0,0-.161-1.613l-3.254-4.512a1.81982,1.81982,0,0,0-2.544-.414l-2.956,2.133Zm-12.567-12.764-1.691.676,5.851,14.626-1.691.677-5.851-14.625-1.691.676,5.567,13.917a2.73185,2.73185,0,0,0,5.073-2.029Zm-9.954,12.91,1.809-.216.717,6.014-1.81.216Zm-.933-7.82,1.809-.217.717,6.014-1.808.215Zm.057,15.859,3.618-.432a1.815,1.815,0,0,0,1.591-2.026l-.631-5.304c-.129-1.075-.539-1.398-.999-1.517a1.39629,1.39629,0,0,0,.64-1.488l-.658-5.524a1.81659,1.81659,0,0,0-2.023-1.593l-3.619.431Zm-34.28-11.723,1.432,1.128,4.871-6.191,1.432,1.126-4.871,6.19,1.431,1.126,9.271-11.781a2.73244,2.73244,0,0,0-4.295-3.379Zm11.175-11.255,1.432,1.127-3.745,4.758-1.432-1.125Zm11.286,9.863,1.793.322.645-3.585,1.745.314-6.004,13.076-.323,1.794,5.379.967.968-5.379-1.793-.322-.646,3.587-1.744-.315,6.004-13.077.323-1.793-5.38-.968Zm-12.455,7.909,4.92,2.373,2.373-4.919-1.639-.792-1.582,3.28-1.641-.792,6.842-14.183-1.64-.791Z" transform="translate(-0.00018)" fill="#001041" fill-rule="evenodd"/><path d="M56.55379,26.92a14.38459,14.38459,0,0,1,2.722.891c.09.043.175.088.26.132a26.73449,26.73449,0,0,1,4.263-1.296l.018-.016v.013a26.66808,26.66808,0,0,1,3.723-.52l-.005-17.621h-3.751l.015,9.19a5.36729,5.36729,0,0,0-3.765-1.562,5.84065,5.84065,0,0,0-5.603,6.053,6.21867,6.21867,0,0,0,2.123,4.736m4.543-7.597a2.98142,2.98142,0,1,1-2.751,2.972,2.86842,2.86842,0,0,1,2.751-2.972" transform="translate(-0.00018)" fill="#df003c"/><path d="M79.9711,28.11951a5.55849,5.55849,0,0,0,5.521-5.484,4.87985,4.87985,0,0,0-3.162-4.912,5.18106,5.18106,0,0,0,1.593-3.706,5.1263,5.1263,0,0,0-1.302-3.424c-.862-1.001-2.388-1.445-4.451-1.445h-6.179v17.036a26.64338,26.64338,0,0,1,7.716,1.935Zm-4.127-3.326V12.4245h2.413a2.02376,2.02376,0,0,1,0,4.042h-1.255v3.429h2.301a2.329,2.329,0,0,1,2.255,2.444,2.32361,2.32361,0,0,1-2.255,2.454Z" transform="translate(-0.00018)" fill="#df003c"/><path d="M100.7435,25.38c1.062-.483,2.298-1.045,3.614-1.639V8.649h-3.614Z" transform="translate(-0.00018)" fill="#df003c"/><path d="M94.6685,23.31476a2.11974,2.11974,0,0,1-4.238,0v-6.845h-3.682v7.572c0,2.564,2.59,4.642,5.787,4.642s5.789-2.078,5.789-4.642v-7.572h-3.656Z" transform="translate(-0.00018)" fill="#df003c"/><path d="M106.85381,8.64893V22.618c1.213-.544,2.44-1.091,3.615-1.609v-12.36Z" transform="translate(-0.00018)" fill="#df003c"/><path d="M40.9802,14.72235a5.5298,5.5298,0,0,0-5.447-5.60895c-.092,0-.513.002-.604.007h-6.336v18.986h3.847v-15.711l2.293-.021a2.46657,2.46657,0,0,1,2.499,2.485,2.52931,2.52931,0,0,1-2.571,2.485l-.893.021v4.521l3.842,6.22h4.533l-5.313-7.935a5.58186,5.58186,0,0,0,4.15-5.449" transform="translate(-0.00018)" fill="#df003c"/><path d="M52.0531,26.66943l.01-.001c.039-.006.078-.009.116-.014a5.73241,5.73241,0,0,0,.893-1.202l-3.011-1.42a2.534,2.534,0,0,1-2.325,1.442,2.44844,2.44844,0,0,1-2.524-2.365c0-.084-.033-.05-.024-.132l8.194.004a7.71733,7.71733,0,0,0,.036-.797c.056-4.105-2.601-6.357-5.987-6.357a6.35081,6.35081,0,0,0,.001,12.694,7.75358,7.75358,0,0,0,1.071-.075c.395-1.33905,2.803-1.699,3.55-1.777m-4.589-8.187a2.292,2.292,0,0,1,2.266,2.317h-4.532a2.2914,2.2914,0,0,1,2.266-2.317" transform="translate(-0.00018)" fill="#df003c"/></g></svg>