<svg width="300" height="300" viewBox="0 0 336 336" fill="none" xmlns="http://www.w3.org/2000/svg">
<path d="M313.383 83.9548C319.173 75.2698 323.696 63.3279 327.134 48.4911C327.858 45.4152 326.591 42.1583 324.058 40.168C321.525 38.1777 318.087 37.8158 315.192 39.2633C307.774 42.8821 299.089 45.7771 288.414 47.7674C288.052 47.7674 286.966 47.9483 285.338 48.1292C255.302 18.2746 213.687 0 167.91 0C75.2698 0 0 75.2698 0 167.91C0 260.549 75.2698 335.819 167.91 335.819C260.73 335.819 335.819 260.549 335.819 167.91C336 137.331 327.858 108.743 313.383 83.9548Z" fill="#003E7E"/>
<path d="M167.91 323.334C253.749 323.334 323.335 253.748 323.335 167.91C323.335 82.0707 253.749 12.4846 167.91 12.4846C82.071 12.4846 12.4849 82.0707 12.4849 167.91C12.4849 253.748 82.071 323.334 167.91 323.334Z" fill="black"/>
<path d="M285.518 167.91C285.518 232.866 232.866 285.519 167.909 285.519C102.953 285.519 50.3003 232.866 50.3003 167.91C50.3003 102.953 102.953 50.3005 167.909 50.3005C232.866 50.4815 285.518 102.953 285.518 167.91Z" fill="#003E7E"/>
<path d="M167.91 288.233C101.687 288.233 47.7676 234.313 47.7676 168.09C47.7676 101.867 101.687 47.9482 167.91 47.9482C234.133 47.9482 288.052 101.867 288.052 168.09C288.233 234.313 234.314 288.233 167.91 288.233ZM167.91 53.0145C104.582 53.0145 53.0148 104.582 53.0148 167.909C53.0148 231.237 104.582 282.804 167.91 282.804C231.238 282.804 282.805 231.237 282.805 167.909C282.986 104.582 231.419 53.0145 167.91 53.0145Z" fill="white"/>
<path d="M75.4507 263.625L69.2989 257.292L66.042 260.549L72.3748 266.882L69.8417 269.415L63.147 262.54L59.8901 265.616L69.8417 275.748L83.7738 261.997L80.517 258.74L75.4507 263.625Z" fill="white"/>
<path d="M61.3377 235.399L56.4524 235.761L52.2909 228.343L55.1859 224.362L52.6527 219.839L39.4443 235.942L43.0631 242.275L64.2327 240.104L61.3377 235.399ZM44.6915 237.39L49.5768 231.238L52.6527 236.485L44.6915 237.39Z" fill="white"/>
<path d="M46.1388 200.84L39.0823 202.469C38.9013 201.745 38.7204 201.202 38.5395 200.478C38.3585 199.755 38.1776 199.212 37.9966 198.488C37.9966 198.126 37.8157 197.764 37.8157 197.402C37.8157 197.041 37.8157 196.679 37.8157 196.498C37.8157 196.136 37.9966 195.955 38.1776 195.774C38.3585 195.593 38.7204 195.412 39.0823 195.231L44.3294 193.965L43.2438 189.079L37.2729 190.527C36.911 190.527 36.5491 190.708 36.3682 190.889C36.0063 191.07 35.8254 191.251 35.4635 191.612C35.2826 191.974 34.9207 192.336 34.9207 192.698C34.7398 193.06 34.7398 193.422 34.5588 193.784C34.3779 193.241 34.197 192.698 33.8351 192.336C33.4732 191.974 33.1113 191.793 32.7495 191.793C32.3876 191.612 31.8448 191.612 31.302 191.793C30.7592 191.793 30.3973 191.974 29.8545 191.974L28.407 192.336C27.5023 192.517 26.7786 192.879 26.4167 193.422C26.0548 193.965 25.6929 194.507 25.512 195.05C25.3311 195.593 25.3311 196.317 25.3311 197.041C25.3311 197.764 25.512 198.488 25.6929 199.212L28.226 209.887L47.2244 205.364L46.1388 200.84ZM31.121 204.64L29.6735 198.85C29.6735 198.669 29.6735 198.307 29.6735 198.126C29.6735 197.945 29.6735 197.764 29.8545 197.583C30.0354 197.402 30.2164 197.222 30.3973 197.222C30.5782 197.041 30.9401 197.041 31.4829 196.86C31.8448 196.86 32.0257 196.679 32.3876 196.679C32.5685 196.679 32.9304 196.679 33.1113 196.679C33.2923 196.679 33.4732 196.86 33.6542 197.041C33.8351 197.222 34.016 197.402 34.016 197.764L35.4635 203.554L31.121 204.64Z" fill="white"/>
<path d="M37.0919 172.071C37.8157 172.071 38.5394 172.071 39.0822 171.89C39.6251 171.709 40.1679 171.528 40.5297 171.166C40.8916 170.805 41.2535 170.443 41.4344 169.9C41.6154 169.357 41.7963 168.633 41.7963 167.729L42.1582 156.511L31.8448 156.149L31.6638 160.672L37.4538 160.853L37.2729 166.281C37.2729 166.462 37.2729 166.643 37.0919 166.824C36.911 167.005 36.911 167.005 36.7301 167.186C36.5491 167.367 36.3682 167.367 36.1872 167.367C36.0063 167.367 35.8254 167.367 35.8254 167.367L28.5879 167.186C28.0451 167.186 27.5023 167.005 27.3213 167.005C26.9595 166.824 26.7785 166.462 26.7785 166.1L27.1404 156.149L22.7979 155.968L22.436 167.005C22.436 167.548 22.436 168.091 22.436 168.452C22.436 168.814 22.617 169.357 22.9788 169.9C23.3407 170.443 23.5217 170.805 24.0645 171.166C24.4263 171.528 24.9692 171.709 25.512 171.709L37.0919 172.071Z" fill="white"/>
<path d="M28.226 134.617C28.5878 134.979 28.9497 135.16 29.3116 135.341C29.6735 135.522 30.0353 135.703 30.3972 135.884L40.5297 138.96C40.8916 139.141 41.2534 139.141 41.7962 139.141C42.1581 139.141 42.52 139.141 43.0628 138.96C43.6056 138.779 44.1484 138.598 44.5103 138.236C44.8722 137.874 45.2341 137.512 45.415 136.97C45.7769 136.427 45.9578 136.065 46.1387 135.522C46.3197 134.979 46.5006 134.436 46.6815 133.894L48.31 128.827C48.4909 128.285 48.6719 127.742 48.6719 127.199C48.8528 126.656 48.8528 126.113 48.8528 125.57C48.8528 125.028 48.8528 124.485 48.6719 124.123C48.4909 123.58 48.31 123.218 47.9481 122.856C47.5862 122.495 47.2244 122.314 46.8625 122.133C46.5006 121.952 46.1387 121.771 45.7769 121.59L35.6444 118.514C35.2825 118.333 34.9206 118.333 34.3778 118.333C34.016 118.333 33.4731 118.333 33.1113 118.514C32.5685 118.695 32.0257 118.876 31.6638 119.238C31.3019 119.6 30.94 119.961 30.7591 120.504C30.3972 121.047 30.2163 121.409 30.0353 121.952C29.8544 122.495 29.6735 123.037 29.4925 123.58L27.8641 128.646C27.6832 129.189 27.5022 129.732 27.5022 130.275C27.3213 130.818 27.3213 131.36 27.3213 131.903C27.3213 132.446 27.3213 132.989 27.5022 133.532C27.5022 133.713 27.8641 134.075 28.226 134.617ZM32.3875 128.646C32.3875 128.104 32.5685 127.38 32.7494 126.837C32.9303 126.294 33.1113 125.57 33.4731 125.028C33.835 124.485 34.016 123.942 34.3778 123.58C34.7397 123.218 34.9206 123.218 35.2825 123.218C35.6444 123.218 36.0063 123.218 36.5491 123.399L42.7009 125.209C43.0628 125.39 43.2437 125.39 43.4247 125.39C43.6056 125.39 43.6056 125.57 43.7866 125.751C43.9675 126.113 43.9675 126.475 44.1484 126.656C44.1484 127.018 44.1484 127.38 44.1484 127.742C44.1484 128.104 43.9675 128.465 43.9675 128.827C43.9675 129.189 43.7866 129.551 43.6056 129.732C43.4247 130.094 43.4247 130.275 43.2437 130.637C43.0628 130.999 43.0628 131.36 42.8819 131.541C42.7009 131.903 42.52 132.084 42.3391 132.446C42.1581 132.627 41.7962 132.989 41.6153 133.17C41.4344 133.351 41.2534 133.351 41.0725 133.351C40.8916 133.351 40.7106 133.351 40.3488 133.17L34.1969 131.36C33.6541 131.18 33.2922 130.999 33.1113 130.818C32.7494 130.637 32.7494 130.275 32.5685 129.913C32.3875 129.913 32.3875 129.37 32.3875 128.646Z" fill="white"/>
<path d="M74.7269 83.2313L69.6606 78.346L75.8125 71.8322L72.5556 68.7563L66.4038 75.27L63.6897 72.9178L70.3844 65.8613L67.1275 62.9663L57.3569 73.0988L71.47 86.4881L74.7269 83.2313Z" fill="white"/>
<path d="M107.296 52.1099L101.868 43.0631C101.687 42.7012 101.325 42.3393 101.144 41.9775C100.963 41.6156 100.601 41.4347 100.058 41.2537C99.5154 41.0728 99.1535 40.8918 98.6107 40.8918C98.0679 40.8918 97.5251 40.8918 97.1632 41.0728C96.6204 41.2537 96.0776 41.4347 95.7157 41.6156C95.1729 41.7965 94.6301 42.1584 94.2682 42.5203L89.7448 45.2343C89.202 45.5962 88.8401 45.7771 88.2973 46.139C87.7545 46.5009 87.3926 46.8628 87.0307 47.2246C86.6688 47.5865 86.307 47.9484 86.126 48.4912C85.9451 49.034 85.7642 49.3959 85.7642 49.9387C85.7642 50.4815 85.9451 50.8434 85.9451 51.2053C86.126 51.5671 86.307 51.929 86.4879 52.2909L91.916 61.3377C92.097 61.6996 92.4588 62.0615 92.6398 62.2424C92.8207 62.6043 93.1826 62.7852 93.5445 62.9662C94.0873 63.1471 94.4491 63.328 94.9919 63.328C95.5348 63.328 96.0776 63.328 96.4394 63.1471C96.9823 62.9662 97.5251 62.7852 97.8869 62.4233C98.4297 62.2424 98.9726 61.8805 99.3344 61.5187L103.858 58.8046C104.401 58.4427 104.763 58.2618 105.305 57.8999C105.848 57.538 106.21 57.1762 106.572 56.8143C106.934 56.4524 107.296 56.0906 107.477 55.5477C107.658 55.0049 107.838 54.6431 107.838 54.1002C107.838 53.5574 107.838 53.1956 107.658 52.8337C107.838 52.8337 107.658 52.4718 107.296 52.1099ZM102.772 54.2812C102.772 54.6431 102.591 55.0049 102.41 55.1859C102.229 55.5477 102.048 55.7287 101.687 55.9096C101.506 56.0906 101.144 56.4524 100.782 56.6334C100.42 56.8143 100.239 56.9952 99.8773 57.1762C99.6963 57.3571 99.3344 57.538 98.9726 57.719C98.6107 57.8999 98.2488 58.0809 98.0679 58.0809C97.706 58.2618 97.3441 58.2618 96.9823 58.2618C96.6204 58.2618 96.2585 58.2618 95.8966 58.2618C95.7157 58.2618 95.5348 58.0809 95.3538 57.8999C95.1729 57.719 95.1729 57.5381 94.9919 57.3571L91.7351 51.7481C91.5541 51.3862 91.3732 51.0243 91.1923 50.6624C91.1923 50.3006 91.1923 49.9387 91.3732 49.5768C91.7351 49.2149 92.097 48.8531 92.4588 48.3103C92.8207 47.9484 93.3635 47.5865 93.9063 47.2246C94.4491 46.8628 94.9919 46.6818 95.5348 46.32C96.0776 46.139 96.6204 45.9581 97.1632 45.9581C97.5251 45.9581 97.8869 45.9581 98.0679 46.32C98.2488 46.5009 98.6107 46.8628 98.7916 47.2246L102.048 52.8337C102.229 53.0146 102.229 53.3765 102.41 53.3765C102.772 53.9193 102.772 54.1002 102.772 54.2812Z" fill="white"/>
<path d="M138.959 37.635C138.778 37.2731 138.597 37.0921 138.236 36.9112C137.874 36.7303 137.512 36.5493 137.15 36.3684C136.788 36.1875 136.426 36.1875 135.883 36.0065C136.426 35.8256 136.969 35.6447 137.15 35.2828C137.512 34.9209 137.693 34.559 137.693 34.1972C137.693 33.8353 137.693 33.2925 137.693 32.7497C137.693 32.2069 137.512 31.845 137.331 31.3022L136.969 29.8547C136.788 28.95 136.426 28.2262 135.883 27.8644C135.341 27.5025 134.798 27.1406 134.255 26.9597C133.712 26.7787 132.988 26.7787 132.265 26.9597C131.541 27.1406 130.817 27.1406 130.093 27.3216L119.599 30.3975L125.027 49.034L129.551 47.7674L127.56 40.8918C128.284 40.7109 128.827 40.53 129.551 40.349C130.274 40.1681 130.817 39.9871 131.541 39.8062C131.903 39.6253 132.265 39.6253 132.446 39.6253C132.808 39.6253 132.988 39.6253 133.35 39.6253C133.712 39.6253 133.893 39.8062 134.074 39.9871C134.255 40.1681 134.436 40.53 134.617 40.8918L136.064 46.139L140.769 44.6915L139.321 38.5396C139.321 38.1778 139.14 37.9968 138.959 37.635ZM132.988 34.559C132.988 34.74 132.808 34.9209 132.627 35.1018C132.446 35.2828 132.265 35.4637 131.903 35.4637L126.294 37.0921L125.208 32.9306L130.817 31.3022C130.998 31.3022 131.36 31.1212 131.541 31.1212C131.722 31.1212 131.903 31.1212 132.084 31.3022C132.265 31.4831 132.446 31.664 132.446 31.845C132.627 32.0259 132.627 32.3878 132.808 32.7497C132.808 33.1115 132.988 33.2925 132.988 33.6543C132.988 34.0162 132.988 34.1972 132.988 34.559Z" fill="white"/>
<path d="M163.748 37.635C163.567 37.635 163.205 37.635 163.024 37.4541C162.843 37.2731 162.662 37.0922 162.662 36.9113C162.481 36.7303 162.481 36.3685 162.481 36.1875C162.481 35.8256 162.481 35.6447 162.481 35.2828L162.3 28.0454C162.3 27.6835 162.481 27.5025 162.481 27.3216C162.662 27.1407 162.843 26.9597 163.024 26.9597C163.205 26.7788 163.567 26.7788 163.929 26.7788C164.291 26.7788 164.472 26.7788 164.833 26.7788L172.795 26.5979V22.2554C171.528 22.2554 170.442 22.2554 169.357 22.2554C168.271 22.2554 167.005 22.2554 165.919 22.2554C165.376 22.2554 164.833 22.2554 164.11 22.2554C163.567 22.2554 163.024 22.2554 162.481 22.2554C161.938 22.2554 161.396 22.4363 160.853 22.6172C160.31 22.7982 159.767 23.1601 159.405 23.341C159.043 23.7029 158.501 24.0647 158.32 24.6076C157.958 25.1504 157.958 25.5122 157.777 26.055L157.958 38.1778C158.139 38.7206 158.32 39.2634 158.501 39.6253C158.862 39.9872 159.224 40.53 159.586 40.7109C159.948 41.0728 160.491 41.2538 161.034 41.4347C161.577 41.6156 162.119 41.6156 162.662 41.6156L173.157 41.4347V37.0922L163.748 37.635Z" fill="white"/>
<path d="M207.353 32.207L208.258 28.0455L193.783 24.6077L189.26 43.606L203.916 46.8629L205.001 42.5204L194.869 40.1682L195.593 36.9114L205.182 39.2636L206.087 35.4639L196.497 33.1117L197.221 29.8548L207.353 32.207Z" fill="white"/>
<path d="M167.91 326.048C80.698 326.048 9.95166 255.121 9.95166 168.09C9.95166 81.0597 80.879 9.95142 167.91 9.95142C255.121 9.95142 325.868 80.8787 325.868 167.909C325.868 254.94 255.121 326.048 167.91 326.048ZM167.91 15.1986C83.774 15.1986 15.1988 83.7737 15.1988 167.909C15.1988 252.045 83.774 320.62 167.91 320.62C252.226 320.62 320.62 252.045 320.62 167.909C320.62 83.7737 252.226 15.1986 167.91 15.1986Z" fill="white"/>
<path d="M289.861 55.9094C288.956 56.0904 232.504 61.5185 231.961 61.5185C212.601 63.1469 180.575 67.3085 176.052 68.2131C162.3 70.9272 150.54 75.4506 142.397 78.7075C110.191 91.9159 69.6607 133.17 57.357 137.693C56.9951 137.693 57.357 137.874 57.5379 137.874C70.9273 137.512 84.6785 135.703 99.8772 129.189C104.943 127.018 134.617 109.105 136.788 108.2C145.473 104.762 149.454 103.677 153.977 103.677C161.396 103.677 161.939 109.467 161.939 109.467L119.057 186.365L144.207 184.013L106.21 254.035L136.788 250.055L98.4297 320.439L194.326 229.066L163.024 233.047L195.05 177.318L226.895 173.338L244.808 139.864L186.184 147.464L212.058 103.134C212.058 103.134 282.262 94.449 285.338 93.9062C307.774 91.3731 315.916 60.9757 318.992 46.6816C309.945 51.2051 299.813 54.1001 289.861 55.9094Z" fill="white"/>
<path d="M176.052 68.0324C162.3 70.7465 150.54 75.2699 142.397 78.5267C110.191 91.7352 69.6607 132.989 57.357 137.512C56.9951 137.512 57.357 137.693 57.5379 137.693C70.9273 137.331 84.6785 135.522 99.8772 129.008C103.858 127.38 122.856 116.162 131.903 110.734C142.036 90.6495 159.767 74.7271 181.118 66.9468C178.585 67.6705 176.956 67.8515 176.052 68.0324Z" fill="#BBBCBE"/>
<path d="M49.0341 169.176C48.6722 169.176 48.8532 169.357 49.0341 169.176C60.976 171.89 73.6416 172.795 88.4784 170.262C93.0018 169.538 117.609 161.577 124.123 159.587L138.236 133.894C137.693 133.894 137.15 134.074 136.608 134.074C105.486 139.322 60.795 167.548 49.0341 169.176Z" fill="#BBBCBE"/>
</svg>
