<svg enable-background="new 0 0 61.35 51.08" height="289.147985" viewBox="0 0 61.35 51.08" width="345.843669" xmlns="http://www.w3.org/2000/svg" xmlns:xlink="http://www.w3.org/1999/xlink"><clipPath id="a"><path d="m0 0h61.35v51.08h-61.35z"/></clipPath><clipPath id="b"><path d="m0 0h61.35v51.08h-61.35z"/></clipPath><clipPath id="c"><path d="m0 0h61.35v51.08h-61.35z"/></clipPath><path d="m33.582 0c-13.504 0-24.492 10.986-24.492 24.491 0 13.504 10.987 24.489 24.491 24.489s24.491-10.985 24.491-24.489c.001-13.505-10.987-24.491-24.49-24.491" fill="#231f20"/><path d="m9.61 24.49c0-13.24 10.732-23.972 23.972-23.972s23.973 10.732 23.973 23.972-10.733 23.972-23.973 23.972-23.972-10.732-23.972-23.972" fill="#edb111"/><path d="m33.582 1.256c-12.812 0-23.234 10.423-23.234 23.234 0 12.812 10.423 23.234 23.234 23.234s23.234-10.423 23.234-23.234-10.424-23.234-23.234-23.234" fill="#231f20"/><path d="m34.303 41.734-2.233-.008c-.362 0-.618.094-.762.281-.133.172-.197.48-.199.941l-.012 2.424c-.002.461.062.77.193.943.141.188.396.283.758.285l2.234.008c.361 0 .618-.094.761-.281.133-.174.198-.482.2-.943l.008-1.59-2.28-.008-.005.933s.991.003 1.226.005c-.001.172-.002.555-.003.727-.249-.001-1.787-.006-2.035-.008 0-.237.01-2.389.011-2.627.249 0 1.787.006 2.035.007 0 .147-.002.56-.002.56l1.056-.26.001-.212c.002-.435-.063-.729-.201-.9-.146-.182-.399-.275-.751-.277" fill="#fff"/><path d="m37.903 41.146-.729.182-.513 5.154.94-.234s.072-.896.085-1.059c.162-.041 1.432-.355 1.593-.396.089.136.581.894.581.894l1.022-.254-2.887-4.31zm.751 2.668c-.221.055-.64.158-.861.213.022-.242.083-.928.124-1.377.241.381.608.959.737 1.164z" fill="#fff"/><path d="m43.386 38.711-.55.301s.123 2.416.147 2.883c-.383-.27-2.37-1.668-2.37-1.668l-.675.369 2.334 4.272.721-.394s-1.085-1.984-1.298-2.375c.334.243 1.93 1.404 1.93 1.404l.271-.148s-.11-1.936-.135-2.362c.347.634 1.288 2.358 1.288 2.358l.792-.434-2.335-4.273z" fill="#fff"/><path d="m48.84 38.131c-.335-.355-.623-.432-.855-.402.008-.039.021-.076.021-.119 0-.189-.082-.414-.32-.666l-.385-.406c-.584-.618-1.019-.452-1.281-.205l-1.904 1.801 3.345 3.538 1.775-1.678c.471-.446.475-.942.009-1.435zm-.358 1.025c0-.002-.005.035-.083.109 0 0-.732.692-1.005.949-.128-.135-.483-.512-.61-.646.165-.156 1.004-.949 1.004-.949.08-.076.116-.077.118-.077.006 0 .069.009.202.147l.237.252c.129.137.137.202.137.215zm-1.335-1.406c0 .041-.026.077-.066.115 0 0-.735.695-1.007.951-.125-.129-.44-.463-.564-.594.166-.158 1.008-.953 1.008-.953.043-.041.082-.062.116-.061.049.001.103.047.137.085l.301.317c.052.057.075.101.075.14z" fill="#fff"/><path d="m50.726 36.393c-.213-.142-3.111-2.068-3.111-2.068l-.525.79 4.059 2.696 1.732-2.604-.947-.629c-.001-.001-1.073 1.613-1.208 1.815" fill="#fff"/><path d="m52.856 32.477c-.173-.064-.639-.242-.81-.307.078-.208.476-1.253.476-1.253l-.989-.376s-.397 1.046-.477 1.253c-.163-.062-.537-.204-.699-.267.086-.228.815-2.147.815-2.147l-.99-.375-.049.129-1.103 2.907 4.552 1.729 1.163-3.063-1.064-.404s-.738 1.946-.825 2.174" fill="#fff"/><path d="m55.5 26.372.165-1.312s-1.512.896-1.88 1.114c.005-.04.013-.101.013-.101.005-.04.008-.081.008-.123 0-.331-.182-.696-.933-.79l-1.071-.135c-.846-.106-1.077.299-1.122.657l-.327 2.606 4.83.606.118-.941s-1.48-.186-1.712-.215c.019-.145.042-.338.053-.424.12-.061 1.858-.942 1.858-.942m-2.797-.201c0 .019-.001.041-.005.071 0 0-.125.992-.171 1.361-.192-.023-.803-.1-.994-.123.027-.227.171-1.362.171-1.362.013-.101.036-.125.036-.125s.046-.03.208-.011l.546.068c.164.021.2.061.204.067 0 .003.005.018.005.054z" fill="#fff"/><path d="m50.659 23.211c.038.321.16.537.361.642.188.096.5.117.958.062l.506-.059c.458-.054.758-.148.917-.286.141-.122.211-.304.211-.544 0-.052-.003-.108-.011-.166 0 0-.146-1.244-.195-1.661.175-.021.597-.071.771-.091.027.221.184 1.544.21 1.765-.152.018-.386.07-.386.07l.388.833.017-.026c.457-.054.756-.149.913-.289.17-.151.235-.39.198-.712 0-.001-.212-1.783-.212-1.783-.037-.318-.158-.532-.359-.636-.188-.095-.5-.116-.957-.062l-.63.075c-.458.054-.758.149-.916.288-.141.124-.211.308-.211.547 0 .052.004.107.01.164 0 .001.146 1.241.197 1.657-.171.02-.534.064-.703.084-.026-.218-.167-1.411-.193-1.628.149-.018.343-.07.343-.07l-.427-.81.05.022c-.419.05-.698.144-.852.289-.163.154-.228.387-.191.695z" fill="#fff"/><path d="m16.194 21.164c-.147-.139-.421-.231-.838-.28l-1.427-.184-.196 2.072.85.116s.082-.871.104-1.101c.165.019.47.055.634.074-.023.246-.146 1.546-.17 1.793-.237-.028-2.09-.247-2.326-.275.023-.246.146-1.545.171-1.792.136.016.508.06.508.06l-.155-.999-.202-.024c-.396-.047-.67-.017-.838.09-.181.116-.289.337-.318.659l-.19 2.002c-.032.33.034.575.194.727.146.139.421.231.837.279l2.168.256c.416.049.701.024.871-.078.185-.111.295-.335.327-.666l.189-2.002c.032-.33-.033-.575-.193-.727" fill="#fff"/><path d="m16.246 16.788c.035-.088.059-.186.059-.287 0-.255-.151-.532-.672-.736l-.904-.353c-.326-.128-.586-.146-.793-.055-.158.069-.276.201-.351.391l-.868 2.219 4.122 1.611.321-.822s-1.243-.486-1.46-.571c.049-.124.102-.26.132-.336.135-.03 1.843-.411 1.843-.411l.45-1.15s-1.498.437-1.9.554c.006-.015.021-.054.021-.054m-2.282.719c.083-.211.446-1.141.446-1.141.03-.076.051-.093.052-.093.005 0 .051-.008.17.038l.461.18c.13.051.151.09.153.094-.001 0-.001.029-.027.097 0 0-.321.823-.445 1.141-.175-.068-.636-.248-.81-.316z" fill="#fff"/><path d="m18.309 14.132c-.143-.103-.459-.33-.601-.432.128-.179.706-.983.706-.983l-.799-.574s-.578.804-.706.983c-.136-.098-.398-.286-.534-.384.143-.199 1.209-1.683 1.209-1.683l-.798-.574-1.729 2.405 3.6 2.586 1.742-2.425-.866-.623c.001 0-1.08 1.505-1.224 1.704" fill="#fff"/><path d="m21.269 10.744c-.113-.134-.363-.429-.478-.563.168-.143.924-.785.924-.785l-.638-.751s-.756.642-.924.784c-.108-.127-.313-.368-.42-.495.186-.159 1.581-1.343 1.581-1.343l-.638-.751-.106.091-2.15 1.825 2.864 3.373 2.275-1.932-.688-.812s-1.414 1.2-1.602 1.359" fill="#fff"/><path d="m25.654 4.108-.627.296.99 2.098s.045.087.102.196c-.016-.009-.026-.016-.042-.024l-2.777-1.455-.568.268 1.892 4.008.755-.357-1.019-2.156s-.032-.063-.076-.145c.444.234 2.82 1.487 2.82 1.487l.569-.269-1.892-4.007z" fill="#fff"/><path d="m34.534 5.573c-.017-.423-.15-.657-.315-.783.138-.119.243-.316.243-.646 0-.02-.001-.041-.002-.062l-.019-.504c-.014-.349-.101-.593-.266-.746-.128-.119-.296-.174-.5-.167l-2.384.091.168 4.42 2.219-.084c.568-.022.877-.349.877-.924 0-.021-.001-.043-.001-.064zm-2.231.539c-.007-.179-.022-.594-.029-.773.228-.008 1.246-.047 1.246-.047.094-.004.118.014.118.014 0 .001.038.042.044.209l.013.314c0 .015.001.029.001.042 0 .134-.028.169-.032.173-.001 0-.027.017-.113.02-.001 0-.902.034-1.248.048zm-.093-2.437c.227-.009 1.245-.047 1.245-.047.035-.002.082.001.105.024.022.02.035.065.037.126l.016.392c.001.007.001.014.001.02 0 .115-.042.137-.132.141 0 0-1.019.038-1.245.047-.006-.172-.02-.531-.027-.703z" fill="#fff"/><path d="m37.864 3.1-.054.084-2.443 3.899.889.196s.41-.684.493-.823c.164.036 1.262.277 1.424.313.02.16.112.956.112.956l.963.212-.616-4.668zm.188 2.586c-.208-.046-.524-.116-.734-.162.121-.197.393-.641.61-.996.044.414.101.93.124 1.158z" fill="#fff"/><path d="m43.874 5.241s-1.064.733-1.371.945c-.021-.372-.101-1.66-.101-1.66l-1.028-.498.021.247s.219 2.543.225 2.619c-.032.066-.855 1.762-.855 1.762l.806.391s.833-1.718.865-1.785c.063-.041 2.381-1.564 2.381-1.564z" fill="#fff"/><path d="m17.638 24.49c0-8.805 7.139-15.943 15.943-15.943s15.943 7.138 15.943 15.943-7.139 15.943-15.943 15.943-15.943-7.138-15.943-15.943" fill="#edb111"/><path d="m33.582 9.178c-8.443 0-15.313 6.869-15.313 15.312s6.869 15.313 15.313 15.313 15.313-6.869 15.313-15.313-6.87-15.312-15.313-15.312" fill="#231f20"/><path d="m18.902 24.49c0-8.107 6.571-14.68 14.68-14.68 8.107 0 14.679 6.573 14.679 14.68s-6.571 14.68-14.679 14.68c-8.109 0-14.68-6.572-14.68-14.68" fill="#9c8c84"/><path clip-path="url(#a)" d="m61.099 12.084c-.508-.285-1.002-.626-1.544-.857-.412.273-.592.423-.994.644 0 0-2.341-2.572-6.15-3.903-1.111-.431-6.452-1.254-8.007-.322-.131.083.224 1.719.438 2.397 0 0-1.975.206-2.697.488.29-.365 1.068-.933 1.068-.933-.332-.021-2.354-.081-4.052 1.214.131-.342.317-.563.413-.764-1.386.131-2.444.708-3.63 1.564-1.754-.988-5.763-1.637-8.633-.217-.442-.48-1.404-3.113-1.229-4.099 0 0-3.844 1.805-4.302 7.69-1.315.509-3.836 2.454-3.903 3.651.283-.06.554-.217.822-.221-.508.503-1.274 1.2-1.428 2.046.604-.189 2.925.477 3.729 1.581-2.426.647-4.749 2.362-6.357 4.391-.005-.516.136-1.267.378-1.816-.159.062-1.756 1.438-2.173 3.18l-.333-1.357c-.277.406-.925 2.024-1 4.135-1.064.66-2.279 1.499-2.916 1.994-.838.654-1.351 1.037-.824 1.402.819.762 3.723 3.471 4.818 4.278-.397.678-.808 1.524-.909 2.269.104.027 4.022 1.627 9.283 1.908-.846.6-1.741 1.195-2.666 1.607-7.353-2.038-12.589-8.854-12.768-9.5-1.111.146-2.615.689-3.649.939-.014.045-1.049 2.668-1.379 3.945-1.063 4.016-.151 7.818.041 7.893 1.176 1.233 7.867 4.14 14.757 3.729.616-.478 5.747-4.724 7.57-6.179 0 0 1.521 1.418 2.051 1.152.824-.24 1.636-.558 2.425-.943.526-.019 2.815-.314 3.368-1.342.038-.103 1.75-.408 2.396-1.155 0 0 1.33-1.339 1.475-6.001-.06-.174-.398-.324-.398-.324.694-1.023 1.644-1.98 2.892-2.197 1.295-.281 2.659.243 3.585 1.081-.176.147-.247-.127-.397-.149-.526.027-1.049.095-1.557.22-.262-.263-.378-.486-.675-.685-.22-.129-.862-.238-1.07.047l-.13-.145c-.273.07-.545-.088-.784.128-.048.073-.452.771-.736 1.724-.389 1.297-.586 3.021.347 3.85.32.332 1.089.342 1.519.123-.331-.411-.154-.807-.127-.908.351.146.825.17 1.161.038.018-.293-.052-.576-.058-.825l.274.026c.094-.193.061-.453.191-.634.037.014.096 0 .111.039.166.063.285.018.31-.152.24.193.349.462.51.686.377-.06.717-.421.909-.65.8.32 3.152.164 3.381.08.619-5.002-.51-8.827-.723-10.049.508-.545 9.149-7.571 10.935-8.943.398.027 1.216.426 1.456.868.346-.207.603-.528.768-.875.396.16 1.358.802 1.532.789.396-.154.743-.523 1.02-.823.81-1.138.946-3.244 1.048-4.465.552-.346.927-.527 1.462-.907.056-.398-.241-1.389-.245-1.456m-8.933 5.023.047.005c-.627.591-7.033 5.426-9.561 7.599.128-.666.008-1.344.17-2.074 1.578-1.662 2.633-5.504 2.633-5.504 2.815-2.31 5.952-1.536 6.414-1.475-.027.494.139 1.082.297 1.449zm-29.107 11.767c.043.367-.064 1.34-.047 1.456.474.095 1.043.124 1.603.013.65.288 3.088 1.972 4.509 4.325-1.099-.081-5.483-.621-7.419-1.995-1.813-1.212.469-3.307 1.354-3.799z" fill="#231f20"/><g fill="#fff"><path d="m45.444 10.051c-.27-1.022-.161-1.475-.097-1.45.962.747 2.567 3.327 2.831 6.606 1.106-.204 2.315-.17 3.506-.042.434-.982.795-3.32.235-6.85-1.602-.748-5.954-.898-7.145-.396-.233.45-.203 1.537.067 2.125z"/><path d="m54.13 10.645c.033-.464.134-.942-.01-1.356-.523-.334-1.144-.544-1.71-.815.031.385.156.807.184 1.229 1.213.402 1.437.895 1.536.942"/><path d="m59.397 13.694c-1.104-2.033-4.121-3.851-4.855-4.204.021 1.128-.252 3.951-2.454 5.749l.158.043c2.085-1.503 2.421-3.982 2.6-5.321 0 0 2.715 1.632 4.199 3.815-.163.844-.737 1.594-1.471 2.108-.43.305-.949.047-1.363-.125-.934-.323-1.733-.874-2.715-1.097-.368.272-.625.678-1.022.842-.05.343.009.955.134 1.367l.509-.345c-.026-.46.254-1.422.375-1.392.62 1.254 2.963 1.888 3.04 1.972-.063.162-.11.219-.246.35.049.405-.001.84.166 1.208l.413.181c.219.106.476.225.661.289-.253-.681-.677-2.314-.677-2.314.663-.158 1.328-.642 1.778-1.183.164.712.239 1.454.304 2.204.118-.657.169-1.793-.047-2.452.286-.633.559-.946.513-1.695"/><path d="m18.344 19.806c.646.195 3.832 1.195 4.831 5.5.242 1.11.294 4.301.356 4.662 1.419.091 8.371-2.438 11.37-1.909 1.13.16 2.348 1.344 2.554 2.748 1.019-1.091 1.307-4.207 1.364-4.68 0 0 .629.98.893 2.229.452-1.189.578-2.457.478-3.754-.18-1.171-.153-2.638-1.016-3.547.4.011.655.393.924.58 1.935-1.836 3.853-3.754 4.899-5.984 0 0-4.432 3.065-6.48 3.234-.024-.031-.061-.063-.038-.099-.744-.106-1.347-.09-2.127-.013-2.525-.037-5.204.736-7.578-.436-1.34-.757-3.15-2.053-3.639-3.702.083-.908.859-1.672 1.465-2.342 0 0-.938-3.402-.786-4.238-1.447 2.316-1.099 6.685-1.281 6.706-.2-.113-4.215.751-5.656 3.196.396-.041.874-.169 1.222-.003-.459.31-1.594 1.184-1.755 1.852"/><path d="m25.38 8.196c-1.111 1.091-2.659 3.98-2.889 6.54.48-.146.962-.293 1.443-.44.016-2.137.409-4.363 1.446-6.1"/><path d="m59.506 11.758-.596.47c.212.287.394.599.637.86.336-.236.693-.595 1.052-.753-.362-.205-.692-.464-1.093-.577"/><path d="m47.733 15.28s-.055-2.849-1.031-4.265l-.229-.439c-1.999-.365-3.759.313-5.499.974l-.043-.051c.186-.461.498-.852.848-1.23-1.369.256-3.032 1.225-3.801 1.694.104-.41.3-.822.552-1.228-.74.266-1.553.793-2.24 1.227 0 0 3.898 2.647 3.353 6.109.934-.487 5.033-2.747 6.057-3.598.04-.025.133 1.358-.066 1.97.664-.512 1.367-.896 2.099-1.163"/><path d="m60.821 12.632c-.381.204-.752.504-1.102.768.109.162.18.341.259.501.341-.16.675-.378 1.008-.567-.046-.233-.071-.474-.165-.702"/><path d="m27.52 13.383c.881-.855 1.945-1.339 3.058-1.6.741.039 1.363-.4 2.02-.588-3.556-.564-5.524 1.345-5.578 1.408.068.292.28.579.5.78"/><path d="m25.695 15.096c.189-.307.681-1.13.939-1.307.664.776 1.473 1.337 2.374 1.592 3.03-3.856 5.429-3.531 6.812-2.775.44.236.548.165.783.186l-.244-.136c-.79-.645-1.731-1.008-2.75-1.235-.918.021-3.485.693-4.979 3.095-.086.097-1.509-.625-1.974-1.689-.479.529-.967 1.076-1.236 1.719.039.195.137.376.275.55"/><path d="m33.264 15.903c1.268-1.335 2.904-2.015 4.698-1.698-.363-.415-.717-.82-1.115-1.162-1.096.091-3.444.515-4.03 2.752.137.07.285.103.447.108"/><path d="m31.248 16.358s3.167 1.688 7.847.704c0 0-.011-.397-.086-.519-3.93.604-6.93-.51-6.967-.628.4-.717.72-1.604 1.447-2.148-1.098.52-1.683 1.592-2.241 2.591"/><path d="m40.542 22.314c.2.419.273.874.307 1.336 0 0 3.447-2.239 4.345-7.934-.361.797-2.739 4.953-4.652 6.598"/><path d="m52.218 18.096c-2.189 1.613-4.396 3.31-6.591 4.961-1.715 1.227-3.261 2.574-4.917 3.882-.101.373-.201.746-.312 1.117 2.198-1.918 4.582-3.561 6.829-5.493 1.951-1.711 4.203-3.175 6.17-4.837.431-.333.847-.601 1.237-1.013-.184-.084-.333-.126-.49-.178z"/><path d="m55.451 17.294c.088-.03.208-.086.243-.159-.093-.037-.426-.049-.681-.12-2.016 1.438-11.713 9.359-14.953 11.812 0 0-.329.712-.43.762 0 0-.143-.34-.177-.388-.248.206-.392.307-.58.5-.601.422-.874 1.256-1.652 2.092-.046-.281-.05-.234-.08-.37-1.665 1.298-3.338 2.786-4.766 4.001.146.081.316.096.465.139 1.574-1.24 19.903-16.427 22.611-18.269"/><path d="m55.225 18.084-.501.374c.408.124.763.433 1.032.715l.09-.154c-.127-.341-.294-.752-.621-.935"/><path d="m42.084 25.166c-.109-.468-.07-1.008-.113-1.48-.335.332-.645.695-1.006.986.044.462-.059.959-.079 1.387z"/><path d="m39.01 27.996c-.061.559-.321 1.02-.483 1.54l.799-.709z"/><path d="m33.488 35.784-.027.084.285.12c.682-.672 1.41-1.436 2.255-1.902 1.207-.777 3.115-.879 4.335-.031 1.71 1.338 1.669 2.728 1.571 2.862-.106-.242-.257-1.019-1.043-1.126.026.127.138.27.079.398-.357.033-.765.006-1.123-.035l-.036.387c.424.173.838.335 1.147.697.002.087-.018.103-.087.221.877.128 1.793.223 2.61.059.258-4.691-.571-7.631-.992-9.187-1.295.817-6.585 5.114-8.974 7.453"/><path d="m30.088 34.871c1.122-.934 6.418-4.969 6.563-5.078-.087-.199-1.206-1.593-4.051-1.214-2.777.22-5.825 1.513-7.195 1.674 2.023.621 4.683 4.618 4.683 4.618"/><path d="m37.036 30.962c-.077-.31-.107-.522-.195-.741-.964.838-4.993 3.885-5.982 4.797l1.01.227c1.805-1.391 3.387-2.881 5.167-4.283"/><path d="m20.666 40.747c-3.424-.228-6.504-1.302-6.719-1.664 2.026-4.263 5.644-6.25 7.13-6.324 0 0-.349-.317-.509-.429-1.538.327-6.033 2.836-8.212 7.867 1.917.537 6.593 1.479 8.26 1.623.013-.36-.003-.706.05-1.073"/><path d="m36.803 39.083c-.35-1.396-.226-3.411.849-4.506l-.493.002-.226.375c-.109-.05-.497.037-.249-.3-.144.005-.287.012-.403.125-1.223 2.058-1.163 4.894-.248 5.217.219.115.492.16.741.143-.125-.306-.113-.744.029-1.056"/><path d="m25.978 34.725-.357-.052c-1.747.947-4.954 3.606-4.539 7.259.484.139 1.024.178 1.508.318.145-.54.291-1.204.438-1.764 0 0-1.053-.182-1.068-.326.417-2.271 1.806-4.416 4.018-5.435"/><path d="m27.805 41.354c-.037-.119.018-.285-.081-.371-.508.24-1.014.451-1.526.634-.935.401-2.405-.421-2.333-.576 1.063-2.919 3.444-4.905 5.035-5.905l-.521-.047c-1.67.839-3.319 2.273-4.228 3.869-.571 1.018-1.118 2.104-1.11 3.363.367.062.716.207 1.111.168.197-.182.403-.344.633-.448.082-.067-.392.876-.366 1.704-.065.395.069.755.178 1.074-.132-.012-.59-.539-.708-.702l-.695.508c.481.368.951.756 1.469 1.051l.133.013c.851-.229 1.664-.563 2.485-.881.072-.174.114-.418.12-.58-.524.306-1.049.61-1.64.699-.105.02-.289.031-.313-.124.037-.712-.113-1.375-.203-2.051-.034-.157-.063-.358-.004-.487 1.39-.076 2.345-.913 2.564-.911"/><path d="m39.227 37.406c-.343-.318-.593-.817-.682-1.303l-.288.008c.125.725.672 1.105.573 1.145-.242-.061-.402.125-.652.035-.239-.298-.336-.645-.316-1.021-.125.018-.254.063-.354.111.119.373.284.799.615 1.039.05.081.036.089-.034.131-.255-.033-.463-.158-.659-.309l-.052.043s.148.398.559.671c-.115.123-.288.136-.436.075-.05.225.098.391.146.586-.164.128-.425.047-.6.078-.024.074.019.125.032.185.258.101.534.106.792.101-.004-.267.005-.58.004-.877l.211-.02c.046-.949.841-.082.774-.73.255-.082.359.338.58.435.235-.083.416-.372.572-.521-.189-.121-.422-.19-.633-.287-.15.091-.038.321-.152.425"/><path d="m4.867 35.684-.095-.009c-.762.083-1.472.227-2.218.456-.613 1.176-.926 2.501-1.284 3.805-.427 1.65-.471 5.568.083 6.813.476.339.94.678 1.45.954-.762-4.805 1.114-9.558 2.064-12.019"/><path d="m5.408 35.82c-.576 1.598-2.386 5.736-2.25 12.076l.689.379c.475.242.99.453 1.484.574 2.851-4.769 3.011-9.754 3.048-10.048-1.987-1.755-2.666-2.676-2.971-2.981"/><path d="m33.994 37.252c-1.198.945-1.563 1.126-2.395 1.65-.011.229-.551 2.738-.796 4.214.728-.22 1.438-.489 2.084-.974.452-.508.885-3.193.885-3.193-.158.683-.942 3.307-2.561 3.517-.111-.03.502-2.454.617-3.356.846-.376 2.252-1.65 2.166-1.858"/><path d="m31.024 39.299c-.133.084-1.989 1.135-2.682 1.396.039 1.35-.385 2.646-.653 3.92.047.004 2.56-.233 2.739-1.162-.446.303-.974.322-1.502.359-.177-.055-.421.008-.528-.164.131-.808.235-1.849.204-2.662-.024-.031 2.575-.67 2.422-1.687"/><path d="m10.841 40.994c-.02.838-1.024 6.72-2.815 8.77l.645.146c1.566-2.205 2.558-6.37 2.617-8.578z"/><path d="m18.761 44.238c.082.035 1.828.357 3.442-1.012.184-.127.409-.297.519-.459l-.643-.172c-1.222.546-2.354 1.33-3.318 1.643"/><path d="m23.933 43.107c-.105.009-.177-.045-.27-.072-.441-.299-3.289 3.4-7.404 1.021l-.006.065c-.224 2.337-.962 4.465-1.979 6.414.292.036.523.104.844.057.775-.452 6.255-5.468 8.535-6.92.292-.059.194-.363.28-.565"/><path d="m13.843 42.919c-.177 2.666-.992 5.206-2.027 7.459l.52.048c.324-.619 2.041-4.156 2.015-7.213-.143-.098-.323-.22-.508-.294"/><path d="m12.801 38.057c1.826-2.986 4.219-4.404 4.219-4.404-.021-.021-.044-.043-.065-.065 1.092-.75 2.24-1.373 3.435-1.817.242-1.504 1.289-2.83 2.693-3.465-.124-2.084-.367-4.12-1.759-5.802-3.918.829-6.947 5.511-6.985 5.507-.261-.587-.129-1.301-.137-1.941-1.115 1.449-1.054 3.388-1.108 3.354-.36-.443-.544-.945-.696-1.457-.114.443-.28 1.364-.246 2.555-1.243.713-3.193 2.016-3.917 2.629-.138.172-.473.369-.317.582.006.256 3.851 3.435 4.883 4.324"/><path d="m12.864 37.995c-1.033-.888-4.877-4.067-4.886-4.325-.154-.213.181-.41.317-.582 1.022-.865 4.485-3.104 4.959-3.121.207-.041 2.558 2.371 3.827 3.624.001 0-2.391 1.418-4.217 4.404"/></g><path clip-path="url(#b)" d="m4.009 48.995s-.104-6.584 1.729-9.864c0 0 3.423 5.227 12.317 6.998 0 0 2.43-1.021 5.16-3.089s0 0 0 0l1.168-.127-.345.948-8.719 6.947c.002.001-4.574.51-11.31-1.813" fill="#c1b5ae"/><path d="m32.994 35.791 23.124-18.547-.706-.331-.43-.097-14.817 11.625-.761.609-1.067.882-.934 1.107-.528.332-5.022 4.065z" fill="#c1b5ae"/><path d="m59.772 14.263-.243-.812 1.435-1.006.308.961z" fill="#c1b5ae"/><path d="m7.375 49.77 3.044-9.596 5.5 3.605s-1.64 7.041-2.082 7.16c0 0-5.347-.381-6.547-.959" fill="#9c8c84"/><path d="m34.318 36.738s-2.92-2.199-9.884-2.238l-2.773-.958s-.377.112-.972.313l1.072-.815-1.4-.878c-3.761 1.452-5.414 3.238-6.133 4.641-1.459 1.059-1.974 2.211.128 3.178 0 0 9.38 2.574 11.112 1.762 0 0-1.071 3.492-.085 3.986l2.159-.965s2.476-.147 3.274-1.408c0 0 1.912-.469 2.385-1.096.001 0 1.444-4.922 1.117-5.522" fill="#9c8c84"/><path d="m28.256 16.002s1.628-4.332 6.783-4.398c0 0 3.294 2.004 3.577 3.399l-3.836 1.085-1.675.12-.559-.394s.854-2.2 1.584-2.303c0 0-1.558-.67-2.987 2.73 0 0 5.635 1.703 7.84-.056 0 0 .493.246.389 2.054.001 0-12.235.818-11.116-2.237" fill="#9c8c84"/><path d="m27.1 13.396s1.206-2.034 4.375-1.634c0 0-2.925 1.645-2.979 2.585.001 0-1.413-.662-1.396-.951" fill="#9c8c84"/><path d="m25.115 27.721s.968-1.687 2.015-.973l-.313.417s1.799.249 2.169.125l-.098.431-2.146.746.331-.707s-1.294-.219-1.608.198z" fill="#9c8c84"/><path d="m54.42 18.574 1.696-1.329-1.248-.58-1.132-.501-1.267.992-.302-1.469-.755-.333s-2.793-.21-3.504.378c0 0 .299-3.514-2.007-6.306 0 0 4.667-.409 6.397.61l2.023.987.087-.672s6.029 2.814 4.854 7.244l-.398 1.041-1.021.909-1.315-.656-.332-.116-.572.693z" fill="#9c8c84"/><path d="m14.97 31.271s-.982-.565-.296-2.412c0 0 .299 1.105.712 1.492 0 0-.538-1.99.541-3.088 0 0 .315.815.656 1.198 0 0 2.888-3.534 5.967-4.082 0 0 .491 1.552.639 4.027 0 0-2.386 1.096-2.743 3.542l-3.149 1.777z" fill="#edb111"/><path d="m26.299 29.818s3.645 2.242 4.072 4.879l2.41-1.53s-1.962-1.201-2.168-2.664c0 0-.42.992-.3 1.435 0 0-1.577-1.615-1.889-2.504z" fill="#edb111"/><path d="m35.057 33.951-2.009 2.133.783.264c1.19-1.424 2.136-2.084 2.714-2.388-.833.06-1.488-.009-1.488-.009" fill="#edb111"/><path d="m40.718 26.369-.099-2.037 1.738-1.206.168 2.114z" fill="#edb111"/><path d="m39.374 18.239s.392-3.025-1.758-4.745c0 0 .274-.999 2.354-1.823 0 0-.424 1.064-.228 1.438 0 0 3.681-2.182 7.412-1.459 0 0 .786 2.729.727 3.742l-2.558 1.594.107-1.881s-4.968 3.124-6.056 3.134" fill="#edb111"/><path d="m38.428 33.561c-.098.041-.199.078-.301.11 1.238.16 2.327 1.062 2.813 1.524-.635-.752-1.517-1.527-2.512-1.634" fill="#edb111"/><path d="m42.733 27.936-2.963 2.297c.396 1.218.203 2.045-.279 2.604.526.205 2.794 1.241 2.473 3.833 0 0-.294-.55-.79-1.189l-1.595.617.243.813.847.41-.029.507 3.055-.113c.517-2.729-.962-9.779-.962-9.779" fill="#edb111"/><path d="m40.941 35.195c.082.096.158.191.231.285l.037-.014c0 .001-.096-.109-.268-.271" fill="#edb111"/><path d="m23.172 14.839s-.114-3.054 1.407-4.272l-.306 4.045z" fill="#edb111"/><path d="m40.619 24.332-.08-1.227s1.592-1.87 3.044-2.375c0 0-1.915 3.01-2.964 3.602" fill="#edb111"/><path d="m21.001 17.253s1.712-2.005 4.4-2.068l.89.922s-2.025-.117-2.994.335c0 0 2.365.499 3.279 3.526 0 0-.102.502-2.183.093.001 0-1.12-3.185-3.392-2.808" fill="#edb111"/><path d="m25.198 22.501c-.943.073-1.95-1.243-.923-1.945 1.152-.789.734 1.335.858 1.796" fill="#edb111"/><path d="m28.985 23.517c-1.028-.177-2.965-1.393-3.633-2.255.494-1.2 2.618-.611 3.454-.229.385-1.154-.73-1.168-1.408-1.452-.44-.186-.516-.338-.619-.912-.128-.714-.065-1.446.009-2.164 1.171.276 2.333.632 3.547.848 1.186.212 2.249.84 3.351 1.008-1.211.682-2.562 1.129-3.712 1.874-.551.356-1.354.772-1.246 1.453.08.5 3.458.417.339 1.688" fill="#edb111"/><path d="m26.002 23.635c-.782-.491-1.518-2.548-.65-2.374.692.139 2.462 1.965 3.196 2.098-.265.562-1.973.243-2.554.421" fill="#9c8c84"/><path d="m32.729 24.371c-.078 0-.158.001-.238.001 0 0-1.225 1.09-3.326-.192 0 0-.031-.727 1.704-.627 0 0-.026-.8-2.157-.342l-.145-1.242s1.408-1.805 4.198-2.37c0 0 1.211-.873.879-1.4 0 0 6.09-1.173 6.116 3.4 0 0-.767-1.324-2.184-2.039 0 0 3.674 2.224.367 6.824 0 0-.148-1.444-.39-2.142.001 0-3.4.718-4.824.129" fill="#edb111"/><path d="m39.392 20.416s3.767-2.395 5.66-5.043c0 0-1.136 3.345-4.892 6.829.001 0-.737-1.059-.768-1.786" fill="#edb111"/><path d="m25.159 14.373s.008-3.917.806-5.178l.986 3.032s-1.542 1.58-1.792 2.146" fill="#edb111"/><path d="m35.602 23.245s-2.86 1.076-4.827-.569c0 0 .959-1.54 2.35-1.75l1.987.767z" fill="#fff"/><path d="m31.46 28.484s-.644.875 0 2.438c0 0 .414-.322.874-.689 0 0 0 1.287.735 1.656 0 0-.599-2.023-.046-2.438 0 0-.689-.276-.966.32 0 0-.184-.965.276-1.332l-1.012-.047" fill="#edb111"/><path d="m12.801 38.057c-1.032-.889-4.877-4.067-4.885-4.326-.155-.213.18-.41.317-.582 1.021-.865 4.484-3.104 4.959-3.121.207-.041 2.558 2.371 3.827 3.625.001-.001-2.392 1.417-4.218 4.404" fill="#fff"/><path d="m13.921 30.594c-2.321 1.245-2.791 2.27-2.791 2.27l3.24 3.162s1.937-2.139 2.749-2.381z" fill="#c1b5ae"/><path d="m13.921 30.594c-2.321 1.245-2.791 2.27-2.791 2.27l3.24 3.162s1.937-2.139 2.749-2.381z" fill="#c1b5ae"/><path d="m8.601 32.568c.869-.678 2.824-1.996 3.994-2.627.714-.41.805-.39.953-.246 1.011 1.029 3.354 3.512 3.796 3.834-.009.158-.148.164-.24.223l-.084-.025c-1.184-1.17-3.529-3.695-3.738-3.654-.458.019-3.803 2.215-4.789 3.063-.133.169-.456.362-.307.57.008.285 4.658 4.073 5.033 4.457 0 .095-.143.218-.213.235.271.703-4.182-3.453-5.23-4.426-.526-.365-.014-.749.825-1.404" fill="#231f20"/><path d="m13.358 32.807c-.675.1-1.423-.406-1.483-.447.039.063.51.832.382 1.502 0 0-.277.846.261 1.298 0 0 .51.429.972-.075 0 0 .328-.34.227-.663.208.31.43.772.2 1.103.747-.402 1.007-.95 1.027-.982l.001-.001h-.001c0-.001 0-.001 0-.001l-.001.002c-.346.216-.804-.036-1.104-.257.322.129.688-.193.688-.193.522-.44.115-.967.115-.967-.428-.56-1.284-.319-1.284-.319" fill="#231f20"/><path d="m10.964 34.195c-.275.054-.572-.137-.596-.152.015.023.191.328.127.602 0 0-.129.35.082.522 0 0 .199.164.396-.049 0 0 .141-.146.105-.274.079.122.161.305.061.444.313-.179.429-.405.438-.419 0-.001 0-.001 0-.001l-.001.001c-.145.094-.326.001-.444-.083.129.046.284-.093.284-.093.221-.188.066-.394.066-.394-.163-.217-.518-.104-.518-.104" fill="#231f20"/><path d="m9.439 32.921-.011.011-.151.145.754 1.521.128-.123s-.244-.494-.256-.518c.018-.018.379-.363.396-.38.021.011.508.276.508.276l.126-.119zm.095.3c-.017-.031-.023-.053-.028-.068.013.005.031.013.055.025 0 0 .451.247.558.305-.031.031-.275.264-.307.293-.021-.042-.278-.555-.278-.555z" fill="#231f20"/><path d="m44.842 10.044c-.049-.154-.104-.358-.161-.581.031.212.083.412.161.581" fill="#231f20"/><path clip-path="url(#c)" d="m61.099 12.085c-.509-.285-1.002-.626-1.544-.857-.412.273-.592.423-.995.644 0 0-2.341-2.572-6.15-3.903-1.111-.431-6.451-1.254-8.006-.322-.103.064.088 1.055.277 1.816-.077-.524-.023-1.125.094-1.544 1.19-.502 5.543-.352 7.145.396.56 3.53.198 5.869-.235 6.85-1.19-.128-2.399-.162-3.506.042-.264-3.279-1.869-5.859-2.832-6.606-.063-.025-.172.428.098 1.45l-.602-.007s-1.975.206-2.698.488c.291-.365 1.069-.933 1.069-.933-.333-.021-2.354-.082-4.053 1.214.131-.342.318-.563.414-.765-1.386.132-2.444.709-3.63 1.565-1.755-.988-5.763-1.727-8.634-.218-.442-.479-1.403-3.112-1.228-4.098 0 0-3.844 1.805-4.302 7.69-1.316.509-3.837 2.454-3.903 3.651.282-.061.554-.217.821-.221-.508.502-1.273 1.2-1.427 2.045.604-.188 2.924.478 3.729 1.582-2.426.647-4.75 2.362-6.357 4.392-.005-.517.136-1.268.377-1.817-.158.062-1.755 1.438-2.172 3.179l-.334-1.357c-.296.434-1.015 2.252-1.007 4.574.213-.131.464-.281.645-.389-.047-1.242.125-2.204.243-2.659.152.511.336 1.015.696 1.457.055.034-.007-1.905 1.108-3.353.008.64-.124 1.353.137 1.939.038.004 3.067-4.677 6.985-5.507 1.392 1.683 1.635 3.72 1.759 5.802-1.404.635-2.451 1.961-2.693 3.467-1.749.649-3.398 1.683-4.917 2.937-.558.465-3.245 3.36-3.786 5.81.103.028 4.022 1.627 9.283 1.909-.847.599-1.742 1.195-2.666 1.607-7.353-2.038-12.589-8.854-12.769-9.5-1.111.147-2.614.69-3.649.938-.013.047-1.048 2.668-1.378 3.946-1.064 4.015-.153 7.817.041 7.892 1.175 1.234 7.866 4.141 14.756 3.73.616-.479 5.748-4.723 7.57-6.178 0 0 1.522 1.416 2.052 1.15.823-.238 1.635-.557 2.424-.943.527-.018 2.816-.313 3.368-1.342.038-.102 1.75-.408 2.396-1.154 0 0 1.33-1.34 1.475-6.001-.061-.175-.399-.324-.399-.324.694-1.024 1.645-1.981 2.892-2.198 1.295-.281 2.66.244 3.585 1.082-.176.146-.246-.127-.397-.15-.526.028-1.048.096-1.556.221-.262-.262-.379-.486-.676-.686-.22-.129-.862-.238-1.069.049l-.13-.146c-.273.07-.546-.088-.785.128-.047.073-.452.771-.736 1.725-.389 1.297-.585 3.021.348 3.849.319.332 1.089.342 1.519.123-.331-.412-.154-.806-.127-.908.35.146.824.17 1.161.038.018-.293-.052-.576-.058-.825l.273.025c.095-.192.062-.453.191-.632.037.013.096-.002.111.039.166.063.284.017.31-.153.24.194.349.461.51.687.378-.062.717-.422.909-.651.801.321 3.153.163 3.381.079.619-5-.509-8.826-.723-10.049.509-.545 9.149-7.57 10.935-8.942.399.026 1.217.426 1.457.868.345-.207.602-.528.768-.875.396.16 1.358.802 1.53.789.396-.154.745-.523 1.021-.823.811-1.138.947-3.244 1.049-4.466.551-.345.926-.526 1.462-.906.055-.398-.241-1.389-.245-1.456m-6.978-2.795c.144.414.043.891.01 1.356-.1-.048-.323-.54-1.536-.942-.027-.423-.152-.845-.184-1.229.566.271 1.186.48 1.71.815zm-2.253 6.369c-.025.494.14 1.082.297 1.449l.048.005c-.627.591-7.034 5.426-9.561 7.599.127-.666.008-1.344.17-2.074 1.577-1.663 2.632-5.505 2.632-5.505 2.816-2.309 5.953-1.535 6.414-1.474zm-10.903 9.014c.36-.292.671-.655 1.006-.987.043.472.003 1.012.113 1.48l-1.199.893c.022-.428.123-.924.08-1.386zm-.117-1.023c-.033-.461-.106-.916-.307-1.335 1.913-1.645 4.291-5.801 4.651-6.599-.898 5.695-4.344 7.934-4.344 7.934zm-.139 3.289c1.657-1.309 3.202-2.655 4.918-3.882 2.193-1.651 4.401-3.348 6.59-4.961l1.928-1.56c.157.052.307.094.49.178-.392.412-.808.68-1.238 1.013-1.966 1.662-4.219 3.126-6.17 4.837-2.248 1.932-4.631 3.575-6.829 5.493.11-.371.212-.744.311-1.118zm-2.18-16.203c-.252.406-.447.818-.553 1.228.769-.469 2.433-1.438 3.802-1.695-.351.379-.662.77-.849 1.23l.043.052c1.775-1.044 5.293-1.182 5.293-1.182.978 1.417 1.468 4.912 1.468 4.912-.731.267-1.435.651-2.103 1.163.2-.612.107-1.995.066-1.97-1.022.851-5.123 3.11-6.056 3.598.546-3.463-3.354-6.11-3.354-6.11.69-.433 1.503-.96 2.243-1.226zm-6.487 5.18c.037.118 3.037 1.232 6.967.628.075.121.086.518.086.518-4.68.985-7.847-.703-7.847-.703.559-.999 1.144-2.072 2.241-2.591-.728.544-1.047 1.431-1.447 2.148zm4.805-2.872c.398.342.752.747 1.115 1.161-1.794-.316-3.431.364-4.698 1.699-.162-.006-.311-.038-.447-.108.586-2.237 2.934-2.661 4.03-2.752zm-4.25-1.849c-.655.188-1.278.627-2.019.588-1.112.261-2.178.746-3.059 1.6-.22-.201-.432-.488-.501-.78.055-.062 2.024-1.972 5.579-1.408zm-3.968 3.321c1.493-2.402 4.061-3.074 4.979-3.095 1.02.227 1.96.59 2.751 1.235l.244.137c-.236-.022-.344.049-.784-.187-1.382-.756-3.78-1.08-6.811 2.775-.902-.254-1.71-.815-2.374-1.592-.26.177-.75 1-.94 1.307-.137-.174-.234-.355-.274-.549.27-.644.759-1.191 1.236-1.72.466 1.064 1.887 1.786 1.973 1.689zm-3.249-6.32c-1.037 1.738-1.432 3.963-1.445 6.1-.481.147-.963.294-1.443.441.229-2.561 1.777-5.449 2.888-6.541zm-7.036 11.611c.161-.668 1.295-1.543 1.753-1.854-.347-.165-.825-.037-1.221.003 1.44-2.445 5.456-3.309 5.655-3.195.184-.021-.166-4.391 1.282-6.706-.153.835.785 4.238.785 4.238-.604.669-1.381 1.434-1.465 2.342.489 1.648 2.3 2.945 3.639 3.702 2.374 1.171 5.053.398 7.578.435.78-.076 1.384-.093 2.127.014-.021.036.014.068.039.098 2.049-.168 6.48-3.233 6.48-3.233-1.047 2.229-2.966 4.147-4.899 5.984-.269-.187-.523-.57-.924-.581.862.909.836 2.376 1.016 3.548.1 1.296-.025 2.564-.478 3.753-.265-1.248-.894-2.229-.894-2.229-.057.473-.345 3.589-1.363 4.68-.206-1.402-1.424-2.586-2.555-2.748-2.999-.527-9.951 2-11.369 1.909-.063-.358-.114-3.552-.356-4.661-.998-4.304-4.183-5.304-4.83-5.499zm20.982 9.02-.8.709c.161-.521.424-.981.484-1.54zm-2.486 1.396c.088.217.118.43.195.74-1.779 1.402-3.362 2.891-5.169 4.282l-1.01-.228c.99-.91 5.02-3.958 5.984-4.794zm-6.753 4.649s-2.659-3.997-4.683-4.618c1.37-.161 4.418-1.454 7.195-1.674 2.845-.379 3.964 1.016 4.051 1.214-.145.108-5.441 4.144-6.563 5.078zm-7.028-5.997c.042.367-.065 1.339-.048 1.456.474.095 1.043.124 1.603.013.65.288 3.089 1.971 4.51 4.325-1.1-.081-5.483-.621-7.419-1.996-1.813-1.211.469-3.307 1.354-3.798zm-.031 11.611c-.147.56-.294 1.224-.438 1.764-.483-.141-1.023-.18-1.508-.318-.415-3.652 2.792-6.312 4.539-7.259l.357.052c-2.212 1.02-3.601 3.164-4.019 5.436.016.144 1.069.325 1.069.325zm-2.362.261c-.053.368-.037.713-.051 1.075-1.666-.145-6.342-1.088-8.259-1.625 2.178-5.03 6.674-7.54 8.212-7.866.16.11.509.428.509.428-1.486.074-5.104 2.062-7.13 6.324.214.362 3.294 1.437 6.719 1.664zm1.415 1.849.643.172c-.11.162-.336.332-.52.459-1.614 1.369-3.359 1.047-3.442 1.012.963-.314 2.095-1.098 3.319-1.643zm-20.728 4.153c-.554-1.244-.511-5.162-.083-6.812.358-1.305.671-2.631 1.284-3.807.746-.227 1.456-.372 2.218-.455l.095.01c-.951 2.461-2.827 7.213-2.064 12.018-.51-.276-.974-.615-1.45-.954zm2.494 1.526-.689-.379c-.136-6.34 1.674-10.478 2.25-12.076.306.305.984 1.226 2.972 2.981-.037.294-.197 5.279-3.048 10.048-.495-.12-1.01-.329-1.485-.574zm4.823 1.634-.645-.146c1.791-2.05 2.796-7.932 2.815-8.77l.446.337c-.057 2.209-1.049 6.375-2.616 8.579zm3.665.517-.52-.048c1.035-2.253 1.851-4.793 2.027-7.459.185.074.364.197.507.295.027 3.056-1.689 6.593-2.014 7.212zm2.782.168c-.319.049-.552-.021-.844-.057 1.018-1.95 1.757-4.077 1.979-6.414l.006-.066c4.115 2.381 6.963-1.32 7.404-1.021.093.027.164.082.27.072-.085.203.012.507-.28.566-2.28 1.451-7.759 6.467-8.535 6.92zm12.163-5.785c-.821.315-1.635.651-2.485.879l-.133-.013c-.518-.295-.987-.683-1.469-1.051l.695-.508c.118.163.575.69.708.702-.108-.318-.243-.68-.178-1.074-.025-.828.448-1.771.366-1.704-.229.104-.436.267-.633.448-.396.041-.744-.106-1.111-.168-.009-1.26.539-2.346 1.11-3.363.908-1.596 2.558-3.03 4.228-3.869l.521.047c-1.591 1-3.972 2.987-5.035 5.905-.072.155 1.398.978 2.333.576.513-.183 1.019-.394 1.526-.634.099.086.044.254.081.371-.219-.002-1.174.836-2.564.91-.06.129-.03.332.003.487.091.676.241 1.339.204 2.051.023.155.207.144.313.124.591-.089 1.115-.394 1.64-.699-.006.163-.048.407-.12.583zm1.322-3.823c.031.814-.073 1.855-.204 2.664.107.172.352.108.527.162.529-.037 1.057-.056 1.503-.358-.18.929-2.692 1.166-2.739 1.162.269-1.274.692-2.571.653-3.921.692-.26 2.549-1.312 2.682-1.396.153 1.017-2.447 1.657-2.422 1.687zm2.608 1.48c1.618-.21 2.402-2.833 2.56-3.516 0 0-.432 2.685-.884 3.192-.646.484-1.356.754-2.083.974.245-1.476.784-3.984.795-4.212.831-.525 1.196-.707 2.395-1.651.086.208-1.318 1.481-2.164 1.858-.117.901-.73 3.327-.619 3.355zm5.592-3.382c-.143.311-.153.749-.029 1.057-.249.016-.522-.029-.74-.144-.916-.323-.975-3.159.248-5.218.114-.112.259-.119.402-.125-.248.338.14.252.249.3l.226-.374.493-.002c-1.073 1.094-1.197 3.11-.849 4.506zm2.639-1.295c-.221-.096-.325-.516-.58-.436.067.649-.729-.219-.773.731l-.212.019c.001.297-.008.61-.004.877-.258.006-.534 0-.792-.101-.014-.058-.057-.11-.031-.185.174-.03.435.051.6-.078-.05-.195-.197-.361-.147-.586.147.062.32.049.436-.074-.41-.273-.559-.672-.559-.672l.052-.043c.196.152.404.275.659.309.07-.042.084-.05.034-.131-.331-.24-.496-.665-.614-1.039.101-.048.229-.094.354-.111-.019.377.077.725.316 1.022.25.089.41-.097.652-.036.1-.039-.448-.42-.573-1.143l.288-.01c.089.485.339.985.682 1.304.114-.104.002-.334.153-.425.211.096.443.164.633.287-.158.149-.338.438-.574.521zm4.014-.271c-.817.164-1.733.069-2.61-.058.069-.118.089-.135.088-.222-.311-.362-.725-.524-1.148-.697l.036-.387c.358.041.766.07 1.123.035.059-.129-.053-.271-.079-.398.786.107.938.884 1.043 1.126.098-.134.139-1.524-1.571-2.862-1.22-.848-3.128-.746-4.335.031-.844.467-1.573 1.23-2.255 1.903l-.285-.121.027-.084c2.39-2.339 7.679-6.636 8.975-7.453.419 1.556 1.248 4.495.991 9.187zm-10.616-1.955c-.147-.043-.319-.058-.464-.138 1.428-1.215 3.101-2.704 4.766-4.002.03.136.034.089.08.37.778-.836 1.052-1.67 1.652-2.092.188-.192.332-.294.58-.5.034.048.177.389.177.389.101-.051.43-.763.43-.763 3.24-2.452 12.937-10.374 14.953-11.811.255.071.588.082.681.119-.035.073-.155.129-.243.159-2.708 1.843-21.037 17.029-22.612 18.269zm22.916-16.389c-.27-.283-.624-.592-1.032-.715l.501-.374c.328.183.495.594.621.935zm3.175-1.332c-.063-.75-.14-1.493-.304-2.204-.45.541-1.114 1.024-1.778 1.183 0 0 .424 1.632.677 2.314-.186-.065-.442-.183-.661-.289l-.413-.181c-.167-.369-.117-.803-.166-1.209.136-.13.184-.188.246-.349-.077-.084-2.42-.718-3.04-1.972-.121-.031-.4.932-.375 1.392l-.509.345c-.125-.412-.184-1.024-.134-1.367.397-.165.654-.57 1.022-.842.981.223 1.781.774 2.715 1.097.414.172.934.43 1.363.125.733-.515 1.309-1.264 1.471-2.108-1.484-2.183-4.198-3.815-4.198-3.815-.179 1.339-.516 3.818-2.601 5.321l-.158-.043c2.202-1.798 2.475-4.622 2.454-5.75.734.354 3.753 2.171 4.855 4.205.046.749-.227 1.062-.514 1.694.217.66.166 1.796.048 2.453zm-.019-5.614.596-.47c.4.113.73.372 1.092.577-.357.158-.715.517-1.051.753-.244-.261-.425-.573-.637-.86zm1.067 1.673c-.079-.16-.15-.339-.259-.501.349-.264.72-.564 1.102-.768.093.228.119.469.164.702-.332.189-.666.407-1.007.567z" fill="#231f20"/><path d="m48.589 14.733c.047.004 2.25-.08 2.839-.002.553-1.076.586-4.213.199-5.508-.046-.014-1.565-.678-5.404-.494-.18-.122-.301-.362-.539-.374-.051.043-.084.087-.081.155.275.235 2.159 1.71 2.986 6.223" fill="#231f20"/><path d="m44.63 12.152c-.415-.267-1.119-.079-1.274.16-.646.428 2.135.3 1.274-.16" fill="#231f20"/><path d="m41.854 12.662c-.096-.209-.284-.331-.489-.388-.813-.094-1.744.184-2.242.94-.075.194-.05.444.109.582.945.507 2.668-.533 2.622-1.134" fill="#231f20"/><path d="m42.263 14.455c.518.295 1.165.097 1.606-.235.116-.123.263-.324.058-.433-.597-.341-2.476.221-1.664.668" fill="#231f20"/><path d="m21.888 15.912c-.724.511-.848 1.44-.848 1.44.498-.585 1.132-.899 1.719-1.265 0 0 .434-.371-.871-.175" fill="#231f20"/><path d="m26.192 19.15-.01.095c-.271-.369-.631-.716-.98-1.054-.553-.108-1.05-.007-1.587.132-.069.022-.193.02-.201.115.377.044 2.387.677 3.13 1.661-.148.062-.296.106-.45.12-.022.008-.051.014-.08.019-.116.022-.258.043-.262.179.568.052 1.172-.093 1.74.064-.177-.245-.431-.402-.743-.431-.499-1.219-.88-2.485-1.567-3.626-.604-.18-1.436-.37-1.989-.049.218.116.427.23.657.318.999.435 1.836 1.514 2.342 2.457" fill="#231f20"/><path d="m29.239 21.839-.003.038c.482.26 1.064.322 1.602.485-.051.07-.199.123-.2.235.271.354.7.422 1.065.521l.003-.037c-.23-.106-.448-.258-.645-.445-.046-.089-.134-.191-.053-.296.71-.462 1.446-.931 2.199-1.182.543.088 1.149.181 1.621.468.175.515.26 1.049.307 1.609-.146.137-.349.212-.526.309 0 0 .604.153 1.275-.128l.004-.047s-.553-1.734-.771-1.876c-.344-.126-.698-.243-1.052-.369 1.621-.676 3.106.378 3.106.378-.967-2.167-3.337-2.336-3.337-2.336-1.522.979-2.72 3.089-4.595 2.673" fill="#231f20"/><path d="m23.232 20.731c-.545.427-.382 2.472.499 3.004.035.748.318 1.413.847 2.005l-.052.568c-.267-.082-1.087.543-.865 1.523.365.281 1.114.9 1.491 1.164.879.128 4.301-1.359 5.087-1.707 3.78-1.348 2.389-3.16 2.194-3.235 0 0 .378 3.122-4.255 1.863-.602-.513-2.088-1.9-2.057-2.03.348-.258 2.252.206 3.11-.403l-.043-.052c-1.563-.27-4.024-2.579-4.125-2.687-.179.795-.354 1.772.284 2.403.144.217.533.335.374.607-.554-.194-1.123-.233-1.72-.288-1.486-2.252-.047-3.138.344-3.436-.065-1.342-1.335-1.478-1.806-1.234.177.045 1.238.164 1.371 1.289-.215.182-.493.405-.678.646m3.141 7.712-1.124.287c-.497-.303-.982-.633-1.422-1.045.106-.439.276-.834.639-1.136.004.373-.323.916.21 1.146.199.113.515.32.716.416.632-.293 1.062-.34 1.383-.299-.172.194-.208.497-.402.631zm.463-.136c.089-.24.164-.398.335-.574-.195-.256-1.261-.258-1.749.031-.092-.037-.579-.244-.566-.472-.031-.499.377-.892.807-1.108.223-.134.511-.05.761-.074l.617.563c.029.309-.913.695-.216.727.671.072 1.282.135 1.886-.002.034.052.077.104.08.17-.688.308-1.262.478-1.955.739zm-1.624-7.004c1.051.612 1.801 1.806 3.048 2.044.084.027.157.063.24.089-.76.284-1.711-.07-2.538-.003l-.065-.006c-.849-.787-.685-2.124-.685-2.124zm1.125 3.243c.577.578 1.115 1.381 1.808 1.835.629.115 1.213.207 1.88.221-.669.6-2.391.633-2.958.582.191-.222.222-.412.221-.719-.722-.658-1.479-1.261-2.153-2.01-.178-.045-.379.7-.414.973-.388-.455-.565-1.015-.627-1.593.797.14 1.637.15 2.243.711z" fill="#231f20"/><path d="m28.758 21.758c-.061-.798 1.692-1.907 1.692-1.907-.793.013-1.481.437-2.139.835.007.259.299 1.03.447 1.072" fill="#231f20"/><path d="m33.501 22.861c-.16.08-.32.006-.328-.115.038-.41.565-.334.561-.767-.131-.326-.609-.159-.876-.052-.518.207-.772.748-.794 1.282.419.349 1.28.381 1.797.301 0 0 .528-.544.318-1.057-.246-.376-.383.294-.678.408" fill="#231f20"/><path d="m38.946 22.455c-.057-.33-.495-.217-.676-.138-.03.445.004 2.577-.151 3.126.459-.292.872-1.915.827-2.988" fill="#231f20"/><path d="m21.568 24.109c.05-.129.15-.291.067-.433-.33-.459-2.128.211-2.144 1.111-.045.55 1.651-.211 2.077-.678" fill="#231f20"/><path d="m21.307 26.214c.311-.153.818-.383.825-.774-.137-.385-.653-.27-.92-.17-.684.185-1.531 1.348.095.944" fill="#231f20"/><path d="m19.574 26.607c.064-.185.086-.422-.033-.574-.257-.329-.756-.194-1.072-.079-.668.319-1.31.967-1.237 1.747.018.723 1.968-.449 2.342-1.094" fill="#231f20"/><path d="m20.535 26.945c-.32.104-.858.771-.262.777.385-.037.874-.422.678-.625-.064-.148-.266-.233-.416-.152" fill="#231f20"/><path d="m36.077 35.764c-.063.246.269.186.383.293.203-.584.367-.808.386-.883l-.451-.068c-.159.169-.271.524-.318.658m.517-.414c-.008.045-.126.148-.209.504-.052-.041-.135-.004-.088-.129.021-.08.094-.293.152-.399z" fill="#231f20"/><path d="m36.226 38.236c-.045-.652.065-1.387.158-1.989-.136-.07-.32-.091-.482-.097-.055.062-.333 1.477-.218 2.123.125-.005.441.04.542-.037m-.351-.138c-.043-1.019.145-1.668.164-1.72.051-.003.127-.042.167.008-.087.433-.199.995-.132 1.705-.036.067-.159-.005-.199.007z" fill="#231f20"/><path d="m36.244 38.441c-.17.088-.321.176-.501.264.007.572.568 1.059.613.986-.012-.183.112-.53.189-.651-.092-.026-.298-.427-.301-.599m-.024.905c-.019.03-.268-.205-.249-.494.078-.039.111-.07.186-.108.001.073.135.29.175.302-.034.052-.117.222-.112.3z" fill="#231f20"/></svg>