<svg xmlns="http://www.w3.org/2000/svg" viewBox="0.0 0.0 366.2364 237.35864" width="392.70455493905274" height="254.64435984329202"><defs><style>.cls-1{fill:#fff;}.cls-2{fill:#e30713;}</style></defs><title>HC Dynamo Pardubice logo</title><path class="cls-1" d="M248.42442,237.358l-96.978-.027-113.034-88.699h94.667L38.41941,74.319l94.661.00305L38.41541,0l210.643.043A118.66177,118.66177,0,0,1,366.2364,118.689c0,62.526-48.987,114.205-110.6,118.387v.272Z"/><polygon class="cls-1" points="112.161 67.109 26.674 0 0 0 85.485 67.109 112.161 67.109"/><polygon class="cls-1" points="112.161 141.422 26.682 74.318 0.002 74.318 85.485 141.422 112.161 141.422"/><polygon class="cls-1" points="139.776 237.331 26.745 148.632 0.066 148.632 113.076 237.359 139.776 237.331"/><path class="cls-2" d="M244.5886,163.18512v.088l-32.994-.013v-89.163h32.994v.086a44.54856,44.54856,0,0,1,0,89.002m4.38-155.932-189.69-.03894,94.66,74.317-94.66-.003,94.66,74.313h-94.66l94.66,74.281,94.488.027v-.011a111.44845,111.44845,0,0,0,.542-222.885"/></svg>