<?xml version="1.0" encoding="UTF-8" standalone="no"?>
<svg
   xmlns:dc="http://purl.org/dc/elements/1.1/"
   xmlns:cc="http://creativecommons.org/ns#"
   xmlns:rdf="http://www.w3.org/1999/02/22-rdf-syntax-ns#"
   xmlns:svg="http://www.w3.org/2000/svg"
   xmlns="http://www.w3.org/2000/svg"
   xmlns:sodipodi="http://sodipodi.sourceforge.net/DTD/sodipodi-0.dtd"
   xmlns:inkscape="http://www.inkscape.org/namespaces/inkscape"
   height="89.57404"
   width="89.57399"
   version="1.1"
   viewBox="0 0 89.57399 89.57404"
   id="svg6151"
   sodipodi:docname="HC_Oceláři_Třinec_logo.svg"
   inkscape:version="0.92.4 (5da689c313, 2019-01-14)">
  <metadata
     id="metadata6157">
    <rdf:RDF>
      <cc:Work
         rdf:about="">
        <dc:format>image/svg+xml</dc:format>
        <dc:type
           rdf:resource="http://purl.org/dc/dcmitype/StillImage" />
        <dc:title></dc:title>
      </cc:Work>
    </rdf:RDF>
  </metadata>
  <defs
     id="defs6155" />
  <sodipodi:namedview
     pagecolor="#ffffff"
     bordercolor="#666666"
     borderopacity="1"
     objecttolerance="10"
     gridtolerance="10"
     guidetolerance="10"
     inkscape:pageopacity="0"
     inkscape:pageshadow="2"
     inkscape:window-width="1366"
     inkscape:window-height="705"
     id="namedview6153"
     showgrid="false"
     inkscape:pagecheckerboard="true"
     inkscape:zoom="5.2693837"
     inkscape:cx="38.144852"
     inkscape:cy="44.787022"
     inkscape:window-x="-8"
     inkscape:window-y="-8"
     inkscape:window-maximized="1"
     inkscape:current-layer="svg6151" />
  <path
     id="path6159"
     d="M 44.813,0 H 44.761 C 20.040272,0.01722367 0.00725698,20.058317 0,44.77905 v 0.017 C 0.00366279,62.90749 10.915234,79.23414 27.64777,86.164587 44.380271,93.09502 63.639504,89.264813 76.448594,76.460568 89.257684,63.656323 93.095177,44.39854 86.171075,27.663418 79.246958,10.928262 62.924438,0.01051453 44.813,0"
     inkscape:connector-curvature="0"
     style="fill:#ffffff"
     sodipodi:nodetypes="ccccsssc" />
  <path
     d="M11.778,36.065l1.259-3.107-1.871-.757.609-1.505,1.871.758,1.258-3.106L8.862,25.899,7.604,29.006l2.114.857-.609,1.504-2.115-.856L5.735,33.617ZM19.927,22.14a7.06337,7.06337,0,0,0,1.393-2.102,2.90079,2.90079,0,0,0,.14-1.863,3.56438,3.56438,0,0,0-1.12-1.666,3.54619,3.54619,0,0,0-1.772-.94,2.88383,2.88383,0,0,0-1.838.335,7.08814,7.08814,0,0,0-1.943,1.599,7.09411,7.09411,0,0,0-1.39,2.09595,2.87256,2.87256,0,0,0-.141,1.858,3.57111,3.57111,0,0,0,1.118,1.665,3.58351,3.58351,0,0,0,1.773.943,2.89625,2.89625,0,0,0,1.837-.329,7.04217,7.04217,0,0,0,1.943-1.596m-1.446-1.305a.99819.99819,0,0,1-.497.314,1.01649,1.01649,0,0,1-.587-.044,1.9991,1.9991,0,0,1-.638-.404,1.66037,1.66037,0,0,1-.58-.879,1.08685,1.08685,0,0,1,1.058-1.173,1.65906,1.65906,0,0,1,.933.487,1.93761,1.93761,0,0,1,.466.595,1.01871,1.01871,0,0,1,.103.581.98312.98312,0,0,1-.258.523m13.534-7.83-1.064-2.008a10.23446,10.23446,0,0,1-1.009.799,10.835,10.835,0,0,1-1.072.653,2.19279,2.19279,0,0,1-1.116.324.78322.78322,0,0,1-.669-.45.8265.8265,0,0,1,.03-.88306,2.7756,2.7756,0,0,1,1.067-.851,9.47159,9.47159,0,0,1,.909-.416q.528-.213,1.194-.431L29.084,7.478q-.8475.29846-1.562.595-.714.29544-1.291.601a5.44575,5.44575,0,0,0-2.558,2.315,3.0481,3.0481,0,0,0,.236,2.8,3.11252,3.11252,0,0,0,2.19,1.787,5.294,5.294,0,0,0,3.326-.789,12.91183,12.91183,0,0,0,1.265-.774c.431-.298.874-.634,1.325-1.008m3.595-1.002,3.243-.511-.192-1.214c-.021-.133-.05-.289-.085-.464-.036-.177-.077-.371-.124-.586a4.309,4.309,0,0,0,.273.337c.097.111.2.21906.31.326l1.429,1.347,3.693-.581-3.031-2.72,2.19-3.747-3.961.623-.87,2.091c-.058.138-.11.269-.157.395-.046.126-.088.248-.122.369q-.03449-.342-.061-.589c-.017-.163-.034-.293-.049-.389l-.257-1.638-3.242.511Zm11.864-.927,7.192,1.145.27-1.698-3.951-.629.091-.572,3.951.629.235-1.473-3.951-.629.095-.599,3.952.63.334-2.097L48.5,4.638Zm12.274,3.555,2.908,1.616.936-1.688,4.646-2.669-3.115-1.73-1.073.829a2.97771,2.97771,0,0,0-.225.204c-.107.105-.246.24695-.415.425.039-.17.07-.328.093-.478.024-.149.041-.287.052-.416l.118-1.369L60.429,7.552l.244,5.415ZM74.24,28.135l1.863-1.301a10.43649,10.43649,0,0,1-1.694-1.888,2.18834,2.18834,0,0,1-.458-1.068.7862.7862,0,0,1,.365-.72.82865.82865,0,0,1,.88-.078,2.78359,2.78359,0,0,1,.975.956,9.79438,9.79438,0,0,1,.524.852c.184.332.374.709.573,1.132l2.1-1.468q-.399-.80392-.781-1.478-.37951-.67355-.753-1.208a5.45021,5.45021,0,0,0-2.61-2.257,3.05211,3.05211,0,0,0-2.75.576,3.11245,3.11245,0,0,0-1.507,2.391,5.2968,5.2968,0,0,0,1.189,3.205,12.77,12.77,0,0,0,.922,1.161q.522.588,1.162,1.193m1.436,3.493,1.889,5.835,2.212-.717-.857-2.645,3.99-1.293-1.032-3.189Zm8.958,12.079-.114-3.35-3.973.13495a4.57558,4.57558,0,0,0-.781.087,2.27285,2.27285,0,0,0-.619.22,1.68991,1.68991,0,0,0-.473.38,2.95251,2.95251,0,0,0-.601,1.339,8.75643,8.75643,0,0,0-.135,2.067,9.85867,9.85867,0,0,0,.207,1.827,3.3715,3.3715,0,0,0,.514,1.224,1.92294,1.92294,0,0,0,.872.675,3.22454,3.22454,0,0,0,1.288.179l3.973-.135-.114-3.35-3.718.127a2.84676,2.84676,0,0,1-.597-.026.57864.57864,0,0,1-.357-.177.79423.79423,0,0,1-.027-.828.60254.60254,0,0,1,.348-.202,2.84738,2.84738,0,0,1,.588-.065Zm-7.051,8.729-2.09,5.429a3.70666,3.70666,0,0,0-.314,2.007,1.43425,1.43425,0,0,0,.967,1.083,1.36653,1.36653,0,0,0,.799.09,1.34876,1.34876,0,0,0,.682-.412,3.89927,3.89927,0,0,0,.623-.918,2.82082,2.82082,0,0,0,.057,1.53,1.40117,1.40117,0,0,0,.84.828,1.45767,1.45767,0,0,0,.94.07794,1.55037,1.55037,0,0,0,.778-.564,4.54713,4.54713,0,0,0,.646-1.208l2.156-5.601Zm.303,3.633.868.334-.448,1.163a1.00035,1.00035,0,0,1-.298.456.38679.38679,0,0,1-.391.04.3809.3809,0,0,1-.264-.313,1.2518,1.2518,0,0,1,.114-.591Zm-71.902-.923a7.04158,7.04158,0,0,0,.964,2.329,2.90034,2.90034,0,0,0,1.466,1.159,3.56241,3.56241,0,0,0,2.008.003,3.54141,3.54141,0,0,0,1.769-.943,2.8877,2.8877,0,0,0,.751-1.711,7.06584,7.06584,0,0,0-.24-2.505,7.08679,7.08679,0,0,0-.959-2.325,2.88157,2.88157,0,0,0-1.462-1.156,3.56879,3.56879,0,0,0-2.005-.004,3.5943,3.5943,0,0,0-1.774.942,2.90366,2.90366,0,0,0-.755,1.706,7.05442,7.05442,0,0,0,.237,2.505m1.891-.47a.98328.98328,0,0,1,.018-.588.9955.9955,0,0,1,.364-.46,1.95164,1.95164,0,0,1,.692-.303,1.64663,1.64663,0,0,1,1.052.01,1.08387,1.08387,0,0,1,.381,1.533,1.652,1.652,0,0,1-.926.501,1.946,1.946,0,0,1-.753.054,1.00735,1.00735,0,0,1-.538-.24.96943.96943,0,0,1-.29-.507m6.831,16.287,1.84-1.334a10.34809,10.34809,0,0,1-1.727-1.858,2.19777,2.19777,0,0,1-.476-1.061.78491.78491,0,0,1,.352-.725.82831.82831,0,0,1,.879-.093,2.77228,2.77228,0,0,1,.991.938,9.99392,9.99392,0,0,1,.539.843c.189.329.386.702.592,1.122l2.074-1.504c-.274-.533-.544-1.02-.806-1.464q-.3915-.66751-.774-1.195a5.44174,5.44174,0,0,0-2.65-2.211,3.04591,3.04591,0,0,0-2.739.624,3.11255,3.11255,0,0,0-1.465,2.416,5.30025,5.30025,0,0,0,1.245,3.185,13.00391,13.00391,0,0,0,.942,1.144q.53249.579,1.183,1.173m4.552,4.736,3.556-5.464,6.104,3.972-1.158,1.78-3.354-2.183-.33.508,3.354,2.183-.814,1.249-3.354-2.182-.316.485L26.3,78.229l-.938,1.442Zm12.254,6.622,5.922,1.593.604-2.245-2.686-.722,1.089-4.051L33.205,76.026Zm14.085-5.255,2.159-.187L48.9,75.644l-2.763.24Zm-2.505,7.598,3.366-.292.199-.863,2.063-.178.326.817,3.383-.293L49.76,77.543l-5.131.444Zm3.767-2.986.302-1.295c.039-.162.072-.341.099-.534.028-.192.049-.399.066-.616a8.97166,8.97166,0,0,0,.359,1.105l.52,1.223ZM57.709,73l-1.247.60706,1.063.742,2.21-1.076.073-1.294-1.247.60706-.173.727Zm.579,9.155-2.852-5.863,5.649-2.749a2.4698,2.4698,0,0,1,1.677-.292,1.70052,1.70052,0,0,1,1.094.993,1.80688,1.80688,0,0,1,.136,1.445,2.55123,2.55123,0,0,1-1.103,1.221l3.243,1.428-3.48,1.693-1.721-.85c-.046-.022-.12-.061-.221-.119-.103-.056-.227-.132-.376-.225q.114.192.233.405c.077.143.155.293.232.451l.488,1.002Zm1.509-4.521.576-.28a3.03691,3.03691,0,0,0,.587-.355.75237.75237,0,0,0,.266-.378.63254.63254,0,0,0-.067-.44.50951.50951,0,0,0-.275-.279.67863.67863,0,0,0-.417.01,3.59488,3.59488,0,0,0-.599.243l-.639.311Zm11.188-3.178,2.425-2.338-4.524-4.695L66.46,69.762ZM41.316,29.195l-.618-.419c-1.313.528-2.007-.41-3.25-.05l-.079.533c-.428-.005-1.217,1.024-.969,1.201.039.029,3.636-1.286,4.916-1.265m2.307,36.301c-.803-.387-.345-1.767-5.731-4.718-3.159-1.731-5.677-2.68-5.978-4.98,10.063.225,24.431-6.276,23.159-12.269-.415-1.62805-3.376-5.467-5.691-6.265-3.369-1.324,2.755,4.159,1.262,10.654a2.25364,2.25364,0,0,1-1.632-1.063c.072-2.465.15-6.162-3.186-7.945l-2.834,1.691c-2.134-1.017-7.636-1.574-8.468.175-.325.683.615,1.17-.012,2.486-.534,1.123-1.847,1.214-2.21,1.977-.441.926-.061,1.858-.211,2.667-3.269-2.607-.12-2.895.631-4.47095.269-.566.167-1.093-.304-1.317-2.174-1.035-3.484,1.405-5.146.658,1.263-1.743-1.131-1.639-.773-3.567.838.422,1.372,1.512,2.34,1.737.493-.186,3.53-.804,2.6-2.541l.157-.14c1.109,1.037,3.03.508,1.77-1.008l.148-.21c1.995,1.58295,5.032.758,6.537-.223,1.561-1.017,2.842-2.901,5.441-2.97.152-.637.014-.741-.534-.875l.093-.068c-.375.043-.738.096-1.087.153a9.17794,9.17794,0,0,0-3.513,1.129c-.879.44-2.764,1.162-3.715.479l-.644-.46405c.453-.371.987-.012,1.186-.288.126-.176.167-.369.017-.477-1.43-1.028-7.281.778-8.789,1.341-1.25.434.195,2.025.673,2.9-.574.215-2.44-1.586-3.107-2.101l-.624.271-1.07.362c.606-.871-.308-2.239.274-3.49194.053-.11505.955.33,1.373.03894.894-.623-2.434-1.621-.369-1.495a9.47251,9.47251,0,0,1,1.053-1.546l.488-.23a4.07248,4.07248,0,0,0-.144,1.717,5.51608,5.51608,0,0,0,3.419-1.197c1.254-.895-1.173,2.723,4.882-.898,5.038-3.224,4.918-6.828,5.532-7.444a4.61066,4.61066,0,0,1,1.947-1.272c-.561,2.146-2.195,5.976-1.449,6.584,1.571,1.13,3.155-1.11,4.388-2.231,2.94-2.409,4.629-.885,9.872-4.063a1.28442,1.28442,0,0,1,.829.595c-1.151,1.953-5.065,2.96-6.356,4.756-.751,1.044-1.071,2.652-.118,3.338l.107.077c2.559,1.117,8.345-2.578,9.39-4.686a2.43281,2.43281,0,0,1,.923,1.486c-1.439,2.155-5.667,4.897-2.77,7.195,1.753,1.396,4.578-2.027,4.607-3.796a3.05,3.05,0,0,1,.728,1.43c.094,4.738-3.418,6.783-.579,9.551,1.573,1.523,3.258-2.243,3.377-3.233l.75,1.76c1.272,3.541-4.936,10.004-3.423,12.09.755,1.051,4.29-2.491,4.615-3.348a5.127,5.127,0,0,1,.157,2.14c-.487,1.707-10.785,12.149-3.83,10.791l-.904,1.491c-3.217,2.296-5.944-1.065-10.781,2.446-1.191,1.046,1.278.6,2.315,1.174a3.65876,3.65876,0,0,1-1.068,1.21c-1.218.587-5.205,2.53-8.565.082,5.759-5.38,14.668-6.749,15.608-14.96906a9.13525,9.13525,0,0,1-4.235,5.176c-4.045,2.566-9.276,4.822-12.798,8.052M54.049,36.038a2.00454,2.00454,0,0,0,.293,1.753,27.07954,27.07954,0,0,1,5.695,8.144c-.763-2.599-2.696-7.53-4.832-9.066ZM17.594,39.497A6.11735,6.11735,0,0,1,14.696,37.4l1.173.279.491.084a11.22882,11.22882,0,0,0,3.845-.103,10.92642,10.92642,0,0,1,3.546-.511l.63.108c.598.101,1.519.671,1.583,1.087l-.005-.002c.011.015.02.03.029.045l-.379.028-.572.237-.308.152a7.18939,7.18939,0,0,0-2.054,1.599,6.7704,6.7704,0,0,1-1.697,1.698l-.395.196a1.7475,1.7475,0,0,1-1.38.05l.779-.31a4.07268,4.07268,0,0,0,1.628-1.76,5.67406,5.67406,0,0,1,.816-1.357,13.22414,13.22414,0,0,0-3.839,2.548c-1.182,1.142-2.723,2.899-4.96,3.24-1.884.287-5.633-.88495-6.51-1.775l2.081-.182.848-.129a18.91582,18.91582,0,0,0,6.171-2.235c.342-.231.825-.55,1.377-.89m-1.61-3.503q.4185-1.36945.963-2.695.537-1.302,1.192-2.549.645-1.22845,1.403-2.392.7485-1.15054,1.601-2.229a30.21765,30.21765,0,0,1,12.904-9.464q1.26-.48148,2.559-.849,1.3035-.36749,2.635-.619,1.33949-.25049,2.697-.38,1.368-.129,2.742-.133,1.389-.003,2.773.122,1.404.12753,2.789.385,1.40852.26248,2.789.657,1.392.39752,2.741.925,1.323.519,2.593,1.16,1.251.63144,2.438,1.378,1.173.73645,2.273,1.581,1.089.83551,2.099,1.768,1.002.92551,1.918,1.94.909,1.008,1.727,2.096a30.27007,30.27007,0,0,1,4.835,9.642q.384,1.308.649,2.647.2655,1.344.407,2.71.14248,1.374.158,2.759c.009.931-.024,1.863-.101,2.791q-.117,1.41293-.367,2.808-.25349,1.419-.642,2.81-.39,1.39645-.909,2.75-.51,1.329-1.145,2.604-.624,1.25546-1.363,2.448-.7305,1.179-1.568,2.285-.82949,1.09506-1.756,2.111-.91949,1.008-1.93,1.93a30.2454,30.2454,0,0,1-14.34,7.297q-1.34248.273-2.706.423-1.374.15143-2.757.175-1.395.024-2.789-.083-1.41149-.108-2.808-.349-1.419-.24454-2.81-.623-1.167-.31805-2.306-.726-1.065-.38251-2.099-.844-1.0215-.45456-2.005-.985a29.97382,29.97382,0,0,1-6.983-5.201,30.14966,30.14966,0,0,1-8.782-19.739c.351-.018.703-.036,1.053-.054q.0585,1.119.203,2.232.1425,1.1055.372,2.196A29.09011,29.09011,0,0,0,28.307,68.723q.933.642,1.914,1.208.99149.573,2.026,1.065,1.047.49951,2.132.913,1.101.42,2.234.751a29.01538,29.01538,0,0,0,8.654,1.172q1.422-.02554,2.835-.189,1.3995-.162,2.78-.46,1.36951-.297,2.707-.725,1.329-.426,2.615-.977,1.281-.549,2.506-1.221,1.224-.66751,2.378-1.453,1.15649-.783,2.234-1.675,1.07849-.89548,2.069-1.891c.661-.666,1.292-1.365,1.885-2.092q.9-1.10257,1.687-2.287.795-1.19705,1.468-2.46906.681-1.29,1.232-2.644a29.601,29.601,0,0,0,1.668-5.7c.177-.956.306-1.922.387-2.891a28.6622,28.6622,0,0,0,.094-2.871q-.024-1.422-.189-2.835-.162-1.401-.461-2.78-.29549-1.36954-.724-2.70605-.42448-1.33044-.977-2.616-.549-1.281-1.22-2.506-.67051-1.22406-1.453-2.379-.78449-1.155-1.677-2.232-.894-1.07849-1.89-2.069-.999-.993-2.093-1.886-1.0995-.8985-2.286-1.686a28.562,28.562,0,0,0-2.469-1.469q-1.29-.68106-2.643-1.231a29.492,29.492,0,0,0-5.68-1.664,28.89485,28.89485,0,0,0-2.871-.388q-1.422-.12-2.851-.098-1.41149.02106-2.815.18005c-.927.10394-1.85.25494-2.762.449-.907.193-1.806.429-2.69.709-.882.277-1.751.597-2.601.958-.85.36-1.684.76-2.495,1.199q-1.218.65707-2.37,1.429-1.152.77106-2.227,1.649-1.077.88055-2.067,1.861-.993.984-1.888,2.061-.9015,1.08444-1.693,2.253-.798,1.17892-1.479,2.434-.6885,1.272-1.249,2.607a23.89362,23.89362,0,0,0-.999,2.77ZM44.813,0h-.052A44.79221,44.79221,0,0,0,0,44.77905v.017A44.787,44.787,0,1,0,44.813,0m-.026,88.523A43.7355,43.7355,0,1,1,88.522,44.787,43.74139,43.74139,0,0,1,44.787,88.523M80.015,56.888l.835.322-.441,1.146a1.1414,1.1414,0,0,1-.163.313.35416.35416,0,0,1-.2.138.47192.47192,0,0,1-.267-.035.39015.39015,0,0,1-.254-.277.84646.84646,0,0,1,.061-.493Z"
     id="path6149"
     fill="#e60005" />
</svg>
