<?xml version="1.0" encoding="UTF-8" standalone="no"?>
<!-- Created with Inkscape (http://www.inkscape.org/) -->

<svg
   xmlns:dc="http://purl.org/dc/elements/1.1/"
   xmlns:cc="http://creativecommons.org/ns#"
   xmlns:rdf="http://www.w3.org/1999/02/22-rdf-syntax-ns#"
   xmlns:svg="http://www.w3.org/2000/svg"
   xmlns="http://www.w3.org/2000/svg"
   xmlns:sodipodi="http://sodipodi.sourceforge.net/DTD/sodipodi-0.dtd"
   xmlns:inkscape="http://www.inkscape.org/namespaces/inkscape"
   width="84.666664mm"
   height="78.588928mm"
   viewBox="0 0 299.99999 278.46471"
   id="svg2"
   version="1.1"
   inkscape:version="0.91 r13725"
   sodipodi:docname="hc skoda plzen.svg">
  <defs
     id="defs4" />
  <sodipodi:namedview
     id="base"
     pagecolor="#ffffff"
     bordercolor="#666666"
     borderopacity="1.0"
     inkscape:pageopacity="0.0"
     inkscape:pageshadow="2"
     inkscape:zoom="0.35"
     inkscape:cx="119.47628"
     inkscape:cy="228.21421"
     inkscape:document-units="px"
     inkscape:current-layer="layer1"
     showgrid="false"
     fit-margin-top="0"
     fit-margin-left="0"
     fit-margin-right="0"
     fit-margin-bottom="0"
     inkscape:window-width="1280"
     inkscape:window-height="744"
     inkscape:window-x="-4"
     inkscape:window-y="-4"
     inkscape:window-maximized="1" />
  <metadata
     id="metadata7">
    <rdf:RDF>
      <cc:Work
         rdf:about="">
        <dc:format>image/svg+xml</dc:format>
        <dc:type
           rdf:resource="http://purl.org/dc/dcmitype/StillImage" />
        <dc:title></dc:title>
      </cc:Work>
    </rdf:RDF>
  </metadata>
  <g
     inkscape:label="Layer 1"
     inkscape:groupmode="layer"
     id="layer1"
     transform="translate(-255.52372,-482.11172)">
    <g
       transform="matrix(2.78465,0,0,-2.78465,255.52418,760.57687)"
       inkscape:label="ink_ext_XXXXXX"
       id="g3344">
      <g
         transform="scale(0.1,0.1)"
         id="g3346">
        <path
           inkscape:connector-curvature="0"
           id="path3348"
           style="fill:#26539d;fill-opacity:1;fill-rule:nonzero;stroke:none"
           d="m 556.941,998.613 c 3.227,0.852 6.594,1.797 9.946,1.2 12.008,-2.368 24.351,-1.825 36.426,-3.637 5.015,-0.863 7.605,-5.996 7.808,-10.668 1.457,-14.094 3.344,-28.113 5.168,-42.168 1.106,-8.164 0.32,-16.969 4.426,-24.418 3.125,-4.934 1.531,-10.945 1.598,-16.41 0.05,-4.707 -1.407,-9.86 -5.555,-12.551 -4.5,-2.539 -9.817,-1.305 -14.68,-0.969 -20.828,1.746 -41.707,3.047 -62.508,5.168 -4.757,0.219 -9.257,3.438 -10.175,8.266 -0.915,6.465 -0.418,13.14 0.882,19.523 1.524,4.371 4.571,8.082 5.653,12.649 4.761,18.054 10,35.972 14.519,54.093 1.211,3.692 2.481,8.399 6.492,9.922 l 0,0" />
        <path
           inkscape:connector-curvature="0"
           id="path3350"
           style="fill:#26539d;fill-opacity:1;fill-rule:nonzero;stroke:none"
           d="m 467.191,997.207 c 13.567,1.172 27.997,2.793 40.985,-2.352 9.047,-3.453 15.394,-11.988 17.066,-21.406 2.375,-13.347 2.664,-26.926 3.817,-40.406 0.879,-10.582 -0.614,-22.219 -7.86,-30.5 -7.703,-8.398 -19.578,-10.77 -30.48,-11.484 -13.059,-0.793 -26.051,-2.551 -39.121,-2.895 -4.336,-0.305 -7.774,3.539 -8.418,7.574 -1.457,8.5 -3.164,17.578 0.664,25.735 -0.055,11.808 -1.75,23.609 -2.614,35.398 -0.062,5.027 -4.777,8.383 -5.179,13.324 -0.508,5.606 -0.832,11.266 -0.442,16.887 0.289,4.32 4.559,6.754 8.399,7.449 7.672,1.356 15.465,1.75 23.183,2.676 l 0,0" />
        <path
           inkscape:connector-curvature="0"
           id="path3352"
           style="fill:#ffffff;fill-opacity:1;fill-rule:nonzero;stroke:none"
           d="m 556.777,990.621 c 0.75,4.91 6.543,3.621 10.039,3.457 12.704,-1.527 25.645,-1.223 38.145,-4.047 3.027,-22.441 5.84,-44.914 8.535,-67.402 0.098,-2.91 2.195,-5.082 3.828,-7.301 -0.304,-6.402 0.031,-13.004 -1.765,-19.219 -1.457,-3.136 -5.356,-2.41 -8.11,-2.269 -15.222,1 -30.347,3.031 -45.594,3.605 -8.703,1 -17.585,0.746 -26.164,2.594 -3.82,3.742 -0.961,9.613 -1.199,14.309 -0.254,6.164 4.426,10.75 5.813,16.492 5.586,19.898 10.73,39.933 16.472,59.781 l 0,0" />
        <path
           inkscape:connector-curvature="0"
           id="path3354"
           style="fill:#ffffff;fill-opacity:1;fill-rule:nonzero;stroke:none"
           d="m 444.098,989.352 c 10.922,1.472 21.976,1.828 32.953,2.929 10.347,0.828 21.676,2.758 31.226,-2.504 7.286,-3.828 11.278,-11.773 12.192,-19.699 1.426,-11.734 2.133,-23.519 3.269,-35.273 0.34,-8.231 1.746,-17.477 -3.422,-24.61 -4.945,-7.972 -14.039,-12.273 -23.164,-13.156 -14.597,-1.238 -29.199,-2.488 -43.793,-3.66 -3.492,-0.777 -5.996,2.594 -5.625,5.797 -0.015,6.277 -3.32,13.933 1.715,19.066 -0.578,15.293 -2.304,30.52 -3.797,45.723 -5.347,3.828 -4.082,10.875 -4.875,16.582 -0.242,3.062 -0.695,8.055 3.321,8.805 l 0,0" />
        <path
           inkscape:connector-curvature="0"
           id="path3356"
           style="fill:#26539d;fill-opacity:1;fill-rule:nonzero;stroke:none"
           d="m 561.34,989.723 c 13.086,-0.93 26.16,-2.082 39.234,-3.164 3.149,-21.118 5.317,-42.391 8.156,-63.563 0.34,-3.738 2.208,-7.039 3.411,-10.531 0.293,-4.742 -0.293,-9.469 -0.508,-14.188 -11.653,0.778 -23.274,2.016 -34.945,2.676 0.46,4.438 0.648,8.906 1.339,13.324 1.375,3.118 3.379,5.946 4.051,9.332 -5.008,0.676 -10.035,1.172 -15.086,1.407 0.086,-1.305 0.215,-3.93 0.281,-5.231 4.844,-4.863 1.497,-12.027 1.614,-18.023 -10.086,0.527 -20.137,1.777 -30.227,2.101 0.168,4.356 0.149,8.727 0.86,13.024 1.203,3.843 3.988,7.011 4.914,10.972 5.625,20.625 11.347,41.223 16.906,61.864 l 0,0" />
        <path
           inkscape:connector-curvature="0"
           id="path3358"
           style="fill:#26539d;fill-opacity:1;fill-rule:nonzero;stroke:none"
           d="m 445.215,984.746 c 14.582,1.387 29.16,2.656 43.762,3.824 8.429,0.746 18.179,-1.218 23.113,-8.789 5.297,-8.433 4.316,-18.883 5.387,-28.379 0.843,-8.976 1.605,-17.968 2.148,-26.98 0.219,-11.359 -9.398,-21.082 -20.492,-22.164 -15.496,-1.903 -31.074,-2.863 -46.621,-4.324 0.086,6.168 -3.27,13.414 1.66,18.476 -0.371,15.754 -2.492,31.434 -3.543,47.149 0.172,3.046 -2.332,5.031 -4.129,7.097 -0.578,4.692 -0.969,9.383 -1.285,14.09 l 0,0" />
        <path
           inkscape:connector-curvature="0"
           id="path3360"
           style="fill:#26539d;fill-opacity:1;fill-rule:nonzero;stroke:none"
           d="m 381.605,984.031 c 12.704,2.543 28.129,2.914 37.848,-7.093 10.922,-11.333 13.531,-27.54 16.836,-42.286 1.949,-11.347 7.012,-23.101 2.945,-34.582 -4.691,-14.226 -19.527,-21.91 -33.277,-25.011 -12.852,-2.879 -28.398,-4.289 -38.883,5.351 -10.75,10.313 -13.551,25.707 -16.953,39.574 -2.402,12.688 -8.027,25.848 -3.621,38.731 5.027,14.785 20.898,22.117 35.105,25.316 l 0,0" />
        <path
           inkscape:connector-curvature="0"
           id="path3362"
           style="fill:#ffffff;fill-opacity:1;fill-rule:nonzero;stroke:none"
           d="m 385.195,978.68 c 8.535,1.812 17.95,2.437 25.977,-1.657 6.422,-2.945 10.449,-9.382 12.383,-15.968 3.961,-13.735 7.074,-27.692 10.765,-41.508 2.528,-8.586 1.649,-18.699 -4.519,-25.559 -8.449,-9.75 -21.692,-13.035 -33.887,-15.238 -10.926,-2.086 -24.078,0.32 -30.394,10.359 -5.864,9.778 -6.899,21.496 -10.082,32.246 -2.469,12.043 -8.856,24.762 -3.575,36.954 5.594,13.125 20.426,17.972 33.332,20.371 l 0,0" />
        <path
           inkscape:connector-curvature="0"
           id="path3364"
           style="fill:#26539d;fill-opacity:1;fill-rule:nonzero;stroke:none"
           d="m 689.766,969.215 c 1.379,3.558 3.086,8.23 7.492,8.687 9.762,1.137 18.047,-5.195 27.058,-7.722 13.145,-4.575 27.801,-7.723 37.793,-18.141 9.219,-10.07 8.047,-25.262 4.239,-37.406 -3.672,-10.414 -8.282,-21.625 -17.93,-27.875 -8.594,-5.774 -19.648,-4.535 -29.172,-2.149 -2.312,-7.484 -4.383,-15.464 -10.308,-21.015 -3.833,0.234 -7.688,0.676 -11.262,2.148 -9.988,3.711 -20.203,6.84 -30.086,10.805 -3.735,1.406 -6.504,4.945 -6.477,8.996 0.293,4.824 2.332,9.277 4.082,13.699 1.946,6.149 8.352,9.586 9.578,16.117 3.497,12.723 12.407,24.27 10.997,38.004 -0.321,5.594 2.238,10.703 3.996,15.852 l 0,0" />
        <path
           inkscape:connector-curvature="0"
           id="path3366"
           style="fill:#26539d;fill-opacity:1;fill-rule:nonzero;stroke:none"
           d="m 386.5,974.141 c 8.063,1.816 17.254,2.304 24.418,-2.52 5.641,-3.558 7.621,-10.414 9.418,-16.445 2.98,-11.211 5.539,-22.539 8.602,-33.75 2.199,-7.5 3.285,-16.461 -1.793,-23.082 -6.875,-9.11 -18.665,-12.074 -29.231,-14.496 -9.805,-2.102 -22.199,-1.524 -28.195,7.773 -6.235,10.227 -6.844,22.621 -10.434,33.832 -2.453,10.574 -7.605,22.223 -2.183,32.719 5.878,10.535 18.488,13.566 29.398,15.969 l 0,0" />
        <path
           inkscape:connector-curvature="0"
           id="path3368"
           style="fill:#ffffff;fill-opacity:1;fill-rule:nonzero;stroke:none"
           d="m 696.633,970.84 c 1.687,3.301 5.484,1.07 8.125,0.527 12.597,-4.453 25.281,-8.738 37.808,-13.379 8.372,-3.047 17.043,-8.129 20.188,-16.968 3.894,-9.383 -0.027,-19.422 -3.059,-28.43 -3.379,-9.18 -7.879,-19.492 -17.715,-23.219 -9.722,-3.781 -20.105,-0.019 -29.351,3.317 0.574,-0.915 1.766,-2.711 2.351,-3.606 -2.519,-6.594 -3.234,-14.434 -8.222,-19.711 -5.227,-0.344 -9.942,2.504 -14.785,4.008 -8.157,3.305 -16.922,5.082 -24.676,9.25 -1.234,6.351 2.32,12.312 4.351,18.117 0.625,2.727 3.286,3.793 5.364,5.215 4.851,13.598 9.59,27.234 14.367,40.852 0.918,2.269 -0.609,4.57 -1.035,6.789 1.844,5.808 3.101,11.953 6.289,17.238 l 0,0" />
        <path
           inkscape:connector-curvature="0"
           id="path3370"
           style="fill:#ffffff;fill-opacity:1;fill-rule:nonzero;stroke:none"
           d="m 477.883,969.336 c 3.519,-0.543 8.328,0.605 10.461,-3.133 1.324,-3.555 1.289,-7.418 1.594,-11.144 0.527,-10.723 2.488,-21.426 1.832,-32.176 -1.086,-4.117 -6.438,-3.199 -9.622,-4.098 -1.289,16.863 -2.984,33.68 -4.265,50.551 l 0,0" />
        <path
           inkscape:connector-curvature="0"
           id="path3372"
           style="fill:#ffffff;fill-opacity:1;fill-rule:nonzero;stroke:none"
           d="m 570.938,940.055 c 1.984,9.125 3.828,18.289 6.574,27.23 0.672,-9.316 1.687,-18.594 2.144,-27.91 -2.91,0.238 -5.808,0.461 -8.718,0.68 l 0,0" />
        <path
           inkscape:connector-curvature="0"
           id="path3374"
           style="fill:#26539d;fill-opacity:1;fill-rule:nonzero;stroke:none"
           d="m 700.203,967.945 c 12.492,-4.523 25.078,-8.789 37.61,-13.242 7.468,-2.965 16.035,-6.066 19.832,-13.785 4.347,-8.672 0.441,-18.457 -2.528,-26.895 -3.066,-7.843 -6.504,-17.152 -15.137,-20.253 -10.656,-4.047 -21.152,2.609 -31.257,5.285 -0.625,-2.285 -1.262,-4.559 -1.868,-6.844 0.95,-1.523 1.915,-3.066 2.879,-4.59 -1.675,-4.535 -3.269,-9.09 -4.929,-13.644 -11.219,3.773 -22.285,7.992 -33.543,11.632 1.609,4.606 3.203,9.211 4.961,13.766 2.554,1.543 5.093,3.355 5.789,6.457 4.676,12.883 9.074,25.871 13.664,38.793 1.719,3.711 -0.051,7.691 0.476,11.551 0.996,4.031 2.625,7.855 4.051,11.769 l 0,0" />
        <path
           inkscape:connector-curvature="0"
           id="path3376"
           style="fill:#26539d;fill-opacity:1;fill-rule:nonzero;stroke:none"
           d="m 482.793,962.934 c 0.453,0.132 1.387,0.386 1.848,0.507 0.656,-13.328 2.605,-26.605 2.199,-39.964 -2.863,12.968 -1.274,26.449 -4.047,39.457 l 0,0" />
        <path
           inkscape:connector-curvature="0"
           id="path3378"
           style="fill:#26539d;fill-opacity:1;fill-rule:nonzero;stroke:none"
           d="m 311.137,960.391 c 3.863,1.867 9.367,2.222 12.062,-1.743 4.246,-5.605 6.891,-12.328 9.043,-18.984 0.555,-8.906 -4.152,-17.324 -3.679,-26.266 6.773,-6.449 14.703,-11.484 22.421,-16.699 8.118,-5.011 9.922,-15.074 13.379,-23.254 -1.183,-6.875 -7.433,-10.496 -13.379,-12.816 -19.32,-8.688 -38.543,-17.645 -57.898,-26.297 -4.27,-1.629 -10.582,-3.727 -13.731,0.844 -3.285,3.808 -5.878,8.215 -7.746,12.871 -2.484,6.676 -0.472,14.258 -3.718,20.715 -4.118,8.547 -8.961,16.726 -12.571,25.535 -1.761,5.113 -7.738,6.992 -9.535,12.09 -2.402,5.722 -6.113,11.531 -5.297,17.984 0.543,4.031 4.535,6.098 7.825,7.668 21.136,9.031 41.863,18.953 62.824,28.352 l 0,0" />
        <path
           inkscape:connector-curvature="0"
           id="path3380"
           style="fill:#ffffff;fill-opacity:1;fill-rule:nonzero;stroke:none"
           d="m 297.387,948.316 c 6.875,2.457 13.078,7.438 20.496,7.965 4.961,-4.558 7.129,-11.875 9.09,-18.176 -1.914,-8.906 -3.692,-17.933 -4.063,-27.046 8.953,-7.586 18.168,-15.02 28.18,-21.2 3.437,-5.488 6.18,-11.57 7.855,-17.847 -1.722,-3.645 -6.129,-4.438 -9.367,-6.25 -9.156,-3.864 -17.898,-8.754 -27.414,-11.719 -11.699,-6.895 -24.535,-11.555 -36.766,-17.359 -5.164,4.925 -7.484,11.906 -10.089,18.355 0.234,1.34 0.707,4 0.925,5.336 -5.961,14.176 -12.328,28.215 -19.132,41.996 -5.981,1.527 -6.997,8.285 -9.5,12.977 -1.153,2.976 -4.118,7.808 -0.258,9.976 16.41,8.227 33.617,14.778 50.043,22.992 l 0,0" />
        <path
           inkscape:connector-curvature="0"
           id="path3382"
           style="fill:#ffffff;fill-opacity:1;fill-rule:nonzero;stroke:none"
           d="m 384.316,954.531 c 2.911,2.168 7.317,0.629 8.145,-2.91 3.266,-9.398 4.879,-19.305 7.656,-28.855 1.235,-5.539 3.621,-11.063 2.981,-16.84 -1.797,-3.043 -6.235,-3.957 -8.961,-1.774 -2.657,3.946 -3.129,8.856 -4.387,13.364 -2.199,10.328 -5.723,20.336 -7.52,30.75 -0.625,2.218 -0.355,5.285 2.086,6.265 l 0,0" />
        <path
           inkscape:connector-curvature="0"
           id="path3384"
           style="fill:#26539d;fill-opacity:1;fill-rule:nonzero;stroke:none"
           d="m 287.836,938.633 c 9.434,4.398 18.902,8.769 28.488,12.851 2.031,-4.386 4.063,-8.769 6.043,-13.195 -2.695,-9.551 -3.25,-19.504 -4.996,-29.226 10.18,-7.59 19.442,-16.579 30.582,-22.747 1.934,-4.367 3.883,-8.753 5.965,-13.07 -9.785,-4.93 -19.949,-9.062 -29.785,-13.887 -3.238,6.215 -5.223,13.477 -10.863,18.067 -4.602,3.965 -9.329,7.762 -14.086,11.535 3.671,-6.383 4.402,-16.156 12.207,-18.934 2.41,-4.336 4.425,-8.875 6.386,-13.429 -10.55,-4.789 -21.097,-9.602 -31.648,-14.375 -1.969,4.336 -3.879,8.672 -5.758,13.035 0.606,2.676 1.488,5.472 0,8.047 -5.641,12.906 -11.621,25.675 -17.391,38.511 -1.14,3.2 -4.035,5.012 -6.527,7.039 -2.793,3.829 -4.281,8.422 -6.449,12.606 10.484,4.879 21.168,9.379 31.5,14.578 2.101,-4.281 4.148,-8.582 5.976,-13.008 -2.558,-6.91 2.321,-13.308 5.2,-19.265 0.98,6.246 2.386,12.597 1.797,18.964 -1.372,5.606 -4.321,10.649 -6.641,15.903 l 0,0" />
        <path
           inkscape:connector-curvature="0"
           id="path3386"
           style="fill:#26539d;fill-opacity:1;fill-rule:nonzero;stroke:none"
           d="m 386.5,949.605 c 0.473,0.067 1.422,0.204 1.898,0.266 3.012,-14.375 8.227,-28.293 10.094,-42.875 -2.746,3.555 -3.183,8.199 -4.336,12.399 -2.558,10.074 -5.117,20.152 -7.656,30.21 l 0,0" />
        <path
           inkscape:connector-curvature="0"
           id="path3388"
           style="fill:#26539d;fill-opacity:1;fill-rule:nonzero;stroke:none"
           d="m 789.348,939.121 c 4.312,3.93 10.465,1.188 14.871,-1.117 9.676,-5.332 20.488,-8.977 28.867,-16.426 4.285,-3.625 2.969,-9.976 1.609,-14.699 -2.34,-5.91 -5.855,-11.856 -11.648,-14.953 -4.777,-2.117 -6.414,-7.387 -8.789,-11.606 7.265,-4.453 15.715,-7.211 21.965,-13.207 3.843,-3.437 3.738,-9.343 1.367,-13.597 -4.27,-7.957 -8.75,-15.801 -13.379,-23.555 8.797,7.684 20.867,8.805 31.48,12.633 -3.718,4.011 -7.781,9.398 -5.171,15.156 4.707,8.855 12.371,15.664 18.406,23.605 3.23,3.372 5.82,9.079 11.269,8.657 4.422,0.402 7.766,-2.899 10.926,-5.438 14.942,-12.699 30.063,-25.179 45,-37.851 3.535,-2.93 7.207,-6.977 5.774,-11.973 -2.305,-7.195 -7.793,-12.918 -13.614,-17.488 -7.636,-4.543 -16.601,-6.114 -25.117,-8.27 3.524,-4.246 9.149,-9.179 6.184,-15.304 -6.086,-9.063 -14.18,-16.614 -20.688,-25.387 3.891,2.351 7.219,5.961 11.899,6.722 2.671,0.579 5.308,1.422 7.41,3.266 7.929,6.203 15.801,12.449 23.801,18.563 4.753,3.269 6.043,9.433 10.476,13.007 4.863,3.946 9.473,8.993 15.84,10.297 5.059,0.047 8.445,-4.289 11.328,-7.875 11.445,-14.5 22.441,-29.383 34.496,-43.371 3.22,-4.265 7.42,-9.586 5.35,-15.242 -3.35,-7.328 -11.213,-10.719 -17.17,-15.543 -4.817,-3.492 -9.207,-8.352 -15.293,-9.453 -6.16,-0.828 -8.438,6.031 -12.109,9.504 -2.305,0.113 -3.946,-1.883 -5.833,-2.828 3.391,-4.965 9.629,-11.063 6.055,-17.461 -4.07,-4.961 -9.773,-8.199 -14.617,-12.328 -4.59,-3.418 -8.816,-7.336 -13.699,-10.332 -4.367,-2.844 -10.871,-1.782 -13.821,2.589 -10.105,12.973 -20.273,25.93 -30.378,38.903 -4.543,5.926 -9.692,11.48 -12.969,18.238 0.535,1.59 1.094,3.184 1.66,4.762 -4.172,0.031 -8.691,0.062 -11.875,3.164 -16.379,13.512 -32.387,27.484 -48.945,40.777 -3.352,2.457 -5.453,6.129 -6.145,10.195 -4.101,-0.339 -8.351,-0.269 -11.902,2.047 -16.836,9.86 -33.906,19.309 -51.008,28.707 -4.402,2.504 -9.297,6.668 -8.164,12.364 1.711,5.586 5.176,10.429 7.961,15.527 2.058,4.57 7.683,5.859 9.851,10.367 5.508,10.242 11.692,20.129 16.836,30.567 -0.105,9.921 5.418,18.441 11.653,25.687 l 0,0" />
        <path
           inkscape:connector-curvature="0"
           id="path3390"
           style="fill:#ffffff;fill-opacity:1;fill-rule:nonzero;stroke:none"
           d="m 714.844,915.668 c 2.922,8.484 5.781,17.004 8.855,25.434 2.864,-1.911 8.235,-2.469 8.559,-6.704 -0.578,-6.117 -3.047,-11.921 -5.695,-17.39 -2.352,-4.371 -7.989,-1.649 -11.719,-1.34 l 0,0" />
        <path
           inkscape:connector-curvature="0"
           id="path3392"
           style="fill:#ffffff;fill-opacity:1;fill-rule:nonzero;stroke:none"
           d="m 794.375,936.039 c 3.352,0.035 6.113,-2.117 8.977,-3.574 8.281,-4.824 16.765,-9.277 25.007,-14.121 1.797,-1.067 4.329,-3.438 2.676,-5.66 -3.691,-6.653 -5.984,-15.829 -14.394,-17.844 -4.2,-5.606 -6.856,-12.246 -10.782,-18.055 5.469,0.34 9.832,-3.097 14.356,-5.59 5.351,-3.168 11.465,-5.504 15.398,-10.566 -6.914,-12.246 -13.718,-24.574 -20.664,-36.816 -1.609,-3.239 -5.281,-6.793 -8.855,-3.723 -18.528,10.207 -36.934,20.64 -55.34,31.039 -2.656,1.016 -3.086,4.32 -1.867,6.586 2.492,5.25 5.605,10.16 8.586,15.121 1.011,0.207 3.015,0.609 4.031,0.816 7.773,13.344 15.5,26.739 22.59,40.457 -1.184,6.657 2.996,12.161 6.133,17.559 1.05,1.73 2.3,3.406 4.148,4.371 l 0,0" />
        <path
           inkscape:connector-curvature="0"
           id="path3394"
           style="fill:#26539d;fill-opacity:1;fill-rule:nonzero;stroke:none"
           d="m 721.152,918.379 c 1.387,5.84 3.196,11.652 6.243,16.844 -0.559,-6.008 -2.368,-12.102 -6.243,-16.844 l 0,0" />
        <path
           inkscape:connector-curvature="0"
           id="path3396"
           style="fill:#26539d;fill-opacity:1;fill-rule:nonzero;stroke:none"
           d="m 789.648,920.309 c 1.614,3.808 3.848,7.281 5.774,10.921 10.445,-5.523 20.594,-11.648 31.023,-17.222 -2.402,-4.473 -4.89,-8.891 -7.343,-13.328 -1.192,-0.082 -3.594,-0.235 -4.793,-0.325 -9.164,-14.339 -16.75,-29.613 -25.383,-44.246 2.988,-0.898 6.926,-3.812 9.695,-0.882 4.238,4.976 6.731,11.144 9.992,16.765 7.2,-3.676 14.18,-7.808 21.258,-11.765 -6.875,-12.18 -13.601,-24.461 -20.625,-36.567 -18.68,10.653 -37.461,21.121 -56.187,31.653 1.738,3.335 3.394,6.703 5.418,9.906 1.961,3.554 6.699,4.351 8.496,8.078 6.64,11.547 13.039,23.219 19.629,34.801 2.375,3.66 2.082,8.129 3.046,12.211 l 0,0" />
        <path
           inkscape:connector-curvature="0"
           id="path3398"
           style="fill:#26539d;fill-opacity:1;fill-rule:nonzero;stroke:none"
           d="m 187.754,925.777 c 4.687,1.965 10.195,-1.066 12.461,-5.3 2.488,-5.504 1.543,-11.739 1.949,-17.575 7.25,2.297 14.938,5.028 22.606,3.332 5.085,-1.269 7.554,-6.316 10.449,-10.16 3.898,-6.179 10.078,-11.672 9.824,-19.574 13.312,-6.016 23.691,-18.73 25.859,-33.277 1.442,-9.098 -0.882,-18.75 -6.621,-25.981 -12.648,-16.054 -32.566,-26.554 -53.109,-26.672 -6.332,1.996 -10.52,7.789 -14.324,12.887 -4.082,6.316 -9.535,12.77 -8.657,20.797 -12.293,5.723 -21.355,17.543 -24.082,30.75 -1.691,7.691 0.661,15.516 4.188,22.32 -4.727,1.781 -9.606,3.137 -14.195,5.27 -5.114,2.25 -7.84,9.281 -4.434,14.054 4.133,4.985 9.906,8.145 15.137,11.79 8.246,4.976 13.922,13.531 22.949,17.339 l 0,0" />
        <path
           inkscape:connector-curvature="0"
           id="path3400"
           style="fill:#ffffff;fill-opacity:1;fill-rule:nonzero;stroke:none"
           d="m 190.004,920.324 c 2.269,1.473 5.523,0.086 6.101,-2.523 0.692,-7.551 0.418,-15.172 1.012,-22.742 8.688,3.609 18.055,7.058 27.606,6.011 5.226,-6.215 9.789,-13.039 14.222,-19.832 2.848,-4.148 -3.23,-6.859 -5.57,-9.328 6.875,0.356 14.09,-1.168 19.035,-6.285 8.504,-8.281 16.305,-20 13.856,-32.434 -2.645,-11.785 -12.282,-20.199 -21.832,-26.722 -10.094,-7.004 -22.239,-11.309 -34.649,-10.379 -5.488,7.773 -11.601,15.156 -16.293,23.422 -0.351,4.402 4.555,6.062 7.149,8.672 -6.286,-0.137 -12.907,0.898 -17.649,5.402 -8.398,7.434 -15.426,18.406 -13.969,30.043 0.543,6.277 4.372,11.5 8.028,16.355 -6.676,2.504 -13.598,4.325 -20.172,7.063 -3.066,0.812 -5.199,5.371 -1.945,7.351 5.5,4.743 11.312,9.368 18.05,12.207 4.657,5.676 10.789,9.958 17.02,13.719 l 0,0" />
        <path
           inkscape:connector-curvature="0"
           id="path3402"
           style="fill:#26539d;fill-opacity:1;fill-rule:nonzero;stroke:none"
           d="m 178.508,906.133 c 4.312,3.32 8.672,6.586 13.074,9.789 0.336,-7.637 0.606,-15.277 0.859,-22.93 -4.097,-2.914 -8.144,-5.879 -12.125,-8.972 -7.195,2.386 -14.375,4.871 -21.57,7.246 3.602,2.976 7.231,5.976 11.192,8.464 2.625,2.016 5.843,-0.117 8.671,-0.437 -0.035,2.27 -0.086,4.555 -0.101,6.84 l 0,0" />
        <path
           inkscape:connector-curvature="0"
           id="path3404"
           style="fill:#26539d;fill-opacity:1;fill-rule:nonzero;stroke:none"
           d="m 182.602,878.563 c 10.804,10.164 24.777,17.847 39.918,18.019 3.98,-5.875 8.164,-11.617 12.226,-17.441 -6.957,-4.864 -13.887,-9.77 -20.762,-14.739 -2.976,3.203 -6.296,9.575 -11.546,6.438 -5.829,-3.102 -0.391,-12.918 5.367,-11.121 10.871,1.875 20.91,8.918 32.308,7.222 9.875,-2.449 15.957,-11.836 20.102,-20.472 4.137,-9.297 0.066,-19.93 -6.926,-26.633 -10.871,-10.438 -24.859,-19.156 -40.367,-19.262 -5.594,5.93 -9.453,13.25 -14.586,19.563 7.16,5.336 14.562,10.332 21.715,15.699 2.859,-3.625 5.215,-8.215 9.769,-9.941 2.676,0.527 6.606,2 5.895,5.507 -0.426,4.942 -5.371,10.512 -10.738,9.243 -8.082,-2.032 -15.446,-6.434 -23.782,-7.571 -6.398,-1.097 -13.054,1.559 -17.441,6.235 -5.297,5.757 -9.906,12.836 -10.348,20.882 -0.101,7.176 4.199,13.579 9.196,18.372 l 0,0" />
        <path
           inkscape:connector-curvature="0"
           id="path3406"
           style="fill:#ffffff;fill-opacity:1;fill-rule:nonzero;stroke:none"
           d="m 877.527,882.984 c 2.571,3.266 6.379,0.817 8.774,-1.289 13.523,-11.363 27.039,-22.773 40.625,-34.105 3.472,-2.945 7.222,-5.621 9.937,-9.313 -0.066,-3.847 -2.945,-6.64 -5.144,-9.449 -2.989,-3.285 -5.625,-7.402 -10.164,-8.625 -9.836,-3.285 -19.77,-6.262 -29.641,-9.379 4.121,-3.828 8.879,-6.976 12.5,-11.297 1.309,-2.164 -0.351,-4.422 -1.672,-6.058 -6.109,-7.489 -12.476,-14.739 -18.562,-22.239 -2.129,-2.457 -4.168,-5.3 -7.383,-6.367 -4.402,1.422 -7.586,4.961 -11.074,7.789 -14.434,12.211 -29.012,24.266 -43.41,36.528 -2.196,1.59 -3.961,4.898 -1.637,7.183 4.804,5.895 9.058,13.735 17.183,15.325 9.621,3 19.329,5.707 28.899,8.859 -4.168,3.754 -8.778,7.043 -12.547,11.172 -1.191,3.523 1.894,5.98 3.785,8.472 6.672,7.45 12.602,15.575 19.531,22.793 l 0,0" />
        <path
           inkscape:connector-curvature="0"
           id="path3408"
           style="fill:#26539d;fill-opacity:1;fill-rule:nonzero;stroke:none"
           d="m 858.879,853.633 c 7.437,8.691 14.527,17.668 22.168,26.168 17,-14.313 34.058,-28.555 51.023,-42.899 -4.336,-4.484 -7.363,-11.14 -13.84,-12.836 -18.738,-5.808 -37.417,-11.836 -56.121,-17.761 3.75,-2.645 7.696,-7.575 12.864,-5.758 3.906,2.605 6.687,6.519 9.824,9.957 5.016,-4.387 10.113,-8.707 15.281,-12.941 -8.027,-9.043 -15.547,-18.524 -23.445,-27.668 -17.395,14.597 -34.945,29.007 -52.09,43.859 4.645,4.809 7.879,12.09 15.027,13.512 18.614,5.472 37.11,11.281 55.657,16.972 -3.223,2.485 -6.543,4.809 -9.985,6.922 -4.781,-2.18 -8.277,-6.109 -11.582,-10.074 -4.89,4.234 -9.89,8.348 -14.781,12.547 l 0,0" />
        <path
           inkscape:connector-curvature="0"
           id="path3410"
           style="fill:#bac7d3;fill-opacity:1;fill-rule:nonzero;stroke:none"
           d="m 204.84,866.723 c 2.371,0.632 3.219,-0.219 2.508,-2.575 -2.371,-0.625 -3.223,0.243 -2.508,2.575 l 0,0" />
        <path
           inkscape:connector-curvature="0"
           id="path3412"
           style="fill:#26539d;fill-opacity:1;fill-rule:nonzero;stroke:none"
           d="m 348.531,822.578 c 98.985,43.645 213.449,49.805 317.055,19.32 82.637,-24.437 158.66,-73.734 211.023,-142.625 38.75,-50.582 63.352,-112.195 68.215,-175.851 5.977,-69.926 -11.379,-141.508 -48.691,-200.949 -12.528,-20.2 -27.195,-39.035 -43.301,-56.504 1.086,-12.246 -3.535,-24.797 -12.598,-33.164 -5.437,-5.239 -12.507,-8.164 -19.406,-10.957 13.059,-27.16 22.387,-56.387 25.11,-86.504 1.523,-16.379 -8.399,-32.278 -23.094,-39.2229 1.941,-13.6602 4.676,-28.7188 -2.656,-41.3555 C 812.695,40.1563 796.016,32.6875 780.066,33.3008 777.715,21.5703 770.496,10.7031 759.824,5.02734 749.043,-1.39063 735.488,-1.07813 723.855,2.69531 705.105,8.58594 686.621,15.9688 670.145,26.8477 628.75,53.5625 591.563,86.8242 547.266,108.945 c -7.098,3.575 -15.043,4.825 -22.832,5.84 -20.153,2.649 -41.95,1.66 -59.539,-9.582 C 423.047,81.4531 382.078,56.2227 341.031,31.1445 328.871,24.2695 314.203,20 300.305,23.293 c -29.586,8.0351 -48.813,41.7851 -41.442,71.4023 5.332,22.6287 18.387,42.2307 28.465,62.8827 1.051,2.61 2.883,5.352 1.797,8.274 -1.461,7.175 -3.355,14.253 -4.98,21.394 -20.692,0.359 -43.168,3.508 -59.122,17.942 -17.371,15.171 -21.386,40.437 -17.933,62.214 -3.774,6.211 -5.93,13.411 -10.785,18.953 -13.75,16.641 -25.352,34.915 -36.106,53.618 -5.519,7.175 -8.011,15.933 -11.5,24.16 -25.5,57.41 -33.988,122.305 -23.828,184.305 9.215,59.792 36.059,116.324 74.637,162.746 39.98,48.211 91.785,86.16 149.023,111.394 l 0,0" />
        <path
           inkscape:connector-curvature="0"
           id="path3414"
           style="fill:#26539d;fill-opacity:1;fill-rule:nonzero;stroke:none"
           d="m 226.891,835.754 c 2.32,1.543 5.652,-3.574 2.91,-4.762 -2.012,0.274 -3.727,2.848 -2.91,4.762 l 0,0" />
        <path
           inkscape:connector-curvature="0"
           id="path3416"
           style="fill:#ffffff;fill-opacity:1;fill-rule:nonzero;stroke:none"
           d="m 360.535,800.699 c 88.336,38.356 189.477,45.262 282.629,21.571 86.27,-21.895 166.316,-72.227 218.711,-144.754 41.426,-56.836 63.34,-128.012 58.801,-198.368 -3.664,-71.445 -34.613,-140.195 -82.68,-192.781 -3.316,5.535 -6.773,10.996 -10.269,16.414 42.039,47.207 69.468,107.922 74.238,171.196 5.703,66.332 -13.613,133.968 -51.887,188.281 -50,71.441 -127.91,121.082 -212.012,142.199 -71.836,18.309 -148.57,17.324 -219.929,-2.762 C 355.336,783.883 296.523,750.57 250.973,703.574 213.34,665.406 185.129,617.496 172.273,565.289 161.23,522.168 161.469,476.602 170.73,433.191 c -3.078,-11.14 -7.484,-22.007 -8.718,-33.613 -13.008,34.414 -17.395,71.738 -16.242,108.367 1.781,59.848 22.726,118.524 57.343,167.196 39.407,55.496 95.188,98.476 157.422,125.558 l 0,0" />
        <path
           inkscape:connector-curvature="0"
           id="path3418"
           style="fill:#ffffff;fill-opacity:1;fill-rule:nonzero;stroke:none"
           d="m 956.777,813.887 c 3.067,1.527 5.696,-1.489 7.434,-3.606 10.906,-13.781 21.582,-27.738 32.519,-41.488 2.54,-3.387 5.58,-6.523 7.36,-10.414 1.52,-3.391 -2.4,-5.535 -4.395,-7.52 -7.691,-5.808 -14.988,-12.175 -23.132,-17.359 -4.676,3.605 -8.27,8.332 -11.758,13.039 -4.453,-3.519 -8.926,-7.012 -13.379,-10.5 3.086,-4.266 7.121,-8.027 9.043,-13.019 0.754,-2.54 -2.199,-3.981 -3.574,-5.575 -5.977,-4.828 -12.137,-9.398 -18.094,-14.242 -2.485,-1.762 -4.817,-4.183 -7.981,-4.508 -3.175,1.172 -5.168,4.035 -7.199,6.539 -8.621,11.266 -17.461,22.34 -26.133,33.532 -4.519,5.843 -9.453,11.398 -12.968,17.933 6,5.434 11.933,13.699 20.902,13.227 12.371,9.012 24.141,18.812 36.316,28.062 0.157,1.641 0.325,3.266 0.496,4.91 4.786,3.707 9.211,8.032 14.543,10.989 l 0,0" />
        <path
           inkscape:connector-curvature="0"
           id="path3420"
           style="fill:#26539d;fill-opacity:1;fill-rule:nonzero;stroke:none"
           d="m 947.402,800.73 c 3.582,3.153 7.371,6.063 11.309,8.805 13.652,-17.543 27.449,-34.949 40.984,-52.582 -7.715,-5.906 -15.398,-11.887 -22.965,-17.969 -5,6.625 -10.128,13.125 -15.277,19.614 1.965,2.132 4.367,4.031 5.559,6.773 0.285,3.234 -2.356,5.789 -3.594,8.57 -4.199,-3.253 -8.379,-6.519 -12.434,-9.941 3.618,-4.59 7.246,-9.16 10.793,-13.836 -4.422,-3.371 -8.789,-6.824 -13.3,-10.074 -3.606,4.555 -7.137,9.156 -10.684,13.765 -4.805,-3.742 -9.617,-7.488 -14.395,-11.261 1.915,-1.985 3.75,-4.117 6.043,-5.723 4.309,-0.223 7.407,3.504 10.825,5.57 5.203,-6.586 10.281,-13.277 15.601,-19.781 -8.34,-6.281 -16.414,-12.887 -24.762,-19.137 -13.632,17.614 -27.5,35.04 -41.066,52.715 3.926,2.934 7.754,5.996 11.785,8.789 2.61,-0.402 5.383,-0.23 7.473,1.614 10.937,8.265 21.621,16.898 32.512,25.269 3.015,2.078 5.183,5.098 5.593,8.82 l 0,0" />
        <path
           inkscape:connector-curvature="0"
           id="path3422"
           style="fill:#26539d;fill-opacity:1;fill-rule:nonzero;stroke:none"
           d="m 80.3164,793.043 c 7.0938,5.941 14.8008,12.395 24.3356,13.461 7.317,0.066 12.211,-6.149 17.75,-9.988 5.723,-4.219 13.344,-8.536 12.563,-16.852 1.324,0.438 3.98,1.305 5.305,1.727 9.195,-4.012 16.441,-11.161 24.625,-16.782 2.925,-2.406 6.687,-4.265 8.363,-7.855 2.215,-12.469 -3.981,-24.356 -10.028,-34.82 -8.265,-13.532 -21.492,-26.829 -38.496,-26.469 -16.914,1.64 -29.2926,14.547 -42.0973,24.348 -11.1094,8.285 -23.8281,18.531 -24.0469,33.703 0.7969,15.648 10.4493,29.332 21.7266,39.527 l 0,0" />
        <path
           inkscape:connector-curvature="0"
           id="path3424"
           style="fill:#ffffff;fill-opacity:1;fill-rule:nonzero;stroke:none"
           d="m 79.7266,784.945 c 6.3828,6.895 14.3086,12.606 23.2814,15.547 5.082,1.578 8.789,-2.976 12.555,-5.504 4.398,-3.574 9.359,-6.504 13.343,-10.586 2.032,-4.011 -2.304,-7.363 -4.218,-10.461 -5.114,-5.961 -8.688,-13.343 -14.954,-18.238 -4.64,0.879 -8.011,4.672 -12.2106,6.637 11.1446,-9.242 22.8476,-17.938 34.7656,-26.149 -3.738,5.336 -12.074,7.047 -13.394,13.836 2.98,5.575 7.316,10.231 10.925,15.379 2.778,3.473 4.977,7.703 8.957,9.977 3.453,0.066 6.082,-2.457 8.739,-4.305 6.793,-5.25 13.871,-10.125 20.406,-15.73 0.93,-16.434 -8.231,-31.317 -18.797,-43.118 -8.211,-9.179 -22.187,-15.003 -33.871,-8.89 -12.379,6.855 -22.9767,16.441 -34.5118,24.57 -7.6367,5.235 -15.293,12.293 -16.4102,22.031 -1.5781,13.497 6.7032,25.543 15.3946,35.004 l 0,0" />
        <path
           inkscape:connector-curvature="0"
           id="path3426"
           style="fill:#26539d;fill-opacity:1;fill-rule:nonzero;stroke:none"
           d="m 80.0156,778.004 c 6.5039,8.367 15.4102,14.359 24.9964,18.66 6.597,-4.754 13.054,-9.734 19.629,-14.547 -5.289,-7.16 -10.61,-14.289 -15.973,-21.371 -3.488,2.629 -6.844,5.559 -10.9375,7.199 -3.2735,-0.578 -4.6446,-3.742 -6.3203,-6.183 6.7734,-7.821 16.0238,-12.852 23.9958,-19.301 5.418,-3.676 10.09,-8.762 16.364,-10.977 4.23,-1.507 7.957,4.961 4.683,8.012 -3.789,3.809 -8.394,6.688 -12.547,10.074 5.453,6.977 10.668,14.141 16.02,21.2 7.64,-5.836 15.312,-11.665 23.086,-17.336 0.488,-14.52 -8.078,-27.321 -17.289,-37.766 -6.758,-7.605 -18.157,-13.09 -28.012,-8.164 -10.383,5.488 -19.1016,13.531 -28.6524,20.254 -7.9805,5.941 -17.9023,11.719 -20.0352,22.305 -1.5078,10.5 4.7891,20.07 10.9922,27.941 l 0,0" />
        <path
           inkscape:connector-curvature="0"
           id="path3428"
           style="fill:#ffffff;fill-opacity:1;fill-rule:nonzero;stroke:none"
           d="m 499.031,783.828 c 1.864,6.504 9.856,7.047 15.446,6.594 4.925,0 10.718,-2.293 11.535,-7.781 0.761,-7.536 0.726,-15.239 0.047,-22.793 -0.676,-5.586 -6.704,-8.11 -11.684,-8.364 -5.488,-0.816 -10.805,1.133 -15.648,3.504 -0.016,2.946 -0.036,5.895 -0.036,8.84 3.493,0.035 6.977,0.086 10.485,0.035 1.371,-1.593 2.894,-3.062 4.508,-4.437 0.218,1.426 0.691,4.25 0.925,5.672 -5.468,-0.336 -13.121,-0.66 -15.593,5.453 -1.067,4.289 -0.985,8.976 0.015,13.277 l 0,0" />
        <path
           inkscape:connector-curvature="0"
           id="path3430"
           style="fill:#ffffff;fill-opacity:1;fill-rule:nonzero;stroke:none"
           d="m 531.934,787.422 c 6.757,2.691 14.55,4.488 21.582,1.723 6.922,-2.575 7.136,-12.243 3.82,-17.707 -4.621,-4.27 -10.82,-6.274 -15.813,-10.083 3.094,-1.878 5.125,0.426 6.954,2.711 3.437,0.082 6.894,0.118 10.371,0.137 -0.02,-4.031 -0.02,-8.058 -0.02,-12.094 -9.324,-0.035 -18.66,-0.07 -28.008,0.036 0.407,5.519 -1.355,11.886 2.25,16.648 3.864,3.727 9.352,5.078 13.485,8.449 0.535,1.391 1.148,3.321 -0.117,4.539 -3.965,1.61 -2.786,-3.402 -3.579,-5.605 -3.726,-0.102 -7.449,-0.121 -11.179,-0.153 0.066,3.813 0.121,7.606 0.254,11.399 l 0,0" />
        <path
           inkscape:connector-curvature="0"
           id="path3432"
           style="fill:#ffffff;fill-opacity:1;fill-rule:nonzero;stroke:none"
           d="m 565.215,785.453 c 4.414,6.813 14.121,5.488 20.898,3.817 7.649,-3.071 5.305,-12.45 5.703,-18.883 -0.437,-5.453 1.438,-12.535 -3.711,-16.293 -7.136,-4.477 -16.425,-2.981 -23.64,0.609 0,3.047 0.015,6.078 0.015,9.11 3.528,0.05 7.051,0.117 10.571,0.171 0.664,-1.171 1.98,-3.492 2.644,-4.644 1.035,1.848 2.051,3.711 3.075,5.57 -5.516,0.117 -12.965,-0.793 -15.997,5.086 -1.257,4.977 -1.519,10.633 0.442,15.457 l 0,0" />
        <path
           inkscape:connector-curvature="0"
           id="path3434"
           style="fill:#ffffff;fill-opacity:1;fill-rule:nonzero;stroke:none"
           d="m 478.066,789.773 c 4.637,0.086 9.297,0.086 13.954,0.016 -0.168,-12.582 -0.54,-25.215 1.675,-37.66 -5.215,-0.09 -10.429,-0.066 -15.648,0.098 2.488,12.363 2.558,25.183 0.019,37.546 l 0,0" />
        <path
           inkscape:connector-curvature="0"
           id="path3436"
           style="fill:#26539d;fill-opacity:1;fill-rule:nonzero;stroke:none"
           d="m 510.395,781.762 c 0.949,0.019 2.828,0.035 3.761,0.035 0.032,-3.012 0.032,-6.043 -0.019,-9.078 -0.949,0.136 -2.844,0.39 -3.778,0.508 0,2.847 0,5.695 0.036,8.535 l 0,0" />
        <path
           inkscape:connector-curvature="0"
           id="path3438"
           style="fill:#26539d;fill-opacity:1;fill-rule:nonzero;stroke:none"
           d="m 576.133,781.344 c 4.637,3.601 5.715,-8.692 1.062,-8.91 -2.215,2.406 -1.715,5.98 -1.062,8.91 l 0,0" />
        <path
           inkscape:connector-curvature="0"
           id="path3440"
           style="fill:#bac7d3;fill-opacity:1;fill-rule:nonzero;stroke:none"
           d="m 960.281,766.711 c 4.192,1.281 1.66,-4.848 -1.199,-4.223 -2.605,0.532 -0.469,3.899 1.199,4.223 l 0,0" />
        <path
           inkscape:connector-curvature="0"
           id="path3442"
           style="fill:#bac7d3;fill-opacity:1;fill-rule:nonzero;stroke:none"
           d="m 935.051,746.605 c 5.027,0.579 -0.93,-6.378 -3.574,-4.417 -0.723,2.121 1.929,3.726 3.574,4.417 l 0,0" />
        <path
           inkscape:connector-curvature="0"
           id="path3444"
           style="fill:#26539d;fill-opacity:1;fill-rule:nonzero;stroke:none"
           d="m 997.813,718.359 c 4.267,7.692 13.517,10.059 21.147,13.125 10.52,2.442 14.42,-10.007 17.38,-17.578 4.26,5.789 8.44,16.09 17.42,13.289 8.67,-5.281 10.15,-16.507 14.04,-25.109 4.75,-7.484 9.69,-15.699 9.52,-24.879 0.17,-2.844 -1.33,-5.961 -4.24,-6.738 -5.83,-1.762 -11.9,0.152 -17.66,1.133 2.76,-5.704 6.43,-11.481 6.39,-18.051 -0.17,-3.406 -3.07,-5.571 -5.86,-6.946 -6.26,-3.164 -12.62,-7.195 -19.93,-6.91 -5.15,0.461 -9.57,-2.367 -14.08,-4.347 -11.95,-5.559 -24.213,-10.485 -35.78,-16.852 -5.722,-3.101 -12.137,-6.469 -18.863,-4.707 -6.113,3.219 -8.75,10.156 -11.164,16.238 -2.317,6.754 -6.504,12.993 -6.563,20.36 -3.562,3.437 -6.035,7.718 -7.859,12.273 -3.715,8.524 -10.039,16.735 -9.094,26.504 2.871,6.875 11.004,8.723 17.196,11.445 5.023,2.746 11.132,-0.437 15.941,2.797 10.508,5.383 21.582,9.532 32.059,14.953 l 0,0" />
        <path
           inkscape:connector-curvature="0"
           id="path3446"
           style="fill:#ffffff;fill-opacity:1;fill-rule:nonzero;stroke:none"
           d="m 1002.13,714.465 c 3.32,8.277 13.58,8.926 20.51,12.957 6.8,-6.641 8.23,-16.617 13,-24.574 4.71,4.707 6.78,11.465 10.78,16.765 1.15,2.657 4.28,2.067 6.64,2.657 3.43,-7.196 7.97,-14.172 8.92,-22.286 5.22,-5.418 7.53,-12.836 10.31,-19.664 1.3,-3.047 -1.84,-4.754 -4.26,-5.433 -7.25,0.761 -14.3,2.64 -21.48,3.711 2.76,-8.301 8.96,-15.7 9.37,-24.621 -4.66,-5.27 -12.2,-6.539 -18.31,-9.539 -0.86,0.507 -2.56,1.542 -3.42,2.05 -17.14,-7.418 -34.05,-15.304 -51.116,-22.914 -4.226,-1.793 -8.238,-4.351 -12.832,-5.097 -3.797,0.207 -4.449,4.675 -6.043,7.336 -2.844,7.566 -7.539,14.507 -9.265,22.453 1.812,4.234 5.586,7.183 8.464,10.636 -3.808,-1.339 -7.48,-3.879 -11.699,-3.32 -4.199,5.402 -6.023,12.191 -9.109,18.242 -1.762,4.453 -4.848,8.664 -4.758,13.625 3.145,4.563 9.141,5.797 13.914,8.047 4.192,2.137 9.113,-0.285 13.266,2.031 12.383,5.625 24.859,11.043 37.118,16.938 l 0,0" />
        <path
           inkscape:connector-curvature="0"
           id="path3448"
           style="fill:#26539d;fill-opacity:1;fill-rule:nonzero;stroke:none"
           d="m 37.0977,722.766 c 6.4023,0.504 12.2304,-2.883 17.8671,-5.457 5.2696,-2.368 8.2813,-7.957 13.8204,-9.887 9.0976,-3.883 18.2539,-7.641 27.3125,-11.602 4.2543,-2.121 9.1683,0.118 13.5043,-1.66 5.535,-2.051 11.105,-4.289 16.136,-7.418 4.961,-3.457 2.996,-10.277 1.235,-14.984 -8.942,-20.953 -17.68,-41.985 -26.668,-62.914 -1.7503,-5.016 -7.2542,-8.977 -12.6058,-6.91 -7.9726,2.976 -16.664,5.64 -22.0429,12.683 -9.5547,5.047 -19.9375,8.414 -29.7227,13.004 -5.2344,3 -11.5195,0.953 -16.9336,3.32 -5.4727,2.204 -11.14844,4.2 -16.125,7.454 -4.01172,2.558 -3.132813,7.957 -1.52344,11.683 9.14454,21.442 18.17184,42.914 27.26564,64.371 1.7109,3.586 4.0976,7.821 8.4805,8.317 l 0,0" />
        <path
           inkscape:connector-curvature="0"
           id="path3450"
           style="fill:#26539d;fill-opacity:1;fill-rule:nonzero;stroke:none"
           d="m 1008.93,715.938 c 4.2,2.132 8.51,4.046 12.93,5.707 4.07,-9.211 8.18,-18.426 12.43,-27.567 -10.57,-10.621 -21.21,-21.172 -31.75,-31.82 8.45,3.992 18.73,5.89 24.43,13.933 3.76,2.778 8.37,4.102 12.57,6.067 4.03,-8.844 8.13,-17.649 11.89,-26.61 -4.48,-2.015 -8.93,-4.027 -13.46,-5.824 -2.75,0.946 -5.68,1.68 -8.27,-0.015 -19.78,-8.637 -39.29,-17.899 -59.087,-26.504 -3.504,8.226 -7.586,16.187 -10.769,24.539 9.707,10.398 19.289,20.883 28.742,31.496 -7.363,-3.891 -17.617,-4.977 -21.633,-13.172 -4.25,-2.121 -8.562,-4.117 -12.969,-5.859 -3.718,8.515 -7.961,16.832 -11.347,25.504 4.172,2.57 8.781,4.332 13.308,6.199 2.563,-0.699 5.371,-1.598 7.91,-0.172 12.969,5.605 25.813,11.582 38.715,17.394 3.15,1.063 5,3.825 6.36,6.704 l 0,0" />
        <path
           inkscape:connector-curvature="0"
           id="path3452"
           style="fill:#ffffff;fill-opacity:1;fill-rule:nonzero;stroke:none"
           d="m 33.5586,712.688 c 1.0703,2.062 2.1562,5.656 5.1523,5.117 6.1289,-1.442 11.7657,-4.442 17.4922,-7 1.3008,-2.707 2.8789,-5.434 5.9961,-6.297 12.7852,-5.387 25.4844,-10.992 38.4058,-16.09 7.165,2.883 13.836,-2.387 20.274,-4.91 3.519,-0.914 3.707,-5.031 2.047,-7.672 C 114.02,654.84 105.094,633.852 96.3047,612.809 95,610.23 93.3594,605.59 89.6133,607.012 82.3359,609.57 74.375,612.027 69.75,618.633 c -11.9727,5.84 -24.5078,10.582 -36.7461,15.883 -4.2344,2.285 -9.2148,-0.137 -13.4805,1.894 -4.1992,1.848 -8.7421,3.203 -12.37887,6.031 -2.92969,2.184 -0.47656,5.926 0.32031,8.571 8.82426,20.508 17.49216,41.082 26.09376,61.676 l 0,0" />
        <path
           inkscape:connector-curvature="0"
           id="path3454"
           style="fill:#26539d;fill-opacity:1;fill-rule:nonzero;stroke:none"
           d="m 1038.73,697.344 c 3.81,6.551 7.55,13.16 11.89,19.39 2.18,-4.757 4.35,-9.504 6.6,-14.211 -1.12,-2.234 -2.22,-4.453 -3.3,-6.703 2.3,-0.425 4.62,-0.847 6.94,-1.254 2.21,-4.996 4.44,-9.957 6.78,-14.882 -7.45,1.269 -14.9,2.605 -22.35,3.855 -2.28,4.559 -4.41,9.199 -6.56,13.805 l 0,0" />
        <path
           inkscape:connector-curvature="0"
           id="path3456"
           style="fill:#26539d;fill-opacity:1;fill-rule:nonzero;stroke:none"
           d="m 38.9102,712.926 c 4.4062,-1.696 8.7539,-3.508 13.0937,-5.387 1.3359,-2.441 2.625,-5.234 5.5,-6.168 12.9727,-5.668 26.0313,-11.141 39.0742,-16.59 3.0117,-1.66 6.3479,-0.48 9.5309,-0.426 4.489,-1.289 8.688,-3.421 13.008,-5.179 -4.508,-10.539 -8.722,-21.172 -13.515,-31.586 -4.301,1.93 -8.6059,3.848 -12.8872,5.789 -4.4882,6.848 -13.1445,8.129 -20.0546,11.383 -1.336,-3.321 -2.7227,-6.61 -4.1446,-9.875 6.9102,-2.321 13.7696,-8.617 21.336,-6.008 4.7226,-1.649 9.332,-3.625 13.9574,-5.574 -4.3012,-10.653 -8.6254,-21.301 -13.4652,-31.739 -4.4063,1.914 -8.8243,3.762 -13.1602,5.813 -2.5195,6.312 -9.7031,7.5 -15.207,10.094 -10.6875,4.199 -20.9453,9.535 -31.8555,13.054 -7.0586,-1.035 -13.3945,2.016 -19.5742,4.895 4.082,10.617 8.8711,20.949 13.0234,31.551 4.5547,-1.715 9.0899,-3.493 13.4805,-5.571 3.0976,-6.457 10.8203,-7.539 16.5976,-10.504 1.3985,3.422 2.8946,6.813 4.3477,10.196 -4.7734,2.086 -9.6016,4.066 -14.4102,6.078 -1.4921,-0.473 -2.9804,-0.926 -4.4882,-1.387 -4.4688,2.031 -9.0079,3.961 -13.5118,5.977 4.6719,10.301 8.8594,20.781 13.3243,31.164 l 0,0" />
        <path
           inkscape:connector-curvature="0"
           id="path3458"
           style="fill:#ffffff;fill-opacity:1;fill-rule:nonzero;stroke:none"
           d="m 426.637,663.457 c 77.781,27.637 162.086,30.957 243.508,22.133 29.027,-3.656 58.085,-9.57 84.875,-21.672 28.875,-12.926 54.074,-33.348 74.101,-57.703 3.984,-4.418 4.121,-10.856 2.793,-16.32 -2.859,-8.352 -12.031,-11.028 -18.976,-14.957 14.933,-11.497 30.48,-23.825 38.605,-41.333 3.684,-8.199 -0.188,-18.886 -8.582,-22.359 -5.844,-2.113 -12.141,-2.625 -18.203,-3.808 10.152,-11.344 19.422,-23.559 26.453,-37.125 3.691,-7.11 8.516,-15.34 5.144,-23.516 -2.167,-6.426 -8.574,-9.777 -14.812,-11.094 4.668,-5.715 9.238,-11.57 12.859,-18.015 4.219,-7.778 1.223,-18.77 -6.836,-22.747 -6.336,-2.949 -13.425,-3.523 -20.171,-5.078 4.187,-13.418 9.5,-26.98 8.945,-41.277 -0.488,-6.445 -5.078,-12.094 -11.098,-14.328 -12.156,-4.805 -25.074,-7.617 -37.996,-9.461 15.293,-16.516 30.977,-33.402 40.281,-54.184 2.649,-5.855 2.395,-13.242 -1.57,-18.457 -3.152,-4.16 -8.215,-6.093 -12.922,-7.918 -8.855,-3.203 -17.984,-5.625 -27.242,-7.258 18.113,-29.277 31.285,-61.992 35.828,-96.25 0.879,-6.589 1.609,-14.324 -3.469,-19.507 -5.554,-6.535 -14.761,-5.793 -22.488,-5.91 2.91,-13.465 5.215,-27.1099 5.813,-40.8794 0.586,-8.8594 -7.356,-16.9219 -16.094,-17.0234 -8.977,0.0781 -17.738,2.4257 -26.621,3.3711 0.066,-9.6211 0.203,-19.7461 -3.965,-28.6407 -3.676,-7.0898 -12.695,-10.2461 -20.188,-7.832 -19.707,5.3789 -38.879,13.4062 -55.754,25.0547 -27.82,18.1367 -53.425,39.4258 -81.335,57.4337 -15.477,9.719 -30.801,20.078 -47.891,26.738 -28.16,7.942 -59.473,9.445 -86.703,-2.629 -13.613,-7.039 -26.703,-15.054 -40.016,-22.652 -29.875,-18.1759 -60.172,-35.6368 -89.734,-54.3009 -8.625,-5.5351 -19.293,-10.125 -29.621,-6.9883 -10.91,4.4727 -18.598,14.8321 -21.66,25.9727 -3.25,14.125 3.082,27.8435 9.043,40.2775 7.046,14.883 16.089,28.805 21.96,44.226 1.071,2.414 1.29,5.071 0.614,7.61 -3.422,15.64 -7.25,31.187 -10.739,46.824 -17.105,-1.57 -35.003,-1.98 -51.293,4.297 -9.296,3.625 -17.195,11.25 -19.734,21.074 -3.504,11.914 -2.976,24.719 0.664,36.543 -6.469,6.066 -10.097,14.414 -12.347,22.82 -1.336,6.829 -7.567,11.282 -9.125,18.039 -2.25,9.18 -0.239,18.665 -0.071,27.95 -12.637,0.507 -27.312,3.554 -34.273,15.324 -5.403,8.562 -2.539,18.933 -0.813,28.141 3.282,15.597 5.551,31.808 13.207,46.027 3.082,5.879 8.129,10.469 13.957,13.555 3.078,9.851 1.879,20.253 2.875,30.378 1.442,15.872 3.782,32.106 11.297,46.383 2.438,4.742 6.266,8.524 10.211,12.008 1.731,8.215 5.692,15.883 11.82,21.676 16.207,15.105 34.821,27.348 51.872,41.371 11.464,22.629 31.175,43.168 57.105,47.656 5.082,11.903 12.973,23.762 25.336,28.926 10.684,4.199 23.027,6.211 33.902,1.539 7.18,-2.711 13.242,-7.5 19.274,-12.125 l 0,0" />
        <path
           inkscape:connector-curvature="0"
           id="path3460"
           style="fill:#26539d;fill-opacity:1;fill-rule:nonzero;stroke:none"
           d="m 1035.53,688.945 c 6.09,0.879 -0.72,-6.777 -3.88,-4.355 -0.44,2.133 2.31,3.473 3.88,4.355 l 0,0" />
        <path
           inkscape:connector-curvature="0"
           id="path3462"
           style="fill:#242021;fill-opacity:1;fill-rule:nonzero;stroke:none"
           d="m 498.965,665.098 c 38.594,6.843 77.898,9.336 117.051,7.605 44.304,-2.027 89.824,-5.637 130.871,-23.812 26.98,-11.821 50.508,-30.77 69.234,-53.379 -12.449,-6.449 -24.793,-13.106 -37.176,-19.692 14.629,-7.875 28.621,-17.09 40.965,-28.23 6.528,-6.082 12.668,-12.887 16.242,-21.152 -16.66,-2.676 -33.214,-6.118 -49.824,-9.094 24.152,-15.41 43.152,-38.391 54.602,-64.61 -13.594,-0.898 -27.285,0.204 -40.547,3.34 14.246,-14.304 28.133,-29.16 39.258,-46.094 -12.004,-3.269 -24.219,-5.644 -36.34,-8.386 7.773,-16.25 15.183,-33.242 16.582,-51.418 -24.445,-9.071 -51.094,-12.278 -76.992,-9.551 27.312,-21.895 54.714,-46.121 69.98,-78.281 -18.215,-8.114 -38.34,-10.879 -58.144,-10.828 27.265,-33.989 46.32,-75.371 50.886,-118.926 -10.886,-0.852 -21.961,-1.172 -32.593,1.656 6.5,-19.488 10.144,-39.871 11.714,-60.3397 -16.726,2.8789 -34.644,3.8593 -49.668,12.3945 6.301,-14.4141 8.84,-30.918 5.032,-46.3516 -16.653,5.1172 -33.243,11.1719 -47.871,20.7813 -21.844,14.125 -42.469,29.9531 -63.504,45.2145 -20,13.457 -39.883,27.231 -61.399,38.227 -16.25,8.562 -34.828,11.031 -52.914,12.129 -20.355,1.265 -41.117,-2.09 -59.68,-10.625 C 428.668,131.555 403.281,116.211 377.965,100.813 357.27,88.2813 336,76.6484 316.051,62.9688 c -3.488,-2.461 -7.754,0.0273 -10.582,2.3125 -5.93,5.371 -9.489,13.9765 -6.879,21.8671 7.012,23.9456 23.375,43.7816 31.078,67.4296 1.723,5.235 1.133,10.793 -0.156,16.027 -4.469,20.071 -9.242,40.086 -14.051,60.079 -14.293,-2.356 -28.879,-3.536 -43.336,-2.332 -7.992,0.964 -17.176,2.644 -22.375,9.402 -5.555,11.465 -4.047,25.168 1.051,36.504 3.148,7.168 -4.672,11.316 -9.352,14.836 -4.078,6.109 -6.586,13.445 -5.988,20.867 -2.664,1.965 -5.793,3.652 -7.336,6.719 -1.859,3.664 -1.305,7.91 -1.117,11.836 0.797,10.605 0.847,21.242 0.797,31.855 -10.875,-0.762 -22.563,-2.246 -32.77,2.488 -4.371,1.868 -5.676,6.938 -4.336,11.204 3.422,16.425 5.215,33.503 12.414,48.867 2.61,6.316 10.317,7.746 13.617,13.488 4.317,7.242 5.18,15.926 5.301,24.195 0,16.7 1.996,33.617 7.637,49.399 2.574,7.941 9.887,12.547 16.117,17.426 -2.941,6.23 0.715,12.535 5.254,16.781 16.914,15.429 36.152,28.144 53.856,42.558 6.875,15.7 18.085,30.094 33.714,37.786 7.028,3.703 15.493,3.429 22.504,6.839 3.61,9.399 7.231,19.911 16.075,25.688 6.585,3.676 14.593,5.281 22.011,3.64 9.418,-3.113 16.699,-10.21 23.875,-16.765 24.406,9.89 50.067,16.293 75.891,21.133 l 0,0" />
        <path
           inkscape:connector-curvature="0"
           id="path3464"
           style="fill:#26539d;fill-opacity:1;fill-rule:nonzero;stroke:none"
           d="m 41.4688,672.145 c 4.082,-0.579 7.9609,-2.274 11.0273,-5.043 -3.9648,0.925 -7.7266,2.64 -11.0273,5.043 l 0,0" />
        <path
           inkscape:connector-curvature="0"
           id="path3466"
           style="fill:#ffffff;fill-opacity:1;fill-rule:nonzero;stroke:none"
           d="m 428.09,639.867 c 73.094,26.219 152.445,32.399 229.351,24.281 6.192,-0.011 10.75,-4.418 15.594,-7.632 8.117,-5.711 16.582,-10.957 24.426,-17.051 -49.5,5.469 -99.629,7.836 -149.27,2.449 -32.593,-3.621 -65.535,-9.902 -95.105,-24.617 -5.043,-1.086 -10.211,1.504 -15.273,2.129 -3.239,6.824 -6.774,13.5 -9.723,20.441 l 0,0" />
        <path
           inkscape:connector-curvature="0"
           id="path3468"
           style="fill:#26539d;fill-opacity:1;fill-rule:nonzero;stroke:none"
           d="m 73.6953,658.512 c 4.8438,-0.895 9.5195,-2.864 13.2422,-6.164 -4.7187,1.32 -9.2773,3.289 -13.2422,6.164 l 0,0" />
        <path
           inkscape:connector-curvature="0"
           id="path3470"
           style="fill:#ffffff;fill-opacity:1;fill-rule:nonzero;stroke:none"
           d="m 373.965,646.758 c 8.808,9.687 26.117,11.773 35.957,2.406 8.348,-7.957 11.789,-19.492 14.121,-30.449 10.652,-7.555 21.508,-15.43 29.297,-26.098 12.699,-20.777 33.144,-35.054 48.183,-53.887 3.118,-5.097 -2.832,-9.023 -5.218,-12.886 -4.942,-5.824 -8.961,-14.766 -17.512,-15.446 -6.449,3.071 -11.059,8.79 -16.066,13.704 -18.039,19.273 -35.465,39.152 -51.348,60.234 -11.941,15.121 -28.418,26.016 -39.832,41.594 -5.164,6.164 -0.817,14.769 2.418,20.828 l 0,0" />
        <path
           inkscape:connector-curvature="0"
           id="path3472"
           style="fill:#ffffff;fill-opacity:1;fill-rule:nonzero;stroke:none"
           d="m 461.215,613.598 c 34.14,15.511 71.926,20.562 108.98,23.457 33.946,1.898 68.075,1.285 101.946,-1.86 3.457,-0.324 6.211,-2.73 9.129,-4.39 17.082,-11.11 34.343,-22.215 49.636,-35.746 -70.761,16.187 -144.527,17.406 -216.277,7.656 -15.465,-2.512 -31.231,-4.102 -46.098,-9.281 -2.402,-0.426 -4.859,-0.375 -7.281,-0.508 0,6.887 0.035,13.785 -0.035,20.672 l 0,0" />
        <path
           inkscape:connector-curvature="0"
           id="path3474"
           style="fill:#ffffff;fill-opacity:1;fill-rule:nonzero;stroke:none"
           d="m 334.203,610.383 c 11.11,4.793 23.539,4.203 35.328,3.285 8.063,-8.398 15.938,-16.969 23.965,-25.387 -12.211,-0.199 -25.082,-0.66 -36.238,-6.195 -9.305,-5.199 -14.668,-15.039 -18.449,-24.641 -11.375,2.575 -22.539,9.621 -26.414,21.133 -2.051,3.828 0.015,7.91 1.543,11.485 3.91,8.976 11.121,16.625 20.265,20.32 l 0,0" />
        <path
           inkscape:connector-curvature="0"
           id="path3476"
           style="fill:#ffffff;fill-opacity:1;fill-rule:nonzero;stroke:none"
           d="m 479.219,589.926 c 43.219,9.023 87.48,12.816 131.601,12.308 43.828,-0.285 87.586,-5.636 130.137,-16.086 4.238,-4.503 8.035,-9.429 10.828,-14.964 -5.144,-3.325 -10.347,-6.559 -15.515,-9.829 -35.618,10.282 -72.707,14.059 -109.582,16.106 -34.598,1.406 -69.266,0.562 -103.762,-2.438 -13.512,-0.812 -26.992,-3.64 -40.578,-2.32 -0.981,5.758 -2.114,11.481 -3.129,17.223 l 0,0" />
        <path
           inkscape:connector-curvature="0"
           id="path3478"
           style="fill:#ffffff;fill-opacity:1;fill-rule:nonzero;stroke:none"
           d="m 364.617,575.074 c 11.637,4.403 25.34,9.754 37.242,3.239 7.454,-4.708 13.938,-11.211 18.477,-18.786 2.219,-3.453 3.254,-9.601 -1.59,-11.343 -13.195,-4.59 -31.773,-6.539 -36.516,-22.153 -10.007,-1.929 -19.929,2.442 -28.007,7.992 -4.621,3.504 -9.618,8.235 -9.555,14.485 1.66,11.328 8.656,22.769 19.949,26.566 l 0,0" />
        <path
           inkscape:connector-curvature="0"
           id="path3480"
           style="fill:#ffffff;fill-opacity:1;fill-rule:nonzero;stroke:none"
           d="m 499.641,566.086 c 43.101,4.754 86.55,6.566 129.89,4.519 35.43,-1.984 70.977,-5.949 105.196,-15.601 5.711,-1.524 10.195,-5.57 14.875,-8.953 -10.747,-3.254 -21.25,-7.285 -32.082,-10.231 -66.043,14.243 -134.54,22.793 -201.875,13.227 -5.114,-0.031 -10.125,1.148 -15.141,1.91 -0.27,5.051 -0.559,10.098 -0.863,15.129 l 0,0" />
        <path
           inkscape:connector-curvature="0"
           id="path3482"
           style="fill:#ffffff;fill-opacity:1;fill-rule:nonzero;stroke:none"
           d="m 518.98,542.848 c 23.083,3.894 46.586,3.539 69.926,3.402 39.895,-0.996 79.563,-6.738 118.555,-15.004 2.156,-0.051 3.633,-1.437 4.582,-3.266 5.176,-8.234 10.242,-16.531 15.367,-24.792 -9.058,-2.762 -18.25,-5.047 -27.344,-7.668 -4.402,-1.731 -8.828,0.503 -13.125,1.398 -36.628,8.809 -73.855,15.855 -111.55,17.699 -13.543,1.067 -27.149,0.524 -40.645,-0.812 -5.453,3.367 -10.957,6.675 -16.152,10.433 0.351,6.196 0.488,12.41 0.386,18.61 l 0,0" />
        <path
           inkscape:connector-curvature="0"
           id="path3484"
           style="fill:#ffffff;fill-opacity:1;fill-rule:nonzero;stroke:none"
           d="m 401.824,535.359 c 11.516,2.446 24.031,1.36 34.801,-3.539 5.977,-2.484 8.145,-9.715 8.418,-15.558 -4.367,-4.27 -11.52,-2.61 -16.836,-5.203 -5.641,-1.59 -8.973,-6.551 -12.887,-10.45 -6.398,-2.179 -14.121,-0.336 -19.234,4.047 -3.879,3.324 -3.27,8.93 -3.508,13.496 -0.051,6.645 1.863,15.246 9.246,17.207 l 0,0" />
        <path
           inkscape:connector-curvature="0"
           id="path3486"
           style="fill:#ea2b24;fill-opacity:1;fill-rule:nonzero;stroke:none"
           d="m 242.012,514.313 c 6.402,5.265 13.125,10.113 19.699,15.156 23.656,-6.164 48.394,-5.86 72.512,-3 -12.16,-32.192 -15.985,-68.176 -7.297,-101.723 3.957,-17.949 8.226,-35.82 11.531,-53.906 -2.965,-3.137 -6.504,-6.067 -7.93,-10.293 -0.793,-5.598 -0.351,-11.301 -1.214,-16.887 -1,-7.769 -2.918,-16.004 0.011,-23.609 1.66,-5.317 6.762,-8.149 11.063,-11.086 0.218,-15.52 12.039,-27.703 25.605,-33.496 -8.941,-14.414 -25.086,-23.133 -41.523,-25.879 -22.492,-4.07 -45.352,-6.57 -68.215,-6.641 -1.559,5.75 -2.895,11.809 -1.508,17.742 1.223,6.829 6.031,13.176 4.219,20.364 -0.945,5.586 -5.625,9.16 -9.735,12.5 -3.964,2.988 -4.816,8.215 -6.503,12.578 1.351,3.23 2.656,6.484 3.945,9.734 7.394,-0.047 14.797,-0.387 22.215,-0.387 -6.824,2.02 -13.36,5.067 -20.371,6.383 -4.383,-0.625 -8.555,-2.215 -12.77,-3.433 -0.746,3.3 -1.406,6.66 -1.082,10.054 0.961,12.754 0.91,25.539 0.996,38.325 -12.496,-0.649 -26.5,-4.016 -37.765,3.242 3.457,15.808 5.488,32.051 11.21,47.293 2.133,5.886 9.098,7.551 12.571,12.429 7.23,9.25 7.855,21.457 8.125,32.7 3.015,-3 6.097,-5.942 9.316,-8.75 -2.918,-3.274 -5.812,-6.543 -8.687,-9.844 9.226,-2.641 19.32,-5.91 25.687,-13.496 4.707,-10.598 -2.605,-21.692 -7.941,-30.586 4.539,0.457 10.57,2.644 13.871,-1.875 3.808,-6.027 3.098,-13.535 4.062,-20.344 -0.035,-3.625 1.813,-8.348 -1.574,-11.035 -7.078,-4.883 -16.207,-4.324 -24.402,-4.832 6.316,-1.301 12.562,-3.234 18.203,-6.445 17.699,-9.868 31.957,-24.512 45.879,-38.957 -3.793,20.156 -14.891,37.785 -23.981,55.847 5.723,-0.371 11.446,-0.718 17.188,-0.855 -14.207,14.597 -29.977,30.887 -32.363,52.09 0.171,3.589 -0.844,9.547 3.711,10.601 8.062,0.442 15.375,-3.726 22.558,-6.824 -5,9.949 -13.855,17.117 -23.523,22.266 -3.047,0.734 -2.254,4.179 0.031,5.324 7.98,5.308 17.598,7.262 26.703,9.785 -2.434,5.602 -5.074,11.121 -7.801,16.578 -12.734,-5.672 -25.218,-12.266 -38.8,-15.699 -5.942,-1.594 -12.024,-0.07 -17.762,1.519 0.39,11.582 1.965,23.157 4.976,34.364 1.336,4.711 2.868,9.824 6.86,13.008 l 0,0" />
        <path
           inkscape:connector-curvature="0"
           id="path3488"
           style="fill:#ffffff;fill-opacity:1;fill-rule:nonzero;stroke:none"
           d="m 508.344,513.48 c 2.812,1.391 6.554,1.661 8.672,-1.082 8.839,-9.195 14.648,-20.843 20.32,-32.171 3.562,-6.782 3.426,-14.789 7.184,-21.477 4.503,-8.672 10.265,-16.719 17.101,-23.711 2.625,-2.976 5.742,-5.996 6.594,-10.039 0.652,-5.066 -4.004,-8.301 -7.238,-11.328 -8.211,-6.641 -17.137,-12.774 -27.2,-16.192 -3.621,-0.761 -9.054,-2.136 -11.086,2.051 -5.179,13.782 2.114,30.039 -5.878,43.047 -10.653,13.594 -24.454,25.535 -30.211,42.305 -1.336,5.637 -1.997,13.086 3.3,16.949 5.743,4.453 11.774,8.688 18.442,11.648 l 0,0" />
        <path
           inkscape:connector-curvature="0"
           id="path3490"
           style="fill:#ffffff;fill-opacity:1;fill-rule:nonzero;stroke:none"
           d="m 440.66,510.23 c 5.262,0.899 11.086,1.645 16.137,-0.523 4.18,-3.019 7.148,-7.367 10.613,-11.144 2.426,-3.231 6.219,-6.622 5.051,-11.114 -7.738,-3.367 -16.699,-1.062 -24.438,-4.656 -5.675,-1.809 -8.367,-9.414 -14.988,-8.613 -10.699,-0.157 -14.668,13.332 -11.82,21.894 1.594,9.231 11.652,12.09 19.445,14.156 l 0,0" />
        <path
           inkscape:connector-curvature="0"
           id="path3492"
           style="fill:#ffffff;fill-opacity:1;fill-rule:nonzero;stroke:none"
           d="m 542.063,507.758 c 29.214,2.015 58.582,-1.352 87.441,-5.86 24.937,-4.265 49.812,-9.261 74.129,-16.273 23.613,-9.348 47.121,-18.984 70.652,-28.469 -10.332,-4.82 -21.347,-7.976 -31.797,-12.547 -58.843,26.004 -122.675,43.282 -187.398,42.121 -5.656,0.067 -10.676,3.067 -15.781,5.106 1.023,5.305 1.824,10.621 2.754,15.922 l 0,0" />
        <path
           inkscape:connector-curvature="0"
           id="path3494"
           style="fill:#ffffff;fill-opacity:1;fill-rule:nonzero;stroke:none"
           d="m 555.293,479.922 c 61.184,1.57 121.738,-14.324 177.629,-38.359 -11.25,-1.524 -22.602,-2.305 -33.859,-3.641 -4.844,-0.324 -9.825,-1.406 -14.559,0.027 -35.969,11.399 -73.613,16.297 -111.113,19.168 -7.161,1.43 -13.43,5.461 -20.137,8.137 0.711,4.891 1.375,9.766 2.039,14.668 l 0,0" />
        <path
           inkscape:connector-curvature="0"
           id="path3496"
           style="fill:#ffffff;fill-opacity:1;fill-rule:nonzero;stroke:none"
           d="m 455.355,473.789 c 8.399,3.113 18.02,0.469 24.063,-5.996 4.59,-5.078 9.977,-10.566 10.703,-17.695 -1.422,-3.235 -5.281,-2.95 -8.156,-3.809 -9.875,-1.98 -17.957,-10.519 -28.488,-9.656 -9.145,5.32 -12.379,17.254 -9.622,27.078 1.086,5.605 6.454,8.672 11.5,10.078 l 0,0" />
        <path
           inkscape:connector-curvature="0"
           id="path3498"
           style="fill:#ffffff;fill-opacity:1;fill-rule:nonzero;stroke:none"
           d="m 574.309,450.117 c 31.992,-1.648 63.875,-6.523 94.921,-14.465 10.008,-3.152 20.692,-5.132 29.532,-11.074 9.336,-5.945 18.894,-11.504 28.191,-17.527 -16.711,-2.863 -33.547,-5.071 -50.242,-7.996 -3.52,-1.02 -6.77,0.925 -9.941,2.168 -27.153,11.433 -55.762,18.965 -84.661,24.382 -5.214,7.083 -6.921,15.958 -7.8,24.512 l 0,0" />
        <path
           inkscape:connector-curvature="0"
           id="path3500"
           style="fill:#ffffff;fill-opacity:1;fill-rule:nonzero;stroke:none"
           d="m 481.168,435.891 c 5.363,1.101 11.359,0.254 16.309,-2.219 3.707,-1.426 4.5,-6.484 2.285,-9.473 -3.356,-2.82 -7.727,-4.277 -10.621,-7.683 -2.575,-2.832 -5.911,-6.504 -10.176,-4.524 -8.211,5.813 -5.25,18.887 2.203,23.899 l 0,0" />
        <path
           inkscape:connector-curvature="0"
           id="path3502"
           style="fill:#ffffff;fill-opacity:1;fill-rule:nonzero;stroke:none"
           d="m 585.176,418.008 c 33.379,-5.535 65.898,-15.988 96.554,-30.281 12.274,-6.457 22.821,-15.707 33.204,-24.805 10.054,-8.418 16.511,-20.063 24.629,-30.168 -48.032,25.144 -100.325,42.605 -154.27,49.023 -4.063,7.102 -8.105,14.192 -12.207,21.258 4.031,4.992 9.602,8.867 12.09,14.973 l 0,0" />
        <path
           inkscape:connector-curvature="0"
           id="path3504"
           style="fill:#ffffff;fill-opacity:1;fill-rule:nonzero;stroke:none"
           d="m 435.508,379.855 c 3.015,9.415 7.285,20.809 17.832,23.719 12.836,1.543 29.519,-1.152 35.258,-14.414 4.437,-10.683 9.961,-21.711 9.414,-33.562 -2.758,-9.231 -10.668,-18.227 -21.063,-17.844 -2.238,13.508 -8.758,26.719 -19.883,35.051 -6.011,4.929 -13.546,8.941 -21.558,7.05 l 0,0" />
        <path
           inkscape:connector-curvature="0"
           id="path3506"
           style="fill:#ffffff;fill-opacity:1;fill-rule:nonzero;stroke:none"
           d="m 547.434,393.352 c 7.097,-0.024 16.289,2.753 21.543,-3.579 5.425,-6.128 3.457,-14.937 4.019,-22.418 -0.008,-17.765 1.359,-35.824 -2.176,-53.351 -3.183,-12.207 -18.562,-14.934 -29.109,-11.785 -6.098,0.847 -8.66,7.117 -9.488,12.449 -2.844,17.461 -0.625,35.187 -0.442,52.754 0.289,6.183 0.309,12.433 1.766,18.476 0.863,6.446 8.953,6.375 13.887,7.454 l 0,0" />
        <path
           inkscape:connector-curvature="0"
           id="path3508"
           style="fill:#ffffff;fill-opacity:1;fill-rule:nonzero;stroke:none"
           d="m 586.316,375.059 c 54.375,-7.012 107.414,-24.524 155.305,-51.192 -7.043,-4.082 -15.273,-5.664 -22.773,-8.808 -2.996,-0.762 -6.153,-3.164 -9.231,-1.454 -37.293,16.122 -77.449,23.961 -117.254,30.958 -4.187,2.058 -7.707,5.234 -11.523,7.871 1.933,7.515 3.613,15.105 5.476,22.625 l 0,0" />
        <path
           inkscape:connector-curvature="0"
           id="path3510"
           style="fill:#ffffff;fill-opacity:1;fill-rule:nonzero;stroke:none"
           d="m 411.008,370.168 c 10.597,2.117 22.012,4.844 32.445,0.484 8.891,-3.875 15.746,-11.257 21.442,-18.914 2.859,-4.25 6.16,-10.468 2.386,-15.156 -3.203,-3.203 -7.945,-3.738 -12.109,-4.824 -9.688,-2.024 -20.172,-4.336 -29.738,-0.528 -6.942,2.676 -10.231,10.008 -16.375,13.782 -9.368,6.101 -20.391,9.218 -31.364,10.718 -5.117,0.735 -10.398,0.227 -15.004,-2.234 18.594,-4.433 40.012,-6.738 53.614,-21.711 9.652,-8.672 23.468,-10.43 35.902,-8.816 -5.961,-8.367 -13.953,-15.906 -24.254,-18.289 -11.211,-2.153 -23.265,0.133 -32.851,6.394 -5.942,3.692 -11.094,8.946 -17.969,10.946 -10.785,1.828 -21.305,-3.817 -32.11,-2.184 -4.5,0.602 -8.683,4.059 -9.043,8.769 -1.082,10.997 -0.253,22.137 1.833,32.938 0.441,2.891 2.64,5.254 5.707,5 22.503,0.559 45.32,-1.309 67.488,3.625 l 0,0" />
        <path
           inkscape:connector-curvature="0"
           id="path3512"
           style="fill:#ffffff;fill-opacity:1;fill-rule:nonzero;stroke:none"
           d="m 593.938,329.27 c 1.082,2.449 2.058,4.976 3.398,7.293 23.406,-3.27 46.519,-8.704 69.336,-14.852 12.359,-3.742 24.93,-7.231 36.629,-12.766 5.429,-5.586 9.785,-12.16 14.48,-18.379 -9.195,1.68 -19.304,-0.07 -27.625,5 -30.664,14.864 -63.484,24.551 -96.218,33.704 l 0,0" />
        <path
           inkscape:connector-curvature="0"
           id="path3514"
           style="fill:#ffffff;fill-opacity:1;fill-rule:nonzero;stroke:none"
           d="m 592.188,322.93 c 31.972,-9.051 64.003,-18.614 94.113,-32.825 8.094,-3.945 16.336,-7.957 22.887,-14.265 12.542,-11.719 25.285,-23.953 32.753,-39.68 -11.187,-2.168 -22.421,-4.148 -33.523,-6.707 -33.738,36.262 -76.328,63.391 -121.152,83.875 1.922,3.051 3.488,6.301 4.922,9.602 l 0,0" />
        <path
           inkscape:connector-curvature="0"
           id="path3516"
           style="fill:#ffffff;fill-opacity:1;fill-rule:nonzero;stroke:none"
           d="m 351.492,311.688 c 8.66,2.628 18.512,5.382 27.199,1.386 9.231,-4.246 18.594,-9.156 25.25,-17.051 -7.941,-10.464 -22.402,-14.343 -34.964,-12.285 -9.305,2.532 -18.649,9.242 -20.934,19.043 -0.289,3.125 -0.375,7.973 3.449,8.907 l 0,0" />
        <path
           inkscape:connector-curvature="0"
           id="path3518"
           style="fill:#ffffff;fill-opacity:1;fill-rule:nonzero;stroke:none"
           d="m 582.031,308.711 c 42.473,-19.434 83.145,-44.402 116.106,-77.82 2.437,-2.317 4.605,-5.063 5.308,-8.469 2.668,-9.856 5.09,-19.793 7.961,-29.602 -41.593,34.004 -85.703,64.895 -131.203,93.43 0.031,7.52 -0.801,15.242 1.828,22.461 l 0,0" />
        <path
           inkscape:connector-curvature="0"
           id="path3520"
           style="fill:#ffffff;fill-opacity:1;fill-rule:nonzero;stroke:none"
           d="m 537.012,294.246 c 7.629,1.738 16.211,1.027 23.918,-0.762 5.465,-1.035 6.89,-7.285 5.855,-11.992 -1.25,-6.551 -1.551,-14.179 -6.758,-19.051 -4.976,-4.753 -11.902,-8.007 -18.914,-7.175 -5.722,2.097 -8.215,8.464 -9.82,13.867 -1.945,8.512 -0.848,18.797 5.719,25.113 l 0,0" />
        <path
           inkscape:connector-curvature="0"
           id="path3522"
           style="fill:#ea2b24;fill-opacity:1;fill-rule:nonzero;stroke:none"
           d="m 376.777,274.512 c 0.762,4.148 5.727,3.156 8.774,4.258 13.258,-19.622 30.301,-36.192 46.793,-53.028 -4.117,-26.062 -0.817,-53.547 10.347,-77.527 -31.128,-17.192 -61.152,-36.242 -91.824,-54.2228 -12.984,-7.8789 -26.332,-15.2149 -38.715,-24.0195 -3.824,3.7265 -8.054,8.8671 -5.957,14.5898 7.145,24.1755 23.778,44.3325 31.176,68.4255 4.016,12.246 -2.422,24.258 -3.625,36.375 -0.695,8.977 -2.965,18.02 -1.305,27.032 1.879,10.277 6.25,20.468 14.125,27.589 5.149,4.825 12.536,6.184 17.766,10.887 5.91,5.234 9.617,12.395 12.445,19.641 l 0,0" />
        <path
           inkscape:connector-curvature="0"
           id="path3524"
           style="fill:#ffffff;fill-opacity:1;fill-rule:nonzero;stroke:none"
           d="m 579.961,278.73 c 43.801,-28.054 86.824,-57.578 126.797,-90.937 -7.578,-2.703 -14.922,-6.301 -22.781,-8.074 -16.567,7.937 -32.598,17 -48.997,25.261 -5.8,2.559 -8.039,8.907 -11.867,13.497 -10.906,14.121 -24.304,26.757 -40.437,34.687 -2.031,8.379 -3.692,16.914 -2.715,25.566 l 0,0" />
        <path
           inkscape:connector-curvature="0"
           id="path3526"
           style="fill:#ffffff;fill-opacity:1;fill-rule:nonzero;stroke:none"
           d="m 582.52,245.945 c 17.695,-9.8 31.972,-24.91 42.648,-41.98 3.465,-5.012 3.008,-11.414 4.012,-17.188 -12.727,5.672 -25.711,10.801 -38.313,16.707 -4.097,3.274 -7.105,7.864 -9.851,12.286 -1.629,6.875 -3.203,13.847 -3.731,20.902 0.879,3.484 3.477,6.226 5.235,9.273 l 0,0" />
        <path
           inkscape:connector-curvature="0"
           id="path3528"
           style="fill:#ffffff;fill-opacity:1;fill-rule:nonzero;stroke:none"
           d="m 532.598,242.258 c 8.125,-0.051 16.257,-0.988 24.414,-1.059 2.949,-4.429 7.812,-8.933 6.593,-14.781 -1.386,-8.156 -1.691,-16.563 -4.015,-24.523 -7.539,-1.348 -16.797,-3.758 -23.606,0.773 -3.796,6.949 -4.367,15.113 -5.879,22.754 -0.792,5.652 -3.078,12.84 2.493,16.836 l 0,0" />
        <path
           inkscape:connector-curvature="0"
           id="path3530"
           style="fill:#ffffff;fill-opacity:1;fill-rule:nonzero;stroke:none"
           d="m 535.676,174.551 c -1.129,6.433 0.703,12.804 2.183,19.004 5.762,-0.293 12.688,0.195 17.051,-4.285 4.145,-6.829 2.094,-15.571 -0.738,-22.532 -1.711,-5.129 -8.125,-4.758 -12.277,-3.261 -4.676,1.621 -5.457,6.882 -6.219,11.074 l 0,0" />
        <path
           inkscape:connector-curvature="0"
           id="path3532"
           style="fill:#ffffff;fill-opacity:1;fill-rule:nonzero;stroke:none"
           d="m 584.387,176.328 c 21.316,-19.473 41.109,-41.152 56.133,-65.898 -17.61,16.242 -35,34.367 -58,42.761 -1.497,3.813 -2.911,7.637 -4.473,11.438 2.07,3.926 4.219,7.805 6.34,11.699 l 0,0" />
        <path
           inkscape:connector-curvature="0"
           id="path3534"
           style="fill:#ffffff;fill-opacity:1;fill-rule:nonzero;stroke:none"
           d="m 636.316,152.773 c 15.657,-10.031 31.274,-20.964 42.817,-35.71 -10.656,2.871 -21.289,5.886 -31.86,9.042 -3.582,8.907 -7.546,17.672 -10.957,26.668 l 0,0" />
      </g>
    </g>
  </g>
</svg>
