<?xml version="1.0" encoding="UTF-8" standalone="no"?>
<svg
   xmlns:dc="http://purl.org/dc/elements/1.1/"
   xmlns:cc="http://creativecommons.org/ns#"
   xmlns:rdf="http://www.w3.org/1999/02/22-rdf-syntax-ns#"
   xmlns:svg="http://www.w3.org/2000/svg"
   xmlns="http://www.w3.org/2000/svg"
   width="200mm"
   height="200mm"
   viewBox="0 0 200 200"
   version="1.1"
   id="svg8">
  <defs
     id="defs2">
    <pattern
       id="EMFhbasepattern"
       patternUnits="userSpaceOnUse"
       width="6"
       height="6"
       x="0"
       y="0" />
    <pattern
       id="EMFhbasepattern-0"
       patternUnits="userSpaceOnUse"
       width="6"
       height="6"
       x="0"
       y="0" />
  </defs>
  <metadata
     id="metadata5">
    <rdf:RDF>
      <cc:Work
         rdf:about="">
        <dc:format>image/svg+xml</dc:format>
        <dc:type
           rdf:resource="http://purl.org/dc/dcmitype/StillImage" />
        <dc:title></dc:title>
      </cc:Work>
    </rdf:RDF>
  </metadata>
  <g
     id="layer1">
    <path
       style="fill:#651b2d;fill-opacity:1;stroke-width:0.335543"
       d="m 6.8930017,167.79652 v -26.50796 l 17.8676943,0.004 17.867703,0.004 3.394416,5.95189 3.394398,5.95189 49.705363,0.0849 49.705364,0.0849 V 136.25593 119.1421 H 92.522987 36.218046 L 21.556718,105.80425 6.8953707,92.466371 6.8941957,62.264688 6.8930017,32.062967 22.296181,19.231208 37.699368,6.3994481 h 48.854901 48.854881 l 2.42585,4.8653809 c 1.33422,2.675956 2.50932,4.865382 2.61137,4.865382 0.10198,0 1.99188,-2.186829 4.19965,-4.8596 l 4.01415,-4.8595999 22.73307,-0.0057 22.73308,-0.0057 V 32.404822 58.409449 H 176.22606 158.3258 l -3.81387,-5.536473 -3.81387,-5.536455 H 101.44475 52.191393 v 15.435036 15.435005 h 56.801507 56.80151 l 14.16595,14.576315 14.16596,14.576293 v 30.64099 30.64096 l -15.40453,12.83288 -15.40452,12.8329 -48.9303,-0.0849 -48.930305,-0.0851 -2.852101,-4.90414 -2.852103,-4.90414 -3.69665,4.97471 -3.69665,4.9747 -22.733084,0.0133 -22.7330753,0.0133 z"
       id="path53" />
  </g>
</svg>
