<?xml version="1.0"?>
<svg viewBox="0 0 500.00001 645.2479" width="500" height="645.24792" xmlns="http://www.w3.org/2000/svg">
<style type="text/css">
	.st0{fill:#6EADF2;}
	.st1{fill:#FFFFFF;}
	.st2{fill:#0A2440;}
	.st3{fill:#BDBDBD;}
</style>
<g transform="scale(2.0661157)" style="stroke-width:0.484">
  <path class="st0" d="m 235.7,196.3 c 4.1,-5.9 6.3,-12.9 6.3,-20.2 V 127.4 C 242,101.5 220.9,80.3 194.9,80.3 H 157.6 V 47.1 C 157.6,21.2 136.5,0 110.5,0 H 47.1 C 21.1,0 0,21.1 0,47.1 v 63.7 c 0,13.6 6.6999999,25.6 16.9,33 H 0 v 1.5 6.3 33.3 C 0,210.8 21.1,232 47.1,232 h 37.300002 v 9.1 H 63.299998 v 71.2 H 194.9 c 25.9,0 47.1,-21.1 47.1,-47.1 v -48.7 c -0.1,-7.3 -2.2,-14.3 -6.3,-20.2" style="stroke-width:0.484" />
  <path class="st1" d="M 184.2,176.2 H 142 V 136 h 42.2 z m -42.1,40.2 h 42.2 v 40.2 H 142.1 Z M 194.9,95.900002 H 57.700002 V 55.699998 H 99.900001 V 72.6 H 142.1 V 47.1 C 142.1,29.7 128,15.6 110.6,15.6 H 47.1 c -17.4,0 -31.5,14.1 -31.5,31.5 v 63.7 c 0,13.9 11.3,25.2 25.2,25.2 h 59.100001 v 40.2 H 57.700002 V 159.3 H 15.5 v 25.5 c 0,17.4 14.1,31.5 31.5,31.5 h 52.800001 v 40.2 h -21 v 40.2 H 194.9 c 17.4,0 31.5,-14.1 31.5,-31.5 v -48.7 c 0,-11.2 -9.1,-20.2 -20.2,-20.2 11.2,0 20.2,-9.1 20.2,-20.2 v -48.7 c 0,-17.4 -14.1,-31.499998 -31.5,-31.499998" style="stroke-width:0.484" />
  <path class="st2" d="M 194.9,296.7 H 78.800001 v -40.2 h 21.1 V 216.3 H 47.1 c -17.4,0 -31.5,-14.1 -31.5,-31.5 v -25.5 h 42.200001 v 16.9 H 100 V 136 H 40.8 C 26.9,136 15.6,124.7 15.6,110.8 V 47.1 c 0,-17.4 14.1,-31.5 31.5,-31.5 h 63.5 c 17.4,0 31.5,14.1 31.5,31.5 V 72.6 H 99.900001 V 55.699998 H 57.700002 V 95.900002 H 194.9 c 17.4,0 31.5,14.099998 31.5,31.499998 v 48.7 c 0,11.2 -9.1,20.2 -20.2,20.2 11.2,0 20.2,9.1 20.2,20.2 v 48.7 c 0,17.4 -14.1,31.5 -31.5,31.5 m 30.6,-100.4 c 5.3,-5.1 8.7,-12.3 8.7,-20.2 v -48.7 c 0,-21.7 -17.6,-39.300002 -39.3,-39.300002 H 65.500001 V 63.400002 h 26.7 V 80.3 H 149.9 V 47.1 C 149.9,25.4 132.3,7.7999998 110.6,7.7999998 H 47.1 C 25.4,7.7999998 7.7999998,25.4 7.7999998,47.1 v 63.7 c 0,18.2 14.8000002,33 33.0000002,33 h 51.400001 v 24.7 h -26.7 V 151.6 H 7.7999998 v 33.3 C 7.7999998,206.6 25.4,224.2 47.1,224.2 h 45.100001 v 24.7 H 70.999998 v 55.7 H 194.9 c 21.7,0 39.3,-17.6 39.3,-39.3 v -48.7 c 0,-8 -3.3,-15.2 -8.7,-20.3" style="stroke-width:0.484" />
  <path class="st2" d="m 149.8,224.1 h 26.7 v 24.7 h -26.7 z m -7.7,32.5 h 42.2 v -40.2 h -42.2 z" style="stroke-width:0.484" />
  <path class="st2" d="m 149.8,143.8 h 26.7 v 24.7 h -26.7 z m -7.7,32.4 h 42.2 V 136 h -42.2 z" style="stroke-width:0.484" />
  <path class="st3" d="m 40.8,131.7 h 63.4 V 128 H 40.8 37.1 c -9.2,0 -16.7,-7.3 -17.2,-16.3 0.4,11.1 9.6,20 20.9,20" style="stroke-width:0.484" />
  <polygon class="st3" points="49.7,47.7 49.7,100.2 53.4,100.2 53.4,51.4 104.2,51.4 104.2,47.7 " style="stroke-width:0.484" />
  <path class="st3" d="m 134.1,60.900002 v 3.699996 h -3.7 -22.5 -3.7 v 3.700001 h 33.6 V 47.1 c 0,-15 -12.2,-27.2 -27.2,-27.2 13,0 23.5,10.6 23.5,23.5 v 3.7 z" style="stroke-width:0.484" />
  <path class="st3" d="m 222.1,176.1 v -48.7 c 0,-15 -12.2,-27.2 -27.2,-27.2 13,0 23.5,10.6 23.5,23.5 v 3.7 0 48.7 c 0,6.7 -5.5,12.2 -12.2,12.2 h -3.7 v 12.3 h 3.7 V 192 c 8.8,0 15.9,-7.1 15.9,-15.9" style="stroke-width:0.484" />
  <path class="st3" d="m 206.2,200.6 c 6.7,0 12.2,5.5 12.2,12.2 v 48.7 0 3.7 c 0,13 -10.6,23.5 -23.5,23.5 H 191.2 86.799999 83.099998 v 3.7 H 194.9 c 15,0 27.2,-12.2 27.2,-27.2 v -48.7 c 0,-8.8 -7.1,-15.9 -15.9,-15.9" style="stroke-width:0.484" />
  <path class="st3" d="M 104.2,208.4 H 47.1 43.4 c -13,0 -23.5,-10.6 -23.5,-23.5 0,15 12.2,27.2 27.2,27.2 h 57.1 z" style="stroke-width:0.484" />
  <polygon class="st3" points="188.6,212.1 188.6,208.4 134.1,208.4 134.1,260.9 137.8,260.9 137.8,212.1 " style="stroke-width:0.484" />
  <polygon class="st3" points="137.8,180.5 137.8,131.7 188.6,131.7 188.6,128 134.1,128 134.1,180.5 " style="stroke-width:0.484" />
</g>
</svg>