<svg xmlns="http://www.w3.org/2000/svg" width="261.45" height="300" viewBox="0 0 261.45269 300">
<title>HIFK</title>
<g fill="#9fabae" transform="matrix(1.2501406,0,0,1.2501406,-32.26147,0)">
<path fill="#082868" d="m130.43,0c2.491,2.522,21.634,19.755,45.731,21.03,18.746,0.85,47.035-13.463,47.035-13.463s29.96,68.503-5.805,141.63c-30.81,64.309-86.962,90.78-86.962,90.78s-56.578-26.472-87.359-90.78c-35.379-73.13-5.447-141.63-5.447-141.63s28.289,14.313,47.035,13.463c24.131-1.275,43.271-18.508,45.761-21.03z"/>
<path d="m208.67,20.605c4.162-1.275,7.872-2.948,10.817-4.195,0.396,1.247,1.218,2.919,1.67,5.045,2.039,7.143,4.531,17.629,6.202,30.241,2.944,25.225,1.671,59.688-15.377,94.975-14.951,30.694-36.189,52.972-53.661,66.831-8.778,7.143-16.254,12.612-22.087,15.957-2.492,1.275-4.531,2.521-5.805,3.372-1.218-0.851-3.342-2.097-6.23-3.372-5.408-3.345-13.309-8.814-21.605-15.957-17.458-13.86-38.696-36.14-53.676-66.83-17.047-35.29-18.265-69.749-15.376-94.974,1.671-12.612,4.163-23.099,6.258-30.241,0.396-2.125,0.85-3.798,1.671-5.045,2.888,1.247,6.201,2.919,10.364,4.195,9.6,3.373,22.456,7.142,33.33,6.717,20.784-0.822,38.256-13.009,45.76-19.33,5.806,5.895,23.277,18.083,44.911,19.33,10.817,0.425,23.73-3.345,32.877-6.717h-0.029z"/>
<path fill="#082868" d="M170.36,31.942c-17.84-2.097-32-10.912-39.93-17.232-8.69,6.745-25.35,16.835-45.309,17.657-11.695,0.425-25.401-3.373-35-6.717-2.039-0.85-3.709-1.672-5.805-2.522-2.067,7.142-4.163,17.232-5.833,29.419-2.039,17.657-1.67,39.509,4.616,63.033,53.661-7.57,99.421-39.084,127.26-83.638v0.028-0.028zm-92.771,149.62c9.203,11.365,19.171,21.029,27.893,28.172,8.75,6.717,16.254,11.762,21.635,15.106,1.274,0.851,2.492,1.7,3.313,2.126,0.82-0.426,2.095-1.275,3.341-2.126,5.438-3.345,12.913-8.39,21.606-15.106,17.104-13.888,37.492-35.314,52.019-65.556,10.817-22.276,14.979-44.129,15.801-63.458-34.519,49.145-85.66,86.132-145.61,100.84z"/>
<path fill="#FFF" d="m223.65,71.025c-0.453-6.717-0.821-13.009-1.274-18.479-1.67-12.188-3.709-22.277-5.833-29.419-2.039,0.85-3.71,1.672-5.805,2.522-9.543,3.344-22.909,7.142-34.548,6.717-28.288,46.651-76.088,79.84-131.87,88.258,2.492,7.992,5.437,15.56,9.146,23.523,6.258,12.612,12.913,23.553,20.417,32.792,62.355-14.709,115.65-53.367,149.77-105.91z"/>
<path d="m214.19,72.159c0,1.758-1.416,3.203-3.199,3.203-1.756,0-3.2-1.445-3.2-3.203,0-1.785,1.444-3.202,3.2-3.202,1.783,0,3.199,1.417,3.199,3.202z"/>
<path d="m163.33,124.51c0,1.757-1.444,3.202-3.2,3.202s-3.199-1.445-3.199-3.202c0-1.786,1.443-3.203,3.199-3.203s3.2,1.445,3.2,3.203z"/>
<path d="m123.35,149.36c0,1.758-1.416,3.203-3.199,3.203-1.756,0-3.2-1.417-3.2-3.203,0-1.757,1.444-3.202,3.2-3.202,1.783,0,3.199,1.445,3.199,3.202z"/>
<path stroke="#9fabae" stroke-width="0.5" d="m51.565,73.633h2.747c0.481,0,0.878-0.142,1.189-0.396,0.283-0.142,0.425-0.425,0.425-0.851v-17.912h-5.069v-2.013c0.227,0,0.792-0.141,1.67-0.424,0.906-0.284,1.756-0.652,2.577-1.049,0.708-0.312,1.359-0.737,1.896-1.219,0.539-0.51,0.936-0.878,1.162-1.162h2.52v23.779c0,0.369,0.142,0.652,0.425,0.851,0.255,0.255,0.68,0.396,1.218,0.396h2.86v2.494h-13.62v-2.494z"/>
<path stroke="#9fabae" stroke-width="0.5" d="M74.276,61.588c-1.416-0.142-2.605-0.794-3.597-1.956s-1.473-2.692-1.473-4.647c0.34-4.053,3.115-6.065,8.382-6.065,2.011,0,3.625,0.453,4.899,1.417,1.246,0.935,1.982,2.239,2.181,3.883,0,1.928-0.51,3.486-1.529,4.705-0.991,1.19-2.124,1.813-3.342,1.898,0.227,0,0.85,0.227,1.841,0.709,0.991,0.453,1.926,1.247,2.832,2.324,0.906,1.076,1.358,2.466,1.415,4.223,0,2.692-0.792,4.733-2.378,6.122-1.586,1.36-3.795,2.068-6.599,2.068-2.746-0.057-4.842-0.708-6.314-1.955s-2.237-2.976-2.322-5.13c0-1.644,0.312-3.033,0.963-4.138,0.651-1.134,1.444-1.984,2.379-2.522,0.935-0.54,1.813-0.851,2.662-0.936zm-2.067,7.737c0.227,2.777,1.813,4.166,4.785,4.166,1.246,0,2.294-0.453,3.144-1.304,0.821-0.85,1.246-2.04,1.246-3.543,0-1.275-0.396-2.352-1.189-3.259s-1.643-1.587-2.577-2.041c-0.935-0.453-1.473-0.708-1.642-0.708-1.048,0.17-1.926,0.85-2.662,1.983s-1.105,2.694-1.105,4.706zm8.863-14.568c0-0.963-0.312-1.757-0.963-2.466-0.623-0.68-1.501-1.02-2.634-1.02-2.831,0-4.304,1.276-4.389,3.855,0,1.134,0.368,2.04,1.076,2.721,0.708,0.68,1.473,1.162,2.265,1.445,0.793,0.283,1.331,0.425,1.558,0.425,0.17,0,0.51-0.227,1.048-0.623,0.51-0.425,0.991-0.992,1.416-1.729,0.425-0.765,0.623-1.616,0.623-2.608z"/>
<path stroke="#9fabae" stroke-width="0.5" d="m94.24,73.917c2.35,0,4.077-1.162,5.182-3.486,0.821-1.871,1.246-4.365,1.246-7.482-0.057,0.227-0.17,0.51-0.312,0.851-0.142,0.368-0.425,0.765-0.821,1.247-0.396,0.481-0.878,0.878-1.501,1.219-0.963,0.481-1.982,0.736-3.059,0.736-2.491,0-4.445-0.964-5.861-2.947-1.08-1.445-1.618-3.373-1.618-5.782,0-2.976,0.878-5.385,2.69-7.227,1.529-1.502,3.512-2.267,5.89-2.267,1.359,0,2.634,0.312,3.823,0.878,1.218,0.595,2.181,1.502,2.917,2.665,1.443,2.38,2.18,5.385,2.18,9.041,0,1.36-0.028,2.381-0.113,3.117-0.368,4.365-1.755,7.596-4.134,9.722-1.529,1.36-3.568,2.068-6.117,2.068-2.095,0-3.794-0.623-5.068-1.898-0.765-0.709-1.133-1.644-1.133-2.777,0-0.992,0.312-1.729,0.991-2.211,0.255-0.198,0.623-0.312,1.076-0.312,0.991,0,1.614,0.538,1.869,1.587,0,0.681-0.057,1.247-0.227,1.729-0.113,0.397-0.198,0.567-0.227,0.567v-0.028c0.142,0.17,0.425,0.368,0.821,0.623,0.398,0.225,0.908,0.367,1.502,0.367zm5.805-16.269c0-1.701-0.368-3.118-1.104-4.252-0.708-1.162-1.813-1.729-3.229-1.729-1.331,0.113-2.321,0.766-3.001,1.928-0.651,1.189-0.991,2.607-0.991,4.223,0,1.644,0.34,3.032,1.02,4.138s1.698,1.672,3.001,1.729c1.331,0,2.351-0.596,3.144-1.758s1.16-2.607,1.16-4.279z"/>
<path stroke="#9fabae" stroke-width="0.5" d="m109.93,54.19c-0.481,0.624-0.793,1.389-0.935,2.324l-0.312,1.219h-1.558l1.246-8.956c0.736,0.057,1.869,0.113,3.37,0.17,1.472,0.085,2.831,0.142,4.049,0.142,1.274,0,2.86-0.028,4.729-0.085,1.868-0.085,3.313-0.142,4.275-0.17,0,1.899-0.34,3.6-1.076,5.13-0.68,1.53-1.331,3.117-1.926,4.79-0.622,1.644-1.132,3.23-1.557,4.761-0.425,1.503-0.821,3.09-1.189,4.677-0.425,2.126-0.623,4.762-0.623,7.936h-4.984c0-3.372,0.736-6.773,2.181-10.146,2.294-5.413,4.22-9.607,5.777-12.584h-9.288c-1.046-0.002-1.783,0.254-2.179,0.792z"/>
<path d="m82.205,127.65c-0.425-1.021-0.935-1.7-1.473-2.013-0.538-0.283-1.359-0.283-2.464-0.028-0.057,0.028-0.113,0.058-0.142,0.086-0.028,0-0.085-0.028-0.113-0.028-0.85,0.255-1.444,0.312-1.756,0.227-0.282-0.113-0.509-0.313-0.679-0.709-0.198-0.425-0.227-0.822-0.057-1.162,0.142-0.368,0.425-0.651,0.878-0.85,0.084-0.029,0.396-0.143,0.82-0.284,2.605-0.821,5.069-1.757,7.477-2.806,2.463-1.077,4.842-2.268,7.164-3.6,0.425-0.227,0.708-0.396,0.821-0.425,0.425-0.198,0.821-0.227,1.189-0.085,0.339,0.142,0.622,0.425,0.849,0.907,0.283,0.651-0.142,1.304-1.245,1.983l-0.085,0.057-0.057,0.028c-1.104,0.709-1.756,1.389-1.897,1.984-0.198,0.566-0.028,1.389,0.396,2.409l13.025,29.787c0.425,1.021,0.935,1.673,1.501,1.928,0.538,0.312,1.473,0.283,2.719-0.028,0.085-0.057,0.227-0.057,0.368-0.085,1.104-0.341,1.813-0.199,2.067,0.396,0.227,0.481,0.227,0.907,0.113,1.275-0.142,0.396-0.425,0.651-0.85,0.851-0.113,0.057-0.425,0.142-0.935,0.283-2.549,0.765-5.041,1.7-7.476,2.777-2.407,1.049-4.758,2.268-7.108,3.656-0.396,0.198-0.68,0.368-0.765,0.396-0.452,0.198-0.849,0.227-1.217,0.085s-0.651-0.453-0.85-0.906c-0.255-0.596,0.085-1.247,1.104-1.899l0.085-0.057c0.028-0.057,0.057-0.113,0.113-0.142s0.142-0.057,0.227-0.085c0.962-0.652,1.5-1.247,1.67-1.843,0.142-0.623-0.028-1.417-0.481-2.466l-12.936-29.614z"/>
<path d="m141.22,132.9c0.595,0.936,1.246,1.502,1.869,1.615,0.708,0.171,1.813-0.142,3.398-0.906,0.142-0.085,0.312-0.142,0.538-0.255,1.246-0.624,2.038-0.652,2.406-0.057,0.283,0.425,0.368,0.821,0.198,1.275-0.142,0.425-0.453,0.793-0.963,1.104-0.226,0.143-1.33,0.709-3.284,1.729-1.982,1.021-3.795,2.068-5.494,3.146-1.642,1.049-3.313,2.239-4.955,3.543s-2.492,1.984-2.549,2.013c-0.481,0.312-0.878,0.396-1.274,0.368-0.396-0.085-0.708-0.312-0.99-0.709-0.396-0.623-0.085-1.36,0.962-2.238l0.057-0.085c0.028-0.058,0.057-0.114,0.113-0.171,0.057-0.028,0.142-0.085,0.198-0.113,0.991-0.878,1.529-1.587,1.614-2.238,0.085-0.652-0.17-1.446-0.765-2.381l-17.44-27.24c-0.623-0.964-1.246-1.53-1.869-1.7-0.594-0.198-1.5,0-2.689,0.51-0.085,0.057-0.227,0.113-0.425,0.198-1.303,0.567-2.181,0.539-2.549-0.057-0.255-0.396-0.34-0.821-0.227-1.219,0.113-0.396,0.368-0.736,0.821-1.02,0.142-0.086,0.481-0.284,1.104-0.596,2.577-1.275,4.927-2.607,7.107-3.996l6.116-3.911c1.841-1.19,3.908-2.636,6.23-4.337,2.35-1.729,3.822-2.806,4.445-3.174,0.651-0.425,1.104-0.652,1.331-0.567,0.255,0.028,0.538,0.284,0.821,0.737l4.248,6.66c0.339,0.511,0.48,0.936,0.424,1.19-0.028,0.227-0.254,0.482-0.594,0.709-0.481,0.312-1.643,0.028-3.342-0.851-0.878-0.453-1.586-0.736-2.124-0.992-1.076-0.481-2.209-0.623-3.397-0.453-1.218,0.198-2.492,0.709-3.795,1.559-1.671,1.049-2.662,2.069-3.002,3.005-0.368,0.935-0.142,2.04,0.68,3.315l5.579,8.729c0.368,0.567,0.82,0.822,1.358,0.766,0.538,0,1.359-0.369,2.407-1.049,1.614-1.021,2.69-1.871,3.257-2.494,0.566-0.652,0.878-1.304,0.906-1.956,0-0.765-0.142-1.842-0.396-3.174s-0.085-2.183,0.453-2.551c0.34-0.227,0.68-0.255,1.076-0.142,0.368,0.142,0.68,0.453,0.962,0.878,0.028,0.085,0.113,0.256,0.283,0.567,0.765,1.474,1.558,2.891,2.407,4.223,0.793,1.247,1.643,2.494,2.492,3.741,0.878,1.247,1.303,1.928,1.359,1.928,0.51,0.85,0.765,1.445,0.793,1.842,0.028,0.368-0.227,0.681-0.68,0.964-0.651,0.425-1.614,0.17-2.945-0.766-0.538-0.368-0.935-0.651-1.246-0.878-1.274-0.737-2.351-1.077-3.256-1.049-0.906,0.028-2.011,0.453-3.313,1.304-0.453,0.283-0.765,0.481-0.991,0.651s-0.481,0.313-0.651,0.482l-0.651,0.566c-0.255,0.227-0.425,0.454-0.453,0.681s0.028,0.453,0.198,0.708l8.073,12.615z"/>
<path d="m168.43,66.803c-0.028-0.538-0.142-1.049-0.283-1.445-0.142-0.426-0.283-0.766-0.51-0.964-0.312-0.34-0.708-0.51-1.075-0.481-0.425,0.028-0.878,0.198-1.444,0.566-0.17,0.085-0.368,0.255-0.623,0.482-0.85,0.623-1.529,0.68-2.096,0.113-0.283-0.284-0.453-0.624-0.368-0.992,0.057-0.396,0.198-0.766,0.566-1.105,0.142-0.142,0.765-0.681,1.926-1.615,1.189-0.936,2.236-1.871,3.199-2.835,0.651-0.651,1.529-1.644,2.634-2.891s1.869-2.126,2.379-2.636c0.51-0.482,0.906-0.793,1.218-0.85,0.312-0.085,0.595,0.028,0.935,0.368,0.595,0.596,0.425,1.588-0.51,2.892-0.51,0.681-0.85,1.247-1.104,1.7-0.68,1.219-1.133,2.863-1.388,5.017-0.255,2.098-0.255,4.422-0.028,6.916l0.595,6.094c0,0.283,0.057,0.51,0.142,0.68,0.028,0.17,0.113,0.283,0.198,0.368,0.113,0.113,0.227,0.228,0.368,0.256,0.113,0.085,0.255,0.142,0.425,0.17l24.834,4.932c0.142,0.028,0.34,0.057,0.623,0.113,2.039,0.453,3.624,0.34,4.757-0.227,0.028-0.028,0.085-0.028,0.113-0.086,0.028,0,0.085-0.028,0.17-0.113,0.028,0,0.028-0.028,0.113-0.057,1.048-0.623,1.841-0.68,2.322-0.17,0.312,0.283,0.425,0.596,0.396,0.879-0.057,0.312-0.283,0.623-0.736,1.105-0.198,0.198-1.048,0.906-2.521,2.097-1.415,1.19-2.718,2.324-3.822,3.43-1.926,1.956-3.767,4.024-5.438,6.207-0.312,0.396-0.481,0.624-0.538,0.681-0.283,0.283-0.622,0.425-0.99,0.425s-0.708-0.17-0.991-0.453c-0.283-0.284-0.453-0.567-0.425-0.879-0.028-0.283,0.113-0.624,0.368-0.992,0.057-0.085,0.17-0.255,0.283-0.368,0.538-0.794,0.623-1.389,0.227-1.786-0.283-0.283-0.935-0.595-1.982-0.878-1.02-0.284-2.577-0.624-4.701-1.021l-11.978-2.211c-0.34-0.085-0.595-0.113-0.793-0.113-0.17-0.028-0.312,0-0.34,0.028-0.113,0.113-0.17,0.283-0.17,0.51,0.028,0.199,0.113,0.397,0.283,0.539l9.798,9.807c0.793,0.793,1.501,1.247,2.095,1.36,0.595,0.085,1.331-0.198,2.209-0.794,0.057-0.057,0.142-0.085,0.198-0.142,0.793-0.595,1.444-0.652,1.954-0.198,0.396,0.396,0.566,0.765,0.623,1.105,0.028,0.368-0.085,0.68-0.368,0.963-0.057,0.057-0.227,0.171-0.51,0.426-1.954,1.502-3.88,3.174-5.805,5.102-1.841,1.842-3.597,3.854-5.268,5.98-0.34,0.368-0.51,0.595-0.595,0.68-0.34,0.34-0.708,0.51-1.104,0.51s-0.764-0.198-1.104-0.538c-0.481-0.453-0.368-1.219,0.312-2.154l0.057-0.085c0-0.085,0.028-0.142,0.085-0.198l0.17-0.17c0.65-0.936,0.962-1.7,0.877-2.324-0.085-0.595-0.538-1.304-1.33-2.097l-22.89-22.867c-0.793-0.793-1.501-1.247-2.096-1.304-0.623-0.085-1.387,0.228-2.321,0.851-0.028,0.028-0.028,0.057-0.057,0.085s-0.085,0-0.113,0c-0.736,0.567-1.274,0.879-1.586,0.907-0.312,0-0.595-0.113-0.906-0.396-0.312-0.341-0.51-0.709-0.481-1.077,0-0.397,0.17-0.766,0.538-1.105,0.057-0.085,0.283-0.255,0.651-0.567,2.096-1.7,4.077-3.485,5.946-5.356,1.869-1.87,3.653-3.854,5.324-5.952,0.34-0.368,0.538-0.623,0.622-0.708,0.34-0.312,0.708-0.481,1.104-0.481,0.34,0,0.736,0.142,1.104,0.51,0.481,0.51,0.312,1.275-0.453,2.296l-0.057,0.113-0.028,0.028c-0.765,1.049-1.133,1.927-1.048,2.551,0.028,0.595,0.481,1.304,1.274,2.098l9.09,9.098c0.198,0.198,0.396,0.34,0.538,0.396s0.283,0.085,0.368,0c0.057-0.085,0.057-0.17,0.085-0.312,0.028-0.113,0.028-0.312,0.028-0.511l-1.187-16.924z"/>
</g>
<path fill="#9fabae" d="m123.51,226.99-0.0144,0.0226-12.437,7.0423,12.5,6.7173,0.0398,0.037,7.0424,12.435,6.7177-12.497,0.017-0.0258,12.437-7.0414-12.5-6.7178-0.0394-0.0366-7.0448-12.435-6.7179,12.497"/>
</svg>

