<svg height="353.553391" viewBox="0 0 14.85402 18.58173" width="282.842712" xmlns="http://www.w3.org/2000/svg"><g fill="#b0b6bb"><path d="m11.71548 7.35a4.14037 4.14037 0 0 0 1.934-2.968 3.8984 3.8984 0 0 0 -3.58597-4.382h-7.84201l-1.86701 15.554h1.337s-.352-.426-.173-1.918c1.01801-8.485 6.95801-12.023 8.76801-12.738a8.43253 8.43253 0 0 0 -.974 3.189c-.337 2.801.589 3.803.329 5.977a12.35337 12.35337 0 0 1 -2.286 5.705 9.20158 9.20158 0 0 1 1.411-.167c.679 0 1.029.156 1.718.156a4.17692 4.17692 0 0 0 4.327-3.867 3.8923 3.8923 0 0 0 -3.096-4.541m2.887 4.515a3.97348 3.97348 0 0 1 -4.118 3.683c-.711 0-.971-.157-1.718-.157a6.548 6.548 0 0 0 -.938.085 12.58965 12.58965 0 0 0 2.021-5.387c.264-2.203-.664-3.183-.328-5.978a7.11391 7.11391 0 0 1 1.25-3.565c-.797 0-8.306 3.443-9.461 13.066a3.55 3.55 0 0 0 .06 1.732h-.779l1.816-15.134h7.656a3.68825 3.68825 0 0 1 3.378 4.147 4.047 4.047 0 0 1 -2.142 2.989l.185.17a3.69763 3.69763 0 0 1 3.118 4.349"/><path d="m9.19913 2.18549s-6.321 4.39-7.162 11.4c-.197 1.634.925 1.645.925 1.645s1.01-5.169 3.028-7.785a12.26576 12.26576 0 0 1 -.052 2.451 8.5898 8.5898 0 0 1 -2.26 5.179l-.029.233s.028.259.509.259c1.383 0 4.122-1.032 4.591-4.939.347-2.895-.591-4.167-.338-6.271a5.48314 5.48314 0 0 1 .788-2.172m-.659 8.418c-.446 3.713-2.973 4.754-4.382 4.754-.26 0-.293-.079-.293-.079l.012-.1a8.73666 8.73666 0 0 0 2.27-5.257 11.90674 11.90674 0 0 0 -.003-3.01c-2.297 2.693-3.348 8.071-3.348 8.071s-.699-.14-.551-1.372c.777-6.478 6.355-10.688 6.355-10.688a3.93205 3.93205 0 0 0 -.398 1.411c-.258 2.15.683 3.397.338 6.27"/><path d="m7.70752.93759c-.095.035-.167.065-.179.045-.014-.022.097-.162.179-.045"/><path d="m.95041 17.38342h-.16501l-.077.642h.164c.204.001.543.001.581-.31.034-.282-.179-.332-.503-.332m.399.32c-.02.171-.138.218-.522.218l.051-.434c.369 0 .495.023.471.216"/><path d="m4.8764 16.68869-.413.902h.689l-.192-.902zm-.249.797.269-.589.126.589z"/><path d="m1.39758 16.71622c.031-.258-.168-.303-.404-.303h-.091l-.071.59h.134c.109 0 .397 0 .432-.287m-.402-.198c.186 0 .315.018.297.175-.023.187-.161.205-.342.205z"/><path d="m12.971 16.49673a.6599.6599 0 0 1 .426.19l.381-.602a1.69784 1.69784 0 0 0 -.83-.238.98242.98242 0 0 0 -1.019.888c-.109.9.991.682.953.994a.26416.26416 0 0 1 -.291.203.85167.85167 0 0 1 -.558-.287l-.331.509-.437-.674a.83756.83756 0 0 0 .599-.738c.073-.605-.35-.828-.829-.828h-4.593l-.079.657h.941l-1.277 1.757-.619-2.414h-.784l-1.128 2.234.034-.28h-.78l.234-1.954h-.756l-.175 1.459a.51382.51382 0 0 0 -.304-.261.7007.7007 0 0 0 .258-.489c.06-.508-.242-.709-.717-.709h-.979l-.311 2.599h1.253a.84409.84409 0 0 0 .707-.364l-.044.364h2.203l.22-.423h.824l.108.423h2.909l.076-.645h-1.006l1.253-1.732-.285 2.377h2.24l.102-.838.435.838h.939l-.053-.083a1.45922 1.45922 0 0 0 .675.152 1.025 1.025 0 0 0 1.121-.952c.1-.83-.99-.686-.956-.973.014-.113.17-.16.25-.16m-10.971 1.26899a.74758.74758 0 0 1 -.747.643h-1.135l.286-2.389h.886c.335 0 .672.093.612.591a.54067.54067 0 0 1 -.335.483l-.012.087s.515-.009.445.585m1.36.643h-1.326l.287-2.389h.544l-.234 1.953h.781zm1.993 0-.108-.425h-.971l-.219.425h-.572l1.206-2.389h.637l.613 2.389zm1.691-.436h1.094l-.051.436h-1.988l1.412-1.942h-1.029l.053-.447h1.923zm2.611.436h-1.319l.287-2.389h1.319l-.055.447h-.773l-.063.523h.734l-.053.446h-.735l-.063.537h.773zm.28-1.838-.037.313h-.729l.038-.313zm-.155 1.297h-.729l.04-.327h.729zm1.278.541-.493-.953h-.085l-.115.953h-.544l.286-2.389h.928c.503 0 .781.242.725.71a.74088.74088 0 0 1 -.668.677l.648 1.002zm2.515-.791a.91622.91622 0 0 1 -1.017.858 1.19772 1.19772 0 0 1 -.784-.24l.283-.432a.79777.79777 0 0 0 .536.234.36744.36744 0 0 0 .396-.297c.059-.495-1.056-.139-.954-.994a.8827.8827 0 0 1 .915-.796 1.5112 1.5112 0 0 1 .68.174l-.259.408a.64867.64867 0 0 0 -.398-.141c-.135 0-.333.078-.355.253-.055.457 1.051.184.957.973"/><path d="m10.7131 16.41312h-.108l-.088.729h.125c.123 0 .496 0 .539-.357.034-.28-.174-.372-.468-.372m.364.36c-.021.182-.142.264-.441.264l.062-.519c.281 0 .401.069.379.255"/></g><path d="m8.20273 4.33279a3.896 3.896 0 0 1 .397-1.411s-5.577 4.212-6.354 10.688c-.148 1.232.55 1.374.55 1.374s1.051-5.378 3.347-8.073a11.80474 11.80474 0 0 1 .003 3.011 8.72585 8.72585 0 0 1 -2.269 5.257l-.011.1s.032.078.292.078c1.408 0 3.936-1.04 4.383-4.754.344-2.872-.596-4.119-.338-6.27" fill="#d04827"/><path d="m7.52811.9826c.013.02.085-.01.179-.045-.081-.117-.193.023-.179.045" fill="#082040"/><path d="m11.48453 7.51678-.185-.172a4.0415 4.0415 0 0 0 2.142-2.988 3.6888 3.6888 0 0 0 -3.377-4.147h-7.656l-1.817 15.135h.779a3.5845 3.5845 0 0 1 -.061-1.734c1.155-9.622 8.665-13.065 9.462-13.065a7.12051 7.12051 0 0 0 -1.251 3.566c-.335 2.794.593 3.774.329 5.977a12.58188 12.58188 0 0 1 -2.021 5.386 6.701 6.701 0 0 1 .938-.083c.746 0 1.007.156 1.717.156a3.97371 3.97371 0 0 0 4.119-3.682 3.69822 3.69822 0 0 0 -3.118-4.349" fill="#1e3160"/><path d="m1.55591 17.18091.01-.087a.54082.54082 0 0 0 .336-.483c.059-.498-.277-.591-.612-.591h-.885l-.286 2.389h1.134a.74494.74494 0 0 0 .746-.643c.072-.594-.443-.585-.443-.585m-.654-.768h.092c.237 0 .434.044.404.303-.035.287-.323.287-.432.287h-.134zm.552 1.303c-.038.311-.378.31-.581.31h-.164l.077-.643.165-.001c.324 0 .537.052.503.334" fill="#1e3160"/><path d="m8.458 16.019h-1.922l-.054.447h1.028l-1.411 1.942h1.988l.052-.436h-1.095z" fill="#1e3160"/><path d="m2.865 16.019h-.544l-.287 2.389h1.325l.052-.436h-.78z" fill="#1e3160"/><path d="m4.68869 16.01862-1.205 2.39h.571l.22-.424h.97l.107.424h.587l-.612-2.39zm-.225 1.572.412-.902h.084l.193.902z" fill="#1e3160"/><path d="m9.114 16.466h.774l.053-.447h-1.318l-.287 2.389h1.318l.053-.436h-.773l.063-.536h.735l.053-.447h-.734z" fill="#1e3160"/><path d="m11.03629 16.01981h-.928l-.287 2.389h.543l.116-.953h.084l.493.953h.683l-.648-1.002a.74022.74022 0 0 0 .667-.677c.056-.468-.222-.71-.723-.71m.145.766c-.043.356-.416.356-.539.356h-.125l.088-.728h.107c.296 0 .503.092.469.372" fill="#1e3160"/><path d="m12.97083 16.39148a.65064.65064 0 0 1 .399.142l.259-.409a1.51578 1.51578 0 0 0 -.682-.173.88158.88158 0 0 0 -.914.795c-.103.854 1.013.498.953.995a.36529.36529 0 0 1 -.396.295.79563.79563 0 0 1 -.536-.233l-.281.433a1.19766 1.19766 0 0 0 .784.24.91712.91712 0 0 0 1.016-.859c.095-.788-1.011-.515-.956-.972.02-.175.22-.254.354-.254" fill="#1e3160"/></svg>