<svg enable-background="new 0 0 75.149 74.732" height="316.227766" viewBox="0 0 75.149 74.732" width="316.227766" xmlns="http://www.w3.org/2000/svg"><path d="m68.224 47.331-13.671 11.259-8.397-6.724 27.269-22.245v-9.396l-26.762-.085-.914.068-.019-2.665-1.104-3.079-.695-.22.012-1.689-4.504-12.555h-5.914l-2.261 6.216-.025 2.9-1.138.299-2.811 7.731-.16 3.062-.982.08h-26.139l-.009 9.575 17.661 14.186-8.461 23.359 9.183 7.324 18.6-15.237 18.689 14.964 19.477-16.068zm-31.268 9.828-18.609 15.342-6.989-5.682 8.379-23.486-18.04-14.616v-6.314l25.498-.116 7.44-20.456h3.684l7.439 20.456h26.033v6.209l-28.38 23.339 11.116 8.954 13.263-10.722 5.004 8.039-17.04 13.986z" fill="#231f20"/><path d="m40.883 30.958-4.226-11.68-4.171 11.744h-15.006l19.449 15.688 19.287-15.753h-15.333m-4.008 13.639-14.573-11.807 11.322.063 3.034-8.648 3.089 8.523h11.593z" fill="#231f20"/><path d="m22.654 58.391 3.494-9.881 1.409 1.136-1.372 3.788 3.027-2.515 1.354 1.042z" fill="#231f20"/><g fill="#003984"><path d="m20.983 44.301 4.045 3.325-4.623 12.964 1.011.969 10.456-8.586 3.774 3.155-17.336 14.227-5.128-4.209z"/><path d="m59.084 59.057-4.431 3.553-39.638-31.715v-1.61l16.659-.032 4.334-12.5h1.3l4.605 12.5h16.686v1.737l-20.37 16.762 3.928 3.125 28.198-23.076v-3.914l-25.625.063-7.347-20.498-1.68-.032-7.496 20.562-25.191.063v3.693l52.766 42.364 6.885-5.674z"/><path d="m64.395 63.004 1.963-1.617-3.546-5.321-1.8 1.444z"/><path d="m67.538 52.276-2.788 2.236 3.346 5.44 2.855-2.35z"/><path d="m13.084 20.129c-2.913 0-4.988-1.844-5.847-3.048l1.829-1.09c1.141 1.501 2.529 2.26 4.126 2.26 2.8 0 4.265-2.058 4.265-4.092v-.188h-10.328c-.065-.434-.102-.891-.102-1.721 0-3.322 2.775-5.926 6.317-5.926 2.34 0 4.099.871 5.522 2.737l-1.684 1.153c-1.022-1.336-2.393-2.012-4.076-2.012-1.822 0-3.831 1.156-3.94 3.693l-.008.197h10.345c.078.402.094.832.094 1.524 0 4.475-3.376 6.513-6.513 6.513"/></g><path d="m20.451 11.634-.156-.651h-2.533l2.545-1.743-.516-.707c-1.632-2.233-3.75-3.319-6.475-3.319-4.124 0-7.355 3.06-7.355 6.965 0 .997.052 1.506.143 2.047l.118.71h2.439l-.009.005-2.906 1.732.484.74c.893 1.367 3.335 3.681 6.825 3.681 3.752 0 7.549-2.594 7.549-7.549 0-.843-.024-1.371-.153-1.911m-7.367 8.872c-2.854 0-5.099-1.727-6.154-3.206l-.237-.334 2.18-1.298.289-.174.204.269c1.066 1.401 2.353 2.112 3.826 2.112 2.467 0 3.797-1.744 3.885-3.528h-10.272l-.049-.321c-.063-.424-.106-.888-.106-1.775 0-3.534 2.941-6.303 6.694-6.303 2.472 0 4.321.917 5.822 2.884l.241.316-.329.224-1.977 1.355-.217-.284c-.947-1.236-2.218-1.863-3.778-1.863-1.599 0-3.36.983-3.551 3.136h10.259l.059.304c.085.434.1.896.1 1.596 0 4.734-3.57 6.89-6.889 6.89zm-3.482-5.57h6.676c-.319 1.172-1.322 2.205-3.114 2.205-1.297 0-2.439-.663-3.392-1.971zm6.883-3.953h-6.156c.471-1.411 1.873-1.816 2.748-1.816 1.412 0 2.507.565 3.346 1.73z" fill="#231f20"/><path d="m30.76 5.496h-11.345v4.082h3.991v11.233h4.212v-11.233h3.991v-4.082zm.237 1.01v2.384h-3.99v11.233h-2.892v-11.233h-3.99v-2.761h10.872z" fill="#231f20"/><path d="m26.63 19.747h-2.139v-11.232h-3.99v-2.009h10.119v2.009h-3.99z" fill="#003984"/><path d="m54.611 10.013c0-.654-.411-1.351-1.567-1.351h-4.258v2.68h4.258c1.157 0 1.567-.716 1.567-1.329m-1.617.698h-3.598v-1.362h3.598c.603 0 .909.232.909.692 0 .305-.158.67-.909.67z" fill="#231f20"/><path d="m57.15 19.517h-2.524l-3.371-5.696-.056-.093h-2.79v5.789h-2.137v-5.789h-1.628v-2.009h1.628v-5.442h6.555c2.773 0 4.299 1.327 4.299 3.736 0 1.198-.427 3.264-3.283 3.652l-.289.039.152.247zm-8.741-11.232v3.434h4.635c1.344 0 1.944-.857 1.944-1.706 0-.797-.509-1.728-1.944-1.728z" fill="#003984"/><path d="m54.176 13.993 3.65 5.901h-3.416l-.11-.185-3.315-5.604h-2.198v5.789h-2.892v-5.789h-1.626v-2.764h1.626v-5.442h6.933c2.742 0 4.402 1.279 4.643 3.53.127-.317.273-.624.445-.916-.582-2.058-2.412-3.245-5.138-3.245h-7.592v5.443h-1.626v4.08h1.626v5.791h4.212v-5.791h1.162l3.179 5.375.247.416h4.979l-.801-1.294-3.008-4.862c.76-.271 1.387-.693 1.868-1.238-.024-.306-.037-.638-.04-1.042-.454.813-1.286 1.57-2.808 1.847" fill="#231f20"/><path d="m71.469 11.405-.154-.651h-2.535l2.546-1.743-.516-.706c-1.632-2.234-3.75-3.319-6.476-3.319-2.793 0-5.174 1.407-6.42 3.528.105.374.166.78.187 1.21.929-2.419 3.356-4.107 6.284-4.107 2.47 0 4.32.917 5.82 2.887l.239.315-.327.224-1.683 1.153-.296.203-.217-.285c-.945-1.236-2.217-1.864-3.776-1.864-1.599 0-3.36.983-3.55 3.135h10.258l.059.305c.086.435.1.896.1 1.597 0 4.734-3.57 6.89-6.889 6.89-2.855 0-5.099-1.728-6.154-3.206l-.236-.333.352-.21 1.83-1.091.289-.172.204.268c1.063 1.402 2.349 2.112 3.824 2.112 2.466 0 3.797-1.745 3.884-3.528h-10.272l-.049-.32c-.058-.386-.099-.808-.104-1.547-.173.384-.397.73-.669 1.038.023.277.055.535.102.809l.117.709h2.439l-.008.005-2.908 1.733.486.741c.895 1.367 3.338 3.679 6.824 3.679 3.751 0 7.549-2.592 7.549-7.548.001-.841-.022-1.366-.154-1.911m-10.121-.651c.472-1.41 1.875-1.817 2.748-1.817 1.412 0 2.507.566 3.346 1.73l.063.087zm5.949 3.952c-.318 1.173-1.322 2.206-3.114 2.206-1.298 0-2.438-.663-3.39-1.971l-.172-.235z" fill="#231f20"/><path d="m57.69 11.922c0-.778.15-1.516.412-2.199-.021-.43-.082-.835-.188-1.209-.172.291-.318.598-.445.915.021.189.033.381.033.583 0 .508-.082 1.347-.52 2.134.003.404.016.737.04 1.042.271-.308.495-.654.668-1.038.001-.074 0-.147 0-.228" fill="#231f20"/><path d="m64.124 19.8c-2.91 0-4.988-1.843-5.846-3.048l1.829-1.091c1.14 1.501 2.526 2.26 4.126 2.26 2.8 0 4.266-2.058 4.266-4.092v-.189h-10.33c-.064-.433-.102-.889-.102-1.718 0-3.324 2.773-5.928 6.318-5.928 2.339 0 4.099.871 5.521 2.738l-1.683 1.153c-1.022-1.336-2.393-2.012-4.077-2.012-1.821 0-3.831 1.156-3.94 3.692l-.008.197h10.346c.078.402.094.833.094 1.525-.001 4.475-3.378 6.513-6.514 6.513" fill="#003984"/></svg>