<svg xmlns="http://www.w3.org/2000/svg" viewBox="193.92000000000002 80.64 574.0799999999999 796.8" style="max-height: 500px" width="268.36556277270125" height="372.6260514457194"><defs><clipPath id="a" clipPathUnits="userSpaceOnUse"><path d="M-661.415 273.374h720v-720h-720Z"/></clipPath><clipPath id="b" clipPathUnits="userSpaceOnUse"><path d="M-264.629 296.301h720v-720h-720Z"/></clipPath><clipPath id="c" clipPathUnits="userSpaceOnUse"><path d="M-266.226 293.897h720v-720h-720Z"/></clipPath><clipPath id="d" clipPathUnits="userSpaceOnUse"><path d="M-454.94 614.835h720v-720h-720Z"/></clipPath><clipPath id="e" clipPathUnits="userSpaceOnUse"><path d="M-454.447 619.135h720v-720h-720Z"/></clipPath><clipPath id="f" clipPathUnits="userSpaceOnUse"><path d="M-454.94 614.835h720v-720h-720Z"/></clipPath><clipPath id="g" clipPathUnits="userSpaceOnUse"><path d="M-454.447 619.135h720v-720h-720Z"/></clipPath><clipPath id="h" clipPathUnits="userSpaceOnUse"><path d="M-487.898 579.844h720v-720h-720Z"/></clipPath><clipPath id="i" clipPathUnits="userSpaceOnUse"><path d="M-487.895 577.344h720v-720h-720Z"/></clipPath><clipPath id="j" clipPathUnits="userSpaceOnUse"><path d="M-314.28 270.864h720v-720h-720Z"/></clipPath><clipPath id="k" clipPathUnits="userSpaceOnUse"><path d="M-523.225 411.725h720v-720h-720Z"/></clipPath><clipPath id="l" clipPathUnits="userSpaceOnUse"><path d="M-462.413 369.47h720v-720h-720Z"/></clipPath><clipPath id="m" clipPathUnits="userSpaceOnUse"><path d="M-499.276 413.857h720v-720h-720Z"/></clipPath><clipPath id="n" clipPathUnits="userSpaceOnUse"><path d="M-512.066 418.622h720v-720h-720Z"/></clipPath><clipPath id="o" clipPathUnits="userSpaceOnUse"><path d="M-407.783 392.402h720v-720h-720Z"/></clipPath><clipPath id="p" clipPathUnits="userSpaceOnUse"><path d="M-436.808 340.098h720v-720h-720Z"/></clipPath><clipPath id="q" clipPathUnits="userSpaceOnUse"><path d="M-437.67 327.597h720v-720h-720Z"/></clipPath><clipPath id="r" clipPathUnits="userSpaceOnUse"><path d="M-421.864 326.16h720v-720h-720Z"/></clipPath><clipPath id="s" clipPathUnits="userSpaceOnUse"><path d="M-399.736 344.122h720v-720h-720Z"/></clipPath><clipPath id="t" clipPathUnits="userSpaceOnUse"><path d="M-429.767 285.64h720v-720h-720Z"/></clipPath><clipPath id="u" clipPathUnits="userSpaceOnUse"><path d="M-421.002 297.422h720v-720h-720Z"/></clipPath><clipPath id="v" clipPathUnits="userSpaceOnUse"><path d="M-421.433 287.939h720v-720h-720Z"/></clipPath><clipPath id="w" clipPathUnits="userSpaceOnUse"><path d="M-394.276 247.562h720v-720h-720Z"/></clipPath><clipPath id="x" clipPathUnits="userSpaceOnUse"><path d="M-392.12 231.756h720v-720h-720Z"/></clipPath><clipPath id="y" clipPathUnits="userSpaceOnUse"><path d="M-385.798 223.997h720v-720h-720Z"/></clipPath><clipPath id="z" clipPathUnits="userSpaceOnUse"><path d="M-420.427 309.924h720v-720h-720Z"/></clipPath><clipPath id="A" clipPathUnits="userSpaceOnUse"><path d="M-373.297 329.753h720v-720h-720Z"/></clipPath><clipPath id="B" clipPathUnits="userSpaceOnUse"><path d="M-315.82 351.45h720v-720h-720Z"/></clipPath><clipPath id="C" clipPathUnits="userSpaceOnUse"><path d="M-316.396 371.423h720v-720h-720Z"/></clipPath><clipPath id="D" clipPathUnits="userSpaceOnUse"><path d="M-325.88 324.149h720v-720h-720Z"/></clipPath><clipPath id="E" clipPathUnits="userSpaceOnUse"><path d="M-335.075 331.477h720v-720h-720Z"/></clipPath><clipPath id="F" clipPathUnits="userSpaceOnUse"><path d="M-346.14 340.673h720v-720h-720Z"/></clipPath><clipPath id="G" clipPathUnits="userSpaceOnUse"><path d="M-358.353 345.99h720v-720h-720Z"/></clipPath><clipPath id="H" clipPathUnits="userSpaceOnUse"><path d="M-371.09 352.35h720v-720h-720Z"/></clipPath><clipPath id="I" clipPathUnits="userSpaceOnUse"><path d="M-337.806 271.99h720v-720h-720Z"/></clipPath><clipPath id="J" clipPathUnits="userSpaceOnUse"><path d="M-363.239 231.756h720v-720h-720Z"/></clipPath><clipPath id="K" clipPathUnits="userSpaceOnUse"><path d="M-316.827 280.036h720v-720h-720Z"/></clipPath><clipPath id="L" clipPathUnits="userSpaceOnUse"><path d="M-320.173 288.408h720v-720h-720Z"/></clipPath><clipPath id="M" clipPathUnits="userSpaceOnUse"><path d="M-296.349 354.95h720v-720h-720Z"/></clipPath><clipPath id="N" clipPathUnits="userSpaceOnUse"><path d="M-360.97 430.69h720v-720h-720Z"/></clipPath><clipPath id="O" clipPathUnits="userSpaceOnUse"><path d="M-305.74 353.623h720v-720h-720Z"/></clipPath><clipPath id="P" clipPathUnits="userSpaceOnUse"><path d="M-311.069 390.97h720v-720h-720Z"/></clipPath><clipPath id="Q" clipPathUnits="userSpaceOnUse"><path d="M-324.4 418.577h720v-720h-720Z"/></clipPath><clipPath id="R" clipPathUnits="userSpaceOnUse"><path d="M-313.456 451.413h720v-720h-720Z"/></clipPath><clipPath id="S" clipPathUnits="userSpaceOnUse"><path d="M-299.46 445.492h720v-720h-720Z"/></clipPath><clipPath id="T" clipPathUnits="userSpaceOnUse"><path d="M-291.585 457.054h720v-720h-720Z"/></clipPath><clipPath id="U" clipPathUnits="userSpaceOnUse"><path d="M-329.942 521.69h720v-720h-720Z"/></clipPath><clipPath id="V" clipPathUnits="userSpaceOnUse"><path d="M-288.533 530.715h720v-720h-720Z"/></clipPath><clipPath id="W" clipPathUnits="userSpaceOnUse"><path d="M-351.045 564.029h720v-720h-720Z"/></clipPath><clipPath id="X" clipPathUnits="userSpaceOnUse"><path d="M-355.956 616.455h720v-720h-720Z"/></clipPath><clipPath id="Y" clipPathUnits="userSpaceOnUse"><path d="M-331.402 614.597h720v-720h-720Z"/></clipPath><clipPath id="Z" clipPathUnits="userSpaceOnUse"><path d="M-302.734 561.905h720v-720h-720Z"/></clipPath><clipPath id="aa" clipPathUnits="userSpaceOnUse"><path d="M-282.693 543.191h720v-720h-720Z"/></clipPath><clipPath id="ab" clipPathUnits="userSpaceOnUse"><path d="M-273.004 510.94h720v-720h-720Z"/></clipPath><clipPath id="ac" clipPathUnits="userSpaceOnUse"><path d="M-252.697 525.008h720v-720h-720Z"/></clipPath><clipPath id="ad" clipPathUnits="userSpaceOnUse"><path d="M-410.556 223.617h720v-720h-720Z"/></clipPath><clipPath id="ae" clipPathUnits="userSpaceOnUse"><path d="M-442.589 222.832h720v-720h-720Z"/></clipPath><clipPath id="af" clipPathUnits="userSpaceOnUse"><path d="M-284.062 360.582h720v-720h-720Z"/></clipPath><clipPath id="ag" clipPathUnits="userSpaceOnUse"><path d="M-273.062 319.864h720v-720h-720Z"/></clipPath><clipPath id="ah" clipPathUnits="userSpaceOnUse"><path d="M-276.15 319.478h720v-720h-720Z"/></clipPath><clipPath id="ai" clipPathUnits="userSpaceOnUse"><path d="M-268.43 324.496h720v-720h-720Z"/></clipPath><clipPath id="aj" clipPathUnits="userSpaceOnUse"><path d="M-264.571 360.39h720v-720h-720Z"/></clipPath><clipPath id="ak" clipPathUnits="userSpaceOnUse"><path d="M-258.975 381.038h720v-720h-720Z"/></clipPath><clipPath id="al" clipPathUnits="userSpaceOnUse"><path d="M-256.08 364.249h720v-720h-720Z"/></clipPath><clipPath id="am" clipPathUnits="userSpaceOnUse"><path d="M-248.554 370.81h720v-720h-720Z"/></clipPath><clipPath id="an" clipPathUnits="userSpaceOnUse"><path d="M-239.098 390.108h720v-720h-720Z"/></clipPath><clipPath id="ao" clipPathUnits="userSpaceOnUse"><path d="M-198.38 363.09h720v-720h-720Z"/></clipPath><clipPath id="ap" clipPathUnits="userSpaceOnUse"><path d="M-236.783 345.337h720v-720h-720Z"/></clipPath><clipPath id="aq" clipPathUnits="userSpaceOnUse"><path d="M-241.993 339.74h720v-720h-720Z"/></clipPath><clipPath id="ar" clipPathUnits="userSpaceOnUse"><path d="M-257.624 308.093h720v-720h-720Z"/></clipPath><clipPath id="as" clipPathUnits="userSpaceOnUse"><path d="M-223.274 344.565h720v-720h-720Z"/></clipPath><clipPath id="at" clipPathUnits="userSpaceOnUse"><path d="M-224.239 327.97h720v-720h-720Z"/></clipPath><clipPath id="au" clipPathUnits="userSpaceOnUse"><path d="M-238.133 300.374h720v-720h-720Z"/></clipPath><clipPath id="av" clipPathUnits="userSpaceOnUse"><path d="M-158.048 355.565h720v-720h-720Z"/></clipPath><clipPath id="aw" clipPathUnits="userSpaceOnUse"><path d="M-168.276 353.828h720v-720h-720Z"/></clipPath><clipPath id="ax" clipPathUnits="userSpaceOnUse"><path d="M-196.45 341.285h720v-720h-720Z"/></clipPath><clipPath id="ay" clipPathUnits="userSpaceOnUse"><path d="M-200.503 336.846h720v-720h-720Z"/></clipPath><clipPath id="az" clipPathUnits="userSpaceOnUse"><path d="M-210.924 326.232h720v-720h-720Z"/></clipPath><clipPath id="aA" clipPathUnits="userSpaceOnUse"><path d="M-219.608 314.654h720v-720h-720Z"/></clipPath><clipPath id="aB" clipPathUnits="userSpaceOnUse"><path d="M-229.499 297.843h720v-720h-720Z"/></clipPath><clipPath id="aC" clipPathUnits="userSpaceOnUse"><path d="M-225.011 298.25h720v-720h-720Z"/></clipPath><clipPath id="aD" clipPathUnits="userSpaceOnUse"><path d="M-210.053 294.484h720v-720h-720Z"/></clipPath><clipPath id="aE" clipPathUnits="userSpaceOnUse"><path d="M-208.222 293.426h720v-720h-720Z"/></clipPath><clipPath id="aF" clipPathUnits="userSpaceOnUse"><path d="M-233.995 292.655h720v-720h-720Z"/></clipPath><clipPath id="aG" clipPathUnits="userSpaceOnUse"><path d="M-362.398 119.07h720v-720h-720Z"/></clipPath><clipPath id="aH" clipPathUnits="userSpaceOnUse"><path d="M-370.28 304.32h720v-720h-720Z"/></clipPath><clipPath id="aI" clipPathUnits="userSpaceOnUse"><path d="M-353.324 278.886h720v-720h-720Z"/></clipPath><clipPath id="aJ" clipPathUnits="userSpaceOnUse"><path d="M-376.99 228.638h720v-720h-720Z"/></clipPath><clipPath id="aK" clipPathUnits="userSpaceOnUse"><path d="M-351.169 245.838h720v-720h-720Z"/></clipPath><clipPath id="aL" clipPathUnits="userSpaceOnUse"><path d="M-470.863 343.264h720v-720h-720Z"/></clipPath><clipPath id="aM" clipPathUnits="userSpaceOnUse"><path d="M-335.215 463.455h720v-720h-720Z"/></clipPath><clipPath id="aN" clipPathUnits="userSpaceOnUse"><path d="M-344.486 538.515h720v-720h-720Z"/></clipPath><clipPath id="aP" clipPathUnits="userSpaceOnUse"><path d="M-335.586 484.462h720v-720h-720Z"/></clipPath><clipPath id="aQ" clipPathUnits="userSpaceOnUse"><path d="M-337.388 503.933h720v-720h-720Z"/></clipPath><clipPath id="aR" clipPathUnits="userSpaceOnUse"><path d="M-336.543 496.6h720v-720h-720Z"/></clipPath><clipPath id="aS" clipPathUnits="userSpaceOnUse"><path d="M-335.931 489.698h720v-720h-720Z"/></clipPath><clipPath id="aT" clipPathUnits="userSpaceOnUse"><path d="M-186.177 273.08h720v-720h-720Z"/></clipPath><clipPath id="aU" clipPathUnits="userSpaceOnUse"><path d="M-499.265 565.218h720v-720h-720Z"/></clipPath><clipPath id="aX" clipPathUnits="userSpaceOnUse"><path d="M-447.083 643.853h720v-720h-720Z"/></clipPath><clipPath id="aY" clipPathUnits="userSpaceOnUse"><path d="M-530.769 554.468h720v-720h-720Z"/></clipPath><clipPath id="ba" clipPathUnits="userSpaceOnUse"><path d="M-72.299 105.047H0V0h-72.299z"/></clipPath><clipPath id="aZ" clipPathUnits="userSpaceOnUse"><path d="M0 .002h959.998V960H0Z"/></clipPath><clipPath id="bb" clipPathUnits="userSpaceOnUse"><path d="M-383.618 469.42h720v-720h-720Z"/></clipPath><clipPath id="bc" clipPathUnits="userSpaceOnUse"><path d="M-504.314 515.918h720v-720h-720Z"/></clipPath><clipPath id="bd" clipPathUnits="userSpaceOnUse"><path d="M-446.572 639.587h720v-720h-720Z"/></clipPath><clipPath id="be" clipPathUnits="userSpaceOnUse"><path d="M-522.797 552.402h720v-720h-720Z"/></clipPath><clipPath id="bf" clipPathUnits="userSpaceOnUse"><path d="M-474.487 598.719h720v-720h-720Z"/></clipPath><clipPath id="bg" clipPathUnits="userSpaceOnUse"><path d="M-519.52 551.553h720v-720h-720Z"/></clipPath><clipPath id="bh" clipPathUnits="userSpaceOnUse"><path d="M-506.63 547.963h720v-720h-720Z"/></clipPath><clipPath id="bi" clipPathUnits="userSpaceOnUse"><path d="M-504.79 512.86h720v-720h-720Z"/></clipPath><clipPath id="bj" clipPathUnits="userSpaceOnUse"><path d="M-504.79 512.86h720v-720h-720Z"/></clipPath><clipPath id="bk" clipPathUnits="userSpaceOnUse"><path d="M-410.914 342.189h720v-720h-720Z"/></clipPath><clipPath id="bl" clipPathUnits="userSpaceOnUse"><path d="M-388.124 347.57h720v-720h-720Z"/></clipPath><clipPath id="bm" clipPathUnits="userSpaceOnUse"><path d="M-288.533 530.715h720v-720h-720Z"/></clipPath><clipPath id="bn" clipPathUnits="userSpaceOnUse"><path d="M-282.693 543.191h720v-720h-720Z"/></clipPath><clipPath id="bo" clipPathUnits="userSpaceOnUse"><path d="M-273.004 510.94h720v-720h-720Z"/></clipPath><clipPath id="bp" clipPathUnits="userSpaceOnUse"><path d="M-255.11 524.059h720v-720h-720Z"/></clipPath><clipPath id="bq" clipPathUnits="userSpaceOnUse"><path d="M-369.975 528.452h720v-720h-720Z"/></clipPath><clipPath id="br" clipPathUnits="userSpaceOnUse"><path d="M-412.49 592.79h720v-720h-720Z"/></clipPath><clipPath id="bs" clipPathUnits="userSpaceOnUse"><path d="M-514.353 507.882h720v-720h-720Z"/></clipPath><clipPath id="bt" clipPathUnits="userSpaceOnUse"><path d="M-421.995 474.589h720v-720h-720Z"/></clipPath><clipPath id="bu" clipPathUnits="userSpaceOnUse"><path d="M-454.111 499.001h720v-720h-720Z"/></clipPath><clipPath id="bv" clipPathUnits="userSpaceOnUse"><path d="M-481.708 499.001h720v-720h-720Z"/></clipPath><clipPath id="bw" clipPathUnits="userSpaceOnUse"><path d="M-511.546 499.001h720v-720h-720Z"/></clipPath><clipPath id="bx" clipPathUnits="userSpaceOnUse"><path d="M-539.165 499.001h720v-720h-720Z"/></clipPath><clipPath id="by" clipPathUnits="userSpaceOnUse"><path d="M-487.856 520.326h720v-720h-720Z"/></clipPath><clipPath id="bz" clipPathUnits="userSpaceOnUse"><path d="M-437.014 519.726h720v-720h-720Z"/></clipPath><clipPath id="bA" clipPathUnits="userSpaceOnUse"><path d="M-382.399 535.045h720v-720h-720Z"/></clipPath><clipPath id="bB" clipPathUnits="userSpaceOnUse"><path d="M-277.955 572.922h720v-720h-720Z"/></clipPath><clipPath id="bC" clipPathUnits="userSpaceOnUse"><path d="M-259.456 550.55h720v-720h-720Z"/></clipPath><clipPath id="bD" clipPathUnits="userSpaceOnUse"><path d="M-180.277 486.713h720v-720h-720Z"/></clipPath><clipPath id="bE" clipPathUnits="userSpaceOnUse"><path d="M-544.342 526.191h720v-720h-720Z"/></clipPath><clipPath id="bF" clipPathUnits="userSpaceOnUse"><path d="M-539.036 560.346h720v-720h-720Z"/></clipPath><clipPath id="bG" clipPathUnits="userSpaceOnUse"><path d="M-494.721 528.83h720v-720h-720Z"/></clipPath><clipPath id="bH" clipPathUnits="userSpaceOnUse"><path d="M-430.514 513.596h720v-720h-720Z"/></clipPath><clipPath id="bI" clipPathUnits="userSpaceOnUse"><path d="M-424.932 538.622h720v-720h-720Z"/></clipPath><clipPath id="bJ" clipPathUnits="userSpaceOnUse"><path d="M-419.693 509.873h720v-720h-720Z"/></clipPath><clipPath id="bK" clipPathUnits="userSpaceOnUse"><path d="M-386.757 551.302h720v-720h-720Z"/></clipPath><clipPath id="bL" clipPathUnits="userSpaceOnUse"><path d="M-374.376 570.732h720v-720h-720Z"/></clipPath><clipPath id="bM" clipPathUnits="userSpaceOnUse"><path d="M-391.621 532.626h720v-720h-720Z"/></clipPath><clipPath id="bN" clipPathUnits="userSpaceOnUse"><path d="M-335.789 511.23h720v-720h-720Z"/></clipPath><clipPath id="bO" clipPathUnits="userSpaceOnUse"><path d="M-487.459 544.338h720v-720h-720Z"/></clipPath><clipPath id="bP" clipPathUnits="userSpaceOnUse"><path d="M-314.644 526.444h720v-720h-720Z"/></clipPath><clipPath id="bQ" clipPathUnits="userSpaceOnUse"><path d="M-302.97 511.904h720v-720h-720Z"/></clipPath><clipPath id="bR" clipPathUnits="userSpaceOnUse"><path d="M-465.616 511.904h720v-720h-720Z"/></clipPath><clipPath id="bS" clipPathUnits="userSpaceOnUse"><path d="M-244.45 555.434h720v-720h-720Z"/></clipPath><clipPath id="bT" clipPathUnits="userSpaceOnUse"><path d="M-253.83 515.098h720v-720h-720Z"/></clipPath><clipPath id="bU" clipPathUnits="userSpaceOnUse"><path d="M-211.866 568.529h720v-720h-720Z"/></clipPath><clipPath id="bV" clipPathUnits="userSpaceOnUse"><path d="M-554.103 523.921h720v-720h-720Z"/></clipPath><clipPath id="bW" clipPathUnits="userSpaceOnUse"><path d="M-528.153 571.622h720v-720h-720Z"/></clipPath></defs><path clip-path="url(#a)" transform="matrix(1.33333 0 0 -1.33333 881.887 364.499)" style="fill:#191919;fill-opacity:1;fill-rule:nonzero;stroke:none" d="M0 0c-.001-.004-.006-.004-.007-.009C-.016-.053-.011-.041 0 0"/><path clip-path="url(#b)" transform="matrix(1.33333 0 0 -1.33333 352.838 395.069)" style="fill:#fff;fill-opacity:1;fill-rule:nonzero;stroke:none" d="M0 0c2.722-.174 4.205-.256 4.993-.295 3.19 3.214 17.206 15.817 37.042 11.515.876 5.761 2.278 13.536 3.605 14.641.72.601 2.383 1.417 3.545 1.952 1.103 6.256 7.833 36.535 36.061 48.112-3.485 3.384-8.758 10.264-9.736 21.516C59.592 80.97 2.612 20.051-8.616 8.042-5.815 6.627-1.644 3.955 0 0m5.816-4.33c-.092 0-1.089.012-7.424.426a2 2 0 0 0-1.819 1.542c-.942 4.052-6.991 7.024-9.243 7.827a2 2 0 0 0-1.272 1.412c-.16.655.021 1.347.481 1.838 3.266 3.496 80.098 85.712 89.42 94.894a2 2 0 0 0 3.402-1.471c-.382-16.476 9.04-23.925 10.933-25.251a2 2 0 0 0-.506-3.532C57.88 62.541 53.019 26.544 52.973 26.182a2 2 0 0 0-1.187-1.587c-1.32-.574-2.72-1.265-3.333-1.637-.689-1.924-2.198-10.413-2.78-14.488a1.997 1.997 0 0 0-2.51-1.645C22.228 12.581 7.904-3 7.306-3.665a2 2 0 0 0-1.49-.665m-18.213-87.065.001-.005zm22.543-111.201.003-.004zm83.41-127.321-.002-.003zm-.005-.006-.007-.007zm-.008-.008-.006-.007zm-.008-.009-.007-.007zm-.008-.009q-.004-.003-.006-.008zm35.7 6.959c.448 0 .894-.15 1.261-.448a193 193 0 0 1 8.172-6.288c13.755-10.013 29.128-18.516 45.709-25.28a227 227 0 0 1 21.398 15.139c9.218 7.363 17.702 15.379 25.215 23.828 7.326 8.264 13.793 17.008 19.222 25.987 6.442 10.656 11.612 21.926 15.37 33.496 17.655 54.299 4.37 115.212 1.994 125.127l-.12.008-.788.05a2 2 0 0 0-1.794 1.428c-.452 1.526-.897 2.817-1.255 3.632a2 2 0 0 0 1.285 2.725c1.054.301 3.135 4.657 3.374 8.465-3.657 51.124-39.109 66.351-39.464 66.464-.526.166-.96.542-1.2 1.038-1.619 3.358-7.696 9.476-30.21 12.734l-.606.089a2 2 0 0 0-1.532 1.17c-2.463 5.572-14.08 10.285-20.321 12.818-1.857.753-3.323 1.348-4.226 1.821a2 2 0 0 0-.591 3.073c.492.576 1.652 3.438 2.485 5.885l-.351 23.39-3.128 2.383a2 2 0 0 0-.787 1.516c-.005.148-.562 14.835-1.284 20.437a2 2 0 0 0 3.361 1.706c11.948-11.351 20.069-14.687 25.929-15.91-2.615 2.298-5.169 4.907-6.063 6.693a2.001 2.001 0 0 0 2.546 2.746c23.047-9.424 39.354 3.558 45.718 10.151-15.742-.299-25.017 6.657-28.27 9.09l-.44.328a2 2 0 0 0 1.012 3.605c34.568 2.968 39.953 24.921 40.669 34.229-13.553-10.303-26.256-9.575-34.794-6.95-9.935 3.055-16.304 9.158-16.571 9.416-.092.095-4.264 4.436-7.451 6.916a2 2 0 0 0 .432 3.413c14.288 6.2 17.309 18.413 17.631 24.485-18.247-13.122-39.207-2.255-54.738 5.797-3.318 1.72-6.452 3.345-9.137 4.496-14.786 6.338-29.286 3.261-29.43 3.229a2 2 0 0 0-2.146.926 2 2 0 0 0 .195 2.327l16.361 19.119 29.718 61.999-65.802-32.215-14.908-16.831-126.473-152.23a2 2 0 0 0-1.536-.722h-.002c-.594 0-1.156.264-1.536.72-.292.35-7.161 8.596-9.47 11.615-1.324 1.731-1.813 3.481-1.949 4.885l-11.527-1.876c-.738-3.11-2.472-10.411-3.241-13.602 2.142-1.589 6.221-5.381 14.764-14.161a2 2 0 0 0 .389-2.218 2.04 2.04 0 0 0-1.922-1.174l-.06.001c-1.169 0-2.026-1.737-2.943-3.833-.351-.804-.684-1.562-1.073-2.175a2 2 0 0 0-2-.901c-4.036.641-6.321-3.826-8.008-8.279a53 53 0 0 0-.306-.794 2.01 2.01 0 0 0-1.974-1.254c-.957.09-3.241-1.986-5.677-7.835a2 2 0 0 0-.926-1.006c-3.671-1.903-5.98-4.44-6.867-7.539-1.584-5.54 1.766-11.281 1.8-11.338a2.01 2.01 0 0 0-.183-2.308l-10.839-12.971a2 2 0 0 0-1.478-.717c-.049-.001-5.344-.216-8.81-3.374-2.597-4.143-3.462-7.974-2.567-11.391.995-3.805 4.06-7.112 9.112-9.831 4.907-1.737 9.092-1.689 12.441.138 5.51 3.008 7.17 9.952 7.185 10.022.091.393.3.755.597 1.028l6.574 6.041c.27.248.603.417.961.489.498.1 3.041.505 4.442-1.244q.184-.23.294-.503c11.653-28.966 23.966-30.864 28.602-31.579l.42-.065a2 2 0 0 0 1.567-1.3c2.523-7.037 5.591-7.136 10.674-7.298a76 76 0 0 0 2.131-.088c4.504-.254 10.502 7.01 12.486 10.981a1.998 1.998 0 0 0 3.582-.008c1.7-2.032 17.127-9.592 22.053-11.052a2 2 0 0 0 1.39-2.326c-4.061-19.419 6.829-42.446 8.613-45.249a2 2 0 0 0 .312-1.074c0-10.496 5.44-23.215 8.683-29.862a2 2 0 0 0-1.003-2.712c-3.279-1.421-3.581-7.386-3.421-9.565a2.005 2.005 0 0 0-1.259-2.011c-.074-.029-7.458-2.961-10.945-5.453-1.591-1.136-1.787-1.958-1.73-2.186a2 2 0 0 0-.851-2.775c-.366-.182-36.912-18.392-55.276-29.76-13.028-8.065-15.517-12.574-16.059-15.593 16.26 4.1 37.503-5.858 63.208-29.659 16.061-14.871 29.226-31.047 33.87-36.95 1.117 1.94 2.686 4.887 4.026 8.24a2 2 0 0 0 1.448 1.215 2 2 0 0 0 1.812-.534c11.307-11.137 27.88-18.326 30.557-18.501 1.131.494 2.526 1.269 4.267 2.234 1.294.718 2.757 1.53 4.427 2.401a2 2 0 0 0 2.165-.204c7.328-5.792 9.979-6.645 10.591-6.77q.195.062.401.083c4.055.42 10.743 1.262 12.544 1.863 1.499.499 2.899 2.814 3.271 3.586a1.995 1.995 0 0 0 2.051 1.12s.57-.07 1.609-.208c2.1-.276 6.354-.853 11.71-1.663a13 13 0 0 1 2.048 1.22c.353.258.769.387 1.184.387m55.307-36.243a1.9 1.9 0 0 0-.723.137c-17.244 6.948-33.226 15.742-47.504 26.136a196 196 0 0 0-7.201 5.498 19 19 0 0 0-2.008-1.032 2 2 0 0 0-1.11-.148 640 640 0 0 1-12.225 1.743q-.13.018-.252.032c-.896-1.427-2.574-3.589-4.892-4.36-2.546-.849-10.684-1.758-12.923-1.997-1.61-.713-4.909.146-13.33 6.673a215 215 0 0 1-3.2-1.752c-1.96-1.087-3.508-1.946-4.881-2.518-3.754-1.561-21.563 7.641-32.568 17.45-2.266-4.986-4.624-8.544-4.739-8.717a2 2 0 0 0-1.608-.89 1.95 1.95 0 0 0-1.655.797c-.605.805-60.834 80.195-97.209 66.672a2 2 0 0 0-2.687 2.083c.032.293.042.6.056.927.2 4.894 1.764 10.519 18.116 20.642C-31.525-221.653-.637-206.041 6.222-202.6c.022 1.521.814 3.467 3.407 5.319 2.971 2.122 8.105 4.384 10.505 5.389.03 2.643.545 8.128 4.071 10.976-3.357 7.146-8.133 19.08-8.301 29.424-2.728 4.771-12.438 26.465-9.169 45.982-4.673 1.801-15.635 6.701-20.521 10.279-2.716-4.144-8.673-11.338-14.985-10.967-.688.041-1.363.062-2.025.083-5.128.164-10.423.333-13.883 8.824-2.729.448-7.235 1.447-12.563 5.726-6.802 5.461-12.902 14.726-18.135 27.544l-.042.001-5.646-5.188c-.6-2.085-2.917-8.67-8.969-11.993-4.432-2.431-9.774-2.555-15.879-.362q-.138.05-.266.118c-7.667 4.089-10.337 9.009-11.228 12.417-1.203 4.598-.126 9.567 3.2 14.768q.13.203.302.368c3.637 3.479 8.634 4.353 10.694 4.57l9.445 11.304c-1.124 2.379-3.1 7.693-1.549 13.167 1.138 4.019 3.907 7.272 8.236 9.679 2.405 5.552 5.011 8.725 7.767 9.467 1.255 3.29 4.25 10.552 10.749 10.565.087.194.177.4.269.609.66 1.51 1.601 3.659 3.213 4.998-5.754 5.836-10.918 10.757-12.437 11.841a2 2 0 0 0-1.567 2.495c.154.569 2.408 10.043 3.885 16.272a2 2 0 0 0 1.625 1.513l15.281 2.488a2.002 2.002 0 0 0 2.24-2.539c-.015-.06-.535-2.135 1.092-4.262 1.603-2.096 5.61-6.958 7.828-9.634L77.842 179.066l15.212 17.175c.173.195.383.355.617.47L165 231.633a2.001 2.001 0 0 0 2.684-2.661l-32.321-67.429a2 2 0 0 0-.284-.435l-13.131-15.344c5.934.466 16.058.303 26.517-4.179 2.819-1.209 6.017-2.867 9.402-4.622 15.378-7.973 36.437-18.892 53.308-3.896a2 2 0 0 0 3.24-.906c.779-2.53 1.294-21.625-16.835-31.322a106 106 0 0 0 5.409-5.219c.903-.869 23.682-22.294 49.236.481a2.002 2.002 0 0 0 3.324-1.327c.126-1.513 2.483-35.753-39.029-42.026 4.994-3.017 13.735-6.757 26.417-5.376a1.999 1.999 0 0 0 1.867-3.118c-4.995-7.304-22.288-23.16-46.257-17.376 2.348-2.105 4.882-4.07 5.935-4.596a2 2 0 0 0-1.194-3.767c-.705.107-1.462.185-2.278.27-6.056.63-14.963 1.556-29.5 14.212.4-5.418.69-12.169.79-14.642l3.151-2.401c.488-.372.778-.948.788-1.561l.371-24.705a2 2 0 0 0-.102-.663c-.315-.942-1.154-3.376-2.056-5.314.596-.248 1.272-.522 1.988-.813 6.886-2.794 18.183-7.377 21.955-13.886 17.667-2.606 28.563-7.361 32.419-14.141 8.76-3.424 38.204-23.642 41.455-69.838q.008-.123.002-.245c-.156-2.955-1.614-8.593-4.37-11.105.136-.384.266-.773.387-1.15q.489-.032.978-.059a2 2 0 0 0 1.823-1.483c.181-.679 17.85-68.621-1.71-128.783-3.853-11.861-9.152-23.411-15.751-34.33-5.554-9.185-12.167-18.126-19.654-26.573-7.667-8.62-16.316-16.794-25.71-24.297a232 232 0 0 0-22.5-15.858 2 2 0 0 0-.117-.067 2.1 2.1 0 0 0-1.113-.316"/><path clip-path="url(#c)" transform="matrix(1.33333 0 0 -1.33333 354.968 391.863)" style="fill:#fff;fill-opacity:1;fill-rule:nonzero;stroke:none" d="M0 0c1.031-.064 1.825-.11 2.434-.145 4.68 4.44 17.713 14.677 35.935 11.885 1.946 11.866 3.265 12.964 4.073 13.637.235.196.879.733 2.926 1.744 1.639 8.098 8.873 35.025 34.101 47.268-2.681 3.277-5.753 8.301-7.267 15.258C54.361 70.986 10.533 24.163-6.234 6.233-3.896 4.711-1.518 2.654 0 0m4.219-9.234c-.233 0-1.467.031-7.588.431a4.47 4.47 0 0 0-4.089 3.469c-.549 2.357-4.794 5.022-7.649 6.041a4.49 4.49 0 0 0-2.862 3.175 4.49 4.49 0 0 0 1.085 4.137c.797.853 79.926 85.545 89.491 94.967a4.49 4.49 0 0 0 4.94.927 4.48 4.48 0 0 0 2.717-4.239c-.354-15.201 8.157-21.946 9.867-23.143a4.48 4.48 0 0 0 1.872-4.326 4.48 4.48 0 0 0-3.011-3.622C58.767 58.339 53.9 23.807 53.855 23.459a4.52 4.52 0 0 0-2.668-3.561 42 42 0 0 1-2.223-1.043c-.653-2.597-1.842-9.144-2.413-13.143a4.502 4.502 0 0 0-5.65-3.702C21.433 7.364 8.125-7.122 7.567-7.741a4.52 4.52 0 0 0-3.348-1.493m205.498 61.347.005-.004zM-79.74-14.436c.042-.004.058 0 .123-.005zm246.365-2.255-.021-.024zM-16.493-93.804H-14Zm0 0H-14Zm279.102-29.782-.01-.003zM6.385-206.087l2.154 1.076zm-.068-.035-.001-.001zm121.312-116.772a4.5 4.5 0 0 0 2.837-1.007 191 191 0 0 1 8.067-6.208c13.264-9.655 28.06-17.893 43.998-24.5a225 225 0 0 1 20.077 14.291c9.109 7.275 17.489 15.193 24.909 23.536 7.222 8.149 13.599 16.769 18.95 25.619 6.342 10.492 11.432 21.585 15.132 32.975 16.586 51.013 5.67 107.465 2.335 122.087a4.52 4.52 0 0 0-3.062 3.042c-.419 1.413-.837 2.631-1.148 3.342a4.5 4.5 0 0 0 .05 3.719 4.5 4.5 0 0 0 2.338 2.237c.628.832 1.848 3.597 2.053 6.233-1.484 20.324-8.179 37.222-19.898 50.227-8.81 9.775-17.307 13.622-17.931 13.895a4.5 4.5 0 0 0-2.579 2.298c-1.13 2.342-6.151 8.137-28.317 11.345l-.608.088a4.48 4.48 0 0 0-3.46 2.636c-2.052 4.643-13.907 9.454-18.97 11.509-1.921.779-3.436 1.393-4.45 1.925a4.47 4.47 0 0 0-2.33 3.135 4.47 4.47 0 0 0 .943 3.708c.292.471 1.128 2.408 1.937 4.729l-.327 21.737-2.162 1.648a4.48 4.48 0 0 0-1.77 3.41c-.006.151-.561 14.752-1.265 20.211a4.51 4.51 0 0 0 2.426 4.589c1.693.86 3.757.56 5.135-.75 6.457-6.133 11.659-9.771 15.832-11.986a4.53 4.53 0 0 0 .802 4.909 4.52 4.52 0 0 0 5.005 1.106c17.582-7.187 31.049-.385 38.578 5.592-12.859 1.316-20.724 7.201-23.561 9.323l-.449.335a4.515 4.515 0 0 0-1.658 4.832 4.52 4.52 0 0 0 3.948 3.27c10.07.865 32.69 5.199 37.574 26.487-12.673-7.533-24.322-6.516-32.219-4.089-10.493 3.227-17.291 9.735-17.576 10.01l-.077.078c-.431.446-4.301 4.428-7.17 6.66a4.52 4.52 0 0 0-1.702 4.118 4.52 4.52 0 0 0 2.676 3.563c10.055 4.363 13.859 11.9 15.293 17.233-18.22-9.27-37.878.925-52.557 8.535-3.276 1.699-6.371 3.303-8.971 4.418-13.931 5.97-27.774 3.113-27.914 3.084a4.49 4.49 0 0 0-4.824 2.085 4.495 4.495 0 0 0 .441 5.235l16.149 18.871 26.464 55.212-58.892-28.833-14.58-16.46L-45.27 20.23a4.49 4.49 0 0 0-3.457-1.624c-1.343 0-2.604.59-3.461 1.62-.068.081-7.148 8.575-9.535 11.696a12.2 12.2 0 0 0-1.901 3.556l-7.542-1.228c-.706-2.974-1.772-7.458-2.486-10.438 2.733-2.29 7.088-6.531 13.754-13.382a4.475 4.475 0 0 0 .875-4.993 4.54 4.54 0 0 0-3.731-2.628c-.403-.567-.975-1.876-1.182-2.349-.375-.856-.761-1.739-1.254-2.514a4.5 4.5 0 0 0-4.5-2.029c-1.784.284-3.418-1.781-5.279-6.695-.132-.347-.232-.61-.321-.833a4.49 4.49 0 0 0-3.916-2.826c-.461-.392-1.912-1.884-3.75-6.299A4.5 4.5 0 0 0-85.039-23c-3.035-1.574-4.924-3.596-5.615-6.008-1.268-4.438 1.526-9.338 1.554-9.387a4.51 4.51 0 0 0-.421-5.173L-100.36-56.54a4.5 4.5 0 0 0-3.327-1.613c-.011-.001-4.199-.213-6.95-2.509-2.071-3.413-2.771-6.481-2.079-9.125.802-3.066 3.396-5.814 7.709-8.17 4.128-1.425 7.568-1.412 10.228.04 4.461 2.434 5.936 8.342 5.95 8.402a4.5 4.5 0 0 0 1.336 2.292l6.576 6.043a4.5 4.5 0 0 0 2.162 1.098c2.15.436 5.093.104 6.884-2.13q.416-.525.662-1.133c11.121-27.646 22.413-29.387 26.663-30.042l.424-.067a4.5 4.5 0 0 0 3.537-2.925c1.948-5.438 3.574-5.49 8.399-5.643a80 80 0 0 0 2.31-.095c2.686 0 7.862 5.344 9.992 9.606a4.53 4.53 0 0 0 4.223 2.484 4.51 4.51 0 0 0 3.609-2.097c1.939-1.711 15.886-8.726 20.749-10.168 2.228-.658 3.602-2.957 3.127-5.234-3.834-18.332 6.648-40.838 8.275-43.395.46-.722.703-1.557.703-2.415 0-9.997 5.281-22.315 8.43-28.767a4.52 4.52 0 0 0 .175-3.535 4.52 4.52 0 0 0-2.432-2.568c-1.444-.626-2.102-4.615-1.921-7.086a4.48 4.48 0 0 0-2.831-4.519c-1.989-.788-7.734-3.249-10.413-5.163a6 6 0 0 1-.486-.384 4.51 4.51 0 0 0-2.432-4.78c-1.514-.755-37.098-18.52-55.077-29.65-6.403-3.963-10.708-7.338-13.003-10.207 16.356 1.433 36.678-8.995 60.536-31.085 13.954-12.92 25.698-26.758 31.767-34.268a59 59 0 0 1 2.108 4.652 4.5 4.5 0 0 0 3.256 2.734 4.48 4.48 0 0 0 4.079-1.198c10.415-10.258 25.041-16.753 28.472-17.681.902.44 2.002 1.05 3.323 1.783l1.308-2.134-1.213 2.187c1.302.722 2.775 1.539 4.452 2.414a4.51 4.51 0 0 0 4.873-.461c5.711-4.515 8.317-5.808 9.192-6.159 4.712.487 10.645 1.294 12.001 1.747.415.182 1.371 1.389 1.809 2.299a4.48 4.48 0 0 0 4.629 2.513h-.001c.001 0 .577-.071 1.613-.208 1.967-.259 5.931-.795 10.949-1.548q.544.305 1 .641a4.47 4.47 0 0 0 2.664.873m55.308-41.243c-.574 0-1.129.106-1.653.315-17.436 7.027-33.6 15.92-48.047 26.436a201 201 0 0 0-5.996 4.54q-.36-.175-.73-.338a4.47 4.47 0 0 0-2.481-.336c-4.666.71-8.531 1.247-10.934 1.57-1.234-1.611-2.989-3.289-5.284-4.053-2.518-.839-9.158-1.648-13.119-2.076-2.473-.857-6.03.033-14.157 6.155q-.927-.508-1.753-.969c-2.03-1.126-3.632-2.014-5.133-2.64-5.241-2.185-22.335 7.396-32.682 15.765-1.761-3.448-3.295-5.791-3.504-6.106a4.51 4.51 0 0 0-3.62-2.007c-1.413-.077-2.825.595-3.725 1.795-16.481 21.938-65.559 76.533-94.339 65.829a4.47 4.47 0 0 0-4.329.665 4.47 4.47 0 0 0-1.715 4.022c.023.219.031.443.04.679.282 6.879 3.607 13.039 19.302 22.756 15.811 9.788 44.987 24.614 53.25 28.774.41 1.713 1.541 3.774 4.251 5.71 2.621 1.873 6.664 3.785 9.528 5.035.217 2.938 1.012 6.914 3.497 9.839-3.551 7.829-7.464 18.534-7.781 28.203-3.576 6.569-11.748 26.544-9.442 45.072-4.478 1.845-12.114 5.309-17.119 8.427-3.138-4.221-8.968-10.408-15.777-10.023-.623.037-1.232.056-1.83.076l-.129.004c-5.128.164-11.455.366-15.56 9.106-3.162.656-7.508 2.089-12.371 5.994-6.533 5.245-12.411 13.742-17.499 25.284l-2.569-2.361c-.909-2.79-3.632-9.329-9.955-12.801-5.09-2.791-11.12-2.968-17.927-.523a4 4 0 0 0-.579.254c-8.481 4.523-11.471 10.109-12.489 14-1.387 5.3-.205 10.935 3.513 16.748q.286.447.671.819c3.675 3.514 8.473 4.716 11.139 5.124l7.83 9.372c-1.263 3.177-2.534 8.181-1.048 13.428 1.258 4.442 4.179 8.056 8.686 10.755 2.335 5.145 4.9 8.326 7.8 9.662 1.362 3.389 4.523 9.98 10.986 10.983.433.96.987 2.083 1.738 3.146-5.017 5.036-8.751 8.535-10.145 9.656a4.47 4.47 0 0 0-2.84 5.432c.142.533 2.116 8.82 3.863 16.188a4.49 4.49 0 0 0 3.656 3.403l15.281 2.488a4.5 4.5 0 0 0 4.098-1.464 4.48 4.48 0 0 0 .972-4.141c-.032-.191-.135-1.118.649-2.144 1.187-1.553 3.719-4.652 5.848-7.235L74.322 178.259l15.263 17.235c.389.44.855.796 1.386 1.056l71.332 34.924a4.501 4.501 0 0 0 6.037-5.987l-32.319-67.428a4.5 4.5 0 0 0-.64-.981l-9.451-11.044c6.219-.094 13.961-1.144 21.922-4.556 2.904-1.245 6.14-2.923 9.567-4.699 15.554-8.066 34.909-18.102 50.497-4.247a4.48 4.48 0 0 0 4.204.969 4.48 4.48 0 0 0 3.087-3.009c.809-2.624 1.819-21.441-15.069-32.499a108 108 0 0 0 3.057-3.047c.82-.785 21.939-20.621 45.769.617a4.53 4.53 0 0 0 4.664.819 4.47 4.47 0 0 0 2.814-3.802c.122-1.461 2.365-33.806-33.709-43.197 5.587-2.001 11.723-2.65 18.335-1.93 1.776.178 3.442-.649 4.348-2.161a4.51 4.51 0 0 0-.147-4.854c-4.313-6.307-18.914-20.376-39.656-19.672a4.48 4.48 0 0 0 .666-4.039 4.49 4.49 0 0 0-4.954-3.089c-.666.101-1.369.173-2.127.252-5.666.589-13.875 1.443-26.426 11.118.169-3.018.299-5.881.379-7.78l2.218-1.69a4.48 4.48 0 0 0 1.773-3.509l.371-24.708a4.5 4.5 0 0 0-.232-1.492 72 72 0 0 0-1.14-3.163c7.178-2.915 17.583-7.214 22.149-13.756 17.418-2.699 28.117-7.434 32.64-14.449 10.804-4.736 39.058-26.515 42.235-71.656q.02-.284.004-.57c-.135-2.561-1.12-7.032-3.196-10.361a4.5 4.5 0 0 0 1.934-2.644c.183-.688 18.026-69.38-1.748-130.2-3.911-12.039-9.291-23.765-15.989-34.849-5.631-9.312-12.334-18.376-19.923-26.938-7.766-8.731-16.519-17.004-26.02-24.592a234 234 0 0 0-22.744-16.03 4 4 0 0 0-.194-.114 4.6 4.6 0 0 0-2.352-.644"/><path clip-path="url(#d)" transform="matrix(1.33333 0 0 -1.33333 606.586 819.78)" style="fill:#fff;fill-opacity:1;fill-rule:nonzero;stroke:none" d="m0 0-.13.259zm.317-.636-.29.517-.277.291.13.094.323-.547.254-.254z"/><path clip-path="url(#e)" transform="matrix(1.33333 0 0 -1.33333 605.929 825.513)" style="fill:#fff;fill-opacity:1;fill-rule:nonzero;stroke:none" d="m0 0-1.567 2.747-1.978 2.074L1.13 8.196l1.587-2.664 2.079-2.078Z"/><path clip-path="url(#f)" transform="matrix(1.33333 0 0 -1.33333 606.586 819.78)" style="fill:#fff;fill-opacity:1;fill-rule:nonzero;stroke:none" d="m0 0-.13.259zm.317-.636-.29.517-.277.291.13.094.323-.547.254-.254z"/><path clip-path="url(#g)" transform="matrix(1.33333 0 0 -1.33333 605.929 825.513)" style="fill:#fff;fill-opacity:1;fill-rule:nonzero;stroke:none" d="m0 0-1.567 2.747-1.978 2.074L1.13 8.196l1.587-2.664 2.079-2.078Z"/><path clip-path="url(#h)" transform="matrix(1.33333 0 0 -1.33333 650.53 773.125)" style="fill:#fff;fill-opacity:1;fill-rule:nonzero;stroke:none" d="m0 0 27.621-.129.258-.072c3.016-.838 6.548-1.296 10.496-1.362l.104-.001c1.151 0 7.315.077 14.168 1.593 8.982 1.989 15.358 5.525 18.952 10.509 5.184 7.195 7.354 16.549 5.661 24.41-.694 3.223-1.998 6.032-3.878 8.351l-2.643 3.26h10.565l1.688 4.43c.193.504 1.899 5.074 2.573 10.181.596 4.44-.584 8.494-3.413 11.726v.001c-4.006 4.58-10.919 7.012-21.13 7.437l-1.522.063-.626 2.707.177.534c.684 2.062.941 2.968 1.055 3.73l5.948 37.341H-66.875l-.244.062c-1.845.474-3.858.714-5.983.714-9.784 0-17.575-4.389-21.376-12.045-1.118-2.143-1.818-4.284-2.329-5.847a5393 5393 0 0 1-3.08-9.358l-.461-1.37c-.837-2.469-1.702-5.021-2.149-7.81l-.019-.122c-.311-2.203-.175-4.304.407-6.22l.749-2.462-2.571-.118c-3.108-.143-6.113-.506-8.932-1.079l-.399-.04h-45.518l-2.347-8.112-1.17 7.914h-77.68l-14.205-30.605-27.37-21.444 30.311 73.029h-76.609l26.04-18.733-33.474-81.236h194.52l-.898 2.51 4.008-1.464c4.064-1.485 9.269-2.238 15.467-2.238 4.73 0 9.172.452 13.203 1.343l.431.046h63.583l2.081.02 39.515-.076-.006.009zm38.464-5.564-.138.001c-4.193.07-7.973.553-11.256 1.436l-24.342.114-2.72-.026-42.882.083-2.077-.02h-63.386c-4.255-.921-8.913-1.389-13.85-1.389-4.942 0-9.214.433-12.94 1.318l.045-.126h-206.177l34.547 83.835-33.548 24.134h95.009l-26.758-64.471 14.605 11.443 14.875 32.048h80.685l.058.198h48.325c2.235.446 4.573.768 6.98.965-.265 1.771-.262 3.625.008 5.54l.025.158c.502 3.132 1.422 5.846 2.311 8.47l.45 1.34c1.016 3.089 2.036 6.192 3.08 9.353.552 1.691 1.312 4.014 2.566 6.416 4.481 9.029 13.579 14.229 24.939 14.229 2.367 0 4.628-.26 6.727-.776H70.741l-6.682-41.951c-.105-.702-.273-1.41-.624-2.556 10.161-.743 17.281-3.589 21.727-8.672 3.611-4.127 5.122-9.275 4.368-14.888-.733-5.555-2.591-10.53-2.8-11.079l-2.67-7.004h-5.38c1.128-2.049 1.962-4.314 2.49-6.769 1.924-8.934-.5-19.506-6.327-27.59-4.185-5.806-11.362-9.869-21.331-12.077-7.261-1.606-13.809-1.687-15.048-1.687"/><path clip-path="url(#i)" transform="matrix(1.33333 0 0 -1.33333 650.527 769.792)" style="fill:#fff;fill-opacity:1;fill-rule:nonzero;stroke:none" d="M0 0h.015l27.959-.131.583-.163c2.804-.779 6.125-1.207 9.863-1.269l.086-.001c1.094 0 7.003.074 13.604 1.535 8.364 1.85 14.24 5.057 17.463 9.529 4.784 6.64 6.794 15.231 5.245 22.422-.609 2.836-1.745 5.292-3.375 7.303l-5.946 7.334h14.087l1.075 2.821c.182.476 1.792 4.786 2.431 9.617.498 3.709-.477 7.08-2.816 9.753-3.532 4.037-9.862 6.191-19.352 6.586l-3.426.143-1.213 5.246.398 1.2c.626 1.887.867 2.722.956 3.314l5.49 34.47H-67.187l-.549.141c-1.644.421-3.448.635-5.363.635-8.798 0-15.774-3.883-19.136-10.656-1.048-2.01-1.709-4.034-2.193-5.513-1.048-3.171-2.066-6.271-3.081-9.36l-.467-1.388c-.806-2.381-1.636-4.831-2.049-7.409l-.016-.102c-.258-1.822-.149-3.552.326-5.118l1.686-5.538-5.784-.265a56 56 0 0 1-8.549-1.032l-.897-.09h-43.639l-5.019-17.346-2.535 17.148h-73.926l-13.787-29.703-35.349-27.696 32.531 78.379h-65.108l21.348-15.358-32.805-79.611h187.236l-1.499 4.188 9.017-3.293c3.789-1.385 8.704-2.087 14.61-2.087 4.547 0 8.808.431 12.663 1.284l.971.105h63.583l2.058.02L-4.203-.03zm38.467-10.564-.156.001c-4.281.071-8.163.555-11.568 1.438l-24.024.112-2.684-.026-42.911.083-2.049-.02h-63.144c-4.358-.921-9.105-1.389-14.115-1.389-4.797 0-8.951.39-12.664 1.192h-210.143l35.217 85.46-38.24 27.509h106.51l-24.538-59.122 6.625 5.191 15.294 32.951h80.408l.057.198h49.956c1.467.286 2.983.522 4.532.707a23 23 0 0 0 .225 3.647l.029.19c.538 3.357 1.492 6.171 2.415 8.892l.755 2.27c.913 2.775 1.83 5.566 2.767 8.404.579 1.768 1.373 4.198 2.725 6.789 4.902 9.88 14.809 15.572 27.155 15.572 2.455 0 4.816-.26 7.022-.776H73.674l-7.135-44.792c9.324-1.11 16.051-4.146 20.508-9.241 4.1-4.686 5.816-10.518 4.964-16.867-.768-5.819-2.721-11.057-2.942-11.635l-3.284-8.615h-3.239a29 29 0 0 0 1.071-3.743c2.069-9.604-.515-20.938-6.743-29.578C72.32-2.08 64.643-6.473 54.056-8.817c-7.515-1.663-14.304-1.747-15.589-1.747"/><path clip-path="url(#j)" transform="matrix(1.33333 0 0 -1.33333 419.041 361.153)" style="fill:#191919;fill-opacity:1;fill-rule:nonzero;stroke:none" d="M0 0s-3.227-1.403-4.068-2.104c-.842-.702-2.806-12.626-3.227-15.572-22.446 6.172-37.878-11.083-37.878-11.083s-.841 0-7.295.421c-1.402 6.032-10.521 9.259-10.521 9.259s79.964 85.575 89.363 94.834c-.421-18.097 10.381-25.953 11.784-26.935C4.63 37.457 0 0 0 0m219.285-141.536c-3.529 50.153-37.336 67.242-40.866 68.357-5.015 10.402-28.606 13.374-32.321 13.931-3.529 7.988-21.547 13.56-25.448 15.603 1.115 1.301 2.972 6.873 2.972 6.873l-.371 24.705-3.901 2.973s-.557 14.86-1.301 20.618C136.625-6.122 146.47-5.008 152.6-5.937c-2.229 1.115-10.031 7.616-11.517 10.588 29.535-12.074 48.667 10.774 51.082 14.303-18.761-2.043-29.349 6.687-32.135 8.731 43.28 3.715 42.909 36.036 42.537 40.494-27.305-24.334-52.011-.372-52.011-.372s-4.272 4.458-7.616 7.059c19.69 8.545 19.319 27.863 18.576 30.278-21.733-19.319-49.225 1.486-64.828 8.173s-30.649 3.343-30.649 3.343l16.532 19.319 32.321 67.428-71.33-34.921-15.171-17.127L-98.122-.919s-7.108 8.529-9.417 11.55c-2.311 3.02-1.422 6.041-1.422 6.041l-15.281-2.488s-3.69-15.56-3.902-16.338c.263.788 9.264-8.037 15.629-14.579-3.553.178-4.62-4.975-5.863-6.93-6.753 1.066-9.418-7.64-10.484-10.306-3.021.178-5.864-4.797-7.64-9.062-14.393-7.463-5.864-21.677-5.864-21.677l-10.839-12.972s-6.219-.177-10.306-4.086c-9.773-15.281 4.62-22.922 7.285-24.343 18.302-6.575 22.389 11.549 22.389 11.549l6.574 6.042s1.777.355 2.488-.534c12.438-30.917 26.12-32.161 30.562-32.872 3.376-9.417 8.529-8.351 14.57-8.706 6.042-.356 12.616 8.529 14.393 12.082.888-2.309 18.479-10.661 23.277-12.082-4.087-19.546 6.397-42.823 8.884-46.732 0-10.661 5.331-23.455 8.885-30.74-5.331-2.31-4.62-11.549-4.62-11.549s-7.641-3.021-11.372-5.686c-3.732-2.666-2.31-4.798-2.31-4.798s-36.781-18.302-55.438-29.851c-18.658-11.55-16.881-16.703-17.236-20.079 38.203 14.215 99.504-67.343 99.504-67.343s3.199 4.797 5.686 11.017c11.906-11.728 30.385-19.901 32.517-19.013s4.975 2.665 9.062 4.798c11.017-8.707 12.438-7.108 12.438-7.108s10.306 1.066 12.971 1.955c2.666.888 4.443 4.62 4.443 4.62s.565-.071 1.595-.207c2.237-.295 6.668-.896 12.264-1.748 7.641 3.376 6.946 9.094 6.946 9.094-55.314 59.796-64.472 88.275-70.411 169.616 2.625.456 5.3.998 8.004 1.602 1.23 5.397 3.921 12.445 9.807 18.002 6.652 1.012 33.699-1.246 50.936 9.3-4.305-3.891-24.264-13.401-33.893-14.346 3.935-.771 5.406-.75 12.568.291-.855-.666-2.108-1.492-3.646-2.428 19.308 7.084 37.014 15.25 47.793 20.545.012.303.06.669.156 1.116 2.586 18.059 6.466 28.461 9.915 35.107 21.697 39.008 40.52 33.807 43.107 32.795-13.507 1.445-26.727-16.47-32.905-25.282-12.521-14.18-14.999-37.498-15.323-41.263 3.775 1.921 5.901 3.093 5.845 3.127-.355-.323 5.467-2.232 14.587-4.783 1.234 1.766 8.247 6.209 10.945 9.52-3.636-1.63-21.065-10.407-16.802 9.028-2.257-3.009-4.389-6.019-5.015-10.156-.377 8.902 3.134 34.481 29.34 46.393 1.129.125 27.585 3.636 34.983-21.692-3.135 3.636-6.395 10.532-16.927 10.783 3.009-1.755 10.407-14.294 8.526-20.689-2.382-1.003-13.667-4.138-14.67-5.015 0 0 22.695 3.009 42.004-8.276-2.382 12.539-10.281 44.011-39.622 51.033 3.762.125 39.566-1.936 47.396-61.189-4.257 4.633-46.736 28.402-74.199-1.371a735 735 0 0 1 16.694-4.261c11.318 6.963 33.556 3.5 33.556 3.5-12.037.753-20.563-4.764-22.569-6.018-.026-.017-.052-.029-.078-.045 13.034-2.955 26.564-5.619 37.585-7.008l-2.148 8.307s1.379-1.38 4.388-4.765c1.008-1.134 1.772-2.605 2.349-4.06 4.539-.444 8.499-.609 11.615-.408-.546 1.972-1.159 3.857-1.682 5.051 2.601.743 4.644 6.873 4.83 10.403"/><path clip-path="url(#k)" transform="matrix(1.33333 0 0 -1.33333 697.634 548.967)" style="fill:#d0cbbe;fill-opacity:1;fill-rule:nonzero;stroke:none" d="M0 0c-7.83 59.253-43.635 61.314-47.396 61.189 29.34-7.022 37.24-38.494 39.622-51.033-19.31 11.285-42.005 8.276-42.005 8.276 1.004.878 12.288 4.012 14.671 5.015 1.88 6.395-5.517 18.934-8.527 20.689 10.533-.251 13.793-7.147 16.928-10.783-7.398 25.328-33.855 21.817-34.983 21.692-26.206-11.912-29.717-37.491-29.341-46.393.627 4.137 2.759 7.147 5.016 10.156C-90.279-.627-72.85 8.15-69.214 9.78c-2.697-3.31-9.71-7.754-10.944-9.52A569 569 0 0 1-74.2-1.371C-46.736 28.402-4.257 4.633 0 0"/><path clip-path="url(#l)" transform="matrix(1.33333 0 0 -1.33333 616.55 492.627)" style="fill:#f4f0e6;fill-opacity:1;fill-rule:nonzero;stroke:none" d="M0 0s-10.783-5.642-13.793-13.542c-.125-2.382-1.003-4.514-2.507-2.884s-2.884 10.909 4.012 13.793S0 0 0 0"/><path clip-path="url(#m)" transform="matrix(1.33333 0 0 -1.33333 665.702 551.81)" style="fill:#d0cbbe;fill-opacity:1;fill-rule:nonzero;stroke:none" d="M0 0s-22.238 3.462-33.556-3.5c3.55-.863 7.208-1.725 10.908-2.563l.078.044C-20.563-4.765-12.037.752 0 0"/><path clip-path="url(#n)" transform="matrix(1.33333 0 0 -1.33333 682.754 558.162)" style="fill:#d0cbbe;fill-opacity:1;fill-rule:nonzero;stroke:none" d="m0 0 2.148-8.306c1.583-.2 3.119-.375 4.589-.519-.576 1.456-1.341 2.927-2.348 4.06C1.379-1.379 0 0 0 0"/><path clip-path="url(#o)" transform="matrix(1.33333 0 0 -1.33333 543.71 523.202)" style="fill:#f4f0e6;fill-opacity:1;fill-rule:nonzero;stroke:none" d="M0 0s-8.621-13.076-20.979-15.231C-11.783-8.19 0 0 0 0"/><path clip-path="url(#p)" transform="matrix(1.33333 0 0 -1.33333 582.41 453.465)" style="fill:#d0cbbe;fill-opacity:1;fill-rule:nonzero;stroke:none" d="M0 0s1.437-7.328-10.346-13.651C-6.035-7.616 0 0 0 0"/><path clip-path="url(#q)" transform="matrix(1.33333 0 0 -1.33333 583.56 436.797)" style="fill:#d0cbbe;fill-opacity:1;fill-rule:nonzero;stroke:none" d="M0 0s11.495-3.018 13.651-8.621c-2.012.431-3.018 0-5.173 1.58S2.012-.287 0 0"/><path clip-path="url(#r)" transform="matrix(1.33333 0 0 -1.33333 562.486 434.88)" style="fill:#f4f0e6;fill-opacity:1;fill-rule:nonzero;stroke:none" d="M0 0s-3.88-22.99-3.592-33.049c-1.868-3.592-19.973-29.6-45.837-41.526 2.011 2.874 5.747 6.035 5.747 6.035s27.301 18.68 36.929 36.353C-6.61-25.721-4.454-3.88 0 0"/><path clip-path="url(#s)" transform="matrix(1.33333 0 0 -1.33333 532.981 458.83)" style="fill:#d0cbbe;fill-opacity:1;fill-rule:nonzero;stroke:none" d="M0 0s-1.868-27.445-5.891-31.756C-5.604-22.559-2.73-2.012 0 0"/><path clip-path="url(#t)" transform="matrix(1.33333 0 0 -1.33333 573.023 380.853)" style="fill:#d0cbbe;fill-opacity:1;fill-rule:nonzero;stroke:none" d="M0 0s3.018-14.944-2.299-25.864c-.431 8.334-1.15 13.938-1.15 13.938S-3.449-6.179 0 0"/><path clip-path="url(#u)" transform="matrix(1.33333 0 0 -1.33333 561.336 396.563)" style="fill:#f4f0e6;fill-opacity:1;fill-rule:nonzero;stroke:none" d="M0 0s-4.311-2.586-7.616-5.173C-10.92-7.759-37.072-21.697-38.222-21.41c.863 2.299 2.299 9.34 2.587 14.944 1.006-1.437 1.006-9.771 1.006-9.771L-4.167.431Z"/><path clip-path="url(#v)" transform="matrix(1.33333 0 0 -1.33333 561.91 383.919)" style="fill:#f4f0e6;fill-opacity:1;fill-rule:nonzero;stroke:none" d="M0 0s-4.454 4.598-8.765 5.604C-11.783 3.592-30.319-8.909-31.612-9.34c4.023.431 12.645 5.173 16.237 7.616S-8.765 5.891 0 0"/><path clip-path="url(#w)" transform="matrix(1.33333 0 0 -1.33333 525.701 330.083)" style="fill:#d0cbbe;fill-opacity:1;fill-rule:nonzero;stroke:none" d="M0 0s-.718-18.105-1.437-19.686c-.718-1.58-1.724-5.747-1.724-7.759 2.586 3.305 5.747 6.323 5.316 13.794C1.724-6.179 0 0 0 0"/><path clip-path="url(#x)" transform="matrix(1.33333 0 0 -1.33333 522.827 309.008)" style="fill:#d0cbbe;fill-opacity:1;fill-rule:nonzero;stroke:none" d="M0 0s36.785-9.915 30.893-51.441c-1.58 3.592-3.736 14.944-5.029 19.254S15.662-5.891 0 0"/><path clip-path="url(#y)" transform="matrix(1.33333 0 0 -1.33333 514.397 298.663)" style="fill:#d0cbbe;fill-opacity:1;fill-rule:nonzero;stroke:none" d="m0 0-7.328 3.592s-7.185-1.437-9.196-3.736c3.017 4.167 2.586 4.598 5.604 5.892 3.017 1.293 4.885 2.586 4.885 2.586s.431-2.443 1.437-2.73S0 1.437 0 0"/><path clip-path="url(#z)" transform="matrix(1.33333 0 0 -1.33333 560.57 413.231)" style="fill:#d0cbbe;fill-opacity:1;fill-rule:nonzero;stroke:none" d="M0 0s2.73-10.777-3.017-16.668c-5.748-5.891-17.531-13.507-17.531-13.507s-2.442-.431-4.167.144-13.938 7.759-13.938 7.759 12.501-5.029 14.369-4.742c1.868.288 4.167.575 4.167.575s6.179 3.592 9.197 6.322S-1.437-13.938 0 0"/><path clip-path="url(#A)" transform="matrix(1.33333 0 0 -1.33333 497.73 439.67)" style="fill:#d0cbbe;fill-opacity:1;fill-rule:nonzero;stroke:none" d="m0 0 3.161-.431s-8.19-67.966-10.346-72.851C-18.68-66.96-41.526-53.596-54.602-20.691c-.144 9.196.539 35.806.539 35.806l3.915-9.798 1.293 37.215 12.645 6.323S-8.621 30.175 5.46 26.87c0-3.305-1.149-17.674-1.149-17.674l-47.705 26.152s-3.88-16.381 4.167-24.859c7.471-6.897 17.961-16.955 23.996-14.225S-2.73 2.299-2.73 2.299z"/><path clip-path="url(#B)" transform="matrix(1.33333 0 0 -1.33333 421.095 468.6)" style="fill:#f4f0e6;fill-opacity:1;fill-rule:nonzero;stroke:none" d="M0 0s15.662-25.002 19.829-27.876C8.765-11.783 2.874 1.006 2.874 1.006l.575 35.779z"/><path clip-path="url(#C)" transform="matrix(1.33333 0 0 -1.33333 421.86 495.23)" style="fill:#f4f0e6;fill-opacity:1;fill-rule:nonzero;stroke:none" d="M0 0s13.507-21.554 22.99-28.02a2888 2888 0 0 0-2.299-8.477S9.196-27.301 0 0"/><path clip-path="url(#D)" transform="matrix(1.33333 0 0 -1.33333 434.506 432.199)" style="fill:#191919;fill-opacity:1;fill-rule:nonzero;stroke:none" d="m0 0-2.73-26.439s2.874-8.765 6.035-10.633C1.724-30.75.718-27.445.718-27.445z"/><path clip-path="url(#E)" transform="matrix(1.33333 0 0 -1.33333 446.767 441.97)" style="fill:#191919;fill-opacity:1;fill-rule:nonzero;stroke:none" d="m0 0-2.299-24.715s1.149-9.914 5.46-15.375c.144 5.748 2.587 34.486 2.587 34.486z"/><path clip-path="url(#F)" transform="matrix(1.33333 0 0 -1.33333 461.52 454.231)" style="fill:#191919;fill-opacity:1;fill-rule:nonzero;stroke:none" d="m0 0 6.322-3.449-3.448-37.934s-5.604 4.886-6.179 7.185C-3.305-30.75 0 0 0 0"/><path clip-path="url(#G)" transform="matrix(1.33333 0 0 -1.33333 477.804 461.32)" style="fill:#191919;fill-opacity:1;fill-rule:nonzero;stroke:none" d="m0 0 6.753-4.023-4.454-39.803-6.753 4.311z"/><path clip-path="url(#H)" transform="matrix(1.33333 0 0 -1.33333 494.786 469.8)" style="fill:#f4f0e6;fill-opacity:1;fill-rule:nonzero;stroke:none" d="m0 0 2.012 20.979.224 1.599L-.611 24.9s-9.102-5.074-11.987-5.843c-1.124-.3-4.456-.906-6.518.374-5.599 3.477-12.815 8.291-17.456 13.261-3.059 3.276-4.548 6.01-5.319 10.639-.575-2.73-.446-9.67 5.302-14.987 5.747-5.316 13.076-10.489 13.076-10.489s7.04-4.886 11.207-2.874S-.144 20.835-.144 20.835z"/><path clip-path="url(#I)" transform="matrix(1.33333 0 0 -1.33333 450.407 362.653)" style="fill:#d0cbbe;fill-opacity:1;fill-rule:nonzero;stroke:none" d="M0 0s17.674-21.697 42.101-27.445c.719 11.495 6.466 63.08.719 72.564-6.323.718-12.645-1.15-12.645-1.15s8.765-16.38 6.035-27.588c-2.73 12.357-9.196 26.726-9.196 26.726S-9.771 40.952-13.076-5.46c.288-.144 1.868 1.006 1.868 1.006s-.144-1.868.288-2.443S-7.328-9.627 0 0"/><path clip-path="url(#J)" transform="matrix(1.33333 0 0 -1.33333 484.318 309.008)" style="fill:#f4f0e6;fill-opacity:1;fill-rule:nonzero;stroke:none" d="M0 0s-24.14-7.759-38.365-44.975C-38.572-37.746-32.33 1.15 0 0"/><path clip-path="url(#K)" transform="matrix(1.33333 0 0 -1.33333 422.436 373.381)" style="fill:#939182;fill-opacity:1;fill-rule:nonzero;stroke:none" d="M0 0s9.771-16.955.287-28.738C-1.293-26.439-9.196-16.381 0 0"/><path clip-path="url(#L)" transform="matrix(1.33333 0 0 -1.33333 426.897 384.545)" style="fill:#d0cbbe;fill-opacity:1;fill-rule:nonzero;stroke:none" d="M0 0c-.095-.49-.027-4.973-.789-5.572-.168-.132-1.668 2.217-1.703 2.383 1.27-4.224-1.287-5.935-2.669-3.525 1.28-3.357.075-4.933-1.638-2.965.593-5.677 2.948-9.604 3.77-10.863C2.051-14.325 1.585-6.294 0 0"/><path clip-path="url(#M)" transform="matrix(1.33333 0 0 -1.33333 395.132 473.266)" style="fill:#f4f0e6;fill-opacity:1;fill-rule:nonzero;stroke:none" d="M0 0s5.357 16.964 10.714 22.321C8.705 16.517 4.464 4.018 0 0"/><path clip-path="url(#N)" transform="matrix(1.33333 0 0 -1.33333 481.293 574.254)" style="fill:#939182;fill-opacity:1;fill-rule:nonzero;stroke:none" d="M0 0c9.629.945 29.588 10.455 33.893 14.346-17.237-10.547-44.284-8.289-50.936-9.3-5.886-5.558-8.577-12.605-9.808-18.003C-15.128-10.34-2.81-6.441 8.921-2.137c1.539.936 2.792 1.762 3.647 2.428C5.406-.75 3.935-.771 0 0"/><path clip-path="url(#O)" transform="matrix(1.33333 0 0 -1.33333 407.653 471.498)" style="fill:#d0cbbe;fill-opacity:1;fill-rule:nonzero;stroke:none" d="M0 0s3.409-40.551 29.427-60.827c9.689-1.615 27.811-4.306 44.857.718-5.742-3.409-15.431-6.819-22.608-6.819s-21.891 1.974-21.891 1.974-17.584-8.433-6.818-78.052c-5.203 3.409-19.558 9.33-25.838 29.427 3.948-3.23 3.05-5.563 14.534-1.615 1.077-2.871 4.127-16.149 5.024-17.046-.718 13.995-1.077 53.291 4.486 66.748C15.252-57.597-6.998-30.144-3.409-8.613-1.077-3.768 0 0 0 0"/><path clip-path="url(#P)" transform="matrix(1.33333 0 0 -1.33333 414.759 521.293)" style="fill:#f4f0e6;fill-opacity:1;fill-rule:nonzero;stroke:none" d="M0 0s12.201-15.79 16.328-17.764c4.486-3.229 9.51-8.971 9.51-8.971S14.534-44.14 13.816-66.03c1.077 22.967 3.23 30.862 5.024 38.039.359 2.691-.359 5.562-.359 5.562S-.538-7.895 0 0"/><path clip-path="url(#Q)" transform="matrix(1.33333 0 0 -1.33333 432.535 558.103)" style="fill:#d0cbbe;fill-opacity:1;fill-rule:nonzero;stroke:none" d="M0 0s-3.947-20.814-4.306-22.788c-.359-1.973-1.436-8.253-1.436-8.253l-6.1-10.407s-26.197 7.715-31.042 33.553c-1.435 10.766-1.076 42.346 10.945 60.109-.717-6.639-3.409-20.634-3.05-23.326 3.23 7.178 5.204 14.893 8.972 21.532C-25.838 46.293-19.02 18.84 0 0"/><path clip-path="url(#R)" transform="matrix(1.33333 0 0 -1.33333 417.94 601.884)" style="fill:#d0cbbe;fill-opacity:1;fill-rule:nonzero;stroke:none" d="M0 0s-2.871-3.589-7.177 0C-3.947.359 0 0 0 0"/><path clip-path="url(#S)" transform="matrix(1.33333 0 0 -1.33333 399.28 593.989)" style="fill:#191919;fill-opacity:1;fill-rule:nonzero;stroke:none" d="M0 0s-13.637 17.046-11.125 49.523C-12.381 46.472-19.737 13.637 0 0"/><path clip-path="url(#T)" transform="matrix(1.33333 0 0 -1.33333 388.78 609.405)" style="fill:#d0cbbe;fill-opacity:1;fill-rule:nonzero;stroke:none" d="m0 0 5.044-5.176s5.441-24.289 32.251-44.595c.399-1.593.929-4.911.929-4.911S5.044-35.835 0 0"/><path clip-path="url(#U)" transform="matrix(1.33333 0 0 -1.33333 439.923 695.587)" style="fill:#d0cbbe;fill-opacity:1;fill-rule:nonzero;stroke:none" d="m0 0 3.584-22.563S-29.465 1.725-35.172 21.368l-.132 8.495S-22.43 7.565-6.902-.398c-2.123-.398-13.67 3.982-15.926 8.361C-19.378 2.787-11.547-5.574-11.149-7.3c1.195-1.46 9.025-8.627 9.025-8.627z"/><path clip-path="url(#V)" transform="matrix(1.33333 0 0 -1.33333 384.71 707.62)" style="fill:#d0cbbe;fill-opacity:1;fill-rule:nonzero;stroke:none" d="m0 0 5.043 5.973s-8.228 13.405-8.228 20.572c-1.593-.531-5.044-2.257-5.044-2.257z"/><path clip-path="url(#W)" transform="matrix(1.33333 0 0 -1.33333 468.06 752.039)" style="fill:#d0cbbe;fill-opacity:1;fill-rule:nonzero;stroke:none" d="M0 0s10.485-36.499 22.165-43.666C17.918-35.968 2.256-2.92 2.256-2.92Z"/><path clip-path="url(#X)" transform="matrix(1.33333 0 0 -1.33333 474.608 821.94)" style="fill:#d0cbbe;fill-opacity:1;fill-rule:nonzero;stroke:none" d="m0 0-5.973 3.318-20.97 61.584s7.698-14.069 8.096-15.263C-18.449 48.444 0 0 0 0"/><path clip-path="url(#Y)" transform="matrix(1.33333 0 0 -1.33333 441.87 819.462)" style="fill:#d0cbbe;fill-opacity:1;fill-rule:nonzero;stroke:none" d="M0 0s-5.309 2.124-6.238 6.105-11.016 32.783-14.069 70.875c2.655-5.707 2.787-9.291 2.787-9.291S-1.195.398 0 0"/><path clip-path="url(#Z)" transform="matrix(1.33333 0 0 -1.33333 403.645 749.207)" style="fill:#d0cbbe;fill-opacity:1;fill-rule:nonzero;stroke:none" d="m0 0-7.3-39.95s-16.723 16.989-18.183 22.165c3.185 8.893 14.201 35.039 24.819 47.382-.531-4.114-5.176-12.608-5.176-12.608l-14.865-34.11 10.751-15.131z"/><path clip-path="url(#aa)" transform="matrix(1.33333 0 0 -1.33333 376.924 724.255)" style="fill:#d0cbbe;fill-opacity:1;fill-rule:nonzero;stroke:none" d="m0 0-21.501-25.217S-47.515 1.991-67.822-.796c2.787 1.725 9.955 6.37 21.767 3.185 4.778-1.858 15.927-6.503 25.35-20.572C-18.05-15.529-3.451-.929 0 0"/><path clip-path="url(#ab)" transform="matrix(1.33333 0 0 -1.33333 364.005 681.253)" style="fill:#d0cbbe;fill-opacity:1;fill-rule:nonzero;stroke:none" d="m0 0 3.318-10.883-28.005-20.44s-12.21 8.627-19.908 6.769C-36.632-20.041 0 0 0 0"/><path clip-path="url(#ac)" transform="matrix(1.33333 0 0 -1.33333 336.93 700.01)" style="fill:#d0cbbe;fill-opacity:1;fill-rule:nonzero;stroke:none" d="m0 0-12.741-3.716-13.936-7.698s4.91 1.592 8.627.531C-15.263-8.76 0 0 0 0"/><path clip-path="url(#ad)" transform="matrix(1.33333 0 0 -1.33333 547.409 298.156)" style="fill:#d17128;fill-opacity:1;fill-rule:nonzero;stroke:none" d="M0 0c25.256-12.651 15.928-43.592 71.916-36.337-3.668-.475-18.925 5.148-25.284 15.141S34.924-.598 32.053.837C46.407-6.34 71.347-18.361 89.11 2.093 84.804.837 75.115-2.213 62.017 3.529c-17.165 7.794-38.629 32.198-50.06 32.834 13.636-.636 25.019-4.402 34.45 5.383-12.947-13.434-52.917 22.6-81.818-1.615 5.568 15.268 12.808 21.835 26.375 18.661-23.955 16.833-71.912-23.509-41.267-54.366-5.106 11.998-5.867 20.555 6.638 27.272-.696-3.84-3.573-12.167 3.23-21.71 2.153 6.1 6.818 19.737 24.043 20.634 9.151.359 26.376-3.05 39.115-20.455C18.596 12.679.295 23.983-17.648 15.55c7.895.718 30.682 1.974 46.651-30.682C13.323 2.12 1.903.992 0 0"/><path clip-path="url(#ae)" transform="matrix(1.33333 0 0 -1.33333 590.118 297.11)" style="fill:#e9923b;fill-opacity:1;fill-rule:nonzero;stroke:none" d="M0 0c11.715-5.858 30.482-14.939 46.644-6.96-4.569-.176-10.207.5-16.68 3.281-17.165 7.642-38.629 31.571-50.06 32.194 8.999 2.09 12.539.403 15.782-1.189-15.146 13.211-46.596 18.483-63.15 4.884-3.065 4.419 5.054 18.514 8.396 21.78-15.252-2.471-30.953-16.095-32.985-31.879.623-4.951 2.653-9.981 6.46-14.85-.332 2.13-4.582 16.368 9.875 23.6-3.502-10.372.709-18.174 3.23-21.71 2.153 6.1 6.818 19.737 24.043 20.634 9.151.359 26.376-3.051 39.115-20.455-1.966 1.197-7.15 4.385-13.976 6.487 4.848-3.02 9.668-7.216 13.976-12.986-2.121 1.265-7.992 4.804-15.629 6.827C-17.518 5.331-9.694-2.382-3.05-15.969c-3.209 3.53-7.371 7.324-10.288 9.416 3.215-3.821 8.749-33.964 41.233-31.648C7.177-30.118 2.871-7.725 0-6.317c2.152-1.055 4.543-2.217 7.111-3.362C4.111-4.667 1.647-.823 0 0"/><path clip-path="url(#af)" transform="matrix(1.33333 0 0 -1.33333 378.749 480.776)" style="fill:#939182;fill-opacity:1;fill-rule:nonzero;stroke:none" d="M0 0s1.737 27.789 22.578 49.402c-.579 4.631-1.351 8.105-1.158 10.807-.386 1.736-19.876 7.912-36.665-12.544C-17.368 44.192-29.525 9.842 0 0"/><path clip-path="url(#ag)" transform="matrix(1.33333 0 0 -1.33333 364.083 426.486)" style="fill:#191919;fill-opacity:1;fill-rule:nonzero;stroke:none" d="M0 0s-12.929-23.157 8.491-32.999c2.316 9.07 5.982 21.42 8.877 25.666-4.632-5.21-8.684-10.035-12.737-8.105C.579-13.508-1.544-11 0 0"/><path clip-path="url(#ah)" transform="matrix(1.33333 0 0 -1.33333 368.2 425.971)" style="fill:#f4f0e6;fill-opacity:1;fill-rule:nonzero;stroke:none" d="M0 0s8.491 8.684 16.789 14.087C12.736 12.929 4.631 11.386 0 0"/><path clip-path="url(#ai)" transform="matrix(1.33333 0 0 -1.33333 357.907 432.66)" style="fill:#f4f0e6;fill-opacity:1;fill-rule:nonzero;stroke:none" d="M0 0s8.139 18.413 26.245 25.859c-4.632-.386-16.982-2.702-23.157-12.544C-.386 7.526 0 0 0 0"/><path clip-path="url(#aj)" transform="matrix(1.33333 0 0 -1.33333 352.761 480.52)" style="fill:#939182;fill-opacity:1;fill-rule:nonzero;stroke:none" d="m0 0 4.245-3.667 4.632-8.876-5.596 4.438z"/><path clip-path="url(#ak)" transform="matrix(1.33333 0 0 -1.33333 345.3 508.05)" style="fill:#939182;fill-opacity:1;fill-rule:nonzero;stroke:none" d="M0 0s3.088-.193 4.438-1.351c1.351-1.158 6.176-6.754 6.176-6.754S6.368-7.14 5.21-5.982 0 0 0 0"/><path clip-path="url(#al)" transform="matrix(1.33333 0 0 -1.33333 341.44 485.665)" style="fill:#939182;fill-opacity:1;fill-rule:nonzero;stroke:none" d="M0 0s1.544 11.193 3.474 12.736c0 2.895-3.088 9.649-3.088 9.649S-3.474 6.561 0 0"/><path clip-path="url(#am)" transform="matrix(1.33333 0 0 -1.33333 331.405 494.413)" style="fill:#939182;fill-opacity:1;fill-rule:nonzero;stroke:none" d="M0 0s-1.544-8.877-3.474-10.035c-1.929-1.158-6.754-3.666-6.754-3.666S-.386-2.895 0 0"/><path clip-path="url(#an)" transform="matrix(1.33333 0 0 -1.33333 318.798 520.143)" style="fill:#939182;fill-opacity:1;fill-rule:nonzero;stroke:none" d="M0 0s-7.333-7.333-13.894-1.737c3.666.193 5.596.386 5.596.386z"/><path clip-path="url(#ao)" transform="matrix(1.33333 0 0 -1.33333 264.507 484.121)" style="fill:#939182;fill-opacity:1;fill-rule:nonzero;stroke:none" d="M0 0s17.368-32.034 32.613-18.333c-2.509-1.351-9.649-1.93-12.543 0S10.421-12.929 6.754-4.438C5.017-3.86 0 0 0 0"/><path clip-path="url(#ap)" transform="matrix(1.33333 0 0 -1.33333 315.71 460.45)" style="fill:#939182;fill-opacity:1;fill-rule:nonzero;stroke:none" d="M0 0s-3.667-12.929-15.245-14.087C-9.649-9.842-.579-2.702 0 0"/><path clip-path="url(#aq)" transform="matrix(1.33333 0 0 -1.33333 322.657 452.988)" style="fill:#939182;fill-opacity:1;fill-rule:nonzero;stroke:none" d="M0 0s8.491 5.017 9.456 7.14 3.473 14.473 3.473 14.473S2.895 1.158 0 0"/><path clip-path="url(#ar)" transform="matrix(1.33333 0 0 -1.33333 343.499 410.79)" style="fill:#f4f0e6;fill-opacity:1;fill-rule:nonzero;stroke:none" d="M0 0s.193-1.93 2.509-2.123 4.052.772 4.052.772z"/><path clip-path="url(#as)" transform="matrix(1.33333 0 0 -1.33333 297.699 459.42)" style="fill:#939182;fill-opacity:1;fill-rule:nonzero;stroke:none" d="M0 0s-11.579-17.368-22.578-8.684C-16.596-9.07-7.14-7.333 0 0"/><path clip-path="url(#at)" transform="matrix(1.33333 0 0 -1.33333 298.985 437.292)" style="fill:#939182;fill-opacity:1;fill-rule:nonzero;stroke:none" d="M0 0s1.93-1.544 4.438-.579 5.018 2.702 5.018 2.702l-7.14.772s6.754.965 9.456 3.28 3.473 5.79 3.473 5.79l-1.544 4.824s-1.736 5.403-6.947-3.474C1.544 4.438 0 0 0 0"/><path clip-path="url(#au)" transform="matrix(1.33333 0 0 -1.33333 317.511 400.498)" style="fill:#939182;fill-opacity:1;fill-rule:nonzero;stroke:none" d="M0 0s-.193-2.895.965-4.245 4.438-5.597 4.245-7.527 3.281 1.93 3.088 4.053.193.386 1.737-.193 1.93 3.86 1.93 4.824c0 .965-2.316 2.702-4.439 3.667S0 0 0 0"/><path clip-path="url(#av)" transform="matrix(1.33333 0 0 -1.33333 210.73 474.086)" style="fill:#939182;fill-opacity:1;fill-rule:nonzero;stroke:none" d="M0 0s-2.895-8.491 1.544-11.193c4.438-2.701 5.596-4.438 10.421-.965-2.316.386-2.895-.192-4.246 1.351C6.368-9.263 2.702-.193 0 0"/><path clip-path="url(#aw)" transform="matrix(1.33333 0 0 -1.33333 224.368 471.77)" style="fill:#939182;fill-opacity:1;fill-rule:nonzero;stroke:none" d="M0 0s-3.281-6.561.193-6.561S9.07.193 9.07.193L6.754 8.877Z"/><path clip-path="url(#ax)" transform="matrix(1.33333 0 0 -1.33333 261.934 455.046)" style="fill:#939182;fill-opacity:1;fill-rule:nonzero;stroke:none" d="M0 0s-2.123-3.86-2.509-4.438c-.386-.579.386-1.737.386-1.737S2.316-5.21 0 0"/><path clip-path="url(#ay)" transform="matrix(1.33333 0 0 -1.33333 267.337 449.128)" style="fill:#939182;fill-opacity:1;fill-rule:nonzero;stroke:none" d="M0 0s2.702-1.737 3.088-3.474c.386-1.736 1.157-1.35 1.157-1.35s4.439 4.438 0 8.491C3.667 2.123 0 0 0 0"/><path clip-path="url(#az)" transform="matrix(1.33333 0 0 -1.33333 281.232 434.977)" style="fill:#939182;fill-opacity:1;fill-rule:nonzero;stroke:none" d="M0 0s3.281-2.316 3.474-4.052c.193-1.737 3.473 2.508.386 6.947C2.895.386 0 0 0 0"/><path clip-path="url(#aA)" transform="matrix(1.33333 0 0 -1.33333 292.81 419.539)" style="fill:#939182;fill-opacity:1;fill-rule:nonzero;stroke:none" d="m0 0 2.702-2.702s1.543 4.439.965 5.79C2.316 1.93 0 0 0 0"/><path clip-path="url(#aB)" transform="matrix(1.33333 0 0 -1.33333 305.998 397.124)" style="fill:#d0cbbe;fill-opacity:1;fill-rule:nonzero;stroke:none" d="m0 0 4.003.364S-9.119 11.171-14.523 16.96c-5.403 5.789-15.245 18.526-15.245 18.526l-1.072-3.28c2.676-3.426 9.861-12.532 14.195-17.176C-12.501 10.59-3.823 3.204 0 0"/><path clip-path="url(#aC)" transform="matrix(1.33333 0 0 -1.33333 300.015 397.668)" style="fill:#939182;fill-opacity:1;fill-rule:nonzero;stroke:none" d="m0 0 4.488.408C.665 3.612-8.014 10.998-12.158 15.438c-4.333 4.644-11.518 13.75-14.194 17.176l-2.209-6.755z"/><path clip-path="url(#aD)" transform="matrix(1.33333 0 0 -1.33333 280.071 392.645)" style="fill:#939182;fill-opacity:1;fill-rule:nonzero;stroke:none" d="m0 0-32.869-32.051-.031-.662c-.193-4.053 11.192-16.017 12.35-16.21s3.088 2.894 3.088 2.894c-.193.772-.386 3.281-.386 3.281l-9.263 12.543 1.93 2.123s7.526-7.14 8.876-8.491c1.351-1.351 3.474-1.737 3.474-1.737s3.86 1.93 4.824 3.088c.965 1.158-5.982 9.649-5.982 9.649l-4.438 6.561 2.122.579 12.544-10.421s1.93-.772 3.281-.193c1.35.579 2.894 4.246 2.701 4.825S-8.2-11.1-8.2-11.1l2.509.579s4.632-4.246 7.333-6.754c2.702-2.509 8.877.965 9.07 2.701C10.874-9.728 3.872-2.722 0 0"/><path clip-path="url(#aE)" transform="matrix(1.33333 0 0 -1.33333 277.63 391.235)" style="fill:#d0cbbe;fill-opacity:1;fill-rule:nonzero;stroke:none" d="M0 0c-2.702.965-5.982-4.052-6.561-5.017s-.579-4.825-2.509-5.018-2.123.579-3.473.965c-1.351.386-1.158-.193-2.509-1.737-1.351-1.543-1.158-1.929-1.544-3.859s-.579-3.474-2.123-4.053-3.473.579-5.21 0-.579-4.824-1.351-7.14-.965-2.123-3.28-1.93c-2.186.183-2.309-1.7-2.478-5.319L1.831-1.058C1.078-.528.44-.157 0 0"/><path clip-path="url(#aF)" transform="matrix(1.33333 0 0 -1.33333 311.993 390.206)" style="fill:#d0cbbe;fill-opacity:1;fill-rule:nonzero;stroke:none" d="m0 0 151.679 158.627 31.649 53.068-57.314-34.157-34.862-41.178-10.271-12.133-96.512-113.999 2.316-2.895 125.82 134.891 49.981 49.98-8.298-11.578L-3.86 3.088Z"/><path clip-path="url(#aG)" transform="matrix(1.33333 0 0 -1.33333 483.198 158.761)" style="fill:#d0cbbe;fill-opacity:1;fill-rule:nonzero;stroke:none" d="M0 0c7.856 4.593 31.062 17.646 31.062 17.646l-60.069-62.607 56.806 55.839-41.336-48.346L27.074 6.889l27.073 30.216L-2.39 3.955l-40.638-48.191Z"/><path clip-path="url(#aH)" transform="matrix(1.33333 0 0 -1.33333 493.706 405.76)" style="fill:#f4f0e6;fill-opacity:1;fill-rule:nonzero;stroke:none" d="m0 0 .431-9.484 2.586-.574z"/><path clip-path="url(#aI)" transform="matrix(1.33333 0 0 -1.33333 471.099 371.849)" style="fill:#f4f0e6;fill-opacity:1;fill-rule:nonzero;stroke:none" d="M0 0s15.375-10.202 20.404-10.777c.718 6.179 1.437 23.996.144 27.014-1.581-9.627-4.311-19.398-4.311-19.398S13.938-5.173 0 0"/><path clip-path="url(#aJ)" transform="matrix(1.33333 0 0 -1.33333 502.653 304.85)" style="fill:#f4f0e6;fill-opacity:1;fill-rule:nonzero;stroke:none" d="M0 0c3.203-5.391 6.487-28.246 2.253-39.776C3.644-28.472 1.149-3.853 0 0"/><path clip-path="url(#aK)" transform="matrix(1.33333 0 0 -1.33333 468.225 327.784)" style="fill:#f4f0e6;fill-opacity:1;fill-rule:nonzero;stroke:none" d="M0 0s-6.322-3.592-4.885-19.254c-2.3.574-7.76 2.586-4.599 10.489C-6.897-4.454-3.161-.431 0 0"/><path clip-path="url(#aL)" transform="matrix(1.33333 0 0 -1.33333 627.817 457.685)" style="fill:#d0cbbe;fill-opacity:1;fill-rule:nonzero;stroke:none" d="M0 0c-2.586 1.011-21.41 6.212-43.107-32.796-3.449-6.645-7.328-17.048-9.915-35.107a7 7 0 0 1-.156-1.115c1.87.918 3.525 1.747 4.95 2.472.325 3.766 2.802 27.084 15.323 41.263C-26.726-16.47-13.507 1.445 0 0"/><path clip-path="url(#aM)" transform="matrix(1.33333 0 0 -1.33333 446.953 617.94)" style="fill:#f4f0e6;fill-opacity:1;fill-rule:nonzero;stroke:none" d="M0 0c.011.607.03 1.201.044 1.765C.03 1.201.01.614 0 0"/><path clip-path="url(#aN)" transform="matrix(1.33333 0 0 -1.33333 459.314 718.02)" style="fill:#f4f0e6;fill-opacity:1;fill-rule:nonzero;stroke:none" d="M0 0c.116-.398.24-.797.358-1.195A210 210 0 0 0-.546 1.92Q-.279.965 0 0"/><path clip-path="url(#aP)" transform="matrix(1.33333 0 0 -1.33333 447.449 645.95)" style="fill:#f4f0e6;fill-opacity:1;fill-rule:nonzero;stroke:none" d="M0 0c.028-.445.05-.898.079-1.351C.045-.815.018-.295-.011.231z"/><path clip-path="url(#aQ)" transform="matrix(1.33333 0 0 -1.33333 449.85 671.91)" style="fill:#f4f0e6;fill-opacity:1;fill-rule:nonzero;stroke:none" d="m0 0-.053.418z"/><path clip-path="url(#aR)" transform="matrix(1.33333 0 0 -1.33333 448.724 662.134)" style="fill:#f4f0e6;fill-opacity:1;fill-rule:nonzero;stroke:none" d="m0 0-.001.013z"/><path clip-path="url(#aS)" transform="matrix(1.33333 0 0 -1.33333 447.909 652.93)" style="fill:#f4f0e6;fill-opacity:1;fill-rule:nonzero;stroke:none" d="M0 0c.021-.274.045-.554.067-.83Q.024-.293-.016.238z"/><path clip-path="url(#aT)" transform="matrix(1.33333 0 0 -1.33333 248.236 364.105)" style="fill:#191919;fill-opacity:1;fill-rule:nonzero;stroke:none" d="M0 0c-.001-.004-.006-.004-.007-.009C-.016-.053-.011-.041 0 0"/><path clip-path="url(#aU)" transform="matrix(1.33333 0 0 -1.33333 665.687 753.624)" style="fill:#191919;fill-opacity:1;fill-rule:nonzero;stroke:none" d="M0 0c-6.891-13.487-15.774-24.582-24.778-33.501-10.43-10.34-21.015-17.755-28.828-22.589-.181.076-.363.146-.552.222v.007l-.892 10.26c.091-.035.174-.07.258-.106l-.513 3.009-.001.007-14.631 168.452q.377.194.754.398c.645-.208 1.284-.423 1.93-.63a.5.5 0 0 0 .09-.028c24.751-8.462 49.402-16.25 73.371-17.687 0 0 12.937-49.657-.948-94.04A119 119 0 0 0 .013.015C.014.008 0 0 0 0m8.508 110.964c-25.47 1.407-51.375 6.626-77.664 15.304-.015.005-.023.012-.045.017-.251-.135-.496-.262-.747-.397a338 338 0 0 0-19.313-9.488c-17.857-8.072-35.825-14.25-53.915-18.401 0 0-4.577-50.97 17.124-92.148 9.681-18.389 23.093-32.008 36.434-41.97 13.084-9.785 26.109-16.062 35.471-19.876q.273-.116.545-.223c7.827 4.843 18.425 12.266 28.876 22.615C-16.119-25.073-7.617-14.55-.857-1.848.037-.174.898 1.532 1.727 3.278a118 118 0 0 1 5.55 13.969c14.392 44.263 1.231 93.717 1.231 93.717"/><path clip-path="url(#aX)" transform="matrix(1.33333 0 0 -1.33333 596.11 858.47)" style="fill:#191919;fill-opacity:1;fill-rule:nonzero;stroke:none" d="M0 0c-.049-.025-.09-.057-.139-.083-23.457 9.46-66.152 31.522-90.286 77.333-4.261 8.091-7.708 16.478-10.492 24.879a179 179 0 0 0-2.331 7.545 216 216 0 0 0-1.999 7.51 175 175 0 0 0-1.16 4.948s.006.008-.001.007a210 210 0 0 0-1.494 7.319l-.001.007a196 196 0 0 0-.847 4.784v.007a259 259 0 0 0-2.907 25.214l-.006.071c-.24 3.571-.395 6.93-.479 10.039l-.007.092c-.026.814-.044 1.622-.053 2.402l-.009.105c-.007.511-.02 1.007-.018 1.497a.5.5 0 0 0-.002.106c-.013.751-.024 1.475-.026 2.184.004.043 0 .085.004.121q-.01 1.427-.001 2.747c.004.036.001.079.004.121 0 .433 0 .859.008 1.279q.009.66.022 1.279c.007.597.023 1.181.034 1.735.004.036.001.072.005.114.006.363.019.719.026 1.06q.021.546.035 1.047c.015.335.024.662.041.976l.021.513c.005.284.019.555.033.812q.02.417.042.791c.004.129.015.25.019.371.009.235.026.464.037.678.057.956.108 1.649.139 2.049.007.086.009.157.018.222.012.114.013.178.013.178 16.472 3.786 32.858 8.914 49.171 15.327a382 382 0 0 1 17.247 7.266c.956.43 1.912.859 2.867 1.303 1.91.88 3.826 1.775 5.734 2.684.953.458 1.907.915 2.867 1.381 1.906.929 3.81 1.88 5.721 2.838.951.479 1.91.966 2.86 1.459q2.78 1.428 5.554 2.909l-.919 10.584a465 465 0 0 0-11.368-5.849 309 309 0 0 0-4.174-2.06q-.892-.437-1.773-.861c-.695-.33-1.389-.666-2.077-.987q-1.346-.64-2.672-1.265a465 465 0 0 0-12.112-5.436c-.951-.408-1.901-.816-2.859-1.217a390 390 0 0 0-6.318-2.606 393 393 0 0 0-29.232-10.506 359 359 0 0 0-23.653-6.615c-1.451-.358-2.904-.695-4.357-1.032 0 0-2.692-29.903 3.821-66.317l.001-.007c3.403-19.06 9.331-39.913 19.49-59.191 13.678-25.963 32.804-44.95 51.631-58.645C-28.81 2.478-11.585-5.704.767-10.682q.07.05.153.091z"/><path clip-path="url(#aY)" transform="matrix(1.33333 0 0 -1.33333 707.692 739.29)" style="fill:#101112;fill-opacity:1;fill-rule:nonzero;stroke:none" d="M0 0c-4.051-12.471-9.422-23.756-15.561-33.913-5.915-9.784-12.562-18.523-19.439-26.28-8.41-9.458-17.18-17.448-25.461-24.062a229 229 0 0 0-22.305-15.721l-.92 10.591q1.766 1.101 3.677 2.331a189 189 0 0 1 6.225 4.195 197 197 0 0 1 6.712 4.904c6.154 4.678 12.71 10.215 19.217 16.663C-35.723-49.259-23.752-34.06-14.9-15.343A147 147 0 0 1-7.972 2.066C9.955 57.222-6.441 118.829-6.441 118.829c-16.876.936-33.894 3.208-51.059 6.76a402 402 0 0 0-12.137 2.717q-3.039.732-6.093 1.517c-1.015.261-2.03.522-3.046.797a565 565 0 0 0-6.106 1.672 437 437 0 0 0-3.053.875 421 421 0 0 0-15.326 4.759c-.056-.026-.105-.058-.161-.084l-.919 10.583c.056.033.119.06.175.093a426 426 0 0 1 7.819-2.504 430 430 0 0 1 12.402-3.675.3.3 0 0 1 .112-.033h.007c11.024-3.104 21.995-5.751 32.924-7.912v-.007a415 415 0 0 1 13.042-2.364c13.259-2.181 26.435-3.646 39.54-4.372 0 0 17.925-67.354-1.68-127.651"/><g clip-path="url(#aZ)" opacity=".5"><path clip-path="url(#ba)" transform="matrix(1.33333 0 0 -1.33333 592.63 814.566)" style="fill:#191919;fill-opacity:1;fill-rule:nonzero;stroke:none" d="M0 0q-.123.053-.257.106C-8.561 3.492-20.05 9.041-31.612 17.678c-11.828 8.835-23.706 20.903-32.289 37.2-3.528 6.697-6.271 13.682-8.398 20.628 5.187-11.149 11.859-18.849 15.4-20.995 31.572 16.441 39.03 50.535 39.03 50.535L-.513 3.016v-.007Z"/></g><path clip-path="url(#bb)" transform="matrix(1.33333 0 0 -1.33333 511.49 625.893)" style="fill:#f4f0e6;fill-opacity:1;fill-rule:nonzero;stroke:none" d="M0 0a237 237 0 0 0-18.22-4.967s-2.334-26.023 4.947-54.521C-16.936-35.648-9.572-15.363 0 0"/><path clip-path="url(#bc)" transform="matrix(1.33333 0 0 -1.33333 672.419 687.891)" style="fill:#101112;fill-opacity:1;fill-rule:nonzero;stroke:none" d="M0 0c-.675-9.776-2.345-20.049-5.586-30.03a105 105 0 0 0-7.203-16.921c-5.995-11.253-13.533-20.579-21.164-28.138a139 139 0 0 0-13.878-12.012 149 149 0 0 0-11.7-8.035h-.007L-73.362 66.598l.007.001c.015.001.022-.005.038-.011C-50.018 58.896-27.069 54.27-4.495 53.02c0 0 6.483-24.363 4.495-53.02"/><path clip-path="url(#bd)" transform="matrix(1.33333 0 0 -1.33333 595.43 852.783)" style="fill:#f4f0e6;fill-opacity:1;fill-rule:nonzero;stroke:none" d="M0 0c-11.279 4.552-27.189 12.122-43.174 24.08-15.985 11.951-32.05 28.268-43.656 50.297-25.998 49.35-20.518 110.421-20.518 110.421q3.082.71 6.158 1.484c2.594.648 5.185 1.338 7.773 2.056 11.129 3.095 22.226 6.826 33.278 11.171q1.017.398 2.033.806a367 367 0 0 1 14.524 6.161c.809.36 1.61.727 2.418 1.094a379 379 0 0 1 11.474 5.467 470 470 0 0 1 10.845 5.569l-.379 4.348a410 410 0 0 0-5.555-2.903 460 460 0 0 0-8.582-4.297 912 912 0 0 0-2.867-1.381 336 336 0 0 0-5.734-2.683c-.955-.444-1.91-.873-2.866-1.303a395 395 0 0 0-11.489-4.95 387 387 0 0 0-5.758-2.317c-16.313-6.413-32.699-11.54-49.171-15.326 0 0-.002-.064-.014-.179-.009-.064-.01-.136-.017-.221-.032-.401-.082-1.093-.139-2.05-.011-.213-.028-.442-.037-.677-.004-.121-.016-.243-.019-.371q-.024-.375-.042-.791c-.008-.257-.02-.535-.033-.812l-.022-.513c-.017-.314-.025-.641-.041-.976-.008-.335-.022-.684-.034-1.047q-.01-.514-.026-1.06c-.004-.043-.001-.078-.005-.114-.011-.555-.028-1.131-.034-1.735q-.013-.619-.022-1.279c-.001-.419-.009-.846-.008-1.279-.004-.043 0-.085-.004-.121q-.01-1.322.001-2.747c-.004-.036-.001-.078-.004-.121.009-.709.013-1.433.026-2.184q-.004-.053.002-.107l.018-1.496.009-.106q.024-1.169.052-2.402l.008-.091q.033-1.168.079-2.379.118-3.025.315-6.333c.03-.438.054-.883.084-1.328l.006-.07q.126-1.842.277-3.746a263 263 0 0 1 2.63-21.469l.001-.007q.4-2.372.847-4.783v-.007c.228-1.209.47-2.416.713-3.638q.373-1.83.782-3.681v-.007a262 262 0 0 1 1.16-4.948 215 215 0 0 1 2.548-9.394 191 191 0 0 1 1.783-5.661c2.784-8.402 6.23-16.789 10.491-24.879C-65.781 27.174-23.086 5.111.372-4.348c.049.025.09.057.139.083L.132.082z"/><path clip-path="url(#be)" transform="matrix(1.33333 0 0 -1.33333 697.062 736.536)" style="fill:#d0cbbe;fill-opacity:1;fill-rule:nonzero;stroke:none" d="M0 0a147 147 0 0 0-6.928-17.409c-8.852-18.717-20.823-33.916-32.955-45.949-6.507-6.448-13.063-11.984-19.217-16.663a197 197 0 0 0-6.712-4.904 215 215 0 0 0-6.226-4.195 290 290 0 0 0-3.676-2.331l-.379 4.348a200 200 0 0 1 6.626 4.286c.338.228.677.455 1.014.69q.456.307.91.625c.579.404 1.165.809 1.756 1.229.668.468 1.335.951 2.016 1.443.316.225.633.451.948.691q2.896 2.121 5.934 4.532a176 176 0 0 1 2.996 2.436c.361.293.715.593 1.077.894.674.562 1.355 1.138 2.034 1.735a176 176 0 0 1 5.24 4.701C-30.954-50.229-16.132-31.925-6.6-8.266A139 139 0 0 1-3.277.849c17.247 53.046 1.474 112.3 1.474 112.3-30.545 1.691-61.598 7.953-93.114 18.356-.049-.025-.105-.051-.153-.084l-.379 4.348c.056.026.104.058.161.084 2.05-.676 4.091-1.332 6.139-1.974q1.53-.487 3.059-.952a421 421 0 0 1 6.127-1.826q1.526-.443 3.053-.875a355 355 0 0 1 6.106-1.671c1.016-.276 2.031-.537 3.046-.798a430 430 0 0 1 6.093-1.516 388 388 0 0 1 12.137-2.718c17.165-3.552 34.183-5.824 51.059-6.76 0 0 16.396-61.607-1.531-116.763"/><path clip-path="url(#bf)" transform="matrix(1.33333 0 0 -1.33333 632.65 798.292)" style="fill:#d0cbbe;fill-opacity:1;fill-rule:nonzero;stroke:none" d="M0 0c-10.43-10.34-21.015-17.754-28.828-22.589-.181.077-.362.147-.551.223l-.001.007c-9.354 3.807-22.357 10.071-35.417 19.83-13.325 9.957-26.713 23.557-36.385 41.918-21.667 41.124-17.098 92.022-17.098 92.022 18.061 4.149 36.007 10.318 53.836 18.38a338 338 0 0 1 19.285 9.471q.378.194.754.398c.645-.207 1.284-.422 1.93-.63a.5.5 0 0 0 .09-.028c25.583-8.284 50.775-13.272 75.578-14.644 0 0 13.148-49.384-1.227-93.589a118 118 0 0 0-7.175-17.252c.001-.007-.013-.016-.013-.016C17.887 20.014 9.004 8.919 0 0m33.373 144.472c-25.492 1.406-51.398 6.632-77.709 15.322-.014-.008-.021-.016-.042-.025-.015.006-.023.012-.045.017-.251-.135-.496-.262-.747-.397l-1.59 18.349a424 424 0 0 0-8.094-4.191c-.917-.462-1.834-.924-2.751-1.378a381 381 0 0 0-13.892-6.562 367 367 0 0 0-14.524-6.16c-.677-.278-1.355-.542-2.033-.806-11.052-4.345-22.149-8.076-33.278-11.171a311 311 0 0 0-7.773-2.056 315 315 0 0 0-6.157-1.484s-5.481-61.071 20.518-110.421c11.605-22.029 27.671-38.346 43.655-50.297 15.985-11.958 31.895-19.529 43.174-24.08l.132.082-1.586 18.293q.273-.118.545-.223C-20.997-17.873-10.398-10.451.052-.102c8.607 8.53 17.109 19.053 23.87 31.755a75 75 0 0 0-.626-1.302 126 126 0 0 1 3.296 6.436 118 118 0 0 1 5.551 13.969c14.391 44.263 1.23 93.716 1.23 93.716"/><path clip-path="url(#bg)" transform="matrix(1.33333 0 0 -1.33333 692.693 735.405)" style="fill:#939182;fill-opacity:1;fill-rule:nonzero;stroke:none" d="M0 0a139 139 0 0 0-3.323-9.115c-9.532-23.658-24.354-41.962-38.942-55.575a175 175 0 0 0-5.241-4.7c-.679-.591-1.36-1.167-2.034-1.736-.361-.3-.715-.6-1.076-.894a193 193 0 0 0-8.93-6.968q-.474-.35-.948-.691c-.681-.491-1.348-.974-2.016-1.443-.592-.42-1.177-.825-1.756-1.229a57 57 0 0 0-.91-.624q-.507-.35-1.014-.691a203 203 0 0 0-6.626-4.286l-1.586 18.293q.273-.117.545-.223c7.827 4.843 18.426 12.266 28.877 22.614 8.606 8.53 17.108 19.053 23.869 31.756a78 78 0 0 0-.626-1.303 126 126 0 0 1 3.296 6.436A118 118 0 0 1-12.89 3.59c14.391 44.263 1.23 93.717 1.23 93.717-25.492 1.406-51.398 6.631-77.709 15.321-.014-.008-.021-.016-.042-.025-.015.006-.023.013-.045.018-.251-.135-.496-.263-.747-.398l-1.59 18.35c.048.032.104.058.153.084 31.516-10.404 62.569-16.666 93.114-18.357 0 0 15.772-59.254-1.474-112.3"/><path clip-path="url(#bh)" transform="matrix(1.33333 0 0 -1.33333 675.506 730.617)" style="fill:#d0cbbe;fill-opacity:1;fill-rule:nonzero;stroke:none" d="M0 0a118 118 0 0 0-5.55-13.969 125 125 0 0 0-3.297-6.436c.212.429.422.866.626 1.302.261.534.507 1.073.759 1.62.038.074.067.155.098.228 0 0 .014.009.013.016 1.972 4.342 3.74 8.93 5.247 13.758 13.885 44.383.947 94.04.947 94.04-23.968 1.437-48.619 9.226-73.371 17.687a.4.4 0 0 1-.09.028c-.662.227-1.331.461-2 .688q.044.026.098.051c.021.009.027.016.041.025 26.312-8.691 52.218-13.916 77.709-15.322 0 0 13.161-49.453-1.23-93.716"/><path clip-path="url(#bi)" transform="matrix(1.33333 0 0 -1.33333 673.053 683.814)" style="fill:#d0cbbe;fill-opacity:1;fill-rule:nonzero;stroke:none" d="M0 0c-.538-10.701-2.198-22.109-5.786-33.156-2.653-8.156-6.162-15.526-10.179-22.159-3.862-6.399-8.198-12.108-12.707-17.172-5.493-6.191-11.222-11.408-16.634-15.726a145 145 0 0 0-9.96-7.297 89 89 0 0 1 6.959 5.351C-25.551-70.921-6.145-36.991-.476-3.058-.301-2.035-.146-1.021 0 0"/><path clip-path="url(#bj)" transform="matrix(1.33333 0 0 -1.33333 673.053 683.814)" style="fill:#141615;fill-opacity:1;fill-rule:nonzero;stroke:none" d="M0 0c-.538-10.701-2.198-22.109-5.786-33.156-2.653-8.156-6.162-15.526-10.179-22.159-3.862-6.399-8.198-12.108-12.707-17.172-5.493-6.191-11.222-11.408-16.634-15.726a145 145 0 0 0-9.96-7.297 89 89 0 0 1 6.959 5.351 149 149 0 0 0-11.7-8.034l-.007-.001L-73.838 63.54l.007.001c.015.001.023-.005.038-.011 23.299-7.691 46.248-12.317 68.822-13.568 0 0 6.484-24.362 4.495-53.02C-.301-2.035-.146-1.021 0 0m.683 55.457c-23.969 1.437-48.619 9.225-73.371 17.687a.5.5 0 0 1-.09.028c-.645.207-1.284.422-1.93.63q-.376-.204-.754-.398L-60.83-95.048v-.007l.513-3.009a8 8 0 0 1-.257.106l.891-10.26.001-.007c.189-.076.37-.145.552-.222 7.812 4.835 18.397 12.249 28.827 22.589 9.004 8.919 17.888 20.014 24.778 33.501 0 0 .014.008.014.015A119 119 0 0 1-.264-38.583C13.621 5.8.683 55.457.683 55.457"/><path clip-path="url(#bk)" transform="matrix(1.33333 0 0 -1.33333 547.885 456.252)" style="fill:#d0cbbe;fill-opacity:1;fill-rule:nonzero;stroke:none" d="M0 0s-.049-18.33-3.769-21.579C-4.089-15.47-2.584-1.601 0 0"/><path clip-path="url(#bl)" transform="matrix(1.33333 0 0 -1.33333 517.499 463.427)" style="fill:#d0cbbe;fill-opacity:1;fill-rule:nonzero;stroke:none" d="m0 0-6.61-40.521s-.862 10.633-.431 12.645S-4.742-12.357 0 0"/><path clip-path="url(#bm)" transform="matrix(1.33333 0 0 -1.33333 384.71 707.62)" style="fill:#d0cbbe;fill-opacity:1;fill-rule:nonzero;stroke:none" d="m0 0 5.043 5.973s-8.228 13.405-8.228 20.572c-1.593-.531-5.044-2.257-5.044-2.257z"/><path clip-path="url(#bn)" transform="matrix(1.33333 0 0 -1.33333 376.924 724.255)" style="fill:#d0cbbe;fill-opacity:1;fill-rule:nonzero;stroke:none" d="m0 0-21.501-25.217S-47.515 1.991-67.822-.796c2.787 1.725 9.955 6.37 21.767 3.185 4.778-1.858 15.927-6.503 25.35-20.572C-18.05-15.529-3.451-.929 0 0"/><path clip-path="url(#bo)" transform="matrix(1.33333 0 0 -1.33333 364.005 681.253)" style="fill:#d0cbbe;fill-opacity:1;fill-rule:nonzero;stroke:none" d="m0 0 3.318-10.883-28.005-20.44s-12.21 8.627-19.908 6.769C-36.632-20.041 0 0 0 0"/><path clip-path="url(#bp)" transform="matrix(1.33333 0 0 -1.33333 340.148 698.745)" style="fill:#f4f0e6;fill-opacity:1;fill-rule:nonzero;stroke:none" d="m0 0-12.741-3.716-13.936-7.698s4.91 1.592 8.627.531C-15.263-8.76 0 0 0 0"/><path clip-path="url(#bq)" transform="matrix(1.33333 0 0 -1.33333 493.3 704.603)" style="fill:#d0cbbe;fill-opacity:1;fill-rule:nonzero;stroke:none" d="M0 0c-3.663 23.84 3.701 44.125 13.272 59.488"/><path clip-path="url(#br)" transform="matrix(1.33333 0 0 -1.33333 549.986 790.388)" style="fill:#d0cbbe;fill-opacity:1;fill-rule:nonzero;stroke:none" d="M0 0c11.563-8.638 23.051-14.186 31.355-17.573.091-.035.174-.07.257-.105L31.1-14.67l-.001.007L13.744 87.368s-7.458-34.094-39.03-50.536c-3.541 2.147-10.214 9.846-15.4 20.995 2.126-6.945 4.869-13.93 8.398-20.628C-23.706 20.903-11.828 8.835 0 0"/><path clip-path="url(#bs)" transform="matrix(1.33333 0 0 -1.33333 685.804 677.176)" style="fill:#191919;fill-opacity:1;fill-rule:nonzero;stroke:none" d="M0 0h.326Q.23-.098.136-.198zm56.085 2.466c-4.381 5.008-11.785 7.671-22.551 8.118l-.157.676c.744 2.242 1.004 3.189 1.135 4.065l6.314 39.637h-135.02c-2.005.514-4.182.775-6.479.775-10.575 0-19.017-4.794-23.168-13.155-1.177-2.256-1.908-4.492-2.439-6.118-1.044-3.159-2.064-6.26-3.079-9.352q-.223-.67-.455-1.354c-.864-2.547-1.756-5.18-2.23-8.135l-.02-.132c-.395-2.789-.127-5.145.47-7.108-3.224-.148-6.309-.521-9.24-1.117h-47.021l-.211-.725-.078.527h-80.681l-14.54-31.327-20.987-16.443 28.534 68.751h-85.809l29.794-21.435-34.01-82.535h200.348l-.418 1.168c4.329-1.581 9.691-2.36 16.155-2.36 4.897 0 9.453.466 13.633 1.39h63.583l2.1.019 42.881-.082-.021.038 27.354-.127c3.18-.884 6.869-1.367 10.998-1.436l.122-.001c1.203 0 7.558.079 14.615 1.641 9.476 2.098 16.253 5.897 20.142 11.293 5.505 7.639 7.802 17.602 5.994 26-.761 3.537-2.229 6.661-4.28 9.189h7.746l2.18 5.718c.201.528 1.985 5.311 2.687 10.631.675 5.025-.671 9.627-3.891 13.306"/><path clip-path="url(#bt)" transform="matrix(1.33333 0 0 -1.33333 562.66 632.785)" style="fill:#fff;fill-opacity:1;fill-rule:evenodd;stroke:none" d="M0 0c.598 1.826 1.196 3.653 1.466 5.427.797 5.698-3.646 8.137-9.781 8.137-6.385 0-12.357-2.381-15.254-8.304-.849-1.607-1.395-3.264-1.921-4.873-1.042-3.155-2.06-6.252-3.08-9.356-.877-2.653-1.917-5.42-2.343-8.079-.809-5.705 3.577-8.142 9.837-8.142 6.327 0 12.166 2.385 15.164 8.198.896 1.772 1.498 3.596 2.081 5.37zm-9.832 3.765-6.108-18.541c-.402-1.221-1.112-4.152-3.135-4.152-.697 0-1.196.222-1.198.775-.045.442.693 2.875.898 3.483l5.901 17.936c.275.831 1.004 2.659 1.6 3.32.477.498.896.61 1.463.61 1.898 0 .942-2.324.579-3.431"/><path clip-path="url(#bu)" transform="matrix(1.33333 0 0 -1.33333 605.482 665.335)" style="fill:#fff;fill-opacity:1;fill-rule:nonzero;stroke:none" d="m0 0-1.18 4.874 9.042 27.457 4.381 4.87H-4.95l-8.256-17.379c1.012 5.753 2.104 11.566 2.877 17.379h-17.078l1.219-4.764-9.118-27.675L-39.653 0h12.461l8.068 24.522L-23.147 0h6.829l12.195 25.13L-12.399 0Z"/><path clip-path="url(#bv)" transform="matrix(1.33333 0 0 -1.33333 642.277 665.335)" style="fill:#fff;fill-opacity:1;fill-rule:evenodd;stroke:none" d="m0 0-.65 2.829C-.358 3.707.837 7.143.93 7.806l4.684 29.395h-15.937L-24.442 7.974c-.315-.777-1.383-4.211-1.696-5.145L-28.707 0h12.586l2.203 6.702h3.544L-12.578 0Zm-8.129 13.34-3.747-.052c2.154 5.202 4.692 10.404 7.224 15.611-1.269-5.207-2.476-10.409-3.477-15.559"/><path clip-path="url(#bw)" transform="matrix(1.33333 0 0 -1.33333 682.061 665.335)" style="fill:#fff;fill-opacity:1;fill-rule:nonzero;stroke:none" d="m0 0-1.155 4.762L7.96 32.437l4.29 4.764H-1.537l-4.78-14.504h-3.285l4.773 14.504h-13.849l1.213-4.764-9.11-27.675L-30.924 0h13.845l4.742 14.39h3.288L-13.787 0Z"/><path clip-path="url(#bx)" transform="matrix(1.33333 0 0 -1.33333 718.887 665.335)" style="fill:#fff;fill-opacity:1;fill-rule:evenodd;stroke:none" d="m0 0-.654 2.829C-.363 3.707.833 7.143.924 7.806l4.682 29.395h-15.935l-14.11-29.227c-.324-.777-1.39-4.211-1.697-5.145L-28.711 0h12.583l2.201 6.702h3.546L-12.586 0Zm-8.129 13.34-3.754-.052c2.157 5.202 4.693 10.404 7.232 15.611C-5.922 23.692-7.13 18.49-8.129 13.34"/><path clip-path="url(#by)" transform="matrix(1.33333 0 0 -1.33333 650.474 693.768)" style="fill:#e9923b;fill-opacity:1;fill-rule:nonzero;stroke:none" d="M0 0c-.868-3.873-2.165-12.293-5.584-12.922-3.417-.632-4.772 0-4.772 0L-6.38 2.59S.866 3.879 0 0m7.448 12.601-36.988-.065 3.289-8.309-15.535-50.571-6.296-6.027 31.807-.061-3.649 6.49 6.244 20.201h.492l7.924-.45-5.016-19.92-1.889-6.26 26.291-.123-6.498 5.887 4.824 17.631c1.83 4.287-1.527 7.782-8.982 10.649 7.144 1.083 11.816 3.54 13.612 7.593l3.056 7.501C22.782 7.36 17.295 11.666 7.448 12.601"/><path clip-path="url(#bz)" transform="matrix(1.33333 0 0 -1.33333 582.685 692.968)" style="fill:#e9923b;fill-opacity:1;fill-rule:nonzero;stroke:none" d="m0 0-4.676-14.517H9.847L6.564-24.955H-7.063l-4.483-16.109h16.12L.794-52.999h-41.579l6.667 7.062L-19.6 4.576l-2.785 7.259h39.889L13.823 0Z"/><path clip-path="url(#bA)" transform="matrix(1.33333 0 0 -1.33333 509.865 713.393)" style="fill:#e9923b;fill-opacity:1;fill-rule:nonzero;stroke:none" d="M0 0s2.988 11.841 3.586 14.522 0 4.972-3.586 4.972c-3.574 0-5.068-1.788-6.26-5.164-1.198-3.391-10.55-36.099-11.341-38.884-.796-2.782-.997-5.272 3.281-5.272s5.472 1.79 6.265 3.583c.798 1.786 4.179 13.121 4.179 13.121h20.392s-2.287-7.853-3.483-11.035C11.842-27.336 5.574-39.07-17.804-39.07c-23.373 0-21.085 11.235-19.897 15.908 1.196 4.675 7.069 25.553 10.449 36.195 3.381 10.637 16.515 15.706 30.838 15.706 24.569 0 21.186-13.222 19.794-18.488C21.989 4.978 20.697 0 20.697 0Z"/><path clip-path="url(#bB)" transform="matrix(1.33333 0 0 -1.33333 370.607 763.896)" style="fill:#e9923b;fill-opacity:1;fill-rule:nonzero;stroke:none" d="m0 0 6.667 7.058 14.521 51.109-2.981 7.062h22.381l4.375-29.635h1.587l8.662 29.832H77.59l-7.462-7.654L55.407 8.051 58.29 0H34.717l-3.083 29.632h-1.796L21.188 0Z"/><path clip-path="url(#bC)" transform="matrix(1.33333 0 0 -1.33333 345.941 734.066)" style="fill:#e9923b;fill-opacity:1;fill-rule:nonzero;stroke:none" d="m0 0-9.649-.201 12.63 29.439 1.893-.504Zm22.779 42.856H-8.259L-32.627-9.645l-2.783-8.948-3.482-3.779h22.774l3.982 12.132h8.954l-3.085-12.132h22.978l-1.789 3.779 2.981 9.144z"/><path clip-path="url(#bD)" transform="matrix(1.33333 0 0 -1.33333 240.37 648.95)" style="fill:#e9923b;fill-opacity:1;fill-rule:nonzero;stroke:none" d="M0 0h44.957L16.11-69.506h15.716l14.726 11.539-11.539-28.242h-53.515L13.129-9.446z"/><path clip-path="url(#bE)" transform="matrix(1.33333 0 0 -1.33333 725.79 701.588)" style="fill:#e9923b;fill-opacity:1;fill-rule:nonzero;stroke:none" d="M0 0s1.392 4.675 1.791 6.065c.4 1.397.898 4.374-3.779 4.374S-8.652 5.269-8.852.995C-9.051-3.279.598-8.052 7.862-12.226c7.259-4.177 7.259-17.401.593-26.65-6.664-9.246-27.552-9.246-27.552-9.246-14.585.246-20.639 6.37-17.704 18.69l1.39 4.673h18.702s0-.993-.795-3.577c-.801-2.586-5.077-10.344 2.387-10.344 7.454 0 8.652 11.935 7.454 14.321-1.189 2.383-13.029 9.048-18.698 13.02-5.668 3.98-1.785 15.117-.196 18.598 1.589 3.484 7.26 12.83 26.755 12.83 19.503 0 21.589-6.958 20.988-11.438C20.595 4.179 19.002 0 19.002 0Z"/><path clip-path="url(#bF)" transform="matrix(1.33333 0 0 -1.33333 718.714 747.128)" style="fill:#fff;fill-opacity:1;fill-rule:nonzero;stroke:none" d="M0 0c1.088.926 1.69 2.195 2.036 3.259.656 2.014 1.443 7.489.155 9.164-.849 1.176-7.215 4.828-9.094 5.83-9.628 5.04-14.147 7.723-10.908 17.62 2.023 6.212 4.533 11.158 14.409 14.014 4.449 1.26 8.131 1.386 12.459 1.075.954-.065-2.113-.389-5.441-1.332-9.874-2.848-13.095-7.482-14.908-13.757-2.203-7.604.885-10.085 10.513-15.118 8.75-4.633 12.405-5.559 9.336-17.496-.503-1.97-2.092-4.529-5.768-4.529-1.226 0-2.057.082-2.543.834C.166-.334.082-.186 0 0"/><path clip-path="url(#bG)" transform="matrix(1.33333 0 0 -1.33333 659.628 705.108)" style="fill:#fff;fill-opacity:1;fill-rule:nonzero;stroke:none" d="M0 0c-1.492-4.582-5.915-8.569-10.074-9.623 1.353 1.617 5.416 5.515 6.298 8.779l1.76 6.514c.956 3.547.913 5.743-.453 7.042 4.814-.578 5.802-2.463 4.263-7.191z"/><path clip-path="url(#bH)" transform="matrix(1.33333 0 0 -1.33333 574.018 684.795)" style="fill:#fff;fill-opacity:1;fill-rule:nonzero;stroke:none" d="M0 0h13.366l4.062-4.226H5.075Z"/><path clip-path="url(#bI)" transform="matrix(1.33333 0 0 -1.33333 566.575 718.162)" style="fill:#fff;fill-opacity:1;fill-rule:nonzero;stroke:none" d="M0 0h13.367l3.048-3.718H4.064Z"/><path clip-path="url(#bJ)" transform="matrix(1.33333 0 0 -1.33333 559.59 679.831)" style="fill:#fff;fill-opacity:1;fill-rule:nonzero;stroke:none" d="m0 0 7.611-6.931-13.873-49.378H8.285l3.39-3.384h-28.596l4.067 3.722L2.031-5.582z"/><path clip-path="url(#bK)" transform="matrix(1.33333 0 0 -1.33333 515.675 735.07)" style="fill:#fff;fill-opacity:1;fill-rule:nonzero;stroke:none" d="M0 0c-.376-1.578-.734-3.046-.984-3.898-.486-1.673-1.951-6.692-3.177-7.993-1.08-1.209-1.913-1.583-3.493-1.583-1.306 0-2.124.259-2.591.979l.262.29c1.232 1.297 2.692 6.323 3.179 7.993.406 1.397.762 2.79 1.14 4.212z"/><path clip-path="url(#bL)" transform="matrix(1.33333 0 0 -1.33333 499.168 760.977)" style="fill:#fff;fill-opacity:1;fill-rule:nonzero;stroke:none" d="M0 0a48 48 0 0 0-5.442-.299c-9.133 0-17.754 1.763-18.997 9.273-.592 3.444.744 8.921 1.781 12.543l5.97 20.938c.633 2.206 1.371 4.416 2.427 6.536 1.111 2.293 2.926 4.324 5.26 6.18 5.873 4.775 13.31 6.362 20.64 6.362-5.411-.652-10.771-2.44-15.226-6.06-2.332-1.858-4.152-3.885-5.256-6.184-1.058-2.124-1.801-4.328-2.433-6.54l-5.975-20.933c-1.028-3.623-2.368-9.1-1.773-12.543C-17.791 1.796 0 0 0 0"/><path clip-path="url(#bM)" transform="matrix(1.33333 0 0 -1.33333 522.161 710.168)" style="fill:#fff;fill-opacity:1;fill-rule:nonzero;stroke:none" d="M0 0h-5.807c.19.654 4.9 15.155 4.147 16.733a2.4 2.4 0 0 1-.22.381c.999.891 2.23 1.141 3.603 1.141 1.34 0 1.983-.276 2.441-1.209C4.744 15.835 1.584 5.175 0 0"/><path clip-path="url(#bN)" transform="matrix(1.33333 0 0 -1.33333 447.718 681.64)" style="fill:#fff;fill-opacity:1;fill-rule:nonzero;stroke:none" d="m0 0 10.998.341-7.951-3.214L-7.95-39.398l-1.183 10.655Z"/><path clip-path="url(#bO)" transform="matrix(1.33333 0 0 -1.33333 649.945 725.785)" style="fill:#fff;fill-opacity:1;fill-rule:nonzero;stroke:none" d="m0 0 3.169 1.268-6.293-24.557 7.951-3.214-11.799.517z"/><path clip-path="url(#bP)" transform="matrix(1.33333 0 0 -1.33333 419.525 701.925)" style="fill:#fff;fill-opacity:1;fill-rule:nonzero;stroke:none" d="m0 0 4.902-38.723 9.306-4.062H1.357l-3.388 31.452z"/><path clip-path="url(#bQ)" transform="matrix(1.33333 0 0 -1.33333 403.961 682.539)" style="fill:#fff;fill-opacity:1;fill-rule:nonzero;stroke:none" d="m0 0 7.27-7.266-15.56-51.41h-9.132l4.904 3.384L2.028-5.579z"/><path clip-path="url(#bR)" transform="matrix(1.33333 0 0 -1.33333 620.821 682.539)" style="fill:#fff;fill-opacity:1;fill-rule:nonzero;stroke:none" d="m0 0 7.27-7.266-15.561-51.41h-9.131l4.904 3.384L2.028-5.579z"/><path clip-path="url(#bS)" transform="matrix(1.33333 0 0 -1.33333 325.933 740.58)" style="fill:#fff;fill-opacity:1;fill-rule:nonzero;stroke:none" d="m0 0 18.762.111 2.996 32.212 4.47 7.194-2.832-37.499-4.09-13.301 2.998-2.724h-8.021l3.115 11.005H2.454Z"/><path clip-path="url(#bT)" transform="matrix(1.33333 0 0 -1.33333 338.439 686.797)" style="fill:#fff;fill-opacity:1;fill-rule:nonzero;stroke:none" d="m0 0 3.002-4.632L-16.3-45.24l-1.364-10.196h-8.835l2.998 2.724 1.908 8.288z"/><path clip-path="url(#bU)" transform="matrix(1.33333 0 0 -1.33333 282.488 758.038)" style="fill:#fff;fill-opacity:1;fill-rule:nonzero;stroke:none" d="M0 0h-42.187l30.563 72.835-6.797 5.205 13.103-2.723-27.837-69.999h31.558l5.809 2.476Z"/><path clip-path="url(#bV)" transform="matrix(1.33333 0 0 -1.33333 738.804 698.562)" style="fill:#fff;fill-opacity:1;fill-rule:nonzero;stroke:none" d="M0 0h-5.981l-.091.164c-.095.192.825 4.112.825 4.112.248.743.63 1.708.676 2.546.832 1.066 2.102 1.901 4.116 1.901 3.551 0 2.281-2.771 1.729-4.447z"/><path clip-path="url(#bW)" transform="matrix(1.33333 0 0 -1.33333 704.203 762.163)" style="fill:#fff;fill-opacity:1;fill-rule:nonzero;stroke:none" d="M0 0c-8.905 2.544-13.578 5.53-12.405 11.442l.04-.022c.349 1.556.913 3.14 1.419 4.498l.93 2.483h-6.325l-.031-.084-.006.009-2.084-5.579c-1.916-5.131 1.709-9.523 6.813-11.509C-9.238.3.278-1.101.278-1.101.599-.749 1.113-.318 0 0"/></svg>