<?xml version="1.0" encoding="utf-8"?>
<svg xmlns="http://www.w3.org/2000/svg" width="250px" height="199px">
<path fill="#CC202E" d="M217.68,186.7c0,0-15.25-9.89-19.47-33.39c-2.28-12.75,3.8-21.77,3.8-21.77c3.13,2.46,5.32,3.27,7.95,4.06
	c7.29,2.19,13.93-2.47,13.93-2.47c-1.08,9.06-8.04,18.96-8.04,18.96s24.63-3.88,31.12-26.72c8.9-31.36-14.42-52.92-14.42-52.92
	c-2.08-31.68-20.64-50.97-20.64-50.97c0.17,2.28-0.28,5.69-0.28,5.69s-9.48-8.57-44.05-17.21c-35.61-8.9-66.9-8.79-66.9-8.79
	c3.6,2.54,6.84,6.03,6.84,6.03C66.5,14.4,45.5,47.49,45.5,47.49c3.22-0.35,6.2-0.37,6.2-0.37c-28.73,28.73-40.98,64.57-40.98,64.57
	c4.32-2.42,10.92-4.8,10.92-4.8C7.15,136.91,1,164.41,1,164.41s22.35-10.02,47.8-5.63c37.71,6.5,55.69,39.06,114.05,39.06
	C195.34,197.84,217.68,186.7,217.68,186.7"/>
<path d="M230.11,77.17c0,0,15.91,15.27,14.3,37.87c-1.61,22.6-20.35,29.99-20.35,29.99
	c3.04-5.2,6.26-15.02,4.76-20.6c-4.94,4.47-12.07,8.83-18.12,6.8c-3.36-1.13-6.49-3.81-10.44-6.77c-3.57,4.5-9.04,13.87-7.6,27.9
	c2.14,20.79,14.56,32.17,14.56,32.17c-80.9,26.13-114.19-24.46-153.13-31.26c-26.72-4.67-44.59,1.85-44.59,1.85
	c7.76-25.34,17.41-46.63,24.04-59.85c-4.61,2.01-9.75,4.43-13.3,6.62c0,0,16.75-36.79,44.69-60.06c-5.15,0-8.97,0.21-8.97,0.21
	s13.13-16.44,35.8-25.33c9.76-3.83,17.07-5.92,29.95-5.27c-3.46-2.72-6.35-4.72-6.35-4.72s28.55,1.45,57.27,9.56
	c24.19,6.84,35.35,12.77,41.05,21.07c0.51-2.49,0.68-4.55,0.68-4.55c10.16,15.54,11.95,32.69,12.26,38.8
	C229.2,74.74,230.11,77.17,230.11,77.17 M167.78,76.25c-5.88-0.17-10.66-4.65-10.66-10.38c0-1.58,0.36-3.07,1.01-4.41
	c-3.13-1.67-6.46-3.18-10.12-4.24c1.69,1.1,4.14,2.73,6.24,4.3c-0.41,1.51-0.55,3.14-0.37,4.81c0.74,6.83,6.52,11.5,12.97,11.1
	c2.47-0.15,4.53-0.98,6.15-2.28C171.51,75.9,169.76,76.31,167.78,76.25z"/>
<path fill="#FFFFFF" d="M181.92,154.01c-14.6-10.53-26.67-27.61-26.67-27.61s-3.39,1.04-7.76,0.51c-3.72-0.46-6.74-3.08-13.24-8.6
	c-6.51-5.53-18.9-16.49-18.9-16.49c-23.71,11.53-31.74,20.14-41.01,20.14c-4.99,0-10.36-5.02-10.36-5.02
	c-13.29,7.51-25.6,15.63-30.12,18.67c4.39-12.38,16.12-43.27,28.86-58.39c0,0-6.17,0.82-13.5,3.22
	c13.44-26.8,39.93-44.59,39.93-44.59c-4.33-0.39-7.98-0.44-10.38-0.4c4.77-4.58,12.85-10.39,25.13-13.49
	c15.1-3.82,30.96-1.14,37.52,0.06c0,0-1.48-1.86-4.42-4.13c8.65,1.44,22.04,3.92,34.56,7.32c24.07,6.54,37.59,13.17,41.55,30.5
	c1.12-2.28,1.92-4.33,2.49-6.06c1.59,3.89,3.21,9.17,3.65,15.28c-3.13-2.11-7.07-4.09-12.02-5.55
	c-11.14,12.81-10.97,29.92-10.83,33.25c-6.51,2.74-18.95-0.5-32.83,5.17c-16.12,6.58-21.51,19.45-21.51,19.45s11.75-5.25,30.48-3.66
	c8.17,0.69,14.31,2.82,19.22,5.38C187.66,124.36,180.63,136.37,181.92,154.01 M193.01,69.87c0.94-2.59,1.26-4.85,1.21-6.79
	c0.02-0.97-0.11-1.96-0.37-2.95c-0.79-3.38-2.57-5.13-2.57-5.13s0.21,7.72-8.13,7c-0.82-0.07-1.71-0.27-2.67-0.56
	c-5.21-1.87-12-6.64-18.42-10.9c-8.08-5.37-15.15-5.8-15.15-5.8c1.38,1.07,2.75,2.83,3.86,4.44c-10.02-2.3-21.35-1.73-33.2,6.75
	c0,0,10.2-2.44,24.11-0.1c-0.65,5.3-1.12,20.24,13.18,25.65c15.58,5.9,24.03-2.64,27.69-8.28c-0.78,5.63-3.24,9.62-3.24,9.62
	S189.69,78.98,193.01,69.87 M107.79,71.45c2.46-0.2,7.31-0.73,11.06-1.98c0,0-3.82-0.77-6.72-1.73c5.27-4.3,9.05-6.69,9.05-6.69
	C80.22,73.11,63,110.01,63,110.01s26.16-3.98,41.1-17.45c0,0-6.43-0.51-13.36-1.83c1.68-2.51,3.48-4.9,5.33-7.14
	c3.04-0.16,10.06-0.94,16.16-4.62c0,0-5.67-0.64-10.3-1.9C103.93,75.01,105.9,73.14,107.79,71.45 M120.04,39.37
	c0,0-3.09-0.9-5.44-1.89c4.73-3.32,7.99-5,7.99-5C87.4,39.73,70.8,70.12,70.8,70.12s22.04-1.98,35.51-12.24
	c0,0-5.37-0.96-11.07-2.56c1.55-1.9,3.14-3.68,4.74-5.34c2.58-0.01,8.56-0.36,13.94-3.02c0,0-4.64-0.92-8.42-2.28
	c1.8-1.6,3.56-3.05,5.23-4.34C112.5,40.39,115.8,40.31,120.04,39.37 M165.31,65.58c2.52,1.5,4.96,2.92,7.39,4.05
	c-0.7,1.36-2.11,2.28-3.74,2.28c-2.33,0-4.22-1.89-4.22-4.22C164.73,66.93,164.94,66.21,165.31,65.58"/>
<linearGradient id="SVGID_1_" gradientUnits="userSpaceOnUse" x1="-414.3568" y1="2127.6465" x2="-414.1227" y2="2127.6465" gradientTransform="matrix(-1.2036 150.4442 150.4442 1.2036 -320353.9063 59872.9883)">
	<stop  offset="0" style="stop-color:#7798AD"/>
	<stop  offset="0.25" style="stop-color:#A5C2D2"/>
	<stop  offset="0.5" style="stop-color:#7798AD"/>
	<stop  offset="0.75" style="stop-color:#A5C2D2"/>
	<stop  offset="1" style="stop-color:#7798AD"/>
</linearGradient>
<path fill="url(#SVGID_1_)" d="M236.53,96.52c-0.97,1.05-2.1,2.84-2.8,5.88c0,0,2,3.2,3.19,8.23c1.68,7.14-0.28,15.03-2.6,20.35
	c2.5-3.81,7.74-13.75,4.72-26.69C238.37,101.44,237.51,98.85,236.53,96.52z"/>
<linearGradient id="SVGID_2_" gradientUnits="userSpaceOnUse" x1="-406.5664" y1="2126.9021" x2="-406.3323" y2="2126.9021" gradientTransform="matrix(-172.6993 180.3506 180.3506 172.6993 -453576 -293913.0938)">
	<stop  offset="0" style="stop-color:#9C772C"/>
	<stop  offset="0.25" style="stop-color:#CEAE5C"/>
	<stop  offset="0.5" style="stop-color:#9C772C"/>
	<stop  offset="0.75" style="stop-color:#CEAE5C"/>
	<stop  offset="1" style="stop-color:#9C772C"/>
</linearGradient>
<path fill="url(#SVGID_2_)" d="M224.01,119.8c-3.08-1.02-5.96-0.5-5.96-0.5c-10.41-15.96-40.74-14.51-40.74-14.51
	s24.96-6.59,44.69,9.33c0,0,1.46-7.54,6.23-11.35c0,0,1.21-7.52,5.74-11.44c-2.76-4.83-5.73-7.98-7.4-9.55
	c-4.92,3.9-5.57,12.07-5.57,12.07c-5.39,0-14.02,6.33-14.02,6.33c3.54-6.33,10.95-9.16,10.95-9.16c0.82-8.46,6.22-12.46,6.22-12.46
	c-4.15-9.05-14.99-12.79-14.99-12.79s-8.91,11.26-5.97,31.45c-4.36,3.04-10.6,3-17.46,2.97c-4.88-0.03-10.08-0.05-15.15,1.03
	c-7.51,1.6-12.57,5.69-14.58,7.57c3.93-0.75,9.19-1.26,15.86-0.92c24.94,1.29,33.55,12.91,39.55,15.87
	C215,125.51,219.86,123.45,224.01,119.8z M206.4,80.71c0,0,3.79,4.15,9.45,6.11c0,0-0.74,2-3.94,2.48
	c-0.49,0.07-0.97,0.11-1.41,0.11c-3.08,0-4.96-1.54-4.96-1.54s2.01-0.19,2.81-0.9C208.35,86.96,206.81,85.2,206.4,80.71z"/>
<linearGradient id="SVGID_3_" gradientUnits="userSpaceOnUse" x1="64.6173" y1="122.4806" x2="184.022" y2="163.1292">
	<stop  offset="0" style="stop-color:#7798AD"/>
	<stop  offset="0.25" style="stop-color:#A5C2D2"/>
	<stop  offset="0.5" style="stop-color:#7798AD"/>
	<stop  offset="0.75" style="stop-color:#A5C2D2"/>
	<stop  offset="1" style="stop-color:#7798AD"/>
</linearGradient>
<path fill="url(#SVGID_3_)" d="M168.91,168.17l-8.19-0.53l11.2,4.59c1.78,2.33,3.6,4.59,5.33,6.53c2.55-0.35,5.16-0.81,7.83-1.37
	c-5.04-4.35-13.91-12.07-24.67-21.7C160.41,155.7,164.2,161.66,168.91,168.17 M155.1,179.23c2.94,0.29,5.96,0.44,9.06,0.44
	c0,0,1.09-0.01,1.39-0.01l-10.5-15.95l-3.59-0.34l-9.03-11.59L155.1,179.23z M126.49,171.87c2.16,0.89,4.36,1.72,6.6,2.49
	l-3.74-12.52l8.64,14.07h0l-0.44-6.18l6.37-1.3l-8.82-4.23l-2.27-4.99l-3.99-1.47l-8.23-14.2L126.49,171.87z M47.35,137.41
	c0.07,0.01,0.13,0.01,0.2,0.02c3.28-1.54,12.64-5.83,19.1-7.79c0,0-5.15,5.36-8.99,9.3c2.37,0.47,4.71,1.09,7.03,1.82l4.64-10.38
	l0.73,8.38l3.71,2.3l-2.51,2.08c3.2,1.3,6.37,2.8,9.53,4.41l-2.69-8.93l16.2,16.38l-7.54-18.46c0,0-7.34,0.16-12.77-1.37
	c0,0,6.33-2.9,10.38-7.83c-3.02,1.47-5.69,2.3-8.48,2.3c-4.99,0-10.31-3.17-12.11-4.35C60.71,127.24,52.92,132.34,47.35,137.41
	 M105.45,129.11l-3.34,1.28l2.86,15.88l-8.48-11.58l10.96,27.86c0.11,0.06,0.22,0.12,0.32,0.18l-0.84-15.55l10.44,18.47l-4.18-21.41
	l3.08-5.2l-8.93-1.03l3.97-8.35l-0.26-16.02L105.45,129.11z M121.74,123.35l-3.77,7.41l5.29,1.82l12.13,18.79l-0.23-13.47
	l18.3,15.46l-11.07-14.48c3.14,1.61,8.91,2.39,8.91,2.39c9.67,8.85,20.38,17.25,31.89,24.77c-7.38-6.42-23.56-20.86-31.99-31.14
	c-0.65,0.08-1.35,0.12-2.12,0.08c-6.26-0.29-10.77-4.02-17.28-9.55c-4.61-3.92-12.99-10.88-17.47-14.6L121.74,123.35z"/>
</svg>
