<?xml version="1.0" encoding="utf-8"?>
<!-- Generator: Adobe Illustrator 13.0.0, SVG Export Plug-In . SVG Version: 6.00 Build 14948)  -->
<!DOCTYPE svg PUBLIC "-//W3C//DTD SVG 1.1//EN" "http://www.w3.org/Graphics/SVG/1.1/DTD/svg11.dtd">
<svg version="1.1" id="Layer_1" xmlns="http://www.w3.org/2000/svg" xmlns:xlink="http://www.w3.org/1999/xlink" x="0px" y="0px"
	 width="325.48193172" height="307.236716556" viewBox="0 0 500 471.972" enable-background="new 0 0 500 471.972" xml:space="preserve">
<g>
	<path fill="#A7B1B7" d="M170.633,312.988l-17.581-71.153l4.648-0.771c-4.174-4.23-7.304-9.597-8.845-15.779
		c-1.754-7.036-1.193-14.134,1.209-20.451l2.542-6.692l9.404,0.385l6.706-28.532c-21.8,21.299-35.333,51.025-35.333,83.914
		c0,28.314,10.031,54.285,26.734,74.556L170.633,312.988z M331.28,168.659l7.602,31.647l7.527,0.307l1.889,7.067
		c3.299,12.347-0.111,24.587-7.984,32.958l7.204,1.196l-17.734,71.771l10.719,15.774c17.161-20.4,27.497-46.729,27.497-75.472
		C367.999,220.327,353.893,190.043,331.28,168.659z M67.678,97.885c1.849,1.075,20.132,1.242,49.571-1.548l11.026-1.101
		c-11.509-17.121-20.7-30.839-26.371-39.377l-1.799,0.561c0,0-8.438-8.376-10.677-10.943c-1.305-1.496-2.64-3.141-3.739-4.688
		c-0.97-1.367-2.878-4.167-3.833-7.545C75.61,11.132,114.65-2.066,121.505,0.265c2.805,0.954,4.949,2.558,6.451,3.979
		c1.51,1.426,2.526,2.82,2.992,3.461c1.293,1.782,2.516,3.885,3.527,5.831c1.708,3.287,6.284,14.597,6.284,14.597l-1.801,2.226
		l29.77,44.322c24.958-11.432,52.717-17.804,81.964-17.804c28.833,0,56.22,6.192,80.902,17.322l29.445-43.841l-1.8-2.225
		c0,0,4.574-11.311,6.283-14.597c1.012-1.946,2.233-4.049,3.529-5.831c0.465-0.642,1.48-2.035,2.99-3.461
		c1.504-1.422,3.646-3.026,6.451-3.979c6.856-2.331,45.896,10.867,39.65,32.979c-0.956,3.378-2.863,6.178-3.833,7.544
		c-1.101,1.548-2.435,3.192-3.739,4.688c-2.239,2.567-10.677,10.943-10.677,10.943l-1.8-0.561
		c-5.667,8.533-14.851,22.238-26.35,39.343l12.397,1.25c13.764,1.312,25.69,2.066,34.291,2.409c4.216,0.168,7.582,0.238,9.982,0.225
		l2.046-0.058c3.082-1.537,9.1-8.19,16.907-20.586c6.928-10.994,43.046-57.795,43.046-57.795l-7.837,100.543
		c0,0-0.266,1.931-1.248,4.906c-0.766,2.314-2.03,5.448-4.088,8.772c-4.183,6.752-11.84,14.721-24.979,16.992
		c0,0-11.655,2.309-30.057,5.006c16.243,28.644,25.517,61.759,25.517,97.042c0,43.995-14.422,84.622-38.79,117.413
		c17.184-3.31,37.933-9.64,59.103-18.25c6.89-3.392,13.57-1.138,17.537,1.893c3.501,2.67,5.608,6.254,6.794,8.558
		c2.589,5.04,4.458,11.468,5.669,17.269c1.235,5.909,2.051,12.449,1.957,18.062c-0.046,2.695-0.31,6.077-1.319,9.312
		c-0.686,2.186-3.185,9.092-10.865,11.67c-13.445,5.352-26.182,9.05-37.916,11.551c0.819,1.456,1.637,3.802,0.587,6.541
		l-5.746,14.475c-2.708,6.778-5.834,14.558-6.321,15.264c-1.869,2.435-4.986,4.137-8.766,3.697
		c-12.705,2.574-37.053-3.496-49.151-8.436c-12.868-5.257-26.847-13.537-41.653-25.178c-2.275-1.666-3.609-3.599-4.37-5.455
		c-19.05,8.962-39.771,14.963-61.568,17.409l-23.07,19.581l-22.508-19.715c-21.821-2.58-42.549-8.724-61.587-17.832
		c-0.713,2.024-2.076,4.178-4.579,6.012c-14.809,11.641-28.787,19.921-41.656,25.178c-12.096,4.939-36.444,11.01-49.149,8.436
		c-3.78,0.439-6.896-1.263-8.767-3.697c-0.485-0.704-3.613-8.487-6.319-15.264l-5.747-14.475c-1.051-2.735-0.235-5.083,0.583-6.536
		c-11.783-2.514-24.578-6.231-38.086-11.618c-7.547-2.622-10.012-9.437-10.691-11.607c-1.011-3.234-1.273-6.616-1.319-9.313
		c-0.095-5.61,0.723-12.152,1.957-18.06c1.21-5.801,3.081-12.23,5.671-17.269c1.185-2.304,3.293-5.888,6.792-8.558
		c3.99-3.045,10.733-5.312,17.663-1.843c21.792,8.857,43.13,15.294,60.589,18.506c-24.508-32.844-39.017-73.588-39.017-117.719
		c0-35.242,9.251-68.321,25.458-96.943c-18.884-2.741-30.813-5.104-30.813-5.104c-13.139-2.271-20.798-10.24-24.979-16.992
		c-2.056-3.32-3.326-6.461-4.089-8.772c-0.98-2.974-1.247-4.905-1.247-4.905l-7.154-98.245c0,0,35.438,44.511,42.321,55.497
		c4.074,6.501,7.672,11.468,10.395,14.854c1.309,1.629,2.405,2.88,3.242,3.744L67.678,97.885z"/>
	<path d="M304.549,374.303c5.629-2.522,11.049-5.429,16.229-8.683l-10.315-15.25L304.549,374.303z M179.638,365.006
		c5.191,3.324,10.629,6.298,16.282,8.883l-5.963-24.135L179.638,365.006z M118.833,253.908c0,36.373,14.729,69.31,38.547,93.166
		c6.532-9.557,14.475-21.234,23.412-34.412l-15.513-62.783l7.237-1.202c14.911-2.479,18.642-6.715,19.52-9.451
		c-1.278,0.568-2.625,1.034-4.03,1.386c-13.044,3.25-26.253-4.688-29.505-17.731c-1.248-5.004-0.848-10.033,0.855-14.515
		l10.454,0.429l10.728-45.643c-5.375-4.699-10.904-6.807-15.106-7.75l-1.97-0.379C136.094,179.184,118.833,214.528,118.833,253.908z
		 M343.181,347.893c24.304-23.919,39.372-57.193,39.372-93.985c0-39.435-17.31-74.826-44.746-98.988
		c-0.81,0.109-1.704,0.265-2.666,0.481c-4.266,0.958-9.903,3.115-15.353,7.968l11.183,46.562l7.725,0.316
		c0.306,0.248,0.385,0.551,0.462,0.857c3.252,13.044-4.686,26.253-17.729,29.508c-4.203,1.046-8.423,0.933-12.324-0.14
		c1.593,2.657,6.155,6.078,18.953,8.205l7.234,1.202l-15.666,63.4C328.65,326.582,336.646,338.335,343.181,347.893z M64.005,253.908
		c0-38.786,11.826-74.808,32.07-104.657c-27.331-3.475-45.956-7.163-45.956-7.163c-9.58-1.656-15.196-7.374-18.34-12.453
		c-1.554-2.507-2.519-4.893-3.101-6.655c-0.657-1.993-0.865-3.315-0.865-3.315l-9.382-58.572l0.8-17.278l12.63,17.398
		c0.123,0.241,5.762,11.155,12.876,22.509c7.693,12.276,15.417,22.122,19.39,23.438c3.868,2.53,27.21,1.618,54.06-0.928
		c7.333-0.695,14.578-1.46,21.172-2.198l3.191-2.322c-17.909-26.615-31.51-46.91-37.19-55.553l-2.976,0.928
		c0,0-4.628-4.583-6.754-7.021c-1.126-1.29-2.283-2.708-3.231-4.042c-0.888-1.252-2.075-3.083-2.623-5.02
		c-3.234-11.447,23.817-24.735,29.079-22.945c2.772,0.941,4.599,3.336,5.43,4.48c1.004,1.385,2.008,3.105,2.886,4.794
		c1.601,3.079,4.14,9.388,4.14,9.388l-2.575,3.18l38.323,57.053c25.158-12.626,53.565-19.735,83.632-19.735
		c29.655,0,57.693,6.915,82.596,19.219L371.261,29.9l-2.571-3.18c0,0,2.538-6.31,4.138-9.388c0.878-1.688,1.882-3.409,2.888-4.794
		c0.828-1.145,2.655-3.539,5.429-4.48c5.261-1.79,32.314,11.498,29.078,22.945c-0.546,1.937-1.733,3.768-2.622,5.02
		c-0.95,1.334-2.104,2.751-3.231,4.042c-2.126,2.438-6.752,7.021-6.752,7.021l-2.978-0.928c-5.633,8.571-19.056,28.601-36.743,54.89
		c1.446,1.016,2.881,2.054,4.299,3.11c6.574,0.735,13.759,1.496,21.007,2.187c26.66,2.543,49.147,3.393,51.385,1.767
		c5.621-2.116,13.521-12.192,21.194-24.373c7.171-11.378,12.806-22.287,12.931-22.528l13.872-18.091l-0.443,17.971l-9.382,58.572
		c0,0-0.207,1.323-0.866,3.315c-0.581,1.764-1.545,4.147-3.101,6.655c-3.145,5.078-8.76,10.797-18.341,12.453
		c0,0-18.323,3.628-45.201,7.075c20.28,29.866,32.131,65.921,32.131,104.745c0,49.616-19.354,94.711-50.925,128.146
		c22.919-0.069,55.973-9.658,84.899-21.447c3.456-1.857,6.934-0.852,9.226,0.898c2.032,1.552,3.459,3.823,4.465,5.78
		c2.107,4.098,3.791,9.719,4.935,15.187c1.152,5.515,1.863,11.419,1.783,16.239c-0.039,2.363-0.271,4.845-0.945,6.994
		c-0.526,1.682-1.938,5.086-5.629,6.323c-20.611,8.249-39.48,12.459-55.449,14.407c8.009,4.166,12.7,7.494,12.132,8.971
		l-1.832,2.802c0,0-10.582,4.341-36.827-5.231c0,0,18.627,7.26,35.473,11.723c0,0-8.427,4.619-38.141-5.784
		c0,0,18.944,8.434,35.962,11.459c0,0-12.91,2.058-37.179-5.755c0,0,20.141,10.48,35.188,10.748c0,0-10.426,3.166-35.347-2.338
		c0,0,17.933,8.432,33.655,5.951l-1.173,2.062c0,0-2.196,3.657-5.439,2.922c-7.243,1.168-20.28,0.896-42.793-8.296
		c-11.609-4.742-24.458-12.326-38.207-23.135c-3.458-2.463-2.576-5.817-2.576-5.817l0.469-1.403l0.585-1.763l1.865-5.583
		l1.735-4.273c-23.16,14.03-49.615,23.168-77.935,25.979l-19.42,16.485l-18.938-16.59c-28.681-3.007-55.429-12.509-78.746-27.008
		l2.195,5.407l1.866,5.592l0.822,2.085l0.233,1.072c0,0,0.882,3.354-2.577,5.817c-13.749,10.809-26.599,18.393-38.209,23.135
		c-22.512,9.192-35.547,9.464-42.792,8.296c-3.243,0.735-5.439-2.922-5.439-2.922l-1.173-2.062
		c15.723,2.48,33.655-5.951,33.655-5.951c-24.921,5.504-35.347,2.338-35.347,2.338c15.047-0.268,35.188-10.748,35.188-10.748
		c-24.269,7.813-37.178,5.755-37.178,5.755c17.017-3.025,35.96-11.459,35.96-11.459c-29.712,10.403-38.138,5.784-38.138,5.784
		c16.844-4.463,35.47-11.723,35.47-11.723c-26.245,9.572-36.827,5.231-36.827,5.231l-1.671-2.555
		c-0.65-1.606,4.018-5.006,12.03-9.211c-15.979-1.947-34.871-6.154-55.508-14.414c-3.691-1.237-5.102-4.642-5.629-6.325
		c-0.671-2.147-0.905-4.629-0.944-6.992c-0.081-4.82,0.631-10.725,1.784-16.239c1.143-5.47,2.826-11.089,4.934-15.187
		c1.006-1.957,2.434-4.229,4.467-5.78c2.292-1.75,5.768-2.756,9.223-0.898c29.515,12.027,63.319,21.766,86.28,21.439
		C83.357,348.613,64.005,303.519,64.005,253.908z"/>
	<g>
		<g>
			<defs>
				<path id="SVGID_1_" d="M116.213,25.029l1.075-2.867l-13.946,9.271l-3.902-1.082l4.338,4.135L116.213,25.029z M107.954,38.989
					l-3.89,1.211c0,0-7.463-7.39-8.439-10.847c-1.178-4.17,17.894-16.695,21.277-15.545c3.095,1.053,7.443,11.864,7.443,11.864
					l-3.149,3.89l17.11,25.471l-16.455,4.95l-5.26-7.876l12.849-5.14l-15.294,1.464l-2.949-4.455l12.774-4.082l-14.644,1.233
					L107.954,38.989z"/>
			</defs>
			<use xlink:href="#SVGID_1_"  overflow="visible" fill="#FFFFFF"/>
			<clipPath id="SVGID_2_">
				<use xlink:href="#SVGID_1_"  overflow="visible"/>
			</clipPath>
			<g clip-path="url(#SVGID_2_)">
				<polygon fill="#FFFFFF" points="146.057,52.568 127.804,27.752 129.559,22.175 119.793,7.384 98.703,14.429 89.811,28.88 
					101.277,41.358 105.422,42.104 117.357,64.551 				"/>
			</g>
		</g>
	</g>
	<g>
		<g>
			<defs>
				<path id="SVGID_3_" d="M139.708,57.121l28.589,42.558c-1.435,0.211-8.378,1.1-18.27,2.267l-25.436-37.864L139.708,57.121z"/>
			</defs>
			<use xlink:href="#SVGID_3_"  overflow="visible" fill="#A7B1B7"/>
			<clipPath id="SVGID_4_">
				<use xlink:href="#SVGID_3_"  overflow="visible"/>
			</clipPath>
			<g clip-path="url(#SVGID_4_)">
				<polygon fill="#FFFFFF" points="146.057,52.568 127.804,27.752 129.559,22.175 119.793,7.384 98.703,14.429 89.811,28.88 
					101.277,41.358 105.422,42.104 117.357,64.551 				"/>
			</g>
		</g>
	</g>
	<g>
		<g>
			<defs>
				<path id="SVGID_5_" d="M443.797,415.218l-5.244-20.555l1.002,21.491l-4.688-35.947l4.855,3.934L443.797,415.218z
					 M430.925,420.161l-1.546,0.199l-5.411-3.492l-2.409-9.257l0.255,12.126l-6.065-34.443l7.729,17.865l-3.353-17L430.925,420.161z
					 M450.08,375.016c8.333-2.814,16.436-5.87,23.944-8.939c7.637-4.876,16.023,38.496,9.077,40.244
					c-7.452,2.99-14.666,5.437-21.588,7.427l-13.464-28.833l8.91,14.092L450.08,375.016z M318.287,322.107
					c20.646,30.416,35.261,51.736,38.152,55.449c7.664,9.849,23.876,11.928,43.157,9.696l3.745,10.51l-3.68-5.596l8.108,24.25
					c-2.772-1.138-5.654-2.284-8.613-3.419c-22.154-8.505-41.271-13.678-45.778-12.567c-7.869-8.718-13.249-17.048-13.249-17.048
					l-27.089-40.039L318.287,322.107z"/>
			</defs>
			<use xlink:href="#SVGID_5_"  overflow="visible" fill="#A7B1B7"/>
			<clipPath id="SVGID_6_">
				<use xlink:href="#SVGID_5_"  overflow="visible"/>
			</clipPath>
			<g clip-path="url(#SVGID_6_)">
				<polygon fill="#FFFFFF" points="146.057,52.568 127.804,27.752 129.559,22.175 119.793,7.384 98.703,14.429 89.811,28.88 
					101.277,41.358 105.422,42.104 117.357,64.551 				"/>
				<polygon stroke="#000000" stroke-width="1.3389" stroke-miterlimit="3.8636" points="123.331,60.432 139.746,55.442 
					125.05,62.708 				"/>
			</g>
		</g>
	</g>
	<g>
		<g>
			<defs>
				<path id="SVGID_7_" d="M383.786,25.029l12.438,9.456l4.337-4.135l-3.901,1.082l-13.947-9.271L383.786,25.029z M392.046,38.989
					l-1.162,1.817l-12.928-1.088l11.037,3.973l-3.479,5.255l-13.91-1.449l12.041,4.258l-6.11,9.148l-15.798-5.934l17.069-25.407
					l-3.149-3.89c0,0,4.348-10.813,7.444-11.864c3.381-1.15,22.453,11.375,21.276,15.545C403.4,32.81,395.936,40.2,395.936,40.2
					L392.046,38.989z"/>
			</defs>
			<use xlink:href="#SVGID_7_"  overflow="visible" fill="#FFFFFF"/>
			<clipPath id="SVGID_8_">
				<use xlink:href="#SVGID_7_"  overflow="visible"/>
			</clipPath>
			<g clip-path="url(#SVGID_8_)">
				<polygon fill="#FFFFFF" points="353.943,52.568 372.198,27.752 370.441,22.175 380.206,7.384 401.297,14.429 410.188,28.88 
					398.723,41.358 394.576,42.104 382.645,64.551 				"/>
			</g>
		</g>
	</g>
	<g>
		<g>
			<defs>
				<path id="SVGID_9_" d="M376.021,63.166l-27.748,41.305c-8.586-1.023-14.477-1.778-15.259-1.884
					c-1.005-0.171-2.001-0.308-2.987-0.414l31.105-46.302L376.021,63.166z"/>
			</defs>
			<use xlink:href="#SVGID_9_"  overflow="visible" fill="#A7B1B7"/>
			<clipPath id="SVGID_10_">
				<use xlink:href="#SVGID_9_"  overflow="visible"/>
			</clipPath>
			<g clip-path="url(#SVGID_10_)">
				<polygon fill="#FFFFFF" points="353.943,52.568 372.198,27.752 370.441,22.175 380.206,7.384 401.297,14.429 410.188,28.88 
					398.723,41.358 394.576,42.104 382.645,64.551 				"/>
			</g>
		</g>
	</g>
	<g>
		<g>
			<defs>
				<path id="SVGID_11_" d="M55.751,415.218l4.076-31.077l4.855-3.934l-4.688,35.947l1.002-21.491L55.751,415.218z M38.216,413.668
					c-6.839-1.976-13.963-4.396-21.318-7.348c-6.946-1.748,1.44-45.12,9.077-40.244c7.25,2.963,15.053,5.913,23.085,8.648
					l-6.473,24.281l8.911-14.092L38.216,413.668z M69.744,420.249l-1.493-0.198l11.171-33.892l-3.351,17l7.728-17.865l-5.994,34.485
					l0.185-12.168l-2.41,9.257L69.744,420.249z M187.377,342.726l-27.507,40.656c0,0-5.379,8.33-13.249,17.048
					c-4.508-1.11-23.624,4.063-45.779,12.567c-3.147,1.208-6.203,2.426-9.139,3.636l8.185-24.467l-3.68,5.596l3.762-10.562
					c19.47,2.313,35.87,0.279,43.592-9.645c2.91-3.738,17.702-25.322,38.569-56.064L187.377,342.726z"/>
			</defs>
			<use xlink:href="#SVGID_11_"  overflow="visible" fill="#A7B1B7"/>
			<clipPath id="SVGID_12_">
				<use xlink:href="#SVGID_11_"  overflow="visible"/>
			</clipPath>
			<g clip-path="url(#SVGID_12_)">
				<polygon fill="#FFFFFF" points="353.943,52.568 372.198,27.752 370.441,22.175 380.206,7.384 401.297,14.429 410.188,28.88 
					398.723,41.358 394.576,42.104 382.645,64.551 				"/>
				<polygon stroke="#000000" stroke-width="1.3389" stroke-miterlimit="3.8636" points="376.668,60.432 360.254,55.442 
					374.949,62.708 				"/>
			</g>
		</g>
	</g>
	<g>
		<path fill="#900028" d="M110.392,348.336l12.959,20.313l2.328-2.384l-1.096-2.191l13.807-10.14l1.24,1.533l2.135-1.729
			l-7.435-8.342l-0.604,0.987l-1.119,0.41l1.168,3.176l-5.216,3.181l-3.6-5.284l4.39-5.096l-3.355-8.563l-2.576-0.496l1.366,6.052
			l-3.931,4.768l-5.125-1.014l-5.215,3.18L110.392,348.336z M119.672,350.064l5.441,5.88l-3.371,3.726l-1.335,0.084l-4.791-9.438
			l1.236-1.048L119.672,350.064z"/>
		<polygon fill="#900028" points="110.028,333.319 119.684,329.283 123.006,329.911 113.572,309.679 108.927,311.379 
			110.276,315.608 112.943,314.83 114.45,316.728 116.675,324.081 111.155,326.657 107.295,320.958 104.806,322.12 106.688,328.74 
			103.179,330.375 98.62,321.935 100.978,320.409 99.085,316.436 93.419,318.611 103.209,339.607 105.22,338.669 		"/>
		<path fill="#900028" d="M102.263,306.537l8.23,0.429l2.201-0.268l-10.93-22.504l-14.747,4.511l3.523,24.766l3.165-0.968
			l-0.813-2.659L102.263,306.537z M95.479,291.933l6.453-1.53l4.486,9.01l-13.693,4.222l-2.375-9.691L95.479,291.933z"/>
		<path fill="#900028" d="M92.132,261.143l7.409,3.611l2.13,0.612l-1.269-24.985l-15.335-1.61l-6.435,24.174l3.291,0.346
			l0.291-2.765L92.132,261.143z M91.592,245.048l6.539,1.112l0.609,10.047l-14.255-1.461l1.602-9.851L91.592,245.048z"/>
		<polygon fill="#900028" points="91.562,233.883 101.917,235.396 104.442,237.645 106.775,215.444 101.918,214.509 
			100.897,218.827 103.584,219.534 103.898,221.938 102.017,229.388 95.96,228.751 95.585,221.879 92.853,221.593 91.058,228.236 
			87.207,227.831 87.646,218.248 90.454,218.154 90.878,213.773 84.9,212.72 82.479,235.76 84.685,235.991 		"/>
		<polygon fill="#900028" points="97.694,206.322 107.57,209.783 109.62,212.471 116.146,191.125 111.557,189.28 109.731,193.324 
			112.233,194.531 112.083,196.951 108.815,203.905 102.991,202.124 103.934,195.308 101.307,194.504 98.276,200.683 94.573,199.55 
			96.834,190.229 99.607,190.67 100.861,186.452 95.193,184.277 88.419,206.432 90.541,207.08 		"/>
		<path fill="#900028" d="M111.616,157.872l-13.634,19.867l3.104,1.211l1.59-1.866l14.729,8.748l-0.925,1.741l2.424,1.289
			l4.773-10.102l-1.145-0.17l-0.813-0.871l-2.467,2.316l-4.967-3.558l3.458-5.378l6.406,2.05l6.571-6.434l-0.55-2.566l-5.037,3.622
			l-5.925-1.754l-1.068-5.114l-4.967-3.557L111.616,157.872z M113.654,167.09l-3.286,7.305l-4.747-1.648l-0.6-1.196l6.818-8.098
			l1.446,0.729L113.654,167.09z"/>
	</g>
	<g>
		<path fill="#900028" d="M403.036,185.382l-8.059-22.706l-2.802,1.798l0.573,2.384l-15.733,6.773l-0.866-1.772l-2.467,1.203
			l5.367,9.8l0.812-0.826l1.182-0.146l-0.423-3.358l5.797-1.927l2.321,5.959l-5.427,3.978l1.345,9.099l2.396,1.062l0.029-6.203
			l4.905-3.762l4.764,2.141l5.798-1.927L403.036,185.382z M394.384,181.613l-3.979-6.953l4.122-2.872l1.321,0.217l2.543,10.276
			l-1.439,0.741L394.384,181.613z"/>
		<polygon fill="#900028" points="401.393,204.677 391.271,207.331 388.069,206.248 394.593,227.594 399.432,226.557 
			398.683,222.184 395.934,222.583 394.706,220.492 393.524,212.9 399.348,211.12 402.38,217.298 405.006,216.496 404.063,209.678 
			407.767,208.546 411.104,217.539 408.557,218.723 409.878,222.921 415.792,221.554 409.021,199.4 406.9,200.049 		"/>
		<path fill="#900028" d="M419.186,239.11l-0.46-4.378l-2.731,0.287l0.207,1.961l-16.414,2.151l-2.497-2.536l-2.164,0.618
			l1.587,15.092l5.203,7.063l5.462-0.573l2.392-3.862l8.084,3.151L419.186,239.11z M412.375,243.011l3.894,0.017l-2.25,10.255
			l-3.806-9.619L412.375,243.011z M399.109,248.831l0.143-4.015l7.185-0.366l-2.853,9.929L399.109,248.831z"/>
		<polygon fill="#900028" points="408.199,273.088 397.845,271.575 395.32,269.33 392.987,291.528 397.845,292.464 398.863,288.144 
			396.178,287.437 395.864,285.033 397.744,277.584 403.802,278.22 404.176,285.091 406.909,285.379 408.703,278.735 
			412.555,279.14 412.115,288.723 409.308,288.818 408.883,293.198 414.861,294.252 417.282,271.211 415.076,270.981 		"/>
		<polygon fill="#900028" points="388.909,311.17 390.034,309.417 406.273,314.822 406.01,317.613 408.749,318.045 412.126,307.003 
			410.006,306.353 407.486,308.933 391.899,303.321 388.896,299.9 383.414,321.565 389.351,322.976 391.143,318.919 
			388.011,317.964 		"/>
		<polygon fill="#900028" points="387.789,344.794 386.342,350.841 380.591,355.944 375.409,357.846 380.662,362.76 392.564,342.55 
			387.927,338.66 380.006,342.95 375.322,346.833 371.312,348.109 369.91,343.807 372.035,340.399 375.882,335.813 380.547,337.154 
			382.423,334.042 378.306,329.53 376.585,330.705 365.137,348.675 366.289,350.697 367.372,351.101 367.986,352.124 
			378.78,348.679 381.521,346.292 385.437,343.325 		"/>
	</g>
	<path d="M247.859,393.72l-0.732,16.188l3.158,4.404l3.158-4.404l-0.729-16.188l-2.428-1.416L247.859,393.72z"/>
	<path fill="#FFFFFF" d="M250.285,425.963l10.045-14.012l-1.006-22.231l-8.203-4.787l-1.654-12.777l-2.65,14.314l-2.722-28.645
		l-3.245,40.646l-0.608,13.48L250.285,425.963z M206.959,108.92c19.196-10.969,39.333-5.302,42.802-4.192l3.26,22.209l2.886-22.339
		l4.073,10.804l3.848-12.727l5.768,7.691l2.868-7.893c6.556,0.545,13.918,2.316,21.146,6.447c0,0-20.088,34.285,8.17,51.495
		l12.053,6.027l0.849,3.604l-10.434-3.262l8.962,8.965h-11.651l16.285,7.755l8.095,34.433l-18.081,5.156
		c0,0-23.236,25.248,19.087,32.278l-3.442,13.929l-22.918-19.442l21.214,25.113l-12.551-5.379l10.882,13.354l-23.371,94.586
		l-18.213,11.183l-11.185,41.452l-17.426,16.13l-16.724-16.13l-11.184-41.452l-18.214-11.183l-18.667-75.549l14.767-18.121
		l-12.55,5.378l21.212-25.111l-27.102,22.991l-7.845-31.748c42.321-7.03,19.085-32.278,19.085-32.278l-18.08-5.156l12.103-51.496
		l12.054-6.027C227.049,143.205,206.959,108.92,206.959,108.92z"/>
	<path fill="#900028" d="M201.802,113.604c0,0,3.721,9.802,2.805,20.521c-0.225-0.905-0.593-1.706-1.144-2.348
		c0,0-4.848,18.008-13.159,18.008v-11.083c0,0-3.462,13.853-10.391,8.31l2.078-18.698c0,0-2.707,16.789-12.432,21.154
		c-6.625-1.971-11.463-1.553-11.463-1.553c-40.438-1.79-78.019-7.49-95.865-10.537l3.373-2.4c0,0,3.881-8.621,1.293-11.639
		c0,0-3.017,11.207-8.188,11.207v-6.897c0,0-2.155,8.622-6.467,5.172l1.292-11.638c0,0-1.55,9.617-7.021,12.797
		c-10.101-4.411-12.001-15.41-12.001-15.41l-8.691-54.26c0,0,23.052,44.947,36.174,49.293c9.395,6.829,106.738-6.292,106.738-6.292
		C186.199,104.208,201.802,113.604,201.802,113.604z"/>
	<path fill="#900028" d="M298.77,113.604c0,0,15.604-9.396,33.067-6.292c0,0,97.346,13.12,106.738,6.292
		c13.122-4.346,36.173-49.293,36.173-49.293l-8.69,54.26c0,0-1.911,11.059-12.082,15.445c-5.52-3.143-7.082-12.833-7.082-12.833
		l1.292,11.638c-4.312,3.449-6.465-5.172-6.465-5.172v6.897c-5.174,0-8.19-11.207-8.19-11.207
		c-2.587,3.018,1.294,11.639,1.294,11.639l3.4,2.421c-17.894,3.051-55.4,8.73-95.751,10.516c0,0-4.878-0.422-11.549,1.579
		c-9.771-4.324-12.489-21.18-12.489-21.18l2.076,18.698c-6.926,5.543-10.388-8.31-10.388-8.31v11.083
		c-8.313,0-13.161-18.008-13.161-18.008c-0.467,0.545-0.803,1.206-1.031,1.947C295.14,123.162,298.77,113.604,298.77,113.604z"/>
	<g>
		<polygon points="250.498,341.848 242.022,170.374 250.498,140.261 258.973,170.374 		"/>
	</g>
	<polygon fill="#900028" points="176.249,222.306 179.275,233.28 182.682,223.819 	"/>
	<polygon fill="#900028" points="322.787,222.306 319.759,233.28 316.351,223.819 	"/>
	<path fill="#A7A9AC" d="M402.459,416.37c10.832,3.202,22.542,9.61,22.542,9.61l9.769,5.475
		C417.348,422.469,402.459,416.37,402.459,416.37z"/>
	<g>
		<polygon fill="#900028" points="231.371,294.618 199.733,313.076 207.642,353.941 224.78,334.167 206.324,336.804 226.098,317.03 
			203.687,322.303 		"/>
	</g>
	<g>
		<polygon fill="#900028" points="270.098,294.618 301.734,313.076 293.826,353.941 276.688,334.167 295.144,336.804 
			275.371,317.03 297.78,322.303 		"/>
	</g>
	<polygon fill="#900028" points="320.008,207.693 280.789,216.268 272.72,229.715 	"/>
	<polygon fill="#900028" points="181.311,207.693 220.53,216.268 228.599,229.715 	"/>
	<path d="M103.06,426.172c25.845-6.021,38.418-13.474,43.557-17.313c-0.952-1.893-2.458-2.76-3.857-3.141
		C129.432,416.431,103.06,426.172,103.06,426.172z"/>
	<path fill="#A7A9AC" d="M97.542,416.37c-10.833,3.202-22.542,9.61-22.542,9.61l-9.77,5.475
		C82.652,422.469,97.542,416.37,97.542,416.37z"/>
	<path fill="#A7B1B7" d="M103.06,426.172c25.845-6.021,38.418-13.474,43.557-17.313c-0.952-1.893-2.458-2.76-3.857-3.141
		C129.432,416.431,103.06,426.172,103.06,426.172z"/>
	<path fill="#900028" d="M402.459,416.37c10.832,3.202,22.542,9.61,22.542,9.61l9.769,5.475
		C417.348,422.469,402.459,416.37,402.459,416.37z"/>
	<path fill="#900028" d="M353.383,408.859c5.14,3.84,17.711,11.292,43.559,17.313c0,0-26.375-9.741-39.703-20.454
		C355.842,406.099,354.334,406.966,353.383,408.859z"/>
	<g>
		<path d="M353.383,408.859c5.14,3.84,17.711,11.292,43.559,17.313c0,0-26.375-9.741-39.703-20.454
			C355.842,406.099,354.334,406.966,353.383,408.859z"/>
		<path fill="#A7A9AC" d="M402.459,416.37c10.832,3.202,22.542,9.61,22.542,9.61l9.769,5.475
			C417.348,422.469,402.459,416.37,402.459,416.37z"/>
		<path fill="#A7B1B7" d="M353.383,408.859c5.14,3.84,17.711,11.292,43.559,17.313c0,0-26.375-9.741-39.703-20.454
			C355.842,406.099,354.334,406.966,353.383,408.859z"/>
	</g>
	<path fill="#900028" d="M298.77,113.604c0,0,15.604-9.396,33.067-6.292c0,0,97.346,13.12,106.738,6.292
		c13.122-4.346,36.173-49.293,36.173-49.293l-8.69,54.26c0,0-1.911,11.059-12.082,15.445c-5.52-3.143-7.082-12.833-7.082-12.833
		l1.292,11.638c-4.312,3.449-6.465-5.172-6.465-5.172v6.897c-5.174,0-8.19-11.207-8.19-11.207
		c-2.587,3.018,1.294,11.639,1.294,11.639l3.4,2.421c-17.894,3.051-55.4,8.73-95.751,10.516c0,0-4.878-0.422-11.549,1.579
		c-9.771-4.324-12.489-21.18-12.489-21.18l2.076,18.698c-6.926,5.543-10.388-8.31-10.388-8.31v11.083
		c-8.313,0-13.161-18.008-13.161-18.008c-0.467,0.545-0.803,1.206-1.031,1.947C295.14,123.162,298.77,113.604,298.77,113.604z"/>
</g>
</svg>
