<svg height="264.796502" viewBox="0 0 24.9003 17.436" width="377.648493" xmlns="http://www.w3.org/2000/svg"><path d="m5.86708 14.495.029-1.609-.105.06a5.43956 5.43956 0 0 1 -1.799.573 5.4098 5.4098 0 0 1 -.831.069 3.71247 3.71247 0 0 1 -1.253-.204 2.83911 2.83911 0 0 1 -.975-.585 2.97037 2.97037 0 0 1 -.902-1.743 2.74683 2.74683 0 0 1 .234-1.583 2.09268 2.09268 0 0 1 1.461-1.182 4.1447 4.1447 0 0 1 -.48-2.076 5.36729 5.36729 0 0 1 .449-2.181 6.04975 6.04975 0 0 1 1.282-1.88 6.91253 6.91253 0 0 1 1.98-1.383 7.933 7.933 0 0 1 2.55-.696 9.05813 9.05813 0 0 1 .91-.049 4.7249 4.7249 0 0 1 2.77.75 3.22178 3.22178 0 0 1 .97 1.087 3.91776 3.91776 0 0 1 .446 1.498c.008.075.014.149.02.224a2.18834 2.18834 0 0 1 .91-.401c.106-.017.472-.075.472-.075l2.669-.423c.247-.869.435-1.535.437-1.542l.159-.561 3.692-.583-.439 1.399c-.002.006-.089.282-.222.714l4.571-.81-1.254 1.847a1.56917 1.56917 0 0 0 -.268 1.033 2.724 2.724 0 0 0 .305.722 4.92458 4.92458 0 0 1 .57 1.529 3.17706 3.17706 0 0 1 .037.573 2.55746 2.55746 0 0 1 .597 1.245 3.378 3.378 0 0 1 -.019 1.161 3.16121 3.16121 0 0 1 -.477 1.161 3.52324 3.52324 0 0 1 -2.496 1.473 17.10342 17.10342 0 0 1 -2.315.212 20.23364 20.23364 0 0 0 -2.817.273 14.53805 14.53805 0 0 0 -3.853 1.214 9.80919 9.80919 0 0 0 -3.29 2.378l-1.107 1.312c-.375-1.471-.653-2.886-2.618-2.941m.029-10.909a4.62029 4.62029 0 0 0 -1.081.725 2.482 2.482 0 0 0 -.941 1.64c.002.077.026.236.145.268a1.29207 1.29207 0 0 0 .543-.05l.506-.157c.006-.024.011-.047.018-.071a8.88647 8.88647 0 0 1 .69-2.157q.057-.1035.12-.198" fill="#ef3841"/><path d="m24.25778 8.34714a2.07441 2.07441 0 0 0 -.623-1.122 2.43131 2.43131 0 0 0 -.012-.696 4.27711 4.27711 0 0 0 -.508-1.34 3.1336 3.1336 0 0 1 -.366-.911 2.11444 2.11444 0 0 1 .406-1.501l.419-.606-2.043.374-.062.057a12.19481 12.19481 0 0 0 -2.047 2.973c-.282.509-.549.989-.791 1.337a2.22226 2.22226 0 0 1 -.361.43c-.02.017-.051.011-.04-.031.091-.359.398-1.703.795-3.072l1.15-.181.381-1.362-1.123.178c.282-.936.506-1.65.509-1.658l.142-.455-2.323.368-.052.182c-.003.008-.247.876-.544 1.921l-.521.083v-.002l-2.124.338s-.053.237-.069.313a.98848.98848 0 0 0 -.602-.19 1.306 1.306 0 0 0 -.213.017 3.38677 3.38677 0 0 0 -1.824 1.561c-.016.022-.03.044-.044.066a4.45949 4.45949 0 0 0 .23-1.994 2.84747 2.84747 0 0 0 -1.16-2.145 4.11839 4.11839 0 0 0 -2.414-.638 8.10438 8.10438 0 0 0 -.847.046 7.36321 7.36321 0 0 0 -2.354.641 6.28993 6.28993 0 0 0 -1.804 1.259 5.4837 5.4837 0 0 0 -1.154 1.69 4.77851 4.77851 0 0 0 -.398 1.933 3.12167 3.12167 0 0 0 .604 2.061 1.53182 1.53182 0 0 0 1.143.542c.045 0 .089-.003.132-.007a1.55162 1.55162 0 0 0 1.036-.535 1.645 1.645 0 0 0 .348-1.264l-.037-.357-.342.105a3.77356 3.77356 0 0 1 -.685.129c-.008.001-.022.001-.042.001a.76978.76978 0 0 1 -.456-.151.94712.94712 0 0 1 -.302-.772 3.02585 3.02585 0 0 1 1.143-2.105 4.99466 4.99466 0 0 1 2.771-1.272 5.26341 5.26341 0 0 1 .583-.033 2.25885 2.25885 0 0 1 1.414.38l-1.513.238a1.70638 1.70638 0 0 0 -1.344.912 8.51937 8.51937 0 0 0 -.63 2.003c-.064.263-.136.561-.216.876-.793 3.116-1.18 4.498-2.026 4.632a.59563.59563 0 0 1 -.092.008.59131.59131 0 0 1 -.545-.565.62291.62291 0 0 1 .236-.613.90676.90676 0 0 1 .339-.149l.348-.05-.117-.338a1.645 1.645 0 0 0 -.478-.753 1.28852 1.28852 0 0 0 -.85-.286 2.187 2.187 0 0 0 -.333.027 1.49134 1.49134 0 0 0 -1.13.865 2.15393 2.15393 0 0 0 -.181 1.221 2.35711 2.35711 0 0 0 .712 1.387 2.58132 2.58132 0 0 0 1.811.625 4.78462 4.78462 0 0 0 .734-.06 3.61775 3.61775 0 0 0 2.623-1.426 9.19878 9.19878 0 0 0 1.082-2.902l.007-.022a4.98289 4.98289 0 0 0 1.677-.483 5.19792 5.19792 0 0 0 1.652-1.26c.069-.08.134-.162.196-.245-.029.069-.058.137-.085.206a6.311 6.311 0 0 0 -.41 1.552 4.44822 4.44822 0 0 1 -2.476 1.068l-.235.021a7.19761 7.19761 0 0 1 -.679 1.98l.505-.079a6.51982 6.51982 0 0 0 2.183-.737 5.31748 5.31748 0 0 0 .824-.564 1.18674 1.18674 0 0 0 .383.501 1.29966 1.29966 0 0 0 .768.248c-1.448.316-2.545.635-3.303.882a13.91383 13.91383 0 0 0 -1.936.757l-.154.081-.027 1.486.252.042a2.29575 2.29575 0 0 1 1.467.88 2.581 2.581 0 0 1 .404.726l.158.517.35-.413a10.40877 10.40877 0 0 1 3.497-2.538 15.22426 15.22426 0 0 1 4.02-1.267 20.90118 20.90118 0 0 1 2.891-.279 16.441 16.441 0 0 0 2.242-.205 2.92033 2.92033 0 0 0 2.08-1.208 2.54624 2.54624 0 0 0 .384-.935 2.724 2.724 0 0 0 .016-.949m-14.994-2.303a2.43048 2.43048 0 0 1 -1.346 1.098c.337-1.641.688-3.546 1.553-3.886a1.99992 1.99992 0 0 1 .275.881 3.22092 3.22092 0 0 1 -.482 1.907m3.853.735a3.95174 3.95174 0 0 1 .428-.819c.167-.23.27-.287.31-.287.036 0 .043.042.051.095a3.88419 3.88419 0 0 1 -.243 1.533c-.207.588-.487.977-.761 1.06a.16219.16219 0 0 1 -.078.01c-.042-.009-.058-.081-.062-.11a4.18111 4.18111 0 0 1 .355-1.482m-.495 3.843a2.28689 2.28689 0 0 0 .575-.412 4.15723 4.15723 0 0 0 .448-.507 1.09326 1.09326 0 0 0 .814.585q-.98853.162-1.837.334m2.95-3.233c.168-.65.181-.699.714-2.717l.492-.078c-.372 1.308-.606 2.119-.68 2.36l-.005.017c-.034.109-.066.212-.096.312a1.32672 1.32672 0 0 1 -.496.623c-.015.009-.02-.008-.02-.018a2.45948 2.45948 0 0 1 .091-.499m-.453 2.796a2.20055 2.20055 0 0 0 .5-.374 4.68024 4.68024 0 0 0 .39-.428 1.45428 1.45428 0 0 0 .146.205 1.12969 1.12969 0 0 0 .668.385c-.525.052-1.092.121-1.704.212m6.246-2.878a.82408.82408 0 0 1 -.514.268.24223.24223 0 0 1 -.045.004.16552.16552 0 0 1 -.11-.03.11275.11275 0 0 1 .052-.112.73878.73878 0 0 1 .351-.133.58454.58454 0 0 1 .098-.006q.07648 0 .168.009m-.293-2.26c.005.07.012.14.022.206a5.05163 5.05163 0 0 0 .226.931c-.065-.004-.13-.006-.194-.006a2.7875 2.7875 0 0 0 -.443.035 1.67787 1.67787 0 0 0 -.406.117 7.6496 7.6496 0 0 1 .795-1.283m1.512 4.21a2.57393 2.57393 0 0 1 -1.146.483 10.53406 10.53406 0 0 1 -1.177.054c-.69.011-1.588.026-2.712.115a2.66808 2.66808 0 0 0 1.323-1.015 6.93143 6.93143 0 0 0 .509-.797 1.51746 1.51746 0 0 0 .58.938 1.78217 1.78217 0 0 0 1.089.345 2.21216 2.21216 0 0 0 .343-.027 2.95562 2.95562 0 0 0 1.105-.43 2.67955 2.67955 0 0 0 .53-.44 1.03134 1.03134 0 0 1 -.444.774" fill="#fff"/><path d="m23.96638 8.39423a1.89547 1.89547 0 0 0 -.649-1.064 2.0845 2.0845 0 0 0 .014-.755c-.144-.907-.759-1.519-.874-2.251a2.39574 2.39574 0 0 1 .468-1.734l-1.258.23c-1.537 1.403-2.634 4.757-3.488 4.892-.183.029-.327-.032-.251-.402.052-.256.414-1.796.866-3.333l1.147-.181.205-.736-1.132.179c.348-1.163.645-2.111.645-2.111l-1.666.263s-.274.966-.596 2.103l-.674.107-.193.733.657-.103c-.352 1.24-.709 2.488-.807 2.809-.038.122-.074.236-.106.347-.201.45-.512.789-.79.833-.337.054-.368-.251-.199-.905.192-.738.186-.718.958-3.639l-1.479.235s-.065.291-.162.728a.79977.79977 0 0 0 -.92-.557c-.89.142-2.53 2.229-2.756 4.377a4.6413 4.6413 0 0 1 -2.733 1.235 4.39867 4.39867 0 0 1 -.434 1.329 5.3402 5.3402 0 0 0 3.171-1.569l.018.131a.98477.98477 0 0 0 1.237.871 2.77291 2.77291 0 0 0 1.553-1.412c.071.485.356 1.055 1.046.946.374-.06.87-.583 1.307-1.209a.99152.99152 0 0 0 1.128.901c2.041-.323 2.431-3.986 4.157-5.365a4.44621 4.44621 0 0 0 .01.89 7.905 7.905 0 0 0 .359 1.334 2.78622 2.78622 0 0 0 -1.016-.037 1.24951 1.24951 0 0 0 -1.068 1.484 1.37081 1.37081 0 0 0 1.686 1.074 2.54082 2.54082 0 0 0 1.788-1.23 1.01073 1.01073 0 0 1 .172.425c.166 1.047-.999 1.645-1.823 1.775a56.80955 56.80955 0 0 0 -6.692.501c-5.595.883-7.977 2.138-7.977 2.138l-.018 1.055a2.76794 2.76794 0 0 1 2.104 1.81c1.819-2.155 5.208-3.511 7.698-3.904 2.732-.431 3.015-.15 5.131-.484a2.37952 2.37952 0 0 0 2.236-2.754m-11.07.27c-.253.04-.383-.081-.427-.356-.087-.55.62-2.835 1.392-2.957.238-.038.297.112.337.371.106.699-.362 2.792-1.302 2.942m8-.797a.40032.40032 0 0 1 -.492-.271c-.049-.311.241-.52.648-.585a2.40056 2.40056 0 0 1 .746.066 1.04564 1.04564 0 0 1 -.902.79m-13.515.416c-.672 2.54-.964 3.932-3.526 4.336-1.959.31-2.757-.685-2.919-1.705a1.47414 1.47414 0 0 1 1.066-1.748 1.07377 1.07377 0 0 1 1.335.817.97148.97148 0 0 0 -.82 1.084.86532.86532 0 0 0 .976.818c1.035-.164 1.426-1.551 2.266-4.851.601-2.359.65-3.367 1.949-3.572.443-.07 1.288-.204 1.288-.204-.712.536-1.011 2.083-1.456 4.259 1.809-.19 2.626-2.19 2.499-3.411-.15-1.445-1.128-1.999-2.891-1.816-2.232.233-4.21 2.134-4.178 3.679.024 1.127.851 1.233 1.121 1.209a3.99171 3.99171 0 0 0 .745-.14 1.25021 1.25021 0 0 1 -1.121 1.474c-.507.052-1.538-.272-1.553-2.304-.019-2.478 2.114-4.881 5.444-5.228 2.213-.23 3.883.41 4.098 2.475a4.50568 4.50568 0 0 1 -4.323 4.828" fill="#193768"/></svg>