<?xml version="1.0" encoding="UTF-8" standalone="no"?>
<!-- Created with Inkscape (http://www.inkscape.org/) -->

<svg
   xmlns:dc="http://purl.org/dc/elements/1.1/"
   xmlns:cc="http://creativecommons.org/ns#"
   xmlns:rdf="http://www.w3.org/1999/02/22-rdf-syntax-ns#"
   xmlns:svg="http://www.w3.org/2000/svg"
   xmlns="http://www.w3.org/2000/svg"
   xmlns:sodipodi="http://sodipodi.sourceforge.net/DTD/sodipodi-0.dtd"
   xmlns:inkscape="http://www.inkscape.org/namespaces/inkscape"
   id="svg2"
   version="1.1"
   inkscape:version="0.91 r13725"
   xml:space="preserve"
   width="348.825483691"
   height="286.676302838"
   viewBox="0 0 575 472.55399"
   sodipodi:docname="SaiPa logo.svg"><metadata
     id="metadata8"><rdf:RDF><cc:Work
         rdf:about=""><dc:format>image/svg+xml</dc:format><dc:type
           rdf:resource="http://purl.org/dc/dcmitype/StillImage" /><dc:title></dc:title></cc:Work></rdf:RDF></metadata><defs
     id="defs6"><clipPath
       clipPathUnits="userSpaceOnUse"
       id="clipPath16"><path
         d="M 0,410 460,410 460,0 0,0 0,410 Z"
         id="path18"
         inkscape:connector-curvature="0" /></clipPath></defs><sodipodi:namedview
     pagecolor="#ffffff"
     bordercolor="#666666"
     borderopacity="1"
     objecttolerance="10"
     gridtolerance="10"
     guidetolerance="10"
     inkscape:pageopacity="0"
     inkscape:pageshadow="2"
     inkscape:window-width="1431"
     inkscape:window-height="725"
     id="namedview4"
     showgrid="false"
     inkscape:zoom="0.66240393"
     inkscape:cx="-67.647965"
     inkscape:cy="294.16833"
     inkscape:window-x="0"
     inkscape:window-y="0"
     inkscape:window-maximized="0"
     inkscape:current-layer="g10" /><g
     id="g10"
     inkscape:groupmode="layer"
     inkscape:label="saipa-logo"
     transform="matrix(1.25,0,0,-1.25,0,472.554)"><g
       id="g12"
       transform="translate(0,-16.017904)"><g
         id="g14"
         clip-path="url(#clipPath16)"><g
           id="g20"
           transform="translate(371.8574,251.5205)"><path
             d="M 0,0 C 3.939,0.055 8.063,-2.484 8.466,-8.436 8.654,-11.202 6.168,-12.967 3.545,-13.937 2.745,-9.023 0.797,-3.957 0,0 m -290.699,-103.845 c -11.551,3.627 -18.822,6.067 -30.12,10.359 -19.538,7.319 -48.924,21.491 -46.65,36.646 0.784,5.222 3.004,8.063 11.806,7.925 8.937,-0.139 56.212,-18.57 49.648,-10.55 -29.578,8.306 -47.171,19.971 -47.399,32.999 -0.275,15.789 24.289,29.051 65.443,39.519 5.144,11.844 11.329,22.368 19.096,32.488 l -49.289,82.417 82.55,-49.924 c 25.018,18.029 55.585,28.871 88.769,29.451 34.173,0.596 66.216,-9.736 92.304,-27.839 l 78.776,51.751 -44.528,-84.401 c 5.272,-6.763 10.072,-13.53 14.197,-21.12 C 44.862,22.874 83.035,8.464 83.35,-9.536 83.59,-23.348 61.468,-35.825 28.197,-43.043 c -3.631,-3.762 -3.453,-5.994 -5.928,-9.633 -7.582,-13.664 6.793,0.119 11.941,0.209 3.96,0.069 7.634,-0.652 6.843,-4.534 -2.871,-14.079 -10.162,-21.372 -18.24,-26.851 -6.438,-4.366 -10.834,-5.037 -16.005,-6.993 -5.005,-18.52 -13.566,-35.218 -24.534,-50.374 l 49.66,-77.572 -81.573,44.238 c -25.597,-19.368 -57.193,-31.118 -91.728,-31.72 -37.343,-0.653 -72.042,12.353 -99.359,33.672 l -76.468,-51.758 45.854,83.18 c -7.901,10.935 -14.46,24.52 -19.359,37.334"
             style="fill:#918f90;fill-opacity:1;fill-rule:evenodd;stroke:none"
             id="path22"
             inkscape:connector-curvature="0" /></g><g
           id="g24"
           transform="translate(371.8574,251.5205)"><path
             d="M 0,0 C 3.939,0.055 8.063,-2.484 8.466,-8.436 8.654,-11.202 6.168,-12.967 3.545,-13.937 2.745,-9.023 0.797,-3.957 0,0 Z m -290.699,-103.845 c -11.551,3.627 -18.822,6.067 -30.12,10.359 -19.538,7.319 -48.924,21.491 -46.65,36.646 0.784,5.222 3.004,8.063 11.806,7.925 8.937,-0.139 56.212,-18.57 49.648,-10.55 -29.578,8.306 -47.171,19.971 -47.399,32.999 -0.275,15.789 24.289,29.051 65.443,39.519 5.144,11.844 11.329,22.368 19.096,32.488 l -49.289,82.417 82.55,-49.924 c 25.018,18.029 55.585,28.871 88.769,29.451 34.173,0.596 66.216,-9.736 92.304,-27.839 l 78.776,51.751 -44.528,-84.401 c 5.272,-6.763 10.072,-13.53 14.197,-21.12 C 44.862,22.874 83.035,8.464 83.35,-9.536 83.59,-23.348 61.468,-35.825 28.197,-43.043 c -3.631,-3.762 -3.453,-5.994 -5.928,-9.633 -7.582,-13.664 6.793,0.119 11.941,0.209 3.96,0.069 7.634,-0.652 6.843,-4.534 -2.871,-14.079 -10.162,-21.372 -18.24,-26.851 -6.438,-4.366 -10.834,-5.037 -16.005,-6.993 -5.005,-18.52 -13.566,-35.218 -24.534,-50.374 l 49.66,-77.572 -81.573,44.238 c -25.597,-19.368 -57.193,-31.118 -91.728,-31.72 -37.343,-0.653 -72.042,12.353 -99.359,33.672 l -76.468,-51.758 45.854,83.18 c -7.901,10.935 -14.46,24.52 -19.359,37.334 z"
             style="fill:none;stroke:#ffffff;stroke-width:22.29199982;stroke-linecap:round;stroke-linejoin:round;stroke-miterlimit:3.86400008;stroke-dasharray:none;stroke-opacity:1"
             id="path26"
             inkscape:connector-curvature="0" /></g><g
           id="g28"
           transform="translate(372.3848,251.4414)"><path
             d="m 0,0 c 3.939,0.054 8.063,-2.486 8.466,-8.438 0.186,-2.765 -2.298,-4.529 -4.921,-5.5 C 2.744,-9.023 0.796,-3.957 0,0 m -290.699,-103.847 c -11.551,3.629 -18.821,6.069 -30.12,10.361 -19.537,7.317 -48.924,21.491 -46.649,36.646 0.784,5.222 3.004,8.063 11.806,7.925 8.938,-0.14 56.212,-18.57 49.646,-10.551 -29.577,8.307 -47.169,19.971 -47.398,32.998 -0.275,15.79 24.289,29.053 65.442,39.52 5.145,11.844 11.33,22.367 19.096,32.488 l -49.287,82.418 82.549,-49.926 c 25.019,18.029 55.584,28.873 88.77,29.453 34.172,0.597 66.216,-9.737 92.302,-27.84 l 78.776,51.752 -44.529,-84.401 c 5.274,-6.766 10.074,-13.53 14.2,-21.12 50.958,-3.002 89.129,-17.412 89.445,-35.414 0.24,-13.81 -21.883,-26.288 -55.151,-33.505 -3.633,-3.763 -3.455,-5.995 -5.93,-9.634 -7.581,-13.663 6.792,0.118 11.942,0.208 3.959,0.071 7.634,-0.651 6.842,-4.533 -2.871,-14.078 -10.162,-21.372 -18.24,-26.85 -6.437,-4.366 -10.834,-5.038 -16.004,-6.995 -5.006,-18.52 -13.566,-35.216 -24.534,-50.375 l 49.657,-77.57 -81.571,44.237 c -25.597,-19.366 -57.192,-31.117 -91.727,-31.72 -37.344,-0.652 -72.043,12.354 -99.359,33.674 l -76.468,-51.758 45.855,83.18 c -7.902,10.934 -14.463,24.52 -19.361,37.332"
             style="fill:#100f0d;fill-opacity:1;fill-rule:evenodd;stroke:none"
             id="path30"
             inkscape:connector-curvature="0" /></g><g
           id="g32"
           transform="translate(168.3076,112.6367)"><path
             d="m 0,0 0,3.99 c 3.374,0.365 5.727,0.973 7.059,1.823 1.332,0.866 2.328,2.899 2.984,6.101 l 3.686,0 0,-41.237 -4.984,0 L 8.745,0 0,0 Z"
             style="fill:#ffffff;fill-opacity:1;fill-rule:evenodd;stroke:none"
             id="path34"
             inkscape:connector-curvature="0" /></g><g
           id="g36"
           transform="translate(201.1211,93.3193)"><path
             d="m 0,0 c 0.137,-2.874 1.132,-4.857 2.984,-5.956 0.951,-0.578 2.023,-0.868 3.217,-0.868 2.232,0 4.134,1.031 5.71,3.095 1.574,2.082 2.69,6.292 3.348,12.635 C 14.221,7.075 12.931,5.784 11.392,5.031 9.87,4.299 8.225,3.933 6.461,3.933 c -3.582,0 -6.419,1.244 -8.512,3.73 -2.076,2.487 -3.114,5.688 -3.114,9.601 0,3.759 1.028,7.063 3.088,9.919 2.057,2.853 5.095,4.278 9.109,4.279 5.415,0 9.152,-2.719 11.21,-8.154 1.143,-2.989 1.713,-6.73 1.713,-11.22 0,-5.071 -0.683,-9.564 -2.049,-13.477 -2.266,-6.516 -6.108,-9.772 -11.523,-9.774 -3.634,0 -6.392,1.061 -8.279,3.182 -1.886,2.119 -2.828,4.78 -2.828,7.981 L 0,0 Z m 12.145,10.525 c 1.54,1.37 2.308,3.75 2.31,7.143 0,3.046 -0.692,5.311 -2.077,6.796 -1.368,1.504 -3.114,2.257 -5.243,2.257 -2.282,0 -4.099,-0.859 -5.448,-2.575 -1.333,-1.697 -2,-3.972 -2,-6.825 0,-2.699 0.589,-4.849 1.764,-6.447 1.177,-1.582 3.055,-2.372 5.632,-2.372 1.852,0 3.538,0.674 5.062,2.023"
             style="fill:#ffffff;fill-opacity:1;fill-rule:evenodd;stroke:none"
             id="path38"
             inkscape:connector-curvature="0" /></g><g
           id="g40"
           transform="translate(242.4707,97.9746)"><path
             d="M 0,0 0,18.768 -11.912,0 0,0 Z m 0.078,-14.661 0,10.121 -16.298,0 0,5.09 17.025,26.315 3.944,0 0,-26.865 5.477,0 0,-4.54 -5.477,0 0,-10.121 -4.671,0 z"
             style="fill:#ffffff;fill-opacity:1;fill-rule:evenodd;stroke:none"
             id="path42"
             inkscape:connector-curvature="0" /></g><g
           id="g44"
           transform="translate(275.0234,109.2813)"><path
             d="m 0,0 c 1.159,1.292 1.737,2.824 1.739,4.598 0,1.543 -0.554,2.96 -1.661,4.252 -1.107,1.291 -2.796,1.936 -5.061,1.936 -2.249,0 -3.875,-0.645 -4.878,-1.936 -1.005,-1.292 -1.506,-2.805 -1.506,-4.541 0,-1.947 0.649,-3.47 1.947,-4.569 1.297,-1.098 2.828,-1.648 4.592,-1.648 2.058,0 3.669,0.637 4.828,1.908 m 0.83,-20.473 c 1.436,1.31 2.152,3.258 2.154,5.841 0,2.679 -0.735,4.712 -2.206,6.103 -1.471,1.386 -3.356,2.08 -5.657,2.08 -2.232,0 -4.058,-0.712 -5.475,-2.139 -1.404,-1.408 -2.103,-3.365 -2.103,-5.87 0,-2.16 0.641,-4.029 1.92,-5.61 1.299,-1.561 3.296,-2.342 5.994,-2.342 2.164,0 3.955,0.644 5.373,1.937 m -15.052,18.739 c -1.366,1.542 -2.049,3.547 -2.049,6.015 0,3.083 1.002,5.735 3.01,7.951 2.006,2.217 4.851,3.325 8.537,3.327 3.565,0 6.359,-1.051 8.382,-3.152 C 5.684,10.324 6.696,7.885 6.696,5.09 6.696,2.508 6.107,0.414 4.931,-1.185 4.273,-2.091 3.252,-2.977 1.869,-3.846 c 1.538,-0.791 2.749,-1.697 3.633,-2.717 1.643,-1.929 2.464,-4.436 2.465,-7.519 0,-3.645 -1.099,-6.737 -3.295,-9.283 -2.199,-2.525 -5.304,-3.787 -9.318,-3.788 -3.616,0 -6.677,1.09 -9.186,3.268 -2.492,2.197 -3.737,5.378 -3.737,9.541 0,2.449 0.535,4.56 1.608,6.335 1.072,1.792 2.664,3.159 4.776,4.105 -1.297,0.617 -2.31,1.341 -3.037,2.17"
             style="fill:#ffffff;fill-opacity:1;fill-rule:evenodd;stroke:none"
             id="path46"
             inkscape:connector-curvature="0" /></g><g
           id="g48"
           transform="translate(175.4961,280.1426)"><path
             d="m 0,0 c 45.541,37.262 135.196,23.711 135.196,23.711 0,0 -5.732,9.319 -6.31,16.203 0.066,2.794 2.928,2.999 3.645,1.534 0.477,-1.192 9.537,-23.852 19.893,-23.673 -0.009,0.529 45.211,62.103 45.211,62.103 L 141.958,41.589 C 116.405,60.665 84.529,71.653 50.18,71.054 -7.822,70.041 -57.401,36.086 -81.217,-12.704 -57.905,-7.397 -31.122,-3.102 0,0"
             style="fill:#fee103;fill-opacity:1;fill-rule:evenodd;stroke:none"
             id="path50"
             inkscape:connector-curvature="0" /></g><g
           id="g52"
           transform="translate(105.5703,105.001)"><path
             d="M 0,0 -27.999,-52.053 16.167,-18.18 C 9.404,-11.945 4.123,-5.708 0,0"
             style="fill:#fee103;fill-opacity:1;fill-rule:evenodd;stroke:none"
             id="path54"
             inkscape:connector-curvature="0" /></g><g
           id="g56"
           transform="translate(74.6553,361.6924)"><path
             d="M 0,0 58.225,-35.495 C 49.873,-41.991 41.291,-50.343 34.563,-58.231 L 0,0 Z"
             style="fill:#fee103;fill-opacity:1;fill-rule:evenodd;stroke:none"
             id="path58"
             inkscape:connector-curvature="0" /></g><g
           id="g60"
           transform="translate(356.9961,196.957)"><path
             d="M 0,0 C 4.967,5.516 10.89,8.276 13.231,6.167 15.572,4.058 13.447,-2.122 8.481,-7.637 3.517,-13.153 -2.408,-15.912 -4.75,-13.804 -7.092,-11.696 -4.965,-5.516 0,0 M 19.47,9.841 C 14.85,9.76 16.098,13.904 6.797,13.742 -4.688,13.541 -17.394,2.799 -22.574,-4.953 c -3.505,-5.241 -5.95,-10.627 -5.807,-18.813 0.088,-5.015 7.043,-6.642 12.06,-6.553 8.711,0.152 13.803,8.59 18.038,8.136 5.774,-0.62 4.129,-6.165 9.936,-6.063 7.788,0.135 14.854,5.591 20.572,10.842 -0.413,0.916 -0.818,1.436 -1.621,2.084 -1.967,-0.827 -3.14,-1.641 -5.253,-1.676 l -3.036,-0.055 c -0.159,1.582 -0.575,2.631 -0.6,4.216 -0.179,10.165 8.543,14.94 13.139,24 C 29.032,11.855 25.278,9.94 19.47,9.841"
             style="fill:#fee103;fill-opacity:1;fill-rule:evenodd;stroke:none"
             id="path62"
             inkscape:connector-curvature="0" /></g><g
           id="g64"
           transform="translate(356.0293,251.4941)"><path
             d="M 0,0 C 7.887,3.248 13.532,6.236 23.602,2.611 27.316,1.62 31.01,-4.023 31.091,-8.675 29.625,-15.466 22.936,-19.705 9.465,-23.111 -1.922,-24.792 -21.662,-26.192 -21.662,-26.192 -11.431,-13.014 -4.56,-5.26 0,0 m -161.054,20.821 c 13,1.057 31.195,2.475 43.713,2.694 112.63,1.965 203.062,-13.239 204.587,-33.85 1.381,-18.686 -67.613,-26.128 -114.387,-28.955 0,0 -9.973,-22.056 -16.593,-30.42 0,0 -11.149,-15.31 -30.26,-22.407 -14.482,-5.963 -41.091,-12.305 -59.209,-15.791 -28.94,-3.88 -41.817,-3.627 -69.353,-0.513 0,0 -39.585,6.331 -49.519,9.069 -19.867,5.89 -70.47,16.424 -85.915,35.395 -2.054,2.503 -0.061,5.877 2.551,5.225 21.34,-5.336 42.829,-13.311 64.171,-12.939 5.809,0.102 14.45,0.181 14.35,5.99 -0.065,3.697 -4.955,7.019 -9.078,7.974 -22.397,5.317 -59.351,14.307 -59.64,30.858 -0.321,18.365 80.514,42.332 164.582,47.67"
             style="fill:#fee103;fill-opacity:1;fill-rule:evenodd;stroke:none"
             id="path66"
             inkscape:connector-curvature="0" /></g><g
           id="g68"
           transform="translate(133.4922,246.2119)"><path
             d="m 0,0 c -5.579,-7.39 -13.189,-19.468 -13.189,-19.468 0,0 -15.135,1.32 -19.331,5.371 -1.646,3.567 1.503,4.677 6.645,6.881 C -19.668,-5.523 -10.95,-2.303 0,0 m 13.438,-30.949 c -26.991,2.067 -58.239,5.942 -58.458,18.431 -0.218,12.49 72.278,28.264 126.794,29.745 47.768,2.639 125.697,0.456 121.134,-3.323 C 189.135,2.5 187.527,4.86 166.746,-27.744 c 0,0 -5.073,-0.723 -8.337,-0.674 l -2.991,-4.279 8.279,-1.866 c 0,0 -21.724,-33.148 -26.284,-38.409 -10.286,-10.114 -28.89,-16.147 -64.109,-20.886 -27.014,-2.584 -35.128,-2.95 -61.325,1.044 -17.012,2.402 -43.273,8.546 -43.273,8.546 0,0 -5.225,2.551 0.947,6.253 5.687,1.157 26.874,4.595 37.816,7.427 8.189,3.313 22.679,8.747 21.942,20.679 0.375,8.782 -11.832,17.976 -15.973,18.96"
             style="fill:#100f0d;fill-opacity:1;fill-rule:evenodd;stroke:none"
             id="path70"
             inkscape:connector-curvature="0" /></g><g
           id="g72"
           transform="translate(274.4473,230.6201)"><path
             d="M 0,0 C 4.65,6.648 11.555,9.834 15.418,7.114 19.282,4.394 18.643,-3.201 13.99,-9.849 9.34,-16.498 2.436,-19.683 -1.428,-16.963 -5.291,-14.241 -4.652,-6.647 0,0"
             style="fill:#fee103;fill-opacity:1;fill-rule:nonzero;stroke:none"
             id="path74"
             inkscape:connector-curvature="0" /></g><g
           id="g76"
           transform="translate(205.5146,200.459)"><path
             d="M 0,0 C 5.834,6.48 12.753,9.759 15.456,7.325 18.157,4.893 15.619,-2.332 9.786,-8.812 3.953,-15.292 -2.968,-18.572 -5.669,-16.138 -8.37,-13.704 -5.833,-6.48 0,0 m 22.681,9.459 c -3.401,5.75 -5.785,7.648 -12.16,6.552 -17.073,-2.939 -46.405,-18.038 -43.841,-43.896 0.3,-3.023 2.788,-6.717 5.824,-6.665 15.181,0.266 17.557,5.488 31.89,14.089 0.082,-4.754 3.17,-13.476 10.693,-13.344 6.601,0.116 14.944,3.857 19.625,8.062 0.948,-1.304 8.054,-3.393 9.769,-3.376 6.357,0.062 14.632,5.945 20.682,14.899 -2.64,-0.046 -9.365,-2.276 -9.412,0.365 -0.068,3.959 4.362,8.91 6.554,12.059 4.023,5.778 9.732,11.587 9.204,11.579 -6.997,-0.123 -8.121,0.386 -15.119,0.264 -0.528,-0.009 -12.007,-26.78 -26.033,-28.61 -3.142,-0.41 -8.809,-0.591 -8.288,2.535 0.956,5.724 11.068,19.959 15.619,25.748 L 22.681,9.459 Z"
             style="fill:#fee103;fill-opacity:1;fill-rule:evenodd;stroke:none"
             id="path78"
             inkscape:connector-curvature="0" /></g></g></g></g></svg>