<svg height="316.227766" viewBox="0 0 19.44897 19.44901" width="316.227766" xmlns="http://www.w3.org/2000/svg"><path d="m0 9.724a9.72449 9.72449 0 1 1 9.724 9.725 9.72389 9.72389 0 0 1 -9.724-9.725" fill="#262266"/><path d="m.94772 9.724a8.777 8.777 0 1 1 8.777 8.777 8.77685 8.77685 0 0 1 -8.777-8.777" fill="#ffcd36"/><path d="m12.00739 13.04312c-.283.001-.567-.008-.85-.031-.038-.003-.076-.006-.114-.011-.109-.012-.219-.024-.328-.037-.086-.011-.172-.023-.257-.035-.07-.011-.139-.025-.209-.036-.058-.01-.117-.017-.176-.032-.044-.011-.088-.017-.132-.027-.051-.013-.102-.025-.152-.037-.081-.02-.162-.039-.243-.059-.035-.009-.069-.018-.104-.028-.041-.013-.083-.025-.124-.037-.064-.019-.128-.038-.191-.059-.061-.02-.119-.041-.178-.063-.077-.026-.155-.051-.23-.081-.126-.051-.253-.103-.378-.159-.131-.06-.261-.122-.389-.19-.108-.056-.215-.116-.321-.178a7.27288 7.27288 0 0 1 -.735-.496c-.174-.133-.339-.276-.498-.424-.193-.18-.374-.369-.547-.566-.144-.166-.279-.34-.41-.518-.039-.054-.076-.109-.114-.164a.04635.04635 0 0 1 -.009-.05c.017-.041.03-.082.044-.122.019-.053.038-.105.057-.158.021-.06.042-.119.063-.178.02-.054.038-.109.057-.163.021-.06.042-.12.064-.179.02-.057.041-.115.061-.173.02-.054.039-.108.059-.163.021-.061.042-.122.063-.184.029-.08.056-.159.085-.239.018-.054.038-.109.056-.163.022-.058.043-.116.064-.174.027-.08.055-.159.082-.239.03-.085.06-.17.091-.255q.02847-.084.06-.168c.02-.056.04-.112.059-.168.021-.056.04-.112.06-.169.02-.056.041-.111.061-.167.02-.058.039-.116.059-.174.029-.081.059-.163.087-.244.029-.08.057-.159.085-.239.021-.056.041-.113.061-.168.029-.082.057-.164.087-.246.027-.077.055-.155.082-.233.028-.079.056-.156.083-.235.03-.083.061-.166.091-.249a.66312.66312 0 0 1 .044-.098c.024-.038.045-.078.068-.118v-.009a.02518.02518 0 0 0 -.014-.006.0492.0492 0 0 0 -.02.008c-.022.012-.044.026-.065.038a4.49718 4.49718 0 0 0 -.421.256 5.69063 5.69063 0 0 0 -.598.464 5.60247 5.60247 0 0 0 -.55.561 5.83542 5.83542 0 0 0 -.412.55 5.63752 5.63752 0 0 0 -.299.508c-.082.159-.157.321-.223.486-.04.099-.077.198-.111.3-.034.098-.062.198-.093.299-.011.037-.021.076-.03.115-.013.052-.024.106-.036.158-.012.057-.026.112-.037.17-.013.074-.026.149-.036.224-.013.093-.024.186-.036.279a1.39677 1.39677 0 0 1 -.024.205.15637.15637 0 0 0 -.002.038q-.00747.31349 0 .629a.27823.27823 0 0 0 .007.064.61854.61854 0 0 1 .011.085c.009.137.028.273.048.409.008.054.018.107.028.16.011.059.02.118.035.176.02.084.037.169.062.252.021.068.036.14.058.209.03.094.061.188.096.281.049.13.102.258.159.385a5.76579 5.76579 0 0 0 .356.661 5.59743 5.59743 0 0 0 .673.868 5.53612 5.53612 0 0 0 .766.677 5.82514 5.82514 0 0 0 .525.342q.192.11247.392.207c.08.039.164.074.247.109.068.028.136.056.205.082.054.021.108.04.163.059.063.02.128.04.191.058.071.022.142.042.213.061.061.016.123.03.185.043.049.012.098.023.148.031.071.012.143.023.214.036.046.008.092.014.139.018a.51893.51893 0 0 1 .055.008.99444.99444 0 0 0 .134.014.6656.6656 0 0 1 .118.012.65662.65662 0 0 0 .108.01q.29553.00751.591 0a.562.562 0 0 0 .108-.01.57014.57014 0 0 1 .102-.011c.036-.003.072-.005.107-.009.1-.014.198-.027.296-.042.065-.009.128-.022.191-.034.053-.01.103-.025.154-.033.042-.007.081-.02.122-.029.045-.011.091-.022.136-.035.067-.02.134-.041.201-.062.059-.018.118-.035.174-.057.075-.029.149-.055.222-.086.085-.034.17-.069.253-.108.167-.077.329-.164.488-.256a5.72276 5.72276 0 0 0 .656-.45 5.53964 5.53964 0 0 0 .571-.522 5.77468 5.77468 0 0 0 .413-.487q.0765-.1035.15-.207a.09885.09885 0 0 0 .013-.022.01223.01223 0 0 0 -.01-.017.061.061 0 0 0 -.027 0c-.04.009-.081.02-.121.03-.054.012-.108.029-.163.037-.045.006-.088.02-.133.026-.07.011-.138.024-.208.035-.079.013-.157.028-.235.038-.099.013-.198.025-.296.036-.11.012-.219.023-.329.034-.072.006-.144.009-.216.014-.069.004-.138.011-.206.013-.159.004-.318.006-.477.008m-4.148-3.411a.3011.3011 0 0 0 .08-.01c.058-.014.115-.027.174-.037.038-.006.074-.017.111-.026.051-.01.103-.019.154-.031.082-.02.165-.042.246-.063.035-.009.07-.019.105-.026.052-.01.101-.026.152-.039.042-.011.083-.024.125-.035.075-.022.149-.042.224-.064.061-.018.124-.037.185-.058.068-.02.134-.042.201-.064.055-.019.109-.038.164-.057.059-.02.119-.04.179-.061.059-.02.118-.042.178-.062.056-.02.112-.038.168-.058.066-.022.13-.045.195-.067.056-.02.111-.04.168-.061.054-.019.108-.037.162-.057.059-.019.117-.039.174-.059.062-.022.123-.043.183-.065.056-.018.11-.038.164-.056.06-.021.119-.042.178-.063.062-.022.123-.043.184-.065.056-.019.112-.039.168-.058.059-.021.116-.041.173-.063.054-.018.109-.038.164-.057.057-.02.115-.04.173-.06.08-.029.159-.058.239-.086.078-.028.157-.054.234-.083.062-.022.122-.044.184-.066l.166-.06c.054-.019.106-.039.158-.058.056-.02.113-.039.169-.06.076-.027.151-.056.227-.084.098-.036.196-.071.295-.107.103-.039.205-.079.307-.12a1.1063 1.1063 0 0 0 .158-.069c.057-.035.113-.071.167-.11a.50515.50515 0 0 0 .107-.099.08928.08928 0 0 0 .011-.11c-.027-.048-.05-.096-.076-.144a5.63954 5.63954 0 0 0 -.438-.689 5.72586 5.72586 0 0 0 -.491-.577 5.795 5.795 0 0 0 -1.181-.925c-.126-.075-.255-.144-.386-.209-.09-.044-.182-.087-.275-.125-.115-.047-.23-.093-.348-.133-.099-.033-.198-.065-.299-.093-.036-.01-.073-.021-.109-.031-.049-.013-.098-.026-.147-.038-.064-.014-.127-.027-.191-.041-.058-.011-.116-.023-.176-.031-.094-.015-.189-.026-.284-.038-.032-.004-.065-.009-.097-.011a1.71553 1.71553 0 0 1 -.177-.019.479.479 0 0 0 -.076-.008c-.177-.004-.354-.003-.531-.002a.043.043 0 0 0 -.043.026.10176.10176 0 0 0 -.014.022c-.025.056-.05.113-.073.169-.038.094-.075.187-.112.281-.028.076-.058.152-.087.227-.028.078-.058.156-.086.234-.021.055-.04.111-.061.167-.02.057-.04.112-.06.168-.021.058-.04.116-.061.174-.02.058-.041.115-.061.173-.02.06-.04.12-.06.179s-.039.117-.059.174c-.021.062-.042.123-.062.185-.02.058-.038.116-.057.174-.022.068-.044.134-.067.201-.02.063-.042.127-.062.189-.02.058-.038.118-.057.176-.021.065-.042.13-.062.196-.02.061-.04.123-.059.185-.02.063-.039.128-.06.191-.019.064-.041.127-.06.19-.021.066-.04.131-.059.197-.021.065-.042.131-.063.196-.029.091-.056.182-.084.275-.028.1-.058.2-.085.301-.021.084-.037.169-.058.253-.012.044-.018.088-.028.132-.013.06-.025.121-.035.181-.016.094-.028.19-.041.285-.004.026-.008.053-.011.079a.05213.05213 0 0 0 .026.051.14463.14463 0 0 0 .089.017" fill="#241f5b"/><g fill="#262266"><path d="m12.00751 13.04352c.159-.003.318-.004.477-.008.068-.002.137-.009.205-.013.073-.006.145-.009.217-.015.11-.01.219-.021.329-.034.098-.011.197-.022.296-.035.078-.011.156-.025.235-.038.069-.011.138-.025.208-.035.045-.006.088-.02.133-.027.055-.008.109-.024.163-.036.04-.011.081-.021.121-.03a.06211.06211 0 0 1 .027 0 .01172.01172 0 0 1 .01.016.10384.10384 0 0 1 -.013.023c-.05.068-.099.138-.15.205a5.49455 5.49455 0 0 1 -.413.488 5.3171 5.3171 0 0 1 -.571.522 5.64782 5.64782 0 0 1 -.656.451c-.159.092-.321.179-.488.255-.083.039-.168.075-.253.109-.073.03-.147.057-.222.086-.056.021-.115.039-.174.057-.067.021-.134.042-.201.061-.045.014-.091.025-.136.035-.041.009-.08.023-.122.03-.051.008-.101.022-.154.033-.063.012-.127.024-.191.033-.098.016-.196.029-.296.041-.035.005-.071.007-.107.011a.56769.56769 0 0 0 -.102.011.56412.56412 0 0 1 -.108.01q-.29553.00752-.591 0a.65827.65827 0 0 1 -.108-.01.67283.67283 0 0 0 -.118-.012.97967.97967 0 0 1 -.134-.015c-.019-.003-.036-.005-.055-.007-.047-.004-.093-.01-.139-.018-.071-.014-.143-.024-.214-.036-.05-.008-.099-.02-.148-.031-.062-.013-.124-.028-.185-.043-.071-.019-.143-.04-.213-.061-.064-.019-.128-.038-.191-.059-.055-.018-.109-.037-.163-.058-.069-.026-.137-.054-.205-.083-.083-.035-.167-.069-.247-.108-.133-.064-.264-.132-.392-.207a5.63469 5.63469 0 0 1 -.525-.343 5.53435 5.53435 0 0 1 -.767-.676 5.66306 5.66306 0 0 1 -.672-.869 5.76118 5.76118 0 0 1 -.356-.661c-.057-.127-.11-.254-.159-.384-.035-.094-.066-.188-.096-.282-.022-.068-.037-.14-.058-.209-.026-.082-.042-.167-.062-.251-.015-.059-.024-.117-.035-.176-.01-.053-.02-.107-.028-.16-.02-.136-.039-.272-.048-.409a.60043.60043 0 0 0 -.011-.085.28932.28932 0 0 1 -.007-.066c-.005-.208-.005-.418 0-.628a.16211.16211 0 0 1 .002-.038 1.38234 1.38234 0 0 0 .024-.204c.012-.093.023-.187.036-.28.01-.074.023-.149.036-.224.011-.057.025-.112.037-.17.012-.052.023-.105.036-.157.009-.039.019-.078.03-.116.031-.1.059-.2.093-.299.034-.101.071-.2.111-.299.066-.165.141-.328.223-.486a5.70211 5.70211 0 0 1 .712-1.058 5.4882 5.4882 0 0 1 .549-.561 5.834 5.834 0 0 1 .598-.465 4.29051 4.29051 0 0 1 .421-.255c.021-.013.043-.026.065-.038a.0498.0498 0 0 1 .02-.008.025.025 0 0 1 .014.006v.009c-.023.04-.044.08-.068.118a.62056.62056 0 0 0 -.044.098c-.03.083-.061.166-.091.248-.027.079-.054.157-.083.236-.027.078-.055.155-.082.233-.03.082-.058.164-.087.246-.02.055-.04.111-.061.167-.028.08-.056.16-.085.24-.028.081-.058.163-.087.243-.02.059-.039.117-.059.174s-.041.112-.061.168-.039.113-.06.169c-.019.055-.039.112-.059.168-.021.056-.041.111-.061.168-.03.085-.06.169-.09.254-.027.08-.055.16-.082.24-.021.058-.042.115-.064.174-.018.054-.038.108-.056.162-.029.08-.056.16-.085.24-.022.061-.042.123-.063.184-.02.054-.039.109-.059.163-.02.058-.041.115-.061.173-.022.059-.043.118-.064.179-.019.054-.037.108-.057.162-.021.06-.042.119-.063.178-.019.054-.037.106-.057.159-.014.04-.027.081-.044.122a.04673.04673 0 0 0 .009.05c.038.054.075.109.114.164.131.178.266.352.41.517a7.49171 7.49171 0 0 0 .547.566 6.52508 6.52508 0 0 0 .498.425 7.16933 7.16933 0 0 0 .735.496c.106.061.213.122.321.178.128.068.258.13.389.189.125.057.252.109.378.16.075.03.153.054.23.081.059.021.117.043.178.062.063.021.127.04.191.06l.124.036c.035.011.069.02.104.029.081.02.162.039.243.058.05.013.101.025.152.037.044.011.088.017.132.028.059.014.118.021.176.032.07.011.139.024.209.035.085.013.171.025.257.035.109.014.219.026.328.038.038.004.076.007.114.01.283.024.567.033.85.032"/><path d="m7.85941 9.63211a.14463.14463 0 0 1 -.089-.017.05213.05213 0 0 1 -.026-.051c.003-.026.007-.053.011-.079.013-.095.025-.191.041-.285.01-.06.022-.121.035-.181.01-.044.016-.088.028-.132.021-.084.037-.169.058-.253.027-.101.057-.201.085-.301.028-.093.055-.184.084-.275.021-.065.042-.131.063-.196.019-.066.038-.131.059-.197.019-.063.041-.126.06-.19.021-.063.04-.128.06-.191.019-.062.039-.124.059-.185.02-.066.041-.131.062-.196.019-.058.037-.118.057-.176.02-.062.042-.126.062-.189.023-.067.045-.133.067-.201.019-.058.037-.116.057-.174.02-.062.041-.123.062-.185.02-.057.039-.115.059-.174s.04-.119.06-.179c.02-.058.041-.115.061-.173.021-.058.04-.116.061-.174.02-.056.04-.111.06-.168.021-.056.04-.112.061-.167.028-.078.058-.156.086-.234.029-.075.059-.151.087-.227.037-.094.074-.187.112-.281.023-.056.048-.113.073-.169a.10176.10176 0 0 1 .014-.022.043.043 0 0 1 .043-.026c.177-.001.354-.002.531.002a.479.479 0 0 1 .076.008 1.71553 1.71553 0 0 0 .177.019c.032.002.065.007.097.011.095.012.19.023.284.038.06.008.118.02.176.031.064.014.127.027.191.041.049.012.098.025.147.038.036.01.073.021.109.031.101.028.2.06.299.093.118.04.233.086.348.133.093.038.185.081.275.125.131.065.26.134.386.209a5.795 5.795 0 0 1 1.181.925 5.72586 5.72586 0 0 1 .491.577 5.63954 5.63954 0 0 1 .438.689c.026.048.049.096.076.144a.08928.08928 0 0 1 -.011.11.50515.50515 0 0 1 -.107.099c-.054.039-.11.075-.167.11a1.1063 1.1063 0 0 1 -.158.069c-.102.041-.204.081-.307.12-.099.036-.197.071-.295.107-.076.028-.151.057-.227.084-.056.021-.113.04-.169.06-.052.019-.104.039-.158.058l-.166.06c-.062.022-.122.044-.184.066-.077.029-.156.055-.234.083-.08.028-.159.057-.239.086-.058.02-.116.04-.173.06-.055.019-.11.039-.164.057-.057.022-.114.042-.173.063-.056.019-.112.039-.168.058-.061.022-.122.043-.184.065-.059.021-.118.042-.178.063-.054.018-.108.038-.164.056-.06.022-.121.043-.183.065-.057.02-.115.04-.174.059-.054.02-.108.038-.162.057-.057.021-.112.041-.168.061-.065.022-.129.045-.195.067-.056.02-.112.038-.168.058-.06.02-.119.042-.178.062-.06.021-.12.041-.179.061-.055.019-.109.038-.164.057-.067.022-.133.044-.201.064-.061.021-.124.04-.185.058-.075.022-.149.042-.224.064-.042.011-.083.024-.125.035-.051.013-.1.029-.152.039-.035.007-.07.017-.105.026-.081.021-.164.043-.246.063-.051.012-.103.021-.154.031-.037.009-.073.02-.111.026-.059.01-.116.023-.174.037a.3011.3011 0 0 1 -.08.01"/><path d="m4.0004 5.90091a.22422.22422 0 0 0 .107-.008.30361.30361 0 0 0 .099-.055.55834.55834 0 0 0 .085-.09c.016-.023.032-.05.048-.078a.3576.3576 0 0 0 .031-.09.21305.21305 0 0 0 -.004-.091.13173.13173 0 0 0 -.056-.076.12268.12268 0 0 0 -.099-.026.31608.31608 0 0 0 -.108.043 1.11782 1.11782 0 0 0 -.115.087c-.04.035-.082.069-.125.103a1.58971 1.58971 0 0 1 -.134.099.5256.5256 0 0 1 -.143.066.33264.33264 0 0 1 -.311-.058.37135.37135 0 0 1 -.129-.153.44007.44007 0 0 1 -.038-.182.53072.53072 0 0 1 .038-.189.72633.72633 0 0 1 .093-.174.95551.95551 0 0 1 .149-.161.57287.57287 0 0 1 .176-.102.434.434 0 0 1 .193-.019.45145.45145 0 0 1 .202.088l-.182.25a.246.246 0 0 0 -.103-.041.16932.16932 0 0 0 -.09.01.25087.25087 0 0 0 -.081.051.587.587 0 0 0 -.072.082.37382.37382 0 0 0 -.039.067.19125.19125 0 0 0 -.018.074.19321.19321 0 0 0 .01.072.13227.13227 0 0 0 .051.061.12138.12138 0 0 0 .066.028.13753.13753 0 0 0 .076-.023.78378.78378 0 0 0 .114-.081c.045-.037.104-.085.176-.144.02-.019.051-.044.09-.074a.53388.53388 0 0 1 .14-.075.42849.42849 0 0 1 .173-.027.354.354 0 0 1 .192.077.42193.42193 0 0 1 .18.319.58263.58263 0 0 1 -.034.21.917.917 0 0 1 -.126.231.873.873 0 0 1 -.161.171.5798.5798 0 0 1 -.192.106.4416.4416 0 0 1 -.211.017.47745.47745 0 0 1 -.216-.097l.182-.249a.26151.26151 0 0 0 .116.051"/><path d="m4.6156 3.609 1.36.742-.25.217-.295-.173-.41.356.126.318-.244.211-.535-1.457zm.596.661-.487-.282-.003.002.206.527z"/><path d="m6.22882 3.805a.23153.23153 0 0 0 .1.04.31181.31181 0 0 0 .113-.007.44741.44741 0 0 0 .115-.044.75147.75147 0 0 0 .077-.049.367.367 0 0 0 .069-.067.21242.21242 0 0 0 .036-.083.13855.13855 0 0 0 -.017-.093.12952.12952 0 0 0 -.079-.067.28373.28373 0 0 0 -.115-.008 1.107 1.107 0 0 0 -.142.028c-.052.013-.104.026-.158.037-.053.013-.108.023-.163.031a.54779.54779 0 0 1 -.157-.002.38545.38545 0 0 1 -.143-.058.35547.35547 0 0 1 -.113-.132.37383.37383 0 0 1 -.048-.194.4176.4176 0 0 1 .046-.18.52607.52607 0 0 1 .115-.154.75631.75631 0 0 1 .16-.114.9385.9385 0 0 1 .206-.081.51794.51794 0 0 1 .202-.014.41016.41016 0 0 1 .182.067.44669.44669 0 0 1 .144.168l-.273.144a.262.262 0 0 0 -.075-.082.189.189 0 0 0 -.086-.03.27507.27507 0 0 0 -.094.011.53929.53929 0 0 0 -.102.042.33075.33075 0 0 0 -.064.044.18459.18459 0 0 0 -.048.057.18079.18079 0 0 0 -.023.07.13535.13535 0 0 0 .019.077.12064.12064 0 0 0 .047.054.13552.13552 0 0 0 .079.013.75233.75233 0 0 0 .138-.023c.056-.013.131-.03.221-.053a1.05073 1.05073 0 0 1 .113-.026.51933.51933 0 0 1 .159-.008.44406.44406 0 0 1 .168.053.35213.35213 0 0 1 .139.152.43688.43688 0 0 1 .053.182.387.387 0 0 1 -.033.183.52261.52261 0 0 1 -.12.175.91072.91072 0 0 1 -.215.153.96093.96093 0 0 1 -.219.084.61091.61091 0 0 1 -.22.011.453.453 0 0 1 -.197-.078.465.465 0 0 1 -.151-.181l.272-.145a.267.267 0 0 0 .082.097"/><path d="m7.394 2.114.153.582.395-.726.386-.103-.403.7.826.691-.387.101-.589-.518-.13.225.119.452-.309.081-.37-1.404z"/><path d="m9.676 1.77853.578 1.438-.331.009-.118-.322-.542.014-.107.326-.321.007.514-1.464zm.04.89-.195-.528h-.005l-.175.537z"/><path d="m10.392 2.056.044-.265 1.174.195-.044.264-.43-.07-.194 1.167-.315-.053.194-1.166z"/><path d="m12.01889 2.5394a.75209.75209 0 0 1 .223-.169.64524.64524 0 0 1 .27-.063.73414.73414 0 0 1 .3.062.74521.74521 0 0 1 .254.17.647.647 0 0 1 .143.237.717.717 0 0 1 .036.278.94465.94465 0 0 1 -.231.552.74281.74281 0 0 1 -.222.165.638.638 0 0 1 -.268.061.73914.73914 0 0 1 -.3-.063.75529.75529 0 0 1 -.255-.17.6329.6329 0 0 1 -.145-.234.71118.71118 0 0 1 -.037-.274.91818.91818 0 0 1 .069-.292.94806.94806 0 0 1 .163-.26m.083.556a.5091.5091 0 0 0 .002.17.358.358 0 0 0 .07.149.37579.37579 0 0 0 .153.11.3565.3565 0 0 0 .184.031.34641.34641 0 0 0 .156-.054.45423.45423 0 0 0 .123-.117.76913.76913 0 0 0 .089-.156.81388.81388 0 0 0 .052-.179.52742.52742 0 0 0 -.001-.173.34491.34491 0 0 0 -.07-.15.379.379 0 0 0 -.152-.11.38765.38765 0 0 0 -.185-.033.35913.35913 0 0 0 -.156.057.489.489 0 0 0 -.125.12.83226.83226 0 0 0 -.091.163.76147.76147 0 0 0 -.049.172"/><path d="m13.77509 3.3631a.7292.7292 0 0 1 .26-.106.65475.65475 0 0 1 .278.008.79247.79247 0 0 1 .475.366.64162.64162 0 0 1 .078.265.72624.72624 0 0 1 -.037.279.90564.90564 0 0 1 -.145.269.86875.86875 0 0 1 -.22.205.70186.70186 0 0 1 -.257.103.65194.65194 0 0 1 -.274-.009.75236.75236 0 0 1 -.273-.139.73491.73491 0 0 1 -.203-.228.64278.64278 0 0 1 -.081-.264.69116.69116 0 0 1 .035-.275.891.891 0 0 1 .141-.264.9778.9778 0 0 1 .223-.21m-.061.559a.49352.49352 0 0 0 -.041.165.3531.3531 0 0 0 .029.162.38069.38069 0 0 0 .119.145.39264.39264 0 0 0 .171.079.34785.34785 0 0 0 .164-.014.476.476 0 0 0 .149-.082.68987.68987 0 0 0 .125-.128.72326.72326 0 0 0 .096-.159.4817.4817 0 0 0 .044-.168.37385.37385 0 0 0 -.028-.164.379.379 0 0 0 -.12-.144.36656.36656 0 0 0 -.171-.079.343.343 0 0 0 -.165.015.48592.48592 0 0 0 -.151.085.77613.77613 0 0 0 -.129.133.69734.69734 0 0 0 -.092.154"/><path d="m15.802 4.607-.397 1.076.002.004.77-.598.183.235-1.147.892-.196-.253.397-1.073-.002-.003-.767.596-.184-.235 1.147-.892z"/><path d="m7.23392 17.05841c-.094.194-.736.453-1.682.06-.253-.104-.556-.352-.408-.663.052-.109.044-.134.692-.465-.093-.053-.307-.17-.252-.286.071-.147.554.077.67.096a1.37167 1.37167 0 0 1 1.033-.121 2.014 2.014 0 0 1 -.54.274c.824.267 1.117.122 1.155.026.032-.077-.006-.243-.417-.407a4.6965 4.6965 0 0 0 -1.077-.224c.015.021.037.047.023.075-.024.051-.113.034-.161.018a2.796 2.796 0 0 0 -.538-.099.34978.34978 0 0 1 -.118-.028.08763.08763 0 0 1 -.041-.133.96205.96205 0 0 1 .295-.21.84377.84377 0 0 1 .417-.132 5.2632 5.2632 0 0 1 1.453.38c.589.284.619.584.53.769-.265.553-1.37.193-1.808.079l-.098.029c.222.161 1.029.633.872.962m-1.396-.748c-.068.027-.179.065-.213.137-.07.147.18.318.291.372.306.143.885.148.95.012.085-.178-.596-.569-.736-.637z"/></g><path d="m7.23392 17.05841c-.094.194-.736.453-1.682.06-.253-.104-.556-.352-.408-.663.052-.109.044-.134.692-.465-.093-.053-.307-.17-.252-.286.071-.147.554.077.67.096a1.37167 1.37167 0 0 1 1.033-.121 2.014 2.014 0 0 1 -.54.274c.824.267 1.117.122 1.155.026.032-.077-.006-.243-.417-.407a4.6965 4.6965 0 0 0 -1.077-.224c.015.021.037.047.023.075-.024.051-.113.034-.161.018a2.796 2.796 0 0 0 -.538-.099.34978.34978 0 0 1 -.118-.028.08763.08763 0 0 1 -.041-.133.96205.96205 0 0 1 .295-.21.84377.84377 0 0 1 .417-.132 5.2632 5.2632 0 0 1 1.453.38c.589.284.619.584.53.769-.265.553-1.37.193-1.808.079l-.098.029c.22197.16101 1.02898.63299.872.962zm-1.396-.748c-.068.027-.179.065-.213.137-.07.147.18.318.291.372.306.143.885.148.95.012.085-.178-.596-.569-.736-.637z" fill="none" stroke="#262266" stroke-miterlimit="10" stroke-width=".053"/><path d="m8.87439 17.51221c-.242.177-.658.494-.981.437-.273-.048-.287-.324-.249-.544a1.86916 1.86916 0 0 1 .601-1.042 2.485 2.485 0 0 1 .935-.615c.063.012.063.104.051.152-.087.351-.241.663-1.187 1.305a.43267.43267 0 0 0 -.071.254c.02.092.06.176.16.194a1.33044 1.33044 0 0 0 .708-.261zm-.689-.636a2.32121 2.32121 0 0 0 .705-.719 1.84771 1.84771 0 0 0 -.711.71z" fill="#262266"/><path d="m8.87439 17.51221c-.242.177-.658.494-.981.437-.273-.048-.287-.324-.249-.544a1.86916 1.86916 0 0 1 .601-1.042 2.485 2.485 0 0 1 .935-.615c.063.012.063.104.051.152-.087.351-.241.663-1.187 1.305a.43267.43267 0 0 0 -.071.254c.02.092.06.176.16.194a1.33044 1.33044 0 0 0 .708-.261zm-.689-.636a2.32121 2.32121 0 0 0 .705-.719 1.84771 1.84771 0 0 0 -.711.71z" fill="none" stroke="#262266" stroke-miterlimit="10" stroke-width=".053"/><path d="m9.44461 17.83481c-.071.058-.313.255-.401.256-.106 0-.328-.25-.337-.447-.019-.474.965-.964 1.405-.976a.23505.23505 0 0 1 .248.181c0 .045-.098.084-.133.095a.15318.15318 0 0 1 .112.156c.001.121-.327.387-.326.566 0 .065.058.091.119.09.159 0 .373-.194.536-.304l.032.14a2.18838 2.18838 0 0 1 -.853.594.17909.17909 0 0 1 -.185-.199 1.27506 1.27506 0 0 1 .137-.426l-.007-.008zm-.46-.097c.004.019.019.087.077.076.075-.016.193-.004.939-.767l-.008-.007c-.902.281-1.009.512-1.008.698" fill="#262266"/><path d="m9.44461 17.83481c-.071.058-.313.255-.401.256-.106 0-.328-.25-.337-.447-.019-.474.965-.964 1.405-.976a.23505.23505 0 0 1 .248.181c0 .045-.098.084-.133.095a.15318.15318 0 0 1 .112.156c.001.121-.327.387-.326.566 0 .065.058.091.119.09.159 0 .373-.194.536-.304l.032.14a2.18838 2.18838 0 0 1 -.853.594.17909.17909 0 0 1 -.185-.199 1.27506 1.27506 0 0 1 .137-.426l-.007-.008zm-.46-.097c.004.019.019.087.077.076.075-.016.193-.004.939-.767l-.008-.007c-.902.28099-1.009.51201-1.00799.69798z" fill="none" stroke="#262266" stroke-miterlimit="10" stroke-width=".053"/><path d="m12.01959 16.59882a1.439 1.439 0 0 0 -.144.739c.013.058.046.184.127.166.126-.029.397-.407.497-.511l.054.117c-.129.231-.42.707-.69.768-.141.032-.231-.104-.257-.222a1.73148 1.73148 0 0 1 -.036-.288c-.103.14-.365.577-.531.615-.167.037-.352-.294-.383-.424-.1-.437.551-.974.861-1.063.076-.022.117.023.179.067.073-.238.222-1.078.491-1.139a.135.135 0 0 1 .151.114.8515.8515 0 0 1 -.076.391zm-1.019.964a.0638.0638 0 0 0 .072.057 1.95773 1.95773 0 0 0 .548-.809c-.602.358-.654.502-.62.752" fill="#262266"/><path d="m12.01959 16.59882a1.439 1.439 0 0 0 -.144.739c.013.058.046.184.127.166.126-.029.397-.407.497-.511l.054.117c-.129.231-.42.707-.69.768-.141.032-.231-.104-.257-.222a1.73148 1.73148 0 0 1 -.036-.288c-.103.14-.365.577-.531.615-.167.037-.352-.294-.383-.424-.1-.437.551-.974.861-1.063.076-.022.117.023.179.067.073-.238.222-1.078.491-1.139a.135.135 0 0 1 .151.114.8515.8515 0 0 1 -.076.391zm-1.019.964a.0638.0638 0 0 0 .072.057 1.95773 1.95773 0 0 0 .548-.809c-.602.358-.65401.50199-.61998.75199z" fill="none" stroke="#262266" stroke-miterlimit="10" stroke-width=".053"/><path d="m13.78619 16.5173a1.62407 1.62407 0 0 1 -.678.989.45022.45022 0 0 1 -.581-.287 1.09207 1.09207 0 0 1 .527-1.333c.11-.049.262-.083.324.055.076.17.022.503-.545 1.017l.027.079c.05.137.184.131.294.082.247-.11.424-.492.541-.719zm-.68-.367c-.011-.025-.038-.038-.058-.019a.82025.82025 0 0 0 -.27.648.93.93 0 0 0 .328-.629" fill="#262266"/><path d="m13.78619 16.5173a1.62407 1.62407 0 0 1 -.678.989.45022.45022 0 0 1 -.581-.287 1.09207 1.09207 0 0 1 .527-1.333c.11-.049.262-.083.324.055.076.17.022.503-.545 1.017l.027.079c.05.137.184.131.294.082.247-.11.424-.492.541-.719zm-.68-.367c-.011-.025-.038-.038-.058-.019a.82025.82025 0 0 0 -.27.648.93.93 0 0 0 .32801-.629z" fill="none" stroke="#262266" stroke-miterlimit="10" stroke-width=".053"/><path d="m14.79248 15.72552.112.099a1.66165 1.66165 0 0 1 -.47.995.62608.62608 0 0 1 -.743-.023.12941.12941 0 0 1 -.042.089.071.071 0 0 1 -.093-.025c-.027-.041-.007-.119 0-.161l.259-1.086a.23306.23306 0 0 1 .041-.326c.094-.063.132-.048.201.034a3.57318 3.57318 0 0 1 .306.325.87747.87747 0 0 1 -.02.85c.224-.102.283-.279.358-.499zm-1.024.786a.4289.4289 0 0 1 .37.02c.111-.243.124-.33.011-.519-.055-.06-.125-.136-.216-.232z" fill="#262266"/><path d="m14.79248 15.72552.112.099a1.66165 1.66165 0 0 1 -.47.995.62608.62608 0 0 1 -.743-.023.12941.12941 0 0 1 -.042.089.071.071 0 0 1 -.093-.025c-.027-.041-.007-.119 0-.161l.259-1.086a.23306.23306 0 0 1 .041-.326c.094-.063.132-.048.201.034a3.57318 3.57318 0 0 1 .306.325.87747.87747 0 0 1 -.02.85c.224-.102.283-.279.358-.499zm-1.024.786a.4289.4289 0 0 1 .37.02c.111-.243.124-.33.011-.519-.055-.06-.125-.136-.216-.232z" fill="none" stroke="#262266" stroke-miterlimit="10" stroke-width=".053"/></svg>