<?xml version="1.0" encoding="UTF-8" standalone="no"?>
<svg xmlns:rdf="http://www.w3.org/1999/02/22-rdf-syntax-ns#" xmlns="http://www.w3.org/2000/svg" height="89.573" width="89.575" version="1.1" xmlns:cc="http://creativecommons.org/ns#" xmlns:dc="http://purl.org/dc/elements/1.1/" viewBox="0 0 89.575 89.573"><g style="isolation:isolate"><path d="M89.575,44.78595A44.7875,44.7875,0,1,1,44.786,0,44.78641,44.78641,0,0,1,89.575,44.78595" fill="#0d0606" fill-rule="evenodd"/><path d="M70.05139,24.3833l-.069-.64-.133-.612-.198-.584-.261-.546-.323-.514-.377-.471-.425-.431-.472-.391-.512-.354-.55-.32-.586-.284-.619-.259-.656-.232-.69-.207-.717-.181-.751-.164-.786-.142-.813-.123-.842-.107-.87-.09-.898-.074-.928-.061-.95-.049-.977-.036-1-.023-1.023-.014-1.056-.005-1.121.027-1.202.073-1.267.119-1.327.165-1.377.206-1.429.248-1.464.286-1.505.324-1.531.357-1.554.396-1.568.425-1.578.458-1.578.486-1.574.512-1.564.541-1.547.563-1.522.589-1.491.608-1.453.626-1.412.649-1.36.662-1.306.681-1.241.693-1.173.709-1.097.723-1.016.735-.93.748-.836.763-.736.779-.629.803-.516.827-1.007,2.255,14.74.084-.022.092-.124.707-.062.686.002.661.068.639.131.612.198.586.263.548.321.513.377.471.425.431.469.389.514.354.549.32.587.286.62.26.658.229.687.206.721.186.75.16.783.143.812.124.844.107.87.088.899.075.926.061.952.047.976.037,1.002.023,1.022.014,1.046.006,1.048-.006,1.033-.014,1.017-.023,1.002-.037.983-.047.968-.061.948-.075.931-.088.912-.107.893-.123.872-.14.855-.158.833-.181.812-.2.792-.221.769-.24695.746-.273.722-.297.7-.324.678-.355.649-.38.623-.413.595-.444.567-.478.536-.511.506-.545.473-.579.437-.61505.404-.647.366-.684.331-.719.286-.738,2.492-7.008.24-.743.185-.733.12-.707.065-.683Zm-13.833,2.28595-.025.194-.043.221-.064.247-.079.274-.105.307-1.971,5.547-.119.31-.114.282-.118.262-.122.238-.125.217-.13.202-.13.182-.136.164-.14.154-.143.141-.153.126-.159.118-.169.11-.183.1-.197.097-.21.086-.223.081-.244.076-.258.068-.276.06-.3.053-.314.048-.338.043-.354.034-.374.029-.397.026-.415.018-.436.015-.457.012-.478.007-.502.002-.52.00305-.52-.00305-.493-.002-.473-.007-.445-.012-.422-.015-.397-.018-.37-.026-.346-.029-.32-.034-.292-.041-.264-.044-.24-.052-.207-.054-.183-.061-.153-.06-.121-.061-.095-.057-.071-.053-.052-.05-.038-.047-.031-.044-.026-.059-.024-.069-.018-.091-.015-.116-.004-.142.006-.172.024-.2.038-.228.053-.254.074-.279.084-.291,1.959-5.507.121-.29.128-.285.133-.261.128-.24.134-.221.132-.201.14-.186.139-.166.144-.154.148-.141.151-.129.163-.115.169-.11.176-.099.194-.096.207-.086.22-.082.238-.072.255-.066.271-.061.293-.052.311-.049.326-.043.352-.033.371-.028.389-.027.413-.017.432-.016.455-.011.476-.006.497-.004h1.04l.5.004.474.006.446.011.426.016.399.017.375.024.353.031.325.032.297.041.273.047.245.053.217.051.185.062.159.06.128.061.1.061.074.055.053.046.039.047.027.044.025.049.02.06.017.084.012.108.001.136Z" fill="#ffd300" fill-rule="evenodd"/><path d="M52.5788,18.52063c-11.175,0-36.615,8.342-39.321,15.943l14.52.085c-2.705,7.604,4.708,9.05,15.885,9.05s19.619-1.446,22.319-9.05l2.482-6.978c2.704-7.602-4.71-9.05-15.885-9.05m4.298,9.743-1.977,5.562c-1.313,3.685-3.476,4.048-9.202,4.048-5.727,0-7.468-.363-6.324-4.048l1.977-5.562c1.462-3.654,3.464-4.014,9.189-4.014,5.729,0,7.636.36,6.337,4.014" fill="#0d0606" fill-rule="evenodd"/><path d="M44.786,87.281c-22.837,0-41.418-18.885-41.418-42.096,0-23.209,18.581-42.093,41.418-42.093,22.839,0,41.421,18.884,41.421,42.093,0,23.211-18.582,42.096-41.421,42.096m0-82.59406c-21.971,0-39.847,18.166-39.847,40.498,0,22.329,17.876,40.498,39.847,40.498,21.973,0,39.849-18.169,39.849-40.498,0-22.332-17.876-40.498-39.849-40.498" fill="#ffd300"/><path d="M70.83839,69.493l.007-.037-.076.007c-1.511.13-3.051.251-4.578.356l-1.462.103-.311-.66.054.612-2.234.125c-1.471.087-2.966.159-4.445.22l-2.114.086-.079-1.301-.267,1.277-1.698.047c-2.788.076-5.617.118-8.401.118-1.088,0-2.193-.008-3.277-.017l-.053-.001.005.012-1.492-.032-.631-.005v-.006l-.652-.014c-4.295-.084-8.644-.269-12.935-.54l-.855-.054-.001.006-.742-.053-.629-.04.002-.004-.702-.053c-1.46-.107-2.936-.224-4.39-.351l-2.255-.196.134-1.011a4.332,4.332,0,0,1-2.531.768,5.65,5.65,0,0,1-.591-.033c-2.766-.29-5.581-.627-8.358-.996a4.023,4.023,0,0,1-3.822-4.052l-.002-.279.068-.272c.202-.812.407-1.605.606-2.382.335-1.301.651-2.533.931-3.721a50.19123,50.19123,0,0,0,1.029-5.514l.024-.225.073-.21594a4.76694,4.76694,0,0,1,1.656-2.428,4.50817,4.50817,0,0,1,2.706-.82l7.686.004a4.23969,4.23969,0,0,1,2.697.857l.033-.833,8.364.004v.001h6.683l-.043,2.238c-.067,3.443-.29,6.932-.585,11.099,1.577.034,3.156.064,4.715.084l1.655.025.163.647c.074-4.56.13-8.312.145-11.907l.011-2.186h16.614l9.857-.026a4.4014,4.4014,0,0,1,2.73.849,3.834,3.834,0,0,1,.731.731,3.56962,3.56962,0,0,1,.634-.681,4.23468,4.23468,0,0,1,2.753-.901l12.616-.007-.733,2.766c-.156.591-.287,1.119-.403,1.587l-.055.226c-.111.452-.207.895-.288,1.304l-2.119-.053.001.14a4.67175,4.67175,0,0,1,2.179.709,4.51073,4.51073,0,0,1,1.231,1.184l.44-.017.405,1.75c.231.994.472,1.976.724,3.018.223.904.447,1.82.663,2.743l.064.25995-.004.269a4.02888,4.02888,0,0,1-3.811,4.059c-.364.053-.727.104-1.091.158l.008.053-2.276.29c-2.302.291-4.629.562-6.929.802l.01.022-1.214.103Z" fill="#0d0606"/><path d="M5.73759,65.04034c-1.261-.254-1.926-.929-1.943-1.956.516-2.072,1.114-4.048,1.598-5.946a33.74331,33.74331,0,0,0,1.028-5.70795,2.53125,2.53125,0,0,1,.792-1.356,2.25845,2.25845,0,0,1,1.417-.414h7.666a2.22244,2.22244,0,0,1,1.409.414,2.06667,2.06667,0,0,1,.674,1.362c-.115,1.931-.376,3.892-.699,6.007-.323,2.12195-.728,4.48-1.128,7.291a2.204,2.204,0,0,1-2.592,1.751q-4.1175-.63757-8.222-1.445m17.73,2.641q-2.172-.228-4.342-.506c.902-7.473,1.955-12.426,1.959-17.489h4.046c-.01,5.063-.861,10.034-1.663,17.995m7.652-4.425q3.495.12149,6.989.185c.358,1.599.722,3.351,1.095,5.288q-6.42451-.17844-12.838-.763c.705-8.23395,1.421-13.217,1.425-18.28h4.046c.007,3.975-.314,7.909-.717,13.57m11.11-13.57h11.856c-.392,1.088-.767,2.171-1.133,3.292q-3.321.00146-6.645.005c.005.953.009,1.936.018,2.973q3.36-.00458,6.72-.01605c.044,1.185.097,2.434.158,3.786q-3.426.03754-6.849.045c.008,1.14606.019,2.369.029,3.687q4.113-.036,8.222-.154c-.322,1.606-.65,3.363-.986,5.312q-5.8035.249-11.611.173c.118-9.026.221-14.04.221-19.103m19.923,18.422q-2.199.1875-4.407.329c-.114-1.895-.224-3.615-.33-5.2-.223-3.37994-.473-6.657-.602-10.041-.045-1.196-.07-2.351-.07-3.51q4.88551-.012,9.769-.026a2.25536,2.25536,0,0,1,1.416.414,2.40867,2.40867,0,0,1,.759,1.362c.047,1.041.121,1.877.179,2.506.058.623.115,1.121.156,1.481.043.359.076.622.096.788.021.165.038.312.053.435a2.58575,2.58575,0,0,1-.4,1.35205c-.646.886-1.611.735-2.575.757,1.378,2.559,2.883,5.386,4.397,8.523q-2.259.294-4.521.532c-1.442-3.362-2.842-6.295-4.137-8.909-.095-1.039-.183-2.028-.26-2.977q1.5135-.01044,3.028-.024c-.099-1.02-.181-2-.239-2.96q-1.854.00458-3.709.005c.247,4.089.817,8.59,1.397,15.163m11.824-5.707q3.432-.25946,6.866-.575c-.212-1-.431-1.97705-.638-2.936q-2.8935.12451-5.779.235a2.34387,2.34387,0,0,1-2.49-1.625c-.046-.283-.085-.581-.122-.894-.202-1.729-.467-3.371-.559-5.17a2.0368,2.0368,0,0,1,.675-1.362,2.21554,2.21554,0,0,1,1.408-.414h9.772c-.238.714-.418,1.332-.565,1.855l-.349,1.385c-2.173.011-4.343.035-6.515.043.096.903.223,1.812.378,2.737q2.8125-.04807,5.636-.1a2.74879,2.74879,0,0,1,1.539.384c1.084.68,1.294,2.101,1.601,3.228.347,1.27.703,2.541,1.01,3.82-.014,1.027-.679,1.701-1.942,1.952-1.861.39-3.646.775-5.507,1.105q-2.50351.441-5.012.828c.211-1.625.405-3.11.593-4.496m-65.178-.63q1.78349.162,3.562.309c.637-3.314,1.283-6.258,1.592-9.137q-1.689-.00458-3.38-.01c-.352,2.861-1.084,5.738-1.774,8.838" fill="#fff"/></g></svg>