<svg width="300" height="300" viewBox="0 0 369 369" fill="none" xmlns="http://www.w3.org/2000/svg">
<path d="M184.5 369C286.397 369 369 286.397 369 184.5C369 82.6035 286.397 0 184.5 0C82.6035 0 0 82.6035 0 184.5C0 286.397 82.6035 369 184.5 369Z" fill="white"/>
<path d="M29.0138 164.102C32.5424 165.854 35.5755 167.365 39.8533 167.74C45.9557 168.271 50.2093 166.833 54.6925 165.311C58.6078 163.981 62.656 162.616 67.6225 162.773C77.8336 107.488 126.267 65.5926 184.512 65.5926C242.757 65.5926 293.329 109.325 302.042 166.398C305.728 166.084 308.531 164.839 311.697 163.425C315.782 161.601 320.374 159.546 327.129 159.546C327.648 159.546 328.18 159.559 328.736 159.583C337.775 159.897 343.503 163.015 348.107 165.516C350.91 167.039 353.279 168.332 355.997 168.875C348.094 81.1086 274.345 12.3018 184.5 12.3018C94.6546 12.3018 26.3795 76.1058 14.1504 159.22C20.6637 159.982 25.0865 162.157 29.0138 164.114V164.102Z" fill="#CB122D"/>
<path d="M311.794 196.306C308.592 197.394 305.74 198.348 302.562 198.433C302.876 195.702 303.13 192.947 303.263 190.155C307.685 189.829 311.359 188.512 314.924 187.195C319.443 185.539 323.709 183.98 329.775 184.391C335.455 184.705 338.947 186.627 342.645 188.645C346.306 190.651 350.439 192.874 356.469 193.37C356.324 196.282 356.106 199.17 355.804 202.046C350.608 201.442 347.116 199.738 343.454 197.913C339.575 195.98 335.563 193.986 329.824 193.49C328.688 193.394 327.612 193.345 326.561 193.345C320.483 193.345 315.903 194.904 311.782 196.306H311.794ZM328.41 167.389C322.573 167.111 319.008 168.706 314.875 170.555C311.54 172.041 307.818 173.685 302.924 174.156C303.154 176.863 303.299 179.594 303.347 182.337C306.429 182.011 309.172 181.008 312.241 179.884C316.567 178.301 321.401 176.536 327.83 176.536C328.615 176.536 329.425 176.561 330.259 176.621C337.654 177.032 342.294 179.582 346.391 181.817C349.654 183.606 352.53 185.164 356.686 185.587C356.686 185.225 356.699 184.874 356.699 184.512C356.699 181.95 356.626 179.4 356.517 176.863C351.659 176.355 347.962 174.349 344.373 172.392C340.083 170.059 335.648 167.643 328.41 167.401V167.389ZM57.2063 172.706C60.4086 171.618 63.2604 170.664 66.4385 170.579C66.1243 173.31 65.8706 176.065 65.7376 178.857C61.3149 179.183 57.6413 180.5 54.0765 181.817C49.557 183.473 45.2913 185.032 39.2251 184.621C33.5456 184.306 30.0533 182.385 26.3556 180.367C22.6941 178.361 18.5613 176.138 12.5314 175.642C12.6764 172.73 12.8939 169.842 13.196 166.966C18.3921 167.57 21.8844 169.274 25.5459 171.099C29.4249 173.032 33.4368 175.026 39.1768 175.521C40.3127 175.618 41.3882 175.666 42.4395 175.666C48.5178 175.666 53.0977 174.108 57.2183 172.706H57.2063ZM40.5906 201.623C46.4272 201.901 49.9921 200.306 54.1248 198.457C57.46 196.971 61.1819 195.327 66.076 194.856C65.8464 192.149 65.7014 189.418 65.6531 186.675C62.5716 187.001 59.8285 188.004 56.7592 189.128C52.433 190.711 47.5994 192.475 41.1707 192.475C40.3852 192.475 39.5756 192.451 38.7418 192.391C31.3463 191.98 26.706 189.43 22.6095 187.195C19.3468 185.406 16.4708 183.847 12.3138 183.424C12.3138 183.787 12.3018 184.137 12.3018 184.5C12.3018 187.062 12.3743 189.611 12.483 192.149C17.3408 192.657 21.0386 194.663 24.6275 196.62C28.9174 198.952 33.3523 201.369 40.5906 201.611V201.623Z" fill="#8C9091"/>
<path d="M339.986 204.898C336.457 203.146 333.424 201.636 329.147 201.261C323.044 200.729 318.791 202.167 314.307 203.69C310.392 205.019 306.344 206.385 301.377 206.227C291.166 261.512 242.733 303.408 184.488 303.408C126.243 303.408 75.6706 259.675 66.9579 202.602C63.2723 202.916 60.4688 204.161 57.3027 205.575C53.2183 207.4 48.6264 209.454 41.8714 209.454C41.3517 209.454 40.82 209.442 40.2642 209.418C31.2253 209.103 25.4974 205.986 20.8934 203.484C18.0898 201.962 15.7214 200.669 13.0024 200.125C20.8934 287.916 94.6547 356.711 184.488 356.711C274.321 356.711 342.608 292.907 354.837 209.792C348.324 209.031 343.901 206.856 339.974 204.898H339.986Z" fill="#231F20"/>
<path d="M59.8405 87.9846C58.0037 86.6674 56.6987 85.8699 55.7199 85.3503L60.0822 80.5891C60.8435 81.3504 61.9794 82.3292 63.792 83.6827L76.8308 92.9995L63.6229 76.7343L66.8493 73.2178L83.9966 84.9032L73.7131 72.8553C72.1905 71.1998 71.1512 70.1122 70.3174 69.4234L74.6919 64.6744C75.2961 65.6048 76.2024 66.8253 77.7008 68.5171L95.9599 89.9301L91.09 95.2351L74.7765 83.8156L87.5494 99.102L82.6795 104.407L59.8284 87.9967L59.8405 87.9846ZM105.482 75.9126L96.3103 54.3546C95.4282 52.2519 94.7877 50.8864 94.256 49.9559L101.905 45.1344L120.708 66.3178C122.182 68.0458 123.258 69.1334 124.152 69.8464L118.654 73.3145C118.122 72.384 117.204 71.1877 115.729 69.4597L114.424 68.0096L109.748 70.9581L110.497 72.7586C111.415 74.8371 112.104 76.1784 112.672 77.0847L107.21 80.5287C106.872 79.4653 106.388 78.0031 105.506 75.9005L105.482 75.9126ZM111.863 64.9644L102.364 54.125L108.02 67.3812L111.863 64.9523V64.9644ZM137.952 58.7894L130.412 36.9293L127.934 37.7873C126.654 38.2344 125.663 38.6694 125.083 39.2615L124.466 33.8841L138.883 28.9054L141.71 33.5216C140.876 33.4128 139.825 33.6787 138.544 34.1137L136.067 34.9717L143.608 56.8318C144.333 58.9586 144.876 60.3604 145.396 61.315L139.293 63.4176C139.076 62.3542 138.677 60.9041 137.952 58.7894ZM163.377 51.9619L161.021 28.9538C160.791 26.7182 160.598 25.2319 160.296 24.1806L174.494 22.7305L176.005 27.842C175.232 27.5883 174.47 27.5762 173.069 27.7212L166.966 28.3496L167.86 37.1105L171.776 36.7118C173.214 36.5668 174.096 36.3734 174.869 36.1076L175.328 40.627C174.519 40.5666 173.624 40.5666 172.186 40.7116L168.271 41.1104L169.322 51.3577L175.884 50.681C177.238 50.5481 178.011 50.3185 178.724 49.9197L178.325 55.2729L163.607 56.7835C163.679 55.6959 163.57 54.1975 163.353 51.9619H163.377ZM193.358 50.5118L196.355 27.5883C196.645 25.3648 196.79 23.8664 196.741 22.7788L209.14 24.3981C211.786 24.7485 213.599 27.1533 213.26 29.7513L212.1 38.6211C211.822 40.7116 210.155 42.2825 208.149 42.4517L209.961 53.122C210.336 55.2971 210.735 56.6264 211.158 57.7139L204.33 56.8197C204.33 55.7805 204.113 54.4754 203.786 52.3123L202.433 43.1647L200.391 42.8988L199.291 51.2973C199.001 53.5208 198.856 55.0192 198.892 56.1067L192.488 55.2729C192.814 54.2337 193.056 52.7474 193.346 50.5239L193.358 50.5118ZM203.98 38.9232C205.055 39.0561 205.998 38.2948 206.131 37.2193L206.977 30.7664C207.109 29.7392 206.384 28.7604 205.321 28.6154L202.3 28.2167L200.959 38.5244L203.98 38.9232ZM225.562 56.711L233.791 35.0925C234.589 32.9899 235.06 31.6123 235.29 30.5005L241.332 32.7965C240.752 33.7753 240.196 35.1167 239.398 37.2193L231.169 58.8378L236.776 60.9646C238.093 61.46 239.108 61.7017 239.918 61.6654L237.078 66.2453L223.641 61.1337C224.196 60.1912 224.776 58.8136 225.574 56.711H225.562ZM252.679 67.5262L264.557 50.1251C266.454 47.3458 270.273 46.657 273.052 48.5542L278.732 52.4332C281.523 54.3304 282.26 58.1369 280.363 60.9162L268.485 78.3173C266.587 81.0967 262.769 81.7855 259.989 79.8883L254.31 76.0093C251.531 74.1121 250.781 70.3056 252.679 67.5262ZM261.234 74.8371C262.08 75.4171 263.252 75.1996 263.832 74.3416L274.974 58.0281C275.554 57.1822 275.336 56.0101 274.49 55.43L271.82 53.6053C270.974 53.0253 269.802 53.2428 269.222 54.1008L258.08 70.4143C257.5 71.2602 257.718 72.4324 258.576 73.0124L261.246 74.8371H261.234ZM279.771 88.335L295.613 74.4625C298.151 72.239 302.006 72.529 304.229 75.0667L308.761 80.2387C310.984 82.7764 310.755 86.6433 308.229 88.8667L292.387 102.739C289.849 104.963 285.994 104.673 283.771 102.135L279.239 96.9631C277.016 94.4254 277.246 90.5585 279.783 88.335H279.771ZM286.224 97.5552C286.901 98.3286 288.085 98.4011 288.87 97.7365L303.734 84.7219C304.507 84.0452 304.58 82.8609 303.903 82.0755L301.776 79.6466C301.1 78.8732 299.903 78.8007 299.13 79.4774L284.266 92.492C283.493 93.1687 283.421 94.3529 284.085 95.1384L286.212 97.5673L286.224 97.5552ZM50.9466 265.44L68.1786 253.791C69.8582 252.655 70.9458 251.869 71.6588 251.192L78.0996 260.715C79.3443 262.564 78.8609 265.077 77.012 266.334L71.8763 269.802C70.4141 270.793 68.5532 270.672 67.1877 269.717C67.8281 271.421 67.236 273.403 65.6651 274.454L59.4901 278.623C57.6412 279.868 55.1277 279.385 53.8831 277.536L47.2368 267.699C48.131 267.301 49.2669 266.575 50.9466 265.452V265.44ZM55.2607 272.787C55.8044 273.584 56.8558 273.79 57.6171 273.27L62.6078 269.899C63.4053 269.355 63.6108 268.303 63.0428 267.47L61.3148 264.92L53.4964 270.201L55.2365 272.775L55.2607 272.787ZM65.9913 265.125C66.5351 265.923 67.6227 266.104 68.4202 265.56L72.7826 262.612C73.556 262.092 73.8098 261.053 73.266 260.255L71.6829 257.911L64.4204 262.817L65.9793 265.125H65.9913ZM69.7012 290.248L84.4196 275.53C85.8455 274.104 86.7397 273.149 87.3439 272.315L91.4525 276.424C90.6187 277.028 89.6641 277.91 88.2382 279.348L73.5197 294.067L77.3383 297.885C78.2325 298.78 78.9817 299.348 79.6585 299.613L75.6344 302.332L66.4868 293.185C67.2964 292.617 68.2752 291.698 69.7012 290.26V290.248ZM90.4254 309.16L104.89 293.813C106.304 292.327 107.198 291.312 107.778 290.526L114.509 295.094L103.815 318.235C102.92 320.072 102.413 321.353 102.147 322.344L97.3012 319.057C97.8813 318.283 98.5338 317.087 99.416 315.25L100.141 313.655L96.0203 310.864L94.7998 312.133C93.4222 313.643 92.5643 314.682 92.0205 315.492L87.211 312.229C87.9602 311.577 88.9995 310.646 90.4133 309.16H90.4254ZM101.748 310.477L107.259 298.731L98.3646 308.181L101.748 310.477ZM117.3 323.975L124.43 307.287C125.711 304.302 129.167 302.949 132.152 304.217L139.354 307.299L137.759 311.879C137.179 311.311 136.502 310.84 135.306 310.332L132.128 308.979C130.968 308.483 129.578 309.039 129.107 310.163L122.605 325.389C122.11 326.549 122.678 327.89 123.838 328.386L127.765 330.114C128.962 330.621 129.771 330.79 130.581 330.815L127.862 334.923L120.382 331.733C117.397 330.464 116.007 326.972 117.276 323.999L117.3 323.975ZM144.852 335.6L149.045 315.214C149.456 313.232 149.686 311.903 149.71 310.924L155.402 312.096C155.039 313.015 154.689 314.32 154.278 316.289L152.695 324.011L154.181 324.313L158.326 317.123C159.401 315.274 160.114 314.09 160.525 313.148L166.471 314.368C165.77 315.25 164.936 316.422 163.86 318.259L158.592 327.117L159.994 338.718C160.247 340.832 160.598 342.234 160.888 343.334L154.822 342.089C154.822 341.062 154.628 339.684 154.374 337.57L153.359 328.494L151.837 328.18L150.085 336.687C149.674 338.669 149.492 339.998 149.456 340.989L143.765 339.817C144.127 338.899 144.441 337.594 144.84 335.612L144.852 335.6ZM196.753 340.192L194.083 319.564C193.829 317.558 193.612 316.229 193.321 315.286L199.086 314.537C199.037 315.516 199.17 316.857 199.436 318.863L200.499 327.093L205.599 326.44L204.536 318.211C204.282 316.205 204.016 314.876 203.774 313.933L209.538 313.184C209.502 314.163 209.587 315.516 209.84 317.522L212.511 338.15C212.765 340.156 213.031 341.485 213.321 342.415L207.557 343.165C207.557 342.186 207.472 340.844 207.206 338.838L206.143 330.657L201.055 331.322L202.119 339.503C202.372 341.509 202.59 342.838 202.88 343.781L197.116 344.53C197.152 343.551 197.031 342.21 196.765 340.204L196.753 340.192ZM227.677 334.621L224.076 313.848C223.737 311.83 223.447 310.501 223.181 309.571L230.867 306.924L242.975 329.352C243.918 331.165 244.631 332.349 245.271 333.147L239.737 335.056C239.459 334.126 238.903 332.893 237.96 331.08L237.114 329.546L232.414 331.165L232.691 332.893C233.078 334.899 233.392 336.216 233.707 337.135L228.208 339.032C228.136 338.029 228.015 336.651 227.664 334.633L227.677 334.621ZM235.519 326.343L229.429 314.9L231.652 327.673L235.507 326.343H235.519ZM245.416 305.764C244.135 304.181 243.217 303.166 242.492 302.477L247.434 299.42C247.905 300.266 248.655 301.39 249.899 302.997L258.95 314.235L251.446 296.931L255.095 294.671L267.131 308.966L261.15 296.024C260.231 294.212 259.591 293.028 259.047 292.218L263.989 289.161C264.279 290.115 264.775 291.396 265.669 293.233L276.291 316.229L270.781 319.637L259.422 305.764L266.781 322.114L261.27 325.522L245.452 305.74L245.416 305.764ZM288.665 300.858L273.995 286.103C272.569 284.665 271.59 283.747 270.793 283.179L274.913 279.083C275.481 279.88 276.363 280.907 277.789 282.333L283.348 287.916L284.424 286.841L280.726 279.421C279.783 277.512 279.191 276.255 278.623 275.397L282.925 271.119C283.276 272.195 283.783 273.536 284.726 275.445L289.197 284.714L299.637 289.958C301.547 290.913 302.912 291.396 303.988 291.759L299.601 296.121C298.743 295.553 297.486 294.949 295.589 293.994L287.469 289.837L286.369 290.937L292.484 297.088C293.91 298.526 294.925 299.42 295.722 299.988L291.601 304.085C291.034 303.275 290.115 302.296 288.689 300.858H288.665ZM309.8 277.475C310.501 277.04 311.081 276.4 311.806 275.324L314.694 271.022C315.262 270.177 315.045 269.065 314.235 268.533L310.32 265.911C309.583 265.415 308.7 265.379 307.988 265.766L303.661 268.811C302.006 270.14 299.517 270.297 297.631 269.029L293.221 266.068C290.913 264.521 290.272 261.307 291.879 258.926L296.58 251.93L300.749 254.117C300.048 254.552 299.517 255.12 298.792 256.195L296.483 259.627C295.915 260.473 296.157 261.548 296.931 262.056L300.217 264.255C300.918 264.727 301.837 264.787 302.525 264.376L306.864 261.391C308.483 260.038 311.009 259.905 312.93 261.198L317.933 264.557C320.277 266.128 320.905 269.343 319.31 271.723L314.15 279.421L309.824 277.475H309.8Z" fill="white"/>
<path d="M273.777 175.316C273.777 175.316 266.599 162.084 244.957 162.084C241.694 162.084 237.767 161.963 233.863 161.806C233.876 161.226 233.9 160.646 233.912 160.078C234.274 146.894 234.649 133.264 226.033 124.406C220.523 118.739 211.725 113.458 187.509 116.575C139.74 122.702 123.753 108.298 123.753 108.298C123.753 108.298 118.545 135.656 150.894 147.74C166.084 153.408 173.636 157.432 177.684 160.646C160.525 162.229 146.387 156.84 139.45 153.263C122.666 144.598 101.12 130.666 101.12 130.666C101.12 130.666 109.651 158.205 109.216 184.524C109.651 210.856 101.12 238.383 101.12 238.383C101.12 238.383 122.666 224.45 139.45 215.786C146.399 212.197 160.525 206.82 177.684 208.403C173.636 211.617 166.084 215.629 150.894 221.308C118.545 233.38 123.753 260.751 123.753 260.751C123.753 260.751 139.752 246.347 187.509 252.473C211.725 255.579 220.523 250.31 226.033 244.643C234.637 235.797 234.274 222.166 233.912 208.97C233.839 206.493 233.779 203.992 233.767 201.503C238.383 200.512 254.769 197.08 260.219 197.346C273.813 198.022 265.826 209.575 265.826 209.575C276.122 207.738 282.611 200.173 283.094 193.237C283.928 181.467 273.777 175.34 273.777 175.34V175.316Z" fill="#8C9091"/>
<path d="M270.804 178.337C266.418 172.211 258.938 166.169 244.957 166.169C240.111 166.169 233.9 165.927 228.438 165.649C228.788 141.01 233.235 116.455 188.149 121.88C142.544 127.379 129.106 116.986 129.106 116.986C129.106 116.986 129.106 133.747 152.791 142.725C181.575 153.649 185.092 158.507 187.642 164.042C176.863 165.987 155.957 167.788 136.997 157.988C119.729 149.07 109.651 142.544 109.651 142.544C109.651 142.544 114.569 161.891 114.569 184.5C114.569 207.11 109.651 226.456 109.651 226.456C109.651 226.456 119.729 219.919 136.997 211.013C155.969 201.225 176.863 203.025 187.642 204.959C185.08 210.505 181.563 215.363 152.791 226.275C129.106 235.265 129.106 252.014 129.106 252.014C129.106 252.014 142.544 241.622 188.149 247.12C236.534 252.945 227.87 224.233 228.45 197.95C252.521 193.044 264.738 190.24 270.599 196.101C274.345 199.847 270.913 204.125 270.913 204.125C275.336 202.989 279.602 197.962 279.602 192.766C279.602 183.739 273.705 179.437 270.816 178.325L270.804 178.337Z" fill="#231F20"/>
<path d="M119.451 160.972C119.209 159.003 118.944 157.129 118.678 155.389C118.678 155.389 128.019 160.586 134.049 163.691C144.707 169.201 157.021 171.993 170.651 171.993C177.588 171.993 183.702 171.256 188.27 170.458L188.113 174.796C183.316 175.509 176.416 176.283 170.651 176.283C157.021 176.283 139.45 171.908 128.792 166.41C125.542 164.73 122.025 162.604 119.451 160.984V160.972ZM198.566 131.197C211.641 130.919 216.281 132.478 219.242 134.762C218.77 133.976 218.227 133.251 217.598 132.599C214.323 129.227 208.306 127.523 199.714 127.523C196.487 127.523 192.862 127.765 188.923 128.236C179.835 129.336 171.316 129.88 163.594 129.88C154.108 129.88 146.725 129.046 141.07 127.91C146.725 133.565 154.108 134.158 163.594 134.158C175.28 134.158 192.403 131.306 198.566 131.173V131.197ZM244.969 176.186C250.092 176.186 256.485 176.657 262.007 178.107C257.729 174.373 252.207 172.585 244.969 172.585C237.73 172.585 228.329 172.09 221.936 171.715L221.876 175.352C229.066 175.727 238.226 176.186 244.981 176.186H244.969ZM194.312 205.973C194.191 206.179 194.083 206.372 193.962 206.59C189.599 214.408 186.457 220.378 155.075 232.28C148.828 234.649 144.598 237.573 141.71 240.437C155.027 232.256 186.022 229.417 195.847 211.87C197.273 209.321 198.505 207.218 199.569 205.454C197.768 205.695 196.004 205.877 194.312 205.961V205.973Z" fill="#8C9091"/>
</svg>
